<svg width="22" height="25" viewBox="0 0 22 25" fill="none" xmlns="http://www.w3.org/2000/svg">
<path d="M21.9215 12.2196C21.7864 11.9496 21.5164 11.5894 21.2913 11.4094C21.2913 11.4094 21.2913 11.4094 21.2463 11.3644C21.2913 11.1843 21.3363 11.0493 21.3813 10.8692C21.4263 10.5992 21.5164 10.3741 21.5614 10.104L21.8765 8.97868C22.1015 8.66358 21.6064 8.48353 21.3363 8.34849C20.8862 8.07841 20.436 7.80833 20.0309 7.49324L19.5808 7.13313L20.8862 5.55766L20.9312 5.51265L21.0212 5.10753L20.5261 3.9822H20.166L20.8412 2.9919L20.8862 2.81185L20.7511 2.31671L20.256 2.49676L20.121 2.6318L19.6258 3.9822H19.1757L18.9956 4.16225L20.391 1.55148V1.19137L19.5808 0.246094L18.4104 0.606198L18.2304 0.921293L18.1854 1.9566C18.0503 1.73153 17.8703 1.55148 17.6902 1.37143C17.4652 1.14636 17.1951 1.10135 16.925 0.966306C16.925 0.966306 16.97 0.966305 16.97 1.01132C16.6999 0.876279 16.3398 0.741238 16.2498 0.381132H16.2048C16.2048 0.381132 16.2048 0.336119 16.1598 0.336119C15.8897 0.471159 15.6196 0.606201 15.3045 0.651214C14.8544 0.741241 14.4493 0.786253 13.9991 0.696227C13.8191 0.651213 13.684 0.6062 13.504 0.516173C13.369 0.426146 13.1889 0.426146 13.0539 0.336119C13.0088 0.471159 12.9188 0.651212 12.8288 0.786252C12.7388 0.966305 12.6487 1.14636 12.5587 1.2814C12.4687 1.46145 12.3336 2.45174 12.2436 3.307C12.1986 3.53206 12.1086 3.75713 12.0636 3.9822C12.0186 3.93718 11.9735 3.93718 11.9285 3.93718C11.8835 3.93718 11.7935 3.93718 11.7485 3.93718C11.7035 3.93718 11.6584 3.93718 11.6584 3.93718C11.6584 3.93718 11.6134 4.02721 11.6134 4.16225C11.6134 4.29729 11.6585 4.43233 11.7485 4.52236C11.7935 4.56737 11.8385 4.56737 11.8835 4.61238V4.6574C11.8385 4.6574 11.7935 4.6574 11.7485 4.6574C11.7035 4.6574 11.6134 4.70241 11.5684 4.70241C11.5234 4.70241 11.5234 4.70241 11.5234 4.70241C11.4334 4.52236 11.3434 4.38732 11.2083 4.20726C11.2083 4.20726 11.2083 4.16225 11.1633 4.16225C11.1633 4.11724 11.1183 4.11724 11.1183 4.07222C11.0733 4.02721 11.0283 3.93718 10.9832 3.89217C11.0283 3.89217 11.0283 3.89217 11.0733 3.93718C11.1633 3.9822 11.2083 3.9822 11.2533 3.9822H11.2983L11.5234 4.16225C11.5234 4.11724 11.5234 4.02721 11.4784 3.9822C11.5234 3.9822 11.5684 3.93718 11.5684 3.93718C11.5684 3.93718 11.5684 3.93718 11.5684 3.89217C11.6584 3.84716 11.7035 3.80214 11.7485 3.71212C11.8385 3.57708 11.8385 3.48705 11.8385 3.48705C11.8385 3.48705 11.7935 3.48705 11.7485 3.44204C11.7035 3.39702 11.6584 3.39703 11.5684 3.35201C11.5234 3.35201 11.4784 3.307 11.3884 3.307C11.3434 3.307 11.3434 3.307 11.2983 3.26198C11.3884 3.26198 11.4334 3.21697 11.5234 3.17196C11.6585 3.08193 11.7485 2.90188 11.7935 2.76684C11.8385 2.6318 11.7935 2.49676 11.7935 2.49676C11.7935 2.49676 11.7485 2.49676 11.7035 2.49676C11.6584 2.49676 11.5684 2.49676 11.4784 2.49676C11.3884 2.49676 11.2983 2.54177 11.2533 2.54177C11.1633 2.58678 11.1183 2.6318 11.0733 2.72183C11.0733 2.72183 11.0733 2.72183 11.0733 2.67681C11.0733 2.6318 11.0733 2.6318 11.0733 2.58678C11.0733 2.54177 11.0733 2.49676 11.0733 2.40673C11.0283 2.3167 11.0283 2.27169 11.0283 2.27169C11.0283 2.27169 10.9832 2.3167 10.9382 2.36172C10.8932 2.3167 10.8482 2.27169 10.8482 2.22668L10.9382 1.82156C10.8032 1.82156 10.6682 1.9566 10.6231 2.13665C10.6231 2.09164 10.5781 2.09164 10.5331 2.04663C10.4881 2.00161 10.3981 1.9566 10.3981 1.9566C10.3981 1.9566 10.3531 2.00161 10.308 2.09164C10.218 2.04663 10.038 1.9566 9.99296 2.04663L10.263 2.49676C10.218 2.54177 10.218 2.6318 10.173 2.67681C10.173 2.72183 10.173 2.81185 10.173 2.85686C10.173 2.85686 10.173 2.81185 10.128 2.81185C10.128 2.76684 10.083 2.72183 10.038 2.72183C9.99296 2.67681 9.94794 2.67681 9.94794 2.67681C9.90293 2.67681 9.85792 2.67681 9.8129 2.67681H9.76789C9.72288 2.67681 9.63285 2.67681 9.58784 2.67681L9.67786 2.72183C9.67786 2.76684 9.67786 2.76684 9.72288 2.81185C9.76789 2.90188 9.8129 2.94689 9.85791 2.9919C9.90293 2.9919 9.90293 2.9919 9.94794 3.03692V3.08193C9.76789 3.08193 9.58783 3.17196 9.4528 3.26198C9.54282 3.307 9.58783 3.39702 9.67786 3.44204C9.72287 3.53206 9.8129 3.62209 9.90293 3.6671C9.72287 3.71212 9.63285 3.84716 9.54282 4.02721C9.76789 4.07223 9.94794 4.07222 10.173 3.9822C10.083 4.11724 10.083 4.20726 10.083 4.3423C10.083 4.38732 10.083 4.43233 10.083 4.52236C10.083 4.52236 10.308 4.43233 10.3531 4.43233C10.3981 4.38732 10.4431 4.3423 10.4431 4.29729C10.4881 4.29729 10.4881 4.25228 10.5331 4.25228C10.5331 4.34231 10.5331 4.43233 10.6231 4.52236C10.6231 4.38732 10.7582 4.29729 10.8032 4.20726C10.8032 4.16225 10.8482 4.11724 10.8482 4.07222C10.9382 4.3423 10.9832 4.6574 10.9832 4.97249H7.83232H7.69728L8.4625 3.6671H8.50752C8.50752 3.6671 8.55253 3.6671 8.55253 3.62209L8.41749 3.03692V3.21697L8.37248 3.03692L7.92235 3.17196L7.83232 3.307L7.1121 4.88246L6.79701 4.52236L6.34688 4.79244L6.70698 3.17196V3.12695V2.76684L6.4369 2.04663L5.89675 2.6318L5.85173 2.81185L5.26656 1.41644L5.13152 1.2814L4.7264 1.14636L4.59136 1.59649L4.63637 1.73153L5.71669 3.71212L5.62666 4.3423C5.44661 3.84716 5.31157 3.48705 5.31157 3.44204C5.22155 3.307 5.13152 3.21697 4.99648 3.12695C4.95147 3.08193 4.95146 3.08193 4.90645 3.03692C4.86144 2.9919 4.81643 2.94689 4.77141 2.90188C4.63637 2.76684 4.50133 2.6318 4.36629 2.54177C4.23125 2.45175 4.09621 2.31671 3.96117 2.27169C3.91616 2.27169 3.91616 2.27169 3.87115 2.22668C3.55605 2.18167 3.15093 2.22668 2.88085 2.45175C2.79083 2.54177 2.74581 2.58679 2.7008 2.72183C2.7008 2.76684 2.7008 2.81185 2.65579 2.85686V2.90188C2.56576 3.26199 2.56576 3.75713 2.61077 4.11724C2.61077 4.25228 2.65579 4.43233 2.65579 4.56737C2.65579 4.52236 2.65579 4.47734 2.65579 4.38732C2.65579 4.43233 2.65579 4.47734 2.65579 4.52236C2.65579 4.52236 2.74581 4.74742 2.83584 5.06252L2.47573 4.52236L2.29568 4.3423L1.98059 4.29729L1.93557 4.6574L1.98059 4.74742L2.92587 5.91777L1.75552 5.10753V5.06252L1.71051 5.0175L1.53045 5.06252H1.48544L1.3504 5.10753L0.945282 5.15254H1.12533L0.945282 5.19756L1.08032 5.78273L1.26037 5.91777L2.56576 6.68299L2.47573 6.86305L2.29568 7.13313L2.34069 7.49324L2.38571 7.58326L2.0256 7.85334C2.07061 7.80833 2.11563 7.76332 2.16064 7.7183C1.93557 7.85334 1.71051 7.94337 1.44043 8.07841C1.26037 8.16844 0.540162 8.61857 0.495149 8.75361C0.495149 8.84364 1.17035 10.014 1.57547 10.7792L0.270083 10.9142C0.270083 10.9142 0.27008 10.9593 0.225067 10.9593C0.13504 11.0943 0.0900266 11.2293 0 11.3194C0 11.3644 0 11.4094 0 11.4094C0.0900266 12.2196 0.225069 12.9849 0.270083 13.7951C0.630189 14.6053 1.03531 15.4156 1.03531 15.4156L3.69109 18.2514L4.0512 18.6115L4.27626 18.8366L6.57195 20.367L7.65226 20.7271C7.65226 20.7271 7.92234 20.8172 8.32746 21.1773C8.4625 21.3123 8.59754 21.4023 8.73258 21.5374L8.7776 21.5824C9.04768 21.7625 9.31776 21.9425 9.58784 22.1676C9.58784 22.1676 9.58784 22.1676 9.63285 22.2126C9.76789 22.3026 9.90293 22.3926 9.99296 22.4377C9.99296 22.4377 10.038 22.4377 10.038 22.4827C10.083 22.5277 10.128 22.5277 10.173 22.5727C10.218 22.5727 10.263 22.6177 10.263 22.6177C10.308 22.6627 10.3531 22.6627 10.3981 22.7077C10.4431 22.7077 10.4431 22.7527 10.4881 22.7527C10.5331 22.7978 10.5781 22.7978 10.6231 22.8428L10.6682 22.8878C10.7132 22.9328 10.7582 22.9328 10.8032 22.9778C10.8032 22.9778 10.8482 22.9778 10.8482 23.0228C10.8932 23.0678 10.9382 23.0678 10.9832 23.1129C10.9832 23.1129 10.9832 23.1129 11.0283 23.1129C11.0733 23.1129 11.1183 23.1579 11.1183 23.1579C11.1633 23.2029 11.2083 23.2029 11.2083 23.2029L11.1183 23.8781L12.2886 24.2382L12.4237 24.2832C12.4237 24.2832 12.4237 24.3282 12.4687 24.3282H12.5137C12.6037 24.3282 12.7388 24.2832 12.7838 24.1932C13.0539 24.0131 13.2789 23.788 13.504 23.563C13.9991 23.1129 14.4943 22.7077 14.9894 22.2576C15.2145 22.0775 15.4396 21.8525 15.6646 21.6724C15.8447 21.4924 16.0247 21.3573 16.1148 21.1323C16.2498 20.8172 16.3398 20.6371 16.6549 20.4571C16.925 20.322 17.2401 20.232 17.5552 20.232C17.6002 20.232 17.6452 20.187 17.6902 20.142C17.8703 19.6468 17.9153 19.1067 18.3204 18.7015C18.5005 18.5215 18.7706 18.4315 19.0406 18.3414C19.2657 18.2514 19.5358 18.1614 19.7608 18.0714C20.166 17.8463 20.301 17.5762 20.391 17.1711C20.5261 16.721 20.8862 16.3609 21.1112 15.8657C21.2913 15.5506 21.4713 15.1905 21.5164 14.8754C21.5164 14.7854 21.5614 14.6954 21.5614 14.5603C21.6064 14.3803 21.6064 14.2002 21.6514 14.0202C21.6964 13.6601 21.7864 13.2549 21.8315 12.8948C22.0115 12.6248 22.0565 12.3997 21.9215 12.2196Z" fill="url(#paint0_linear_1424_5729)"/>
<defs>
<linearGradient id="paint0_linear_1424_5729" x1="11" y1="0.246094" x2="11" y2="24.3282" gradientUnits="userSpaceOnUse">
<stop stop-color="#4FD4D3"/>
<stop offset="1" stop-color="#5650D8"/>
</linearGradient>
</defs>
</svg>
