<svg width="48" height="48" viewBox="0 0 48 48" fill="none" xmlns="http://www.w3.org/2000/svg">
<path d="M24 30.6664V15.1108M24 30.6664C17.8635 30.6664 12.8889 35.641 12.8889 41.7775M24 30.6664C30.1365 30.6664 35.1111 35.641 35.1111 41.7775M10.6667 23.9997L8.44444 21.7775M37.3333 23.9997L39.5556 21.7775M4 41.7775H44" stroke="url(#paint0_linear_3215_8432)" stroke-width="2" stroke-linecap="round" stroke-linejoin="round"/>
<path d="M17.332 41.7775C17.332 38.0956 20.3168 35.1108 23.9987 35.1108C27.6806 35.1108 30.6654 38.0956 30.6654 41.7775" stroke="#7C79DD" stroke-width="2" stroke-linecap="round" stroke-linejoin="round"/>
<path d="M34.4152 6.29111C35.5263 10.7356 35.0819 19.18 24.4152 17.4022C23.3041 13.3281 23.7485 5.40222 34.4152 6.29111Z" stroke="url(#paint1_linear_3215_8432)" stroke-width="2" stroke-linejoin="round"/>
<path d="M13.3075 6.29111C12.1964 10.7356 12.6408 19.18 23.3075 17.4022C24.4186 13.3282 23.9741 5.40222 13.3075 6.29111Z" stroke="url(#paint2_linear_3215_8432)" stroke-width="2" stroke-linejoin="round"/>
<defs>
<linearGradient id="paint0_linear_3215_8432" x1="24" y1="15.1108" x2="24" y2="49" gradientUnits="userSpaceOnUse">
<stop offset="0.125" stop-color="#969BEE"/>
<stop offset="1" stop-color="#746ED8"/>
</linearGradient>
<linearGradient id="paint1_linear_3215_8432" x1="29.4152" y1="6.22217" x2="29.4152" y2="17.6444" gradientUnits="userSpaceOnUse">
<stop stop-color="#F8845B"/>
<stop offset="1" stop-color="#F8845B"/>
</linearGradient>
<linearGradient id="paint2_linear_3215_8432" x1="18.3075" y1="6.22217" x2="18.3075" y2="17.6444" gradientUnits="userSpaceOnUse">
<stop stop-color="#F8845B"/>
<stop offset="1" stop-color="#F8845B"/>
</linearGradient>
</defs>
</svg>
