<svg width="28" height="28" viewBox="0 0 22 22" fill="none" xmlns="http://www.w3.org/2000/svg">
<path d="M0 4C0 1.79086 1.79086 0 4 0H22V18C22 20.2091 20.2091 22 18 22H0V4Z" fill="url(#paint0_linear_289_7992)"/>
<path fill-rule="evenodd" clip-rule="evenodd" d="M8.01167 17H5.99394C5.56995 17 5.36052 17 5.23282 16.9156C5.09489 16.8233 5.01061 16.6703 5.00039 16.5014C4.99272 16.3459 5.09745 16.1559 5.30689 15.776L10.2889 6.7063C10.5009 6.32116 10.6082 6.12859 10.7435 6.05737C10.8891 5.98088 11.0628 5.98088 11.2084 6.05737C11.3438 6.12859 11.451 6.32116 11.663 6.7063L12.6872 8.55284L12.6924 8.56226C12.9214 8.97544 13.0375 9.18497 13.0882 9.40487C13.1444 9.64493 13.1444 9.89817 13.0882 10.1382C13.0371 10.3598 12.9222 10.5708 12.6898 10.9903L10.0728 15.7681L10.0661 15.7803C9.83559 16.1969 9.71879 16.408 9.55691 16.5673C9.38067 16.7415 9.16868 16.868 8.93625 16.9394C8.72426 17 8.48674 17 8.01167 17ZM13.1071 17H15.9983C16.4248 17 16.6394 17 16.7672 16.9131C16.9051 16.8207 16.9919 16.665 16.9996 16.4963C17.007 16.3457 16.9045 16.1631 16.7038 15.8053C16.6969 15.7932 16.6899 15.7808 16.6829 15.7681L15.2347 13.2094L15.2182 13.1806C15.0147 12.8251 14.912 12.6457 14.78 12.5763C14.6345 12.4998 14.4633 12.4998 14.3178 12.5763C14.1849 12.6475 14.0777 12.8348 13.8657 13.212L12.4226 15.7708L12.4177 15.7796C12.2064 16.1562 12.1009 16.3444 12.1085 16.4988C12.1187 16.6677 12.203 16.8233 12.3409 16.9156C12.466 17 12.6806 17 13.1071 17Z" fill="white"/>
<defs>
<linearGradient id="paint0_linear_289_7992" x1="22" y1="22" x2="0" y2="0" gradientUnits="userSpaceOnUse">
<stop stop-color="#D91D1E"/>
<stop offset="1" stop-color="#FF7576"/>
</linearGradient>
</defs>
</svg>
