<svg width="115" height="35" viewBox="0 0 115 35" fill="none" xmlns="http://www.w3.org/2000/svg">
<path d="M41.6411 7.18262H45.6107C46.5634 7.18262 47.3971 7.38103 48.1513 7.73817C48.8658 8.09532 49.4613 8.61119 49.8582 9.28579C50.2552 9.96039 50.4537 10.7144 50.4537 11.5874C50.4537 12.4604 50.2552 13.2144 49.8582 13.889C49.4613 14.5636 48.9055 15.0794 48.1513 15.4366C47.4368 15.7937 46.5634 15.9921 45.6107 15.9921H41.6411V7.18262ZM45.5313 14.2858C46.4047 14.2858 47.1192 14.0477 47.6352 13.5715C48.1513 13.0953 48.4292 12.4207 48.4292 11.5874C48.4292 10.754 48.1513 10.0794 47.6352 9.60325C47.1192 9.12706 46.4047 8.88897 45.5313 8.88897H43.6656V14.2858H45.5313Z" fill="white"/>
<path d="M58.79 14.3255V15.9525H52.002V7.18262H58.6312V8.8096H54.0265V10.7144H58.0755V12.3017H54.0265V14.3255H58.79Z" fill="white"/>
<path d="M62.4421 8.8096V11.1112H66.4911V12.7382H62.4421V15.9525H60.3779V7.18262H67.0072V8.8096H62.4421Z" fill="white"/>
<path d="M70.421 7.18262H68.3965V15.9525H70.421V7.18262Z" fill="white"/>
<path d="M81.933 12.8175V15.9525H79.9085V12.8175L76.4946 7.18262H78.6779L81.02 11.0715L83.3621 7.18262H85.3469L81.933 12.8175Z" fill="white"/>
<path d="M88.1256 7.18262H86.1011V15.9525H88.1256V7.18262Z" fill="white"/>
<path d="M96.978 14.3255V15.9525H90.1899V7.18262H96.8192V8.8096H92.2145V10.7144H96.3032V12.3017H92.2145V14.3255H96.978Z" fill="white"/>
<path d="M98.6055 7.18262H100.63V14.2858H105.036V15.9525H98.6055V7.18262Z" fill="white"/>
<path d="M106.188 7.18262H110.157C111.11 7.18262 111.943 7.38103 112.698 7.73817C113.412 8.09532 114.008 8.61119 114.405 9.28579C114.802 9.96039 115 10.7144 115 11.5874C115 12.4604 114.802 13.2144 114.405 13.889C114.008 14.5636 113.412 15.0794 112.698 15.4366C111.983 15.7937 111.11 15.9921 110.157 15.9921H106.188V7.18262ZM110.038 14.2858C110.911 14.2858 111.626 14.0477 112.142 13.5715C112.658 13.0953 112.936 12.4207 112.936 11.5874C112.936 10.754 112.658 10.0794 112.142 9.60325C111.626 9.12706 110.911 8.88897 110.038 8.88897H108.172V14.2858H110.038Z" fill="white"/>
<path d="M47.4765 18.4525C48.0322 18.7303 48.4689 19.0874 48.7864 19.5636C49.104 20.0398 49.2628 20.5953 49.2628 21.2699C49.2628 21.9049 49.104 22.4604 48.7864 22.9366C48.4689 23.4128 48.0322 23.7699 47.4765 24.0477C46.9207 24.2858 46.2459 24.4446 45.452 24.4446H43.6656V26.8652H41.6411V18.0557H45.452C46.2062 18.0557 46.881 18.2144 47.4765 18.4525ZM46.7222 22.3811C47.0398 22.1033 47.1986 21.7461 47.1986 21.2699C47.1986 20.7938 47.0398 20.3969 46.7222 20.1192C46.4047 19.8414 45.9283 19.7223 45.3329 19.7223H43.6656V22.7779H45.3329C45.9283 22.7779 46.4047 22.6192 46.7222 22.3811Z" fill="white"/>
<path d="M56.2891 26.8255L54.5821 24.4049H54.463H52.7164V26.8255H50.6919V18.0557H54.5027C55.2967 18.0557 55.9715 18.1747 56.5272 18.4525C57.083 18.7303 57.5196 19.0874 57.8372 19.5636C58.1548 20.0398 58.3136 20.5953 58.3136 21.2699C58.3136 21.9049 58.1548 22.5001 57.8372 22.9366C57.5196 23.4128 57.083 23.77 56.4875 24.008L58.4724 26.8255H56.2891ZM55.773 20.1192C55.4554 19.8414 54.9791 19.7223 54.3836 19.7223H52.7164V22.7779H54.3836C54.9791 22.7779 55.4554 22.6588 55.773 22.3811C56.0906 22.1033 56.2494 21.7461 56.2494 21.2699C56.2494 20.7541 56.0906 20.3573 55.773 20.1192Z" fill="white"/>
<path d="M61.6878 26.389C60.9732 25.9922 60.3778 25.4763 59.9808 24.7621C59.5839 24.0478 59.3457 23.2938 59.3457 22.4605C59.3457 21.6271 59.5442 20.8335 59.9808 20.1192C60.3778 19.4446 60.9732 18.889 61.6878 18.4922C62.4023 18.0954 63.2359 17.897 64.149 17.897C65.062 17.897 65.8956 18.0954 66.6101 18.4922C67.3246 18.889 67.9201 19.4049 68.3171 20.1192C68.7537 20.7938 68.9522 21.5874 68.9522 22.4605C68.9522 23.3335 68.7537 24.0875 68.3171 24.7621C67.8804 25.4367 67.3246 25.9922 66.6101 26.389C65.8956 26.7859 65.062 26.9843 64.149 26.9843C63.2359 26.9843 62.4023 26.7859 61.6878 26.389ZM65.5383 24.8811C65.975 24.643 66.2925 24.3255 66.5307 23.889C66.7689 23.4525 66.888 22.9763 66.888 22.4208C66.888 21.8652 66.7689 21.389 66.5307 20.9525C66.2925 20.516 65.975 20.1986 65.5383 19.9605C65.1017 19.7224 64.665 19.6033 64.149 19.6033C63.6329 19.6033 63.1565 19.7224 62.7596 19.9605C62.3229 20.1986 62.0054 20.516 61.7672 20.9525C61.529 21.389 61.4099 21.8652 61.4099 22.4208C61.4099 22.9763 61.529 23.4525 61.7672 23.889C62.0054 24.3255 62.3229 24.643 62.7596 24.8811C63.1962 25.1192 63.6329 25.2382 64.149 25.2382C64.665 25.2382 65.1414 25.1192 65.5383 24.8811Z" fill="white"/>
<path d="M72.1676 19.7223H69.3491V18.0557H76.9708V19.7223H74.1921V26.8255H72.1676V19.7223Z" fill="white"/>
<path d="M79.7498 26.389C79.0353 25.9922 78.4398 25.4763 78.0429 24.7621C77.6459 24.0478 77.4077 23.2938 77.4077 22.4605C77.4077 21.6271 77.6062 20.8335 78.0429 20.1192C78.4398 19.4446 79.0353 18.889 79.7498 18.4922C80.4643 18.0954 81.2979 17.897 82.211 17.897C83.124 17.897 83.9576 18.0954 84.6721 18.4922C85.3867 18.889 85.9821 19.4049 86.3791 20.1192C86.8157 20.7938 87.0142 21.5874 87.0142 22.4605C87.0142 23.3335 86.8157 24.0875 86.3791 24.7621C85.9424 25.4367 85.3867 25.9922 84.6721 26.389C83.9576 26.7859 83.124 26.9843 82.211 26.9843C81.2979 26.9843 80.4643 26.7859 79.7498 26.389ZM83.6003 24.8811C84.037 24.643 84.3546 24.3255 84.5927 23.889C84.8309 23.4525 84.95 22.9763 84.95 22.4208C84.95 21.8652 84.8309 21.389 84.5927 20.9525C84.3546 20.516 84.037 20.1986 83.6003 19.9605C83.1637 19.7224 82.727 19.6033 82.211 19.6033C81.6949 19.6033 81.2186 19.7224 80.8216 19.9605C80.3849 20.1986 80.0674 20.516 79.8292 20.9525C79.591 21.389 79.4719 21.8652 79.4719 22.4208C79.4719 22.9763 79.591 23.4525 79.8292 23.889C80.0674 24.3255 80.3849 24.643 80.8216 24.8811C81.2583 25.1192 81.6949 25.2382 82.211 25.2382C82.727 25.2382 83.1637 25.1192 83.6003 24.8811Z" fill="white"/>
<path d="M90.2693 26.3887C89.5548 25.9919 88.999 25.476 88.5624 24.7617C88.1654 24.0871 87.9272 23.2934 87.9272 22.4204C87.9272 21.5474 88.1257 20.7934 88.5624 20.0792C88.9594 19.4046 89.5548 18.849 90.2693 18.4522C90.9839 18.0553 91.8175 17.8569 92.6908 17.8569C93.445 17.8569 94.1199 17.976 94.755 18.2538C95.3504 18.5315 95.8665 18.8887 96.3032 19.4046L94.9932 20.595C94.3977 19.9204 93.6832 19.5633 92.7702 19.5633C92.2144 19.5633 91.7381 19.6823 91.3014 19.9204C90.8648 20.1585 90.5472 20.476 90.309 20.9125C90.0708 21.349 89.9518 21.8252 89.9518 22.3807C89.9518 22.9363 90.0708 23.4125 90.309 23.849C90.5472 24.2855 90.8648 24.603 91.3014 24.8411C91.7381 25.0792 92.2144 25.1982 92.7702 25.1982C93.6435 25.1982 94.3977 24.8411 94.9932 24.1665L96.3032 25.3569C95.8665 25.8728 95.3504 26.2696 94.755 26.5077C94.1199 26.7855 93.445 26.9046 92.6908 26.9046C91.8175 26.9839 91.0236 26.7855 90.2693 26.3887Z" fill="white"/>
<path d="M99.2801 26.389C98.5655 25.9922 97.9701 25.4763 97.5731 24.7621C97.1762 24.0875 96.938 23.2938 96.938 22.4605C96.938 21.6271 97.1365 20.8335 97.5731 20.1192C97.9701 19.4446 98.5655 18.889 99.2801 18.4922C99.9946 18.0954 100.828 17.897 101.741 17.897C102.654 17.897 103.488 18.0954 104.202 18.4922C104.917 18.889 105.512 19.4049 105.909 20.1192C106.346 20.7938 106.544 21.5874 106.544 22.4605C106.544 23.3335 106.346 24.0875 105.909 24.7621C105.473 25.4367 104.917 25.9922 104.202 26.389C103.488 26.7859 102.654 26.9843 101.741 26.9843C100.828 26.9843 100.034 26.7859 99.2801 26.389ZM103.131 24.8811C103.567 24.643 103.885 24.3255 104.123 23.889C104.361 23.4525 104.48 22.9763 104.48 22.4208C104.48 21.8652 104.361 21.389 104.123 20.9525C103.885 20.516 103.567 20.1986 103.131 19.9605C102.694 19.7224 102.257 19.6033 101.741 19.6033C101.225 19.6033 100.749 19.7224 100.352 19.9605C99.9152 20.1986 99.5976 20.516 99.3595 20.9525C99.1213 21.389 99.0022 21.8652 99.0022 22.4208C99.0022 22.9763 99.1213 23.4525 99.3595 23.889C99.5976 24.3255 99.9152 24.643 100.352 24.8811C100.789 25.1192 101.225 25.2382 101.741 25.2382C102.257 25.2382 102.734 25.1192 103.131 24.8811Z" fill="white"/>
<path d="M108.053 18.0557H110.078V25.1588H114.484V26.8255H108.053V18.0557Z" fill="white"/>
<path d="M17.506 0C27.1919 0 35.0121 7.81746 35.0121 17.5C35.0121 27.1825 27.1919 35 17.506 35C7.82016 35 0 27.1825 0 17.5C0 7.81746 7.82016 0 17.506 0Z" fill="#DB2728"/>
<path d="M12.2264 21.3886C11.7898 21.5474 11.3134 21.6267 10.8371 21.6267C8.61407 21.6267 6.82774 19.841 6.82774 17.6188C6.82774 15.3966 8.61407 13.6109 10.8371 13.6109C10.9561 13.6109 11.0752 13.6109 11.1943 13.6109V11.9839C11.0752 11.9839 10.9561 11.9839 10.8371 11.9839C7.70106 11.9839 5.2002 14.5236 5.2002 17.6188C5.2002 20.7537 7.74075 23.2537 10.8371 23.2537C11.7501 23.2537 12.6234 23.0156 13.3776 22.6585C12.941 22.3013 12.544 21.8648 12.2264 21.3886Z" fill="white"/>
<path d="M14.8462 17.659C14.8462 18.4923 14.608 19.2463 14.1713 19.8812C14.4492 20.3574 14.8462 20.7542 15.3225 21.0717C16.037 20.1193 16.4737 18.9288 16.4737 17.659V9.04785H14.8462V13.651C14.4889 13.2939 14.0919 12.9764 13.6553 12.7383V14.7621C14.3698 15.5161 14.8462 16.5082 14.8462 17.659Z" fill="white"/>
<path d="M23.1427 5.79346C20.0067 5.79346 17.5059 8.33314 17.5059 11.4284V11.4681V19.9998H19.1334V15.3966C19.6098 15.8728 20.2052 16.2696 20.8403 16.5871V14.6823C19.8082 13.9681 19.1334 12.7776 19.1334 11.4284C19.1334 9.20616 20.9197 7.42044 23.1427 7.42044C25.3657 7.42044 27.152 9.20616 27.152 11.4284C27.152 13.6109 25.4451 15.357 23.2618 15.4363V17.0633C26.3184 16.9839 28.7796 14.4839 28.7796 11.4284C28.8193 8.29346 26.2787 5.79346 23.1427 5.79346Z" fill="white"/>
<path d="M21.2375 18.0158C21.2375 20.238 19.4512 22.0237 17.2282 22.0237C15.0052 22.0237 13.2189 20.238 13.2189 18.0158V11.8253V10.3174H11.5913V11.8253C11.5913 11.9047 11.5913 11.9444 11.5913 12.0237V18.4523C11.8295 21.3491 14.251 23.6507 17.2282 23.6507C18.816 23.6507 20.2054 23.0158 21.2375 21.984V24.4444C21.2375 26.6666 19.4512 28.4523 17.2282 28.4523C16.0373 28.4523 14.9655 27.9364 14.2113 27.1031C13.854 26.6666 13.5364 26.1904 13.3776 25.6348L12.1074 26.9047C12.3455 27.4206 12.6631 27.8571 13.0601 28.2936C14.0922 29.4047 15.5609 30.119 17.2282 30.119C19.5703 30.119 21.5948 28.6904 22.4284 26.6269C22.7063 25.9523 22.865 25.238 22.865 24.4444V18.9285V18.0158V12.4999H21.2375V18.0158Z" fill="white"/>
</svg>
