<svg width="32" height="32" viewBox="0 0 32 32" fill="none" xmlns="http://www.w3.org/2000/svg">
<path d="M25.3333 12V23.7333C25.3333 25.2268 25.3333 25.9735 25.0426 26.544C24.787 27.0457 24.379 27.4537 23.8773 27.7094C23.3068 28 22.5601 28 21.0666 28H10.9333C9.43982 28 8.69308 28 8.12265 27.7094C7.62089 27.4537 7.21294 27.0457 6.95728 26.544C6.66663 25.9735 6.66663 25.2268 6.66663 23.7333V8.26667C6.66663 6.77319 6.66663 6.02646 6.95728 5.45603C7.21294 4.95426 7.62089 4.54631 8.12265 4.29065C8.69308 4 9.43982 4 10.9333 4H17.3333M25.3333 12L17.3333 4M25.3333 12H21.6C20.1065 12 19.3597 12 18.7893 11.7094C18.2876 11.4537 17.8796 11.0457 17.6239 10.544C17.3333 9.97354 17.3333 9.22681 17.3333 7.73333V4M10.6666 8H13.3333M10.6666 12H13.3333M21.3333 22.6667H18.6666L17.3333 20.6667L16 22.6667L13.3333 18.6667L12.6666 22.6667H10.6666" stroke="#D6D8E7" stroke-width="2" stroke-linecap="round" stroke-linejoin="round"/>
</svg>
