<svg width="32" height="33" viewBox="0 0 32 33" fill="none" xmlns="http://www.w3.org/2000/svg">
<path d="M14.6668 28.998H5.3335C5.3335 24.2961 8.81044 20.4062 13.3335 19.7592M26.497 21.2698C26.406 21.2752 26.3145 21.278 26.2224 21.278C24.8564 21.278 23.6104 20.668 22.6668 19.6647C21.7232 20.6679 20.4772 21.2779 19.1113 21.2779C19.0192 21.2779 18.9276 21.2752 18.8367 21.2697C18.7258 21.7785 18.6668 22.312 18.6668 22.862C18.6668 25.8141 20.3665 28.2947 22.6668 28.998C24.9671 28.2947 26.6668 25.8141 26.6668 22.862C26.6668 22.312 26.6079 21.7785 26.497 21.2698ZM20.0002 10.3314C20.0002 13.2769 17.6123 15.6647 14.6668 15.6647C11.7213 15.6647 9.3335 13.2769 9.3335 10.3314C9.3335 7.38586 11.7213 4.99805 14.6668 4.99805C17.6123 4.99805 20.0002 7.38586 20.0002 10.3314Z" stroke="#D6D8E7" stroke-width="2" stroke-linecap="round" stroke-linejoin="round"/>
</svg>
