<svg width="78" height="28" viewBox="0 0 78 28" fill="none" xmlns="http://www.w3.org/2000/svg">
<rect width="78" height="28" rx="6" fill="url(#paint0_linear_108_2215)"/>
<g filter="url(#filter0_d_108_2215)">
<path d="M30.016 10.524V13.32H33.064V14.22H30.016V17.1H33.424V18H28.924V9.624H33.424V10.524H30.016ZM38.2923 18L36.7323 15.552L35.2323 18H34.0923L36.2163 14.736L34.0923 11.424H35.3283L36.8883 13.86L38.3763 11.424H39.5163L37.4043 14.676L39.5283 18H38.2923ZM41.4785 12.636C41.6945 12.26 42.0145 11.948 42.4385 11.7C42.8705 11.444 43.3705 11.316 43.9385 11.316C44.5225 11.316 45.0505 11.456 45.5225 11.736C46.0025 12.016 46.3785 12.412 46.6505 12.924C46.9225 13.428 47.0585 14.016 47.0585 14.688C47.0585 15.352 46.9225 15.944 46.6505 16.464C46.3785 16.984 46.0025 17.388 45.5225 17.676C45.0505 17.964 44.5225 18.108 43.9385 18.108C43.3785 18.108 42.8825 17.984 42.4505 17.736C42.0265 17.48 41.7025 17.164 41.4785 16.788V21.12H40.3865V11.424H41.4785V12.636ZM45.9425 14.688C45.9425 14.192 45.8425 13.76 45.6425 13.392C45.4425 13.024 45.1705 12.744 44.8265 12.552C44.4905 12.36 44.1185 12.264 43.7105 12.264C43.3105 12.264 42.9385 12.364 42.5945 12.564C42.2585 12.756 41.9865 13.04 41.7785 13.416C41.5785 13.784 41.4785 14.212 41.4785 14.7C41.4785 15.196 41.5785 15.632 41.7785 16.008C41.9865 16.376 42.2585 16.66 42.5945 16.86C42.9385 17.052 43.3105 17.148 43.7105 17.148C44.1185 17.148 44.4905 17.052 44.8265 16.86C45.1705 16.66 45.4425 16.376 45.6425 16.008C45.8425 15.632 45.9425 15.192 45.9425 14.688ZM48.8439 10.356C48.6359 10.356 48.4599 10.284 48.3159 10.14C48.1719 9.996 48.0999 9.82 48.0999 9.612C48.0999 9.404 48.1719 9.228 48.3159 9.084C48.4599 8.94 48.6359 8.868 48.8439 8.868C49.0439 8.868 49.2119 8.94 49.3479 9.084C49.4919 9.228 49.5639 9.404 49.5639 9.612C49.5639 9.82 49.4919 9.996 49.3479 10.14C49.2119 10.284 49.0439 10.356 48.8439 10.356ZM49.3719 11.424V18H48.2799V11.424H49.3719ZM52.109 12.492C52.301 12.116 52.573 11.824 52.925 11.616C53.285 11.408 53.721 11.304 54.233 11.304V12.432H53.945C52.721 12.432 52.109 13.096 52.109 14.424V18H51.017V11.424H52.109V12.492ZM61.2776 14.46C61.2776 14.668 61.2656 14.888 61.2416 15.12H55.9856C56.0256 15.768 56.2456 16.276 56.6456 16.644C57.0536 17.004 57.5456 17.184 58.1216 17.184C58.5936 17.184 58.9856 17.076 59.2976 16.86C59.6176 16.636 59.8416 16.34 59.9696 15.972H61.1456C60.9696 16.604 60.6176 17.12 60.0896 17.52C59.5616 17.912 58.9056 18.108 58.1216 18.108C57.4976 18.108 56.9376 17.968 56.4416 17.688C55.9536 17.408 55.5696 17.012 55.2896 16.5C55.0096 15.98 54.8696 15.38 54.8696 14.7C54.8696 14.02 55.0056 13.424 55.2776 12.912C55.5496 12.4 55.9296 12.008 56.4176 11.736C56.9136 11.456 57.4816 11.316 58.1216 11.316C58.7456 11.316 59.2976 11.452 59.7776 11.724C60.2576 11.996 60.6256 12.372 60.8816 12.852C61.1456 13.324 61.2776 13.86 61.2776 14.46ZM60.1496 14.232C60.1496 13.816 60.0576 13.46 59.8736 13.164C59.6896 12.86 59.4376 12.632 59.1176 12.48C58.8056 12.32 58.4576 12.24 58.0736 12.24C57.5216 12.24 57.0496 12.416 56.6576 12.768C56.2736 13.12 56.0536 13.608 55.9976 14.232H60.1496ZM62.095 14.688C62.095 14.016 62.231 13.428 62.503 12.924C62.775 12.412 63.147 12.016 63.619 11.736C64.099 11.456 64.635 11.316 65.227 11.316C65.739 11.316 66.215 11.436 66.655 11.676C67.095 11.908 67.431 12.216 67.663 12.6V9.12H68.767V18H67.663V16.764C67.447 17.156 67.127 17.48 66.703 17.736C66.279 17.984 65.783 18.108 65.215 18.108C64.631 18.108 64.099 17.964 63.619 17.676C63.147 17.388 62.775 16.984 62.503 16.464C62.231 15.944 62.095 15.352 62.095 14.688ZM67.663 14.7C67.663 14.204 67.563 13.772 67.363 13.404C67.163 13.036 66.891 12.756 66.547 12.564C66.211 12.364 65.839 12.264 65.431 12.264C65.023 12.264 64.651 12.36 64.315 12.552C63.979 12.744 63.711 13.024 63.511 13.392C63.311 13.76 63.211 14.192 63.211 14.688C63.211 15.192 63.311 15.632 63.511 16.008C63.711 16.376 63.979 16.66 64.315 16.86C64.651 17.052 65.023 17.148 65.431 17.148C65.839 17.148 66.211 17.052 66.547 16.86C66.891 16.66 67.163 16.376 67.363 16.008C67.563 15.632 67.663 15.196 67.663 14.7Z" fill="#F7F7FC"/>
</g>
<path d="M10 9.66634L11.3333 8.33301M22 9.66634L20.6667 8.33301M14 12.333L18 16.333M18 12.333L14 16.333M21.3333 14.333C21.3333 17.2785 18.9455 19.6663 16 19.6663C13.0545 19.6663 10.6667 17.2785 10.6667 14.333C10.6667 11.3875 13.0545 8.99967 16 8.99967C18.9455 8.99967 21.3333 11.3875 21.3333 14.333Z" stroke="#F7F7FC" stroke-linecap="round" stroke-linejoin="round"/>
<defs>
<filter id="filter0_d_108_2215" x="26.9241" y="6.86816" width="43.843" height="16.252" filterUnits="userSpaceOnUse" color-interpolation-filters="sRGB">
<feFlood flood-opacity="0" result="BackgroundImageFix"/>
<feColorMatrix in="SourceAlpha" type="matrix" values="0 0 0 0 0 0 0 0 0 0 0 0 0 0 0 0 0 0 127 0" result="hardAlpha"/>
<feOffset/>
<feGaussianBlur stdDeviation="1"/>
<feComposite in2="hardAlpha" operator="out"/>
<feColorMatrix type="matrix" values="0 0 0 0 0.941176 0 0 0 0 0.376471 0 0 0 0 0.227451 0 0 0 0.6 0"/>
<feBlend mode="normal" in2="BackgroundImageFix" result="effect1_dropShadow_108_2215"/>
<feBlend mode="normal" in="SourceGraphic" in2="effect1_dropShadow_108_2215" result="shape"/>
</filter>
<linearGradient id="paint0_linear_108_2215" x1="0" y1="0" x2="78.907" y2="2.84529" gradientUnits="userSpaceOnUse">
<stop stop-color="#F8845B"/>
<stop offset="1" stop-color="#F0603A"/>
</linearGradient>
</defs>
</svg>
