<svg width="32" height="32" viewBox="0 0 32 32" fill="none" xmlns="http://www.w3.org/2000/svg">
<path d="M17.3333 26.6673V24.0007C17.3333 20.3188 14.3486 17.334 10.6667 17.334C6.98477 17.334 4 20.3188 4 24.0007V26.6673H17.3333ZM17.3333 26.6673H28V25.334C28 21.4066 25.0152 18.6673 21.3333 18.6673C19.4489 18.6673 17.7471 19.5013 16.5346 20.8421M14.6667 9.33398C14.6667 11.5431 12.8758 13.334 10.6667 13.334C8.45753 13.334 6.66667 11.5431 6.66667 9.33398C6.66667 7.12485 8.45753 5.33398 10.6667 5.33398C12.8758 5.33398 14.6667 7.12485 14.6667 9.33398ZM24 12.0007C24 13.4734 22.8061 14.6673 21.3333 14.6673C19.8606 14.6673 18.6667 13.4734 18.6667 12.0007C18.6667 10.5279 19.8606 9.33398 21.3333 9.33398C22.8061 9.33398 24 10.5279 24 12.0007Z" stroke="#D6D8E7" stroke-width="2" stroke-linecap="round" stroke-linejoin="round"/>
</svg>
