<svg width="46" height="24" viewBox="0 0 46 24" fill="none" xmlns="http://www.w3.org/2000/svg">
<rect width="46" height="24" rx="6" fill="url(#paint0_linear_3725_5925)"/>
<path d="M26.6103 9.44V15H25.6983V12.568H23.0823V15H22.1703V9.44H23.0823V11.824H25.6983V9.44H26.6103ZM30.3469 15.056C29.8296 15.056 29.3523 14.936 28.9149 14.696C28.4829 14.4507 28.1389 14.112 27.8829 13.68C27.6323 13.2427 27.5069 12.752 27.5069 12.208C27.5069 11.664 27.6323 11.176 27.8829 10.744C28.1389 10.312 28.4829 9.976 28.9149 9.736C29.3523 9.49067 29.8296 9.368 30.3469 9.368C30.8696 9.368 31.3469 9.49067 31.7789 9.736C32.2163 9.976 32.5603 10.312 32.8109 10.744C33.0616 11.176 33.1869 11.664 33.1869 12.208C33.1869 12.752 33.0616 13.2427 32.8109 13.68C32.5603 14.112 32.2163 14.4507 31.7789 14.696C31.3469 14.936 30.8696 15.056 30.3469 15.056ZM30.3469 14.264C30.7149 14.264 31.0429 14.1813 31.3309 14.016C31.6189 13.8453 31.8429 13.6053 32.0029 13.296C32.1683 12.9813 32.2509 12.6187 32.2509 12.208C32.2509 11.7973 32.1683 11.4373 32.0029 11.128C31.8429 10.8187 31.6189 10.5813 31.3309 10.416C31.0429 10.2507 30.7149 10.168 30.3469 10.168C29.9789 10.168 29.6509 10.2507 29.3629 10.416C29.0749 10.5813 28.8483 10.8187 28.6829 11.128C28.5229 11.4373 28.4429 11.7973 28.4429 12.208C28.4429 12.6187 28.5229 12.9813 28.6829 13.296C28.8483 13.6053 29.0749 13.8453 29.3629 14.016C29.6509 14.1813 29.9789 14.264 30.3469 14.264ZM37.6764 9.44V10.184H36.1964V15H35.2844V10.184H33.7964V9.44H37.6764Z" fill="#F7F7FC"/>
<path d="M14.2539 17.7291C10.2991 17.7291 9.24249 13.6065 9.72013 10.9053C9.74091 10.7878 9.89502 10.7539 9.96216 10.8526C10.1701 11.1583 10.3551 11.5997 10.6617 11.5614C11.1225 11.5038 11.4418 7.43765 14.1728 6.29355C14.2595 6.25725 14.3502 6.32613 14.3407 6.4196C14.2056 7.74459 15.0012 9.6415 16.4106 9.6415C17.2185 9.6415 17.7713 8.99669 18.0475 8.34911C18.1314 8.1524 18.4189 8.1772 18.467 8.38558C18.9599 10.5203 20.2775 17.7291 14.2539 17.7291Z" fill="#FF8F1F"/>
<path d="M12.8674 13.7538C12.9604 13.6757 13.1016 13.7293 13.1227 13.8489C13.1721 14.1288 13.3346 14.6099 13.8675 14.6099C14.5086 14.6099 14.9436 12.8459 15.0577 12.3271C15.0765 12.2417 15.1596 12.1838 15.2453 12.2012C16.8474 12.5269 17.6263 17.7291 14.1038 17.7291C11.5395 17.7291 12.1204 14.3813 12.8674 13.7538ZM17.2451 8.12005C17.3015 7.67844 16.4954 8.8863 16.4954 8.8863C16.4954 8.8863 17.11 9.17659 17.2451 8.12005ZM9.12224 14.706C9.13923 14.518 8.89738 14.0147 8.85456 14.214C8.75207 14.6908 9.10525 14.8941 9.12224 14.706Z" fill="#FFB636"/>
<path d="M15.575 14.1703C15.5149 13.9197 15.2995 14.5017 15.3266 14.7387C15.3536 14.9758 15.7187 14.7697 15.575 14.1703Z" fill="#FFD469"/>
<defs>
<linearGradient id="paint0_linear_3725_5925" x1="0" y1="0" x2="46.5668" y2="1.15531" gradientUnits="userSpaceOnUse">
<stop stop-color="#ED1D24"/>
<stop offset="1" stop-color="#ED741D"/>
</linearGradient>
</defs>
</svg>
