<svg width="14" height="18" viewBox="0 0 14 18" fill="none" xmlns="http://www.w3.org/2000/svg">
<path d="M6.72608 4.19435C5.5676 4.19435 4.62891 3.25108 4.62891 2.09718C4.62891 0.938692 5.57218 0 6.72608 0C7.88457 0 8.82326 0.943271 8.82326 2.09718C8.82326 3.25108 7.88457 4.19435 6.72608 4.19435ZM6.72608 0.49911C5.84692 0.49911 5.12802 1.21343 5.12802 2.09718C5.12802 2.97634 5.84234 3.69524 6.72608 3.69524C7.60525 3.69524 8.32415 2.98092 8.32415 2.09718C8.32415 1.21343 7.60525 0.49911 6.72608 0.49911Z" fill="white"/>
<path d="M7.08999 2.81152H6.37109V5.07354H7.08999V2.81152Z" fill="#2B3B4E"/>
<path d="M5.78906 2.99927V2.6238C5.78906 2.59174 5.81196 2.56885 5.84401 2.56885H7.6115C7.64355 2.56885 7.66645 2.59174 7.66645 2.6238V2.99927C7.66645 3.03133 7.64355 3.05422 7.6115 3.05422H5.84401C5.81196 3.05422 5.78906 3.03133 5.78906 2.99927Z" fill="#324A5E"/>
<path d="M6.72653 17.9999C10.4415 17.9999 13.4531 14.9884 13.4531 11.2734C13.4531 7.55845 10.4415 4.54688 6.72653 4.54688C3.01157 4.54688 0 7.55845 0 11.2734C0 14.9884 3.01157 17.9999 6.72653 17.9999Z" fill="#324A5E"/>
<path d="M6.72497 16.8462C9.80265 16.8462 12.2976 14.3512 12.2976 11.2736C12.2976 8.19588 9.80265 5.70093 6.72497 5.70093C3.64729 5.70093 1.15234 8.19588 1.15234 11.2736C1.15234 14.3512 3.64729 16.8462 6.72497 16.8462Z" fill="white"/>
<path d="M6.72975 7.37204C6.5878 7.37204 6.46875 7.25757 6.46875 7.11104V6.4883C6.46875 6.34635 6.58322 6.22729 6.72975 6.22729C6.8717 6.22729 6.99075 6.34177 6.99075 6.4883V7.11104C6.99075 7.25757 6.8717 7.37204 6.72975 7.37204Z" fill="#ACB3BA"/>
<path d="M6.72975 16.3149C6.5878 16.3149 6.46875 16.2004 6.46875 16.0539V15.4312C6.46875 15.2892 6.58322 15.1702 6.72975 15.1702C6.8717 15.1702 6.99075 15.2846 6.99075 15.4312V16.0539C6.99075 16.1959 6.8717 16.3149 6.72975 16.3149Z" fill="#ACB3BA"/>
<path d="M10.6289 11.2735C10.6289 11.1315 10.7434 11.0125 10.8899 11.0125H11.5127C11.6546 11.0125 11.7737 11.1269 11.7737 11.2735C11.7737 11.4154 11.6592 11.5345 11.5127 11.5345H10.8899C10.7434 11.5299 10.6289 11.4154 10.6289 11.2735Z" fill="#ACB3BA"/>
<path d="M1.6875 11.2735C1.6875 11.1315 1.80198 11.0125 1.9485 11.0125H2.57124C2.71319 11.0125 2.83225 11.1269 2.83225 11.2735C2.83225 11.4154 2.71777 11.5345 2.57124 11.5345H1.9485C1.80198 11.5299 1.6875 11.4154 1.6875 11.2735Z" fill="#ACB3BA"/>
<path d="M10.0998 9.32281C10.0724 9.27244 10.0861 9.20833 10.1365 9.17628L10.9424 8.70922C10.9928 8.68175 11.0569 8.69549 11.0889 8.74586C11.1164 8.79622 11.1026 8.86033 11.0523 8.89238L10.2464 9.35944C10.196 9.39149 10.1319 9.37318 10.0998 9.32281Z" fill="#CED5E0"/>
<path d="M2.35766 13.7918C2.33019 13.7414 2.34392 13.6773 2.39429 13.6453L3.20019 13.1782C3.25056 13.1507 3.31467 13.1645 3.34672 13.2149C3.3742 13.2652 3.36046 13.3293 3.31009 13.3614L2.50419 13.8284C2.45382 13.8605 2.38971 13.8422 2.35766 13.7918Z" fill="#CED5E0"/>
<path d="M8.67367 7.89417C8.6233 7.86669 8.60499 7.79801 8.63704 7.74764L9.1041 6.94174C9.13157 6.89137 9.20026 6.87305 9.25062 6.90511C9.30099 6.93258 9.31931 7.00126 9.28726 7.05163L8.8202 7.85754C8.78815 7.9079 8.72404 7.92164 8.67367 7.89417Z" fill="#CED5E0"/>
<path d="M4.20102 15.6373C4.15065 15.6099 4.13233 15.5412 4.16438 15.4908L4.63144 14.6849C4.65891 14.6345 4.7276 14.6162 4.77797 14.6483C4.82834 14.6757 4.84665 14.7444 4.8146 14.7948L4.34754 15.6007C4.32007 15.6511 4.25138 15.6694 4.20102 15.6373Z" fill="#CED5E0"/>
<path d="M4.77203 7.89409C4.72166 7.92156 4.65755 7.90782 4.6255 7.85745L4.15844 7.05155C4.13097 7.00118 4.14471 6.93708 4.19507 6.90502C4.24544 6.87755 4.30955 6.89129 4.3416 6.94166L4.80866 7.74756C4.84071 7.80251 4.8224 7.86661 4.77203 7.89409Z" fill="#CED5E0"/>
<path d="M9.24859 15.6372C9.19822 15.6647 9.13411 15.651 9.10206 15.6006L8.63501 14.7947C8.60753 14.7443 8.62127 14.6802 8.67164 14.6482C8.72201 14.6207 8.78611 14.6345 8.81816 14.6848L9.28522 15.4907C9.31269 15.5457 9.29896 15.6098 9.24859 15.6372Z" fill="#CED5E0"/>
<path d="M3.34485 9.32289C3.31738 9.37326 3.24869 9.39157 3.19832 9.35952L2.39242 8.89246C2.34205 8.86499 2.32374 8.79631 2.35579 8.74594C2.38326 8.69557 2.45195 8.67725 2.50232 8.70931L3.30822 9.17636C3.35859 9.20841 3.3769 9.27252 3.34485 9.32289Z" fill="#CED5E0"/>
<path d="M11.0909 13.7919C11.0635 13.8423 10.9948 13.8606 10.9444 13.8285L10.1385 13.3615C10.0881 13.334 10.0698 13.2653 10.1019 13.2149C10.1294 13.1646 10.198 13.1462 10.2484 13.1783L11.0543 13.6454C11.1001 13.6774 11.1184 13.7415 11.0909 13.7919Z" fill="#CED5E0"/>
<path d="M9.34924 13.6911L6.97274 11.1681L6.88116 8.1963C6.87659 8.11388 6.81248 8.04978 6.73464 8.04978C6.64764 8.0452 6.57895 8.11388 6.57437 8.1963L6.47821 11.2368C6.47364 11.2825 6.47821 11.3329 6.49653 11.3741C6.51485 11.4199 6.5469 11.452 6.58353 11.4794L9.14776 13.8971C9.20271 13.9475 9.28971 13.9521 9.34466 13.8971C9.40419 13.8422 9.40419 13.7506 9.34924 13.6911Z" fill="#324A5E"/>
<path d="M6.72548 12.1436C7.20597 12.1436 7.59548 11.7541 7.59548 11.2736C7.59548 10.7931 7.20597 10.4036 6.72548 10.4036C6.24498 10.4036 5.85547 10.7931 5.85547 11.2736C5.85547 11.7541 6.24498 12.1436 6.72548 12.1436Z" fill="#FF7058"/>
<path d="M6.72769 11.7862C7.01093 11.7862 7.24054 11.5566 7.24054 11.2733C7.24054 10.9901 7.01093 10.7605 6.72769 10.7605C6.44445 10.7605 6.21484 10.9901 6.21484 11.2733C6.21484 11.5566 6.44445 11.7862 6.72769 11.7862Z" fill="#E6E9EE"/>
</svg>
