<svg width="20" height="20" viewBox="0 0 20 20" fill="none" xmlns="http://www.w3.org/2000/svg">
<g clip-path="url(#clip0_1449_5700)">
<mask id="mask0_1449_5700" style="mask-type:luminance" maskUnits="userSpaceOnUse" x="-3" y="-3" width="26" height="26">
<path d="M10 23C2.81984 23 -3 17.1802 -3 10C-3 2.81984 2.81984 -3 10 -3C17.1802 -3 23 2.81984 23 10C23 17.1802 17.1802 23 10 23Z" fill="white"/>
</mask>
<g mask="url(#mask0_1449_5700)">
<path fill-rule="evenodd" clip-rule="evenodd" d="M9.99658 9.99999L-8.39062 9.88663L-8.37399 9.21063L9.99658 9.99999Z" fill="#FEFEFF"/>
<path fill-rule="evenodd" clip-rule="evenodd" d="M9.99868 10L-8.375 9.32296L-8.34692 8.75928L9.99868 10Z" fill="#FDFEFF"/>
<path fill-rule="evenodd" clip-rule="evenodd" d="M10.0003 10L-8.35156 8.87264L-8.30996 8.31L10.0003 10Z" fill="#FCFDFF"/>
<path fill-rule="evenodd" clip-rule="evenodd" d="M9.99825 10L-8.32031 8.42232L-8.26519 7.86072L9.99825 10Z" fill="#FBFCFF"/>
<path fill-rule="evenodd" clip-rule="evenodd" d="M10.0004 9.99999L-8.27344 7.97303L-8.2048 7.41351L10.0004 9.99999Z" fill="#FAFCFF"/>
<path fill-rule="evenodd" clip-rule="evenodd" d="M9.99997 9.99999L-8.21875 7.52583L-8.13659 6.96735L9.99997 9.99999Z" fill="#F9FBFF"/>
<path fill-rule="evenodd" clip-rule="evenodd" d="M9.99591 9.99999L-8.15625 7.07863L-8.06057 6.52327L9.99591 9.99999Z" fill="#F8FAFF"/>
<path fill-rule="evenodd" clip-rule="evenodd" d="M9.99708 9.99999L-8.07812 6.63455L-7.96892 6.08127L9.99708 9.99999Z" fill="#F7FAFF"/>
<path fill-rule="evenodd" clip-rule="evenodd" d="M9.99565 10L-7.99219 6.19256L-7.86843 5.64136L9.99565 10Z" fill="#F6F9FF"/>
<path fill-rule="evenodd" clip-rule="evenodd" d="M9.99841 10L-7.89062 5.7516L-7.75334 5.20456L9.99841 10Z" fill="#F5F8FF"/>
<path fill-rule="evenodd" clip-rule="evenodd" d="M9.99755 10L-7.78125 5.31376L-7.63149 4.76984L9.99755 10Z" fill="#F4F8FF"/>
<path fill-rule="evenodd" clip-rule="evenodd" d="M9.99514 10L-7.66406 4.87904L-7.49974 4.33928L9.99514 10Z" fill="#F3F7FF"/>
<path fill-rule="evenodd" clip-rule="evenodd" d="M9.99691 9.99999L-7.53125 4.44743L-7.35341 3.91183L9.99691 9.99999Z" fill="#F2F6FF"/>
<path fill-rule="evenodd" clip-rule="evenodd" d="M9.9961 10L-7.39062 4.01896L-7.20031 3.48752L9.9961 10Z" fill="#F1F6FF"/>
<path fill-rule="evenodd" clip-rule="evenodd" d="M9.99946 9.99999L-7.23438 3.59359L-7.03157 3.06735L9.99946 9.99999Z" fill="#F0F5FF"/>
<path fill-rule="evenodd" clip-rule="evenodd" d="M9.99348 9.99999L-7.07812 3.17239L-6.86284 2.65135L9.99348 9.99999Z" fill="#EFF4FF"/>
<path fill-rule="evenodd" clip-rule="evenodd" d="M9.99271 9.99999L-6.90625 2.75536L-6.67745 2.24055L9.99271 9.99999Z" fill="#EEF3FF"/>
<path fill-rule="evenodd" clip-rule="evenodd" d="M9.99717 9.99999L-6.71875 2.34351L-6.47747 1.83391L9.99717 9.99999Z" fill="#EDF3FF"/>
<path fill-rule="evenodd" clip-rule="evenodd" d="M10.0001 9.99999L-6.52344 1.93583L-6.26968 1.43143L10.0001 9.99999Z" fill="#ECF2FF"/>
<path fill-rule="evenodd" clip-rule="evenodd" d="M10.0004 9.99999L-6.32031 1.53231L-6.05407 1.03519L10.0004 9.99999Z" fill="#EBF1FF"/>
<path fill-rule="evenodd" clip-rule="evenodd" d="M9.99814 9.99999L-6.10938 1.13503L-5.8317 0.643112L9.99814 9.99999Z" fill="#EAF1FF"/>
<path fill-rule="evenodd" clip-rule="evenodd" d="M9.99434 10L-5.89062 0.741916L-5.60047 0.258316L9.99434 10Z" fill="#E9F0FF"/>
<path fill-rule="evenodd" clip-rule="evenodd" d="M9.99679 9.99999L-5.65625 0.35503L-5.35465 -0.12233L9.99679 9.99999Z" fill="#E8EFFF"/>
<path fill-rule="evenodd" clip-rule="evenodd" d="M9.9977 10L-5.41406 -0.0266419L-5.09998 -0.495682L9.9977 10Z" fill="#E7EFFF"/>
<path fill-rule="evenodd" clip-rule="evenodd" d="M9.99706 9.99999L-5.16406 -0.402088L-4.83958 -0.862808L9.99706 9.99999Z" fill="#E6EEFF"/>
<path fill-rule="evenodd" clip-rule="evenodd" d="M9.99487 9.99998L-4.90625 -0.770254L-4.57033 -1.22369L9.99487 9.99998Z" fill="#E5EDFF"/>
<path fill-rule="evenodd" clip-rule="evenodd" d="M9.99999 10L-4.63281 -1.1332L-4.28545 -1.57832L9.99999 10Z" fill="#E4EDFF"/>
<path fill-rule="evenodd" clip-rule="evenodd" d="M9.99575 9.99999L-4.35938 -1.48889L-4.00161 -1.92465L9.99575 9.99999Z" fill="#E3ECFF"/>
<path fill-rule="evenodd" clip-rule="evenodd" d="M9.99777 9.99999L-4.07031 -1.83728L-3.70215 -2.26472L9.99777 9.99999Z" fill="#E2EBFF"/>
<path fill-rule="evenodd" clip-rule="evenodd" d="M10.0003 10L-3.77344 -2.17944L-3.39488 -2.59752L10.0003 10Z" fill="#E1EBFF"/>
<path fill-rule="evenodd" clip-rule="evenodd" d="M9.99456 9.99999L-3.47656 -2.51329L-3.0876 -2.92201L9.99456 9.99999Z" fill="#E0EAFF"/>
<path fill-rule="evenodd" clip-rule="evenodd" d="M9.9961 9.99999L-3.16406 -2.83985L-2.7647 -3.23921L9.9961 9.99999Z" fill="#DFE9FF"/>
<path fill-rule="evenodd" clip-rule="evenodd" d="M9.99609 10L-2.84375 -3.16016L-2.43607 -3.54808L9.99609 10Z" fill="#DEE9FF"/>
<path fill-rule="evenodd" clip-rule="evenodd" d="M9.99765 9.99999L-2.51562 -3.47113L-2.09754 -3.84969L9.99765 9.99999Z" fill="#DDE8FF"/>
<path fill-rule="evenodd" clip-rule="evenodd" d="M9.99975 10L-2.17969 -3.77376L-1.75225 -4.14192L9.99975 10Z" fill="#DCE7FF"/>
<path fill-rule="evenodd" clip-rule="evenodd" d="M9.99353 10L-1.84375 -4.06808L-1.40799 -4.42584L9.99353 10Z" fill="#DBE7FF"/>
<path fill-rule="evenodd" clip-rule="evenodd" d="M9.99669 9.99999L-1.49219 -4.35513L-1.04707 -4.70145L9.99669 9.99999Z" fill="#DAE6FF"/>
<path fill-rule="evenodd" clip-rule="evenodd" d="M10.0004 10L-1.13281 -4.6328L-0.679372 -4.96872L10.0004 10Z" fill="#D9E5FF"/>
<path fill-rule="evenodd" clip-rule="evenodd" d="M9.9968 10L-0.773438 -4.90112L-0.312717 -5.2256L9.9968 10Z" fill="#D8E5FF"/>
<path fill-rule="evenodd" clip-rule="evenodd" d="M9.99583 9.99999L-0.40625 -5.16113L0.0627899 -5.47417L9.99583 9.99999Z" fill="#D7E4FF"/>
<path fill-rule="evenodd" clip-rule="evenodd" d="M9.99539 10L-0.03125 -5.41176L0.44611 -5.71336L9.99539 10Z" fill="#D6E3FF"/>
<path fill-rule="evenodd" clip-rule="evenodd" d="M9.99652 9.99999L0.351562 -5.65305L0.835162 -5.94321L9.99652 9.99999Z" fill="#D5E3FF"/>
<path fill-rule="evenodd" clip-rule="evenodd" d="M10.0003 10L0.742188 -5.88496L1.23307 -6.16264L10.0003 10Z" fill="#D4E2FF"/>
<path fill-rule="evenodd" clip-rule="evenodd" d="M9.99777 10L1.13281 -6.10752L1.62993 -6.37376L9.99777 10Z" fill="#D3E1FF"/>
<path fill-rule="evenodd" clip-rule="evenodd" d="M9.99893 10L1.53125 -6.32072L2.03565 -6.57344L9.99893 10Z" fill="#D2E0FF"/>
<path fill-rule="evenodd" clip-rule="evenodd" d="M9.99385 10L1.92969 -6.52352L2.43929 -6.76376L9.99385 10Z" fill="#D1E0FF"/>
<path fill-rule="evenodd" clip-rule="evenodd" d="M10.0002 9.99999L2.34375 -6.71593L2.85959 -6.94473L10.0002 9.99999Z" fill="#D0DFFF"/>
<path fill-rule="evenodd" clip-rule="evenodd" d="M9.99464 10L2.75 -6.89896L3.27208 -7.11528L9.99464 10Z" fill="#CFDEFF"/>
<path fill-rule="evenodd" clip-rule="evenodd" d="M9.99947 9.99999L3.17188 -7.07161L3.69916 -7.27441L9.99947 9.99999Z" fill="#CEDEFF"/>
<path fill-rule="evenodd" clip-rule="evenodd" d="M10.0001 10L3.59375 -7.23384L4.12519 -7.42416L10.0001 10Z" fill="#CDDDFF"/>
<path fill-rule="evenodd" clip-rule="evenodd" d="M9.99666 9.99999L4.01562 -7.38672L4.55123 -7.56248L9.99666 9.99999Z" fill="#CCDCFF"/>
<path fill-rule="evenodd" clip-rule="evenodd" d="M9.99787 9.99999L4.44531 -7.52817L4.98507 -7.69145L9.99787 9.99999Z" fill="#CBDCFF"/>
<path fill-rule="evenodd" clip-rule="evenodd" d="M9.99596 10L4.875 -7.6592L5.41892 -7.80896L9.99596 10Z" fill="#CADBFF"/>
<path fill-rule="evenodd" clip-rule="evenodd" d="M9.99874 9.99999L5.3125 -7.77881L5.85954 -7.91609L9.99874 9.99999Z" fill="#C9DAFF"/>
<path fill-rule="evenodd" clip-rule="evenodd" d="M9.9984 9.99999L5.75 -7.88904L6.30016 -8.01176L9.9984 9.99999Z" fill="#C8DAFF"/>
<path fill-rule="evenodd" clip-rule="evenodd" d="M9.99494 9.99999L6.1875 -7.98785L6.73974 -8.09705L9.99494 9.99999Z" fill="#C7D9FF"/>
<path fill-rule="evenodd" clip-rule="evenodd" d="M9.99825 10L6.63281 -8.0752L7.18817 -8.17192L9.99825 10Z" fill="#C6D8FF"/>
<path fill-rule="evenodd" clip-rule="evenodd" d="M9.99949 9.99999L7.07812 -8.15217L7.63661 -8.23537L9.99949 9.99999Z" fill="#C5D8FF"/>
<path fill-rule="evenodd" clip-rule="evenodd" d="M9.9976 9.99999L7.52344 -8.21873L8.08296 -8.28737L9.9976 9.99999Z" fill="#C4D7FF"/>
<path fill-rule="evenodd" clip-rule="evenodd" d="M9.99571 9.99999L7.96875 -8.27384L8.53035 -8.32896L9.99571 9.99999Z" fill="#C3D6FF"/>
<path fill-rule="evenodd" clip-rule="evenodd" d="M9.99955 9.99999L8.42188 -8.31857L8.98451 -8.36017L9.99955 9.99999Z" fill="#C2D6FF"/>
<path fill-rule="evenodd" clip-rule="evenodd" d="M9.99455 9.99999L8.86719 -8.35185L9.43087 -8.37889L9.99455 9.99999Z" fill="#C1D5FF"/>
<path fill-rule="evenodd" clip-rule="evenodd" d="M9.99735 9.99999L9.32031 -8.37369L9.88399 -8.38721L9.99735 9.99999Z" fill="#C0D4FF"/>
<path fill-rule="evenodd" clip-rule="evenodd" d="M9.99912 9.99999L9.77344 -8.38513H10.3371L9.99912 9.99999Z" fill="#BFD4FF"/>
<path fill-rule="evenodd" clip-rule="evenodd" d="M10 9.99999L10.2257 -8.38513L10.7894 -8.37057L10 9.99999Z" fill="#BED3FF"/>
<path fill-rule="evenodd" clip-rule="evenodd" d="M10 9.99999L10.677 -8.37369L11.2397 -8.34561L10 9.99999Z" fill="#BDD2FF"/>
<path fill-rule="evenodd" clip-rule="evenodd" d="M10 9.99999L11.1274 -8.35185L11.69 -8.31025L10 9.99999Z" fill="#BCD2FF"/>
<path fill-rule="evenodd" clip-rule="evenodd" d="M10 9.99999L11.5777 -8.31857L12.1393 -8.26345L10 9.99999Z" fill="#BBD1FF"/>
<path fill-rule="evenodd" clip-rule="evenodd" d="M10 9.99999L12.0259 -8.27385L12.5865 -8.20521L10 9.99999Z" fill="#BAD0FF"/>
<path fill-rule="evenodd" clip-rule="evenodd" d="M10 10L12.4742 -8.21872L13.0326 -8.13656L10 10Z" fill="#B9D0FF"/>
<path fill-rule="evenodd" clip-rule="evenodd" d="M10 10L12.9203 -8.15216L13.4767 -8.05648L10 10Z" fill="#B8CFFF"/>
<path fill-rule="evenodd" clip-rule="evenodd" d="M10 9.99999L13.3654 -8.07521L13.9187 -7.96601L10 9.99999Z" fill="#B7CEFF"/>
<path fill-rule="evenodd" clip-rule="evenodd" d="M10 9.99999L13.8074 -7.98785L14.3586 -7.86409L10 9.99999Z" fill="#B6CDFF"/>
<path fill-rule="evenodd" clip-rule="evenodd" d="M10 9.99999L14.2484 -7.88905L14.7954 -7.75177L10 9.99999Z" fill="#B5CDFF"/>
<path fill-rule="evenodd" clip-rule="evenodd" d="M10 9.99999L14.6862 -7.77881L15.2291 -7.62905L10 9.99999Z" fill="#B4CCFF"/>
<path fill-rule="evenodd" clip-rule="evenodd" d="M10 9.99999L15.121 -7.65921L15.6607 -7.49489L10 9.99999Z" fill="#B3CBFF"/>
<path fill-rule="evenodd" clip-rule="evenodd" d="M10 9.99999L15.5526 -7.52817L16.0882 -7.35033L10 9.99999Z" fill="#B2CBFF"/>
<path fill-rule="evenodd" clip-rule="evenodd" d="M10 9.99999L15.981 -7.38673L16.5125 -7.19641L10 9.99999Z" fill="#B1CAFF"/>
<path fill-rule="evenodd" clip-rule="evenodd" d="M10 10L16.4064 -7.23384L16.9326 -7.03104L10 10Z" fill="#B0C9FF"/>
<path fill-rule="evenodd" clip-rule="evenodd" d="M10 9.99999L16.8266 -7.07161L17.3486 -6.85633L10 9.99999Z" fill="#AFC9FF"/>
<path fill-rule="evenodd" clip-rule="evenodd" d="M10 9.99999L17.2436 -6.89897L17.7594 -6.67017L10 9.99999Z" fill="#AEC8FF"/>
<path fill-rule="evenodd" clip-rule="evenodd" d="M10 9.99999L17.6565 -6.71593L18.1661 -6.47465L10 9.99999Z" fill="#ADC7FF"/>
<path fill-rule="evenodd" clip-rule="evenodd" d="M10 9.99999L18.0642 -6.52353L18.5686 -6.26977L10 9.99999Z" fill="#ACC7FF"/>
<path fill-rule="evenodd" clip-rule="evenodd" d="M10 9.99999L18.4677 -6.32072L18.9648 -6.05448L10 9.99999Z" fill="#ABC6FF"/>
<path fill-rule="evenodd" clip-rule="evenodd" d="M10 9.99999L18.865 -6.10753L19.3569 -5.82985L10 9.99999Z" fill="#AAC5FF"/>
<path fill-rule="evenodd" clip-rule="evenodd" d="M10 10L19.2581 -5.88496L19.7417 -5.5948L10 10Z" fill="#A9C5FF"/>
<path fill-rule="evenodd" clip-rule="evenodd" d="M10 9.99999L19.645 -5.65305L20.1213 -5.35145L10 9.99999Z" fill="#A8C4FF"/>
<path fill-rule="evenodd" clip-rule="evenodd" d="M10 9.99999L20.0266 -5.41177L20.4957 -5.09769L10 9.99999Z" fill="#A7C3FF"/>
<path fill-rule="evenodd" clip-rule="evenodd" d="M10 9.99999L20.4021 -5.16113L20.8628 -4.83665L10 9.99999Z" fill="#A6C3FF"/>
<path fill-rule="evenodd" clip-rule="evenodd" d="M10 10L20.7702 -4.90112L21.2237 -4.5652L10 10Z" fill="#A5C2FF"/>
<path fill-rule="evenodd" clip-rule="evenodd" d="M10 9.99999L21.1332 -4.63281L21.5773 -4.28545L10 9.99999Z" fill="#A4C1FF"/>
<path fill-rule="evenodd" clip-rule="evenodd" d="M10 9.99999L21.4889 -4.35513L21.9246 -3.99737L10 9.99999Z" fill="#A3C1FF"/>
<path fill-rule="evenodd" clip-rule="evenodd" d="M10 9.99999L21.8373 -4.06808L22.2647 -3.69992L10 9.99999Z" fill="#A2C0FF"/>
<path fill-rule="evenodd" clip-rule="evenodd" d="M10 9.99999L22.1794 -3.77377L22.5975 -3.39521L10 9.99999Z" fill="#A1BFFF"/>
<path fill-rule="evenodd" clip-rule="evenodd" d="M10 9.99999L22.5133 -3.47113L22.922 -3.08217L10 9.99999Z" fill="#A0BFFF"/>
<path fill-rule="evenodd" clip-rule="evenodd" d="M10 9.99999L22.8398 -3.16017L23.2392 -2.76081L10 9.99999Z" fill="#9FBEFF"/>
<path fill-rule="evenodd" clip-rule="evenodd" d="M10 10L23.1591 -2.83984L23.5481 -2.43216L10 10Z" fill="#9EBDFF"/>
<path fill-rule="evenodd" clip-rule="evenodd" d="M10 9.99999L23.4711 -2.51329L23.8497 -2.09521L10 9.99999Z" fill="#9DBDFF"/>
<path fill-rule="evenodd" clip-rule="evenodd" d="M10 10L23.7738 -2.17944L24.1419 -1.752L10 10Z" fill="#9CBCFF"/>
<path fill-rule="evenodd" clip-rule="evenodd" d="M10 10L24.0681 -1.83728L24.4258 -1.40152L10 10Z" fill="#9BBBFF"/>
<path fill-rule="evenodd" clip-rule="evenodd" d="M10 9.99999L24.3551 -1.48889L24.7014 -1.04377L10 9.99999Z" fill="#9ABAFF"/>
<path fill-rule="evenodd" clip-rule="evenodd" d="M10 9.99999L24.6328 -1.13321L24.9687 -0.679769L10 9.99999Z" fill="#99BAFF"/>
<path fill-rule="evenodd" clip-rule="evenodd" d="M10 9.99999L24.9011 -0.770248L25.2256 -0.309528L10 9.99999Z" fill="#98B9FF"/>
<path fill-rule="evenodd" clip-rule="evenodd" d="M10 10L25.1611 -0.402084L25.4742 0.0669556L10 10Z" fill="#97B8FF"/>
<path fill-rule="evenodd" clip-rule="evenodd" d="M10 10L25.4118 -0.0266418L25.7134 0.450718L10 10Z" fill="#96B8FF"/>
<path fill-rule="evenodd" clip-rule="evenodd" d="M10 9.99998L25.653 0.355026L25.9432 0.838626L10 9.99998Z" fill="#95B7FF"/>
<path fill-rule="evenodd" clip-rule="evenodd" d="M10 9.99999L25.885 0.741913L26.1626 1.23279L10 9.99999Z" fill="#94B6FF"/>
<path fill-rule="evenodd" clip-rule="evenodd" d="M10 10L26.1075 1.13504L26.3727 1.63216L10 10Z" fill="#93B6FF"/>
<path fill-rule="evenodd" clip-rule="evenodd" d="M10 10L26.3197 1.53232L26.5734 2.03672L10 10Z" fill="#92B5FF"/>
<path fill-rule="evenodd" clip-rule="evenodd" d="M10 10L26.5235 1.93584L26.7638 2.44544L10 10Z" fill="#91B4FF"/>
<path fill-rule="evenodd" clip-rule="evenodd" d="M10 9.99999L26.7159 2.34351L26.9447 2.85935L10 9.99999Z" fill="#90B4FF"/>
<path fill-rule="evenodd" clip-rule="evenodd" d="M10 10L26.899 2.75536L27.1142 3.27744L10 10Z" fill="#8FB3FF"/>
<path fill-rule="evenodd" clip-rule="evenodd" d="M10 9.99999L27.0716 3.17239L27.2744 3.69967L10 9.99999Z" fill="#8EB2FF"/>
<path fill-rule="evenodd" clip-rule="evenodd" d="M10 10L27.2338 3.5936L27.4242 4.12504L10 10Z" fill="#8DB2FF"/>
<path fill-rule="evenodd" clip-rule="evenodd" d="M10 9.99999L27.3857 4.01895L27.5625 4.55455L10 9.99999Z" fill="#8CB1FF"/>
<path fill-rule="evenodd" clip-rule="evenodd" d="M10 9.99999L27.5271 4.44743L27.6914 4.98719L10 9.99999Z" fill="#8BB0FF"/>
<path fill-rule="evenodd" clip-rule="evenodd" d="M10 9.99999L27.6582 4.87903L27.809 5.42295L10 9.99999Z" fill="#8AB0FF"/>
<path fill-rule="evenodd" clip-rule="evenodd" d="M10 9.99999L27.7788 5.31375L27.9161 5.86079L10 9.99999Z" fill="#89AFFF"/>
<path fill-rule="evenodd" clip-rule="evenodd" d="M10 9.99999L27.889 5.75159L28.0118 6.30175L10 9.99999Z" fill="#88AEFF"/>
<path fill-rule="evenodd" clip-rule="evenodd" d="M10 9.99999L27.9868 6.19255L28.097 6.74479L10 9.99999Z" fill="#87AEFF"/>
<path fill-rule="evenodd" clip-rule="evenodd" d="M10 9.99999L28.0752 6.63455L28.1719 7.18991L10 9.99999Z" fill="#86ADFF"/>
<path fill-rule="evenodd" clip-rule="evenodd" d="M10 9.99999L28.1522 7.07863L28.2354 7.63711L10 9.99999Z" fill="#85ACFF"/>
<path fill-rule="evenodd" clip-rule="evenodd" d="M10 9.99999L28.2187 7.52583L28.2874 8.08535L10 9.99999Z" fill="#84ACFF"/>
<path fill-rule="evenodd" clip-rule="evenodd" d="M10 10L28.2738 7.97304L28.329 8.53464L10 10Z" fill="#83ABFF"/>
<path fill-rule="evenodd" clip-rule="evenodd" d="M10 10L28.3186 8.42232L28.3602 8.98496L10 10Z" fill="#82AAFF"/>
<path fill-rule="evenodd" clip-rule="evenodd" d="M10 10L28.3518 8.87263L28.3789 9.43632L10 10Z" fill="#81AAFF"/>
<path fill-rule="evenodd" clip-rule="evenodd" d="M10 9.99999L28.3737 9.32295L28.3872 9.88663L10 9.99999Z" fill="#80A9FF"/>
<path fill-rule="evenodd" clip-rule="evenodd" d="M10 9.99999L28.3841 9.77431V10.338L10 9.99999Z" fill="#7FA8FF"/>
<path fill-rule="evenodd" clip-rule="evenodd" d="M10 10L28.3841 10.2257L28.3706 10.7894L10 10Z" fill="#7EA7FF"/>
<path fill-rule="evenodd" clip-rule="evenodd" d="M10 10L28.3737 10.677L28.3456 11.2397L10 10Z" fill="#7DA7FF"/>
<path fill-rule="evenodd" clip-rule="evenodd" d="M10 10L28.3518 11.1274L28.3102 11.69L10 10Z" fill="#7CA6FF"/>
<path fill-rule="evenodd" clip-rule="evenodd" d="M10 10L28.3186 11.5777L28.2634 12.1393L10 10Z" fill="#7BA5FF"/>
<path fill-rule="evenodd" clip-rule="evenodd" d="M10 10L28.2738 12.0259L28.2052 12.5865L10 10Z" fill="#7AA5FF"/>
<path fill-rule="evenodd" clip-rule="evenodd" d="M10 10L28.2187 12.4742L28.1355 13.0326L10 10Z" fill="#79A4FF"/>
<path fill-rule="evenodd" clip-rule="evenodd" d="M10 10L28.1522 12.9203L28.0565 13.4767L10 10Z" fill="#78A3FF"/>
<path fill-rule="evenodd" clip-rule="evenodd" d="M10 10L28.0752 13.3654L27.965 13.9187L10 10Z" fill="#77A3FF"/>
<path fill-rule="evenodd" clip-rule="evenodd" d="M10 10L27.9868 13.8074L27.8641 14.3586L10 10Z" fill="#76A2FF"/>
<path fill-rule="evenodd" clip-rule="evenodd" d="M10 10L27.889 14.2484L27.7518 14.7954L10 10Z" fill="#75A1FF"/>
<path fill-rule="evenodd" clip-rule="evenodd" d="M10 10L27.7788 14.6862L27.629 15.2291L10 10Z" fill="#74A1FF"/>
<path fill-rule="evenodd" clip-rule="evenodd" d="M10 10L27.6582 15.121L27.4949 15.6607L10 10Z" fill="#73A0FF"/>
<path fill-rule="evenodd" clip-rule="evenodd" d="M10 10L27.5271 15.5526L27.3503 16.0882L10 10Z" fill="#729FFF"/>
<path fill-rule="evenodd" clip-rule="evenodd" d="M10 10L27.3857 15.981L27.1964 16.5125L10 10Z" fill="#719FFF"/>
<path fill-rule="evenodd" clip-rule="evenodd" d="M10 10L27.2338 16.4064L27.031 16.9326L10 10Z" fill="#709EFF"/>
<path fill-rule="evenodd" clip-rule="evenodd" d="M10 10L27.0716 16.8266L26.8553 17.3486L10 10Z" fill="#6F9DFF"/>
<path fill-rule="evenodd" clip-rule="evenodd" d="M10 10L26.899 17.2436L26.6702 17.7594L10 10Z" fill="#6E9DFF"/>
<path fill-rule="evenodd" clip-rule="evenodd" d="M10 10L26.7159 17.6565L26.4746 18.1661L10 10Z" fill="#6D9CFF"/>
<path fill-rule="evenodd" clip-rule="evenodd" d="M10 10L26.5235 18.0642L26.2698 18.5686L10 10Z" fill="#6C9BFF"/>
<path fill-rule="evenodd" clip-rule="evenodd" d="M10 10L26.3197 18.4677L26.0545 18.9648L10 10Z" fill="#6B9BFF"/>
<path fill-rule="evenodd" clip-rule="evenodd" d="M10 10L26.1075 18.865L25.8298 19.3569L10 10Z" fill="#6A9AFF"/>
<path fill-rule="evenodd" clip-rule="evenodd" d="M10 10L25.885 19.2581L25.5948 19.7417L10 10Z" fill="#6999FF"/>
<path fill-rule="evenodd" clip-rule="evenodd" d="M10 10L25.653 19.645L25.3514 20.1213L10 10Z" fill="#6899FF"/>
<path fill-rule="evenodd" clip-rule="evenodd" d="M10 10L25.4118 20.0266L25.0977 20.4957L10 10Z" fill="#6798FF"/>
<path fill-rule="evenodd" clip-rule="evenodd" d="M10 10L25.1611 20.4021L24.8366 20.8628L10 10Z" fill="#6697FF"/>
<path fill-rule="evenodd" clip-rule="evenodd" d="M10 10L24.9011 20.7702L24.5652 21.2237L10 10Z" fill="#6597FF"/>
<path fill-rule="evenodd" clip-rule="evenodd" d="M10 10L24.6328 21.1332L24.2854 21.5773L10 10Z" fill="#6496FF"/>
<path fill-rule="evenodd" clip-rule="evenodd" d="M10 10L24.3551 21.4889L23.9974 21.9246L10 10Z" fill="#6395FF"/>
<path fill-rule="evenodd" clip-rule="evenodd" d="M10 10L24.0681 21.8373L23.6999 22.2647L10 10Z" fill="#6294FF"/>
<path fill-rule="evenodd" clip-rule="evenodd" d="M10 10L23.7738 22.1794L23.3952 22.5975L10 10Z" fill="#6194FF"/>
<path fill-rule="evenodd" clip-rule="evenodd" d="M10 10L23.4711 22.5133L23.0822 22.922L10 10Z" fill="#6093FF"/>
<path fill-rule="evenodd" clip-rule="evenodd" d="M10 10L23.1591 22.8398L22.7608 23.2392L10 10Z" fill="#5F92FF"/>
<path fill-rule="evenodd" clip-rule="evenodd" d="M10 10L22.8398 23.1591L22.4322 23.5481L10 10Z" fill="#5E92FF"/>
<path fill-rule="evenodd" clip-rule="evenodd" d="M10 10L22.5133 23.4711L22.0952 23.8497L10 10Z" fill="#5D91FF"/>
<path fill-rule="evenodd" clip-rule="evenodd" d="M10 10L22.1794 23.7738L21.752 24.1419L10 10Z" fill="#5C90FF"/>
<path fill-rule="evenodd" clip-rule="evenodd" d="M10 10L21.8373 24.0681L21.4015 24.4258L10 10Z" fill="#5B90FF"/>
<path fill-rule="evenodd" clip-rule="evenodd" d="M10 10L21.4889 24.3551L21.0438 24.7014L10 10Z" fill="#5A8FFF"/>
<path fill-rule="evenodd" clip-rule="evenodd" d="M10 10L21.1332 24.6328L20.6798 24.9687L10 10Z" fill="#598EFF"/>
<path fill-rule="evenodd" clip-rule="evenodd" d="M10 10L20.7702 24.9011L20.3095 25.2256L10 10Z" fill="#588EFF"/>
<path fill-rule="evenodd" clip-rule="evenodd" d="M10 10L20.4021 25.1611L19.932 25.4742L10 10Z" fill="#578DFF"/>
<path fill-rule="evenodd" clip-rule="evenodd" d="M10 10L20.0266 25.4118L19.5493 25.7134L10 10Z" fill="#568CFF"/>
<path fill-rule="evenodd" clip-rule="evenodd" d="M10 10L19.645 25.653L19.1614 25.9432L10 10Z" fill="#558CFF"/>
<path fill-rule="evenodd" clip-rule="evenodd" d="M10 10L19.2581 25.885L18.7672 26.1626L10 10Z" fill="#548BFF"/>
<path fill-rule="evenodd" clip-rule="evenodd" d="M10 10L18.865 26.1075L18.3678 26.3727L10 10Z" fill="#538AFF"/>
<path fill-rule="evenodd" clip-rule="evenodd" d="M10 10L18.4677 26.3197L17.9633 26.5734L10 10Z" fill="#528AFF"/>
<path fill-rule="evenodd" clip-rule="evenodd" d="M10 10L18.0642 26.5235L17.5546 26.7638L10 10Z" fill="#5189FF"/>
<path fill-rule="evenodd" clip-rule="evenodd" d="M10 10L17.6565 26.7159L17.1406 26.9447L10 10Z" fill="#5088FF"/>
<path fill-rule="evenodd" clip-rule="evenodd" d="M10 10L17.2436 26.899L16.7226 27.1142L10 10Z" fill="#4F88FF"/>
<path fill-rule="evenodd" clip-rule="evenodd" d="M10 10L16.8266 27.0716L16.3003 27.2744L10 10Z" fill="#4E87FF"/>
<path fill-rule="evenodd" clip-rule="evenodd" d="M10 10L16.4064 27.2338L15.875 27.4242L10 10Z" fill="#4D86FF"/>
<path fill-rule="evenodd" clip-rule="evenodd" d="M10 10L15.981 27.3857L15.4454 27.5625L10 10Z" fill="#4C86FF"/>
<path fill-rule="evenodd" clip-rule="evenodd" d="M10 10L15.5526 27.5271L15.0128 27.6914L10 10Z" fill="#4B85FF"/>
<path fill-rule="evenodd" clip-rule="evenodd" d="M10 10L15.121 27.6582L14.577 27.809L10 10Z" fill="#4A84FF"/>
<path fill-rule="evenodd" clip-rule="evenodd" d="M10 10L14.6862 27.7788L14.1382 27.9161L10 10Z" fill="#4984FF"/>
<path fill-rule="evenodd" clip-rule="evenodd" d="M10 10L14.2484 27.889L13.6982 28.0118L10 10Z" fill="#4883FF"/>
<path fill-rule="evenodd" clip-rule="evenodd" d="M10 10L13.8074 27.9868L13.2542 28.097L10 10Z" fill="#4782FF"/>
<path fill-rule="evenodd" clip-rule="evenodd" d="M10 10L13.3654 28.0752L12.8101 28.1719L10 10Z" fill="#4681FF"/>
<path fill-rule="evenodd" clip-rule="evenodd" d="M10 10L12.9203 28.1522L12.3629 28.2354L10 10Z" fill="#4581FF"/>
<path fill-rule="evenodd" clip-rule="evenodd" d="M10 10L12.4742 28.2187L11.9146 28.2874L10 10Z" fill="#4480FF"/>
<path fill-rule="evenodd" clip-rule="evenodd" d="M10 10L12.0259 28.2738L11.4654 28.329L10 10Z" fill="#437FFF"/>
<path fill-rule="evenodd" clip-rule="evenodd" d="M10 10L11.5777 28.3186L11.015 28.3602L10 10Z" fill="#427FFF"/>
<path fill-rule="evenodd" clip-rule="evenodd" d="M10 10L11.1274 28.3518L10.5637 28.3789L10 10Z" fill="#417EFF"/>
<path fill-rule="evenodd" clip-rule="evenodd" d="M10 10L10.677 28.3737L10.1123 28.3872L10 10Z" fill="#407DFF"/>
<path fill-rule="evenodd" clip-rule="evenodd" d="M9.99529 10L10.221 28.3841H9.65625L9.99529 10Z" fill="#3F7DFF"/>
<path fill-rule="evenodd" clip-rule="evenodd" d="M10.0003 10L9.77462 28.3841L9.21094 28.3706L10.0003 10Z" fill="#3E7CFF"/>
<path fill-rule="evenodd" clip-rule="evenodd" d="M9.99853 10L9.32149 28.3737L8.75781 28.3456L9.99853 10Z" fill="#3D7BFF"/>
<path fill-rule="evenodd" clip-rule="evenodd" d="M9.99469 10L8.86733 28.3518L8.30469 28.3102L9.99469 10Z" fill="#3C7BFF"/>
<path fill-rule="evenodd" clip-rule="evenodd" d="M9.99865 10L8.42098 28.3186L7.85938 28.2634L9.99865 10Z" fill="#3B7AFF"/>
<path fill-rule="evenodd" clip-rule="evenodd" d="M9.99273 10L7.96577 28.2738L7.40625 28.2052L9.99273 10Z" fill="#3A79FF"/>
<path fill-rule="evenodd" clip-rule="evenodd" d="M9.99358 10L7.51942 28.2187L6.96094 28.1355L9.99358 10Z" fill="#3979FF"/>
<path fill-rule="evenodd" clip-rule="evenodd" d="M10.0002 10L7.0788 28.1522L6.52344 28.0565L10.0002 10Z" fill="#3878FF"/>
<path fill-rule="evenodd" clip-rule="evenodd" d="M9.99684 10L6.63141 28.0752L6.07812 27.965L9.99684 10Z" fill="#3777FF"/>
<path fill-rule="evenodd" clip-rule="evenodd" d="M9.99926 10L6.19183 27.9868L5.64062 27.8641L9.99926 10Z" fill="#3677FF"/>
<path fill-rule="evenodd" clip-rule="evenodd" d="M9.99856 10L5.75016 27.889L5.20312 27.7518L9.99856 10Z" fill="#3576FF"/>
<path fill-rule="evenodd" clip-rule="evenodd" d="M9.99579 10L5.30955 27.7788L4.76562 27.629L9.99579 10Z" fill="#3475FF"/>
<path fill-rule="evenodd" clip-rule="evenodd" d="M9.99666 10L4.8757 27.6582L4.33594 27.4949L9.99666 10Z" fill="#3375FF"/>
<path fill-rule="evenodd" clip-rule="evenodd" d="M9.99441 10L4.44185 27.5271L3.90625 27.3503L9.99441 10Z" fill="#3274FF"/>
<path fill-rule="evenodd" clip-rule="evenodd" d="M9.99686 10L4.01582 27.3857L3.48438 27.1964L9.99686 10Z" fill="#3173FF"/>
<path fill-rule="evenodd" clip-rule="evenodd" d="M9.99514 10L3.58874 27.2338L3.0625 27.031L9.99514 10Z" fill="#3073FF"/>
<path fill-rule="evenodd" clip-rule="evenodd" d="M9.99708 10L3.16948 27.0716L2.64844 26.8553L9.99708 10Z" fill="#2F72FF"/>
<path fill-rule="evenodd" clip-rule="evenodd" d="M9.99381 10L2.74918 26.899L2.23438 26.6702L9.99381 10Z" fill="#2E71FF"/>
<path fill-rule="evenodd" clip-rule="evenodd" d="M9.9942 10L2.33772 26.7159L1.82812 26.4746L9.9942 10Z" fill="#2D71FF"/>
<path fill-rule="evenodd" clip-rule="evenodd" d="M9.99825 10L1.93409 26.5235L1.42969 26.2698L9.99825 10Z" fill="#2C70FF"/>
<path fill-rule="evenodd" clip-rule="evenodd" d="M9.99605 10L1.52837 26.3197L1.03125 26.0545L9.99605 10Z" fill="#2B6FFF"/>
<path fill-rule="evenodd" clip-rule="evenodd" d="M9.99751 10L1.13255 26.1075L0.640625 25.8298L9.99751 10Z" fill="#2A6EFF"/>
<path fill-rule="evenodd" clip-rule="evenodd" d="M9.99949 10L0.741413 25.885L0.257812 25.5948L9.99949 10Z" fill="#296EFF"/>
<path fill-rule="evenodd" clip-rule="evenodd" d="M9.99732 10L0.35236 25.653L-0.125 25.3514L9.99732 10Z" fill="#286DFF"/>
<path fill-rule="evenodd" clip-rule="evenodd" d="M9.99568 10L-0.0309601 25.4118L-0.5 25.0977L9.99568 10Z" fill="#276CFF"/>
<path fill-rule="evenodd" clip-rule="evenodd" d="M9.99561 10L-0.406467 25.1611L-0.867188 24.8366L9.99561 10Z" fill="#266CFF"/>
<path fill-rule="evenodd" clip-rule="evenodd" d="M9.99712 10L-0.773123 24.9011L-1.22656 24.5652L9.99712 10Z" fill="#256BFF"/>
<path fill-rule="evenodd" clip-rule="evenodd" d="M10.0002 10L-1.133 24.6328L-1.57812 24.2854L10.0002 10Z" fill="#246AFF"/>
<path fill-rule="evenodd" clip-rule="evenodd" d="M9.99495 10L-1.49393 24.3551L-1.92969 23.9974L9.99495 10Z" fill="#236AFF"/>
<path fill-rule="evenodd" clip-rule="evenodd" d="M9.99909 10L-1.83818 24.0681L-2.26562 23.6999L9.99909 10Z" fill="#2269FF"/>
<path fill-rule="evenodd" clip-rule="evenodd" d="M9.99596 10L-2.18348 23.7738L-2.60156 23.3952L9.99596 10Z" fill="#2168FF"/>
<path fill-rule="evenodd" clip-rule="evenodd" d="M10.0001 10L-2.51316 23.4711L-2.92188 23.0822L10.0001 10Z" fill="#2068FF"/>
<path fill-rule="evenodd" clip-rule="evenodd" d="M9.99701 10L-2.84283 23.1591L-3.24219 22.7608L9.99701 10Z" fill="#1F67FF"/>
<path fill-rule="evenodd" clip-rule="evenodd" d="M9.99339 10L-3.16677 22.8398L-3.55469 22.4322L9.99339 10Z" fill="#1E66FF"/>
<path fill-rule="evenodd" clip-rule="evenodd" d="M9.99812 10L-3.473 22.5133L-3.85156 22.0952L9.99812 10Z" fill="#1D66FF"/>
<path fill-rule="evenodd" clip-rule="evenodd" d="M9.99348 10L-3.78028 22.1794L-4.14844 21.752L9.99348 10Z" fill="#1C65FF"/>
<path fill-rule="evenodd" clip-rule="evenodd" d="M9.99615 10L-4.07193 21.8373L-4.42969 21.4015L9.99615 10Z" fill="#1B64FF"/>
<path fill-rule="evenodd" clip-rule="evenodd" d="M9.99831 10L-4.3568 21.4889L-4.70312 21.0438L9.99831 10Z" fill="#1A64FF"/>
<path fill-rule="evenodd" clip-rule="evenodd" d="M9.99997 10L-4.63283 21.1332L-4.96875 20.6798L9.99997 10Z" fill="#1963FF"/>
<path fill-rule="evenodd" clip-rule="evenodd" d="M9.99904 10L-4.90208 20.7702L-5.22656 20.3095L9.99904 10Z" fill="#1862FF"/>
<path fill-rule="evenodd" clip-rule="evenodd" d="M9.9976 10L-5.16352 20.4021L-5.47656 19.932L9.9976 10Z" fill="#1762FF"/>
<path fill-rule="evenodd" clip-rule="evenodd" d="M9.99461 10L-5.41715 20.0266L-5.71875 19.5493L9.99461 10Z" fill="#1661FF"/>
<path fill-rule="evenodd" clip-rule="evenodd" d="M9.99789 10L-5.65515 19.645L-5.94531 19.1614L9.99789 10Z" fill="#1560FF"/>
<path fill-rule="evenodd" clip-rule="evenodd" d="M9.99858 10L-5.88638 19.2581L-6.16406 18.7672L9.99858 10Z" fill="#1460FF"/>
<path fill-rule="evenodd" clip-rule="evenodd" d="M9.99876 10L-6.10876 18.865L-6.375 18.3678L9.99876 10Z" fill="#135FFF"/>
<path fill-rule="evenodd" clip-rule="evenodd" d="M9.99531 10L-6.3254 18.4677L-6.57812 17.9633L9.99531 10Z" fill="#125EFF"/>
<path fill-rule="evenodd" clip-rule="evenodd" d="M9.99814 10L-6.52538 18.0642L-6.76562 17.5546L9.99814 10Z" fill="#115EFF"/>
<path fill-rule="evenodd" clip-rule="evenodd" d="M9.99941 10L-6.71651 17.6565L-6.94531 17.1406L9.99941 10Z" fill="#105DFF"/>
<path fill-rule="evenodd" clip-rule="evenodd" d="M9.99809 10L-6.90087 17.2436L-7.11719 16.7226L9.99809 10Z" fill="#0F5CFF"/>
<path fill-rule="evenodd" clip-rule="evenodd" d="M9.99315 10L-7.07845 16.8266L-7.28125 16.3003L9.99315 10Z" fill="#0E5BFF"/>
<path fill-rule="evenodd" clip-rule="evenodd" d="M9.99447 10L-7.23937 16.4064L-7.42969 15.875L9.99447 10Z" fill="#0D5BFF"/>
<path fill-rule="evenodd" clip-rule="evenodd" d="M9.99998 10L-7.38674 15.981L-7.5625 15.4454L9.99998 10Z" fill="#0C5AFF"/>
<path fill-rule="evenodd" clip-rule="evenodd" d="M9.99613 10L-7.53203 15.5526L-7.69531 15.0128L9.99613 10Z" fill="#0B59FF"/>
<path fill-rule="evenodd" clip-rule="evenodd" d="M9.99646 10L-7.66274 15.121L-7.8125 14.577L9.99646 10Z" fill="#0A59FF"/>
<path fill-rule="evenodd" clip-rule="evenodd" d="M9.99421 10L-7.78459 14.6862L-7.92188 14.1382L9.99421 10Z" fill="#0958FF"/>
<path fill-rule="evenodd" clip-rule="evenodd" d="M9.99613 10L-7.89291 14.2484L-8.01562 13.6982L9.99613 10Z" fill="#0857FF"/>
<path fill-rule="evenodd" clip-rule="evenodd" d="M9.99548 10L-7.99236 13.8074L-8.10156 13.2542L9.99548 10Z" fill="#0757FF"/>
<path fill-rule="evenodd" clip-rule="evenodd" d="M10 10L-8.07516 13.3654L-8.17188 12.8101L10 10Z" fill="#0656FF"/>
<path fill-rule="evenodd" clip-rule="evenodd" d="M9.99317 10L-8.15899 12.9203L-8.24219 12.3629L9.99317 10Z" fill="#0555FF"/>
<path fill-rule="evenodd" clip-rule="evenodd" d="M9.9983 10L-8.22042 12.4742L-8.28906 11.9146L9.9983 10Z" fill="#0455FF"/>
<path fill-rule="evenodd" clip-rule="evenodd" d="M9.99302 10L-8.28082 12.0259L-8.33594 11.4654L9.99302 10Z" fill="#0354FF"/>
<path fill-rule="evenodd" clip-rule="evenodd" d="M9.99297 10L-8.32559 11.5777L-8.36719 11.015L9.99297 10Z" fill="#0253FF"/>
<path fill-rule="evenodd" clip-rule="evenodd" d="M9.99607 10L-8.35577 11.1274L-8.38281 10.5637L9.99607 10Z" fill="#0153FF"/>
<path fill-rule="evenodd" clip-rule="evenodd" d="M9.99658 10L-8.37711 10.677L-8.39062 10.1123L9.99658 10Z" fill="#0052FF"/>
<path fill-rule="evenodd" clip-rule="evenodd" d="M9.9945 9.99999L-8.39062 10.2257V9.77431L9.9945 9.99999Z" fill="white"/>
</g>
</g>
<defs>
<clipPath id="clip0_1449_5700">
<rect width="26" height="26" fill="white" transform="translate(-3 -3)"/>
</clipPath>
</defs>
</svg>
