<svg width="375" height="516" viewBox="0 0 375 516" fill="none" xmlns="http://www.w3.org/2000/svg">
<mask id="mask0_650_5917" style="mask-type:alpha" maskUnits="userSpaceOnUse" x="0" y="0" width="375" height="516">
<rect width="375" height="516" rx="12" fill="#312F69"/>
</mask>
<g mask="url(#mask0_650_5917)">
<g opacity="0.5" filter="url(#filter0_f_650_5917)">
<ellipse opacity="0.5" cx="351.664" cy="336.5" rx="116.664" ry="79.5" fill="#4A3AFF"/>
<ellipse cx="447.172" cy="333.5" rx="116.664" ry="79.5" fill="#554FD8"/>
</g>
<g opacity="0.5" filter="url(#filter1_f_650_5917)">
<ellipse cx="143.992" cy="124.701" rx="38.4327" ry="40.2673" fill="#4A3AFF"/>
<ellipse cx="131.645" cy="184.317" rx="52.6453" ry="55.1585" fill="#F0603A"/>
<ellipse cx="149.668" cy="129.158" rx="52.6453" ry="55.1585" fill="#554FD8"/>
</g>
<g opacity="0.5">
<line x1="435.847" y1="182.285" x2="75" y2="182.285" stroke="url(#paint0_linear_650_5917)"/>
<line x1="435.847" y1="208.527" x2="75" y2="208.527" stroke="url(#paint1_linear_650_5917)"/>
<line x1="435.847" y1="234.771" x2="75" y2="234.772" stroke="url(#paint2_linear_650_5917)"/>
<line x1="435.847" y1="259.557" x2="75" y2="259.557" stroke="url(#paint3_linear_650_5917)"/>
<line x1="435.847" y1="285.799" x2="75" y2="285.799" stroke="url(#paint4_linear_650_5917)"/>
<line x1="435.847" y1="312.043" x2="75" y2="312.043" stroke="url(#paint5_linear_650_5917)"/>
<line x1="152.771" y1="170.121" x2="152.771" y2="323.204" stroke="url(#paint6_linear_650_5917)"/>
<line x1="219.835" y1="170.121" x2="219.835" y2="323.204" stroke="url(#paint7_linear_650_5917)"/>
<line x1="286.9" y1="170.121" x2="286.9" y2="323.204" stroke="url(#paint8_linear_650_5917)"/>
<line x1="353.965" y1="170.121" x2="353.965" y2="323.204" stroke="url(#paint9_linear_650_5917)"/>
</g>
<g filter="url(#filter2_d_650_5917)">
<path d="M118.62 212.402V286.805" stroke="#4ED5D2" stroke-miterlimit="10" stroke-linecap="round"/>
<path fill-rule="evenodd" clip-rule="evenodd" d="M120.621 271.271H116.684C116.208 271.271 115.822 270.407 115.822 269.34V228.808C115.822 227.742 116.208 226.877 116.684 226.877H120.621C121.097 226.877 121.483 227.742 121.483 228.808V269.34C121.483 270.407 121.097 271.271 120.621 271.271Z" fill="#4ED5D2"/>
</g>
<g filter="url(#filter3_d_650_5917)">
<path d="M153.609 257.598V332" stroke="#F36D46" stroke-miterlimit="10" stroke-linecap="round"/>
<path fill-rule="evenodd" clip-rule="evenodd" d="M155.611 316.467H151.674C151.198 316.467 150.812 315.602 150.812 314.536V274.004C150.812 272.937 151.198 272.072 151.674 272.072H155.612C156.088 272.072 156.474 272.937 156.474 274.004V314.536C156.472 315.602 156.086 316.467 155.611 316.467Z" fill="#F36D46"/>
</g>
<g filter="url(#filter4_d_650_5917)">
<path fill-rule="evenodd" clip-rule="evenodd" d="M189.119 272.099H185.202C184.729 272.099 184.345 271.696 184.345 271.2V252.32C184.345 251.823 184.729 251.42 185.202 251.42H189.12C189.593 251.42 189.977 251.823 189.977 252.32V271.2C189.976 271.696 189.592 272.099 189.119 272.099Z" fill="#4ED5D2"/>
<path d="M187.141 206.57V280.962" stroke="#4ED5D2" stroke-miterlimit="10" stroke-linecap="round"/>
</g>
<g filter="url(#filter5_d_650_5917)">
<path d="M220.673 210.943V285.335" stroke="#F36D46" stroke-miterlimit="10" stroke-linecap="round"/>
<path fill-rule="evenodd" clip-rule="evenodd" d="M222.675 263.896H218.739C218.263 263.896 217.877 263.031 217.877 261.965V221.439C217.877 220.373 218.263 219.508 218.739 219.508H222.676C223.152 219.508 223.538 220.373 223.538 221.439V261.965C223.536 263.031 223.15 263.896 222.675 263.896Z" fill="#F36D46"/>
</g>
<g filter="url(#filter6_d_650_5917)">
<path d="M254.286 212.824L254.206 275.131" stroke="#4ED5D2" stroke-miterlimit="10" stroke-linecap="round"/>
<path fill-rule="evenodd" clip-rule="evenodd" d="M256.207 264.97H252.271C251.796 264.97 251.41 264.105 251.41 263.039V222.513C251.41 221.447 251.796 220.582 252.271 220.582H256.208C256.684 220.582 257.07 221.447 257.07 222.513V263.039C257.069 264.105 256.683 264.97 256.207 264.97Z" fill="#4ED5D2"/>
</g>
<g filter="url(#filter7_d_650_5917)">
<path d="M287.818 255.104L287.738 317.41" stroke="#F36D46" stroke-miterlimit="10" stroke-linecap="round"/>
<path fill-rule="evenodd" clip-rule="evenodd" d="M289.739 307.249H285.804C285.328 307.249 284.942 306.384 284.942 305.318V264.792C284.942 263.726 285.328 262.861 285.804 262.861H289.74C290.216 262.861 290.602 263.726 290.602 264.792V305.318C290.601 306.384 290.215 307.249 289.739 307.249Z" fill="#F36D46"/>
</g>
<g filter="url(#filter8_d_650_5917)">
<path d="M321.351 208.449L321.271 270.756" stroke="#4ED5D2" stroke-miterlimit="10" stroke-linecap="round"/>
<path fill-rule="evenodd" clip-rule="evenodd" d="M323.272 260.595H319.336C318.861 260.595 318.475 259.73 318.475 258.664V218.138C318.475 217.072 318.861 216.207 319.336 216.207H323.273C323.749 216.207 324.135 217.072 324.135 218.138V258.664C324.134 259.73 323.748 260.595 323.272 260.595Z" fill="#4ED5D2"/>
</g>
<g filter="url(#filter9_d_650_5917)">
<path d="M353.345 157L353.439 247.505" stroke="#4ED5D2" stroke-miterlimit="10" stroke-linecap="round"/>
<path fill-rule="evenodd" clip-rule="evenodd" d="M355.346 204.849H351.41C350.935 204.849 350.549 203.984 350.549 202.918V162.392C350.549 161.326 350.935 160.461 351.41 160.461H355.347C355.823 160.461 356.209 161.326 356.209 162.392V202.918C356.208 203.984 355.822 204.849 355.346 204.849Z" fill="#4ED5D2"/>
</g>
<g filter="url(#filter10_d_650_5917)">
</g>
<g filter="url(#filter11_f_650_5917)">
<path d="M135 160H135.013M147 160C147 166.627 141.627 172 135 172C128.373 172 123 166.627 123 160C123 153.373 128.373 148 135 148C141.627 148 147 153.373 147 160ZM140.333 154.667L131.667 156.667L129.667 165.333L138.333 163.333L140.333 154.667Z" stroke="#8E97CD" stroke-width="2" stroke-linecap="round" stroke-linejoin="round"/>
</g>
<path d="M135 159H135.013M147 159C147 165.627 141.627 171 135 171C128.373 171 123 165.627 123 159C123 152.373 128.373 147 135 147C141.627 147 147 152.373 147 159ZM140.333 153.667L131.667 155.667L129.667 164.333L138.333 162.333L140.333 153.667Z" stroke="#8E97CD" stroke-width="2" stroke-linecap="round" stroke-linejoin="round"/>
<rect x="213" y="351" width="20" height="16" rx="1" stroke="#8E97CD" stroke-width="2" stroke-linecap="round" stroke-linejoin="round"/>
<path d="M217.938 346.48C217.42 345.962 217.161 345.703 217.064 345.404C216.979 345.142 216.979 344.858 217.064 344.596C217.161 344.297 217.42 344.038 217.938 343.52L221.52 339.938C222.038 339.42 222.297 339.161 222.596 339.064C222.858 338.979 223.142 338.979 223.404 339.064C223.703 339.161 223.962 339.42 224.48 339.938L228.062 343.52C228.58 344.038 228.839 344.297 228.936 344.596C229.021 344.858 229.021 345.142 228.936 345.404C228.839 345.703 228.58 345.962 228.062 346.48L224.48 350.062C223.962 350.58 223.703 350.839 223.404 350.936C223.142 351.021 222.858 351.021 222.596 350.936C222.297 350.839 222.038 350.58 221.52 350.062L217.938 346.48Z" stroke="#8E97CD" stroke-width="2" stroke-linecap="round" stroke-linejoin="round"/>
<path d="M219 355H227" stroke="#8E97CD" stroke-width="2" stroke-linecap="round"/>
<g filter="url(#filter12_f_650_5917)">
<rect x="214" y="352" width="20" height="16" rx="1" stroke="#8E97CD" stroke-width="2" stroke-linecap="round" stroke-linejoin="round"/>
<path d="M218.938 347.48C218.42 346.962 218.161 346.703 218.064 346.404C217.979 346.142 217.979 345.858 218.064 345.596C218.161 345.297 218.42 345.038 218.938 344.52L222.52 340.938C223.038 340.42 223.297 340.161 223.596 340.064C223.858 339.979 224.142 339.979 224.404 340.064C224.703 340.161 224.962 340.42 225.48 340.938L229.062 344.52C229.58 345.038 229.839 345.297 229.936 345.596C230.021 345.858 230.021 346.142 229.936 346.404C229.839 346.703 229.58 346.962 229.062 347.48L225.48 351.062C224.962 351.58 224.703 351.839 224.404 351.936C224.142 352.021 223.858 352.021 223.596 351.936C223.297 351.839 223.038 351.58 222.52 351.062L218.938 347.48Z" stroke="#8E97CD" stroke-width="2" stroke-linecap="round" stroke-linejoin="round"/>
<path d="M220 356H228" stroke="#8E97CD" stroke-width="2" stroke-linecap="round"/>
</g>
<g opacity="0.7">
<path d="M202.921 114.258C206.676 114.324 209.316 115.656 211.383 117.844C213.252 119.849 214.367 122.143 215.236 124.517C216.417 127.721 217.04 131.017 217.712 134.314C218.827 139.707 220.27 145.034 222.993 150.084C223.911 151.798 225.026 153.42 226.649 154.792C227.289 155.332 228.01 155.794 228.863 156.097C230.405 156.638 231.782 156.44 232.979 155.49C234.455 154.33 235.373 152.866 236.144 151.363C237.866 148.04 238.833 144.533 239.604 140.999C239.899 139.601 240.145 138.204 240.358 136.806C240.506 135.843 241.523 135.237 242.72 135.369C243.786 135.487 244.507 136.331 244.376 137.254C243.753 141.54 242.785 145.772 241.145 149.886C240.162 152.352 238.964 154.752 236.948 156.809C235.701 158.075 234.225 159.117 232.225 159.486C229.306 160.026 226.83 159.248 224.632 157.745C222.501 156.295 221.058 154.409 219.861 152.418C217.319 148.212 215.909 143.729 214.679 139.193C213.826 136.041 213.383 132.837 212.596 129.685C211.957 127.088 211.169 124.517 209.776 122.103C208.972 120.719 208.021 119.427 206.463 118.477C204.266 117.132 201.708 117.251 199.723 118.794C198.034 120.112 196.985 121.774 196.083 123.488C194.394 126.732 193.427 130.134 192.672 133.589C192.426 134.736 192.246 135.896 192.049 137.056C191.885 138.059 190.918 138.691 189.704 138.573C188.622 138.467 187.884 137.623 188.015 136.661C188.589 132.745 189.524 128.894 191.016 125.149C192.098 122.407 193.443 119.756 195.706 117.488C197.264 115.946 199.133 114.746 201.642 114.39C202.15 114.311 202.659 114.284 202.921 114.258Z" fill="url(#paint10_linear_650_5917)"/>
<path d="M202.921 109C206.676 109.081 209.316 110.721 211.383 113.417C213.252 115.886 214.367 118.711 215.236 121.634C216.417 125.581 217.04 129.641 217.712 133.7C218.827 140.342 220.27 146.903 222.993 153.123C223.911 155.234 225.026 157.232 226.649 158.921C227.289 159.586 228.01 160.155 228.863 160.528C230.405 161.194 231.782 160.951 232.979 159.781C234.455 158.352 235.373 156.55 236.144 154.698C237.866 150.606 238.833 146.286 239.604 141.934C239.899 140.213 240.145 138.491 240.358 136.77C240.506 135.584 241.523 134.837 242.72 135C243.786 135.146 244.507 136.185 244.376 137.322C243.753 142.6 242.785 147.813 241.145 152.879C240.162 155.916 238.964 158.872 236.948 161.405C235.701 162.964 234.225 164.247 232.225 164.702C229.306 165.368 226.83 164.41 224.632 162.558C222.501 160.772 221.058 158.45 219.861 155.997C217.319 150.817 215.909 145.296 214.679 139.709C213.826 135.828 213.383 131.882 212.596 128C211.957 124.801 211.169 121.634 209.776 118.663C208.972 116.957 208.021 115.366 206.463 114.197C204.266 112.54 201.708 112.686 199.723 114.586C198.034 116.21 196.985 118.257 196.083 120.368C194.394 124.363 193.427 128.552 192.672 132.807C192.426 134.22 192.246 135.649 192.049 137.078C191.885 138.313 190.918 139.092 189.704 138.946C188.622 138.816 187.884 137.777 188.015 136.591C188.589 131.768 189.524 127.026 191.016 122.414C192.098 119.036 193.443 115.772 195.706 112.979C197.264 111.079 199.133 109.601 201.642 109.162C202.15 109.065 202.659 109.032 202.921 109Z" fill="url(#paint11_linear_650_5917)"/>
<path d="M202.921 119.275C206.676 119.327 209.316 120.364 211.383 122.069C213.252 123.63 214.367 125.418 215.236 127.266C216.417 129.762 217.04 132.33 217.712 134.898C218.827 139.099 220.27 143.248 222.993 147.182C223.911 148.518 225.026 149.781 226.649 150.849C227.289 151.27 228.01 151.63 228.863 151.866C230.405 152.287 231.782 152.133 232.979 151.393C234.455 150.49 235.373 149.349 236.144 148.179C237.866 145.59 238.833 142.858 239.604 140.105C239.899 139.017 240.145 137.928 240.358 136.839C240.506 136.089 241.523 135.617 242.72 135.72C243.786 135.812 244.507 136.469 244.376 137.188C243.753 140.527 242.785 143.824 241.145 147.028C240.162 148.949 238.965 150.818 236.948 152.421C235.701 153.407 234.225 154.218 232.225 154.506C229.306 154.927 226.83 154.321 224.632 153.15C222.501 152.02 221.058 150.551 219.861 149C217.319 145.724 215.909 142.232 214.679 138.698C213.826 136.243 213.383 133.748 212.596 131.293C211.957 129.269 211.169 127.266 209.776 125.387C208.972 124.308 208.021 123.302 206.463 122.562C204.266 121.515 201.708 121.607 199.723 122.809C198.034 123.836 196.985 125.13 196.083 126.465C194.394 128.992 193.427 131.642 192.672 134.333C192.426 135.227 192.246 136.13 192.049 137.034C191.885 137.815 190.918 138.308 189.704 138.216C188.622 138.133 187.884 137.476 188.015 136.726C188.589 133.676 189.524 130.676 191.016 127.759C192.098 125.623 193.443 123.558 195.706 121.792C197.264 120.59 199.133 119.655 201.642 119.378C202.15 119.316 202.659 119.296 202.921 119.275Z" fill="url(#paint12_linear_650_5917)"/>
</g>
<g filter="url(#filter13_f_650_5917)">
<path d="M132.667 331C132.667 332.841 129.682 334.333 126 334.333C122.318 334.333 119.333 332.841 119.333 331M132.667 331C132.667 329.159 129.682 327.667 126 327.667C122.318 327.667 119.333 329.159 119.333 331M132.667 331V336.333M119.333 331V336.333M140.667 324.333C140.667 322.492 137.682 321 134 321C131.361 321 129.081 321.767 128 322.879M140.667 324.333C140.667 325.567 139.326 326.644 137.333 327.221M140.667 324.333V335.667C140.667 336.654 139.326 337.516 137.333 337.977M140.667 330.333C140.667 331.342 139.266 332.22 137.2 332.673M132.667 336.333C132.667 338.174 129.682 339.667 126 339.667C122.318 339.667 119.333 338.174 119.333 336.333M132.667 336.333V341.667C132.667 343.508 129.682 345 126 345C122.318 345 119.333 343.508 119.333 341.667V336.333" stroke="#8E97CD" stroke-width="2" stroke-linecap="round" stroke-linejoin="round"/>
</g>
<path d="M132.667 330C132.667 331.841 129.682 333.333 126 333.333C122.318 333.333 119.333 331.841 119.333 330M132.667 330C132.667 328.159 129.682 326.667 126 326.667C122.318 326.667 119.333 328.159 119.333 330M132.667 330V335.333M119.333 330V335.333M140.667 323.333C140.667 321.492 137.682 320 134 320C131.361 320 129.081 320.767 128 321.879M140.667 323.333C140.667 324.567 139.326 325.644 137.333 326.221M140.667 323.333V334.667C140.667 335.654 139.326 336.516 137.333 336.977M140.667 329.333C140.667 330.342 139.266 331.22 137.2 331.673M132.667 335.333C132.667 337.174 129.682 338.667 126 338.667C122.318 338.667 119.333 337.174 119.333 335.333M132.667 335.333V340.667C132.667 342.508 129.682 344 126 344C122.318 344 119.333 342.508 119.333 340.667V335.333" stroke="#8E97CD" stroke-width="2" stroke-linecap="round" stroke-linejoin="round"/>
<g filter="url(#filter14_f_650_5917)">
<path d="M322 156H302.267C300.773 156 300.026 156 299.456 155.709C298.954 155.454 298.546 155.046 298.291 154.544C298 153.974 298 153.227 298 151.733V132M303.333 148L310 140L315.333 145.333L322 137.333" stroke="#8E97CD" stroke-width="2" stroke-linecap="round" stroke-linejoin="round"/>
</g>
<path d="M320 156H300.267C298.773 156 298.026 156 297.456 155.709C296.954 155.454 296.546 155.046 296.291 154.544C296 153.974 296 153.227 296 151.733V132M301.333 148L308 140L313.333 145.333L320 137.333" stroke="#8E97CD" stroke-width="2" stroke-linecap="round" stroke-linejoin="round"/>
<g filter="url(#filter15_f_650_5917)">
<path d="M318 319.333V322M311.333 313.372C311.962 313.333 312.737 313.333 313.733 313.333H322.267C323.263 313.333 324.038 313.333 324.667 313.372M311.333 313.372C310.549 313.42 309.993 313.527 309.518 313.769C308.765 314.153 308.153 314.765 307.769 315.517C307.333 316.373 307.333 317.493 307.333 319.733V321.6C307.333 323.84 307.333 324.96 307.769 325.816C308.153 326.569 308.765 327.181 309.518 327.564C310.373 328 311.493 328 313.733 328H322.267C324.507 328 325.627 328 326.483 327.564C327.235 327.181 327.847 326.569 328.231 325.816C328.667 324.96 328.667 323.84 328.667 321.6V319.733C328.667 317.493 328.667 316.373 328.231 315.517C327.847 314.765 327.235 314.153 326.483 313.769C326.008 313.527 325.451 313.42 324.667 313.372M311.333 313.372V310.667C311.333 306.985 314.318 304 318 304C321.682 304 324.667 306.985 324.667 310.667V313.372" stroke="#8E97CD" stroke-width="2" stroke-linecap="round" stroke-linejoin="round"/>
</g>
<path d="M317 318.333V321M310.333 312.372C310.962 312.333 311.737 312.333 312.733 312.333H321.267C322.263 312.333 323.038 312.333 323.667 312.372M310.333 312.372C309.549 312.42 308.993 312.527 308.518 312.769C307.765 313.153 307.153 313.765 306.769 314.517C306.333 315.373 306.333 316.493 306.333 318.733V320.6C306.333 322.84 306.333 323.96 306.769 324.816C307.153 325.569 307.765 326.181 308.518 326.564C309.373 327 310.493 327 312.733 327H321.267C323.507 327 324.627 327 325.483 326.564C326.235 326.181 326.847 325.569 327.231 324.816C327.667 323.96 327.667 322.84 327.667 320.6V318.733C327.667 316.493 327.667 315.373 327.231 314.517C326.847 313.765 326.235 313.153 325.483 312.769C325.008 312.527 324.451 312.42 323.667 312.372M310.333 312.372V309.667C310.333 305.985 313.318 303 317 303C320.682 303 323.667 305.985 323.667 309.667V312.372" stroke="#8E97CD" stroke-width="2" stroke-linecap="round" stroke-linejoin="round"/>
</g>
<defs>
<filter id="filter0_f_650_5917" x="101" y="120" width="596.836" height="430" filterUnits="userSpaceOnUse" color-interpolation-filters="sRGB">
<feFlood flood-opacity="0" result="BackgroundImageFix"/>
<feBlend mode="normal" in="SourceGraphic" in2="BackgroundImageFix" result="shape"/>
<feGaussianBlur stdDeviation="67" result="effect1_foregroundBlur_650_5917"/>
</filter>
<filter id="filter1_f_650_5917" x="-25" y="-30" width="331.313" height="373.475" filterUnits="userSpaceOnUse" color-interpolation-filters="sRGB">
<feFlood flood-opacity="0" result="BackgroundImageFix"/>
<feBlend mode="normal" in="SourceGraphic" in2="BackgroundImageFix" result="shape"/>
<feGaussianBlur stdDeviation="52" result="effect1_foregroundBlur_650_5917"/>
</filter>
<filter id="filter2_d_650_5917" x="103.822" y="207.902" width="29.6611" height="99.4023" filterUnits="userSpaceOnUse" color-interpolation-filters="sRGB">
<feFlood flood-opacity="0" result="BackgroundImageFix"/>
<feColorMatrix in="SourceAlpha" type="matrix" values="0 0 0 0 0 0 0 0 0 0 0 0 0 0 0 0 0 0 127 0" result="hardAlpha"/>
<feOffset dy="8"/>
<feGaussianBlur stdDeviation="6"/>
<feComposite in2="hardAlpha" operator="out"/>
<feColorMatrix type="matrix" values="0 0 0 0 0.13 0 0 0 0 0.65 0 0 0 0 0.638444 0 0 0 0.7 0"/>
<feBlend mode="normal" in2="BackgroundImageFix" result="effect1_dropShadow_650_5917"/>
<feBlend mode="normal" in="SourceGraphic" in2="effect1_dropShadow_650_5917" result="shape"/>
</filter>
<filter id="filter3_d_650_5917" x="138.813" y="249.098" width="29.6611" height="99.4023" filterUnits="userSpaceOnUse" color-interpolation-filters="sRGB">
<feFlood flood-opacity="0" result="BackgroundImageFix"/>
<feColorMatrix in="SourceAlpha" type="matrix" values="0 0 0 0 0 0 0 0 0 0 0 0 0 0 0 0 0 0 127 0" result="hardAlpha"/>
<feOffset dy="4"/>
<feGaussianBlur stdDeviation="6"/>
<feComposite in2="hardAlpha" operator="out"/>
<feColorMatrix type="matrix" values="0 0 0 0 0.952941 0 0 0 0 0.427451 0 0 0 0 0.27451 0 0 0 0.8 0"/>
<feBlend mode="normal" in2="BackgroundImageFix" result="effect1_dropShadow_650_5917"/>
<feBlend mode="normal" in="SourceGraphic" in2="effect1_dropShadow_650_5917" result="shape"/>
</filter>
<filter id="filter4_d_650_5917" x="172.345" y="198.07" width="29.6602" height="99.3906" filterUnits="userSpaceOnUse" color-interpolation-filters="sRGB">
<feFlood flood-opacity="0" result="BackgroundImageFix"/>
<feColorMatrix in="SourceAlpha" type="matrix" values="0 0 0 0 0 0 0 0 0 0 0 0 0 0 0 0 0 0 127 0" result="hardAlpha"/>
<feOffset dy="4"/>
<feGaussianBlur stdDeviation="6"/>
<feComposite in2="hardAlpha" operator="out"/>
<feColorMatrix type="matrix" values="0 0 0 0 0.305882 0 0 0 0 0.835294 0 0 0 0 0.823529 0 0 0 0.8 0"/>
<feBlend mode="normal" in2="BackgroundImageFix" result="effect1_dropShadow_650_5917"/>
<feBlend mode="normal" in="SourceGraphic" in2="effect1_dropShadow_650_5917" result="shape"/>
</filter>
<filter id="filter5_d_650_5917" x="205.877" y="202.443" width="29.6602" height="99.3906" filterUnits="userSpaceOnUse" color-interpolation-filters="sRGB">
<feFlood flood-opacity="0" result="BackgroundImageFix"/>
<feColorMatrix in="SourceAlpha" type="matrix" values="0 0 0 0 0 0 0 0 0 0 0 0 0 0 0 0 0 0 127 0" result="hardAlpha"/>
<feOffset dy="4"/>
<feGaussianBlur stdDeviation="6"/>
<feComposite in2="hardAlpha" operator="out"/>
<feColorMatrix type="matrix" values="0 0 0 0 0.952941 0 0 0 0 0.427451 0 0 0 0 0.27451 0 0 0 0.8 0"/>
<feBlend mode="normal" in2="BackgroundImageFix" result="effect1_dropShadow_650_5917"/>
<feBlend mode="normal" in="SourceGraphic" in2="effect1_dropShadow_650_5917" result="shape"/>
</filter>
<filter id="filter6_d_650_5917" x="239.41" y="192.738" width="29.6602" height="98.8926" filterUnits="userSpaceOnUse" color-interpolation-filters="sRGB">
<feFlood flood-opacity="0" result="BackgroundImageFix"/>
<feColorMatrix in="SourceAlpha" type="matrix" values="0 0 0 0 0 0 0 0 0 0 0 0 0 0 0 0 0 0 127 0" result="hardAlpha"/>
<feOffset dy="4"/>
<feGaussianBlur stdDeviation="6"/>
<feComposite in2="hardAlpha" operator="out"/>
<feColorMatrix type="matrix" values="0 0 0 0 0.305882 0 0 0 0 0.835294 0 0 0 0 0.823529 0 0 0 0.8 0"/>
<feBlend mode="normal" in2="BackgroundImageFix" result="effect1_dropShadow_650_5917"/>
<feBlend mode="normal" in="SourceGraphic" in2="effect1_dropShadow_650_5917" result="shape"/>
</filter>
<filter id="filter7_d_650_5917" x="272.942" y="235.018" width="29.6602" height="98.8926" filterUnits="userSpaceOnUse" color-interpolation-filters="sRGB">
<feFlood flood-opacity="0" result="BackgroundImageFix"/>
<feColorMatrix in="SourceAlpha" type="matrix" values="0 0 0 0 0 0 0 0 0 0 0 0 0 0 0 0 0 0 127 0" result="hardAlpha"/>
<feOffset dy="4"/>
<feGaussianBlur stdDeviation="6"/>
<feComposite in2="hardAlpha" operator="out"/>
<feColorMatrix type="matrix" values="0 0 0 0 0.952941 0 0 0 0 0.427451 0 0 0 0 0.27451 0 0 0 0.8 0"/>
<feBlend mode="normal" in2="BackgroundImageFix" result="effect1_dropShadow_650_5917"/>
<feBlend mode="normal" in="SourceGraphic" in2="effect1_dropShadow_650_5917" result="shape"/>
</filter>
<filter id="filter8_d_650_5917" x="306.475" y="188.363" width="29.6602" height="98.8926" filterUnits="userSpaceOnUse" color-interpolation-filters="sRGB">
<feFlood flood-opacity="0" result="BackgroundImageFix"/>
<feColorMatrix in="SourceAlpha" type="matrix" values="0 0 0 0 0 0 0 0 0 0 0 0 0 0 0 0 0 0 127 0" result="hardAlpha"/>
<feOffset dy="4"/>
<feGaussianBlur stdDeviation="6"/>
<feComposite in2="hardAlpha" operator="out"/>
<feColorMatrix type="matrix" values="0 0 0 0 0.305882 0 0 0 0 0.835294 0 0 0 0 0.823529 0 0 0 0.8 0"/>
<feBlend mode="normal" in2="BackgroundImageFix" result="effect1_dropShadow_650_5917"/>
<feBlend mode="normal" in="SourceGraphic" in2="effect1_dropShadow_650_5917" result="shape"/>
</filter>
<filter id="filter9_d_650_5917" x="338.549" y="148.5" width="29.6602" height="115.506" filterUnits="userSpaceOnUse" color-interpolation-filters="sRGB">
<feFlood flood-opacity="0" result="BackgroundImageFix"/>
<feColorMatrix in="SourceAlpha" type="matrix" values="0 0 0 0 0 0 0 0 0 0 0 0 0 0 0 0 0 0 127 0" result="hardAlpha"/>
<feOffset dy="4"/>
<feGaussianBlur stdDeviation="6"/>
<feComposite in2="hardAlpha" operator="out"/>
<feColorMatrix type="matrix" values="0 0 0 0 0.305882 0 0 0 0 0.835294 0 0 0 0 0.823529 0 0 0 0.8 0"/>
<feBlend mode="normal" in2="BackgroundImageFix" result="effect1_dropShadow_650_5917"/>
<feBlend mode="normal" in="SourceGraphic" in2="effect1_dropShadow_650_5917" result="shape"/>
</filter>
<filter id="filter10_d_650_5917" x="373.711" y="189.322" width="29.6602" height="99.3906" filterUnits="userSpaceOnUse" color-interpolation-filters="sRGB">
<feFlood flood-opacity="0" result="BackgroundImageFix"/>
<feColorMatrix in="SourceAlpha" type="matrix" values="0 0 0 0 0 0 0 0 0 0 0 0 0 0 0 0 0 0 127 0" result="hardAlpha"/>
<feOffset dy="4"/>
<feGaussianBlur stdDeviation="6"/>
<feComposite in2="hardAlpha" operator="out"/>
<feColorMatrix type="matrix" values="0 0 0 0 0.305882 0 0 0 0 0.835294 0 0 0 0 0.823529 0 0 0 0.8 0"/>
<feBlend mode="normal" in2="BackgroundImageFix" result="effect1_dropShadow_650_5917"/>
<feBlend mode="normal" in="SourceGraphic" in2="effect1_dropShadow_650_5917" result="shape"/>
</filter>
<filter id="filter11_f_650_5917" x="115" y="140" width="40" height="40" filterUnits="userSpaceOnUse" color-interpolation-filters="sRGB">
<feFlood flood-opacity="0" result="BackgroundImageFix"/>
<feBlend mode="normal" in="SourceGraphic" in2="BackgroundImageFix" result="shape"/>
<feGaussianBlur stdDeviation="2" result="effect1_foregroundBlur_650_5917"/>
</filter>
<filter id="filter12_f_650_5917" x="204" y="334" width="40" height="40" filterUnits="userSpaceOnUse" color-interpolation-filters="sRGB">
<feFlood flood-opacity="0" result="BackgroundImageFix"/>
<feBlend mode="normal" in="SourceGraphic" in2="BackgroundImageFix" result="shape"/>
<feGaussianBlur stdDeviation="2" result="effect1_foregroundBlur_650_5917"/>
</filter>
<filter id="filter13_f_650_5917" x="110" y="313" width="40" height="40" filterUnits="userSpaceOnUse" color-interpolation-filters="sRGB">
<feFlood flood-opacity="0" result="BackgroundImageFix"/>
<feBlend mode="normal" in="SourceGraphic" in2="BackgroundImageFix" result="shape"/>
<feGaussianBlur stdDeviation="2" result="effect1_foregroundBlur_650_5917"/>
</filter>
<filter id="filter14_f_650_5917" x="290" y="124" width="40" height="40" filterUnits="userSpaceOnUse" color-interpolation-filters="sRGB">
<feFlood flood-opacity="0" result="BackgroundImageFix"/>
<feBlend mode="normal" in="SourceGraphic" in2="BackgroundImageFix" result="shape"/>
<feGaussianBlur stdDeviation="2" result="effect1_foregroundBlur_650_5917"/>
</filter>
<filter id="filter15_f_650_5917" x="298" y="296" width="40" height="40" filterUnits="userSpaceOnUse" color-interpolation-filters="sRGB">
<feFlood flood-opacity="0" result="BackgroundImageFix"/>
<feBlend mode="normal" in="SourceGraphic" in2="BackgroundImageFix" result="shape"/>
<feGaussianBlur stdDeviation="2" result="effect1_foregroundBlur_650_5917"/>
</filter>
<linearGradient id="paint0_linear_650_5917" x1="72.3748" y1="181.785" x2="436.541" y2="181.785" gradientUnits="userSpaceOnUse">
<stop stop-color="#E0E2EB" stop-opacity="0"/>
<stop offset="0.453125" stop-color="#E0E2EB"/>
<stop offset="1" stop-color="#E0E2EB" stop-opacity="0"/>
</linearGradient>
<linearGradient id="paint1_linear_650_5917" x1="72.3748" y1="208.027" x2="436.541" y2="208.027" gradientUnits="userSpaceOnUse">
<stop stop-color="#E0E2EB" stop-opacity="0"/>
<stop offset="0.453125" stop-color="#E0E2EB"/>
<stop offset="1" stop-color="#E0E2EB" stop-opacity="0"/>
</linearGradient>
<linearGradient id="paint2_linear_650_5917" x1="72.3748" y1="234.271" x2="436.541" y2="234.272" gradientUnits="userSpaceOnUse">
<stop stop-color="#E0E2EB" stop-opacity="0"/>
<stop offset="0.453125" stop-color="#E0E2EB"/>
<stop offset="1" stop-color="#E0E2EB" stop-opacity="0"/>
</linearGradient>
<linearGradient id="paint3_linear_650_5917" x1="72.3748" y1="259.057" x2="436.541" y2="259.057" gradientUnits="userSpaceOnUse">
<stop stop-color="#E0E2EB" stop-opacity="0"/>
<stop offset="0.453125" stop-color="#E0E2EB"/>
<stop offset="1" stop-color="#E0E2EB" stop-opacity="0"/>
</linearGradient>
<linearGradient id="paint4_linear_650_5917" x1="72.3748" y1="285.299" x2="436.541" y2="285.299" gradientUnits="userSpaceOnUse">
<stop stop-color="#E0E2EB" stop-opacity="0"/>
<stop offset="0.453125" stop-color="#E0E2EB"/>
<stop offset="1" stop-color="#E0E2EB" stop-opacity="0"/>
</linearGradient>
<linearGradient id="paint5_linear_650_5917" x1="72.3748" y1="311.543" x2="436.541" y2="311.543" gradientUnits="userSpaceOnUse">
<stop stop-color="#E0E2EB" stop-opacity="0"/>
<stop offset="0.453125" stop-color="#E0E2EB"/>
<stop offset="1" stop-color="#E0E2EB" stop-opacity="0"/>
</linearGradient>
<linearGradient id="paint6_linear_650_5917" x1="152.271" y1="324.318" x2="152.271" y2="169.826" gradientUnits="userSpaceOnUse">
<stop stop-color="#E0E2EB" stop-opacity="0"/>
<stop offset="0.453125" stop-color="#E0E2EB"/>
<stop offset="1" stop-color="#E0E2EB" stop-opacity="0"/>
</linearGradient>
<linearGradient id="paint7_linear_650_5917" x1="219.335" y1="324.318" x2="219.335" y2="169.826" gradientUnits="userSpaceOnUse">
<stop stop-color="#E0E2EB" stop-opacity="0"/>
<stop offset="0.453125" stop-color="#E0E2EB"/>
<stop offset="1" stop-color="#E0E2EB" stop-opacity="0"/>
</linearGradient>
<linearGradient id="paint8_linear_650_5917" x1="286.4" y1="324.318" x2="286.4" y2="169.826" gradientUnits="userSpaceOnUse">
<stop stop-color="#E0E2EB" stop-opacity="0"/>
<stop offset="0.453125" stop-color="#E0E2EB"/>
<stop offset="1" stop-color="#E0E2EB" stop-opacity="0"/>
</linearGradient>
<linearGradient id="paint9_linear_650_5917" x1="353.465" y1="324.318" x2="353.465" y2="169.826" gradientUnits="userSpaceOnUse">
<stop stop-color="#E0E2EB" stop-opacity="0"/>
<stop offset="0.453125" stop-color="#E0E2EB"/>
<stop offset="1" stop-color="#E0E2EB" stop-opacity="0"/>
</linearGradient>
<linearGradient id="paint10_linear_650_5917" x1="216.198" y1="108.71" x2="216.198" y2="161.406" gradientUnits="userSpaceOnUse">
<stop offset="0.0874372" stop-color="#ACACAC" stop-opacity="0"/>
<stop offset="0.536458" stop-color="white"/>
<stop offset="1" stop-color="#ACACAC" stop-opacity="0"/>
</linearGradient>
<linearGradient id="paint11_linear_650_5917" x1="216.198" y1="102.167" x2="216.198" y2="167.067" gradientUnits="userSpaceOnUse">
<stop offset="0.0874372" stop-color="#ACACAC" stop-opacity="0"/>
<stop offset="0.536458" stop-color="white"/>
<stop offset="1" stop-color="#ACACAC" stop-opacity="0"/>
</linearGradient>
<linearGradient id="paint12_linear_650_5917" x1="216.196" y1="119.275" x2="216.196" y2="154.639" gradientUnits="userSpaceOnUse">
<stop stop-color="#ACACAC"/>
<stop offset="0.479167" stop-color="white"/>
<stop offset="1" stop-color="#ACACAC"/>
</linearGradient>
</defs>
</svg>
