<svg width="312" height="516" viewBox="0 0 312 516" fill="none" xmlns="http://www.w3.org/2000/svg">
<mask id="mask0_650_6153" style="mask-type:alpha" maskUnits="userSpaceOnUse" x="0" y="0" width="312" height="516">
<rect x="1" y="1" width="310" height="514" rx="11" fill="#312F69" stroke="#50AF95" stroke-width="2"/>
</mask>
<g mask="url(#mask0_650_6153)">
<path opacity="0.5" d="M129.334 130.211C129.334 130.211 51.8346 198.105 48.0188 255.999C44.0715 313.893 118.676 312.972 157.36 297.315C196.175 281.657 129.334 130.211 129.334 130.211Z" fill="url(#paint0_linear_650_6153)"/>
<path opacity="0.5" d="M109.71 204.422C109.71 204.422 53.7891 315.605 13 309.026C14.4557 338.844 99.6949 353.668 99.8405 362.315C99.9861 371.111 180.273 404.813 237.334 395.867C261.018 371.526 193.261 367.578 237.334 255.761C238.208 223.856 109.71 204.422 109.71 204.422Z" fill="url(#paint1_linear_650_6153)"/>
<path d="M194.728 169.29C182.228 165.08 109.729 204.158 109.729 204.158C126.834 253.237 144.992 259.684 144.992 259.684L177.097 270.736C177.097 270.736 218.938 274.947 236.438 249.552C236.438 249.684 205.781 173.237 194.728 169.29Z" fill="url(#paint2_linear_650_6153)"/>
<path d="M123.545 191.528L129.334 130.213C129.729 126.134 133.413 123.107 137.624 123.634L202.755 131.66C206.833 132.186 209.728 135.87 209.202 139.949L201.834 200.08C201.307 204.159 197.755 206.922 193.676 206.528L129.992 199.554C126.045 199.159 123.15 195.475 123.545 191.528Z" fill="url(#paint3_linear_650_6153)"/>
<path d="M204.202 141.265L197.36 197.58C197.097 200.212 194.597 202.054 191.965 201.791L132.755 195.212C130.124 194.949 128.282 192.581 128.413 189.949L129.598 177.186L133.808 132.713C134.071 129.95 136.571 127.976 139.203 128.371L199.86 135.739C202.623 136.134 204.597 138.634 204.202 141.265Z" fill="url(#paint4_linear_650_6153)"/>
<g opacity="0.3">
<rect x="140.865" y="150.002" width="16" height="17" transform="rotate(6.29822 140.865 150.002)" fill="#312F69"/>
<rect x="158.757" y="151.977" width="16" height="2" transform="rotate(6.29822 158.757 151.977)" fill="#312F69"/>
<rect x="158.427" y="154.959" width="16" height="2" transform="rotate(6.29822 158.427 154.959)" fill="#312F69"/>
<rect x="158.098" y="157.939" width="16" height="2" transform="rotate(6.29822 158.098 157.939)" fill="#312F69"/>
<rect x="157.769" y="160.922" width="16" height="2" transform="rotate(6.29822 157.769 160.922)" fill="#312F69"/>
<rect x="157.44" y="163.904" width="16" height="2" transform="rotate(6.29822 157.44 163.904)" fill="#312F69"/>
<rect x="157.111" y="166.887" width="16" height="2" transform="rotate(6.29822 157.111 166.887)" fill="#312F69"/>
<rect x="176.648" y="153.951" width="16" height="2" transform="rotate(6.29822 176.648 153.951)" fill="#312F69"/>
<rect x="176.319" y="156.934" width="16" height="2" transform="rotate(6.29822 176.319 156.934)" fill="#312F69"/>
<rect x="175.99" y="159.916" width="16" height="2" transform="rotate(6.29822 175.99 159.916)" fill="#312F69"/>
<rect x="175.661" y="162.896" width="16" height="2" transform="rotate(6.29822 175.661 162.896)" fill="#312F69"/>
<rect x="175.332" y="165.879" width="16" height="2" transform="rotate(6.29822 175.332 165.879)" fill="#312F69"/>
<rect x="175.002" y="168.861" width="16" height="2" transform="rotate(6.29822 175.002 168.861)" fill="#312F69"/>
</g>
<g opacity="0.3">
<rect x="138.865" y="170.002" width="16" height="17" transform="rotate(6.29822 138.865 170.002)" fill="#312F69"/>
<rect x="156.757" y="171.977" width="16" height="2" transform="rotate(6.29822 156.757 171.977)" fill="#312F69"/>
<rect x="156.427" y="174.959" width="16" height="2" transform="rotate(6.29822 156.427 174.959)" fill="#312F69"/>
<rect x="156.098" y="177.939" width="16" height="2" transform="rotate(6.29822 156.098 177.939)" fill="#312F69"/>
<rect x="155.769" y="180.922" width="16" height="2" transform="rotate(6.29822 155.769 180.922)" fill="#312F69"/>
<rect x="155.44" y="183.904" width="16" height="2" transform="rotate(6.29822 155.44 183.904)" fill="#312F69"/>
<rect x="155.111" y="186.887" width="16" height="2" transform="rotate(6.29822 155.111 186.887)" fill="#312F69"/>
<rect x="174.648" y="173.951" width="16" height="2" transform="rotate(6.29822 174.648 173.951)" fill="#312F69"/>
<rect x="174.319" y="176.934" width="16" height="2" transform="rotate(6.29822 174.319 176.934)" fill="#312F69"/>
<rect x="173.99" y="179.916" width="16" height="2" transform="rotate(6.29822 173.99 179.916)" fill="#312F69"/>
<rect x="173.661" y="182.896" width="16" height="2" transform="rotate(6.29822 173.661 182.896)" fill="#312F69"/>
<rect x="173.332" y="185.879" width="16" height="2" transform="rotate(6.29822 173.332 185.879)" fill="#312F69"/>
<rect x="173.002" y="188.861" width="16" height="2" transform="rotate(6.29822 173.002 188.861)" fill="#312F69"/>
</g>
<path d="M131.965 212.975C131.965 212.975 110.518 197.054 114.465 164.291C114.465 164.291 139.465 171.265 141.702 211.001C141.702 211.001 139.07 215.869 138.018 216.396C137.228 216.922 131.965 212.975 131.965 212.975Z" fill="url(#paint5_linear_650_6153)"/>
<path d="M120.518 247.579L141.966 179.816C143.413 175.211 148.413 172.711 152.887 174.29L224.596 199.027C229.07 200.606 231.438 205.474 229.86 209.948L206.965 276.263C205.386 280.737 200.649 283.105 196.176 281.526L125.913 258.368C121.44 256.789 119.071 252.053 120.518 247.579Z" fill="url(#paint6_linear_650_6153)"/>
<path d="M223.807 210.343L202.36 272.316C201.307 275.211 198.15 276.789 195.255 275.737L129.992 254.027C127.098 253.105 125.519 249.948 126.44 247.053L130.913 232.843L146.439 183.632C147.361 180.606 150.65 179.027 153.545 180.08L220.255 203.238C223.149 204.29 224.728 207.448 223.807 210.343Z" fill="url(#paint7_linear_650_6153)"/>
<path d="M236.439 249.685C236.439 249.685 221.702 288.501 207.097 312.579C207.097 312.579 146.966 295.606 93.8086 275.211C93.8086 275.211 97.7559 235.738 109.729 204.291C109.729 204.291 123.282 246.264 160.913 259.554C201.176 273.632 236.439 249.685 236.439 249.685Z" fill="url(#paint8_linear_650_6153)"/>
<path d="M283.938 168.631L280.912 174.815C280.912 174.815 253.675 187.052 234.86 202.183L219.728 183.894L218.807 175.078L283.938 168.631Z" fill="url(#paint9_radial_650_6153)"/>
<path d="M218.938 175.078C218.938 175.078 242.491 153.368 264.859 142.842L283.938 168.763C283.938 168.763 252.886 181.526 235.386 195.078L218.938 175.078Z" fill="url(#paint10_radial_650_6153)"/>
<path d="M234.991 202.052L235.386 194.946C235.386 194.946 262.228 174.815 283.938 168.631L280.912 174.815C280.912 174.815 254.859 186.131 234.991 202.052Z" fill="#6E4298"/>
<path d="M223.544 86.002C218.807 98.2387 216.307 105.87 214.597 118.238L246.702 129.291C252.754 119.686 256.175 111.66 259.596 98.3703C246.833 92.7124 238.149 89.6861 223.544 86.002Z" fill="url(#paint11_linear_650_6153)"/>
<g clip-path="url(#clip0_650_6153)">
<path d="M243.629 121.74L222.375 115.364C220.545 114.814 219.503 112.879 220.052 111.049L224.723 95.4808C225.272 93.6506 227.207 92.6087 229.037 93.1578L250.291 99.5343C252.121 100.083 253.163 102.018 252.614 103.849L247.951 119.393C247.394 121.247 245.459 122.289 243.629 121.74Z" fill="white"/>
<path d="M224.698 95.473C225.247 93.6428 227.182 92.6009 229.013 93.1499L250.267 99.5265C252.097 100.076 253.139 102.011 252.59 103.841L224.698 95.473Z" fill="url(#paint12_linear_650_6153)"/>
<path d="M230.271 102.519L227.611 101.721C227.392 101.655 227.255 101.401 227.321 101.182L227.804 99.5711C227.87 99.3515 228.124 99.2148 228.344 99.2807L231.003 100.079C231.223 100.145 231.36 100.398 231.294 100.618L230.811 102.229C230.745 102.448 230.491 102.585 230.271 102.519Z" fill="#CFDEFF"/>
<path d="M234.395 103.755L231.735 102.957C231.516 102.891 231.379 102.638 231.445 102.418L231.928 100.807C231.994 100.588 232.248 100.451 232.468 100.517L235.127 101.315C235.347 101.381 235.484 101.635 235.418 101.854L234.935 103.465C234.869 103.684 234.615 103.821 234.395 103.755Z" fill="#CFDEFF"/>
<path d="M238.519 104.993L235.86 104.196C235.64 104.13 235.503 103.876 235.569 103.656L236.052 102.046C236.118 101.826 236.372 101.689 236.592 101.755L239.251 102.553C239.471 102.619 239.608 102.873 239.542 103.093L239.059 104.703C238.993 104.923 238.739 105.059 238.519 104.993Z" fill="#CFDEFF"/>
<path d="M242.643 106.231L239.959 105.426C239.739 105.36 239.602 105.106 239.668 104.887L240.151 103.276C240.217 103.057 240.471 102.92 240.691 102.986L243.351 103.784C243.57 103.85 243.707 104.103 243.641 104.323L243.158 105.934C243.092 106.153 242.862 106.297 242.643 106.231Z" fill="#CFDEFF"/>
<path d="M246.742 107.46L244.083 106.662C243.863 106.596 243.726 106.343 243.792 106.123L244.275 104.512C244.341 104.293 244.595 104.156 244.815 104.222L247.475 105.02C247.694 105.086 247.831 105.34 247.765 105.559L247.282 107.17C247.216 107.39 246.986 107.533 246.742 107.46Z" fill="#CFDEFF"/>
<path d="M229.254 105.911L226.594 105.113C226.374 105.048 226.238 104.794 226.303 104.574L226.787 102.964C226.853 102.744 227.106 102.607 227.326 102.673L229.986 103.471C230.205 103.537 230.342 103.791 230.276 104.011L229.793 105.621C229.72 105.865 229.473 105.977 229.254 105.911Z" fill="#CFDEFF"/>
<path d="M233.378 107.148L230.718 106.35C230.498 106.284 230.362 106.03 230.428 105.811L230.911 104.2C230.977 103.98 231.23 103.844 231.45 103.91L234.11 104.708C234.329 104.773 234.466 105.027 234.4 105.247L233.917 106.857C233.844 107.101 233.597 107.214 233.378 107.148Z" fill="url(#paint13_linear_650_6153)"/>
<path d="M237.502 108.386L234.842 107.588C234.622 107.522 234.486 107.268 234.552 107.049L235.035 105.438C235.101 105.219 235.354 105.082 235.574 105.148L238.234 105.946C238.453 106.012 238.59 106.266 238.524 106.485L238.041 108.096C237.968 108.34 237.721 108.452 237.502 108.386Z" fill="#CFDEFF"/>
<path d="M241.625 109.624L238.941 108.819C238.721 108.753 238.585 108.499 238.651 108.279L239.134 106.669C239.2 106.449 239.454 106.312 239.673 106.378L242.333 107.176C242.553 107.242 242.689 107.496 242.623 107.716L242.14 109.326C242.067 109.57 241.845 109.69 241.625 109.624Z" fill="#CFDEFF"/>
<path d="M245.725 110.853L243.065 110.055C242.845 109.989 242.709 109.735 242.775 109.516L243.258 107.905C243.324 107.685 243.578 107.549 243.797 107.615L246.457 108.413C246.677 108.479 246.813 108.732 246.747 108.952L246.264 110.562C246.191 110.807 245.969 110.926 245.725 110.853Z" fill="#CFDEFF"/>
<path d="M228.229 109.327L225.569 108.529C225.349 108.464 225.213 108.21 225.279 107.99L225.762 106.38C225.828 106.16 226.081 106.023 226.301 106.089L228.961 106.887C229.18 106.953 229.317 107.207 229.251 107.427L228.768 109.037C228.695 109.281 228.448 109.393 228.229 109.327Z" fill="#CFDEFF"/>
<path d="M232.353 110.564L229.693 109.766C229.473 109.7 229.337 109.446 229.403 109.227L229.886 107.616C229.952 107.396 230.205 107.26 230.425 107.326L233.085 108.124C233.305 108.189 233.441 108.443 233.375 108.663L232.892 110.273C232.819 110.517 232.572 110.63 232.353 110.564Z" fill="#CFDEFF"/>
<path d="M236.477 111.802L233.817 111.004C233.597 110.938 233.461 110.684 233.527 110.465L234.01 108.854C234.076 108.635 234.329 108.498 234.549 108.564L237.209 109.362C237.429 109.428 237.565 109.682 237.499 109.901L237.016 111.512C236.943 111.756 236.696 111.868 236.477 111.802Z" fill="#CFDEFF"/>
<path d="M240.6 113.04L237.916 112.235C237.697 112.169 237.56 111.915 237.626 111.695L238.109 110.085C238.175 109.865 238.429 109.728 238.648 109.794L241.308 110.592C241.528 110.658 241.664 110.912 241.598 111.132L241.115 112.742C241.042 112.986 240.82 113.106 240.6 113.04Z" fill="url(#paint14_linear_650_6153)"/>
<path d="M244.7 114.269L242.04 113.471C241.821 113.405 241.684 113.151 241.75 112.932L242.233 111.321C242.299 111.101 242.553 110.965 242.772 111.031L245.432 111.829C245.652 111.895 245.788 112.148 245.722 112.368L245.239 113.979C245.166 114.223 244.944 114.342 244.7 114.269Z" fill="#CFDEFF"/>
<path d="M227.204 112.743L224.544 111.946C224.324 111.88 224.188 111.626 224.254 111.406L224.737 109.796C224.803 109.576 225.057 109.439 225.276 109.505L227.936 110.303C228.156 110.369 228.292 110.623 228.226 110.843L227.743 112.453C227.677 112.673 227.424 112.809 227.204 112.743Z" fill="#CFDEFF"/>
<path d="M231.328 113.98L228.668 113.182C228.448 113.116 228.312 112.862 228.378 112.643L228.861 111.032C228.927 110.812 229.181 110.676 229.4 110.742L232.06 111.54C232.28 111.606 232.416 111.859 232.35 112.079L231.867 113.689C231.801 113.909 231.548 114.046 231.328 113.98Z" fill="#CFDEFF"/>
<path d="M235.452 115.218L232.792 114.42C232.572 114.354 232.436 114.1 232.502 113.881L232.985 112.27C233.051 112.051 233.305 111.914 233.524 111.98L236.184 112.778C236.404 112.844 236.54 113.098 236.474 113.317L235.991 114.928C235.925 115.147 235.672 115.284 235.452 115.218Z" fill="#CFDEFF"/>
<path d="M239.575 116.456L236.891 115.651C236.672 115.585 236.535 115.331 236.601 115.111L237.084 113.501C237.15 113.281 237.404 113.145 237.623 113.21L240.283 114.008C240.503 114.074 240.639 114.328 240.574 114.548L240.09 116.158C240.024 116.378 239.795 116.522 239.575 116.456Z" fill="#CFDEFF"/>
<path d="M243.675 117.685L241.015 116.887C240.796 116.821 240.659 116.567 240.725 116.348L241.208 114.737C241.274 114.517 241.528 114.381 241.747 114.447L244.407 115.245C244.627 115.311 244.763 115.564 244.698 115.784L244.214 117.395C244.148 117.614 243.919 117.758 243.675 117.685Z" fill="#CFDEFF"/>
<path d="M246.132 100.628C245.669 100.489 245.413 100.013 245.552 99.5491L246.342 96.9137C246.481 96.45 246.957 96.1938 247.421 96.3329C247.885 96.472 248.141 96.9478 248.002 97.4115L247.211 100.047C247.072 100.511 246.596 100.767 246.132 100.628Z" fill="#CFDEFF"/>
<path d="M232.516 96.5417C232.053 96.4026 231.796 95.9268 231.936 95.4631L232.726 92.8277C232.865 92.3641 233.341 92.1079 233.805 92.247C234.268 92.3861 234.525 92.8619 234.386 93.3255L233.595 95.9609C233.456 96.4246 232.98 96.6808 232.516 96.5417Z" fill="#CFDEFF"/>
<path d="M237.946 104.688L236.921 102.784C236.767 102.499 236.862 102.182 237.148 102.028L238.172 103.931C238.326 104.217 238.224 104.558 237.946 104.688Z" fill="#42445D"/>
<path d="M236.225 103.773L238.129 102.748C238.414 102.595 238.731 102.69 238.885 102.975L236.982 104C236.703 104.13 236.362 104.027 236.225 103.773Z" fill="#42445D"/>
<path d="M227.648 109.045L226.623 107.142C226.469 106.856 226.564 106.539 226.85 106.385L227.875 108.289C228.036 108.55 227.933 108.891 227.648 109.045Z" fill="#42445D"/>
<path d="M225.935 108.105L227.838 107.081C228.124 106.927 228.441 107.022 228.595 107.307L226.691 108.332C226.406 108.486 226.088 108.391 225.935 108.105Z" fill="#42445D"/>
<path d="M243.126 117.387L242.101 115.484C241.948 115.198 242.043 114.881 242.328 114.727L243.353 116.631C243.482 116.909 243.38 117.25 243.126 117.387Z" fill="#42445D"/>
<path d="M241.406 116.473L243.309 115.448C243.595 115.294 243.912 115.389 244.066 115.675L242.162 116.7C241.884 116.829 241.543 116.726 241.406 116.473Z" fill="#42445D"/>
</g>
<path d="M214.728 118.238L217.359 121.133L244.333 130.475L246.701 129.422L214.728 118.238Z" fill="url(#paint15_linear_650_6153)"/>
<path d="M117.097 104.027C118.412 117.053 119.728 125.079 123.676 136.79L157.359 132.184C158.412 120.869 157.886 112.185 154.991 98.7637C140.912 99.5531 131.833 100.737 117.097 104.027Z" fill="url(#paint16_linear_650_6153)"/>
<path d="M123.807 136.791L127.491 138.238L155.648 134.291L157.359 132.186L123.807 136.791Z" fill="url(#paint17_linear_650_6153)"/>
<path d="M234.596 219.816C234.596 219.816 247.49 198.764 272.885 207.448C272.885 207.448 263.674 229.421 237.359 221.527L234.596 219.816Z" fill="url(#paint18_radial_650_6153)"/>
<path d="M233.018 238.896L242.228 230.738L244.333 234.422L236.307 240.08L233.018 238.896Z" fill="#9A7DF8"/>
<path d="M114.86 151.659L117.755 148.238L112.229 140.344L106.834 142.054L114.86 151.659Z" fill="#4F31E0"/>
<path d="M213.938 149.816L221.438 147.316L223.281 150.737L213.938 151.922V149.816Z" fill="#FF1D9C"/>
<path d="M276.437 126L294.595 123.105L293.937 130.079H276.306L276.437 126Z" fill="#6877FF"/>
<path opacity="0.5" d="M128.019 144.029L150.255 140.74L150.518 135.082L128.676 137.977L128.019 144.029Z" fill="#B975B6"/>
<path d="M132.366 115.309C131.197 115.14 130.076 114.972 128.954 114.813C128.645 114.767 128.355 114.71 128.253 114.365C128.159 114.047 128.365 113.832 128.58 113.645C130.805 111.579 133.413 110.373 136.451 110.176C136.844 110.148 137.152 110.036 137.442 109.746C140.387 106.727 143.939 104.857 148.09 104.147C148.81 104.025 149.539 103.988 150.278 104.007C150.838 104.025 150.988 104.165 150.997 104.736C151.044 107.082 150.455 109.298 149.52 111.429C148.492 113.766 147.062 115.832 145.211 117.59C144.94 117.852 144.846 118.151 144.818 118.497C144.631 121.507 143.453 124.096 141.434 126.312C141.378 126.368 141.331 126.424 141.266 126.48C141.079 126.658 140.873 126.798 140.593 126.704C140.303 126.602 140.209 126.368 140.172 126.087C140.013 124.947 139.845 123.816 139.676 122.666C139.602 122.675 139.555 122.675 139.518 122.694C138.751 123.236 138.751 123.236 138.087 122.572C136.246 120.721 134.385 118.852 132.525 116.991C131.777 116.244 131.777 116.244 132.366 115.309ZM144.117 113.289C145.491 113.289 146.548 112.242 146.548 110.868C146.548 109.541 145.472 108.456 144.145 108.456C142.761 108.447 141.714 109.494 141.714 110.868C141.705 112.261 142.724 113.289 144.117 113.289Z" fill="url(#paint19_linear_650_6153)"/>
<path d="M135.077 123.17C134.993 124.18 134.6 125.077 133.656 125.657C132.422 126.405 131.066 126.863 129.711 127.34C129.085 127.564 128.44 127.77 127.804 127.947C127.215 128.116 126.869 127.77 127.047 127.181C127.598 125.33 128.215 123.507 129.085 121.768C129.58 120.786 130.328 120.151 131.431 119.973C133.329 119.674 135.105 121.198 135.077 123.17Z" fill="url(#paint20_linear_650_6153)"/>
<path d="M144.126 112.598C145.076 112.598 145.846 111.828 145.846 110.878C145.846 109.928 145.076 109.158 144.126 109.158C143.176 109.158 142.406 109.928 142.406 110.878C142.406 111.828 143.176 112.598 144.126 112.598Z" fill="url(#paint21_linear_650_6153)"/>
<path d="M154.438 217.425C158.289 218.791 162.52 216.777 163.886 212.925C165.253 209.074 163.239 204.843 159.387 203.477C155.535 202.11 151.305 204.124 149.938 207.976C148.572 211.828 150.586 216.058 154.438 217.425Z" stroke="#F7F7FC" stroke-width="0.8528" stroke-miterlimit="10"/>
<path d="M208.202 229.181L173.238 216.774C172.578 216.54 172.274 215.902 172.508 215.242C172.742 214.583 173.38 214.279 174.04 214.513L209.004 226.919C209.664 227.153 209.968 227.792 209.734 228.451C209.5 229.111 208.861 229.415 208.202 229.181Z" fill="#F7F7FC"/>
<path d="M198.705 255.945L163.74 243.538C163.081 243.304 162.777 242.666 163.011 242.006C163.245 241.346 163.883 241.042 164.543 241.276L199.507 253.683C200.167 253.917 200.471 254.555 200.237 255.215C200.003 255.875 199.364 256.179 198.705 255.945Z" fill="#F7F7FC"/>
<path d="M144.974 244.094C148.826 245.461 153.056 243.447 154.423 239.595C155.789 235.743 153.775 231.513 149.923 230.146C146.072 228.78 141.841 230.794 140.475 234.646C139.108 238.497 141.122 242.728 144.974 244.094Z" stroke="#F7F7FC" stroke-width="0.8528" stroke-miterlimit="10"/>
<path d="M153.833 207.767L154.41 213.914L167.379 207.268" stroke="#4CD0CD" stroke-width="3" stroke-miterlimit="10" stroke-linecap="round" stroke-linejoin="round"/>
<path d="M187.01 201.671L181.429 208.632L179.496 207.982L179.252 199.064L180.959 199.637L181.021 206.684L185.315 201.101L187.01 201.671ZM188.75 211.181C188.007 210.931 187.383 210.527 186.878 209.969C186.374 209.412 186.043 208.764 185.885 208.028C185.73 207.284 185.784 206.521 186.047 205.74C186.307 204.967 186.722 204.334 187.292 203.842C187.865 203.343 188.521 203.023 189.26 202.883C189.999 202.743 190.74 202.798 191.484 203.048C192.234 203.3 192.858 203.704 193.355 204.259C193.86 204.817 194.186 205.467 194.333 206.209C194.491 206.945 194.439 207.7 194.18 208.474C193.917 209.255 193.499 209.895 192.926 210.394C192.363 210.889 191.712 211.206 190.973 211.346C190.234 211.486 189.493 211.431 188.75 211.181ZM189.228 209.759C189.706 209.92 190.162 209.955 190.598 209.865C191.035 209.767 191.424 209.552 191.764 209.219C192.104 208.886 192.363 208.454 192.542 207.923C192.72 207.392 192.773 206.895 192.701 206.432C192.631 205.961 192.45 205.559 192.157 205.224C191.865 204.889 191.48 204.642 191.002 204.481C190.524 204.321 190.064 204.284 189.621 204.371C189.186 204.461 188.798 204.673 188.458 205.006C188.121 205.332 187.863 205.76 187.685 206.291C187.506 206.821 187.452 207.322 187.521 207.793C187.591 208.264 187.771 208.67 188.061 209.012C188.361 209.35 188.75 209.598 189.228 209.759ZM201.889 206.672L201.457 207.957L199.341 207.246L197.105 213.9L195.512 213.365L197.749 206.711L195.633 206L196.065 204.715L201.889 206.672ZM204.007 208.814L203.338 210.805L206.011 211.703L205.586 212.966L202.913 212.067L202.206 214.172L205.22 215.185L204.784 216.482L200.178 214.933L202.85 206.982L207.457 208.531L207.021 209.827L204.007 208.814Z" fill="white"/>
<path opacity="0.8" d="M158.541 146.877L156.873 146.673L153.796 140.505L153.097 146.21L151.43 146.006L152.45 137.68L154.117 137.885L157.193 144.064L157.893 138.347L159.56 138.551L158.541 146.877ZM162.495 140.289L162.24 142.373L165.039 142.716L164.877 144.038L162.078 143.696L161.808 145.899L164.964 146.286L164.798 147.644L159.974 147.053L160.994 138.727L165.818 139.318L165.652 140.676L162.495 140.289ZM178.23 140.85L174.889 148.88L172.924 148.639L172.089 142.528L169.732 148.248L167.777 148.021L166.558 139.421L168.344 139.639L169.019 146.275L171.501 140.026L173.359 140.254L174.169 146.869L176.432 140.63L178.23 140.85ZM180.947 149.706C180.367 149.635 179.855 149.472 179.411 149.216C178.975 148.961 178.645 148.63 178.42 148.224C178.196 147.818 178.111 147.36 178.165 146.851L179.952 147.07C179.934 147.414 180.02 147.699 180.21 147.923C180.408 148.149 180.698 148.285 181.079 148.332C181.468 148.38 181.785 148.326 182.03 148.17C182.275 148.007 182.417 147.775 182.454 147.473C182.484 147.227 182.433 147.015 182.302 146.838C182.17 146.66 181.995 146.514 181.775 146.398C181.564 146.276 181.267 146.135 180.884 145.975C180.364 145.75 179.942 145.541 179.619 145.348C179.305 145.149 179.044 144.879 178.835 144.539C178.636 144.192 178.569 143.757 178.633 143.233C178.693 142.741 178.869 142.327 179.16 141.992C179.45 141.657 179.83 141.421 180.298 141.285C180.767 141.141 181.287 141.104 181.859 141.174C182.717 141.279 183.386 141.574 183.866 142.06C184.355 142.539 184.582 143.156 184.546 143.909L182.712 143.684C182.731 143.396 182.637 143.147 182.429 142.936C182.23 142.718 181.944 142.587 181.571 142.541C181.245 142.501 180.973 142.552 180.754 142.695C180.543 142.838 180.418 143.069 180.379 143.386C180.352 143.609 180.4 143.804 180.525 143.972C180.658 144.134 180.826 144.275 181.029 144.397C181.241 144.511 181.538 144.653 181.92 144.82C182.441 145.045 182.862 145.258 183.184 145.459C183.506 145.659 183.77 145.934 183.978 146.281C184.185 146.629 184.257 147.061 184.194 147.577C184.139 148.022 183.974 148.421 183.697 148.774C183.42 149.127 183.045 149.391 182.572 149.567C182.1 149.735 181.558 149.781 180.947 149.706Z" fill="#312F69"/>
<g clip-path="url(#clip1_650_6153)">
<path d="M239.332 179.124L237.05 175.939L248.388 167.853L250.67 171.037L239.332 179.124Z" fill="#F7F7F7"/>
<path d="M233.337 181.052L233.312 181.015C232.59 180.012 232.616 178.758 233.376 178.216L241.944 171.951L244.733 175.667L236.008 181.888C235.254 182.432 234.057 182.061 233.337 181.052Z" fill="#312F69"/>
<path opacity="0.2" d="M247.614 168.429L247.012 168.801L246.289 174.086L250.463 171.148L247.614 168.429Z" fill="#BBBCBF"/>
<path d="M265.051 173C270.34 169.194 271.554 161.816 267.765 156.519C263.973 151.227 256.608 150.023 251.313 153.826C246.024 157.632 244.811 165.01 248.6 170.307C252.392 175.599 259.756 176.803 265.051 173ZM249.942 169.345C246.68 164.789 247.724 158.445 252.278 155.171C256.831 151.897 263.164 152.933 266.426 157.489C269.688 162.045 268.644 168.389 264.09 171.663C259.537 174.937 253.204 173.901 249.942 169.345Z" fill="#312F69"/>
<path opacity="0.2" d="M248.82 167.335C250.973 172.51 256.909 174.95 262.079 172.785C267.249 170.621 269.695 164.671 267.541 159.496C265.388 154.322 259.452 151.882 254.282 154.046C249.112 156.211 246.666 162.16 248.82 167.335Z" fill="#D1E7F5"/>
<g opacity="0.22">
<path d="M261.341 156.797C264.351 157.981 266.256 161.038 265.893 164.272C265.535 167.494 262.975 170.115 259.767 170.572C258.863 170.698 258.993 172.11 259.898 171.984C263.589 171.463 266.551 168.632 267.222 164.959C267.883 161.343 266.039 157.713 262.866 155.945C262.561 155.772 262.236 155.632 261.915 155.5C261.072 155.167 260.492 156.462 261.341 156.797Z" fill="white"/>
</g>
<path opacity="0.31" d="M256.239 171.01C256.107 171.509 256.403 172.019 256.901 172.15C257.398 172.282 257.908 171.984 258.04 171.486C258.172 170.988 257.876 170.477 257.378 170.346C256.881 170.215 256.371 170.512 256.239 171.01Z" fill="white"/>
<path d="M242.018 172.115L244.671 175.654C244.763 175.773 244.93 175.807 245.063 175.728L245.106 175.705C245.258 175.613 245.294 175.412 245.191 175.269L242.501 171.755C242.4 171.626 242.209 171.602 242.08 171.703L242.077 171.709C241.945 171.803 241.916 171.986 242.018 172.115Z" fill="#353A85"/>
<path d="M254.348 172.556C252.094 171.623 250.25 169.904 249.169 167.717C248.103 165.557 247.866 163.065 248.456 160.731C249.062 158.343 250.591 156.255 252.622 154.89C254.605 153.559 257.049 153.003 259.409 153.287C261.859 153.581 264.149 154.818 265.761 156.678C267.316 158.461 268.195 160.813 268.207 163.186C268.221 165.667 267.286 168.088 265.65 169.944C264.076 171.732 261.852 172.883 259.5 173.215C257.761 173.462 255.975 173.219 254.348 172.556C254.026 172.424 253.821 172.925 254.142 173.057C256.401 173.979 258.899 174.091 261.234 173.389C263.515 172.706 265.534 171.208 266.883 169.247C268.283 167.213 268.917 164.708 268.696 162.257C268.485 159.897 267.434 157.635 265.809 155.924C264.102 154.133 261.783 152.998 259.332 152.724C256.965 152.457 254.557 153.042 252.535 154.302C250.46 155.595 248.896 157.636 248.126 159.95C247.364 162.246 247.432 164.757 248.274 167.02C249.292 169.752 251.457 171.947 254.14 173.063C254.464 173.189 254.669 172.689 254.348 172.556Z" fill="#DDDAE8"/>
</g>
</g>
<defs>
<linearGradient id="paint0_linear_650_6153" x1="47.8872" y1="218.374" x2="169.485" y2="218.374" gradientUnits="userSpaceOnUse">
<stop offset="0.1349" stop-color="white" stop-opacity="0"/>
<stop offset="1" stop-color="#BF7CFF"/>
</linearGradient>
<linearGradient id="paint1_linear_650_6153" x1="201.156" y1="364.289" x2="231.485" y2="234.994" gradientUnits="userSpaceOnUse">
<stop offset="0.1349" stop-color="white" stop-opacity="0"/>
<stop offset="1" stop-color="white"/>
</linearGradient>
<linearGradient id="paint2_linear_650_6153" x1="159.943" y1="264.901" x2="193.134" y2="168.816" gradientUnits="userSpaceOnUse">
<stop stop-color="#BA0065"/>
<stop offset="1" stop-color="#63004A"/>
</linearGradient>
<linearGradient id="paint3_linear_650_6153" x1="160.974" y1="203.352" x2="170.25" y2="127.576" gradientUnits="userSpaceOnUse">
<stop stop-color="#D1BBFF"/>
<stop offset="1" stop-color="#DACFFF"/>
</linearGradient>
<linearGradient id="paint4_linear_650_6153" x1="161.511" y1="198.788" x2="169.667" y2="132.153" gradientUnits="userSpaceOnUse">
<stop stop-color="#D1BBFF"/>
<stop offset="1" stop-color="white"/>
</linearGradient>
<linearGradient id="paint5_linear_650_6153" x1="124.032" y1="214.404" x2="131.262" y2="166.881" gradientUnits="userSpaceOnUse">
<stop stop-color="#1C257B"/>
<stop offset="1" stop-color="#6A2C9A"/>
</linearGradient>
<linearGradient id="paint6_linear_650_6153" x1="159.893" y1="270.041" x2="188.69" y2="186.675" gradientUnits="userSpaceOnUse">
<stop stop-color="#D1BBFF"/>
<stop offset="1" stop-color="#DACFFF"/>
</linearGradient>
<linearGradient id="paint7_linear_650_6153" x1="164.314" y1="197.185" x2="168.262" y2="243.238" gradientUnits="userSpaceOnUse">
<stop stop-color="#3996F7"/>
<stop offset="1" stop-color="#744FD8"/>
</linearGradient>
<linearGradient id="paint8_linear_650_6153" x1="149.519" y1="294.97" x2="173.308" y2="226.102" gradientUnits="userSpaceOnUse">
<stop stop-color="#B31A8F"/>
<stop offset="0.00896716" stop-color="#B51A8F"/>
<stop offset="0.1486" stop-color="#D01789"/>
<stop offset="0.3008" stop-color="#E41484"/>
<stop offset="0.4721" stop-color="#F31281"/>
<stop offset="0.6764" stop-color="#FB117F"/>
<stop offset="1" stop-color="#FE117E"/>
</linearGradient>
<radialGradient id="paint9_radial_650_6153" cx="0" cy="0" r="1" gradientUnits="userSpaceOnUse" gradientTransform="translate(248.639 182.515) rotate(14.7672) scale(26.8244 26.8244)">
<stop stop-color="#A157FF"/>
<stop offset="1" stop-color="#63399A"/>
</radialGradient>
<radialGradient id="paint10_radial_650_6153" cx="0" cy="0" r="1" gradientUnits="userSpaceOnUse" gradientTransform="translate(239.618 151.725) rotate(14.7672) scale(34.2886 34.2886)">
<stop stop-color="#FF81FF"/>
<stop offset="1" stop-color="#9552FF"/>
</radialGradient>
<linearGradient id="paint11_linear_650_6153" x1="230.85" y1="123.865" x2="242.06" y2="91.4132" gradientUnits="userSpaceOnUse">
<stop stop-color="#744FD8"/>
<stop offset="1" stop-color="#3996F7"/>
</linearGradient>
<linearGradient id="paint12_linear_650_6153" x1="225.201" y1="93.8181" x2="253.112" y2="102.192" gradientUnits="userSpaceOnUse">
<stop stop-color="#13469F"/>
<stop offset="1" stop-color="#0E55CB"/>
</linearGradient>
<linearGradient id="paint13_linear_650_6153" x1="230.663" y1="105.017" x2="234.147" y2="106.062" gradientUnits="userSpaceOnUse">
<stop stop-color="#13469F"/>
<stop offset="1" stop-color="#0E55CB"/>
</linearGradient>
<linearGradient id="paint14_linear_650_6153" x1="237.881" y1="110.901" x2="241.364" y2="111.946" gradientUnits="userSpaceOnUse">
<stop stop-color="#13469F"/>
<stop offset="1" stop-color="#0E55CB"/>
</linearGradient>
<linearGradient id="paint15_linear_650_6153" x1="230.118" y1="125.551" x2="230.716" y2="123.818" gradientUnits="userSpaceOnUse">
<stop stop-color="#1C257B"/>
<stop offset="1" stop-color="#482C83"/>
</linearGradient>
<linearGradient id="paint16_linear_650_6153" x1="140.725" y1="134.52" x2="136.086" y2="100.501" gradientUnits="userSpaceOnUse">
<stop stop-color="#B31A8F"/>
<stop offset="0.00896716" stop-color="#B51A8F"/>
<stop offset="0.1486" stop-color="#D01789"/>
<stop offset="0.3008" stop-color="#E41484"/>
<stop offset="0.4721" stop-color="#F31281"/>
<stop offset="0.6764" stop-color="#FB117F"/>
<stop offset="1" stop-color="#FE117E"/>
</linearGradient>
<linearGradient id="paint17_linear_650_6153" x1="126.262" y1="129.624" x2="154.887" y2="139.512" gradientUnits="userSpaceOnUse">
<stop stop-color="#BA0065"/>
<stop offset="1" stop-color="#63004A"/>
</linearGradient>
<radialGradient id="paint18_radial_650_6153" cx="0" cy="0" r="1" gradientUnits="userSpaceOnUse" gradientTransform="translate(260.538 203.522) rotate(29.413) scale(20.8426 20.8426)">
<stop stop-color="#3996F7"/>
<stop offset="1" stop-color="#6840D5"/>
</radialGradient>
<linearGradient id="paint19_linear_650_6153" x1="138.218" y1="116.618" x2="152.582" y2="103.931" gradientUnits="userSpaceOnUse">
<stop stop-color="white"/>
<stop offset="1" stop-color="white" stop-opacity="0"/>
</linearGradient>
<linearGradient id="paint20_linear_650_6153" x1="129.571" y1="125.919" x2="134.292" y2="121.198" gradientUnits="userSpaceOnUse">
<stop stop-color="#F8845B"/>
<stop offset="1" stop-color="#F0603A"/>
</linearGradient>
<linearGradient id="paint21_linear_650_6153" x1="145.229" y1="109.233" x2="142.612" y2="111.851" gradientUnits="userSpaceOnUse">
<stop stop-color="white" stop-opacity="0"/>
<stop offset="1" stop-color="white"/>
</linearGradient>
<clipPath id="clip0_650_6153">
<rect width="29.1961" height="25.451" fill="white" transform="translate(226.313 90) rotate(16.6999)"/>
</clipPath>
<clipPath id="clip1_650_6153">
<rect width="38" height="29.3072" fill="white" transform="translate(273.573 156.969) rotate(112.344)"/>
</clipPath>
</defs>
</svg>
