<svg width="12" height="12" viewBox="0 0 12 12" fill="none" xmlns="http://www.w3.org/2000/svg">
<path d="M2.5 8V10M3 2V4M3.5 9H1.5M4 3H2M6.5 2L7.37642 4.22219C7.47037 4.46041 7.51735 4.57953 7.58929 4.67997C7.65305 4.769 7.731 4.84695 7.82003 4.91071C7.92047 4.98265 8.03959 5.02963 8.27781 5.12358L10.5 6L8.27781 6.87642C8.03959 6.97037 7.92047 7.01735 7.82003 7.08929C7.731 7.15305 7.65305 7.231 7.58929 7.32003C7.51735 7.42047 7.47037 7.53959 7.37642 7.77781L6.5 10L5.62358 7.77781C5.52963 7.53959 5.48265 7.42047 5.41071 7.32003C5.34695 7.231 5.269 7.15305 5.17997 7.08929C5.07953 7.01735 4.96041 6.97037 4.72219 6.87642L2.5 6L4.72219 5.12358C4.96041 5.02963 5.07953 4.98265 5.17997 4.91071C5.269 4.84695 5.34695 4.769 5.41071 4.67997C5.48265 4.57953 5.52963 4.46041 5.62358 4.22219L6.5 2Z" stroke="#8E97CD" stroke-linecap="round" stroke-linejoin="round"/>
</svg>
