<svg width="24" height="24" viewBox="0 0 24 24" fill="none" xmlns="http://www.w3.org/2000/svg">
<path fill-rule="evenodd" clip-rule="evenodd" d="M2.77409 12.4814C3.07033 12.778 3.07004 13.2586 2.77343 13.5548L2.61779 13.7103C2.48483 13.8431 2.48483 14.058 2.61779 14.1908C2.75125 14.3241 2.96801 14.3241 3.10147 14.1908L4.8136 12.4807C5.1102 12.1845 5.59079 12.1848 5.88704 12.4814C6.18328 12.778 6.18298 13.2586 5.88638 13.5548L4.17426 15.2648C3.4481 15.9901 2.27116 15.9901 1.545 15.2648C0.818334 14.5391 0.818333 13.362 1.545 12.6362L1.70065 12.4807C1.99725 12.1845 2.47784 12.1848 2.77409 12.4814ZM7.68665 13.4896C7.98307 13.7861 7.98307 14.2667 7.68665 14.5631L5.54424 16.7055C5.24782 17.0019 4.76723 17.0019 4.4708 16.7055C4.17438 16.409 4.17438 15.9285 4.4708 15.632L6.61321 13.4896C6.90963 13.1932 7.39023 13.1932 7.68665 13.4896ZM10.4958 16.2953C10.7922 16.5918 10.7922 17.0724 10.4958 17.3688L8.36805 19.4965C8.07162 19.7929 7.59103 19.7929 7.29461 19.4965C6.99818 19.2001 6.99818 18.7195 7.29461 18.4231L9.42237 16.2953C9.71879 15.9989 10.1994 15.9989 10.4958 16.2953ZM7.29719 16.696C7.5903 16.9957 7.58495 17.4762 7.28525 17.7693L5.55508 19.4614C5.25538 19.7545 4.77481 19.7491 4.48171 19.4494C4.1886 19.1497 4.19395 18.6692 4.49365 18.3761L6.22382 16.684C6.52352 16.3909 7.00409 16.3963 7.29719 16.696ZM11.4811 18.118C11.7774 18.4146 11.7771 18.8952 11.4805 19.1915L9.76834 20.9015C9.63539 21.0343 9.63539 21.2492 9.76834 21.382C9.9018 21.5153 10.1186 21.5153 10.252 21.382L10.4077 21.2265C10.7043 20.9303 11.1849 20.9306 11.4811 21.2272C11.7774 21.5238 11.7771 22.0044 11.4805 22.3006L11.3248 22.4561C10.5987 23.1813 9.42171 23.1813 8.69556 22.4561C7.96889 21.7303 7.96889 20.5532 8.69556 19.8274L10.4077 18.1174C10.7043 17.8211 11.1849 17.8214 11.4811 18.118Z" fill="#C0C9FF"/>
<path d="M7.22025 8.36182L7.22025 8.36181C7.52276 8.01659 7.90155 7.63896 8.29684 7.24488L8.30559 7.23616L8.3056 7.23615L10.042 5.505C9.64282 5.27589 9.38502 5.17136 9.1322 5.134C8.71131 5.0718 8.27072 5.12704 7.85946 5.29768L7.85946 5.29768C7.78318 5.32933 7.64886 5.4112 7.45444 5.56105C7.26776 5.70493 7.05202 5.89065 6.81729 6.10478C6.34756 6.53329 5.82564 7.0535 5.34186 7.5358C5.26174 7.61568 5.28859 7.75191 5.39612 7.79453C5.39613 7.79453 5.39613 7.79453 5.39613 7.79454L5.72185 7.92359L5.72189 7.92361L5.72623 7.92533C5.7755 7.94485 5.80492 7.95651 5.83413 7.96855L7.22025 8.36182ZM7.22025 8.36182C7.14169 8.45147 7.06143 8.54643 6.98195 8.64679M7.22025 8.36182L6.98195 8.64679M6.98195 8.64679C6.63439 8.36763 6.24798 8.13906 5.83422 7.96859L6.98195 8.64679Z" stroke="#C0C9FF"/>
<path d="M15.7928 17.659L15.7928 17.6591C15.9306 17.9103 16.0365 18.1762 16.2157 18.6259L16.2267 18.6536L15.7928 17.659ZM15.7928 17.659C15.6709 17.4368 15.5311 17.2248 15.3746 17.0253L15.7928 17.659ZM16.4498 18.6058L16.4499 18.6058C16.9336 18.1235 17.4554 17.6031 17.8852 17.1348C18.1 16.9008 18.2862 16.6857 18.4305 16.4997C18.5808 16.3058 18.6628 16.1721 18.6943 16.0964L18.6944 16.0963C18.8654 15.6869 18.9206 15.2484 18.8583 14.8297L18.8583 14.8297C18.8209 14.5779 18.716 14.3208 18.4854 13.9217L16.739 15.6628L16.739 15.6628L16.7294 15.6724C16.3256 16.075 15.9381 16.4614 15.5835 16.7677L15.5835 16.7677C15.5045 16.8359 15.4214 16.9053 15.334 16.9743C15.3476 16.9911 15.3611 17.008 15.3745 17.0251L16.4498 18.6058ZM16.4498 18.6058L16.3776 18.6779C16.3776 18.6779 16.3775 18.6779 16.3775 18.6779M16.4498 18.6058L16.3775 18.6779M16.3775 18.6779C16.3556 18.6997 16.3255 18.7095 16.2903 18.7025M16.3775 18.6779L16.2903 18.7025M16.2903 18.7025C16.2553 18.6955 16.2359 18.6764 16.2268 18.6537L16.2903 18.7025Z" stroke="#C0C9FF"/>
<path d="M9.74183 12.6295L11.1423 11.2082L11.1423 11.2082C11.5862 10.7578 12.3112 10.7521 12.7618 11.1962C13.2122 11.64 13.2178 12.3651 12.7738 12.8156L11.3639 14.2466C11.8078 14.6874 12.1347 15.0026 12.4189 15.2187C12.7393 15.4625 12.9462 15.5331 13.1394 15.5331C13.2305 15.5331 13.3183 15.5175 13.4129 15.4826L13.413 15.4826C13.5883 15.418 13.7964 15.2844 14.0864 15.0339C14.3756 14.7842 14.7107 14.4505 15.1493 14.0133L20.1789 8.99881L20.1789 8.99879C20.9323 8.24772 21.2038 7.96445 21.3474 7.61868L21.3475 7.6186C21.4911 7.27296 21.5 6.88155 21.5 5.81937V5.33146C21.5 4.53205 21.4989 3.98294 21.4433 3.57053C21.3896 3.17265 21.2936 2.9776 21.1576 2.84198L21.1575 2.84195C21.0213 2.70614 20.8251 2.61014 20.4253 2.55655C20.0113 2.50106 19.4602 2.5 18.6585 2.5H18.1691C17.104 2.5 16.7103 2.50881 16.3628 2.65233L16.3628 2.65234C16.0154 2.79581 15.7311 3.06682 14.9779 3.81774L9.94822 8.83226C9.5207 9.25849 9.19166 9.5869 8.94284 9.87085C8.69313 10.1558 8.55485 10.3626 8.48467 10.5371L9.74183 12.6295ZM9.74183 12.6295C9.28523 12.1729 8.96048 11.8393 8.7392 11.5502C8.4947 11.2307 8.42444 11.0251 8.42444 10.8339C8.42444 10.7365 8.44261 10.6417 8.48465 10.5372L9.74183 12.6295ZM17.9005 8.514L18.2182 8.83264C17.3706 9.67765 15.9969 9.6777 15.1494 8.83263L17.9005 8.514ZM17.9005 8.514L18.2182 8.83263C19.0667 7.98674 19.0667 6.61464 18.2182 5.76875C17.3706 4.92372 15.9969 4.92367 15.1494 5.76875L17.9005 8.514ZM15.1493 5.76877C14.3009 6.61466 14.3009 7.98672 15.1493 8.83261L15.1493 5.76877Z" stroke="#C0C9FF"/>
</svg>
