<svg width="24" height="24" viewBox="0 0 24 24" fill="none" xmlns="http://www.w3.org/2000/svg">
<mask id="mask0_153_2113" style="mask-type:alpha" maskUnits="userSpaceOnUse" x="0" y="0" width="24" height="24">
<rect width="24" height="24" fill="#D9D9D9"/>
</mask>
<g mask="url(#mask0_153_2113)">
<path d="M8.06572 11.1205L7.65546 11.772C7.55288 11.9349 7.49148 12.0334 7.45334 12.1064C7.50203 12.163 7.57651 12.2383 7.70022 12.3621C9.03763 13.7001 10.375 15.0448 11.6984 16.3756C11.7779 16.4552 11.834 16.5109 11.8771 16.5513C11.9264 16.5187 11.9913 16.4731 12.0835 16.4079L12.1146 16.3859L12.1486 16.3689C12.236 16.3252 12.316 16.3129 12.3517 16.308C12.3693 16.3056 12.3866 16.3038 12.3963 16.3028L12.3981 16.3026C12.4098 16.3014 12.417 16.3007 12.4245 16.2997L12.9104 16.239L12.9813 16.7235C13.0058 16.8915 13.0304 17.059 13.055 17.2264C13.1484 17.863 13.2413 18.496 13.3302 19.1326C13.3304 19.1324 13.3305 19.1323 13.3306 19.1321L13.3574 19.1039C13.3658 19.095 13.3759 19.0845 13.387 19.0731C14.7634 17.5592 15.5563 15.8055 15.6829 13.7668L15.6835 13.7574L15.6835 13.7574C15.7099 13.4324 15.8066 13.0857 16.1167 12.7861L16.1197 12.7832L16.1197 12.7833C17.4001 11.567 18.3903 10.1369 19.1037 8.51481C19.7556 7.02778 20.1549 5.50774 20.1232 3.9128L20.1232 3.91104C20.123 3.89987 20.1227 3.88942 20.1224 3.87965L8.06572 11.1205ZM8.06572 11.1205L7.30366 11.0107C6.95161 10.96 6.60325 10.9089 6.25765 10.8583C5.79122 10.7899 5.3298 10.7223 4.87109 10.6572C6.38835 9.25471 8.14995 8.44666 10.2008 8.31408L10.2008 8.31409L10.2042 8.31385C10.5819 8.28685 10.9251 8.16874 11.2343 7.85937L11.2344 7.8594L11.2388 7.85491C13.2816 5.75917 15.7389 4.46533 18.6174 3.97227C19.0958 3.89149 19.5861 3.86562 20.091 3.8783L8.06572 11.1205ZM11.7784 16.6096C11.7784 16.6096 11.779 16.6093 11.7802 16.6089L11.7784 16.6096ZM11.9629 16.6245C11.9639 16.6251 11.9645 16.6255 11.9645 16.6255L11.9629 16.6245Z" stroke="#C0C9FF"/>
<path d="M5.15782 19.6852L5.15782 19.6852L5.15511 19.6862C4.74877 19.8318 4.33121 19.9662 3.91837 20.084C4.30388 18.7988 4.73066 17.5552 5.32044 16.3749C5.61618 15.7891 6.0295 15.452 6.63876 15.3536C7.68839 15.1886 8.68611 16.0326 8.68064 17.1348C8.62666 17.7405 8.40024 18.2115 7.89861 18.5201C7.10521 19.0009 6.23331 19.3073 5.29893 19.6356C5.25205 19.6521 5.20501 19.6686 5.15782 19.6852Z" stroke="#C0C9FF"/>
</g>
</svg>
