<svg width="100" height="100" viewBox="0 0 100 100" fill="none" xmlns="http://www.w3.org/2000/svg">
<circle cx="50" cy="50" r="50" fill="#1D1D1B"/>
<path d="M50.4835 69.2211H50.4077C40.0159 69.3349 31.5204 61.029 31.3687 50.6751C31.2549 40.2833 39.5608 31.7878 49.9146 31.6361C50.0663 31.6361 50.2181 31.6361 50.3698 31.6361C60.7616 31.6361 69.1812 40.0178 69.1812 50.4096C69.1812 52.4577 68.8399 54.4678 68.1951 56.3641L76.6527 67.704C86.2101 53.2162 82.2279 33.6841 67.7021 24.1267C53.2142 14.5692 33.6822 18.5515 24.1247 33.0773C14.5673 47.6031 18.5496 67.0972 33.0753 76.6547C40.7365 81.6989 50.256 83.178 59.0928 80.6369C58.7894 80.2577 50.4835 69.1832 50.4835 69.2211Z" fill="white"/>
<path d="M65.3503 59.4358L64.971 58.9049C64.8952 58.7911 64.7435 58.6394 64.6297 58.4877C64.3263 58.1464 64.0229 57.8429 63.6815 57.5395C63.5298 57.3878 63.3781 57.2741 63.1885 57.1224L62.923 56.8948L62.6575 56.6672C62.4679 56.5155 62.2783 56.4017 62.0507 56.25C59.5476 54.6192 56.8927 53.8228 53.669 53.8228H45.439C45.439 53.8228 58.9787 71.9136 62.3162 76.5027C62.6954 77.0337 63.1126 77.5267 63.5678 77.9818C63.6436 78.0577 63.6815 78.0956 63.7574 78.1715C63.9091 78.3232 64.0608 78.4369 64.2504 78.5886L64.5159 78.8162L64.7814 79.0438C64.971 79.1955 65.1607 79.3093 65.3882 79.461C67.8913 81.0918 70.8117 81.9262 73.7699 81.8882H81.9999L65.3503 59.4358Z" fill="#00B2EC"/>
</svg>
