<svg width="36" height="36" viewBox="0 0 36 36" fill="none" xmlns="http://www.w3.org/2000/svg">
<rect width="36" height="36" rx="18" fill="url(#paint0_linear_3698_5923)"/>
<path fill-rule="evenodd" clip-rule="evenodd" d="M13.3399 16.0841L18.0013 11.4247L22.6646 16.0879L25.3754 13.3753L18.0013 5.99951L10.6272 13.3734L13.3399 16.0841ZM6.01172 18L8.72341 15.2884L11.4351 18L8.72341 20.7116L6.01172 18ZM18.0051 24.5764L13.3437 19.9151L10.6272 22.6239L10.631 22.6277L18.0051 29.9997L25.3792 22.6239L25.3811 22.622L22.6684 19.9132L18.0051 24.5764ZM24.5893 18.0003L27.301 15.2887L30.0127 18.0003L27.301 20.712L24.5893 18.0003ZM18.0172 15.2462L20.7678 17.9986H20.7697L20.7678 18.0005L18.0172 20.7529L15.2666 18.0043L15.2628 17.9986L15.2666 17.9948L15.7481 17.5134L15.9832 17.2802L18.0172 15.2462Z" fill="white"/>
<defs>
<linearGradient id="paint0_linear_3698_5923" x1="36" y1="36" x2="0" y2="0" gradientUnits="userSpaceOnUse">
<stop stop-color="#D1A000"/>
<stop offset="1" stop-color="#FFD632"/>
</linearGradient>
</defs>
</svg>
