<svg width="100" height="100" viewBox="0 0 100 100" fill="none" xmlns="http://www.w3.org/2000/svg">
<path d="M50 2C76.5121 2 98 23.4922 98 50C98 76.5122 76.5122 98 50 98C23.4922 98 2 76.5099 2 50C2 23.4923 23.4923 2 50 2Z" fill="black" stroke="#FEC704" stroke-width="4"/>
<path d="M73.6947 24.0542H65.9533L68.2811 31.146L53.6644 41.7566L65.2495 50.2018L79 40.2408L73.6947 24.0542Z" fill="#FEC704"/>
<path d="M32.0644 31.0918L34.3922 24H26.6508L21.3996 40.1325L35.1501 50.1476L46.7352 41.7566L32.0644 31.0918Z" fill="#E1AB00"/>
<path d="M48.8464 32.6077L37.0989 24.0542L35.0959 30.1174L48.8464 40.1326V32.6077Z" fill="#E1AB00"/>
<path d="M63.2464 24.0542L51.4989 32.5535V40.0784L65.2494 30.1174L63.2464 24.0542Z" fill="#FEC704"/>
<path d="M35.15 53.3414L35.0959 53.4497L48.8464 63.4649V43.4346L35.15 53.3414Z" fill="#E1AB00"/>
<path d="M65.1953 53.3419L51.4989 43.3809V63.4111L65.2494 53.4501L65.1953 53.3419Z" fill="#FEC704"/>
<path d="M48.8467 66.6048L37.6947 58.4844L35.1503 66.3341L48.9008 76.3492L48.8467 66.6048Z" fill="#E1AB00"/>
<path d="M62.6512 58.4844L51.4451 66.6048V76.2951L65.1956 66.3341L62.6512 58.4844Z" fill="#FEC704"/>
</svg>
