<svg width="68" height="24" viewBox="0 0 68 24" fill="none" xmlns="http://www.w3.org/2000/svg">
<rect width="68" height="24" rx="6" fill="url(#paint0_linear_24_9001)"/>
<path d="M30.317 9.44V10.184H28.837V15H27.925V10.184H26.437V9.44H30.317ZM33.1526 15.072C32.7366 15.072 32.3606 14.9787 32.0246 14.792C31.6886 14.6 31.4246 14.3333 31.2326 13.992C31.0406 13.6453 30.9446 13.2453 30.9446 12.792C30.9446 12.344 31.0433 11.9467 31.2406 11.6C31.438 11.2533 31.7073 10.9867 32.0486 10.8C32.39 10.6133 32.7713 10.52 33.1926 10.52C33.614 10.52 33.9953 10.6133 34.3366 10.8C34.678 10.9867 34.9473 11.2533 35.1446 11.6C35.342 11.9467 35.4406 12.344 35.4406 12.792C35.4406 13.24 35.3393 13.6373 35.1366 13.984C34.934 14.3307 34.6566 14.6 34.3046 14.792C33.958 14.9787 33.574 15.072 33.1526 15.072ZM33.1526 14.28C33.3873 14.28 33.606 14.224 33.8086 14.112C34.0166 14 34.1846 13.832 34.3126 13.608C34.4406 13.384 34.5046 13.112 34.5046 12.792C34.5046 12.472 34.4433 12.2027 34.3206 11.984C34.198 11.76 34.0353 11.592 33.8326 11.48C33.63 11.368 33.4113 11.312 33.1766 11.312C32.942 11.312 32.7233 11.368 32.5206 11.48C32.3233 11.592 32.166 11.76 32.0486 11.984C31.9313 12.2027 31.8726 12.472 31.8726 12.792C31.8726 13.2667 31.9926 13.6347 32.2326 13.896C32.478 14.152 32.7846 14.28 33.1526 14.28ZM37.2542 11.24C37.4089 11.0373 37.6195 10.8667 37.8862 10.728C38.1529 10.5893 38.4542 10.52 38.7902 10.52C39.1742 10.52 39.5235 10.616 39.8382 10.808C40.1582 10.9947 40.4089 11.2587 40.5902 11.6C40.7715 11.9413 40.8622 12.3333 40.8622 12.776C40.8622 13.2187 40.7715 13.616 40.5902 13.968C40.4089 14.3147 40.1582 14.5867 39.8382 14.784C39.5235 14.976 39.1742 15.072 38.7902 15.072C38.4542 15.072 38.1555 15.0053 37.8942 14.872C37.6329 14.7333 37.4195 14.5627 37.2542 14.36V17.096H36.3422V10.592H37.2542V11.24ZM39.9342 12.776C39.9342 12.472 39.8702 12.2107 39.7422 11.992C39.6195 11.768 39.4542 11.6 39.2462 11.488C39.0435 11.3707 38.8249 11.312 38.5902 11.312C38.3609 11.312 38.1422 11.3707 37.9342 11.488C37.7315 11.6053 37.5662 11.776 37.4382 12C37.3155 12.224 37.2542 12.488 37.2542 12.792C37.2542 13.096 37.3155 13.3627 37.4382 13.592C37.5662 13.816 37.7315 13.9867 37.9342 14.104C38.1422 14.2213 38.3609 14.28 38.5902 14.28C38.8249 14.28 39.0435 14.2213 39.2462 14.104C39.4542 13.9813 39.6195 13.8053 39.7422 13.576C39.8702 13.3467 39.9342 13.08 39.9342 12.776ZM44.7542 11.24C44.9089 11.0373 45.1195 10.8667 45.3862 10.728C45.6529 10.5893 45.9542 10.52 46.2902 10.52C46.6742 10.52 47.0235 10.616 47.3382 10.808C47.6582 10.9947 47.9089 11.2587 48.0902 11.6C48.2715 11.9413 48.3622 12.3333 48.3622 12.776C48.3622 13.2187 48.2715 13.616 48.0902 13.968C47.9089 14.3147 47.6582 14.5867 47.3382 14.784C47.0235 14.976 46.6742 15.072 46.2902 15.072C45.9542 15.072 45.6555 15.0053 45.3942 14.872C45.1329 14.7333 44.9195 14.5627 44.7542 14.36V17.096H43.8422V10.592H44.7542V11.24ZM47.4342 12.776C47.4342 12.472 47.3702 12.2107 47.2422 11.992C47.1195 11.768 46.9542 11.6 46.7462 11.488C46.5435 11.3707 46.3249 11.312 46.0902 11.312C45.8609 11.312 45.6422 11.3707 45.4342 11.488C45.2315 11.6053 45.0662 11.776 44.9382 12C44.8155 12.224 44.7542 12.488 44.7542 12.792C44.7542 13.096 44.8155 13.3627 44.9382 13.592C45.0662 13.816 45.2315 13.9867 45.4342 14.104C45.6422 14.2213 45.8609 14.28 46.0902 14.28C46.3249 14.28 46.5435 14.2213 46.7462 14.104C46.9542 13.9813 47.1195 13.8053 47.2422 13.576C47.3702 13.3467 47.4342 13.08 47.4342 12.776ZM49.7281 10.008C49.5627 10.008 49.4241 9.952 49.3121 9.84C49.2001 9.728 49.1441 9.58933 49.1441 9.424C49.1441 9.25867 49.2001 9.12 49.3121 9.008C49.4241 8.896 49.5627 8.84 49.7281 8.84C49.8881 8.84 50.0241 8.896 50.1361 9.008C50.2481 9.12 50.3041 9.25867 50.3041 9.424C50.3041 9.58933 50.2481 9.728 50.1361 9.84C50.0241 9.952 49.8881 10.008 49.7281 10.008ZM50.1761 10.592V15H49.2641V10.592H50.1761ZM51.0694 12.792C51.0694 12.3387 51.1601 11.9413 51.3414 11.6C51.5281 11.2533 51.7841 10.9867 52.1094 10.8C52.4348 10.6133 52.8081 10.52 53.2294 10.52C53.7628 10.52 54.2028 10.648 54.5494 10.904C54.9014 11.1547 55.1388 11.5147 55.2614 11.984H54.2774C54.1974 11.7653 54.0694 11.5947 53.8934 11.472C53.7174 11.3493 53.4961 11.288 53.2294 11.288C52.8561 11.288 52.5574 11.4213 52.3334 11.688C52.1148 11.9493 52.0054 12.3173 52.0054 12.792C52.0054 13.2667 52.1148 13.6373 52.3334 13.904C52.5574 14.1707 52.8561 14.304 53.2294 14.304C53.7574 14.304 54.1068 14.072 54.2774 13.608H55.2614C55.1334 14.056 54.8934 14.4133 54.5414 14.68C54.1894 14.9413 53.7521 15.072 53.2294 15.072C52.8081 15.072 52.4348 14.9787 52.1094 14.792C51.7841 14.6 51.5281 14.3333 51.3414 13.992C51.1601 13.6453 51.0694 13.2453 51.0694 12.792ZM57.9143 12.8L59.9463 15H58.7143L57.0823 13.104V15H56.1703V9.08H57.0823V12.52L58.6823 10.592H59.9463L57.9143 12.8Z" fill="white"/>
<mask id="mask0_24_9001" style="mask-type:alpha" maskUnits="userSpaceOnUse" x="8" y="4" width="16" height="16">
<rect x="8" y="4" width="16" height="16" fill="#D9D9D9"/>
</mask>
<g mask="url(#mask0_24_9001)">
<path d="M21.6004 12.4649L19.8592 9.75293H17.2827M21.6004 12.4649H18.4945M21.6004 12.4649L15.9769 18.1529M10.4004 12.4649L12.0239 9.75293H14.6122M10.4004 12.4649H13.4827M10.4004 12.4649L15.9769 18.1529M14.6122 9.75293L13.4827 12.4649M14.6122 9.75293H17.2827M13.4827 12.4649H18.4945M13.4827 12.4649L15.9769 18.1529M17.2827 9.75293L18.4945 12.4649M18.4945 12.4649L15.9769 18.1529" stroke="white" stroke-linejoin="round"/>
<path d="M16 7.23294V5.59961" stroke="white" stroke-linecap="round" stroke-linejoin="round"/>
<path d="M17.8669 7.80806L18.6836 6.39355" stroke="white" stroke-linecap="round" stroke-linejoin="round"/>
<path d="M20.2 8.57486L21.355 7.41992" stroke="white" stroke-linecap="round" stroke-linejoin="round"/>
<path d="M11.5553 8.57486L10.4004 7.41992" stroke="white" stroke-linecap="round" stroke-linejoin="round"/>
<path d="M14.0169 7.80806L13.2002 6.39355" stroke="white" stroke-linecap="round" stroke-linejoin="round"/>
</g>
<defs>
<linearGradient id="paint0_linear_24_9001" x1="0" y1="0" x2="68.7877" y2="2.5228" gradientUnits="userSpaceOnUse">
<stop stop-color="#A05BF8"/>
<stop offset="1" stop-color="#F03B3B"/>
</linearGradient>
</defs>
</svg>
