<svg width="32" height="32" viewBox="0 0 32 32" fill="none" xmlns="http://www.w3.org/2000/svg">
<g clip-path="url(#clip0_7_13)">
<path d="M8.97093 31.7377C17.0142 31.7377 17.0142 31.6179 18.378 31.2131C20.1602 30.684 13.346 25.9672 8.97093 25.9672C4.59588 25.9672 1.04919 27.2589 1.04919 28.8524C1.04919 30.4459 4.59605 31.7377 8.97093 31.7377Z" fill="black"/>
<path d="M27.2348 7.20226L27.6047 7.60095L27.2813 8.03823C16.7914 22.2214 10.7485 28.6431 8.18462 27.7818C6.62293 27.2572 5.05678 25.6795 3.49059 23.3885C2.94008 22.5832 2.42313 21.7352 1.95297 20.8914C1.63988 20.3294 1.37489 19.8169 1.23729 19.5283C1.06178 19.1601 0.987675 18.9332 0.928885 18.6353C0.925298 18.617 0.925298 18.617 0.92189 18.5995C0.897352 18.473 0.888862 18.4331 0.87052 18.3639C0.554874 17.1743 0.393433 15.9418 0.393433 14.6885C0.393433 6.79356 6.79356 0.393433 14.6885 0.393433C17.1619 0.393433 19.5454 1.02292 21.6578 2.20457L21.7123 2.23869C23.4418 3.44278 25.2814 5.09728 27.2348 7.20226ZM20.9895 3.33351C19.0785 2.27069 16.9253 1.70491 14.6885 1.70491C7.51787 1.70491 1.70491 7.51787 1.70491 14.6885C1.70491 15.828 1.85154 16.9474 2.13814 18.0276C2.16648 18.1344 2.17929 18.1947 2.20936 18.3497C2.21251 18.3659 2.21251 18.3659 2.21555 18.3814C2.25349 18.5737 2.29352 18.6962 2.42116 18.964C2.54668 19.2273 2.79892 19.7151 3.09862 20.253C3.55051 21.0641 4.04709 21.8787 4.57326 22.6483C5.98828 24.7182 7.39163 26.1319 8.60225 26.5386C10.2169 27.081 16.2954 20.6465 25.9015 7.69766C24.1575 5.85682 22.5192 4.40209 20.9895 3.33351Z" fill="black"/>
<path d="M20.9896 3.33356C19.0786 2.27074 16.9254 1.70496 14.6886 1.70496C7.51791 1.70496 1.70496 7.51791 1.70496 14.6886C1.70496 15.828 1.85159 16.9475 2.13818 18.0276C2.16652 18.1345 2.17934 18.1948 2.2094 18.3498C2.21256 18.366 2.21256 18.366 2.21559 18.3814C2.25354 18.5737 2.29357 18.6962 2.42121 18.964C2.54673 19.2274 2.79897 19.7152 3.09867 20.2531C3.55056 21.0641 4.04714 21.8787 4.5733 22.6484C5.98833 24.7183 7.39167 26.132 8.60229 26.5387C10.2169 27.0811 16.2954 20.6466 25.9015 7.6977C24.1575 5.85687 22.5192 4.40213 20.9896 3.33356Z" fill="#EC1C79"/>
<path d="M17.3114 31.6065C9.41648 31.6065 3.01636 25.2064 3.01636 17.3114C3.01636 9.41648 9.41648 3.01636 17.3114 3.01636C25.2064 3.01636 31.6065 9.41648 31.6065 17.3114C31.6065 25.2064 25.2064 31.6065 17.3114 31.6065ZM17.3114 30.295C24.4821 30.295 30.295 24.4821 30.295 17.3114C30.295 10.1408 24.4821 4.32783 17.3114 4.32783C10.1408 4.32783 4.32783 10.1408 4.32783 17.3114C4.32783 24.4821 10.1408 30.295 17.3114 30.295Z" fill="black"/>
<path d="M17.3115 30.2951C24.4821 30.2951 30.2951 24.4821 30.2951 17.3115C30.2951 10.1408 24.4821 4.32788 17.3115 4.32788C10.1408 4.32788 4.32788 10.1408 4.32788 17.3115C4.32788 24.4821 10.1408 30.2951 17.3115 30.2951Z" fill="white"/>
<path fill-rule="evenodd" clip-rule="evenodd" d="M7.59917 19.9711L5.88062 14.7934H7.38619L8.28219 17.7678L9.27366 14.7787H10.5002L11.4916 17.7678L12.3876 14.7934H13.8638L12.1453 19.9711H10.9041L9.86855 17.0113L8.84035 19.9711H7.59917ZM14.4293 19.9344V14.7934H18.5642V16.0052H15.8394V16.7837H18.3071V17.9073H15.8394V18.7226H18.6009V19.9344H14.4293ZM20.5838 19.9344V16.0419H19.0415V14.7934H23.5509V16.0419H22.0086V19.9344H20.5838ZM24.1752 19.9344V14.7934H25.6V16.7176H27.4287V14.7934H28.8535V19.9344H27.4287V17.9808H25.6V19.9344H24.1752Z" fill="black"/>
<path d="M1.24538 13.2471C0.882584 13.0657 0.735534 12.6245 0.91693 12.2617C1.09833 11.8989 1.53948 11.7519 1.90227 11.9333L4.00063 12.9825C4.36342 13.1639 4.51047 13.605 4.32907 13.9678C4.14768 14.3306 3.70653 14.4776 3.34374 14.2962L1.24538 13.2471Z" fill="black"/>
<path d="M1.00376 16.7264C0.635472 16.5564 0.474705 16.1201 0.644672 15.7518C0.814639 15.3835 1.25098 15.2228 1.61926 15.3927L3.71762 16.3611C4.0859 16.5311 4.24667 16.9674 4.0767 17.3357C3.90674 17.704 3.4704 17.8648 3.10212 17.6948L1.00376 16.7264Z" fill="black"/>
</g>
<defs>
<clipPath id="clip0_7_13">
<rect width="32" height="32" fill="white"/>
</clipPath>
</defs>
</svg>
