<svg width="100" height="100" viewBox="0 0 100 100" fill="none" xmlns="http://www.w3.org/2000/svg">
<circle cx="50" cy="50" r="50" fill="white"/>
<path d="M41.6977 16.9345C45.2067 10.3552 54.6058 10.3552 58.1147 16.9345L84.4948 66.3109C89.069 75.0834 78.7927 83.9185 70.8348 78.2791L55.3577 67.2508C52.162 64.9324 47.8384 64.9324 44.4548 67.2508L28.7897 78.2791C20.8318 83.9812 10.5555 74.8954 15.1297 66.3109L41.6977 16.9345Z" fill="url(#paint0_linear_384_3293)"/>
<path d="M84.4322 66.3111L63.9422 27.9629C63.8169 28.0882 63.8169 28.0882 63.6289 28.2762L61.9371 29.968C54.6058 37.174 42.6377 36.8607 35.5571 29.3414L35.2438 28.9028L15.3177 66.3111C13.9392 69.0681 13.9392 71.8252 14.8791 74.1436H34.9931L44.6428 67.251C47.8385 64.9326 52.1621 64.9326 55.5457 67.251L65.1954 74.1436L84.4322 73.7929C85.1215 71.5371 85.9987 69.0681 84.4322 66.3111Z" fill="url(#paint1_linear_384_3293)"/>
<path d="M28.7898 78.2788L44.4549 67.2506C47.6506 64.9322 51.9741 64.9322 55.3578 67.2506L70.8349 78.2788C78.7928 83.9809 89.0691 74.8952 84.4949 66.3107L68.2658 35.9204C66.574 36.6723 65.0701 37.9255 63.6916 39.1161L61.9998 40.8079C54.6685 48.0139 42.7004 47.7006 35.6198 40.1813L35.1811 39.5547C33.9279 38.3015 32.7374 37.2363 31.1709 36.4844L15.3804 66.2481C10.5556 75.0832 20.8319 83.9809 28.7898 78.2788Z" fill="url(#paint2_linear_384_3293)"/>
<path d="M28.79 78.2792L44.4551 67.251C47.6508 64.9325 51.9744 64.9325 55.358 67.251L70.8352 78.2792C78.793 83.9813 89.0693 74.8955 84.4951 66.3111L73.1536 45.1318C69.6446 45.7584 66.2609 47.4503 63.5039 50.0194L61.8121 51.7112C54.4808 58.9171 42.5126 58.6038 35.432 51.0846L34.9934 50.458C32.5496 47.8262 29.7623 45.9976 26.504 45.2457L15.318 66.2484C10.5558 75.0835 20.8321 83.9813 28.79 78.2792Z" fill="url(#paint3_linear_384_3293)"/>
<defs>
<linearGradient id="paint0_linear_384_3293" x1="49.8012" y1="3.27861" x2="49.8012" y2="61.5524" gradientUnits="userSpaceOnUse">
<stop stop-color="#FF6746"/>
<stop offset="1" stop-color="#FF0546"/>
</linearGradient>
<linearGradient id="paint1_linear_384_3293" x1="49.9626" y1="29.818" x2="49.9626" y2="57.1195" gradientUnits="userSpaceOnUse">
<stop stop-color="#FF6746"/>
<stop offset="1" stop-color="#FF0546"/>
</linearGradient>
<linearGradient id="paint2_linear_384_3293" x1="49.8446" y1="38.969" x2="49.8446" y2="62.9194" gradientUnits="userSpaceOnUse">
<stop stop-color="#FF6746"/>
<stop offset="1" stop-color="#FF0546"/>
</linearGradient>
<linearGradient id="paint3_linear_384_3293" x1="49.8448" y1="46.1379" x2="49.8448" y2="87.9919" gradientUnits="userSpaceOnUse">
<stop stop-color="#FF6746"/>
<stop offset="1" stop-color="#FF0546"/>
</linearGradient>
</defs>
</svg>
