<svg width="24" height="24" viewBox="0 0 24 24" fill="none" xmlns="http://www.w3.org/2000/svg">
<rect width="24" height="24" rx="6" fill="white"/>
<path d="M3.38663 11.9927L9.04824 16.2187C9.05721 16.2187 9.05721 16.2276 9.06619 16.2276L11.1657 17.7888C11.3452 17.9234 11.5964 17.7978 11.5964 17.5735L11.6054 5.93625C11.5874 5.72989 11.5605 5.51455 11.5157 5.30818C11.4708 5.11079 11.408 4.92237 11.3183 4.76086C11.4708 5.90036 10.8248 7.22829 9.73015 8.09861C9.48789 8.29601 9.15591 8.51134 8.78804 8.66388C8.39325 8.83435 7.19992 9.24708 7.19992 9.24708L3.60197 10.5481C2.98287 10.7724 2.85726 11.5979 3.38663 11.9927Z" fill="#554FD8"/>
<path d="M9.00366 8.56522C9.01263 8.55624 9.03057 8.55624 9.03955 8.54727C9.05749 8.5383 9.07544 8.52933 9.10235 8.51138C9.12927 8.50241 9.14721 8.48446 9.17413 8.47549C9.1831 8.46652 9.20105 8.45755 9.21002 8.45755C9.23694 8.4396 9.27283 8.42166 9.29975 8.40371C9.30872 8.39474 9.31769 8.39474 9.32666 8.38577C9.35358 8.36782 9.3805 8.34988 9.41639 8.33193C9.43433 8.32296 9.44331 8.31399 9.46125 8.30502C9.4792 8.28707 9.50611 8.2781 9.52406 8.26015C9.55097 8.24221 9.57789 8.21529 9.61378 8.19735C9.62275 8.19735 9.62275 8.18837 9.63173 8.18837C9.66762 8.16146 9.70351 8.13454 9.7394 8.10762C10.834 7.2373 11.48 5.90937 11.3275 4.76987C11.2647 4.6622 11.184 4.56351 11.0942 4.49173L9.22797 3.10997C9.04852 2.97539 8.78832 3.101 8.78832 3.32531V6.58231C8.78832 8.62802 7.2002 9.24712 7.2002 9.24712C7.2002 9.24712 8.4025 8.84336 8.78832 8.67289C8.8601 8.637 8.93188 8.60111 9.00366 8.56522Z" fill="#7770E0"/>
<path d="M20.6859 11.5711L15.0242 7.34507C15.0153 7.34507 15.0153 7.33609 15.0063 7.33609L12.9068 5.77489C12.7273 5.6403 12.4761 5.76592 12.4761 5.99023V17.6275C12.494 17.8338 12.5209 18.0492 12.5658 18.2556C12.6107 18.4529 12.6735 18.6414 12.7632 18.8029C12.6107 17.6634 13.2567 16.3355 14.3513 15.4651C14.5936 15.2677 14.9256 15.0524 15.2934 14.8999C15.6792 14.7294 16.8815 14.3256 16.8815 14.3256L20.4795 13.0246C21.0986 12.7913 21.2152 11.9659 20.6859 11.5711Z" fill="#554FD8"/>
<path d="M15.078 14.9986C15.069 15.0075 15.051 15.0075 15.0421 15.0165C15.0241 15.0255 15.0062 15.0344 14.9793 15.0524C14.9523 15.0614 14.9344 15.0793 14.9075 15.0883C14.8985 15.0973 14.8806 15.1062 14.8716 15.1062C14.8447 15.1242 14.8088 15.1421 14.7819 15.1601C14.7729 15.169 14.7639 15.169 14.755 15.178C14.728 15.196 14.7011 15.2139 14.6652 15.2318C14.6473 15.2408 14.6383 15.2498 14.6204 15.2588C14.6024 15.2767 14.5755 15.2857 14.5576 15.3036C14.5306 15.3216 14.5037 15.3485 14.4678 15.3664C14.4589 15.3664 14.4589 15.3754 14.4499 15.3754C14.414 15.4023 14.3781 15.4292 14.3422 15.4562C13.2476 16.3265 12.6016 17.6544 12.7541 18.7939C12.8169 18.9016 12.8977 19.0003 12.9874 19.072L14.8447 20.4538C15.0241 20.5884 15.2843 20.4628 15.2843 20.2385V16.9815C15.2843 14.9447 16.8724 14.3167 16.8724 14.3167C16.8724 14.3167 15.6701 14.7204 15.2843 14.8909C15.2215 14.9268 15.1497 14.9627 15.078 14.9986Z" fill="#7770E0"/>
</svg>
