<svg width="24" height="24" viewBox="0 0 24 24" fill="none" xmlns="http://www.w3.org/2000/svg">
<path d="M3.49902 3C3.49902 2.72386 3.27517 2.5 2.99902 2.5C2.72288 2.5 2.49902 2.72386 2.49902 3H3.49902ZM20.999 21.5C21.2752 21.5 21.499 21.2761 21.499 21C21.499 20.7239 21.2752 20.5 20.999 20.5V21.5ZM3.326 19.362L2.8805 19.589H2.8805L3.326 19.362ZM4.63705 20.673L4.86405 20.2275H4.86405L4.63705 20.673ZM19.9998 15.5C20.2759 15.5 20.4998 15.2762 20.4998 15C20.4998 14.7239 20.2759 14.5 19.9998 14.5V15.5ZM15.9998 14.5C15.7236 14.5 15.4998 14.7239 15.4998 15C15.4998 15.2762 15.7236 15.5 15.9998 15.5V14.5ZM12.9998 7.50002C13.2759 7.50002 13.4998 7.27617 13.4998 7.00002C13.4998 6.72388 13.2759 6.50002 12.9998 6.50002V7.50002ZM6.99978 6.50002C6.72364 6.50002 6.49978 6.72388 6.49978 7.00002C6.49978 7.27617 6.72364 7.50002 6.99978 7.50002V6.50002ZM17.9998 11.5C18.2759 11.5 18.4998 11.2762 18.4998 11C18.4998 10.7239 18.2759 10.5 17.9998 10.5V11.5ZM8.99978 10.5C8.72364 10.5 8.49978 10.7239 8.49978 11C8.49978 11.2762 8.72364 11.5 8.99978 11.5V10.5ZM2.49902 3V16.2H3.49902V3H2.49902ZM7.79902 21.5H20.999V20.5H7.79902V21.5ZM2.49902 16.2C2.49902 17.0318 2.49863 17.6858 2.54156 18.2111C2.58496 18.7423 2.67511 19.1859 2.8805 19.589L3.77151 19.135C3.64992 18.8963 3.57658 18.599 3.53824 18.1297C3.49941 17.6545 3.49902 17.0483 3.49902 16.2H2.49902ZM7.79902 20.5C6.95069 20.5 6.34452 20.4996 5.86935 20.4608C5.40001 20.4224 5.10268 20.3491 4.86405 20.2275L4.41006 21.1185C4.81316 21.3239 5.25674 21.4141 5.78791 21.4575C6.31325 21.5004 6.9672 21.5 7.79902 21.5V20.5ZM2.8805 19.589C3.21606 20.2475 3.75149 20.783 4.41006 21.1185L4.86405 20.2275C4.39364 19.9878 4.01119 19.6054 3.77151 19.135L2.8805 19.589ZM19.9998 14.5H15.9998V15.5H19.9998V14.5ZM12.9998 6.50002H6.99978V7.50002H12.9998V6.50002ZM17.9998 10.5H8.99978V11.5H17.9998V10.5Z" fill="#F7F7FC"/>
</svg>
