<svg width="27" height="26" viewBox="0 0 27 26" fill="none" xmlns="http://www.w3.org/2000/svg">
<circle cx="13.875" cy="13" r="13" fill="#272236"/>
<path d="M22.0742 5.45648L21.3604 6.17037C23.0638 8.03323 24.0085 10.4661 24.0085 12.9904C24.0085 15.5147 23.0638 17.9476 21.3604 19.8105L22.0742 20.5244C23.9687 18.4695 25.0205 15.777 25.0205 12.9821C25.0205 10.1872 23.9687 7.49469 22.0742 5.43982V5.45648Z" fill="#D2D3D6"/>
<path d="M7.06161 5.51844C8.92447 3.81497 11.3574 2.87031 13.8817 2.87031C16.406 2.87031 18.8389 3.81497 20.7017 5.51844L21.4156 4.80454C19.3608 2.91011 16.6682 1.85834 13.8733 1.85834C11.0785 1.85834 8.38592 2.91011 6.33105 4.80454L7.06161 5.51844Z" fill="#D2D3D6"/>
<path d="M6.39447 19.8174C4.69303 17.955 3.74961 15.5235 3.74961 13.0009C3.74961 10.4783 4.69303 8.04687 6.39447 6.18443L5.68058 5.47054C3.78615 7.5254 2.73438 10.2179 2.73438 13.0128C2.73438 15.8077 3.78615 18.5002 5.68058 20.5551L6.39447 19.8174Z" fill="#D2D3D6"/>
<path d="M20.6939 20.4767C18.831 22.1801 16.3981 23.1248 13.8738 23.1248C11.3495 23.1248 8.9166 22.1801 7.05374 20.4767L6.33984 21.1905C8.39471 23.085 11.0872 24.1368 13.8821 24.1368C16.677 24.1368 19.3695 23.085 21.4244 21.1905L20.6939 20.4767Z" fill="#D2D3D6"/>
<path d="M18.3808 10.6183C18.238 9.12863 16.953 8.6289 15.3277 8.47661V6.42535H14.0712V8.43853C13.7405 8.43853 13.4025 8.43853 13.067 8.43853V6.42535H11.8201V8.49089H9.27148V9.83538C9.27148 9.83538 10.1995 9.81873 10.1853 9.83538C10.3526 9.81698 10.5206 9.86424 10.6537 9.96723C10.7869 10.0702 10.8749 10.2209 10.8992 10.3875V16.0415C10.8956 16.1002 10.8803 16.1577 10.8541 16.2104C10.8279 16.2631 10.7915 16.3101 10.7469 16.3485C10.7031 16.3876 10.6518 16.4175 10.5962 16.4363C10.5406 16.4551 10.4818 16.4624 10.4232 16.4579C10.4399 16.4722 9.50945 16.4579 9.50945 16.4579L9.27148 17.9595H11.7963V20.0583H13.0527V17.9904H14.057V20.0488H15.3158V17.9738C17.4384 17.8453 18.9186 17.3217 19.1042 15.3347C19.2541 13.7356 18.5021 13.0217 17.3004 12.7338C18.031 12.3745 18.4831 11.7082 18.3808 10.6183ZM16.6198 15.0873C16.6198 16.6483 13.9451 16.4698 13.0932 16.4698V13.6999C13.9451 13.7023 16.6198 13.4572 16.6198 15.0873ZM16.0368 11.1846C16.0368 12.6124 13.8047 12.4387 13.0956 12.4387V9.92105C13.8047 9.92105 16.0368 9.69736 16.0368 11.1846Z" fill="white"/>
<path d="M13.8726 26C11.3017 25.9995 8.78858 25.2368 6.65111 23.8081C4.51363 22.3795 2.84776 20.3491 1.86412 17.9738C0.880472 15.5984 0.62323 12.9848 1.12491 10.4632C1.6266 7.94171 2.86468 5.62556 4.68262 3.80762C6.50056 1.98968 8.81671 0.751597 11.3382 0.249913C13.8598 -0.25177 16.4734 0.00547233 18.8488 0.989116C21.2241 1.97276 23.2545 3.63863 24.6831 5.77611C26.1118 7.91358 26.8745 10.4267 26.875 12.9976C26.8753 14.7052 26.5392 16.3961 25.8859 17.9738C25.2326 19.5515 24.2748 20.9849 23.0674 22.1924C21.8599 23.3998 20.4265 24.3576 18.8488 25.0109C17.2711 25.6642 15.5802 26.0003 13.8726 26ZM13.8726 1.01373C11.504 1.01562 9.18907 1.71966 7.22047 3.03688C5.25186 4.35409 3.71795 6.22535 2.81259 8.41414C1.90724 10.6029 1.6711 13.011 2.134 15.334C2.59691 17.6569 3.73809 19.7905 5.4133 21.4651C7.08851 23.1396 9.22256 24.2799 11.5457 24.7419C13.8689 25.2039 16.2768 24.9668 18.4653 24.0606C20.6537 23.1544 22.5243 21.6197 23.8408 19.6506C25.1572 17.6815 25.8603 15.3663 25.8613 12.9976C25.8619 11.4233 25.5522 9.86429 24.9499 8.40975C24.3475 6.9552 23.4644 5.63365 22.351 4.52065C21.2375 3.40766 19.9156 2.52506 18.4609 1.92331C17.0061 1.32157 15.4469 1.01248 13.8726 1.01373Z" fill="#FFFFFB"/>
</svg>
