<svg width="24" height="24" viewBox="0 0 24 24" fill="none" xmlns="http://www.w3.org/2000/svg">
<mask id="mask0_14_769" style="mask-type:alpha" maskUnits="userSpaceOnUse" x="0" y="0" width="24" height="24">
<rect width="24" height="24" fill="#D9D9D9"/>
</mask>
<g mask="url(#mask0_14_769)">
<path fill-rule="evenodd" clip-rule="evenodd" d="M19.6704 17.3017C19.531 17.4411 19.3049 17.4411 19.1655 17.3017L18.1391 16.2753C17.9997 16.1358 17.9997 15.9098 18.1391 15.7704L19.1655 14.744C19.3049 14.6045 19.531 14.6045 19.6704 14.744C19.8098 14.8834 19.8098 15.1094 19.6704 15.2489L19.2534 15.6658L22.5418 15.6658L22.5418 7.23134L13.6165 7.23134C13.4193 7.23134 13.2595 7.0715 13.2595 6.87433C13.2595 6.67715 13.4193 6.51731 13.6165 6.51731L22.8988 6.51731C23.096 6.51731 23.2559 6.67715 23.2559 6.87433L23.2559 16.0228C23.2559 16.22 23.096 16.3798 22.8988 16.3798L19.2534 16.3798L19.6704 16.7968C19.8098 16.9362 19.8098 17.1623 19.6704 17.3017Z" fill="url(#paint0_linear_14_769)"/>
<path fill-rule="evenodd" clip-rule="evenodd" d="M4.70557 6.62215C4.845 6.48272 5.07105 6.48272 5.21047 6.62215L6.23689 7.64856C6.37631 7.78798 6.37631 8.01403 6.23689 8.15346L5.21047 9.17987C5.07105 9.3193 4.845 9.3193 4.70557 9.17987C4.56615 9.04045 4.56615 8.8144 4.70557 8.67498L5.12253 8.25802H1.83415L1.83415 16.6925H10.7595C10.9567 16.6925 11.1165 16.8523 11.1165 17.0495C11.1165 17.2467 10.9567 17.4065 10.7595 17.4065H1.47713C1.27996 17.4065 1.12012 17.2467 1.12012 17.0495L1.12012 7.90101C1.12012 7.70384 1.27996 7.54399 1.47713 7.54399H5.12253L4.70557 7.12704C4.56615 6.98762 4.56615 6.76157 4.70557 6.62215Z" fill="url(#paint1_linear_14_769)"/>
<circle cx="12.1876" cy="11.962" r="6.337" fill="url(#paint2_linear_14_769)"/>
<path d="M8.25851 12.0337L10.8483 13.9668C10.8524 13.9668 10.8524 13.9709 10.8565 13.9709L11.8169 14.685C11.899 14.7466 12.014 14.6891 12.014 14.5865L12.0181 9.26325C12.0098 9.16885 11.9975 9.07035 11.977 8.97595C11.9565 8.88565 11.9278 8.79946 11.8867 8.72559C11.9565 9.24683 11.661 9.85427 11.1603 10.2524C11.0494 10.3427 10.8976 10.4412 10.7293 10.511C10.5487 10.5889 10.0028 10.7777 10.0028 10.7777L8.35701 11.3729C8.07382 11.4755 8.01636 11.8531 8.25851 12.0337Z" fill="#F2EEFF"/>
<path d="M10.8289 10.4661C10.833 10.462 10.8412 10.462 10.8453 10.4579C10.8535 10.4538 10.8617 10.4497 10.874 10.4415C10.8863 10.4373 10.8945 10.4291 10.9069 10.425C10.911 10.4209 10.9192 10.4168 10.9233 10.4168C10.9356 10.4086 10.952 10.4004 10.9643 10.3922C10.9684 10.3881 10.9725 10.3881 10.9766 10.384C10.9889 10.3758 11.0013 10.3676 11.0177 10.3594C11.0259 10.3553 11.03 10.3512 11.0382 10.3471C11.0464 10.3388 11.0587 10.3347 11.0669 10.3265C11.0792 10.3183 11.0915 10.306 11.108 10.2978C11.1121 10.2978 11.1121 10.2937 11.1162 10.2937C11.1326 10.2814 11.149 10.2691 11.1654 10.2568C11.6662 9.85864 11.9617 9.2512 11.8919 8.72995C11.8632 8.6807 11.8262 8.63556 11.7852 8.60272L10.9315 7.97066C10.8494 7.90909 10.7304 7.96655 10.7304 8.06916V9.55902C10.7304 10.4948 10.0039 10.778 10.0039 10.778C10.0039 10.778 10.5539 10.5933 10.7304 10.5153C10.7632 10.4989 10.796 10.4825 10.8289 10.4661Z" fill="#DBD9FF"/>
<path d="M16.1715 11.8408L13.5816 9.90766C13.5775 9.90766 13.5775 9.90356 13.5734 9.90356L12.613 9.18941C12.5309 9.12784 12.416 9.1853 12.416 9.28791V14.6112C12.4242 14.7056 12.4365 14.8041 12.4571 14.8985C12.4776 14.9888 12.5063 15.075 12.5474 15.1489C12.4776 14.6276 12.7731 14.0202 13.2738 13.6221C13.3846 13.5318 13.5365 13.4333 13.7048 13.3635C13.8813 13.2855 14.4312 13.1008 14.4312 13.1008L16.0771 12.5057C16.3603 12.399 16.4136 12.0214 16.1715 11.8408Z" fill="#F2EEFF"/>
<path d="M13.6073 13.4096C13.6032 13.4137 13.595 13.4137 13.5909 13.4178C13.5827 13.4219 13.5745 13.426 13.5622 13.4342C13.5499 13.4383 13.5417 13.4465 13.5294 13.4506C13.5252 13.4547 13.517 13.4588 13.5129 13.4588C13.5006 13.467 13.4842 13.4753 13.4719 13.4835C13.4678 13.4876 13.4637 13.4876 13.4596 13.4917C13.4473 13.4999 13.435 13.5081 13.4185 13.5163C13.4103 13.5204 13.4062 13.5245 13.398 13.5286C13.3898 13.5368 13.3775 13.5409 13.3693 13.5491C13.357 13.5573 13.3447 13.5697 13.3282 13.5779C13.3241 13.5779 13.3241 13.582 13.32 13.582C13.3036 13.5943 13.2872 13.6066 13.2708 13.6189C12.7701 14.017 12.4745 14.6245 12.5443 15.1457C12.573 15.195 12.61 15.2401 12.651 15.2729L13.5006 15.905C13.5827 15.9666 13.7017 15.9091 13.7017 15.8065V14.3166C13.7017 13.385 14.4282 13.0977 14.4282 13.0977C14.4282 13.0977 13.8782 13.2823 13.7017 13.3603C13.673 13.3767 13.6402 13.3932 13.6073 13.4096Z" fill="#DBD9FF"/>
</g>
<defs>
<linearGradient id="paint0_linear_14_769" x1="20.846" y1="13.613" x2="15.8478" y2="7.45448" gradientUnits="userSpaceOnUse">
<stop stop-color="#F0603A"/>
<stop offset="1" stop-color="#F8845B" stop-opacity="0.3"/>
</linearGradient>
<linearGradient id="paint1_linear_14_769" x1="3.52996" y1="10.3109" x2="8.52817" y2="16.4694" gradientUnits="userSpaceOnUse">
<stop stop-color="#F0603A"/>
<stop offset="1" stop-color="#F8845B" stop-opacity="0.3"/>
</linearGradient>
<linearGradient id="paint2_linear_14_769" x1="12.1876" y1="5.625" x2="12.1876" y2="18.299" gradientUnits="userSpaceOnUse">
<stop stop-color="#7770E0"/>
<stop offset="1" stop-color="#554FD8"/>
</linearGradient>
</defs>
</svg>
