<svg width="192" height="68" viewBox="0 0 192 68" fill="none" xmlns="http://www.w3.org/2000/svg">
<mask id="mask0_171_8462" style="mask-type:alpha" maskUnits="userSpaceOnUse" x="0" y="0" width="192" height="68">
<rect y="0.270508" width="192" height="67.4595" fill="#D9D9D9"/>
</mask>
<g mask="url(#mask0_171_8462)">
<line x1="27.2236" y1="60.4077" x2="185.803" y2="60.4077" stroke="url(#paint0_linear_171_8462)" stroke-opacity="0.2" stroke-linecap="round" stroke-dasharray="8 8"/>
<line x1="27.2236" y1="37.2397" x2="185.803" y2="37.2397" stroke="url(#paint1_linear_171_8462)" stroke-opacity="0.2" stroke-linecap="round" stroke-dasharray="8 8"/>
<line x1="27.2236" y1="14.9297" x2="185.803" y2="14.9297" stroke="url(#paint2_linear_171_8462)" stroke-opacity="0.2" stroke-linecap="round" stroke-dasharray="8 8"/>
<g filter="url(#filter0_d_171_8462)">
<path d="M171.243 13.6758C167.39 15.795 158.629 26.6733 154.591 31.7593C150.554 36.8453 146.517 47.0173 142.48 48.0063C138.627 48.9952 134.59 40.9424 130.552 41.9313C126.515 42.9202 122.478 53.0923 118.625 49.9841C114.588 47.0173 110.551 30.7703 106.513 26.6733C102.476 22.5762 98.4393 30.7703 94.5857 29.6401C90.5487 28.6512 86.5116 18.4791 82.4745 16.5013C78.4374 14.3821 74.5838 20.5983 70.5467 26.6733C66.5097 32.7482 62.4726 38.8232 58.4355 37.8342C54.3984 36.8453 50.5448 28.6512 46.5078 31.7593C42.4707 34.7261 38.4336 48.9952 34.3965 48.0063C30.5429 47.0173 26.5059 30.7703 22.4688 29.6401" stroke="url(#paint3_linear_171_8462)" stroke-width="2" stroke-linecap="round" shape-rendering="crispEdges"/>
</g>
<g filter="url(#filter1_d_171_8462)">
<circle cx="168.649" cy="15.838" r="4.32432" fill="#4ED5D2"/>
<circle cx="168.649" cy="15.838" r="3.32432" stroke="white" stroke-width="2"/>
</g>
</g>
<defs>
<filter id="filter0_d_171_8462" x="-4.53125" y="-9.32422" width="202.774" height="90.8965" filterUnits="userSpaceOnUse" color-interpolation-filters="sRGB">
<feFlood flood-opacity="0" result="BackgroundImageFix"/>
<feColorMatrix in="SourceAlpha" type="matrix" values="0 0 0 0 0 0 0 0 0 0 0 0 0 0 0 0 0 0 127 0" result="hardAlpha"/>
<feOffset dy="4"/>
<feGaussianBlur stdDeviation="13"/>
<feComposite in2="hardAlpha" operator="out"/>
<feColorMatrix type="matrix" values="0 0 0 0 0.089761 0 0 0 0 0.0855556 0 0 0 0 0.183333 0 0 0 1 0"/>
<feBlend mode="normal" in2="BackgroundImageFix" result="effect1_dropShadow_171_8462"/>
<feBlend mode="normal" in="SourceGraphic" in2="effect1_dropShadow_171_8462" result="shape"/>
</filter>
<filter id="filter1_d_171_8462" x="114.324" y="-26.4863" width="108.648" height="108.648" filterUnits="userSpaceOnUse" color-interpolation-filters="sRGB">
<feFlood flood-opacity="0" result="BackgroundImageFix"/>
<feColorMatrix in="SourceAlpha" type="matrix" values="0 0 0 0 0 0 0 0 0 0 0 0 0 0 0 0 0 0 127 0" result="hardAlpha"/>
<feOffset dy="12"/>
<feGaussianBlur stdDeviation="25"/>
<feComposite in2="hardAlpha" operator="out"/>
<feColorMatrix type="matrix" values="0 0 0 0 0 0 0 0 0 0 0 0 0 0 0 0 0 0 0.04 0"/>
<feBlend mode="normal" in2="BackgroundImageFix" result="effect1_dropShadow_171_8462"/>
<feBlend mode="normal" in="SourceGraphic" in2="effect1_dropShadow_171_8462" result="shape"/>
</filter>
<linearGradient id="paint0_linear_171_8462" x1="26.7236" y1="60.9077" x2="186.303" y2="60.9077" gradientUnits="userSpaceOnUse">
<stop stop-color="#8E97CD" stop-opacity="0"/>
<stop offset="0.519755" stop-color="#8E97CD"/>
<stop offset="1" stop-color="#8E97CD" stop-opacity="0"/>
</linearGradient>
<linearGradient id="paint1_linear_171_8462" x1="26.7236" y1="37.3049" x2="186.303" y2="37.3047" gradientUnits="userSpaceOnUse">
<stop stop-color="#8E97CD" stop-opacity="0"/>
<stop offset="0.504132" stop-color="#8E97CD"/>
<stop offset="1" stop-color="#8E97CD" stop-opacity="0"/>
</linearGradient>
<linearGradient id="paint2_linear_171_8462" x1="26.7236" y1="15.4297" x2="185.162" y2="14.5552" gradientUnits="userSpaceOnUse">
<stop stop-color="#8E97CD" stop-opacity="0"/>
<stop offset="0.526042" stop-color="#8E97CD"/>
<stop offset="1" stop-color="#8E97CD" stop-opacity="0"/>
</linearGradient>
<linearGradient id="paint3_linear_171_8462" x1="184.165" y1="14.9113" x2="18.7659" y2="14.9113" gradientUnits="userSpaceOnUse">
<stop stop-color="#4ED5D2" stop-opacity="0"/>
<stop offset="0.384502" stop-color="#4ED5D2"/>
<stop offset="0.932292" stop-color="#4ED5D2" stop-opacity="0"/>
</linearGradient>
</defs>
</svg>
