<svg width="20" height="20" viewBox="0 0 20 20" fill="none" xmlns="http://www.w3.org/2000/svg">
<g id="Group 1261154499">
<g id="dypius_icon_purple_text_purple">
<g id="Group 1000010408">
<circle id="Ellipse 260" cx="10.0039" cy="10" r="10" fill="url(#paint0_linear_932_6087)"/>
<g id="Group 1000010406">
<g id="Group 1000010398">
<path id="Vector" d="M3.82467 10.0374L7.82401 13.0099C7.83035 13.0099 7.83035 13.0163 7.83669 13.0163L9.3198 14.1144C9.44656 14.2091 9.62403 14.1207 9.62403 13.9629L9.63037 5.77729C9.61769 5.63213 9.59868 5.48066 9.56699 5.3355C9.5353 5.19665 9.49093 5.06412 9.42755 4.95052C9.5353 5.75204 9.07895 6.6861 8.30571 7.29829C8.13458 7.43714 7.90007 7.58861 7.64021 7.6959C7.36133 7.81581 6.51836 8.10613 6.51836 8.10613L3.97679 9.02126C3.53946 9.17904 3.45072 9.75967 3.82467 10.0374Z" fill="white"/>
<path id="Vector_2" d="M7.78958 7.6262C7.79592 7.61989 7.8086 7.61989 7.81493 7.61358C7.82761 7.60726 7.84029 7.60095 7.8593 7.58833C7.87832 7.58202 7.89099 7.5694 7.91001 7.56309C7.91634 7.55678 7.92902 7.55046 7.93536 7.55046C7.95437 7.53784 7.97973 7.52522 7.99874 7.5126C8.00508 7.50629 8.01142 7.50629 8.01775 7.49997C8.03677 7.48735 8.05578 7.47473 8.08114 7.46211C8.09381 7.4558 8.10015 7.44948 8.11283 7.44317C8.1255 7.43055 8.14452 7.42424 8.15719 7.41162C8.17621 7.39899 8.19522 7.38006 8.22057 7.36744C8.22691 7.36744 8.22691 7.36113 8.23325 7.36113C8.2586 7.34219 8.28395 7.32326 8.30931 7.30433C9.08255 6.69214 9.5389 5.75808 9.43115 4.95655C9.38678 4.88082 9.32974 4.81139 9.26636 4.7609L7.94804 3.78897C7.82127 3.69431 7.63747 3.78266 7.63747 3.94044V6.23142C7.63747 7.67038 6.51562 8.10585 6.51562 8.10585C6.51562 8.10585 7.36493 7.82185 7.63747 7.70193C7.68817 7.67669 7.73888 7.65144 7.78958 7.6262Z" fill="#F2EEFF"/>
</g>
<g id="Group 1000010399">
<path id="Vector_3" d="M16.1038 9.87969L12.1019 6.90711C12.0956 6.90711 12.0956 6.9008 12.0893 6.9008L10.6052 5.80265C10.4784 5.70798 10.3008 5.79633 10.3008 5.95411V14.1398C10.3135 14.2849 10.3325 14.4364 10.3642 14.5815C10.3959 14.7204 10.4403 14.8529 10.5037 14.9665C10.3959 14.165 10.8525 13.2309 11.6263 12.6188C11.7975 12.4799 12.0322 12.3284 12.2922 12.2211C12.5649 12.1012 13.4148 11.8172 13.4148 11.8172L15.958 10.9021C16.3956 10.738 16.478 10.1574 16.1038 9.87969Z" fill="white"/>
<path id="Vector_4" d="M12.1427 12.2907C12.1363 12.297 12.1236 12.297 12.1173 12.3033C12.1046 12.3096 12.0919 12.3159 12.0729 12.3286C12.0539 12.3349 12.0412 12.3475 12.0222 12.3538C12.0158 12.3601 12.0031 12.3664 11.9968 12.3664C11.9778 12.379 11.9524 12.3917 11.9334 12.4043C11.927 12.4106 11.9207 12.4106 11.9143 12.4169C11.8953 12.4295 11.8763 12.4422 11.8509 12.4548C11.8382 12.4611 11.8319 12.4674 11.8192 12.4737C11.8065 12.4863 11.7875 12.4926 11.7748 12.5053C11.7558 12.5179 11.7368 12.5368 11.7114 12.5494C11.705 12.5494 11.705 12.5558 11.6987 12.5558C11.6733 12.5747 11.648 12.5936 11.6226 12.6126C10.8489 13.2247 10.3922 14.1588 10.5 14.9603C10.5444 15.0361 10.6015 15.1055 10.6649 15.156L11.9778 16.1279C12.1046 16.2226 12.2885 16.1342 12.2885 15.9764V13.6855C12.2885 12.2528 13.4111 11.811 13.4111 11.811C13.4111 11.811 12.5612 12.095 12.2885 12.215C12.2441 12.2402 12.1934 12.2654 12.1427 12.2907Z" fill="#F2EEFF"/>
</g>
</g>
</g>
</g>
</g>
<defs>
<linearGradient id="paint0_linear_932_6087" x1="10.0039" y1="0" x2="10.0039" y2="20" gradientUnits="userSpaceOnUse">
<stop stop-color="#7770E0"/>
<stop offset="1" stop-color="#554FD8"/>
</linearGradient>
</defs>
</svg>
