<svg width="16" height="16" viewBox="0 0 16 16" fill="none" xmlns="http://www.w3.org/2000/svg">
<path d="M10.3273 8L10.6841 7.6497C10.875 7.8442 10.875 8.1558 10.6841 8.3503L10.3273 8ZM6.04322 4.3503C5.84975 4.15325 5.85266 3.83668 6.0497 3.64322C6.24675 3.44976 6.56332 3.45266 6.75678 3.6497L6.04322 4.3503ZM6.75678 12.3503C6.56332 12.5473 6.24675 12.5502 6.0497 12.3568C5.85266 12.1633 5.84975 11.8468 6.04322 11.6497L6.75678 12.3503ZM9.97049 8.3503L6.04322 4.3503L6.75678 3.6497L10.6841 7.6497L9.97049 8.3503ZM10.6841 8.3503L6.75678 12.3503L6.04322 11.6497L9.97049 7.6497L10.6841 8.3503Z" fill="#F7F7FC"/>
</svg>
