<svg width="437" height="180" viewBox="0 0 437 180" fill="none" xmlns="http://www.w3.org/2000/svg">
<mask id="mask0_203_716" style="mask-type:alpha" maskUnits="userSpaceOnUse" x="0" y="0" width="437" height="180">
<rect width="437" height="180" rx="12" fill="#D9D9D9"/>
</mask>
<g mask="url(#mask0_203_716)">
<rect width="437" height="180" rx="12" fill="url(#paint0_linear_203_716)"/>
<mask id="mask1_203_716" style="mask-type:alpha" maskUnits="userSpaceOnUse" x="0" y="0" width="437" height="180">
<rect width="437" height="180" rx="12" fill="#8005FF"/>
</mask>
<g mask="url(#mask1_203_716)">
<g filter="url(#filter0_d_203_716)">
<path d="M220.897 99.2893C315.333 117.632 402.372 24.2281 423.467 -20.1193C426.079 -25.6097 429.168 -30.9196 433.479 -35.2063C457.172 -58.7619 497.521 -41.98 497.521 -8.57009V187.028C497.521 210.037 478.158 228.302 455.189 226.96L-0.166664 200.364C-30.3193 198.603 -42.7019 168.717 -16.829 153.132C45.514 115.58 147.459 85.0255 220.897 99.2893Z" fill="url(#paint1_linear_203_716)" shape-rendering="crispEdges"/>
</g>
</g>
</g>
<defs>
<filter id="filter0_d_203_716" x="-134.877" y="-156.206" width="736.398" height="481.235" filterUnits="userSpaceOnUse" color-interpolation-filters="sRGB">
<feFlood flood-opacity="0" result="BackgroundImageFix"/>
<feColorMatrix in="SourceAlpha" type="matrix" values="0 0 0 0 0 0 0 0 0 0 0 0 0 0 0 0 0 0 127 0" result="hardAlpha"/>
<feOffset dy="-6"/>
<feGaussianBlur stdDeviation="52"/>
<feComposite in2="hardAlpha" operator="out"/>
<feColorMatrix type="matrix" values="0 0 0 0 0 0 0 0 0 0 0 0 0 0 0 0 0 0 0.05 0"/>
<feBlend mode="normal" in2="BackgroundImageFix" result="effect1_dropShadow_203_716"/>
<feBlend mode="normal" in="SourceGraphic" in2="effect1_dropShadow_203_716" result="shape"/>
</filter>
<linearGradient id="paint0_linear_203_716" x1="34.7179" y1="169.412" x2="416.394" y2="137.906" gradientUnits="userSpaceOnUse">
<stop stop-color="#E306A5"/>
<stop offset="1" stop-color="#F83131"/>
</linearGradient>
<linearGradient id="paint1_linear_203_716" x1="222.95" y1="349.855" x2="145.084" y2="89.2529" gradientUnits="userSpaceOnUse">
<stop stop-color="#D9D9D9"/>
<stop offset="1" stop-color="#D9D9D9" stop-opacity="0"/>
</linearGradient>
</defs>
</svg>