<svg width="24" height="24" viewBox="0 0 24 24" fill="none" xmlns="http://www.w3.org/2000/svg">
<rect width="24" height="24" rx="8" fill="#1B1B39"/>
<path d="M14.3281 12L14.6849 11.6497C14.8759 11.8442 14.8759 12.1558 14.6849 12.3503L14.3281 12ZM10.0441 8.3503C9.85061 8.15325 9.85351 7.83668 10.0506 7.64322C10.2476 7.44976 10.5642 7.45266 10.7576 7.6497L10.0441 8.3503ZM10.7576 16.3503C10.5642 16.5473 10.2476 16.5502 10.0506 16.3568C9.85351 16.1633 9.85061 15.8468 10.0441 15.6497L10.7576 16.3503ZM13.9713 12.3503L10.0441 8.3503L10.7576 7.6497L14.6849 11.6497L13.9713 12.3503ZM14.6849 12.3503L10.7576 16.3503L10.0441 15.6497L13.9713 11.6497L14.6849 12.3503Z" fill="#4ED5D2"/>
</svg>
