<svg width="28" height="28" viewBox="0 0 28 28" fill="none" xmlns="http://www.w3.org/2000/svg">
  <defs>
    <linearGradient id="gradient" x1="0%" y1="0%" x2="0%" y2="50%">
	  <stop offset="0%" style="stop-color:#FC4F36;" />
	  <stop offset="100%" style="stop-color:#E30613;" />
    </linearGradient>
  </defs>
<path d="M20.0777 10.4998L14.9677 2.85228C14.746 2.51395 14.3727 2.35645 13.9993 2.35645C13.626 2.35645 13.2527 2.51978 13.031 2.85228L7.92102 10.4998H2.33268C1.69102 10.4998 1.16602 11.0248 1.16602 11.6664C1.16602 11.7773 1.18352 11.8823 1.20685 11.9814L4.16435 22.7964C4.43852 23.7764 5.34268 24.4998 6.41602 24.4998H21.5827C22.656 24.4998 23.5602 23.7764 23.8285 22.7906L26.786 11.9756C26.8152 11.8823 26.8327 11.7773 26.8327 11.6664C26.8327 11.0248 26.3077 10.4998 25.666 10.4998H20.0777ZM10.4993 10.4998L13.9993 5.36645L17.4993 10.4998H10.4993ZM13.9993 19.8331C12.7102 19.8331 11.666 18.7889 11.666 17.4998C11.666 16.2106 12.7102 15.1664 13.9993 15.1664C15.2885 15.1664 16.3327 16.2106 16.3327 17.4998C16.3327 18.7889 15.2885 19.8331 13.9993 19.8331Z" fill="url(#gradient)"/>
</svg>

