<svg width="24" height="24" viewBox="0 0 24 24" fill="none" xmlns="http://www.w3.org/2000/svg">
  <defs>
    <linearGradient id="gradient" x1="0%" y1="0%" x2="0%" y2="50%">
	  <stop offset="0%" style="stop-color:#FC4F36;" />
	  <stop offset="100%" style="stop-color:#E30613;" />
    </linearGradient>
  </defs>
<path d="M12 10.9C11.395 10.9 10.9 11.395 10.9 12C10.9 12.605 11.395 13.1 12 13.1C12.61 13.1 13.1 12.605 13.1 12C13.1 11.395 12.61 10.9 12 10.9ZM12 2C6.475 2 2 6.475 2 12C2 17.52 6.475 22 12 22C17.525 22 22 17.52 22 12C22 6.475 17.525 2 12 2ZM14.19 14.19L6 18L9.81 9.81L18 6L14.19 14.19Z" fill="url(#gradient)"/>
</svg>
