<svg width="24" height="24" viewBox="0 0 24 24" fill="none" xmlns="http://www.w3.org/2000/svg">
<rect x="0.5" y="0.5" width="23" height="23" rx="11.5" fill="#F7F7FC" stroke="#565891"/>
<path d="M19.7157 12.0014C19.7157 16.2619 16.2619 19.7157 12.0014 19.7157M19.7157 12.0014C19.7157 7.74091 16.2619 4.28711 12.0014 4.28711M19.7157 12.0014C19.7157 13.4216 16.2619 14.5728 12.0014 14.5728C7.74091 14.5728 4.28711 13.4216 4.28711 12.0014M19.7157 12.0014C19.7157 10.5812 16.2619 9.42997 12.0014 9.42997C7.74091 9.42997 4.28711 10.5812 4.28711 12.0014M12.0014 19.7157C7.74091 19.7157 4.28711 16.2619 4.28711 12.0014M12.0014 19.7157C10.5812 19.7157 9.42997 16.2619 9.42997 12.0014C9.42997 7.74091 10.5812 4.28711 12.0014 4.28711M12.0014 19.7157C13.4216 19.7157 14.5728 16.2619 14.5728 12.0014C14.5728 7.74091 13.4216 4.28711 12.0014 4.28711M4.28711 12.0014C4.28711 7.74091 7.74091 4.28711 12.0014 4.28711" stroke="#312F69" stroke-linecap="round" stroke-linejoin="round"/>
</svg>
