<svg width="24" height="24" viewBox="0 0 24 24" fill="none" xmlns="http://www.w3.org/2000/svg">
<rect x="0.5" y="0.5" width="23" height="23" rx="11.5" fill="#F7F7FC" stroke="#565891"/>
<path d="M17.8327 9.5V16.8333C17.8327 17.7668 17.8327 18.2335 17.651 18.59C17.4912 18.9036 17.2363 19.1586 16.9227 19.3183C16.5661 19.5 16.0994 19.5 15.166 19.5H8.83268C7.89926 19.5 7.43255 19.5 7.07603 19.3183C6.76243 19.1586 6.50746 18.9036 6.34767 18.59C6.16602 18.2335 6.16602 17.7668 6.16602 16.8333V7.16667C6.16602 6.23325 6.16602 5.76654 6.34767 5.41002C6.50746 5.09641 6.76243 4.84144 7.07603 4.68166C7.43255 4.5 7.89926 4.5 8.83268 4.5H12.8327M17.8327 9.5L12.8327 4.5M17.8327 9.5H15.4994C14.5659 9.5 14.0992 9.5 13.7427 9.31834C13.4291 9.15856 13.1741 8.90359 13.0143 8.58998C12.8327 8.23346 12.8327 7.76675 12.8327 6.83333V4.5M8.66602 11.1667H10.3327M8.66602 17L11.166 14.5L12.8327 16.1667L15.3327 13.6667" stroke="#312F69" stroke-linecap="round" stroke-linejoin="round"/>
</svg>
