<svg width="16" height="16" viewBox="0 0 16 16" fill="none" xmlns="http://www.w3.org/2000/svg">
<path d="M15.5 3.00065H13.8333M15.5 8.00065H11.3333M15.5 13.0007H11.3333M3.83333 14.6673V9.30169C3.83333 9.12834 3.83333 9.04167 3.81632 8.95877C3.80122 8.88521 3.77626 8.81404 3.7421 8.74718C3.70359 8.67181 3.64945 8.60413 3.54116 8.46877L0.792175 5.03254C0.683885 4.89717 0.62974 4.82949 0.591237 4.75413C0.557077 4.68726 0.53211 4.61609 0.517015 4.54254C0.5 4.45963 0.5 4.37296 0.5 4.19961V2.66732C0.5 2.20061 0.5 1.96725 0.590828 1.78899C0.670722 1.63219 0.798206 1.50471 0.955008 1.42481C1.13327 1.33398 1.36662 1.33398 1.83333 1.33398H9.16667C9.63338 1.33398 9.86673 1.33398 10.045 1.42481C10.2018 1.50471 10.3293 1.63219 10.4092 1.78899C10.5 1.96725 10.5 2.20061 10.5 2.66732V4.19961C10.5 4.37296 10.5 4.45963 10.483 4.54254C10.4679 4.61609 10.4429 4.68726 10.4088 4.75413C10.3703 4.82949 10.3161 4.89717 10.2078 5.03254L7.45884 8.46877C7.35055 8.60413 7.29641 8.67181 7.2579 8.74718C7.22374 8.81404 7.19878 8.88521 7.18368 8.95877C7.16667 9.04167 7.16667 9.12834 7.16667 9.30169V12.1673L3.83333 14.6673Z" stroke="#857DFA" stroke-linecap="round" stroke-linejoin="round"/>
</svg>
