<svg width="24" height="24" viewBox="0 0 24 24" fill="none" xmlns="http://www.w3.org/2000/svg">
<circle cx="12" cy="12" r="12" fill="url(#paint0_linear_464_3959)"/>
<path d="M4.60073 12.2863L9.47627 15.9256C9.484 15.9256 9.484 15.9333 9.49172 15.9333L11.2998 17.2777C11.4543 17.3936 11.6706 17.2855 11.6706 17.0923L11.6784 7.07079C11.6629 6.89308 11.6397 6.70764 11.6011 6.52992C11.5625 6.35993 11.5084 6.19767 11.4311 6.05859C11.5625 7.03988 11.0062 8.18343 10.0635 8.93292C9.85488 9.10291 9.56899 9.28835 9.25219 9.4197C8.91222 9.56651 7.88457 9.92194 7.88457 9.92194L4.78617 11.0423C4.25303 11.2355 4.14486 11.9463 4.60073 12.2863Z" fill="#F2EEFF"/>
<path d="M9.43978 9.33148C9.44751 9.32375 9.46296 9.32375 9.47069 9.31603C9.48614 9.3083 9.5016 9.30057 9.52478 9.28512C9.54796 9.27739 9.56341 9.26194 9.58659 9.25421C9.59432 9.24648 9.60977 9.23876 9.6175 9.23876C9.64068 9.2233 9.67158 9.20785 9.69476 9.1924C9.70249 9.18467 9.71022 9.18467 9.71794 9.17694C9.74112 9.16149 9.7643 9.14604 9.79521 9.13058C9.81066 9.12286 9.81839 9.11513 9.83384 9.1074C9.8493 9.09195 9.87248 9.08422 9.88793 9.06877C9.91111 9.05332 9.93429 9.03014 9.9652 9.01468C9.97292 9.01468 9.97293 9.00696 9.98065 9.00696C10.0116 8.98378 10.0425 8.9606 10.0734 8.93742C11.016 8.18793 11.5723 7.04438 11.441 6.06309C11.3869 5.97037 11.3174 5.88538 11.2401 5.82356L9.63295 4.63365C9.47842 4.51775 9.25434 4.62593 9.25434 4.81909V7.62388C9.25434 9.38557 7.88672 9.91871 7.88672 9.91871C7.88672 9.91871 8.9221 9.57101 9.25434 9.4242C9.31616 9.39329 9.37797 9.36239 9.43978 9.33148Z" fill="#DBD9FF"/>
<path d="M19.5016 11.92L14.626 8.28074C14.6183 8.28074 14.6183 8.27302 14.6106 8.27302L12.8025 6.92857C12.648 6.81267 12.4316 6.92085 12.4316 7.11401V17.1355C12.4471 17.3132 12.4703 17.4987 12.5089 17.6764C12.5475 17.8464 12.6016 18.0086 12.6789 18.1477C12.5475 17.1664 13.1039 16.0229 14.0465 15.2734C14.2551 15.1034 14.541 14.918 14.8578 14.7866C15.1901 14.6398 16.2254 14.2921 16.2254 14.2921L19.3238 13.1717C19.857 12.9708 19.9574 12.26 19.5016 11.92Z" fill="#F2EEFF"/>
<path d="M14.6707 14.8704C14.663 14.8782 14.6475 14.8782 14.6398 14.8859C14.6243 14.8936 14.6089 14.9013 14.5857 14.9168C14.5625 14.9245 14.5471 14.94 14.5239 14.9477C14.5162 14.9554 14.5007 14.9632 14.493 14.9632C14.4698 14.9786 14.4389 14.9941 14.4157 15.0095C14.408 15.0172 14.4003 15.0172 14.3925 15.025C14.3694 15.0404 14.3462 15.0559 14.3153 15.0713C14.2998 15.0791 14.2921 15.0868 14.2766 15.0945C14.2612 15.11 14.238 15.1177 14.2225 15.1331C14.1994 15.1486 14.1762 15.1718 14.1453 15.1872C14.1376 15.1872 14.1376 15.195 14.1298 15.195C14.0989 15.2181 14.068 15.2413 14.0371 15.2645C13.0944 16.014 12.5381 17.1575 12.6695 18.1388C12.7236 18.2315 12.7931 18.3165 12.8704 18.3783L14.4698 19.5683C14.6243 19.6842 14.8484 19.576 14.8484 19.3828V16.578C14.8484 14.8241 16.216 14.2832 16.216 14.2832C16.216 14.2832 15.1807 14.6309 14.8484 14.7777C14.7943 14.8086 14.7325 14.8395 14.6707 14.8704Z" fill="#DBD9FF"/>
<defs>
<linearGradient id="paint0_linear_464_3959" x1="12" y1="0" x2="12" y2="24" gradientUnits="userSpaceOnUse">
<stop stop-color="#7770E0"/>
<stop offset="1" stop-color="#554FD8"/>
</linearGradient>
</defs>
</svg>
