<svg width="16" height="18" viewBox="0 0 16 18" fill="none" xmlns="http://www.w3.org/2000/svg">
<path d="M8.00033 11.2917V13.125M3.41699 7.19305C3.84913 7.16667 4.38187 7.16667 5.06699 7.16667H10.9337C11.6188 7.16667 12.1515 7.16667 12.5837 7.19305M3.41699 7.19305C2.8777 7.22598 2.49509 7.3 2.16852 7.4664C1.65107 7.73005 1.23038 8.15075 0.966724 8.66819C0.666992 9.25645 0.666992 10.0265 0.666992 11.5667V12.85C0.666992 14.3901 0.666992 15.1602 0.966724 15.7485C1.23038 16.2659 1.65107 16.6866 2.16852 16.9503C2.75678 17.25 3.52685 17.25 5.06699 17.25H10.9337C12.4738 17.25 13.2439 17.25 13.8321 16.9503C14.3496 16.6866 14.7703 16.2659 15.0339 15.7485C15.3337 15.1602 15.3337 14.3901 15.3337 12.85V11.5667C15.3337 10.0265 15.3337 9.25645 15.0339 8.66819C14.7703 8.15075 14.3496 7.73005 13.8321 7.4664C13.5056 7.3 13.123 7.22598 12.5837 7.19305M3.41699 7.19305V5.33333C3.41699 2.80203 5.46902 0.75 8.00033 0.75C10.5316 0.75 12.5837 2.80203 12.5837 5.33333V7.19305" stroke="#312F69" stroke-linecap="round" stroke-linejoin="round"/>
</svg>
