<svg width="145" height="44" viewBox="0 0 145 44" fill="none" xmlns="http://www.w3.org/2000/svg">
<rect x="1" y="1" width="143" height="42" rx="7" fill="#1E1C40" stroke="url(#paint0_linear_534_5834)" stroke-width="2"/>
<path d="M53.228 17.27C54.264 17.27 55.1693 17.4707 55.944 17.872C56.728 18.264 57.33 18.8333 57.75 19.58C58.1793 20.3173 58.394 21.1807 58.394 22.17C58.394 23.1593 58.1793 24.018 57.75 24.746C57.33 25.474 56.728 26.034 55.944 26.426C55.1693 26.8087 54.264 27 53.228 27H50.05V17.27H53.228ZM53.228 25.698C54.3667 25.698 55.2393 25.39 55.846 24.774C56.4527 24.158 56.756 23.29 56.756 22.17C56.756 21.0407 56.4527 20.1587 55.846 19.524C55.2393 18.8893 54.3667 18.572 53.228 18.572H51.646V25.698H53.228ZM66.9198 19.286L62.1878 30.626H60.5358L62.1038 26.874L59.0658 19.286H60.8438L63.0138 25.166L65.2678 19.286H66.9198ZM69.7202 20.42C69.9909 20.0653 70.3596 19.7667 70.8262 19.524C71.2929 19.2813 71.8202 19.16 72.4082 19.16C73.0802 19.16 73.6916 19.328 74.2422 19.664C74.8022 19.9907 75.2409 20.4527 75.5582 21.05C75.8756 21.6473 76.0342 22.3333 76.0342 23.108C76.0342 23.8827 75.8756 24.578 75.5582 25.194C75.2409 25.8007 74.8022 26.2767 74.2422 26.622C73.6916 26.958 73.0802 27.126 72.4082 27.126C71.8202 27.126 71.2976 27.0093 70.8402 26.776C70.3829 26.5333 70.0096 26.2347 69.7202 25.88V30.668H68.1242V19.286H69.7202V20.42ZM74.4102 23.108C74.4102 22.576 74.2982 22.1187 74.0742 21.736C73.8596 21.344 73.5702 21.05 73.2062 20.854C72.8516 20.6487 72.4689 20.546 72.0582 20.546C71.6569 20.546 71.2742 20.6487 70.9102 20.854C70.5556 21.0593 70.2662 21.358 70.0422 21.75C69.8276 22.142 69.7202 22.604 69.7202 23.136C69.7202 23.668 69.8276 24.1347 70.0422 24.536C70.2662 24.928 70.5556 25.2267 70.9102 25.432C71.2742 25.6373 71.6569 25.74 72.0582 25.74C72.4689 25.74 72.8516 25.6373 73.2062 25.432C73.5702 25.2173 73.8596 24.9093 74.0742 24.508C74.2982 24.1067 74.4102 23.64 74.4102 23.108ZM78.4245 18.264C78.1352 18.264 77.8925 18.166 77.6965 17.97C77.5005 17.774 77.4025 17.5313 77.4025 17.242C77.4025 16.9527 77.5005 16.71 77.6965 16.514C77.8925 16.318 78.1352 16.22 78.4245 16.22C78.7045 16.22 78.9425 16.318 79.1385 16.514C79.3345 16.71 79.4325 16.9527 79.4325 17.242C79.4325 17.5313 79.3345 17.774 79.1385 17.97C78.9425 18.166 78.7045 18.264 78.4245 18.264ZM79.2085 19.286V27H77.6125V19.286H79.2085ZM88.2899 19.286V27H86.6939V26.09C86.4419 26.4073 86.1106 26.6593 85.6999 26.846C85.2986 27.0233 84.8692 27.112 84.4119 27.112C83.8052 27.112 83.2592 26.986 82.7739 26.734C82.2979 26.482 81.9199 26.1087 81.6399 25.614C81.3692 25.1193 81.2339 24.522 81.2339 23.822V19.286H82.8159V23.584C82.8159 24.2747 82.9886 24.8067 83.3339 25.18C83.6792 25.544 84.1506 25.726 84.7479 25.726C85.3452 25.726 85.8166 25.544 86.1619 25.18C86.5166 24.8067 86.6939 24.2747 86.6939 23.584V19.286H88.2899ZM93.1957 27.126C92.589 27.126 92.043 27.0187 91.5577 26.804C91.0817 26.58 90.7037 26.2813 90.4237 25.908C90.1437 25.5253 89.9944 25.1007 89.9757 24.634H91.6277C91.6557 24.9607 91.8097 25.236 92.0897 25.46C92.379 25.6747 92.7384 25.782 93.1677 25.782C93.6157 25.782 93.961 25.698 94.2037 25.53C94.4557 25.3527 94.5817 25.1287 94.5817 24.858C94.5817 24.5687 94.4417 24.354 94.1617 24.214C93.891 24.074 93.457 23.92 92.8597 23.752C92.281 23.5933 91.8097 23.4393 91.4457 23.29C91.0817 23.1407 90.7644 22.912 90.4937 22.604C90.2324 22.296 90.1017 21.89 90.1017 21.386C90.1017 20.9753 90.223 20.602 90.4657 20.266C90.7084 19.9207 91.0537 19.65 91.5017 19.454C91.959 19.258 92.4817 19.16 93.0697 19.16C93.947 19.16 94.6517 19.384 95.1837 19.832C95.725 20.2707 96.0144 20.8727 96.0517 21.638H94.4557C94.4277 21.2927 94.2877 21.0173 94.0357 20.812C93.7837 20.6067 93.443 20.504 93.0137 20.504C92.5937 20.504 92.2717 20.5833 92.0477 20.742C91.8237 20.9007 91.7117 21.1107 91.7117 21.372C91.7117 21.5773 91.7864 21.75 91.9357 21.89C92.085 22.03 92.267 22.142 92.4817 22.226C92.6964 22.3007 93.0137 22.3987 93.4337 22.52C93.9937 22.6693 94.451 22.8233 94.8057 22.982C95.1697 23.1313 95.4824 23.3553 95.7437 23.654C96.005 23.9527 96.1404 24.3493 96.1497 24.844C96.1497 25.2827 96.0284 25.6747 95.7857 26.02C95.543 26.3653 95.1977 26.636 94.7497 26.832C94.311 27.028 93.793 27.126 93.1957 27.126ZM98.5182 27.098C98.2289 27.098 97.9862 27 97.7902 26.804C97.5942 26.608 97.4962 26.3653 97.4962 26.076C97.4962 25.7867 97.5942 25.544 97.7902 25.348C97.9862 25.152 98.2289 25.054 98.5182 25.054C98.7982 25.054 99.0362 25.152 99.2322 25.348C99.4282 25.544 99.5262 25.7867 99.5262 26.076C99.5262 26.3653 99.4282 26.608 99.2322 26.804C99.0362 27 98.7982 27.098 98.5182 27.098ZM100.719 23.136C100.719 22.3427 100.878 21.6473 101.195 21.05C101.522 20.4433 101.97 19.9767 102.539 19.65C103.109 19.3233 103.762 19.16 104.499 19.16C105.433 19.16 106.203 19.384 106.809 19.832C107.425 20.2707 107.841 20.9007 108.055 21.722H106.333C106.193 21.3393 105.969 21.0407 105.661 20.826C105.353 20.6113 104.966 20.504 104.499 20.504C103.846 20.504 103.323 20.7373 102.931 21.204C102.549 21.6613 102.357 22.3053 102.357 23.136C102.357 23.9667 102.549 24.6153 102.931 25.082C103.323 25.5487 103.846 25.782 104.499 25.782C105.423 25.782 106.035 25.376 106.333 24.564H108.055C107.831 25.348 107.411 25.9733 106.795 26.44C106.179 26.8973 105.414 27.126 104.499 27.126C103.762 27.126 103.109 26.9627 102.539 26.636C101.97 26.3 101.522 25.8333 101.195 25.236C100.878 24.6293 100.719 23.9293 100.719 23.136ZM112.992 27.126C112.264 27.126 111.606 26.9627 111.018 26.636C110.43 26.3 109.968 25.8333 109.632 25.236C109.296 24.6293 109.128 23.9293 109.128 23.136C109.128 22.352 109.3 21.6567 109.646 21.05C109.991 20.4433 110.462 19.9767 111.06 19.65C111.657 19.3233 112.324 19.16 113.062 19.16C113.799 19.16 114.466 19.3233 115.064 19.65C115.661 19.9767 116.132 20.4433 116.478 21.05C116.823 21.6567 116.996 22.352 116.996 23.136C116.996 23.92 116.818 24.6153 116.464 25.222C116.109 25.8287 115.624 26.3 115.008 26.636C114.401 26.9627 113.729 27.126 112.992 27.126ZM112.992 25.74C113.402 25.74 113.785 25.642 114.14 25.446C114.504 25.25 114.798 24.956 115.022 24.564C115.246 24.172 115.358 23.696 115.358 23.136C115.358 22.576 115.25 22.1047 115.036 21.722C114.821 21.33 114.536 21.036 114.182 20.84C113.827 20.644 113.444 20.546 113.034 20.546C112.623 20.546 112.24 20.644 111.886 20.84C111.54 21.036 111.265 21.33 111.06 21.722C110.854 22.1047 110.752 22.576 110.752 23.136C110.752 23.9667 110.962 24.6107 111.382 25.068C111.811 25.516 112.348 25.74 112.992 25.74ZM127.911 19.16C128.518 19.16 129.059 19.286 129.535 19.538C130.021 19.79 130.399 20.1633 130.669 20.658C130.949 21.1527 131.089 21.75 131.089 22.45V27H129.507V22.688C129.507 21.9973 129.335 21.47 128.989 21.106C128.644 20.7327 128.173 20.546 127.575 20.546C126.978 20.546 126.502 20.7327 126.147 21.106C125.802 21.47 125.629 21.9973 125.629 22.688V27H124.047V22.688C124.047 21.9973 123.875 21.47 123.529 21.106C123.184 20.7327 122.713 20.546 122.115 20.546C121.518 20.546 121.042 20.7327 120.687 21.106C120.342 21.47 120.169 21.9973 120.169 22.688V27H118.573V19.286H120.169V20.168C120.431 19.8507 120.762 19.6033 121.163 19.426C121.565 19.2487 121.994 19.16 122.451 19.16C123.067 19.16 123.618 19.2907 124.103 19.552C124.589 19.8133 124.962 20.1913 125.223 20.686C125.457 20.2193 125.821 19.8507 126.315 19.58C126.81 19.3 127.342 19.16 127.911 19.16Z" fill="#7770E0"/>
<path d="M12.4598 22.3611L20.2899 28.2058C20.3023 28.2058 20.3023 28.2182 20.3147 28.2182L23.2184 30.3774C23.4666 30.5635 23.8141 30.3898 23.8141 30.0796L23.8265 13.985C23.8017 13.6996 23.7644 13.4017 23.7024 13.1163C23.6404 12.8433 23.5535 12.5827 23.4294 12.3594C23.6404 13.9353 22.7469 15.7719 21.233 16.9756C20.8979 17.2486 20.4388 17.5464 19.93 17.7573C19.384 17.9931 17.7336 18.5639 17.7336 18.5639L12.7576 20.3632C11.9014 20.6735 11.7276 21.8151 12.4598 22.3611Z" fill="#7770E0"/>
<path d="M20.2276 17.6214C20.24 17.609 20.2649 17.609 20.2773 17.5965C20.3021 17.5841 20.3269 17.5717 20.3641 17.5469C20.4014 17.5345 20.4262 17.5097 20.4634 17.4973C20.4758 17.4849 20.5006 17.4725 20.513 17.4725C20.5503 17.4476 20.5999 17.4228 20.6371 17.398C20.6495 17.3856 20.6619 17.3856 20.6744 17.3732C20.7116 17.3484 20.7488 17.3235 20.7984 17.2987C20.8233 17.2863 20.8357 17.2739 20.8605 17.2615C20.8853 17.2367 20.9225 17.2243 20.9474 17.1995C20.9846 17.1746 21.0218 17.1374 21.0714 17.1126C21.0839 17.1126 21.0839 17.1002 21.0963 17.1002C21.1459 17.063 21.1955 17.0257 21.2452 16.9885C22.7591 15.7848 23.6525 13.9483 23.4416 12.3723C23.3547 12.2234 23.243 12.0869 23.1189 11.9876L20.5379 10.0766C20.2897 9.89049 19.9298 10.0642 19.9298 10.3744V14.8789C19.9298 17.7082 17.7334 18.5645 17.7334 18.5645C17.7334 18.5645 19.3962 18.006 19.9298 17.7703C20.0291 17.7206 20.1284 17.671 20.2276 17.6214Z" fill="#7770E0"/>
<path d="M36.3846 21.7785L28.5545 15.9338C28.542 15.9338 28.542 15.9214 28.5296 15.9214L25.6259 13.7622C25.3777 13.576 25.0303 13.7498 25.0303 14.06V30.1546C25.0551 30.44 25.0923 30.7378 25.1544 31.0232C25.2164 31.2962 25.3033 31.5568 25.4274 31.7802C25.2164 30.2042 26.1099 28.3677 27.6238 27.164C27.9588 26.891 28.418 26.5932 28.9267 26.3822C29.4603 26.1465 31.1231 25.588 31.1231 25.588L36.0992 23.7887C36.9554 23.4661 37.1167 22.3245 36.3846 21.7785Z" fill="#7770E0"/>
<path d="M28.6294 26.5193C28.617 26.5317 28.5922 26.5317 28.5797 26.5441C28.5549 26.5565 28.5301 26.5689 28.4929 26.5937C28.4556 26.6061 28.4308 26.6309 28.3936 26.6434C28.3812 26.6558 28.3564 26.6682 28.344 26.6682C28.3067 26.693 28.2571 26.7178 28.2199 26.7426C28.2075 26.755 28.1951 26.755 28.1826 26.7674C28.1454 26.7923 28.1082 26.8171 28.0586 26.8419C28.0337 26.8543 28.0213 26.8667 27.9965 26.8791C27.9717 26.9039 27.9345 26.9164 27.9097 26.9412C27.8724 26.966 27.8352 27.0032 27.7856 27.028C27.7731 27.028 27.7732 27.0404 27.7607 27.0404C27.7111 27.0777 27.6615 27.1149 27.6118 27.1521C26.0979 28.3558 25.2045 30.1924 25.4154 31.7683C25.5023 31.9172 25.614 32.0537 25.7381 32.153L28.3067 34.064C28.5549 34.2501 28.9148 34.0764 28.9148 33.7662V29.2617C28.9148 26.4448 31.1112 25.5762 31.1112 25.5762C31.1112 25.5762 29.4484 26.1346 28.9148 26.3704C28.8279 26.42 28.7287 26.4696 28.6294 26.5193Z" fill="#7770E0"/>
<defs>
<linearGradient id="paint0_linear_534_5834" x1="-17.8767" y1="24.2917" x2="160.388" y2="21.6017" gradientUnits="userSpaceOnUse">
<stop stop-color="#7770E0" stop-opacity="0"/>
<stop offset="0.520833" stop-color="#7770E0"/>
<stop offset="1" stop-color="#7770E0" stop-opacity="0"/>
</linearGradient>
</defs>
</svg>
