<svg width="24" height="24" viewBox="0 0 24 24" fill="none" xmlns="http://www.w3.org/2000/svg">
  <defs>
    <linearGradient id="gradient" x1="0%" y1="0%" x2="0%" y2="50%">
	  <stop offset="0%" style="stop-color:#FC4F36;" />
	  <stop offset="100%" style="stop-color:#E30613;" />
    </linearGradient>
  </defs>

<path d="M3 16H8V14H3V16ZM9.5 16H14.5V14H9.5V16ZM16 16H21V14H16V16ZM3 20H5V18H3V20ZM7 20H9V18H7V20ZM11 20H13V18H11V20ZM15 20H17V18H15V20ZM19 20H21V18H19V20ZM3 12H11V10H3V12ZM13 12H21V10H13V12ZM3 4V8H21V4H3Z" fill="url(#gradient)"/>
</svg>
