<svg width="20" height="20" viewBox="0 0 20 20" fill="none" xmlns="http://www.w3.org/2000/svg">
<path d="M19.6867 0C19.9215 0.109603 19.9998 0.292276 19.9998 0.548017C19.9998 2.76618 19.4206 4.8382 18.4449 6.81628C17.5735 8.58559 16.4256 10.1514 14.9646 11.4823C14.8498 11.5866 14.8498 11.7067 14.8445 11.8319C14.7089 14.4885 13.7227 16.7797 11.8965 18.7056C11.8652 18.7369 11.8338 18.7735 11.7973 18.7996C11.6617 18.9196 11.5103 18.977 11.3277 18.904C11.1503 18.8361 11.072 18.7056 11.046 18.5177C10.8999 17.4896 10.7538 16.4614 10.5972 15.3862C10.4563 15.5115 10.3363 15.6159 10.2215 15.7202C9.96586 15.9447 9.76237 15.9447 9.52234 15.7046C7.77437 13.9562 6.02639 12.2077 4.27841 10.4593C4.04882 10.2296 4.04882 10.0261 4.26797 9.77557C4.37233 9.65553 4.48191 9.53549 4.60713 9.38935C3.99665 9.30062 3.4279 9.21712 2.85394 9.13883C2.37911 9.07098 1.89907 9.00313 1.42425 8.93528C1.25206 8.90918 1.1164 8.82046 1.06422 8.64822C1.00682 8.47077 1.06422 8.31941 1.19466 8.18893C2.5513 6.85282 4.15318 5.94989 5.98986 5.46973C6.73602 5.27662 7.4926 5.16179 8.26484 5.14092C8.34311 5.14092 8.44225 5.09395 8.49965 5.03653C10.305 3.07933 12.4809 1.6858 14.9802 0.798539C16.149 0.381002 17.3543 0.114823 18.591 0.0313152C18.6431 0.026096 18.6901 0.0104384 18.7423 0C19.0606 0 19.3736 0 19.6867 0ZM16.3577 5.72025C16.3525 4.57202 15.4081 3.63257 14.2654 3.64301C13.1279 3.64823 12.1939 4.58246 12.1939 5.72025C12.1887 6.86847 13.1331 7.80793 14.2758 7.80793C15.4185 7.80793 16.3629 6.86326 16.3577 5.72025Z" fill="#fff"/>
<path d="M0 19.457C0.172189 18.9455 0.333942 18.434 0.511349 17.9277C0.902687 16.8108 1.29924 15.6991 1.86277 14.6553C2.41586 13.6271 3.61597 13.1365 4.71693 13.4131C5.8492 13.695 6.65797 14.697 6.65797 15.8714C6.65797 16.8474 6.26141 17.6459 5.3796 18.1C4.61258 18.5018 3.80903 18.8411 3.00026 19.1542C2.23324 19.4517 1.44013 19.6866 0.657448 19.9476C0.313071 20.0624 0.182625 20.005 0 19.6918C0 19.6135 0 19.5352 0 19.457Z" fill="#fff"/>
</svg>
