<svg width="24" height="24" viewBox="0 0 24 24" fill="none" xmlns="http://www.w3.org/2000/svg">
<rect x="0.5" y="0.5" width="23" height="23" rx="11.5" fill="#F7F7FC" stroke="#565891"/>
<g clip-path="url(#clip0_488_12532)">
<path fill-rule="evenodd" clip-rule="evenodd" d="M21.4294 12.0008C21.4294 17.2081 17.2081 21.4294 12.0008 21.4294C6.79358 21.4294 2.57227 17.2081 2.57227 12.0008C2.57227 6.79358 6.79358 2.57227 12.0008 2.57227C17.2081 2.57227 21.4294 6.79358 21.4294 12.0008ZM12.3387 9.53285C11.4216 9.91429 9.5888 10.7038 6.84018 11.9013C6.39385 12.0788 6.16004 12.2524 6.13875 12.4222C6.10278 12.7092 6.46211 12.8221 6.95142 12.976C7.01798 12.9969 7.08694 13.0186 7.15764 13.0416C7.63905 13.1981 8.28663 13.3812 8.62328 13.3884C8.92865 13.395 9.26948 13.2691 9.64577 13.0107C12.2139 11.2772 13.5396 10.401 13.6228 10.3821C13.6815 10.3688 13.7629 10.352 13.818 10.401C13.8731 10.45 13.8677 10.5428 13.8619 10.5677C13.8263 10.7194 12.4158 12.0308 11.6858 12.7094C11.4583 12.9209 11.2969 13.071 11.2639 13.1053C11.19 13.182 11.1146 13.2547 11.0422 13.3245C10.595 13.7556 10.2596 14.0789 11.0608 14.6069C11.4458 14.8606 11.7539 15.0704 12.0613 15.2797C12.397 15.5083 12.7318 15.7363 13.165 16.0203C13.2753 16.0926 13.3807 16.1678 13.4834 16.241C13.874 16.5195 14.225 16.7697 14.6586 16.7298C14.9105 16.7066 15.1708 16.4697 15.3029 15.7631C15.6153 14.0933 16.2293 10.4753 16.3712 8.98446C16.3836 8.85384 16.3679 8.68667 16.3554 8.61329C16.3428 8.53991 16.3166 8.43535 16.2212 8.35795C16.1082 8.26629 15.9338 8.24696 15.8558 8.24833C15.5012 8.25458 14.9571 8.44377 12.3387 9.53285Z" fill="#2297D6"/>
</g>
<defs>
<clipPath id="clip0_488_12532">
<rect width="18.8571" height="18.8571" fill="white" transform="translate(2.57227 2.57227)"/>
</clipPath>
</defs>
</svg>
