<svg width="20" height="16" viewBox="0 0 20 16" fill="none" xmlns="http://www.w3.org/2000/svg">
<path d="M6.42083 7.12728C6.12747 6.65091 5.60115 6.33333 5.00065 6.33333H2.50065C1.58018 6.33333 0.833984 7.07953 0.833984 8V13.8333C0.833984 14.7538 1.58018 15.5 2.50065 15.5H5.00065C5.78351 15.5 6.44029 14.9603 6.61919 14.2326M6.42083 7.12728C6.57715 7.38111 6.66732 7.68002 6.66732 8V13.8333C6.66732 13.971 6.65064 14.1047 6.61919 14.2326M6.42083 7.12728C7.39147 6.85767 8.34745 5.83757 8.75236 4.91206L10.2325 1.52891C10.577 0.741547 11.4506 0.330222 12.2769 0.566322C13.1165 0.80619 13.6422 1.63799 13.4987 2.49924L13.079 5.01706C12.9944 5.525 13.3861 5.98739 13.901 5.98739H17.1343C18.1861 5.98739 18.9749 6.9496 18.7686 7.98092L17.8101 12.7735C17.621 13.7187 16.9066 14.4786 15.9662 14.6902C12.5802 15.4523 10.6044 15.2911 6.61919 14.2326" stroke="white" stroke-linecap="round"/>
</svg>
