<svg width="20" height="16" viewBox="0 0 20 16" fill="none" xmlns="http://www.w3.org/2000/svg">
<path d="M13.5792 8.87272C13.8725 9.34909 14.3989 9.66667 14.9993 9.66667L17.4993 9.66667C18.4198 9.66667 19.166 8.92047 19.166 8L19.166 2.16667C19.166 1.24619 18.4198 0.5 17.4994 0.5L14.9994 0.5C14.2165 0.5 13.5597 1.03974 13.3808 1.7674M13.5792 8.87272C13.4229 8.61889 13.3327 8.31998 13.3327 8L13.3327 2.16667C13.3327 2.02905 13.3494 1.89532 13.3808 1.7674M13.5792 8.87272C12.6085 9.14233 11.6526 10.1624 11.2476 11.0879L9.76751 14.4711C9.42304 15.2585 8.54943 15.6698 7.72308 15.4337C6.88355 15.1938 6.35778 14.362 6.50132 13.5008L6.92096 10.9829C7.00562 10.475 6.61391 10.0126 6.09897 10.0126L2.86569 10.0126C1.81394 10.0126 1.02512 9.0504 1.23139 8.01908L2.18991 3.22647C2.37895 2.28126 3.09339 1.52144 4.03378 1.30978C7.41981 0.547662 9.3956 0.708934 13.3808 1.7674" stroke="white" stroke-linecap="round"/>
</svg>
