<svg width="24" height="24" viewBox="0 0 24 24" fill="none" xmlns="http://www.w3.org/2000/svg">
<rect x="0.5" y="0.5" width="23" height="23" rx="11.5" fill="#F7F7FC" stroke="#565891"/>
<g clip-path="url(#clip0_488_12531)">
<path d="M9.13883 18.2666C14.9595 18.2666 18.1441 13.4431 18.1441 9.26142C18.1441 9.12582 18.141 8.9872 18.135 8.8516C18.7545 8.40359 19.2891 7.84867 19.7137 7.21292C19.1368 7.46961 18.5242 7.63726 17.897 7.71013C18.5574 7.31424 19.0519 6.69231 19.2888 5.95965C18.6675 6.32787 17.988 6.58762 17.2795 6.72776C16.8021 6.22051 16.1709 5.88466 15.4835 5.77212C14.7961 5.65957 14.0908 5.77661 13.4766 6.10514C12.8623 6.43367 12.3735 6.95539 12.0855 7.58964C11.7975 8.22389 11.7265 8.93533 11.8834 9.61399C10.6253 9.55085 9.39454 9.22404 8.27086 8.65472C7.14717 8.0854 6.15567 7.28629 5.36064 6.3092C4.95656 7.00588 4.83291 7.83028 5.01482 8.61486C5.19673 9.39943 5.67055 10.0853 6.33999 10.5331C5.83742 10.5171 5.34585 10.3818 4.90592 10.1383V10.1775C4.90546 10.9086 5.15822 11.6173 5.62121 12.1831C6.08421 12.749 6.72886 13.137 7.4456 13.2813C6.98005 13.4087 6.49143 13.4272 6.01756 13.3355C6.21981 13.9643 6.61331 14.5142 7.14315 14.9086C7.67299 15.3029 8.31273 15.522 8.97309 15.5353C7.852 16.4159 6.46713 16.8936 5.04152 16.8913C4.7887 16.8909 4.53613 16.8755 4.28516 16.8449C5.73342 17.7741 7.41814 18.2675 9.13883 18.2666Z" fill="#1DA1F2"/>
</g>
<defs>
<clipPath id="clip0_488_12531">
<rect width="15.4286" height="15.4286" fill="white" transform="translate(4.28516 4.28516)"/>
</clipPath>
</defs>
</svg>
