<svg width="28" height="28" viewBox="0 0 28 28" fill="none" xmlns="http://www.w3.org/2000/svg">
<path d="M14 28C21.7584 28 28 21.7584 28 14C28 6.24162 21.7584 0 14 0C6.24162 0 0 6.24162 0 14C0 21.7584 6.24162 28 14 28Z" fill="#50AF95"/>
<path fill-rule="evenodd" clip-rule="evenodd" d="M15.9079 15.554C15.8013 15.562 15.2508 15.5953 14.0228 15.5953C13.0461 15.5953 12.3526 15.5656 12.1093 15.554C8.3347 15.386 5.51729 14.7216 5.51729 13.926C5.51729 13.1304 8.3347 12.4668 12.1093 12.2962V14.8922C12.3562 14.9101 13.063 14.9523 14.0397 14.9523C15.2118 14.9523 15.7987 14.9029 15.9043 14.8931V12.298C19.671 12.4677 22.4822 13.1322 22.4822 13.926C22.4822 14.7198 19.6719 15.3843 15.9043 15.5531L15.9079 15.554ZM15.9079 12.0295V9.70649H21.1645V6.16406H6.85274V9.70649H12.1084V12.0286C7.83657 12.227 4.62402 13.0828 4.62402 14.1083C4.62402 15.1337 7.83657 15.9886 12.1084 16.1879V23.632H15.907V16.1852C20.1691 15.9868 23.3763 15.1319 23.3763 14.1074C23.3763 13.0828 20.1718 12.2279 15.907 12.0286L15.9079 12.0295Z" fill="white"/>
</svg>
