<svg width="20" height="20" viewBox="0 0 20 20" fill="none" xmlns="http://www.w3.org/2000/svg">
<rect opacity="0.3" width="20" height="20" rx="4" fill="#7770E0"/>
<path fill-rule="evenodd" clip-rule="evenodd" d="M7.08788 13.9778H5.14716C4.73936 13.9778 4.53792 13.9778 4.4151 13.8992C4.28243 13.8132 4.20137 13.6707 4.19154 13.5135C4.18416 13.3686 4.2849 13.1916 4.48633 12.8379L9.27821 4.39155C9.48211 4.03288 9.58528 3.85355 9.71548 3.78722C9.85551 3.71599 10.0226 3.71599 10.1626 3.78722C10.2928 3.85355 10.396 4.03288 10.5999 4.39155L11.585 6.11118L11.59 6.11995C11.8102 6.50473 11.9219 6.69986 11.9707 6.90465C12.0247 7.12821 12.0247 7.36404 11.9707 7.5876C11.9215 7.79395 11.811 7.99049 11.5874 8.38108L9.07037 12.8305L9.06386 12.8419C8.84218 13.2299 8.72984 13.4265 8.57414 13.5748C8.40463 13.737 8.20073 13.8549 7.97717 13.9213C7.77327 13.9778 7.54482 13.9778 7.08788 13.9778ZM11.9888 13.9778H14.7697C15.1799 13.9778 15.3863 13.9778 15.5092 13.8968C15.6418 13.8108 15.7253 13.6658 15.7328 13.5087C15.7398 13.3684 15.6413 13.1984 15.4482 12.8652C15.4416 12.8539 15.4349 12.8423 15.4281 12.8306L14.0352 10.4477L14.0193 10.4208C13.8236 10.0898 13.7248 9.9227 13.5979 9.85809C13.4579 9.78684 13.2932 9.78684 13.1533 9.85809C13.0255 9.92441 12.9224 10.0988 12.7185 10.4501L11.3305 12.833L11.3257 12.8412C11.1225 13.192 11.021 13.3672 11.0283 13.5111C11.0381 13.6683 11.1192 13.8132 11.2518 13.8992C11.3722 13.9778 11.5786 13.9778 11.9888 13.9778Z" fill="#7770E0"/>
</svg>
