<svg width="20" height="20" viewBox="0 0 20 20" fill="none" xmlns="http://www.w3.org/2000/svg">
<rect opacity="0.3" width="20" height="20" rx="4" fill="#7770E0"/>
<path fill-rule="evenodd" clip-rule="evenodd" d="M7.90948 9.14049L10.0011 7.04976L12.0936 9.14219L13.31 7.92501L10.0011 4.61539L6.69225 7.92415L7.90948 9.14049ZM4.61548 10.0002L5.83226 8.78345L7.04903 10.0002L5.83226 11.2169L4.61548 10.0002ZM10.0011 12.9511L7.90948 10.8595L6.69055 12.075L6.69225 12.0767L10.0011 15.3846L13.31 12.075L13.3108 12.0741L12.0936 10.8587L10.0011 12.9511ZM12.9512 10.0005L14.1679 8.78375L15.3847 10.0005L14.1679 11.2172L12.9512 10.0005ZM10.0011 8.76453L11.2354 9.99958H11.2362L11.2354 10.0004L10.0011 11.2355L8.76689 10.0021L8.76519 9.99958L8.76689 9.99788L8.98294 9.78183L9.08842 9.67721L10.0011 8.76453Z" fill="#7770E0"/>
</svg>
