<svg width="31" height="29" viewBox="0 0 31 29" fill="none" xmlns="http://www.w3.org/2000/svg">
<ellipse cx="15.3532" cy="16.6323" rx="3.41176" ry="7.25" fill="#1A1C39"/>
<path fill-rule="evenodd" clip-rule="evenodd" d="M13.7549 16.0259C13.7549 16.9216 14.4705 17.6476 15.3532 17.6476C16.236 17.6476 16.9516 16.9216 16.9516 16.0259V11.1605C16.9516 10.2649 16.236 9.53878 15.3532 9.53878C14.4705 9.53878 13.7549 10.2649 13.7549 11.1605V16.0259ZM16.9516 20.873C16.9516 19.9773 16.236 19.2512 15.3532 19.2512C14.4705 19.2512 13.7549 19.9773 13.7549 20.873V20.8912C13.7549 21.7869 14.4705 22.5129 15.3532 22.5129C16.236 22.5129 16.9516 21.7869 16.9516 20.8912V20.873ZM11.1612 2.50251C12.9883 -0.834169 17.7177 -0.834169 19.5447 2.50251L30.0956 21.7719C31.8711 25.0148 29.56 29 25.9039 29H4.80206C1.14582 29 -1.16528 25.0148 0.610329 21.7719L11.1612 2.50251Z" fill="url(#paint0_linear_440_3610)"/>
<defs>
<linearGradient id="paint0_linear_440_3610" x1="15.3529" y1="-7.67647" x2="15.3529" y2="29" gradientUnits="userSpaceOnUse">
<stop stop-color="#FD5D5D"/>
<stop offset="1" stop-color="#CA4D4D"/>
</linearGradient>
</defs>
</svg>
