<svg width="682" height="378" viewBox="0 0 682 378" fill="none" xmlns="http://www.w3.org/2000/svg">
<rect width="682" height="378" rx="8" fill="#2B2A59"/>
<path d="M363.639 203.375L346.958 186.834C338.909 178.851 334.884 174.86 330.266 173.401C326.204 172.118 321.838 172.165 317.805 173.536C313.219 175.095 309.281 179.172 301.407 187.326L261.441 226.801M363.639 203.375L367.053 199.99C375.112 191.998 379.141 188.002 383.765 186.543C387.831 185.26 392.2 185.311 396.236 186.687C400.824 188.251 404.761 192.339 412.634 200.514L421 208.934M363.639 203.375L403.75 243.565M403.75 243.565C400.176 244 395.543 244 389 244H293C281.799 244 276.198 244 271.92 241.82C268.157 239.903 265.097 236.843 263.18 233.08C262.28 231.313 261.751 229.321 261.441 226.801M403.75 243.565C406.293 243.256 408.301 242.727 410.08 241.82C413.843 239.903 416.903 236.843 418.82 233.08C421 228.802 421 223.201 421 212V208.934M261.441 226.801C261 223.221 261 218.575 261 212V116C261 104.799 261 99.1984 263.18 94.9202C265.097 91.1569 268.157 88.0973 271.92 86.1799C276.198 84 281.799 84 293 84H389C400.201 84 405.802 84 410.08 86.1799C413.843 88.0973 416.903 91.1569 418.82 94.9202C421 99.1984 421 104.799 421 116V208.934M391 133.999C391 145.045 382.046 153.999 371 153.999C359.954 153.999 351 145.045 351 133.999C351 122.953 359.954 113.999 371 113.999C382.046 113.999 391 122.953 391 133.999Z" stroke="#58598A" stroke-width="2" stroke-linecap="round" stroke-linejoin="round"/>
<path d="M237.376 281.832C237.376 279.656 237.867 277.704 238.848 275.976C239.829 274.227 241.163 272.861 242.848 271.88C244.555 270.899 246.443 270.408 248.512 270.408C250.944 270.408 253.067 270.995 254.88 272.168C256.693 273.341 258.016 275.005 258.848 277.16H255.36C254.741 275.816 253.845 274.781 252.672 274.056C251.52 273.331 250.133 272.968 248.512 272.968C246.955 272.968 245.557 273.331 244.32 274.056C243.083 274.781 242.112 275.816 241.408 277.16C240.704 278.483 240.352 280.04 240.352 281.832C240.352 283.603 240.704 285.16 241.408 286.504C242.112 287.827 243.083 288.851 244.32 289.576C245.557 290.301 246.955 290.664 248.512 290.664C250.133 290.664 251.52 290.312 252.672 289.608C253.845 288.883 254.741 287.848 255.36 286.504H258.848C258.016 288.637 256.693 290.291 254.88 291.464C253.067 292.616 250.944 293.192 248.512 293.192C246.443 293.192 244.555 292.712 242.848 291.752C241.163 290.771 239.829 289.416 238.848 287.688C237.867 285.96 237.376 284.008 237.376 281.832ZM270.255 293.288C268.612 293.288 267.119 292.915 265.775 292.168C264.452 291.421 263.407 290.365 262.639 289C261.892 287.613 261.519 286.013 261.519 284.2C261.519 282.408 261.903 280.829 262.671 279.464C263.46 278.077 264.527 277.021 265.871 276.296C267.215 275.549 268.719 275.176 270.383 275.176C272.047 275.176 273.551 275.549 274.895 276.296C276.239 277.021 277.295 278.067 278.063 279.432C278.852 280.797 279.247 282.387 279.247 284.2C279.247 286.013 278.841 287.613 278.031 289C277.241 290.365 276.164 291.421 274.799 292.168C273.433 292.915 271.919 293.288 270.255 293.288ZM270.255 290.728C271.3 290.728 272.281 290.483 273.199 289.992C274.116 289.501 274.852 288.765 275.407 287.784C275.983 286.803 276.271 285.608 276.271 284.2C276.271 282.792 275.993 281.597 275.439 280.616C274.884 279.635 274.159 278.909 273.263 278.44C272.367 277.949 271.396 277.704 270.351 277.704C269.284 277.704 268.303 277.949 267.407 278.44C266.532 278.909 265.828 279.635 265.295 280.616C264.761 281.597 264.495 282.792 264.495 284.2C264.495 285.629 264.751 286.835 265.263 287.816C265.796 288.797 266.5 289.533 267.375 290.024C268.249 290.493 269.209 290.728 270.255 290.728ZM303.588 275.144C304.953 275.144 306.169 275.432 307.236 276.008C308.302 276.563 309.145 277.405 309.764 278.536C310.382 279.667 310.692 281.043 310.692 282.664V293H307.812V283.08C307.812 281.331 307.374 279.997 306.5 279.08C305.646 278.141 304.484 277.672 303.012 277.672C301.497 277.672 300.292 278.163 299.396 279.144C298.5 280.104 298.052 281.501 298.052 283.336V293H295.172V283.08C295.172 281.331 294.734 279.997 293.859 279.08C293.006 278.141 291.844 277.672 290.372 277.672C288.857 277.672 287.651 278.163 286.755 279.144C285.859 280.104 285.411 281.501 285.411 283.336V293H282.499V275.464H285.411V277.992C285.987 277.075 286.755 276.371 287.715 275.88C288.697 275.389 289.774 275.144 290.948 275.144C292.42 275.144 293.721 275.475 294.852 276.136C295.982 276.797 296.825 277.768 297.38 279.048C297.87 277.811 298.681 276.851 299.812 276.168C300.942 275.485 302.201 275.144 303.588 275.144ZM316.396 272.616C315.842 272.616 315.372 272.424 314.988 272.04C314.604 271.656 314.412 271.187 314.412 270.632C314.412 270.077 314.604 269.608 314.988 269.224C315.372 268.84 315.842 268.648 316.396 268.648C316.93 268.648 317.378 268.84 317.74 269.224C318.124 269.608 318.316 270.077 318.316 270.632C318.316 271.187 318.124 271.656 317.74 272.04C317.378 272.424 316.93 272.616 316.396 272.616ZM317.804 275.464V293H314.892V275.464H317.804ZM330.735 275.144C332.869 275.144 334.597 275.795 335.919 277.096C337.242 278.376 337.903 280.232 337.903 282.664V293H335.023V283.08C335.023 281.331 334.586 279.997 333.711 279.08C332.837 278.141 331.642 277.672 330.127 277.672C328.591 277.672 327.365 278.152 326.447 279.112C325.551 280.072 325.103 281.469 325.103 283.304V293H322.191V275.464H325.103V277.96C325.679 277.064 326.458 276.371 327.439 275.88C328.442 275.389 329.541 275.144 330.735 275.144ZM349.316 275.176C350.831 275.176 352.153 275.507 353.284 276.168C354.436 276.829 355.289 277.661 355.844 278.664V275.464H358.788V293.384C358.788 294.984 358.447 296.403 357.764 297.64C357.081 298.899 356.1 299.88 354.82 300.584C353.561 301.288 352.089 301.64 350.404 301.64C348.1 301.64 346.18 301.096 344.644 300.008C343.108 298.92 342.201 297.437 341.924 295.56H344.804C345.124 296.627 345.785 297.48 346.788 298.12C347.791 298.781 348.996 299.112 350.404 299.112C352.004 299.112 353.305 298.611 354.308 297.608C355.332 296.605 355.844 295.197 355.844 293.384V289.704C355.268 290.728 354.415 291.581 353.284 292.264C352.153 292.947 350.831 293.288 349.316 293.288C347.759 293.288 346.34 292.904 345.06 292.136C343.801 291.368 342.809 290.291 342.084 288.904C341.359 287.517 340.996 285.939 340.996 284.168C340.996 282.376 341.359 280.808 342.084 279.464C342.809 278.099 343.801 277.043 345.06 276.296C346.34 275.549 347.759 275.176 349.316 275.176ZM355.844 284.2C355.844 282.877 355.577 281.725 355.044 280.744C354.511 279.763 353.785 279.016 352.868 278.504C351.972 277.971 350.98 277.704 349.892 277.704C348.804 277.704 347.812 277.96 346.916 278.472C346.02 278.984 345.305 279.731 344.772 280.712C344.239 281.693 343.972 282.845 343.972 284.168C343.972 285.512 344.239 286.685 344.772 287.688C345.305 288.669 346.02 289.427 346.916 289.96C347.812 290.472 348.804 290.728 349.892 290.728C350.98 290.728 351.972 290.472 352.868 289.96C353.785 289.427 354.511 288.669 355.044 287.688C355.577 286.685 355.844 285.523 355.844 284.2ZM377.296 293.288C375.952 293.288 374.747 293.064 373.68 292.616C372.614 292.147 371.771 291.507 371.152 290.696C370.534 289.864 370.192 288.915 370.128 287.848H373.136C373.222 288.723 373.627 289.437 374.352 289.992C375.099 290.547 376.07 290.824 377.264 290.824C378.374 290.824 379.248 290.579 379.888 290.088C380.528 289.597 380.848 288.979 380.848 288.232C380.848 287.464 380.507 286.899 379.824 286.536C379.142 286.152 378.086 285.779 376.656 285.416C375.355 285.075 374.288 284.733 373.456 284.392C372.646 284.029 371.942 283.507 371.344 282.824C370.768 282.12 370.48 281.203 370.48 280.072C370.48 279.176 370.747 278.355 371.28 277.608C371.814 276.861 372.571 276.275 373.552 275.848C374.534 275.4 375.654 275.176 376.912 275.176C378.854 275.176 380.422 275.667 381.616 276.648C382.811 277.629 383.451 278.973 383.536 280.68H380.624C380.56 279.763 380.187 279.027 379.504 278.472C378.843 277.917 377.947 277.64 376.816 277.64C375.771 277.64 374.939 277.864 374.32 278.312C373.702 278.76 373.392 279.347 373.392 280.072C373.392 280.648 373.574 281.128 373.936 281.512C374.32 281.875 374.79 282.173 375.344 282.408C375.92 282.621 376.71 282.867 377.712 283.144C378.971 283.485 379.995 283.827 380.784 284.168C381.574 284.488 382.246 284.979 382.8 285.64C383.376 286.301 383.675 287.165 383.696 288.232C383.696 289.192 383.43 290.056 382.896 290.824C382.363 291.592 381.606 292.2 380.624 292.648C379.664 293.075 378.555 293.288 377.296 293.288ZM394.879 293.288C393.236 293.288 391.743 292.915 390.399 292.168C389.076 291.421 388.031 290.365 387.263 289C386.516 287.613 386.143 286.013 386.143 284.2C386.143 282.408 386.527 280.829 387.295 279.464C388.084 278.077 389.151 277.021 390.495 276.296C391.839 275.549 393.343 275.176 395.007 275.176C396.671 275.176 398.175 275.549 399.519 276.296C400.863 277.021 401.919 278.067 402.687 279.432C403.476 280.797 403.871 282.387 403.871 284.2C403.871 286.013 403.466 287.613 402.655 289C401.866 290.365 400.788 291.421 399.423 292.168C398.058 292.915 396.543 293.288 394.879 293.288ZM394.879 290.728C395.924 290.728 396.906 290.483 397.823 289.992C398.74 289.501 399.476 288.765 400.031 287.784C400.607 286.803 400.895 285.608 400.895 284.2C400.895 282.792 400.618 281.597 400.063 280.616C399.508 279.635 398.783 278.909 397.887 278.44C396.991 277.949 396.02 277.704 394.975 277.704C393.908 277.704 392.927 277.949 392.031 278.44C391.156 278.909 390.452 279.635 389.919 280.616C389.386 281.597 389.119 282.792 389.119 284.2C389.119 285.629 389.375 286.835 389.887 287.816C390.42 288.797 391.124 289.533 391.999 290.024C392.874 290.493 393.834 290.728 394.879 290.728ZM414.772 293.288C413.129 293.288 411.636 292.915 410.292 292.168C408.969 291.421 407.924 290.365 407.156 289C406.409 287.613 406.036 286.013 406.036 284.2C406.036 282.408 406.42 280.829 407.188 279.464C407.977 278.077 409.044 277.021 410.388 276.296C411.732 275.549 413.236 275.176 414.9 275.176C416.564 275.176 418.068 275.549 419.412 276.296C420.756 277.021 421.812 278.067 422.58 279.432C423.369 280.797 423.764 282.387 423.764 284.2C423.764 286.013 423.358 287.613 422.548 289C421.758 290.365 420.681 291.421 419.316 292.168C417.95 292.915 416.436 293.288 414.772 293.288ZM414.772 290.728C415.817 290.728 416.798 290.483 417.716 289.992C418.633 289.501 419.369 288.765 419.924 287.784C420.5 286.803 420.788 285.608 420.788 284.2C420.788 282.792 420.51 281.597 419.956 280.616C419.401 279.635 418.676 278.909 417.78 278.44C416.884 277.949 415.913 277.704 414.868 277.704C413.801 277.704 412.82 277.949 411.924 278.44C411.049 278.909 410.345 279.635 409.812 280.616C409.278 281.597 409.012 282.792 409.012 284.2C409.012 285.629 409.268 286.835 409.78 287.816C410.313 288.797 411.017 289.533 411.892 290.024C412.766 290.493 413.726 290.728 414.772 290.728ZM435.561 275.144C437.694 275.144 439.422 275.795 440.745 277.096C442.067 278.376 442.729 280.232 442.729 282.664V293H439.849V283.08C439.849 281.331 439.411 279.997 438.537 279.08C437.662 278.141 436.467 277.672 434.953 277.672C433.417 277.672 432.19 278.152 431.273 279.112C430.377 280.072 429.929 281.469 429.929 283.304V293H427.017V275.464H429.929V277.96C430.505 277.064 431.283 276.371 432.265 275.88C433.267 275.389 434.366 275.144 435.561 275.144Z" fill="#58598A"/>
</svg>
