<svg width="164" height="150" viewBox="0 0 164 150" fill="none" xmlns="http://www.w3.org/2000/svg">
<rect width="164" height="150" rx="8" fill="#2B2A59"/>
<path d="M90.5641 93.3753L82.7799 85.656C79.0236 81.931 77.1454 80.0685 74.99 79.3876C73.0944 78.7887 71.0571 78.8107 69.1749 79.4505C67.0348 80.1779 65.1973 82.0806 61.5225 85.886L42.8718 104.308M90.5641 93.3753L92.1572 91.7955C95.9181 88.0659 97.7986 86.2011 99.9562 85.5205C101.854 84.9219 103.893 84.9453 105.776 85.5874C107.917 86.3175 109.754 88.225 113.429 92.0401L117.333 95.9697M90.5641 93.3753L109.282 112.131M109.282 112.131C107.615 112.334 105.453 112.334 102.399 112.334H57.5993C52.3722 112.334 49.7586 112.334 47.7621 111.316C46.0059 110.422 44.5781 108.994 43.6833 107.238C43.2632 106.413 43.0166 105.483 42.8718 104.308M109.282 112.131C110.47 111.986 111.406 111.739 112.237 111.316C113.993 110.422 115.421 108.994 116.315 107.238C117.333 105.241 117.333 102.627 117.333 97.4003V95.9697M42.8718 104.308C42.666 102.637 42.666 100.469 42.666 97.4003V52.6003C42.666 47.3732 42.666 44.7596 43.6833 42.7631C44.5781 41.0069 46.0059 39.5791 47.7621 38.6843C49.7586 37.667 52.3722 37.667 57.5993 37.667H102.399C107.626 37.667 110.24 37.667 112.237 38.6843C113.993 39.5791 115.421 41.0069 116.315 42.7631C117.333 44.7596 117.333 47.3732 117.333 52.6003V95.9697M103.333 60.9998C103.333 66.1545 99.154 70.3332 93.9993 70.3332C88.8447 70.3332 84.666 66.1545 84.666 60.9998C84.666 55.8452 88.8447 51.6665 93.9993 51.6665C99.154 51.6665 103.333 55.8452 103.333 60.9998Z" stroke="#58598A" stroke-width="2" stroke-linecap="round" stroke-linejoin="round"/>
</svg>
