<svg xmlns="http://www.w3.org/2000/svg" width="10" height="12" viewBox="0 0 10 12" fill="none">
  <g clip-path="url(#clip0_1278_12695)">
    <mask id="path-1-outside-1_1278_12695" maskUnits="userSpaceOnUse" x="-1" y="-1" width="12" height="13" fill="black">
      <rect fill="white" x="-1" y="-1" width="12" height="13"/>
      <path fill-rule="evenodd" clip-rule="evenodd" d="M3.15698 4.41417L4.84137 3.46788V1.68875C4.64565 1.65374 4.46842 1.55056 4.34073 1.3973L1.64222 2.96799C1.67431 3.05838 1.69173 3.15522 1.69173 3.25667C1.69173 3.34153 1.67981 3.42269 1.65689 3.50016L3.15698 4.41417ZM4.19769 1.15104C4.16189 1.05521 4.14356 0.953667 4.14359 0.851291C4.14359 0.616102 4.23804 0.403049 4.39116 0.249023C4.54429 0.0949978 4.7561 0 4.98992 0C5.22373 0 5.43554 0.0949978 5.58867 0.249023C5.66734 0.32806 5.72971 0.421954 5.7722 0.525311C5.81468 0.628667 5.83645 0.739448 5.83624 0.851291C5.83624 0.95459 5.8179 1.05328 5.78489 1.14459L8.49624 2.72173C8.5155 2.69868 8.53475 2.67562 8.55584 2.65441C8.63442 2.57527 8.72777 2.51254 8.83052 2.4698C8.93327 2.42707 9.04341 2.40517 9.1546 2.40538C9.38841 2.40538 9.60022 2.50038 9.75335 2.65441C9.83202 2.73344 9.89439 2.82734 9.93688 2.93069C9.97936 3.03405 10.0011 3.14483 10.0009 3.25667C10.0009 3.49186 9.90648 3.70399 9.75335 3.85802C9.62175 3.99055 9.45022 4.07552 9.26554 4.09966V7.22721C9.45535 7.25212 9.62498 7.33974 9.75335 7.46886C9.90648 7.62288 10.0009 7.83594 10.0009 8.0702C10.001 8.18202 9.97919 8.29277 9.93669 8.39609C9.8942 8.49942 9.83186 8.59331 9.75325 8.67237C9.67465 8.75144 9.58131 8.81415 9.47859 8.85689C9.37586 8.89964 9.26576 8.92159 9.1546 8.9215C9.02908 8.92169 8.9051 8.89373 8.79169 8.83964C8.67828 8.78555 8.57829 8.7067 8.49899 8.60883L5.78398 10.1878C5.81699 10.2791 5.83532 10.3778 5.83532 10.4811C5.83532 10.7163 5.74088 10.9294 5.58775 11.0834C5.50918 11.1625 5.41583 11.2253 5.31308 11.268C5.21032 11.3107 5.10019 11.3326 4.989 11.3324C4.75518 11.3324 4.54337 11.2374 4.39025 11.0834C4.23712 10.9294 4.14268 10.7163 4.14268 10.4811C4.14268 10.376 4.16193 10.2745 4.19678 10.1814L1.49918 8.61252C1.41981 8.70964 1.32 8.78782 1.20694 8.84142C1.09388 8.89501 0.970395 8.92268 0.845409 8.92242C0.611593 8.92242 0.399783 8.82742 0.246656 8.67339C0.0944464 8.51937 2.9191e-06 8.30631 2.9191e-06 8.07113C2.9191e-06 7.83594 0.0944464 7.62381 0.247573 7.46978C0.377681 7.33878 0.546663 7.25395 0.728959 7.22814V4.09874C0.546538 4.07333 0.377434 3.98845 0.247573 3.8571C0.168844 3.77829 0.106428 3.68457 0.0639336 3.58136C0.0214392 3.47814 -0.000289828 3.36747 2.9191e-06 3.25575C2.9191e-06 3.02056 0.0944464 2.80751 0.247573 2.65348C0.326149 2.57435 0.419495 2.51161 0.522248 2.46888C0.625001 2.42614 0.735136 2.40425 0.846326 2.40446C0.972069 2.40424 1.09627 2.43228 1.20986 2.48653C1.32345 2.54079 1.42355 2.61988 1.50285 2.71804L4.19769 1.15104ZM5.64277 1.39176C5.51426 1.54937 5.33359 1.65513 5.13387 1.68967V3.46788L6.8146 4.44737L8.35962 3.54905C8.3257 3.45774 8.30827 3.35813 8.30827 3.25575C8.30827 3.15614 8.3257 3.0593 8.35687 2.97076L5.64277 1.39176ZM9.00697 4.09413C8.83595 4.06421 8.67835 3.98173 8.55584 3.85802C8.53842 3.84049 8.52192 3.82297 8.50633 3.8036L6.96406 4.70009V6.61664L8.51275 7.5159C8.5265 7.50022 8.54026 7.48454 8.55493 7.46978C8.67756 7.34624 8.8351 7.26379 9.00605 7.23367L9.00697 4.09413ZM8.35871 8.36165C8.3257 8.27127 8.30827 8.1735 8.30827 8.07205C8.30827 7.96506 8.32753 7.86268 8.36421 7.76769L6.86595 6.89795L5.13387 7.91064V9.64366C5.33359 9.6782 5.51426 9.78396 5.64277 9.94157L8.35871 8.36165ZM4.34073 9.93511C4.46842 9.78185 4.64565 9.67868 4.84137 9.64366V7.90234L3.10288 6.8878L1.62755 7.74463C1.66881 7.84516 1.69265 7.95584 1.69265 8.07205C1.69265 8.17535 1.67431 8.27403 1.6413 8.36534L4.34073 9.93511ZM0.986616 7.23183C1.16358 7.26134 1.32221 7.34711 1.44416 7.46978C1.45333 7.479 1.46158 7.48823 1.46984 7.49745L2.97268 6.62495V4.64475L1.52577 3.76302C1.50101 3.79715 1.4735 3.82851 1.44416 3.85802C1.31984 3.9831 1.15996 4.06625 0.986616 4.09597V7.23183ZM0.847243 3.81283C0.850911 3.81283 0.854578 3.8119 0.858246 3.8119H0.865581C1.0057 3.80748 1.13886 3.74942 1.23785 3.64958C1.28936 3.59792 1.3302 3.53653 1.35806 3.46895C1.38591 3.40136 1.40021 3.32891 1.40015 3.25575C1.40015 3.10173 1.3378 2.96246 1.23785 2.86192C1.13791 2.76139 0.999453 2.69868 0.846326 2.69868C0.693199 2.69868 0.554743 2.76139 0.454798 2.86192C0.403297 2.91359 0.362448 2.97497 0.334596 3.04255C0.306745 3.11014 0.29244 3.18259 0.292502 3.25575C0.292502 3.40978 0.354853 3.54905 0.454798 3.64958C0.506288 3.70146 0.567467 3.7426 0.634817 3.77061C0.702168 3.79863 0.774361 3.81297 0.847243 3.81283ZM5.38053 10.0891C5.32917 10.0373 5.26814 9.99624 5.20095 9.96823C5.13376 9.94022 5.06173 9.92583 4.989 9.92589C4.83587 9.92589 4.69742 9.98861 4.59747 10.0891C4.49753 10.1897 4.43518 10.3289 4.43518 10.483C4.43518 10.637 4.49753 10.7763 4.59747 10.8768C4.69742 10.9773 4.83587 11.04 4.989 11.04C5.14213 11.04 5.28058 10.9773 5.38053 10.8768C5.48047 10.7763 5.54282 10.637 5.54282 10.483C5.54282 10.3289 5.48139 10.1897 5.38053 10.0891ZM5.38053 0.457465C5.32917 0.405661 5.26814 0.364572 5.20095 0.336557C5.13376 0.308542 5.06173 0.294153 4.989 0.294217C4.83587 0.294217 4.69742 0.356934 4.59747 0.457465C4.49753 0.557997 4.43518 0.697266 4.43518 0.851291C4.43518 1.00532 4.49753 1.14459 4.59747 1.24512C4.64883 1.29692 4.70986 1.33801 4.77705 1.36603C4.84424 1.39404 4.91627 1.40843 4.989 1.40837C5.14213 1.40837 5.28058 1.34565 5.38053 1.24512C5.43203 1.19346 5.47288 1.13207 5.50073 1.06449C5.52858 0.996904 5.54289 0.924452 5.54282 0.851291C5.54282 0.697266 5.48139 0.557997 5.38053 0.457465ZM9.54521 7.67822C9.49385 7.62642 9.43282 7.58533 9.36563 7.55731C9.29844 7.5293 9.22641 7.51491 9.15368 7.51497C9.00055 7.51497 8.8621 7.57769 8.76215 7.67822C8.71065 7.72988 8.6698 7.79127 8.64195 7.85885C8.6141 7.92644 8.59979 7.99889 8.59986 8.07205C8.59986 8.22607 8.66221 8.36534 8.76215 8.46587C8.81351 8.51768 8.87454 8.55877 8.94173 8.58678C9.00892 8.6148 9.08095 8.62919 9.15368 8.62912C9.30681 8.62912 9.44526 8.56641 9.54521 8.46587C9.59671 8.41421 9.63756 8.35283 9.66541 8.28524C9.69326 8.21766 9.70757 8.14521 9.7075 8.07205C9.7075 7.91802 9.64607 7.77875 9.54521 7.67822ZM1.23785 7.67822C1.13791 7.57769 0.999453 7.51497 0.846326 7.51497C0.693199 7.51497 0.554743 7.57769 0.454798 7.67822C0.403297 7.72988 0.362448 7.79127 0.334596 7.85885C0.306745 7.92644 0.29244 7.99889 0.292502 8.07205C0.292502 8.22607 0.354853 8.36534 0.454798 8.46587C0.554743 8.56641 0.693199 8.62912 0.846326 8.62912C0.999453 8.62912 1.13791 8.56641 1.23785 8.46587C1.28936 8.41421 1.3302 8.35283 1.35806 8.28524C1.38591 8.21766 1.40021 8.14521 1.40015 8.07205C1.39985 7.92437 1.34151 7.7828 1.23785 7.67822ZM8.66037 3.50754C8.66771 3.51492 8.67321 3.52414 8.67871 3.53337C8.68421 3.54259 8.68788 3.55181 8.69155 3.56196C8.71264 3.59332 8.73648 3.62283 8.76215 3.64958C8.81351 3.70138 8.87454 3.74247 8.94173 3.77048C9.00892 3.7985 9.08095 3.81289 9.15368 3.81283C9.30681 3.81283 9.44526 3.75011 9.54521 3.64958C9.59671 3.59792 9.63756 3.53653 9.66541 3.46895C9.69326 3.40136 9.70757 3.32891 9.7075 3.25575C9.7075 3.10173 9.64515 2.96246 9.54521 2.86192C9.49385 2.81012 9.43282 2.76903 9.36563 2.74102C9.29844 2.713 9.22641 2.69861 9.15368 2.69868C9.00055 2.69868 8.8621 2.76139 8.76215 2.86192C8.71065 2.91359 8.6698 2.97497 8.64195 3.04255C8.6141 3.11014 8.59979 3.18259 8.59986 3.25575C8.60077 3.34706 8.62278 3.43191 8.66037 3.50754ZM3.24684 6.59359C3.26767 6.61612 3.28139 6.64437 3.28627 6.67475L4.85696 7.60352V5.76997L3.24684 4.80615V6.59359ZM6.69082 4.83105L5.13112 5.77089V7.60536L6.69082 6.67844V4.83105ZM4.98717 3.68831L3.46507 4.60417L4.99542 5.53109L6.48176 4.62354L4.98717 3.68831Z"/>
    </mask>
    <path fill-rule="evenodd" clip-rule="evenodd" d="M3.15698 4.41417L4.84137 3.46788V1.68875C4.64565 1.65374 4.46842 1.55056 4.34073 1.3973L1.64222 2.96799C1.67431 3.05838 1.69173 3.15522 1.69173 3.25667C1.69173 3.34153 1.67981 3.42269 1.65689 3.50016L3.15698 4.41417ZM4.19769 1.15104C4.16189 1.05521 4.14356 0.953667 4.14359 0.851291C4.14359 0.616102 4.23804 0.403049 4.39116 0.249023C4.54429 0.0949978 4.7561 0 4.98992 0C5.22373 0 5.43554 0.0949978 5.58867 0.249023C5.66734 0.32806 5.72971 0.421954 5.7722 0.525311C5.81468 0.628667 5.83645 0.739448 5.83624 0.851291C5.83624 0.95459 5.8179 1.05328 5.78489 1.14459L8.49624 2.72173C8.5155 2.69868 8.53475 2.67562 8.55584 2.65441C8.63442 2.57527 8.72777 2.51254 8.83052 2.4698C8.93327 2.42707 9.04341 2.40517 9.1546 2.40538C9.38841 2.40538 9.60022 2.50038 9.75335 2.65441C9.83202 2.73344 9.89439 2.82734 9.93688 2.93069C9.97936 3.03405 10.0011 3.14483 10.0009 3.25667C10.0009 3.49186 9.90648 3.70399 9.75335 3.85802C9.62175 3.99055 9.45022 4.07552 9.26554 4.09966V7.22721C9.45535 7.25212 9.62498 7.33974 9.75335 7.46886C9.90648 7.62288 10.0009 7.83594 10.0009 8.0702C10.001 8.18202 9.97919 8.29277 9.93669 8.39609C9.8942 8.49942 9.83186 8.59331 9.75325 8.67237C9.67465 8.75144 9.58131 8.81415 9.47859 8.85689C9.37586 8.89964 9.26576 8.92159 9.1546 8.9215C9.02908 8.92169 8.9051 8.89373 8.79169 8.83964C8.67828 8.78555 8.57829 8.7067 8.49899 8.60883L5.78398 10.1878C5.81699 10.2791 5.83532 10.3778 5.83532 10.4811C5.83532 10.7163 5.74088 10.9294 5.58775 11.0834C5.50918 11.1625 5.41583 11.2253 5.31308 11.268C5.21032 11.3107 5.10019 11.3326 4.989 11.3324C4.75518 11.3324 4.54337 11.2374 4.39025 11.0834C4.23712 10.9294 4.14268 10.7163 4.14268 10.4811C4.14268 10.376 4.16193 10.2745 4.19678 10.1814L1.49918 8.61252C1.41981 8.70964 1.32 8.78782 1.20694 8.84142C1.09388 8.89501 0.970395 8.92268 0.845409 8.92242C0.611593 8.92242 0.399783 8.82742 0.246656 8.67339C0.0944464 8.51937 2.9191e-06 8.30631 2.9191e-06 8.07113C2.9191e-06 7.83594 0.0944464 7.62381 0.247573 7.46978C0.377681 7.33878 0.546663 7.25395 0.728959 7.22814V4.09874C0.546538 4.07333 0.377434 3.98845 0.247573 3.8571C0.168844 3.77829 0.106428 3.68457 0.0639336 3.58136C0.0214392 3.47814 -0.000289828 3.36747 2.9191e-06 3.25575C2.9191e-06 3.02056 0.0944464 2.80751 0.247573 2.65348C0.326149 2.57435 0.419495 2.51161 0.522248 2.46888C0.625001 2.42614 0.735136 2.40425 0.846326 2.40446C0.972069 2.40424 1.09627 2.43228 1.20986 2.48653C1.32345 2.54079 1.42355 2.61988 1.50285 2.71804L4.19769 1.15104ZM5.64277 1.39176C5.51426 1.54937 5.33359 1.65513 5.13387 1.68967V3.46788L6.8146 4.44737L8.35962 3.54905C8.3257 3.45774 8.30827 3.35813 8.30827 3.25575C8.30827 3.15614 8.3257 3.0593 8.35687 2.97076L5.64277 1.39176ZM9.00697 4.09413C8.83595 4.06421 8.67835 3.98173 8.55584 3.85802C8.53842 3.84049 8.52192 3.82297 8.50633 3.8036L6.96406 4.70009V6.61664L8.51275 7.5159C8.5265 7.50022 8.54026 7.48454 8.55493 7.46978C8.67756 7.34624 8.8351 7.26379 9.00605 7.23367L9.00697 4.09413ZM8.35871 8.36165C8.3257 8.27127 8.30827 8.1735 8.30827 8.07205C8.30827 7.96506 8.32753 7.86268 8.36421 7.76769L6.86595 6.89795L5.13387 7.91064V9.64366C5.33359 9.6782 5.51426 9.78396 5.64277 9.94157L8.35871 8.36165ZM4.34073 9.93511C4.46842 9.78185 4.64565 9.67868 4.84137 9.64366V7.90234L3.10288 6.8878L1.62755 7.74463C1.66881 7.84516 1.69265 7.95584 1.69265 8.07205C1.69265 8.17535 1.67431 8.27403 1.6413 8.36534L4.34073 9.93511ZM0.986616 7.23183C1.16358 7.26134 1.32221 7.34711 1.44416 7.46978C1.45333 7.479 1.46158 7.48823 1.46984 7.49745L2.97268 6.62495V4.64475L1.52577 3.76302C1.50101 3.79715 1.4735 3.82851 1.44416 3.85802C1.31984 3.9831 1.15996 4.06625 0.986616 4.09597V7.23183ZM0.847243 3.81283C0.850911 3.81283 0.854578 3.8119 0.858246 3.8119H0.865581C1.0057 3.80748 1.13886 3.74942 1.23785 3.64958C1.28936 3.59792 1.3302 3.53653 1.35806 3.46895C1.38591 3.40136 1.40021 3.32891 1.40015 3.25575C1.40015 3.10173 1.3378 2.96246 1.23785 2.86192C1.13791 2.76139 0.999453 2.69868 0.846326 2.69868C0.693199 2.69868 0.554743 2.76139 0.454798 2.86192C0.403297 2.91359 0.362448 2.97497 0.334596 3.04255C0.306745 3.11014 0.29244 3.18259 0.292502 3.25575C0.292502 3.40978 0.354853 3.54905 0.454798 3.64958C0.506288 3.70146 0.567467 3.7426 0.634817 3.77061C0.702168 3.79863 0.774361 3.81297 0.847243 3.81283ZM5.38053 10.0891C5.32917 10.0373 5.26814 9.99624 5.20095 9.96823C5.13376 9.94022 5.06173 9.92583 4.989 9.92589C4.83587 9.92589 4.69742 9.98861 4.59747 10.0891C4.49753 10.1897 4.43518 10.3289 4.43518 10.483C4.43518 10.637 4.49753 10.7763 4.59747 10.8768C4.69742 10.9773 4.83587 11.04 4.989 11.04C5.14213 11.04 5.28058 10.9773 5.38053 10.8768C5.48047 10.7763 5.54282 10.637 5.54282 10.483C5.54282 10.3289 5.48139 10.1897 5.38053 10.0891ZM5.38053 0.457465C5.32917 0.405661 5.26814 0.364572 5.20095 0.336557C5.13376 0.308542 5.06173 0.294153 4.989 0.294217C4.83587 0.294217 4.69742 0.356934 4.59747 0.457465C4.49753 0.557997 4.43518 0.697266 4.43518 0.851291C4.43518 1.00532 4.49753 1.14459 4.59747 1.24512C4.64883 1.29692 4.70986 1.33801 4.77705 1.36603C4.84424 1.39404 4.91627 1.40843 4.989 1.40837C5.14213 1.40837 5.28058 1.34565 5.38053 1.24512C5.43203 1.19346 5.47288 1.13207 5.50073 1.06449C5.52858 0.996904 5.54289 0.924452 5.54282 0.851291C5.54282 0.697266 5.48139 0.557997 5.38053 0.457465ZM9.54521 7.67822C9.49385 7.62642 9.43282 7.58533 9.36563 7.55731C9.29844 7.5293 9.22641 7.51491 9.15368 7.51497C9.00055 7.51497 8.8621 7.57769 8.76215 7.67822C8.71065 7.72988 8.6698 7.79127 8.64195 7.85885C8.6141 7.92644 8.59979 7.99889 8.59986 8.07205C8.59986 8.22607 8.66221 8.36534 8.76215 8.46587C8.81351 8.51768 8.87454 8.55877 8.94173 8.58678C9.00892 8.6148 9.08095 8.62919 9.15368 8.62912C9.30681 8.62912 9.44526 8.56641 9.54521 8.46587C9.59671 8.41421 9.63756 8.35283 9.66541 8.28524C9.69326 8.21766 9.70757 8.14521 9.7075 8.07205C9.7075 7.91802 9.64607 7.77875 9.54521 7.67822ZM1.23785 7.67822C1.13791 7.57769 0.999453 7.51497 0.846326 7.51497C0.693199 7.51497 0.554743 7.57769 0.454798 7.67822C0.403297 7.72988 0.362448 7.79127 0.334596 7.85885C0.306745 7.92644 0.29244 7.99889 0.292502 8.07205C0.292502 8.22607 0.354853 8.36534 0.454798 8.46587C0.554743 8.56641 0.693199 8.62912 0.846326 8.62912C0.999453 8.62912 1.13791 8.56641 1.23785 8.46587C1.28936 8.41421 1.3302 8.35283 1.35806 8.28524C1.38591 8.21766 1.40021 8.14521 1.40015 8.07205C1.39985 7.92437 1.34151 7.7828 1.23785 7.67822ZM8.66037 3.50754C8.66771 3.51492 8.67321 3.52414 8.67871 3.53337C8.68421 3.54259 8.68788 3.55181 8.69155 3.56196C8.71264 3.59332 8.73648 3.62283 8.76215 3.64958C8.81351 3.70138 8.87454 3.74247 8.94173 3.77048C9.00892 3.7985 9.08095 3.81289 9.15368 3.81283C9.30681 3.81283 9.44526 3.75011 9.54521 3.64958C9.59671 3.59792 9.63756 3.53653 9.66541 3.46895C9.69326 3.40136 9.70757 3.32891 9.7075 3.25575C9.7075 3.10173 9.64515 2.96246 9.54521 2.86192C9.49385 2.81012 9.43282 2.76903 9.36563 2.74102C9.29844 2.713 9.22641 2.69861 9.15368 2.69868C9.00055 2.69868 8.8621 2.76139 8.76215 2.86192C8.71065 2.91359 8.6698 2.97497 8.64195 3.04255C8.6141 3.11014 8.59979 3.18259 8.59986 3.25575C8.60077 3.34706 8.62278 3.43191 8.66037 3.50754ZM3.24684 6.59359C3.26767 6.61612 3.28139 6.64437 3.28627 6.67475L4.85696 7.60352V5.76997L3.24684 4.80615V6.59359ZM6.69082 4.83105L5.13112 5.77089V7.60536L6.69082 6.67844V4.83105ZM4.98717 3.68831L3.46507 4.60417L4.99542 5.53109L6.48176 4.62354L4.98717 3.68831Z" fill="white"/>
    <path fill-rule="evenodd" clip-rule="evenodd" d="M3.15698 4.41417L4.84137 3.46788V1.68875C4.64565 1.65374 4.46842 1.55056 4.34073 1.3973L1.64222 2.96799C1.67431 3.05838 1.69173 3.15522 1.69173 3.25667C1.69173 3.34153 1.67981 3.42269 1.65689 3.50016L3.15698 4.41417ZM4.19769 1.15104C4.16189 1.05521 4.14356 0.953667 4.14359 0.851291C4.14359 0.616102 4.23804 0.403049 4.39116 0.249023C4.54429 0.0949978 4.7561 0 4.98992 0C5.22373 0 5.43554 0.0949978 5.58867 0.249023C5.66734 0.32806 5.72971 0.421954 5.7722 0.525311C5.81468 0.628667 5.83645 0.739448 5.83624 0.851291C5.83624 0.95459 5.8179 1.05328 5.78489 1.14459L8.49624 2.72173C8.5155 2.69868 8.53475 2.67562 8.55584 2.65441C8.63442 2.57527 8.72777 2.51254 8.83052 2.4698C8.93327 2.42707 9.04341 2.40517 9.1546 2.40538C9.38841 2.40538 9.60022 2.50038 9.75335 2.65441C9.83202 2.73344 9.89439 2.82734 9.93688 2.93069C9.97936 3.03405 10.0011 3.14483 10.0009 3.25667C10.0009 3.49186 9.90648 3.70399 9.75335 3.85802C9.62175 3.99055 9.45022 4.07552 9.26554 4.09966V7.22721C9.45535 7.25212 9.62498 7.33974 9.75335 7.46886C9.90648 7.62288 10.0009 7.83594 10.0009 8.0702C10.001 8.18202 9.97919 8.29277 9.93669 8.39609C9.8942 8.49942 9.83186 8.59331 9.75325 8.67237C9.67465 8.75144 9.58131 8.81415 9.47859 8.85689C9.37586 8.89964 9.26576 8.92159 9.1546 8.9215C9.02908 8.92169 8.9051 8.89373 8.79169 8.83964C8.67828 8.78555 8.57829 8.7067 8.49899 8.60883L5.78398 10.1878C5.81699 10.2791 5.83532 10.3778 5.83532 10.4811C5.83532 10.7163 5.74088 10.9294 5.58775 11.0834C5.50918 11.1625 5.41583 11.2253 5.31308 11.268C5.21032 11.3107 5.10019 11.3326 4.989 11.3324C4.75518 11.3324 4.54337 11.2374 4.39025 11.0834C4.23712 10.9294 4.14268 10.7163 4.14268 10.4811C4.14268 10.376 4.16193 10.2745 4.19678 10.1814L1.49918 8.61252C1.41981 8.70964 1.32 8.78782 1.20694 8.84142C1.09388 8.89501 0.970395 8.92268 0.845409 8.92242C0.611593 8.92242 0.399783 8.82742 0.246656 8.67339C0.0944464 8.51937 2.9191e-06 8.30631 2.9191e-06 8.07113C2.9191e-06 7.83594 0.0944464 7.62381 0.247573 7.46978C0.377681 7.33878 0.546663 7.25395 0.728959 7.22814V4.09874C0.546538 4.07333 0.377434 3.98845 0.247573 3.8571C0.168844 3.77829 0.106428 3.68457 0.0639336 3.58136C0.0214392 3.47814 -0.000289828 3.36747 2.9191e-06 3.25575C2.9191e-06 3.02056 0.0944464 2.80751 0.247573 2.65348C0.326149 2.57435 0.419495 2.51161 0.522248 2.46888C0.625001 2.42614 0.735136 2.40425 0.846326 2.40446C0.972069 2.40424 1.09627 2.43228 1.20986 2.48653C1.32345 2.54079 1.42355 2.61988 1.50285 2.71804L4.19769 1.15104ZM5.64277 1.39176C5.51426 1.54937 5.33359 1.65513 5.13387 1.68967V3.46788L6.8146 4.44737L8.35962 3.54905C8.3257 3.45774 8.30827 3.35813 8.30827 3.25575C8.30827 3.15614 8.3257 3.0593 8.35687 2.97076L5.64277 1.39176ZM9.00697 4.09413C8.83595 4.06421 8.67835 3.98173 8.55584 3.85802C8.53842 3.84049 8.52192 3.82297 8.50633 3.8036L6.96406 4.70009V6.61664L8.51275 7.5159C8.5265 7.50022 8.54026 7.48454 8.55493 7.46978C8.67756 7.34624 8.8351 7.26379 9.00605 7.23367L9.00697 4.09413ZM8.35871 8.36165C8.3257 8.27127 8.30827 8.1735 8.30827 8.07205C8.30827 7.96506 8.32753 7.86268 8.36421 7.76769L6.86595 6.89795L5.13387 7.91064V9.64366C5.33359 9.6782 5.51426 9.78396 5.64277 9.94157L8.35871 8.36165ZM4.34073 9.93511C4.46842 9.78185 4.64565 9.67868 4.84137 9.64366V7.90234L3.10288 6.8878L1.62755 7.74463C1.66881 7.84516 1.69265 7.95584 1.69265 8.07205C1.69265 8.17535 1.67431 8.27403 1.6413 8.36534L4.34073 9.93511ZM0.986616 7.23183C1.16358 7.26134 1.32221 7.34711 1.44416 7.46978C1.45333 7.479 1.46158 7.48823 1.46984 7.49745L2.97268 6.62495V4.64475L1.52577 3.76302C1.50101 3.79715 1.4735 3.82851 1.44416 3.85802C1.31984 3.9831 1.15996 4.06625 0.986616 4.09597V7.23183ZM0.847243 3.81283C0.850911 3.81283 0.854578 3.8119 0.858246 3.8119H0.865581C1.0057 3.80748 1.13886 3.74942 1.23785 3.64958C1.28936 3.59792 1.3302 3.53653 1.35806 3.46895C1.38591 3.40136 1.40021 3.32891 1.40015 3.25575C1.40015 3.10173 1.3378 2.96246 1.23785 2.86192C1.13791 2.76139 0.999453 2.69868 0.846326 2.69868C0.693199 2.69868 0.554743 2.76139 0.454798 2.86192C0.403297 2.91359 0.362448 2.97497 0.334596 3.04255C0.306745 3.11014 0.29244 3.18259 0.292502 3.25575C0.292502 3.40978 0.354853 3.54905 0.454798 3.64958C0.506288 3.70146 0.567467 3.7426 0.634817 3.77061C0.702168 3.79863 0.774361 3.81297 0.847243 3.81283ZM5.38053 10.0891C5.32917 10.0373 5.26814 9.99624 5.20095 9.96823C5.13376 9.94022 5.06173 9.92583 4.989 9.92589C4.83587 9.92589 4.69742 9.98861 4.59747 10.0891C4.49753 10.1897 4.43518 10.3289 4.43518 10.483C4.43518 10.637 4.49753 10.7763 4.59747 10.8768C4.69742 10.9773 4.83587 11.04 4.989 11.04C5.14213 11.04 5.28058 10.9773 5.38053 10.8768C5.48047 10.7763 5.54282 10.637 5.54282 10.483C5.54282 10.3289 5.48139 10.1897 5.38053 10.0891ZM5.38053 0.457465C5.32917 0.405661 5.26814 0.364572 5.20095 0.336557C5.13376 0.308542 5.06173 0.294153 4.989 0.294217C4.83587 0.294217 4.69742 0.356934 4.59747 0.457465C4.49753 0.557997 4.43518 0.697266 4.43518 0.851291C4.43518 1.00532 4.49753 1.14459 4.59747 1.24512C4.64883 1.29692 4.70986 1.33801 4.77705 1.36603C4.84424 1.39404 4.91627 1.40843 4.989 1.40837C5.14213 1.40837 5.28058 1.34565 5.38053 1.24512C5.43203 1.19346 5.47288 1.13207 5.50073 1.06449C5.52858 0.996904 5.54289 0.924452 5.54282 0.851291C5.54282 0.697266 5.48139 0.557997 5.38053 0.457465ZM9.54521 7.67822C9.49385 7.62642 9.43282 7.58533 9.36563 7.55731C9.29844 7.5293 9.22641 7.51491 9.15368 7.51497C9.00055 7.51497 8.8621 7.57769 8.76215 7.67822C8.71065 7.72988 8.6698 7.79127 8.64195 7.85885C8.6141 7.92644 8.59979 7.99889 8.59986 8.07205C8.59986 8.22607 8.66221 8.36534 8.76215 8.46587C8.81351 8.51768 8.87454 8.55877 8.94173 8.58678C9.00892 8.6148 9.08095 8.62919 9.15368 8.62912C9.30681 8.62912 9.44526 8.56641 9.54521 8.46587C9.59671 8.41421 9.63756 8.35283 9.66541 8.28524C9.69326 8.21766 9.70757 8.14521 9.7075 8.07205C9.7075 7.91802 9.64607 7.77875 9.54521 7.67822ZM1.23785 7.67822C1.13791 7.57769 0.999453 7.51497 0.846326 7.51497C0.693199 7.51497 0.554743 7.57769 0.454798 7.67822C0.403297 7.72988 0.362448 7.79127 0.334596 7.85885C0.306745 7.92644 0.29244 7.99889 0.292502 8.07205C0.292502 8.22607 0.354853 8.36534 0.454798 8.46587C0.554743 8.56641 0.693199 8.62912 0.846326 8.62912C0.999453 8.62912 1.13791 8.56641 1.23785 8.46587C1.28936 8.41421 1.3302 8.35283 1.35806 8.28524C1.38591 8.21766 1.40021 8.14521 1.40015 8.07205C1.39985 7.92437 1.34151 7.7828 1.23785 7.67822ZM8.66037 3.50754C8.66771 3.51492 8.67321 3.52414 8.67871 3.53337C8.68421 3.54259 8.68788 3.55181 8.69155 3.56196C8.71264 3.59332 8.73648 3.62283 8.76215 3.64958C8.81351 3.70138 8.87454 3.74247 8.94173 3.77048C9.00892 3.7985 9.08095 3.81289 9.15368 3.81283C9.30681 3.81283 9.44526 3.75011 9.54521 3.64958C9.59671 3.59792 9.63756 3.53653 9.66541 3.46895C9.69326 3.40136 9.70757 3.32891 9.7075 3.25575C9.7075 3.10173 9.64515 2.96246 9.54521 2.86192C9.49385 2.81012 9.43282 2.76903 9.36563 2.74102C9.29844 2.713 9.22641 2.69861 9.15368 2.69868C9.00055 2.69868 8.8621 2.76139 8.76215 2.86192C8.71065 2.91359 8.6698 2.97497 8.64195 3.04255C8.6141 3.11014 8.59979 3.18259 8.59986 3.25575C8.60077 3.34706 8.62278 3.43191 8.66037 3.50754ZM3.24684 6.59359C3.26767 6.61612 3.28139 6.64437 3.28627 6.67475L4.85696 7.60352V5.76997L3.24684 4.80615V6.59359ZM6.69082 4.83105L5.13112 5.77089V7.60536L6.69082 6.67844V4.83105ZM4.98717 3.68831L3.46507 4.60417L4.99542 5.53109L6.48176 4.62354L4.98717 3.68831Z" stroke="white" stroke-width="0.2" mask="url(#path-1-outside-1_1278_12695)"/>
  </g>
  <defs>
    <clipPath id="clip0_1278_12695">
      <rect width="10" height="11.3333" fill="white"/>
    </clipPath>
  </defs>
</svg>