<svg width="18" height="18" viewBox="0 0 18 18" fill="none" xmlns="http://www.w3.org/2000/svg">
<rect width="18" height="18" rx="9" fill="url(#paint0_linear_1278_12845)" fill-opacity="0.4"/>
<g clip-path="url(#clip0_1278_12845)">
<mask id="path-2-outside-1_1278_12845" maskUnits="userSpaceOnUse" x="3" y="2" width="12" height="13" fill="black">
<rect fill="white" x="3" y="2" width="12" height="13"/>
<path fill-rule="evenodd" clip-rule="evenodd" d="M7.15698 7.41417L8.84137 6.46788V4.68875C8.64565 4.65374 8.46842 4.55056 8.34073 4.3973L5.64222 5.96799C5.67431 6.05838 5.69173 6.15522 5.69173 6.25667C5.69173 6.34153 5.67981 6.42269 5.65689 6.50016L7.15698 7.41417ZM8.19769 4.15104C8.16189 4.05521 8.14356 3.95367 8.14359 3.85129C8.14359 3.6161 8.23804 3.40305 8.39116 3.24902C8.54429 3.095 8.7561 3 8.98992 3C9.22373 3 9.43554 3.095 9.58867 3.24902C9.66734 3.32806 9.72971 3.42195 9.7722 3.52531C9.81468 3.62867 9.83645 3.73945 9.83624 3.85129C9.83624 3.95459 9.8179 4.05328 9.78489 4.14459L12.4962 5.72173C12.5155 5.69868 12.5348 5.67562 12.5558 5.65441C12.6344 5.57527 12.7278 5.51254 12.8305 5.4698C12.9333 5.42707 13.0434 5.40517 13.1546 5.40538C13.3884 5.40538 13.6002 5.50038 13.7534 5.65441C13.832 5.73344 13.8944 5.82734 13.9369 5.93069C13.9794 6.03405 14.0011 6.14483 14.0009 6.25667C14.0009 6.49186 13.9065 6.70399 13.7534 6.85802C13.6217 6.99055 13.4502 7.07552 13.2655 7.09966V10.2272C13.4553 10.2521 13.625 10.3397 13.7534 10.4689C13.9065 10.6229 14.0009 10.8359 14.0009 11.0702C14.001 11.182 13.9792 11.2928 13.9367 11.3961C13.8942 11.4994 13.8319 11.5933 13.7533 11.6724C13.6746 11.7514 13.5813 11.8141 13.4786 11.8569C13.3759 11.8996 13.2658 11.9216 13.1546 11.9215C13.0291 11.9217 12.9051 11.8937 12.7917 11.8396C12.6783 11.7856 12.5783 11.7067 12.499 11.6088L9.78398 13.1878C9.81699 13.2791 9.83532 13.3778 9.83532 13.4811C9.83532 13.7163 9.74088 13.9294 9.58775 14.0834C9.50918 14.1625 9.41583 14.2253 9.31308 14.268C9.21032 14.3107 9.10019 14.3326 8.989 14.3324C8.75518 14.3324 8.54337 14.2374 8.39025 14.0834C8.23712 13.9294 8.14268 13.7163 8.14268 13.4811C8.14268 13.376 8.16193 13.2745 8.19678 13.1814L5.49918 11.6125C5.41981 11.7096 5.32 11.7878 5.20694 11.8414C5.09388 11.895 4.97039 11.9227 4.84541 11.9224C4.61159 11.9224 4.39978 11.8274 4.24666 11.6734C4.09445 11.5194 4 11.3063 4 11.0711C4 10.8359 4.09445 10.6238 4.24757 10.4698C4.37768 10.3388 4.54666 10.254 4.72896 10.2281V7.09874C4.54654 7.07333 4.37743 6.98845 4.24757 6.8571C4.16884 6.77829 4.10643 6.68457 4.06393 6.58136C4.02144 6.47814 3.99971 6.36747 4 6.25575C4 6.02056 4.09445 5.80751 4.24757 5.65348C4.32615 5.57435 4.41949 5.51161 4.52225 5.46888C4.625 5.42614 4.73514 5.40425 4.84633 5.40446C4.97207 5.40424 5.09627 5.43228 5.20986 5.48653C5.32345 5.54079 5.42355 5.61988 5.50285 5.71804L8.19769 4.15104ZM9.64277 4.39176C9.51426 4.54937 9.33359 4.65513 9.13387 4.68967V6.46788L10.8146 7.44737L12.3596 6.54905C12.3257 6.45774 12.3083 6.35813 12.3083 6.25575C12.3083 6.15614 12.3257 6.0593 12.3569 5.97076L9.64277 4.39176ZM13.007 7.09413C12.836 7.06421 12.6783 6.98173 12.5558 6.85802C12.5384 6.84049 12.5219 6.82297 12.5063 6.8036L10.9641 7.70009V9.61664L12.5127 10.5159C12.5265 10.5002 12.5403 10.4845 12.5549 10.4698C12.6776 10.3462 12.8351 10.2638 13.0061 10.2337L13.007 7.09413ZM12.3587 11.3617C12.3257 11.2713 12.3083 11.1735 12.3083 11.072C12.3083 10.9651 12.3275 10.8627 12.3642 10.7677L10.8659 9.89795L9.13387 10.9106V12.6437C9.33359 12.6782 9.51426 12.784 9.64277 12.9416L12.3587 11.3617ZM8.34073 12.9351C8.46842 12.7819 8.64565 12.6787 8.84137 12.6437V10.9023L7.10288 9.8878L5.62755 10.7446C5.66881 10.8452 5.69265 10.9558 5.69265 11.072C5.69265 11.1753 5.67431 11.274 5.6413 11.3653L8.34073 12.9351ZM4.98662 10.2318C5.16358 10.2613 5.32221 10.3471 5.44416 10.4698C5.45333 10.479 5.46158 10.4882 5.46984 10.4974L6.97268 9.62495V7.64475L5.52577 6.76302C5.50101 6.79715 5.4735 6.82851 5.44416 6.85802C5.31984 6.9831 5.15996 7.06625 4.98662 7.09597V10.2318ZM4.84724 6.81283C4.85091 6.81283 4.85458 6.8119 4.85825 6.8119H4.86558C5.0057 6.80748 5.13886 6.74942 5.23785 6.64958C5.28936 6.59792 5.3302 6.53653 5.35806 6.46895C5.38591 6.40136 5.40021 6.32891 5.40015 6.25575C5.40015 6.10173 5.3378 5.96246 5.23785 5.86192C5.13791 5.76139 4.99945 5.69868 4.84633 5.69868C4.6932 5.69868 4.55474 5.76139 4.4548 5.86192C4.4033 5.91359 4.36245 5.97497 4.3346 6.04255C4.30674 6.11014 4.29244 6.18259 4.2925 6.25575C4.2925 6.40978 4.35485 6.54905 4.4548 6.64958C4.50629 6.70146 4.56747 6.7426 4.63482 6.77061C4.70217 6.79863 4.77436 6.81297 4.84724 6.81283ZM9.38053 13.0891C9.32917 13.0373 9.26814 12.9962 9.20095 12.9682C9.13376 12.9402 9.06173 12.9258 8.989 12.9259C8.83587 12.9259 8.69742 12.9886 8.59747 13.0891C8.49753 13.1897 8.43518 13.3289 8.43518 13.483C8.43518 13.637 8.49753 13.7763 8.59747 13.8768C8.69742 13.9773 8.83587 14.04 8.989 14.04C9.14213 14.04 9.28058 13.9773 9.38053 13.8768C9.48047 13.7763 9.54282 13.637 9.54282 13.483C9.54282 13.3289 9.48139 13.1897 9.38053 13.0891ZM9.38053 3.45747C9.32917 3.40566 9.26814 3.36457 9.20095 3.33656C9.13376 3.30854 9.06173 3.29415 8.989 3.29422C8.83587 3.29422 8.69742 3.35693 8.59747 3.45747C8.49753 3.558 8.43518 3.69727 8.43518 3.85129C8.43518 4.00532 8.49753 4.14459 8.59747 4.24512C8.64883 4.29692 8.70986 4.33801 8.77705 4.36603C8.84424 4.39404 8.91627 4.40843 8.989 4.40837C9.14213 4.40837 9.28058 4.34565 9.38053 4.24512C9.43203 4.19346 9.47288 4.13207 9.50073 4.06449C9.52858 3.9969 9.54289 3.92445 9.54282 3.85129C9.54282 3.69727 9.48139 3.558 9.38053 3.45747ZM13.5452 10.6782C13.4938 10.6264 13.4328 10.5853 13.3656 10.5573C13.2984 10.5293 13.2264 10.5149 13.1537 10.515C13.0006 10.515 12.8621 10.5777 12.7622 10.6782C12.7107 10.7299 12.6698 10.7913 12.642 10.8589C12.6141 10.9264 12.5998 10.9989 12.5999 11.072C12.5999 11.2261 12.6622 11.3653 12.7622 11.4659C12.8135 11.5177 12.8745 11.5588 12.9417 11.5868C13.0089 11.6148 13.0809 11.6292 13.1537 11.6291C13.3068 11.6291 13.4453 11.5664 13.5452 11.4659C13.5967 11.4142 13.6376 11.3528 13.6654 11.2852C13.6933 11.2177 13.7076 11.1452 13.7075 11.072C13.7075 10.918 13.6461 10.7788 13.5452 10.6782ZM5.23785 10.6782C5.13791 10.5777 4.99945 10.515 4.84633 10.515C4.6932 10.515 4.55474 10.5777 4.4548 10.6782C4.4033 10.7299 4.36245 10.7913 4.3346 10.8589C4.30674 10.9264 4.29244 10.9989 4.2925 11.072C4.2925 11.2261 4.35485 11.3653 4.4548 11.4659C4.55474 11.5664 4.6932 11.6291 4.84633 11.6291C4.99945 11.6291 5.13791 11.5664 5.23785 11.4659C5.28936 11.4142 5.3302 11.3528 5.35806 11.2852C5.38591 11.2177 5.40021 11.1452 5.40015 11.072C5.39985 10.9244 5.34151 10.7828 5.23785 10.6782ZM12.6604 6.50754C12.6677 6.51492 12.6732 6.52414 12.6787 6.53337C12.6842 6.54259 12.6879 6.55181 12.6915 6.56196C12.7126 6.59332 12.7365 6.62283 12.7622 6.64958C12.8135 6.70138 12.8745 6.74247 12.9417 6.77048C13.0089 6.7985 13.0809 6.81289 13.1537 6.81283C13.3068 6.81283 13.4453 6.75011 13.5452 6.64958C13.5967 6.59792 13.6376 6.53653 13.6654 6.46895C13.6933 6.40136 13.7076 6.32891 13.7075 6.25575C13.7075 6.10173 13.6452 5.96246 13.5452 5.86192C13.4938 5.81012 13.4328 5.76903 13.3656 5.74102C13.2984 5.713 13.2264 5.69861 13.1537 5.69868C13.0006 5.69868 12.8621 5.76139 12.7622 5.86192C12.7107 5.91359 12.6698 5.97497 12.642 6.04255C12.6141 6.11014 12.5998 6.18259 12.5999 6.25575C12.6008 6.34706 12.6228 6.43191 12.6604 6.50754ZM7.24684 9.59359C7.26767 9.61612 7.28139 9.64437 7.28627 9.67475L8.85696 10.6035V8.76997L7.24684 7.80615V9.59359ZM10.6908 7.83105L9.13112 8.77089V10.6054L10.6908 9.67844V7.83105ZM8.98717 6.68831L7.46507 7.60417L8.99542 8.53109L10.4818 7.62354L8.98717 6.68831Z"/>
</mask>
<path fill-rule="evenodd" clip-rule="evenodd" d="M7.15698 7.41417L8.84137 6.46788V4.68875C8.64565 4.65374 8.46842 4.55056 8.34073 4.3973L5.64222 5.96799C5.67431 6.05838 5.69173 6.15522 5.69173 6.25667C5.69173 6.34153 5.67981 6.42269 5.65689 6.50016L7.15698 7.41417ZM8.19769 4.15104C8.16189 4.05521 8.14356 3.95367 8.14359 3.85129C8.14359 3.6161 8.23804 3.40305 8.39116 3.24902C8.54429 3.095 8.7561 3 8.98992 3C9.22373 3 9.43554 3.095 9.58867 3.24902C9.66734 3.32806 9.72971 3.42195 9.7722 3.52531C9.81468 3.62867 9.83645 3.73945 9.83624 3.85129C9.83624 3.95459 9.8179 4.05328 9.78489 4.14459L12.4962 5.72173C12.5155 5.69868 12.5348 5.67562 12.5558 5.65441C12.6344 5.57527 12.7278 5.51254 12.8305 5.4698C12.9333 5.42707 13.0434 5.40517 13.1546 5.40538C13.3884 5.40538 13.6002 5.50038 13.7534 5.65441C13.832 5.73344 13.8944 5.82734 13.9369 5.93069C13.9794 6.03405 14.0011 6.14483 14.0009 6.25667C14.0009 6.49186 13.9065 6.70399 13.7534 6.85802C13.6217 6.99055 13.4502 7.07552 13.2655 7.09966V10.2272C13.4553 10.2521 13.625 10.3397 13.7534 10.4689C13.9065 10.6229 14.0009 10.8359 14.0009 11.0702C14.001 11.182 13.9792 11.2928 13.9367 11.3961C13.8942 11.4994 13.8319 11.5933 13.7533 11.6724C13.6746 11.7514 13.5813 11.8141 13.4786 11.8569C13.3759 11.8996 13.2658 11.9216 13.1546 11.9215C13.0291 11.9217 12.9051 11.8937 12.7917 11.8396C12.6783 11.7856 12.5783 11.7067 12.499 11.6088L9.78398 13.1878C9.81699 13.2791 9.83532 13.3778 9.83532 13.4811C9.83532 13.7163 9.74088 13.9294 9.58775 14.0834C9.50918 14.1625 9.41583 14.2253 9.31308 14.268C9.21032 14.3107 9.10019 14.3326 8.989 14.3324C8.75518 14.3324 8.54337 14.2374 8.39025 14.0834C8.23712 13.9294 8.14268 13.7163 8.14268 13.4811C8.14268 13.376 8.16193 13.2745 8.19678 13.1814L5.49918 11.6125C5.41981 11.7096 5.32 11.7878 5.20694 11.8414C5.09388 11.895 4.97039 11.9227 4.84541 11.9224C4.61159 11.9224 4.39978 11.8274 4.24666 11.6734C4.09445 11.5194 4 11.3063 4 11.0711C4 10.8359 4.09445 10.6238 4.24757 10.4698C4.37768 10.3388 4.54666 10.254 4.72896 10.2281V7.09874C4.54654 7.07333 4.37743 6.98845 4.24757 6.8571C4.16884 6.77829 4.10643 6.68457 4.06393 6.58136C4.02144 6.47814 3.99971 6.36747 4 6.25575C4 6.02056 4.09445 5.80751 4.24757 5.65348C4.32615 5.57435 4.41949 5.51161 4.52225 5.46888C4.625 5.42614 4.73514 5.40425 4.84633 5.40446C4.97207 5.40424 5.09627 5.43228 5.20986 5.48653C5.32345 5.54079 5.42355 5.61988 5.50285 5.71804L8.19769 4.15104ZM9.64277 4.39176C9.51426 4.54937 9.33359 4.65513 9.13387 4.68967V6.46788L10.8146 7.44737L12.3596 6.54905C12.3257 6.45774 12.3083 6.35813 12.3083 6.25575C12.3083 6.15614 12.3257 6.0593 12.3569 5.97076L9.64277 4.39176ZM13.007 7.09413C12.836 7.06421 12.6783 6.98173 12.5558 6.85802C12.5384 6.84049 12.5219 6.82297 12.5063 6.8036L10.9641 7.70009V9.61664L12.5127 10.5159C12.5265 10.5002 12.5403 10.4845 12.5549 10.4698C12.6776 10.3462 12.8351 10.2638 13.0061 10.2337L13.007 7.09413ZM12.3587 11.3617C12.3257 11.2713 12.3083 11.1735 12.3083 11.072C12.3083 10.9651 12.3275 10.8627 12.3642 10.7677L10.8659 9.89795L9.13387 10.9106V12.6437C9.33359 12.6782 9.51426 12.784 9.64277 12.9416L12.3587 11.3617ZM8.34073 12.9351C8.46842 12.7819 8.64565 12.6787 8.84137 12.6437V10.9023L7.10288 9.8878L5.62755 10.7446C5.66881 10.8452 5.69265 10.9558 5.69265 11.072C5.69265 11.1753 5.67431 11.274 5.6413 11.3653L8.34073 12.9351ZM4.98662 10.2318C5.16358 10.2613 5.32221 10.3471 5.44416 10.4698C5.45333 10.479 5.46158 10.4882 5.46984 10.4974L6.97268 9.62495V7.64475L5.52577 6.76302C5.50101 6.79715 5.4735 6.82851 5.44416 6.85802C5.31984 6.9831 5.15996 7.06625 4.98662 7.09597V10.2318ZM4.84724 6.81283C4.85091 6.81283 4.85458 6.8119 4.85825 6.8119H4.86558C5.0057 6.80748 5.13886 6.74942 5.23785 6.64958C5.28936 6.59792 5.3302 6.53653 5.35806 6.46895C5.38591 6.40136 5.40021 6.32891 5.40015 6.25575C5.40015 6.10173 5.3378 5.96246 5.23785 5.86192C5.13791 5.76139 4.99945 5.69868 4.84633 5.69868C4.6932 5.69868 4.55474 5.76139 4.4548 5.86192C4.4033 5.91359 4.36245 5.97497 4.3346 6.04255C4.30674 6.11014 4.29244 6.18259 4.2925 6.25575C4.2925 6.40978 4.35485 6.54905 4.4548 6.64958C4.50629 6.70146 4.56747 6.7426 4.63482 6.77061C4.70217 6.79863 4.77436 6.81297 4.84724 6.81283ZM9.38053 13.0891C9.32917 13.0373 9.26814 12.9962 9.20095 12.9682C9.13376 12.9402 9.06173 12.9258 8.989 12.9259C8.83587 12.9259 8.69742 12.9886 8.59747 13.0891C8.49753 13.1897 8.43518 13.3289 8.43518 13.483C8.43518 13.637 8.49753 13.7763 8.59747 13.8768C8.69742 13.9773 8.83587 14.04 8.989 14.04C9.14213 14.04 9.28058 13.9773 9.38053 13.8768C9.48047 13.7763 9.54282 13.637 9.54282 13.483C9.54282 13.3289 9.48139 13.1897 9.38053 13.0891ZM9.38053 3.45747C9.32917 3.40566 9.26814 3.36457 9.20095 3.33656C9.13376 3.30854 9.06173 3.29415 8.989 3.29422C8.83587 3.29422 8.69742 3.35693 8.59747 3.45747C8.49753 3.558 8.43518 3.69727 8.43518 3.85129C8.43518 4.00532 8.49753 4.14459 8.59747 4.24512C8.64883 4.29692 8.70986 4.33801 8.77705 4.36603C8.84424 4.39404 8.91627 4.40843 8.989 4.40837C9.14213 4.40837 9.28058 4.34565 9.38053 4.24512C9.43203 4.19346 9.47288 4.13207 9.50073 4.06449C9.52858 3.9969 9.54289 3.92445 9.54282 3.85129C9.54282 3.69727 9.48139 3.558 9.38053 3.45747ZM13.5452 10.6782C13.4938 10.6264 13.4328 10.5853 13.3656 10.5573C13.2984 10.5293 13.2264 10.5149 13.1537 10.515C13.0006 10.515 12.8621 10.5777 12.7622 10.6782C12.7107 10.7299 12.6698 10.7913 12.642 10.8589C12.6141 10.9264 12.5998 10.9989 12.5999 11.072C12.5999 11.2261 12.6622 11.3653 12.7622 11.4659C12.8135 11.5177 12.8745 11.5588 12.9417 11.5868C13.0089 11.6148 13.0809 11.6292 13.1537 11.6291C13.3068 11.6291 13.4453 11.5664 13.5452 11.4659C13.5967 11.4142 13.6376 11.3528 13.6654 11.2852C13.6933 11.2177 13.7076 11.1452 13.7075 11.072C13.7075 10.918 13.6461 10.7788 13.5452 10.6782ZM5.23785 10.6782C5.13791 10.5777 4.99945 10.515 4.84633 10.515C4.6932 10.515 4.55474 10.5777 4.4548 10.6782C4.4033 10.7299 4.36245 10.7913 4.3346 10.8589C4.30674 10.9264 4.29244 10.9989 4.2925 11.072C4.2925 11.2261 4.35485 11.3653 4.4548 11.4659C4.55474 11.5664 4.6932 11.6291 4.84633 11.6291C4.99945 11.6291 5.13791 11.5664 5.23785 11.4659C5.28936 11.4142 5.3302 11.3528 5.35806 11.2852C5.38591 11.2177 5.40021 11.1452 5.40015 11.072C5.39985 10.9244 5.34151 10.7828 5.23785 10.6782ZM12.6604 6.50754C12.6677 6.51492 12.6732 6.52414 12.6787 6.53337C12.6842 6.54259 12.6879 6.55181 12.6915 6.56196C12.7126 6.59332 12.7365 6.62283 12.7622 6.64958C12.8135 6.70138 12.8745 6.74247 12.9417 6.77048C13.0089 6.7985 13.0809 6.81289 13.1537 6.81283C13.3068 6.81283 13.4453 6.75011 13.5452 6.64958C13.5967 6.59792 13.6376 6.53653 13.6654 6.46895C13.6933 6.40136 13.7076 6.32891 13.7075 6.25575C13.7075 6.10173 13.6452 5.96246 13.5452 5.86192C13.4938 5.81012 13.4328 5.76903 13.3656 5.74102C13.2984 5.713 13.2264 5.69861 13.1537 5.69868C13.0006 5.69868 12.8621 5.76139 12.7622 5.86192C12.7107 5.91359 12.6698 5.97497 12.642 6.04255C12.6141 6.11014 12.5998 6.18259 12.5999 6.25575C12.6008 6.34706 12.6228 6.43191 12.6604 6.50754ZM7.24684 9.59359C7.26767 9.61612 7.28139 9.64437 7.28627 9.67475L8.85696 10.6035V8.76997L7.24684 7.80615V9.59359ZM10.6908 7.83105L9.13112 8.77089V10.6054L10.6908 9.67844V7.83105ZM8.98717 6.68831L7.46507 7.60417L8.99542 8.53109L10.4818 7.62354L8.98717 6.68831Z" fill="white"/>
<path fill-rule="evenodd" clip-rule="evenodd" d="M7.15698 7.41417L8.84137 6.46788V4.68875C8.64565 4.65374 8.46842 4.55056 8.34073 4.3973L5.64222 5.96799C5.67431 6.05838 5.69173 6.15522 5.69173 6.25667C5.69173 6.34153 5.67981 6.42269 5.65689 6.50016L7.15698 7.41417ZM8.19769 4.15104C8.16189 4.05521 8.14356 3.95367 8.14359 3.85129C8.14359 3.6161 8.23804 3.40305 8.39116 3.24902C8.54429 3.095 8.7561 3 8.98992 3C9.22373 3 9.43554 3.095 9.58867 3.24902C9.66734 3.32806 9.72971 3.42195 9.7722 3.52531C9.81468 3.62867 9.83645 3.73945 9.83624 3.85129C9.83624 3.95459 9.8179 4.05328 9.78489 4.14459L12.4962 5.72173C12.5155 5.69868 12.5348 5.67562 12.5558 5.65441C12.6344 5.57527 12.7278 5.51254 12.8305 5.4698C12.9333 5.42707 13.0434 5.40517 13.1546 5.40538C13.3884 5.40538 13.6002 5.50038 13.7534 5.65441C13.832 5.73344 13.8944 5.82734 13.9369 5.93069C13.9794 6.03405 14.0011 6.14483 14.0009 6.25667C14.0009 6.49186 13.9065 6.70399 13.7534 6.85802C13.6217 6.99055 13.4502 7.07552 13.2655 7.09966V10.2272C13.4553 10.2521 13.625 10.3397 13.7534 10.4689C13.9065 10.6229 14.0009 10.8359 14.0009 11.0702C14.001 11.182 13.9792 11.2928 13.9367 11.3961C13.8942 11.4994 13.8319 11.5933 13.7533 11.6724C13.6746 11.7514 13.5813 11.8141 13.4786 11.8569C13.3759 11.8996 13.2658 11.9216 13.1546 11.9215C13.0291 11.9217 12.9051 11.8937 12.7917 11.8396C12.6783 11.7856 12.5783 11.7067 12.499 11.6088L9.78398 13.1878C9.81699 13.2791 9.83532 13.3778 9.83532 13.4811C9.83532 13.7163 9.74088 13.9294 9.58775 14.0834C9.50918 14.1625 9.41583 14.2253 9.31308 14.268C9.21032 14.3107 9.10019 14.3326 8.989 14.3324C8.75518 14.3324 8.54337 14.2374 8.39025 14.0834C8.23712 13.9294 8.14268 13.7163 8.14268 13.4811C8.14268 13.376 8.16193 13.2745 8.19678 13.1814L5.49918 11.6125C5.41981 11.7096 5.32 11.7878 5.20694 11.8414C5.09388 11.895 4.97039 11.9227 4.84541 11.9224C4.61159 11.9224 4.39978 11.8274 4.24666 11.6734C4.09445 11.5194 4 11.3063 4 11.0711C4 10.8359 4.09445 10.6238 4.24757 10.4698C4.37768 10.3388 4.54666 10.254 4.72896 10.2281V7.09874C4.54654 7.07333 4.37743 6.98845 4.24757 6.8571C4.16884 6.77829 4.10643 6.68457 4.06393 6.58136C4.02144 6.47814 3.99971 6.36747 4 6.25575C4 6.02056 4.09445 5.80751 4.24757 5.65348C4.32615 5.57435 4.41949 5.51161 4.52225 5.46888C4.625 5.42614 4.73514 5.40425 4.84633 5.40446C4.97207 5.40424 5.09627 5.43228 5.20986 5.48653C5.32345 5.54079 5.42355 5.61988 5.50285 5.71804L8.19769 4.15104ZM9.64277 4.39176C9.51426 4.54937 9.33359 4.65513 9.13387 4.68967V6.46788L10.8146 7.44737L12.3596 6.54905C12.3257 6.45774 12.3083 6.35813 12.3083 6.25575C12.3083 6.15614 12.3257 6.0593 12.3569 5.97076L9.64277 4.39176ZM13.007 7.09413C12.836 7.06421 12.6783 6.98173 12.5558 6.85802C12.5384 6.84049 12.5219 6.82297 12.5063 6.8036L10.9641 7.70009V9.61664L12.5127 10.5159C12.5265 10.5002 12.5403 10.4845 12.5549 10.4698C12.6776 10.3462 12.8351 10.2638 13.0061 10.2337L13.007 7.09413ZM12.3587 11.3617C12.3257 11.2713 12.3083 11.1735 12.3083 11.072C12.3083 10.9651 12.3275 10.8627 12.3642 10.7677L10.8659 9.89795L9.13387 10.9106V12.6437C9.33359 12.6782 9.51426 12.784 9.64277 12.9416L12.3587 11.3617ZM8.34073 12.9351C8.46842 12.7819 8.64565 12.6787 8.84137 12.6437V10.9023L7.10288 9.8878L5.62755 10.7446C5.66881 10.8452 5.69265 10.9558 5.69265 11.072C5.69265 11.1753 5.67431 11.274 5.6413 11.3653L8.34073 12.9351ZM4.98662 10.2318C5.16358 10.2613 5.32221 10.3471 5.44416 10.4698C5.45333 10.479 5.46158 10.4882 5.46984 10.4974L6.97268 9.62495V7.64475L5.52577 6.76302C5.50101 6.79715 5.4735 6.82851 5.44416 6.85802C5.31984 6.9831 5.15996 7.06625 4.98662 7.09597V10.2318ZM4.84724 6.81283C4.85091 6.81283 4.85458 6.8119 4.85825 6.8119H4.86558C5.0057 6.80748 5.13886 6.74942 5.23785 6.64958C5.28936 6.59792 5.3302 6.53653 5.35806 6.46895C5.38591 6.40136 5.40021 6.32891 5.40015 6.25575C5.40015 6.10173 5.3378 5.96246 5.23785 5.86192C5.13791 5.76139 4.99945 5.69868 4.84633 5.69868C4.6932 5.69868 4.55474 5.76139 4.4548 5.86192C4.4033 5.91359 4.36245 5.97497 4.3346 6.04255C4.30674 6.11014 4.29244 6.18259 4.2925 6.25575C4.2925 6.40978 4.35485 6.54905 4.4548 6.64958C4.50629 6.70146 4.56747 6.7426 4.63482 6.77061C4.70217 6.79863 4.77436 6.81297 4.84724 6.81283ZM9.38053 13.0891C9.32917 13.0373 9.26814 12.9962 9.20095 12.9682C9.13376 12.9402 9.06173 12.9258 8.989 12.9259C8.83587 12.9259 8.69742 12.9886 8.59747 13.0891C8.49753 13.1897 8.43518 13.3289 8.43518 13.483C8.43518 13.637 8.49753 13.7763 8.59747 13.8768C8.69742 13.9773 8.83587 14.04 8.989 14.04C9.14213 14.04 9.28058 13.9773 9.38053 13.8768C9.48047 13.7763 9.54282 13.637 9.54282 13.483C9.54282 13.3289 9.48139 13.1897 9.38053 13.0891ZM9.38053 3.45747C9.32917 3.40566 9.26814 3.36457 9.20095 3.33656C9.13376 3.30854 9.06173 3.29415 8.989 3.29422C8.83587 3.29422 8.69742 3.35693 8.59747 3.45747C8.49753 3.558 8.43518 3.69727 8.43518 3.85129C8.43518 4.00532 8.49753 4.14459 8.59747 4.24512C8.64883 4.29692 8.70986 4.33801 8.77705 4.36603C8.84424 4.39404 8.91627 4.40843 8.989 4.40837C9.14213 4.40837 9.28058 4.34565 9.38053 4.24512C9.43203 4.19346 9.47288 4.13207 9.50073 4.06449C9.52858 3.9969 9.54289 3.92445 9.54282 3.85129C9.54282 3.69727 9.48139 3.558 9.38053 3.45747ZM13.5452 10.6782C13.4938 10.6264 13.4328 10.5853 13.3656 10.5573C13.2984 10.5293 13.2264 10.5149 13.1537 10.515C13.0006 10.515 12.8621 10.5777 12.7622 10.6782C12.7107 10.7299 12.6698 10.7913 12.642 10.8589C12.6141 10.9264 12.5998 10.9989 12.5999 11.072C12.5999 11.2261 12.6622 11.3653 12.7622 11.4659C12.8135 11.5177 12.8745 11.5588 12.9417 11.5868C13.0089 11.6148 13.0809 11.6292 13.1537 11.6291C13.3068 11.6291 13.4453 11.5664 13.5452 11.4659C13.5967 11.4142 13.6376 11.3528 13.6654 11.2852C13.6933 11.2177 13.7076 11.1452 13.7075 11.072C13.7075 10.918 13.6461 10.7788 13.5452 10.6782ZM5.23785 10.6782C5.13791 10.5777 4.99945 10.515 4.84633 10.515C4.6932 10.515 4.55474 10.5777 4.4548 10.6782C4.4033 10.7299 4.36245 10.7913 4.3346 10.8589C4.30674 10.9264 4.29244 10.9989 4.2925 11.072C4.2925 11.2261 4.35485 11.3653 4.4548 11.4659C4.55474 11.5664 4.6932 11.6291 4.84633 11.6291C4.99945 11.6291 5.13791 11.5664 5.23785 11.4659C5.28936 11.4142 5.3302 11.3528 5.35806 11.2852C5.38591 11.2177 5.40021 11.1452 5.40015 11.072C5.39985 10.9244 5.34151 10.7828 5.23785 10.6782ZM12.6604 6.50754C12.6677 6.51492 12.6732 6.52414 12.6787 6.53337C12.6842 6.54259 12.6879 6.55181 12.6915 6.56196C12.7126 6.59332 12.7365 6.62283 12.7622 6.64958C12.8135 6.70138 12.8745 6.74247 12.9417 6.77048C13.0089 6.7985 13.0809 6.81289 13.1537 6.81283C13.3068 6.81283 13.4453 6.75011 13.5452 6.64958C13.5967 6.59792 13.6376 6.53653 13.6654 6.46895C13.6933 6.40136 13.7076 6.32891 13.7075 6.25575C13.7075 6.10173 13.6452 5.96246 13.5452 5.86192C13.4938 5.81012 13.4328 5.76903 13.3656 5.74102C13.2984 5.713 13.2264 5.69861 13.1537 5.69868C13.0006 5.69868 12.8621 5.76139 12.7622 5.86192C12.7107 5.91359 12.6698 5.97497 12.642 6.04255C12.6141 6.11014 12.5998 6.18259 12.5999 6.25575C12.6008 6.34706 12.6228 6.43191 12.6604 6.50754ZM7.24684 9.59359C7.26767 9.61612 7.28139 9.64437 7.28627 9.67475L8.85696 10.6035V8.76997L7.24684 7.80615V9.59359ZM10.6908 7.83105L9.13112 8.77089V10.6054L10.6908 9.67844V7.83105ZM8.98717 6.68831L7.46507 7.60417L8.99542 8.53109L10.4818 7.62354L8.98717 6.68831Z" stroke="white" stroke-width="0.2" mask="url(#path-2-outside-1_1278_12845)"/>
</g>
<defs>
<linearGradient id="paint0_linear_1278_12845" x1="1.5" y1="4.5" x2="20" y2="17" gradientUnits="userSpaceOnUse">
<stop stop-color="#4ED5D2" stop-opacity="0.4"/>
<stop offset="1" stop-color="#4ED5D2"/>
</linearGradient>
<clipPath id="clip0_1278_12845">
<rect width="10" height="11.3333" fill="white" transform="translate(4 3)"/>
</clipPath>
</defs>
</svg>
