<svg width="16" height="16" viewBox="0 0 16 16" fill="none" xmlns="http://www.w3.org/2000/svg">
<path d="M3.33301 6H12.6663M9.99967 12V10M5.99967 12H6.00634M7.99967 12H8.00634M7.99967 10H8.00634M5.99967 10H6.00634M9.99967 8H10.0063M7.99967 8H8.00634M5.99967 8H6.00634M5.46634 14H10.533C11.2797 14 11.6531 14 11.9383 13.8547C12.1892 13.7268 12.3932 13.5229 12.521 13.272C12.6663 12.9868 12.6663 12.6134 12.6663 11.8667V4.13333C12.6663 3.3866 12.6663 3.01323 12.521 2.72801C12.3932 2.47713 12.1892 2.27316 11.9383 2.14532C11.6531 2 11.2797 2 10.533 2H5.46634C4.7196 2 4.34624 2 4.06102 2.14532C3.81014 2.27316 3.60616 2.47713 3.47833 2.72801C3.33301 3.01323 3.33301 3.3866 3.33301 4.13333V11.8667C3.33301 12.6134 3.33301 12.9868 3.47833 13.272C3.60616 13.5229 3.81014 13.7268 4.06102 13.8547C4.34624 14 4.7196 14 5.46634 14Z" stroke="#F7F7FC" stroke-linecap="round" stroke-linejoin="round"/>
</svg>
