<svg width="134" height="134" viewBox="0 0 134 134" fill="none" xmlns="http://www.w3.org/2000/svg">
<g opacity="0.5">
<mask id="mask0_1005_5301" style="mask-type:alpha" maskUnits="userSpaceOnUse" x="0" y="0" width="134" height="134">
<rect width="134" height="134" fill="#D9D9D9"/>
</mask>
<g mask="url(#mask0_1005_5301)">
<path d="M92.264 16.0894C99.865 16.0894 107.428 16.127 115.029 16.0518C116.76 16.0518 117.287 16.6162 117.249 18.3095C117.174 27.2274 117.174 36.1077 117.249 45.0256C117.249 46.6812 116.647 47.3962 115.067 47.1328C110.401 46.3802 107.09 47.9982 104.343 51.9869C101.709 55.8249 97.5696 57.8945 92.979 58.7976C87.109 60.0017 82.4807 62.9743 79.0189 67.9036C76.6106 71.3278 74.0143 74.6768 71.5308 78.0257C70.2514 79.7566 69.9504 79.7566 68.3324 78.2891C63.7041 73.9994 62.9139 66.7748 66.5639 61.4692C69.4236 57.3301 72.321 53.2662 75.2936 49.2024C76.0462 48.1864 76.3849 47.1328 76.3472 45.8911C76.3096 43.0689 76.272 40.2468 76.3849 37.4247C76.4225 35.9572 76.0086 35.1293 74.5787 34.5649C72.0576 33.5866 69.5741 32.4954 67.2035 31.2912C65.4726 30.4258 63.817 30.3129 61.9732 30.6892C56.7429 31.7428 51.5125 32.6835 46.2822 33.6618C45.2662 33.85 44.4008 34.2639 43.6482 34.9788C41.4281 37.0108 39.208 39.0427 36.9503 40.9994C32.6231 44.6869 26.151 44.4988 22.0119 40.6983C20.883 39.6447 20.6196 38.8922 21.899 37.6881C27.0541 32.7211 32.0963 27.6789 37.1761 22.6367C37.8534 21.9594 38.606 21.5079 39.5843 21.3574C49.1419 19.6641 58.6995 17.9332 68.2571 16.2399C69.1226 16.0894 69.988 16.127 70.8911 16.127C77.9653 16.0894 85.1146 16.0894 92.264 16.0894Z" fill="url(#paint0_linear_1005_5301)"/>
<path d="M37.9297 56.6162C34.8066 56.5033 32.0597 55.4121 29.7644 53.0791C29.0494 52.3642 29.0118 51.7621 29.7267 51.0096C30.8932 49.7678 31.9844 48.6766 33.8282 48.338C37.4029 47.6607 40.2251 45.4406 42.6333 42.8818C45.4178 39.9092 48.5786 38.0654 52.7177 37.7644C54.7496 37.6139 56.8568 37.2752 58.8135 36.5979C62.8397 35.2057 66.3768 36.2969 69.9138 38.2159C71.3061 38.9685 71.2308 40.0221 71.2308 41.1886C71.2308 42.4679 70.3654 42.6937 69.3871 42.9195C64.9093 43.8602 60.4315 44.8385 55.9537 45.704C54.2981 46.005 52.9435 46.6823 51.7393 47.9241C49.8956 49.8055 47.9389 51.574 46.0198 53.3802C43.7621 55.4497 41.0905 56.5786 37.9297 56.6162Z" fill="url(#paint1_linear_1005_5301)"/>
<rect x="29.8516" y="66.1455" width="10.1842" height="10.1842" rx="5.09209" fill="url(#paint2_linear_1005_5301)"/>
<path d="M35.0171 68.1816L34.9766 68.3159V72.212L35.0171 72.2515L36.8713 71.1824L35.0171 68.1816Z" fill="#C1CCF8"/>
<path d="M35.0144 68.1816L33.1602 71.1824L35.0144 72.2515V70.3604V68.1816Z" fill="white"/>
<path d="M35.015 72.5919L34.9922 72.6191V74.0069L35.015 74.072L36.8703 71.5234L35.015 72.5919Z" fill="#C1CCF8"/>
<path d="M35.0144 74.072V72.5919L33.1602 71.5234L35.0144 74.072Z" fill="white"/>
<path d="M35.0137 72.2514L36.8678 71.1824L35.0137 70.3604V72.2514Z" fill="#8197EE"/>
<path d="M33.1602 71.1824L35.0144 72.2514V70.3604L33.1602 71.1824Z" fill="#C1CCF8"/>
<rect x="42.5156" y="87.6152" width="6.05546" height="6.05546" rx="3.02773" fill="url(#paint3_linear_1005_5301)"/>
<path d="M45.5886 88.8252L45.5645 88.905V91.2216L45.5886 91.2451L46.691 90.6095L45.5886 88.8252Z" fill="#C1CCF8"/>
<path d="M45.5869 88.8252L44.4844 90.6095L45.5869 91.2451V90.1207V88.8252Z" fill="white"/>
<path d="M45.5878 91.4478L45.5742 91.464V92.2892L45.5878 92.3278L46.691 90.8125L45.5878 91.4478Z" fill="#C1CCF8"/>
<path d="M45.5869 92.3278V91.4478L44.4844 90.8125L45.5869 92.3278Z" fill="white"/>
<path d="M45.5879 91.2445L46.6904 90.6089L45.5879 90.1201V91.2445Z" fill="#8197EE"/>
<path d="M44.4844 90.6089L45.5869 91.2445V90.1201L44.4844 90.6089Z" fill="#C1CCF8"/>
<rect x="33.707" y="100.829" width="6.05546" height="6.05546" rx="3.02773" fill="url(#paint4_linear_1005_5301)"/>
<path d="M36.78 102.04L36.7559 102.12V104.436L36.78 104.46L37.8824 103.824L36.78 102.04Z" fill="#C1CCF8"/>
<path d="M36.7783 102.04L35.6758 103.824L36.7783 104.46V103.336V102.04Z" fill="white"/>
<path d="M36.7773 104.663L36.7637 104.679V105.504L36.7773 105.543L37.8804 104.027L36.7773 104.663Z" fill="#C1CCF8"/>
<path d="M36.7783 105.543V104.663L35.6758 104.027L36.7783 105.543Z" fill="white"/>
<path d="M36.7773 104.459L37.8798 103.824L36.7773 103.335V104.459Z" fill="#8197EE"/>
<path d="M35.6758 103.824L36.7783 104.459V103.335L35.6758 103.824Z" fill="#C1CCF8"/>
<rect x="65.6367" y="103.029" width="6.05546" height="6.05546" rx="3.02773" fill="url(#paint5_linear_1005_5301)"/>
<path d="M68.7096 104.24L68.6855 104.32V106.637L68.7096 106.66L69.8121 106.024L68.7096 104.24Z" fill="#C1CCF8"/>
<path d="M68.708 104.24L67.6055 106.024L68.708 106.66V105.536V104.24Z" fill="white"/>
<path d="M68.7069 106.863L68.6934 106.879V107.704L68.7069 107.743L69.8101 106.228L68.7069 106.863Z" fill="#C1CCF8"/>
<path d="M68.708 107.743V106.863L67.6055 106.228L68.708 107.743Z" fill="white"/>
<path d="M68.707 106.66L69.8095 106.024L68.707 105.535V106.66Z" fill="#8197EE"/>
<path d="M67.6055 106.024L68.708 106.66V105.535L67.6055 106.024Z" fill="#C1CCF8"/>
<rect x="24.3477" y="90.3691" width="10.1842" height="10.1842" rx="5.09209" fill="url(#paint6_linear_1005_5301)"/>
<path d="M29.5132 92.4062L29.4727 92.5405V96.4366L29.5132 96.4761L31.3673 95.4071L29.5132 92.4062Z" fill="#C1CCF8"/>
<path d="M29.5105 92.4062L27.6562 95.4071L29.5105 96.4761V94.585V92.4062Z" fill="white"/>
<path d="M29.5111 96.8175L29.4883 96.8447V98.2325L29.5111 98.2975L31.3664 95.749L29.5111 96.8175Z" fill="#C1CCF8"/>
<path d="M29.5105 98.2975V96.8175L27.6562 95.749L29.5105 98.2975Z" fill="white"/>
<path d="M29.5098 96.476L31.3639 95.407L29.5098 94.585V96.476Z" fill="#8197EE"/>
<path d="M27.6562 95.407L29.5105 96.476V94.585L27.6562 95.407Z" fill="#C1CCF8"/>
<rect x="43.0664" y="69.4502" width="5.50496" height="5.50496" rx="2.75248" fill="url(#paint7_linear_1005_5301)"/>
<path d="M45.8598 70.5508L45.8379 70.6234V72.7294L45.8598 72.7507L46.862 72.1728L45.8598 70.5508Z" fill="#C1CCF8"/>
<path d="M45.8597 70.5508L44.8574 72.1728L45.8597 72.7507V71.7285V70.5508Z" fill="white"/>
<path d="M45.86 72.9359L45.8477 72.9506V73.7008L45.86 73.736L46.8629 72.3584L45.86 72.9359Z" fill="#C1CCF8"/>
<path d="M45.8597 73.736V72.9359L44.8574 72.3584L45.8597 73.736Z" fill="white"/>
<path d="M45.8613 72.7507L46.8636 72.1729L45.8613 71.7285V72.7507Z" fill="#8197EE"/>
<path d="M44.8574 72.1729L45.8597 72.7507V71.7285L44.8574 72.1729Z" fill="#C1CCF8"/>
<rect x="44.7168" y="101.378" width="5.50496" height="5.50496" rx="2.75248" fill="url(#paint8_linear_1005_5301)"/>
<path d="M47.5082 102.479L47.4863 102.552V104.658L47.5082 104.679L48.5105 104.102L47.5082 102.479Z" fill="#C1CCF8"/>
<path d="M47.5081 102.479L46.5059 104.102L47.5081 104.679V103.657V102.479Z" fill="white"/>
<path d="M47.5084 104.865L47.4961 104.879V105.63L47.5084 105.665L48.5113 104.287L47.5084 104.865Z" fill="#C1CCF8"/>
<path d="M47.5081 105.665V104.865L46.5059 104.287L47.5081 105.665Z" fill="white"/>
<path d="M47.5098 104.679L48.512 104.102L47.5098 103.657V104.679Z" fill="#8197EE"/>
<path d="M46.5059 104.102L47.5081 104.679V103.657L46.5059 104.102Z" fill="#C1CCF8"/>
<rect x="33.707" y="114.041" width="17.0654" height="17.0654" rx="8.53269" fill="url(#paint9_linear_1005_5301)"/>
<path d="M42.3628 117.454L42.2949 117.679V124.208L42.3628 124.274L45.4698 122.482L42.3628 117.454Z" fill="#C1CCF8"/>
<path d="M42.359 117.454L39.252 122.482L42.359 124.274V121.105V117.454Z" fill="white"/>
<path d="M42.3605 124.847L42.3223 124.893V127.218L42.3605 127.327L45.4694 123.057L42.3605 124.847Z" fill="#C1CCF8"/>
<path d="M42.359 127.327V124.847L39.252 123.057L42.359 127.327Z" fill="white"/>
<path d="M42.3594 124.273L45.4664 122.482L42.3594 121.104V124.273Z" fill="#8197EE"/>
<path d="M39.252 122.482L42.359 124.273V121.104L39.252 122.482Z" fill="#C1CCF8"/>
<rect x="33.707" y="77.1572" width="11.0099" height="11.0099" rx="5.50496" fill="url(#paint10_linear_1005_5301)"/>
<path d="M36.5686 82.7544L36.573 84.3377L37.9183 85.1293V86.0563L35.7856 84.8055V82.2914L36.5686 82.7544ZM36.5686 81.1711V82.0937L35.7852 81.6302V80.7076L36.5686 80.2441L37.356 80.7076L36.5686 81.1711ZM38.4801 80.7076L39.2636 80.2441L40.0509 80.7076L39.2636 81.1711L38.4801 80.7076Z" fill="white"/>
<path d="M37.1348 84.0095V83.0826L37.9183 83.546V84.4687L37.1348 84.0095ZM38.4801 85.4613L39.2636 85.9248L40.0509 85.4613V86.384L39.2636 86.8474L38.4801 86.384V85.4613ZM41.1746 80.7076L41.9581 80.2441L42.7454 80.7076V81.6302L41.9581 82.0937V81.1711L41.1746 80.7076ZM41.9581 84.3377L41.9624 82.7544L42.7459 82.2909V84.805L40.6132 86.0558V85.1288L41.9581 84.3377Z" fill="white"/>
<path d="M41.3968 84.009L40.6133 84.4681V83.5455L41.3968 83.082V84.009Z" fill="white"/>
<path d="M41.3962 81.4981L41.4005 82.425L40.0514 83.2167V84.8038L39.2679 85.263L38.4844 84.8038V83.2167L37.1352 82.425V81.4981L37.9221 81.0346L39.2631 81.8301L40.6123 81.0346L41.3996 81.4981H41.3962ZM37.1348 79.9153L39.2636 78.6602L41.3962 79.9153L40.6127 80.3788L39.2636 79.5833L37.9183 80.3788L37.1348 79.9153Z" fill="white"/>
<rect x="39.7617" y="61.7432" width="4.95447" height="4.95447" rx="2.47723" fill="url(#paint11_linear_1005_5301)"/>
<path d="M41.0498 64.2614L41.0518 64.9739L41.6572 65.3302V65.7473L40.6975 65.1844V64.0531L41.0498 64.2614ZM41.0498 63.549V63.9641L40.6973 63.7556V63.3404L41.0498 63.1318L41.4041 63.3404L41.0498 63.549ZM41.91 63.3404L42.2626 63.1318L42.6169 63.3404L42.2626 63.549L41.91 63.3404Z" fill="white"/>
<path d="M41.3047 64.8263V64.4091L41.6573 64.6177V65.0329L41.3047 64.8263ZM41.9101 65.4796L42.2627 65.6881L42.617 65.4796V65.8948L42.2627 66.1033L41.9101 65.8948V65.4796ZM43.1226 63.3404L43.4752 63.1318L43.8295 63.3404V63.7556L43.4752 63.9641V63.549L43.1226 63.3404ZM43.4752 64.9739L43.4771 64.2614L43.8297 64.0529V65.1842L42.87 65.7471V65.33L43.4752 64.9739Z" fill="white"/>
<path d="M43.2217 64.8273L42.8691 65.0339V64.6187L43.2217 64.4102V64.8273Z" fill="white"/>
<path d="M43.2223 63.697L43.2243 64.1141L42.6172 64.4704V65.1846L42.2646 65.3912L41.912 65.1846V64.4704L41.3049 64.1141V63.697L41.659 63.4884L42.2624 63.8464L42.8696 63.4884L43.2239 63.697H43.2223ZM41.3047 62.9847L42.2627 62.4199L43.2223 62.9847L42.8698 63.1933L42.2627 62.8353L41.6573 63.1933L41.3047 62.9847Z" fill="white"/>
<rect x="44.1641" y="108.534" width="4.95447" height="4.95447" rx="2.47723" fill="url(#paint12_linear_1005_5301)"/>
<path d="M45.4522 111.051L45.4541 111.764L46.0595 112.12V112.537L45.0998 111.974V110.843L45.4522 111.051ZM45.4522 110.339V110.754L45.0996 110.546V110.13L45.4522 109.922L45.8065 110.13L45.4522 110.339ZM46.3123 110.13L46.6649 109.922L47.0192 110.13L46.6649 110.339L46.3123 110.13Z" fill="white"/>
<path d="M45.707 111.616V111.199L46.0596 111.408V111.823L45.707 111.616ZM46.3124 112.27L46.665 112.478L47.0193 112.27V112.685L46.665 112.893L46.3124 112.685V112.27ZM47.5249 110.13L47.8775 109.922L48.2318 110.13V110.546L47.8775 110.754V110.339L47.5249 110.13ZM47.8775 111.764L47.8795 111.051L48.232 110.843V111.974L47.2723 112.537V112.12L47.8775 111.764Z" fill="white"/>
<path d="M47.626 111.617L47.2734 111.824V111.409L47.626 111.2V111.617Z" fill="white"/>
<path d="M47.6247 110.487L47.6266 110.904L47.0195 111.26V111.975L46.6669 112.181L46.3144 111.975V111.26L45.7072 110.904V110.487L46.0613 110.278L46.6648 110.636L47.2719 110.278L47.6262 110.487H47.6247ZM45.707 109.775L46.665 109.21L47.6247 109.775L47.2721 109.983L46.665 109.625L46.0596 109.983L45.707 109.775Z" fill="white"/>
<rect x="35.3594" y="91.4707" width="4.95447" height="4.95447" rx="2.47723" fill="url(#paint13_linear_1005_5301)"/>
<path d="M36.6475 93.987L36.6494 94.6995L37.2548 95.0558V95.4729L36.2951 94.91V93.7787L36.6475 93.987ZM36.6475 93.2745V93.6897L36.2949 93.4812V93.066L36.6475 92.8574L37.0018 93.066L36.6475 93.2745ZM37.5077 93.066L37.8602 92.8574L38.2145 93.066L37.8602 93.2745L37.5077 93.066Z" fill="white"/>
<path d="M36.9023 94.5518V94.1347L37.2549 94.3433V94.7585L36.9023 94.5518ZM37.5077 95.2052L37.8603 95.4137L38.2146 95.2052V95.6203L37.8603 95.8289L37.5077 95.6203V95.2052ZM38.7203 93.066L39.0728 92.8574L39.4271 93.066V93.4812L39.0728 93.6897V93.2745L38.7203 93.066ZM39.0728 94.6995L39.0748 93.987L39.4273 93.7785V94.9098L38.4676 95.4727V95.0555L39.0728 94.6995Z" fill="white"/>
<path d="M38.8213 94.5538L38.4688 94.7605V94.3453L38.8213 94.1367V94.5538Z" fill="white"/>
<path d="M38.82 93.4236L38.8219 93.8407L38.2148 94.1969V94.9111L37.8623 95.1178L37.5097 94.9111V94.1969L36.9026 93.8407V93.4236L37.2566 93.215L37.8601 93.573L38.4672 93.215L38.8215 93.4236H38.82ZM36.9023 92.7113L37.8603 92.1465L38.82 92.7113L38.4674 92.9199L37.8603 92.5619L37.2549 92.9199L36.9023 92.7113Z" fill="white"/>
<rect x="52.9727" y="88.9922" width="14.8634" height="14.8634" rx="7.4317" fill="url(#paint14_linear_1005_5301)"/>
<path d="M56.8351 96.5431L56.8409 98.6806L58.6571 99.7493V101.001L55.778 99.3121V95.9181L56.8351 96.5431ZM56.8351 94.4057V95.6512L55.7773 95.0255V93.78L56.8351 93.1543L57.898 93.78L56.8351 94.4057ZM59.4155 93.78L60.4733 93.1543L61.5362 93.78L60.4733 94.4057L59.4155 93.78Z" fill="white"/>
<path d="M57.5977 98.2375V96.9862L58.6554 97.6119V98.8574L57.5977 98.2375ZM59.4138 100.198L60.4716 100.823L61.5344 100.198V101.443L60.4716 102.069L59.4138 101.443V100.198ZM63.0514 93.78L64.1091 93.1543L65.172 93.78V95.0255L64.1091 95.6512V94.4057L63.0514 93.78ZM64.1091 98.6806L64.1149 96.5431L65.1726 95.9174V99.3114L62.2936 101V99.7487L64.1091 98.6806Z" fill="white"/>
<path d="M63.3526 98.2367L62.2949 98.8566V97.611L63.3526 96.9854V98.2367Z" fill="white"/>
<path d="M63.3506 94.8488L63.3565 96.1002L61.5351 97.1689V99.3115L60.4774 99.9314L59.4197 99.3115V97.1689L57.5983 96.1002V94.8488L58.6606 94.2231L60.4709 95.297L62.2923 94.2231L63.3552 94.8488H63.3506ZM57.5977 92.712L60.4716 91.0176L63.3506 92.712L62.2929 93.3377L60.4716 92.2638L58.6554 93.3377L57.5977 92.712Z" fill="white"/>
<rect x="18.8438" y="103.029" width="14.8634" height="14.8634" rx="7.4317" fill="url(#paint15_linear_1005_5301)"/>
<path d="M22.7062 110.581L22.712 112.719L24.5282 113.787V115.039L21.6491 113.35V109.956L22.7062 110.581ZM22.7062 108.444V109.689L21.6484 109.064V107.818L22.7062 107.192L23.769 107.818L22.7062 108.444ZM25.2866 107.818L26.3444 107.192L27.4072 107.818L26.3444 108.444L25.2866 107.818Z" fill="white"/>
<path d="M23.4688 112.276V111.024L24.5265 111.65V112.895L23.4688 112.276ZM25.2849 114.236L26.3426 114.861L27.4055 114.236V115.481L26.3426 116.107L25.2849 115.481V114.236ZM28.9225 107.818L29.9802 107.192L31.0431 107.818V109.064L29.9802 109.689V108.444L28.9225 107.818ZM29.9802 112.719L29.986 110.581L31.0437 109.956V113.35L28.1647 115.038V113.787L29.9802 112.719Z" fill="white"/>
<path d="M29.2257 112.274L28.168 112.894V111.648L29.2257 111.022V112.274Z" fill="white"/>
<path d="M29.2217 108.886L29.2276 110.137L27.4062 111.206V113.349L26.3485 113.968L25.2908 113.349V111.206L23.4694 110.137V108.886L24.5316 108.26L26.342 109.334L28.1634 108.26L29.2263 108.886H29.2217ZM23.4688 106.749L26.3426 105.055L29.2217 106.749L28.164 107.375L26.3426 106.301L24.5265 107.375L23.4688 106.749Z" fill="white"/>
<rect x="20.4961" y="76.6064" width="11.5604" height="11.5604" rx="5.78021" fill="url(#paint16_linear_1005_5301)"/>
<path fill-rule="evenodd" clip-rule="evenodd" d="M24.7076 84.6738H23.6473C23.4245 84.6738 23.3144 84.6738 23.2473 84.6294C23.1749 84.5809 23.1306 84.5005 23.1252 84.4118C23.1212 84.33 23.1762 84.2302 23.2863 84.0306L25.9042 79.2647C26.0156 79.0623 26.072 78.9611 26.1431 78.9237C26.2196 78.8835 26.3108 78.8835 26.3874 78.9237C26.4585 78.9611 26.5149 79.0623 26.6262 79.2647L27.1644 80.235L27.1672 80.24C27.2875 80.4571 27.3485 80.5672 27.3751 80.6827C27.4047 80.8089 27.4047 80.9419 27.3751 81.0681C27.3483 81.1845 27.2879 81.2954 27.1658 81.5158L25.7906 84.0264L25.7871 84.0329C25.666 84.2518 25.6046 84.3627 25.5195 84.4464C25.4269 84.5379 25.3155 84.6044 25.1934 84.6419C25.082 84.6738 24.9572 84.6738 24.7076 84.6738ZM27.3851 84.6738H28.9043C29.1284 84.6738 29.2412 84.6738 29.3083 84.6281C29.3808 84.5795 29.4264 84.4977 29.4305 84.4091C29.4343 84.33 29.3805 84.234 29.275 84.046C29.2714 84.0396 29.2678 84.0331 29.264 84.0265L28.503 82.6819L28.4944 82.6668C28.3875 82.48 28.3335 82.3857 28.2641 82.3492C28.1877 82.309 28.0977 82.309 28.0212 82.3492C27.9514 82.3866 27.8951 82.4851 27.7837 82.6833L27.0254 84.0278L27.0228 84.0325C26.9118 84.2304 26.8563 84.3293 26.8603 84.4104C26.8657 84.4992 26.91 84.5809 26.9824 84.6294C27.0482 84.6738 27.1609 84.6738 27.3851 84.6738Z" fill="white"/>
<rect x="52.4219" y="66.6973" width="4.95447" height="4.95447" rx="2.47723" fill="url(#paint17_linear_1005_5301)"/>
<path fill-rule="evenodd" clip-rule="evenodd" d="M54.2251 70.153H53.7707C53.6752 70.153 53.6281 70.153 53.5993 70.134C53.5682 70.1132 53.5493 70.0788 53.547 70.0407C53.5452 70.0057 53.5688 69.9629 53.616 69.8774L54.738 67.8348C54.7857 67.7481 54.8099 67.7047 54.8403 67.6887C54.8731 67.6715 54.9122 67.6715 54.945 67.6887C54.9755 67.7047 54.9997 67.7481 55.0474 67.8348L55.2781 68.2507L55.2792 68.2528C55.3308 68.3459 55.3569 68.393 55.3684 68.4426C55.381 68.4966 55.381 68.5537 55.3684 68.6077C55.3569 68.6576 55.331 68.7051 55.2786 68.7996L54.6893 69.8756L54.6878 69.8783C54.6359 69.9722 54.6096 70.0197 54.5731 70.0556C54.5334 70.0948 54.4857 70.1233 54.4333 70.1394C54.3856 70.153 54.3321 70.153 54.2251 70.153ZM55.3726 70.153H56.0237C56.1198 70.153 56.1681 70.153 56.1969 70.1334C56.2279 70.1126 56.2475 70.0776 56.2492 70.0396C56.2509 70.0057 56.2278 69.9645 56.1826 69.884C56.181 69.8812 56.1795 69.8784 56.1779 69.8756L55.8518 69.2994L55.848 69.2929C55.8022 69.2128 55.7791 69.1724 55.7494 69.1568C55.7166 69.1395 55.678 69.1395 55.6453 69.1568C55.6154 69.1728 55.5912 69.215 55.5435 69.2999L55.2185 69.8762L55.2174 69.8782C55.1698 69.963 55.146 70.0054 55.1477 70.0402C55.15 70.0782 55.169 70.1132 55.2001 70.134C55.2282 70.153 55.2766 70.153 55.3726 70.153Z" fill="white"/>
<rect x="46.3672" y="94.7715" width="4.95447" height="4.95447" rx="2.47723" fill="url(#paint18_linear_1005_5301)"/>
<path fill-rule="evenodd" clip-rule="evenodd" d="M48.1724 98.2272H47.718C47.6225 98.2272 47.5753 98.2272 47.5466 98.2082C47.5155 98.1874 47.4965 98.153 47.4942 98.115C47.4925 98.0799 47.5161 98.0371 47.5633 97.9516L48.6852 95.9091C48.733 95.8223 48.7571 95.779 48.7876 95.7629C48.8204 95.7457 48.8595 95.7457 48.8923 95.7629C48.9228 95.779 48.9469 95.8223 48.9947 95.9091L49.2253 96.3249L49.2265 96.327C49.2781 96.4201 49.3042 96.4673 49.3156 96.5168C49.3283 96.5708 49.3283 96.6279 49.3156 96.6819C49.3041 96.7318 49.2782 96.7794 49.2259 96.8738L48.6366 97.9498L48.635 97.9526C48.5831 98.0464 48.5568 98.0939 48.5204 98.1298C48.4807 98.169 48.4329 98.1975 48.3806 98.2136C48.3329 98.2272 48.2794 98.2272 48.1724 98.2272ZM49.3199 98.2272H49.971C50.067 98.2272 50.1154 98.2272 50.1441 98.2077C50.1752 98.1869 50.1947 98.1518 50.1965 98.1138C50.1981 98.0799 50.1751 98.0388 50.1299 97.9582C50.1283 97.9554 50.1268 97.9527 50.1252 97.9498L49.799 97.3736L49.7953 97.3671C49.7495 97.287 49.7263 97.2466 49.6966 97.231C49.6639 97.2138 49.6253 97.2138 49.5925 97.231C49.5626 97.247 49.5385 97.2892 49.4907 97.3742L49.1657 97.9504L49.1646 97.9524C49.117 98.0372 49.0933 98.0796 49.095 98.1144C49.0973 98.1524 49.1163 98.1874 49.1473 98.2082C49.1755 98.2272 49.2238 98.2272 49.3199 98.2272Z" fill="white"/>
<rect x="39.2109" y="96.9746" width="4.95447" height="4.95447" rx="2.47723" fill="url(#paint19_linear_1005_5301)"/>
<path fill-rule="evenodd" clip-rule="evenodd" d="M41.0142 100.43H40.5598C40.4643 100.43 40.4171 100.43 40.3884 100.411C40.3573 100.391 40.3383 100.356 40.336 100.318C40.3343 100.283 40.3579 100.24 40.405 100.155L41.527 98.1122C41.5748 98.0255 41.5989 97.9821 41.6294 97.966C41.6622 97.9488 41.7013 97.9488 41.7341 97.966C41.7646 97.9821 41.7887 98.0255 41.8365 98.1122L42.0671 98.528L42.0683 98.5302C42.1199 98.6232 42.146 98.6704 42.1574 98.7199C42.1701 98.774 42.1701 98.831 42.1574 98.8851C42.1459 98.935 42.12 98.9825 42.0677 99.0769L41.4784 100.153L41.4768 100.156C41.4249 100.249 41.3986 100.297 41.3622 100.333C41.3225 100.372 41.2747 100.401 41.2224 100.417C41.1747 100.43 41.1212 100.43 41.0142 100.43ZM42.1617 100.43H42.8128C42.9088 100.43 42.9572 100.43 42.9859 100.411C43.017 100.39 43.0365 100.355 43.0383 100.317C43.0399 100.283 43.0169 100.242 42.9717 100.161C42.9701 100.159 42.9685 100.156 42.967 100.153L42.6408 99.5767L42.6371 99.5702C42.5913 99.4902 42.5681 99.4497 42.5384 99.4341C42.5057 99.4169 42.4671 99.4169 42.4343 99.4341C42.4044 99.4502 42.3803 99.4923 42.3325 99.5773L42.0075 100.154L42.0064 100.156C41.9588 100.24 41.9351 100.283 41.9368 100.317C41.9391 100.356 41.9581 100.391 41.9891 100.411C42.0173 100.43 42.0656 100.43 42.1617 100.43Z" fill="white"/>
<rect x="35.9102" y="108.534" width="4.95447" height="4.95447" rx="2.47723" fill="url(#paint20_linear_1005_5301)"/>
<path fill-rule="evenodd" clip-rule="evenodd" d="M37.7134 111.99H37.259C37.1635 111.99 37.1163 111.99 37.0876 111.971C37.0565 111.95 37.0375 111.916 37.0352 111.878C37.0335 111.843 37.0571 111.8 37.1043 111.714L38.2262 109.672C38.274 109.585 38.2981 109.542 38.3286 109.526C38.3614 109.508 38.4005 109.508 38.4333 109.526C38.4638 109.542 38.488 109.585 38.5357 109.672L38.7663 110.088L38.7675 110.09C38.8191 110.183 38.8452 110.23 38.8566 110.279C38.8693 110.334 38.8693 110.391 38.8566 110.445C38.8451 110.495 38.8193 110.542 38.7669 110.637L38.1776 111.712L38.176 111.715C38.1241 111.809 38.0978 111.857 38.0614 111.892C38.0217 111.932 37.974 111.96 37.9216 111.976C37.8739 111.99 37.8204 111.99 37.7134 111.99ZM38.8609 111.99H39.512C39.6081 111.99 39.6564 111.99 39.6852 111.97C39.7162 111.95 39.7358 111.914 39.7375 111.876C39.7392 111.843 39.7161 111.801 39.6709 111.721C39.6693 111.718 39.6678 111.715 39.6662 111.713L39.34 111.136L39.3363 111.13C39.2905 111.05 39.2674 111.009 39.2376 110.994C39.2049 110.976 39.1663 110.976 39.1335 110.994C39.1036 111.01 39.0795 111.052 39.0317 111.137L38.7068 111.713L38.7056 111.715C38.6581 111.8 38.6343 111.842 38.636 111.877C38.6383 111.915 38.6573 111.95 38.6883 111.971C38.7165 111.99 38.7648 111.99 38.8609 111.99Z" fill="white"/>
<rect x="47.4688" y="74.9541" width="11.5604" height="11.5604" rx="5.78021" fill="url(#paint21_linear_1005_5301)"/>
<path fill-rule="evenodd" clip-rule="evenodd" d="M51.6802 83.0195H50.6199C50.3971 83.0195 50.2871 83.0195 50.22 82.9751C50.1475 82.9266 50.1032 82.8462 50.0979 82.7575C50.0938 82.6757 50.1489 82.5759 50.2589 82.3763L52.8768 77.6104C52.9882 77.408 53.0446 77.3068 53.1157 77.2694C53.1922 77.2292 53.2835 77.2292 53.36 77.2694C53.4311 77.3068 53.4875 77.408 53.5989 77.6104L54.1371 78.5807L54.1398 78.5857C54.2602 78.8028 54.3212 78.9129 54.3478 79.0284C54.3773 79.1546 54.3773 79.2876 54.3478 79.4138C54.321 79.5302 54.2606 79.6411 54.1384 79.8615L52.7633 82.3721L52.7597 82.3786C52.6386 82.5975 52.5773 82.7084 52.4922 82.7921C52.3996 82.8836 52.2882 82.9501 52.1661 82.9876C52.0547 83.0195 51.9298 83.0195 51.6802 83.0195ZM54.3577 83.0195H55.877C56.1011 83.0195 56.2139 83.0195 56.281 82.9738C56.3535 82.9253 56.3991 82.8434 56.4031 82.7548C56.407 82.6757 56.3532 82.5797 56.2477 82.3917C56.2441 82.3853 56.2404 82.3788 56.2367 82.3722L55.4757 81.0276L55.467 81.0125C55.3601 80.8257 55.3061 80.7314 55.2368 80.6949C55.1603 80.6547 55.0704 80.6547 54.9939 80.6949C54.9241 80.7323 54.8677 80.8308 54.7563 81.029L53.998 82.3736L53.9954 82.3782C53.8844 82.5761 53.829 82.675 53.833 82.7561C53.8383 82.8449 53.8826 82.9266 53.9551 82.9751C54.0209 83.0195 54.1336 83.0195 54.3577 83.0195Z" fill="white"/>
<rect x="50.7734" y="105.783" width="14.8634" height="14.8634" rx="7.4317" fill="url(#paint22_linear_1005_5301)"/>
<path fill-rule="evenodd" clip-rule="evenodd" d="M56.1851 116.153H54.8219C54.5355 116.153 54.394 116.153 54.3077 116.096C54.2145 116.034 54.1576 115.931 54.1507 115.817C54.1455 115.711 54.2162 115.583 54.3577 115.326L57.7236 109.199C57.8669 108.939 57.9393 108.809 58.0308 108.76C58.1291 108.709 58.2465 108.709 58.3448 108.76C58.4363 108.809 58.5088 108.939 58.652 109.199L59.344 110.446L59.3475 110.453C59.5022 110.732 59.5806 110.873 59.6149 111.022C59.6528 111.184 59.6528 111.355 59.6149 111.517C59.5804 111.667 59.5027 111.81 59.3457 112.093L57.5776 115.321L57.5731 115.329C57.4174 115.611 57.3384 115.753 57.2291 115.861C57.11 115.979 56.9668 116.064 56.8098 116.112C56.6665 116.153 56.5061 116.153 56.1851 116.153ZM59.6276 116.153H61.5809C61.8691 116.153 62.0141 116.153 62.1004 116.095C62.1936 116.032 62.2522 115.927 62.2574 115.813C62.2624 115.711 62.1932 115.588 62.0576 115.346C62.0529 115.338 62.0482 115.33 62.0435 115.321L61.065 113.592L61.0539 113.573C60.9164 113.333 60.847 113.212 60.7579 113.165C60.6596 113.113 60.5439 113.113 60.4456 113.165C60.3558 113.213 60.2834 113.339 60.1401 113.594L59.1652 115.323L59.1618 115.329C59.0191 115.583 58.9478 115.71 58.9529 115.815C58.9598 115.929 59.0168 116.034 59.11 116.096C59.1945 116.153 59.3395 116.153 59.6276 116.153Z" fill="white"/>
</g>
</g>
<defs>
<linearGradient id="paint0_linear_1005_5301" x1="117.251" y1="16.0518" x2="40.8291" y2="54.7861" gradientUnits="userSpaceOnUse">
<stop stop-color="#A3ABF8"/>
<stop offset="1" stop-color="#7770E0"/>
</linearGradient>
<linearGradient id="paint1_linear_1005_5301" x1="119.345" y1="16.0525" x2="31.407" y2="53.74" gradientUnits="userSpaceOnUse">
<stop stop-color="#A3ABF8"/>
<stop offset="1" stop-color="#7770E0"/>
</linearGradient>
<linearGradient id="paint2_linear_1005_5301" x1="40.0357" y1="76.3297" x2="29.8516" y2="66.1455" gradientUnits="userSpaceOnUse">
<stop stop-color="#556ECC"/>
<stop offset="1" stop-color="#627EEA"/>
</linearGradient>
<linearGradient id="paint3_linear_1005_5301" x1="48.5711" y1="93.6707" x2="42.5156" y2="87.6152" gradientUnits="userSpaceOnUse">
<stop stop-color="#556ECC"/>
<stop offset="1" stop-color="#627EEA"/>
</linearGradient>
<linearGradient id="paint4_linear_1005_5301" x1="39.7625" y1="106.885" x2="33.707" y2="100.829" gradientUnits="userSpaceOnUse">
<stop stop-color="#556ECC"/>
<stop offset="1" stop-color="#627EEA"/>
</linearGradient>
<linearGradient id="paint5_linear_1005_5301" x1="71.6922" y1="109.085" x2="65.6367" y2="103.029" gradientUnits="userSpaceOnUse">
<stop stop-color="#556ECC"/>
<stop offset="1" stop-color="#627EEA"/>
</linearGradient>
<linearGradient id="paint6_linear_1005_5301" x1="34.5318" y1="100.553" x2="24.3477" y2="90.3691" gradientUnits="userSpaceOnUse">
<stop stop-color="#556ECC"/>
<stop offset="1" stop-color="#627EEA"/>
</linearGradient>
<linearGradient id="paint7_linear_1005_5301" x1="48.5714" y1="74.9552" x2="43.0664" y2="69.4502" gradientUnits="userSpaceOnUse">
<stop stop-color="#556ECC"/>
<stop offset="1" stop-color="#627EEA"/>
</linearGradient>
<linearGradient id="paint8_linear_1005_5301" x1="50.2218" y1="106.883" x2="44.7168" y2="101.378" gradientUnits="userSpaceOnUse">
<stop stop-color="#556ECC"/>
<stop offset="1" stop-color="#627EEA"/>
</linearGradient>
<linearGradient id="paint9_linear_1005_5301" x1="50.7724" y1="131.106" x2="33.707" y2="114.041" gradientUnits="userSpaceOnUse">
<stop stop-color="#556ECC"/>
<stop offset="1" stop-color="#627EEA"/>
</linearGradient>
<linearGradient id="paint10_linear_1005_5301" x1="44.717" y1="88.1672" x2="33.707" y2="77.1572" gradientUnits="userSpaceOnUse">
<stop stop-color="#D1A000"/>
<stop offset="1" stop-color="#FFD632"/>
</linearGradient>
<linearGradient id="paint11_linear_1005_5301" x1="44.7162" y1="66.6976" x2="39.7617" y2="61.7432" gradientUnits="userSpaceOnUse">
<stop stop-color="#D1A000"/>
<stop offset="1" stop-color="#FFD632"/>
</linearGradient>
<linearGradient id="paint12_linear_1005_5301" x1="49.1185" y1="113.489" x2="44.1641" y2="108.534" gradientUnits="userSpaceOnUse">
<stop stop-color="#D1A000"/>
<stop offset="1" stop-color="#FFD632"/>
</linearGradient>
<linearGradient id="paint13_linear_1005_5301" x1="40.3138" y1="96.4252" x2="35.3594" y2="91.4707" gradientUnits="userSpaceOnUse">
<stop stop-color="#D1A000"/>
<stop offset="1" stop-color="#FFD632"/>
</linearGradient>
<linearGradient id="paint14_linear_1005_5301" x1="67.8361" y1="103.856" x2="52.9727" y2="88.9922" gradientUnits="userSpaceOnUse">
<stop stop-color="#D1A000"/>
<stop offset="1" stop-color="#FFD632"/>
</linearGradient>
<linearGradient id="paint15_linear_1005_5301" x1="33.7071" y1="117.893" x2="18.8438" y2="103.029" gradientUnits="userSpaceOnUse">
<stop stop-color="#D1A000"/>
<stop offset="1" stop-color="#FFD632"/>
</linearGradient>
<linearGradient id="paint16_linear_1005_5301" x1="32.0565" y1="88.1669" x2="20.4961" y2="76.6064" gradientUnits="userSpaceOnUse">
<stop stop-color="#D91D1E"/>
<stop offset="1" stop-color="#FF7576"/>
</linearGradient>
<linearGradient id="paint17_linear_1005_5301" x1="57.3763" y1="71.6517" x2="52.4219" y2="66.6973" gradientUnits="userSpaceOnUse">
<stop stop-color="#D91D1E"/>
<stop offset="1" stop-color="#FF7576"/>
</linearGradient>
<linearGradient id="paint18_linear_1005_5301" x1="51.3217" y1="99.726" x2="46.3672" y2="94.7715" gradientUnits="userSpaceOnUse">
<stop stop-color="#D91D1E"/>
<stop offset="1" stop-color="#FF7576"/>
</linearGradient>
<linearGradient id="paint19_linear_1005_5301" x1="44.1654" y1="101.929" x2="39.2109" y2="96.9746" gradientUnits="userSpaceOnUse">
<stop stop-color="#D91D1E"/>
<stop offset="1" stop-color="#FF7576"/>
</linearGradient>
<linearGradient id="paint20_linear_1005_5301" x1="40.8646" y1="113.489" x2="35.9102" y2="108.534" gradientUnits="userSpaceOnUse">
<stop stop-color="#D91D1E"/>
<stop offset="1" stop-color="#FF7576"/>
</linearGradient>
<linearGradient id="paint21_linear_1005_5301" x1="59.0292" y1="86.5145" x2="47.4688" y2="74.9541" gradientUnits="userSpaceOnUse">
<stop stop-color="#D91D1E"/>
<stop offset="1" stop-color="#FF7576"/>
</linearGradient>
<linearGradient id="paint22_linear_1005_5301" x1="65.6368" y1="120.647" x2="50.7734" y2="105.783" gradientUnits="userSpaceOnUse">
<stop stop-color="#D91D1E"/>
<stop offset="1" stop-color="#FF7576"/>
</linearGradient>
</defs>
</svg>
