<svg width="32" height="32" viewBox="0 0 32 32" fill="none" xmlns="http://www.w3.org/2000/svg">
<path d="M15.9999 10.6667V17.3333M15.9999 21.3333H16.0132M11.7966 27.547H20.2032C21.1006 27.547 21.5493 27.547 21.951 27.4165C22.3064 27.301 22.6336 27.1121 22.9113 26.8621C23.2252 26.5794 23.4495 26.1909 23.8982 25.4137L28.1016 18.1333C28.5503 17.3561 28.7746 16.9676 28.8624 16.5544C28.9401 16.1889 28.9401 15.8111 28.8624 15.4456C28.7746 15.0324 28.5503 14.6438 28.1016 13.8667L23.8982 6.58632C23.4495 5.80914 23.2252 5.42055 22.9113 5.13793C22.6336 4.88788 22.3064 4.69898 21.951 4.5835C21.5493 4.45299 21.1006 4.45299 20.2032 4.45299H11.7966C10.8992 4.45299 10.4505 4.45299 10.0488 4.5835C9.69338 4.69898 9.3662 4.88788 9.08849 5.13793C8.77461 5.42055 8.55026 5.80914 8.10155 6.58632L3.89825 13.8667C3.44954 14.6438 3.22519 15.0324 3.13737 15.4456C3.05968 15.8111 3.05968 16.1889 3.13737 16.5544C3.22519 16.9676 3.44954 17.3561 3.89825 18.1333L8.10155 25.4137C8.55026 26.1908 8.77461 26.5794 9.08849 26.8621C9.3662 27.1121 9.69338 27.301 10.0488 27.4165C10.4505 27.547 10.8992 27.547 11.7966 27.547Z" stroke="#7770E0" stroke-width="2" stroke-linecap="round" stroke-linejoin="round"/>
</svg>
