<svg width="60" height="60" viewBox="0 0 60 60" fill="none" xmlns="http://www.w3.org/2000/svg">
<rect x="0.5" y="0.5" width="59" height="59" rx="7.5" fill="url(#paint0_radial_3885_5811)" stroke="#8969D7"/>
<path d="M23.6617 18.4541L22.4792 19.0948L22.7248 17.7756L21.75 16.8513L23.0819 16.6741L23.6617 15.4638L24.239 16.6741L25.5709 16.8513L24.596 17.7756L24.8417 19.0948L23.6617 18.4541Z" fill="url(#paint1_linear_3885_5811)"/>
<path style="mix-blend-mode:overlay" d="M21.75 16.8513L23.6617 17.2793V15.4638L23.0819 16.6741L21.75 16.8513Z" fill="url(#paint2_radial_3885_5811)"/>
<path style="mix-blend-mode:multiply" d="M23.6602 17.2794L25.5693 16.8515L24.5945 17.7757L24.8401 19.0949L23.6602 17.2794Z" fill="url(#paint3_linear_3885_5811)"/>
<path style="mix-blend-mode:multiply" d="M23.659 17.2805L22.4766 19.096L23.659 18.4554V17.2805Z" fill="url(#paint4_linear_3885_5811)"/>
<path d="M37.3311 18.4541L36.1511 19.0948L36.3967 17.7756L35.4219 16.8513L36.7537 16.6741L37.3311 15.4638L37.9109 16.6741L39.2428 16.8513L38.2679 17.7756L38.5135 19.0948L37.3311 18.4541Z" fill="url(#paint5_linear_3885_5811)"/>
<path style="mix-blend-mode:overlay" d="M35.4219 16.8513L37.3311 17.2793V15.4638L36.7537 16.6741L35.4219 16.8513Z" fill="url(#paint6_radial_3885_5811)"/>
<path style="mix-blend-mode:multiply" d="M37.3281 17.2794L39.2398 16.8515L38.265 17.7757L38.5106 19.0949L37.3281 17.2794Z" fill="url(#paint7_linear_3885_5811)"/>
<path style="mix-blend-mode:multiply" d="M37.3323 17.2805L36.1523 19.096L37.3323 18.4554V17.2805Z" fill="url(#paint8_linear_3885_5811)"/>
<path d="M30.5016 14.2115L29.3191 14.8521L29.5647 13.5303L28.5898 12.6061L29.9217 12.4314L30.5016 11.2186L31.0789 12.4314L32.4107 12.6061L31.4359 13.5303L31.6815 14.8521L30.5016 14.2115Z" fill="url(#paint9_linear_3885_5811)"/>
<path style="mix-blend-mode:overlay" d="M28.5898 12.6061L30.5016 13.0341V11.2186L29.9217 12.4314L28.5898 12.6061Z" fill="url(#paint10_radial_3885_5811)"/>
<path style="mix-blend-mode:multiply" d="M30.4961 13.0342L32.4053 12.6062L31.4304 13.5304L31.676 14.8522L30.4961 13.0342Z" fill="url(#paint11_linear_3885_5811)"/>
<path style="mix-blend-mode:multiply" d="M30.4989 13.0334L29.3164 14.8514L30.4989 14.2108V13.0334Z" fill="url(#paint12_linear_3885_5811)"/>
<path d="M31.8583 18.9833V19.0947L31.8203 19.039L31.8583 18.9833Z" fill="url(#paint13_linear_3885_5811)"/>
<path d="M30.3991 49.9721C30.3569 49.9626 30.3154 49.9499 30.2751 49.9341C29.1844 49.5435 28.1282 49.0624 27.1176 48.4959C20.357 44.7156 16.1562 37.4536 16.1562 29.5459V20.4305L16.7817 20.5824C18.2621 20.9521 19.7807 21.1467 21.3065 21.1623C26.9834 21.1623 29.5711 18.1466 30.0497 17.5136C30.0683 17.4854 30.0886 17.4583 30.1105 17.4325L30.546 16.9261L30.941 17.5237C31.4196 18.1542 34.0073 21.1724 39.6868 21.1724C41.2127 21.1552 42.7314 20.9589 44.2116 20.5875L44.837 20.4356V29.551C44.837 37.4587 40.6363 44.7206 33.8757 48.501C32.8595 49.0716 31.7974 49.556 30.7004 49.9493C30.6666 49.9619 30.6319 49.972 30.5966 49.9797L30.4979 50L30.3991 49.9721Z" fill="url(#paint14_linear_3885_5811)"/>
<path d="M44.3317 21.0944V29.5439C44.3317 37.1831 40.2982 44.3236 33.6312 48.0533C32.6368 48.6065 31.5975 49.0749 30.5244 49.4535L30.4915 49.4662L30.4535 49.4535C29.3832 49.0718 28.3473 48.6 27.3568 48.0432C20.6898 44.316 16.6562 37.1755 16.6562 29.5363V21.0944C25.9034 23.3023 29.899 18.5623 30.4611 17.8027L30.4991 17.752C30.4991 17.7672 30.5193 17.7824 30.532 17.8027C31.0966 18.5623 35.0821 23.3023 44.3317 21.0944Z" fill="url(#paint15_linear_3885_5811)"/>
<path style="mix-blend-mode:multiply" d="M19.3516 39.9786C21.217 43.3637 23.9909 46.1603 27.3605 48.0534C28.3513 48.6068 29.3873 49.0752 30.4572 49.4536L30.4952 49.4663L30.5205 49.4536C31.5913 49.0713 32.6281 48.5995 33.6198 48.0433C36.9894 46.1502 39.7633 43.3535 41.6287 39.9685L19.3516 39.9786Z" fill="url(#paint16_linear_3885_5811)"/>
<path style="mix-blend-mode:screen" d="M44.3317 21.0944V29.5439C44.3317 37.1831 40.2982 44.3236 33.6312 48.0533C32.6368 48.6065 31.5975 49.0749 30.5244 49.4535L30.4915 49.4662L30.4535 49.4535C29.3832 49.0718 28.3473 48.6 27.3568 48.0432C20.6898 44.316 16.6562 37.1755 16.6562 29.5363V21.0944C25.9034 23.3023 29.899 18.5623 30.4611 17.8027L30.4991 17.752C30.4991 17.7672 30.5193 17.7824 30.532 17.8027C31.0966 18.5623 35.0821 23.3023 44.3317 21.0944Z" stroke="url(#paint17_linear_3885_5811)" stroke-width="0.81" stroke-miterlimit="10"/>
<g style="mix-blend-mode:multiply" opacity="0.7">
<path d="M30.4959 21.283C32.2987 22.6706 35.284 24.1999 39.6873 24.1999C40.3927 24.1989 41.0976 24.1609 41.799 24.086V29.5426C41.799 36.3513 38.1934 42.5979 32.3924 45.8415C31.7786 46.1853 31.1454 46.493 30.4959 46.7632C29.8463 46.493 29.2131 46.1853 28.5994 45.8415C22.8009 42.5979 19.1953 36.3539 19.1953 29.5451V24.086C19.8967 24.1609 20.6016 24.1989 21.307 24.1999C25.7077 24.1999 28.693 22.6807 30.4959 21.283ZM30.4959 19.9815L30.1743 20.2347C28.5437 21.5767 25.6799 23.177 21.3121 23.177C20.4585 23.1746 19.6059 23.1171 18.7597 23.0048L18.1875 22.9288V29.5451C18.1875 36.721 21.9856 43.3044 28.1107 46.7252C28.8216 47.124 29.5574 47.4767 30.3136 47.7811L30.5009 47.857L30.6908 47.7811C31.447 47.4767 32.1828 47.124 32.8937 46.7252C39.0138 43.3018 42.8169 36.7185 42.8169 29.5426V22.939L42.2447 23.0149C41.3985 23.1272 40.5459 23.1847 39.6923 23.1871C35.3169 23.1871 32.4532 21.5868 30.8301 20.2448L30.5085 19.9916L30.4959 19.9815Z" fill="url(#paint18_linear_3885_5811)"/>
</g>
<path d="M30.4945 47.3099C29.7592 47.0193 29.0436 46.681 28.3524 46.2971C22.3919 42.9523 18.6875 36.5385 18.6875 29.545V23.5161C19.5555 23.6315 20.43 23.6907 21.3057 23.6934C25.8507 23.6934 28.8259 22.0095 30.4945 20.6371C32.1632 22.0095 35.1383 23.6934 39.6859 23.6934C40.5616 23.6907 41.4361 23.6315 42.3041 23.5161V29.5424C42.3041 36.536 38.5997 42.9497 32.6392 46.2819C31.9469 46.67 31.2306 47.0133 30.4945 47.3099Z" fill="url(#paint19_radial_3885_5811)"/>
<g style="mix-blend-mode:lighten" opacity="0.5">
<path d="M21.3032 24.2012C20.5977 24.2002 19.8928 24.1622 19.1914 24.0873V29.5464C19.1914 36.3552 22.7971 42.5992 28.5955 45.8428C29.1888 46.1742 29.8 46.4726 30.4262 46.7366V21.3324C28.6183 22.7073 25.6507 24.2012 21.3032 24.2012Z" fill="url(#paint20_radial_3885_5811)" style="mix-blend-mode:screen"/>
</g>
<g style="mix-blend-mode:lighten">
<path d="M39.6908 24.2001C35.2901 24.2001 32.3023 22.6809 30.4994 21.2832L30.4336 21.3313V46.7355L30.4994 46.7634C31.1489 46.4932 31.7822 46.1855 32.3959 45.8417C38.1969 42.5982 41.8026 36.3515 41.8026 29.5428V24.0862C41.1011 24.1611 40.3963 24.1991 39.6908 24.2001Z" fill="url(#paint21_radial_3885_5811)" style="mix-blend-mode:color-dodge"/>
</g>
<path style="mix-blend-mode:multiply" d="M30.4945 47.3099C29.7592 47.0193 29.0436 46.681 28.3524 46.2971C22.3919 42.9523 18.6875 36.5385 18.6875 29.545V23.5161C19.5555 23.6315 20.43 23.6907 21.3057 23.6934C25.8507 23.6934 28.8259 22.0095 30.4945 20.6371C32.1632 22.0095 35.1383 23.6934 39.6859 23.6934C40.5616 23.6907 41.4361 23.6315 42.3041 23.5161V29.5424C42.3041 36.536 38.5997 42.9497 32.6392 46.2819C31.9469 46.67 31.2306 47.0133 30.4945 47.3099Z" stroke="url(#paint22_linear_3885_5811)" stroke-width="0.5" stroke-miterlimit="10"/>
<path style="mix-blend-mode:screen" d="M42.8097 22.9393V29.5429C42.8097 36.7188 39.0116 43.3022 32.8865 46.7255C32.1756 47.1244 31.4398 47.4771 30.6836 47.7814" stroke="url(#paint23_linear_3885_5811)" stroke-width="0.81" stroke-miterlimit="10"/>
<path d="M31.8179 19.039L31.7773 19.0947V18.9833C31.7773 18.9833 31.7849 19.0036 31.8179 19.039Z" fill="url(#paint24_linear_3885_5811)"/>
<path style="mix-blend-mode:multiply" d="M20.1377 32.4064C20.058 32.6391 19.908 32.8413 19.7084 32.985C19.5088 33.1288 19.2695 33.2071 19.0236 33.209L16.375 32.7026C16.3193 32.3101 16.2712 31.9151 16.2383 31.5176V31.5049C16.6029 31.1353 18.5982 31.3682 18.5982 31.3682L19.5224 29.9553L19.7351 30.1199L20.1377 32.4064Z" fill="url(#paint25_linear_3885_5811)"/>
<path style="mix-blend-mode:multiply" d="M20.7697 35.9583C20.7697 35.9583 20.7064 36.4368 20.0455 36.7179L17.3033 36.5888C17.1142 36.0233 16.9454 35.451 16.7969 34.872C17.1262 34.7784 17.4674 34.7332 17.8097 34.7378C18.0832 34.7657 20.1392 33.6895 20.1392 33.6895L20.3164 33.8389L20.7697 35.9583Z" fill="url(#paint26_linear_3885_5811)"/>
<path style="mix-blend-mode:multiply" d="M21.1553 38.4842C21.102 38.6141 21.0205 38.7305 20.9167 38.8251C20.8129 38.9196 20.6895 38.99 20.5552 39.0312C19.8517 39.1092 19.1539 39.2327 18.4663 39.4008C18.2738 39.0126 18.0924 38.6193 17.9219 38.2209C18.054 38.0253 18.235 37.8677 18.4469 37.7638C18.6587 37.6598 18.8942 37.6132 19.1297 37.6284C19.4664 37.6689 20.6742 36.9599 20.6742 36.9599L20.8262 37.1093L21.1553 38.4842Z" fill="url(#paint27_linear_3885_5811)"/>
<path d="M19.9208 32.4071L19.5258 29.9434L9 25.4161L9.96219 29.9434L19.9208 32.4071Z" fill="url(#paint28_linear_3885_5811)"/>
<path d="M20.1453 33.691L11.9414 31.7793L12.6377 35.0001L20.5606 35.9041L20.1453 33.691Z" fill="url(#paint29_linear_3885_5811)"/>
<path d="M20.677 36.9588L15.0938 36.5891L15.5521 38.6705L20.9985 38.3945L20.677 36.9588Z" fill="url(#paint30_linear_3885_5811)"/>
<path d="M19.9196 32.4064C19.8214 32.5575 19.6763 32.6722 19.5065 32.7326C19.3367 32.793 19.1517 32.7958 18.9802 32.7406L9.96094 29.9553L19.9196 32.4064Z" fill="url(#paint31_linear_3885_5811)"/>
<path d="M20.5635 35.9044C20.457 36.0691 20.3036 36.198 20.1229 36.2743C19.9423 36.3506 19.7429 36.3709 19.5506 36.3324L12.6406 35.0005L20.5635 35.9044Z" fill="url(#paint32_linear_3885_5811)"/>
<path d="M20.9934 38.3939C20.893 38.5116 20.7679 38.6055 20.6269 38.669C20.4859 38.7325 20.3326 38.764 20.178 38.7611L15.5469 38.6699L20.9934 38.3939Z" fill="url(#paint33_linear_3885_5811)"/>
<path style="mix-blend-mode:overlay" d="M9 25.4161L9.44818 27.5253L19.7385 31.2601L19.5258 29.9434L9 25.4161Z" fill="url(#paint34_radial_3885_5811)"/>
<path style="mix-blend-mode:overlay" d="M11.9414 31.7793L20.1453 33.691L20.3225 34.6431L12.2756 33.329L11.9414 31.7793Z" fill="url(#paint35_radial_3885_5811)"/>
<path style="mix-blend-mode:overlay" d="M15.0938 36.5891L20.677 36.9588L20.8289 37.6298H15.3242L15.0938 36.5891Z" fill="url(#paint36_radial_3885_5811)"/>
<path style="mix-blend-mode:multiply" d="M40.8477 32.4064C40.9274 32.6391 41.0774 32.8413 41.2769 32.985C41.4765 33.1288 41.7158 33.2071 41.9618 33.209L44.6103 32.7026C44.666 32.3101 44.7141 31.9151 44.747 31.5176V31.5049C44.3824 31.1353 42.3872 31.3682 42.3872 31.3682L41.468 29.9553L41.2553 30.1199L40.8477 32.4064Z" fill="url(#paint37_linear_3885_5811)"/>
<path style="mix-blend-mode:multiply" d="M40.2227 35.9583C40.2227 35.9583 40.286 36.4368 40.9468 36.7179L43.6916 36.5888C43.8823 36.0233 44.0511 35.451 44.198 34.872C43.8687 34.7784 43.5275 34.7332 43.1852 34.7378C42.9142 34.753 40.8506 33.6895 40.8506 33.6895L40.6734 33.8389L40.2227 35.9583Z" fill="url(#paint38_linear_3885_5811)"/>
<path style="mix-blend-mode:multiply" d="M39.8281 38.4842C39.8815 38.6141 39.963 38.7305 40.0668 38.8251C40.1705 38.9196 40.294 38.99 40.4282 39.0312C41.1318 39.1092 41.8296 39.2327 42.5172 39.4008C42.7096 39.0126 42.8911 38.6193 43.0616 38.2209C42.9299 38.0261 42.7497 37.869 42.5388 37.7651C42.3279 37.6612 42.0935 37.6141 41.8588 37.6284C41.5221 37.6689 40.3143 36.9599 40.3143 36.9599L40.1624 37.1093L39.8281 38.4842Z" fill="url(#paint39_linear_3885_5811)"/>
<path d="M41.0703 32.4071L41.4653 29.9434L51.9911 25.4161L51.0289 29.9434L41.0703 32.4071Z" fill="url(#paint40_linear_3885_5811)"/>
<path d="M40.8449 33.691L49.0488 31.7793L48.3525 35.0001L40.4297 35.9041L40.8449 33.691Z" fill="url(#paint41_linear_3885_5811)"/>
<path d="M40.3177 36.9588L45.9009 36.5891L45.4426 38.6705L39.9961 38.3945L40.3177 36.9588Z" fill="url(#paint42_linear_3885_5811)"/>
<path d="M41.0703 32.4064C41.1684 32.5575 41.3136 32.6722 41.4834 32.7326C41.6532 32.793 41.8382 32.7958 42.0097 32.7406L51.0315 29.9553L41.0703 32.4064Z" fill="url(#paint43_linear_3885_5811)"/>
<path d="M40.4297 35.9044C40.5364 36.0689 40.6899 36.1976 40.8704 36.2738C41.051 36.3501 41.2503 36.3705 41.4425 36.3324L48.3576 35.0005L40.4297 35.9044Z" fill="url(#paint44_linear_3885_5811)"/>
<path d="M39.9961 38.3939C40.0964 38.5116 40.2216 38.6055 40.3625 38.669C40.5035 38.7325 40.6568 38.764 40.8114 38.7611L45.4426 38.6699L39.9961 38.3939Z" fill="url(#paint45_linear_3885_5811)"/>
<path style="mix-blend-mode:overlay" d="M51.9938 25.4161L51.5456 27.5253L41.2578 31.2601L41.468 29.9434L51.9938 25.4161Z" fill="url(#paint46_radial_3885_5811)"/>
<path style="mix-blend-mode:overlay" d="M49.0452 31.7793L40.8413 33.691L40.6641 34.6431L48.711 33.329L49.0452 31.7793Z" fill="url(#paint47_radial_3885_5811)"/>
<path style="mix-blend-mode:overlay" d="M45.8992 36.5891L40.316 36.9588L40.1641 37.6298H45.6688L45.8992 36.5891Z" fill="url(#paint48_radial_3885_5811)"/>
<path d="M22.4847 33.7393L27.8784 37.7654C27.887 37.7654 27.887 37.7739 27.8955 37.7739L29.8957 39.2613C30.0667 39.3895 30.306 39.2698 30.306 39.0561L30.3146 27.9695C30.2975 27.7729 30.2718 27.5677 30.2291 27.3711C30.1863 27.1831 30.1265 27.0036 30.041 26.8497C30.1863 27.9353 29.5709 29.2004 28.528 30.0295C28.2973 30.2176 27.981 30.4227 27.6305 30.568C27.2544 30.7305 26.1175 31.1237 26.1175 31.1237L22.6898 32.3631C22.1 32.5768 21.9803 33.3632 22.4847 33.7393Z" fill="white"/>
<path d="M27.8392 30.4769C27.8478 30.4684 27.8649 30.4684 27.8734 30.4598C27.8905 30.4513 27.9076 30.4427 27.9333 30.4256C27.9589 30.4171 27.976 30.4 28.0016 30.3914C28.0102 30.3829 28.0273 30.3743 28.0358 30.3743C28.0615 30.3572 28.0957 30.3401 28.1213 30.323C28.1299 30.3145 28.1384 30.3145 28.1469 30.3059C28.1726 30.2889 28.1982 30.2718 28.2324 30.2547C28.2495 30.2461 28.2581 30.2376 28.2752 30.229C28.2923 30.2119 28.3179 30.2034 28.335 30.1863C28.3606 30.1692 28.3863 30.1435 28.4205 30.1264C28.429 30.1264 28.429 30.1179 28.4376 30.1179C28.4718 30.0923 28.506 30.0666 28.5402 30.041C29.583 29.2118 30.1984 27.9467 30.0531 26.8611C29.9933 26.7586 29.9164 26.6645 29.8309 26.5962L28.0529 25.2798C27.882 25.1516 27.6341 25.2712 27.6341 25.4849V28.5878C27.6341 30.5367 26.1211 31.1265 26.1211 31.1265C26.1211 31.1265 27.2665 30.7419 27.6341 30.5795C27.7025 30.5453 27.7708 30.5111 27.8392 30.4769Z" fill="#EBEBEB"/>
<path d="M38.962 33.3381L33.5682 29.3121C33.5597 29.3121 33.5597 29.3035 33.5511 29.3035L31.5509 27.8162C31.38 27.688 31.1406 27.8076 31.1406 28.0213V39.108C31.1577 39.3046 31.1834 39.5097 31.2261 39.7063C31.2688 39.8944 31.3287 40.0739 31.4142 40.2278C31.2688 39.1422 31.8843 37.8771 32.9271 37.0479C33.1579 36.8599 33.4742 36.6547 33.8247 36.5094C34.1922 36.347 35.3377 35.9623 35.3377 35.9623L38.7654 34.7229C39.3552 34.5007 39.4663 33.7142 38.962 33.3381Z" fill="white"/>
<path d="M33.6257 36.6039C33.6171 36.6124 33.6 36.6124 33.5915 36.621C33.5744 36.6295 33.5573 36.6381 33.5316 36.6552C33.506 36.6637 33.4889 36.6808 33.4632 36.6894C33.4547 36.6979 33.4376 36.7065 33.429 36.7065C33.4034 36.7236 33.3692 36.7407 33.3436 36.7578C33.335 36.7663 33.3265 36.7663 33.3179 36.7749C33.2923 36.792 33.2666 36.809 33.2324 36.8261C33.2154 36.8347 33.2068 36.8432 33.1897 36.8518C33.1726 36.8689 33.147 36.8774 33.1299 36.8945C33.1042 36.9116 33.0786 36.9373 33.0444 36.9544C33.0358 36.9544 33.0358 36.9629 33.0273 36.9629C32.9931 36.9886 32.9589 37.0142 32.9247 37.0398C31.8819 37.869 31.2664 39.1341 31.4117 40.2197C31.4716 40.3222 31.5485 40.4163 31.634 40.4846L33.4034 41.801C33.5744 41.9292 33.8223 41.8096 33.8223 41.5959V38.493C33.8223 36.5526 35.3352 35.9543 35.3352 35.9543C35.3352 35.9543 34.1898 36.3389 33.8223 36.5013C33.7624 36.5355 33.694 36.5697 33.6257 36.6039Z" fill="#EBEBEB"/>
<defs>
<radialGradient id="paint0_radial_3885_5811" cx="0" cy="0" r="1" gradientUnits="userSpaceOnUse" gradientTransform="translate(30 -3.00001) scale(52)">
<stop stop-color="#8160CE"/>
<stop offset="1" stop-color="#482193"/>
</radialGradient>
<linearGradient id="paint1_linear_3885_5811" x1="22.8768" y1="16.0993" x2="24.4897" y2="18.7327" gradientUnits="userSpaceOnUse">
<stop offset="0.17" stop-color="#FFF1A3"/>
<stop offset="0.19" stop-color="#FCE594"/>
<stop offset="0.22" stop-color="#F6D17B"/>
<stop offset="0.26" stop-color="#F2C168"/>
<stop offset="0.3" stop-color="#EFB65A"/>
<stop offset="0.36" stop-color="#EEB052"/>
<stop offset="0.46" stop-color="#EDAE50"/>
<stop offset="0.54" stop-color="#EEB153"/>
<stop offset="0.61" stop-color="#F0B95D"/>
<stop offset="0.68" stop-color="#F5C76E"/>
<stop offset="0.73" stop-color="#FBDA85"/>
<stop offset="0.76" stop-color="#FFE794"/>
<stop offset="1" stop-color="#B77946"/>
</linearGradient>
<radialGradient id="paint2_radial_3885_5811" cx="0" cy="0" r="1" gradientUnits="userSpaceOnUse" gradientTransform="translate(23.0844 15.7575) scale(3.17015)">
<stop stop-color="#F3E8DE"/>
<stop offset="0.54" stop-color="#F6EEE7" stop-opacity="0.36"/>
<stop offset="0.57" stop-color="#F6EEE7" stop-opacity="0.33"/>
<stop offset="0.75" stop-color="#F7F0E9" stop-opacity="0.15"/>
<stop offset="0.88" stop-color="#F8F1EB" stop-opacity="0.04"/>
<stop offset="0.96" stop-color="#F8F1EB" stop-opacity="0"/>
</radialGradient>
<linearGradient id="paint3_linear_3885_5811" x1="26.1441" y1="19.3987" x2="24.0628" y2="16.2412" gradientUnits="userSpaceOnUse">
<stop stop-color="#B77946" stop-opacity="0"/>
<stop offset="0.18" stop-color="#FFF1A3"/>
<stop offset="0.34" stop-color="#E7C883"/>
<stop offset="0.51" stop-color="#D2A669"/>
<stop offset="0.67" stop-color="#C38D56"/>
<stop offset="0.81" stop-color="#BA7E4A"/>
<stop offset="0.93" stop-color="#B77946"/>
</linearGradient>
<linearGradient id="paint4_linear_3885_5811" x1="22.826" y1="19.762" x2="23.9629" y2="15.1182" gradientUnits="userSpaceOnUse">
<stop stop-color="#B77946" stop-opacity="0"/>
<stop offset="0.18" stop-color="#FFF1A3"/>
<stop offset="0.34" stop-color="#E7C883"/>
<stop offset="0.51" stop-color="#D2A669"/>
<stop offset="0.67" stop-color="#C38D56"/>
<stop offset="0.81" stop-color="#BA7E4A"/>
<stop offset="0.93" stop-color="#B77946"/>
</linearGradient>
<linearGradient id="paint5_linear_3885_5811" x1="36.5486" y1="16.0993" x2="38.1616" y2="18.7327" gradientUnits="userSpaceOnUse">
<stop offset="0.17" stop-color="#FFF1A3"/>
<stop offset="0.19" stop-color="#FCE594"/>
<stop offset="0.22" stop-color="#F6D17B"/>
<stop offset="0.26" stop-color="#F2C168"/>
<stop offset="0.3" stop-color="#EFB65A"/>
<stop offset="0.36" stop-color="#EEB052"/>
<stop offset="0.46" stop-color="#EDAE50"/>
<stop offset="0.54" stop-color="#EEB153"/>
<stop offset="0.61" stop-color="#F0B95D"/>
<stop offset="0.68" stop-color="#F5C76E"/>
<stop offset="0.73" stop-color="#FBDA85"/>
<stop offset="0.76" stop-color="#FFE794"/>
<stop offset="1" stop-color="#B77946"/>
</linearGradient>
<radialGradient id="paint6_radial_3885_5811" cx="0" cy="0" r="1" gradientUnits="userSpaceOnUse" gradientTransform="translate(36.7537 15.7575) scale(3.17015)">
<stop stop-color="#F3E8DE"/>
<stop offset="0.54" stop-color="#F6EEE7" stop-opacity="0.36"/>
<stop offset="0.57" stop-color="#F6EEE7" stop-opacity="0.33"/>
<stop offset="0.75" stop-color="#F7F0E9" stop-opacity="0.15"/>
<stop offset="0.88" stop-color="#F8F1EB" stop-opacity="0.04"/>
<stop offset="0.96" stop-color="#F8F1EB" stop-opacity="0"/>
</radialGradient>
<linearGradient id="paint7_linear_3885_5811" x1="39.8121" y1="19.3987" x2="37.7333" y2="16.2412" gradientUnits="userSpaceOnUse">
<stop stop-color="#B77946" stop-opacity="0"/>
<stop offset="0.18" stop-color="#FFF1A3"/>
<stop offset="0.34" stop-color="#E7C883"/>
<stop offset="0.51" stop-color="#D2A669"/>
<stop offset="0.67" stop-color="#C38D56"/>
<stop offset="0.81" stop-color="#BA7E4A"/>
<stop offset="0.93" stop-color="#B77946"/>
</linearGradient>
<linearGradient id="paint8_linear_3885_5811" x1="36.5018" y1="19.762" x2="37.6387" y2="15.1182" gradientUnits="userSpaceOnUse">
<stop stop-color="#B77946" stop-opacity="0"/>
<stop offset="0.18" stop-color="#FFF1A3"/>
<stop offset="0.34" stop-color="#E7C883"/>
<stop offset="0.51" stop-color="#D2A669"/>
<stop offset="0.67" stop-color="#C38D56"/>
<stop offset="0.81" stop-color="#BA7E4A"/>
<stop offset="0.93" stop-color="#B77946"/>
</linearGradient>
<linearGradient id="paint9_linear_3885_5811" x1="29.7166" y1="11.8541" x2="31.3295" y2="14.4875" gradientUnits="userSpaceOnUse">
<stop offset="0.17" stop-color="#FFF1A3"/>
<stop offset="0.19" stop-color="#FCE594"/>
<stop offset="0.22" stop-color="#F6D17B"/>
<stop offset="0.26" stop-color="#F2C168"/>
<stop offset="0.3" stop-color="#EFB65A"/>
<stop offset="0.36" stop-color="#EEB052"/>
<stop offset="0.46" stop-color="#EDAE50"/>
<stop offset="0.54" stop-color="#EEB153"/>
<stop offset="0.61" stop-color="#F0B95D"/>
<stop offset="0.68" stop-color="#F5C76E"/>
<stop offset="0.73" stop-color="#FBDA85"/>
<stop offset="0.76" stop-color="#FFE794"/>
<stop offset="1" stop-color="#B77946"/>
</linearGradient>
<radialGradient id="paint10_radial_3885_5811" cx="0" cy="0" r="1" gradientUnits="userSpaceOnUse" gradientTransform="translate(29.9242 11.5123) scale(3.17015)">
<stop stop-color="#F3E8DE"/>
<stop offset="0.54" stop-color="#F6EEE7" stop-opacity="0.36"/>
<stop offset="0.57" stop-color="#F6EEE7" stop-opacity="0.33"/>
<stop offset="0.75" stop-color="#F7F0E9" stop-opacity="0.15"/>
<stop offset="0.88" stop-color="#F8F1EB" stop-opacity="0.04"/>
<stop offset="0.96" stop-color="#F8F1EB" stop-opacity="0"/>
</radialGradient>
<linearGradient id="paint11_linear_3885_5811" x1="32.9775" y1="15.1535" x2="30.8987" y2="11.996" gradientUnits="userSpaceOnUse">
<stop stop-color="#B77946" stop-opacity="0"/>
<stop offset="0.18" stop-color="#FFF1A3"/>
<stop offset="0.34" stop-color="#E7C883"/>
<stop offset="0.51" stop-color="#D2A669"/>
<stop offset="0.67" stop-color="#C38D56"/>
<stop offset="0.81" stop-color="#BA7E4A"/>
<stop offset="0.93" stop-color="#B77946"/>
</linearGradient>
<linearGradient id="paint12_linear_3885_5811" x1="29.6658" y1="15.5148" x2="30.8027" y2="10.871" gradientUnits="userSpaceOnUse">
<stop stop-color="#B77946" stop-opacity="0"/>
<stop offset="0.18" stop-color="#FFF1A3"/>
<stop offset="0.34" stop-color="#E7C883"/>
<stop offset="0.51" stop-color="#D2A669"/>
<stop offset="0.67" stop-color="#C38D56"/>
<stop offset="0.81" stop-color="#BA7E4A"/>
<stop offset="0.93" stop-color="#B77946"/>
</linearGradient>
<linearGradient id="paint13_linear_3885_5811" x1="31.8203" y1="19.039" x2="31.8583" y2="19.039" gradientUnits="userSpaceOnUse">
<stop stop-color="#B77946"/>
<stop offset="0.24" stop-color="#FFE794"/>
<stop offset="0.27" stop-color="#FBDA85"/>
<stop offset="0.32" stop-color="#F5C76E"/>
<stop offset="0.39" stop-color="#F0B95D"/>
<stop offset="0.46" stop-color="#EEB153"/>
<stop offset="0.54" stop-color="#EDAE50"/>
<stop offset="0.64" stop-color="#EEB052"/>
<stop offset="0.7" stop-color="#EFB65A"/>
<stop offset="0.74" stop-color="#F2C168"/>
<stop offset="0.78" stop-color="#F6D17B"/>
<stop offset="0.81" stop-color="#FCE594"/>
<stop offset="0.83" stop-color="#FFF1A3"/>
<stop offset="0.86" stop-color="#F7E398"/>
<stop offset="0.91" stop-color="#E1BF7C"/>
<stop offset="0.98" stop-color="#BE844F"/>
<stop offset="1" stop-color="#B77946"/>
</linearGradient>
<linearGradient id="paint14_linear_3885_5811" x1="16.1562" y1="33.4529" x2="44.837" y2="33.4529" gradientUnits="userSpaceOnUse">
<stop stop-color="#B77946"/>
<stop offset="0.18" stop-color="#FFF1A3"/>
<stop offset="0.19" stop-color="#F2DC93"/>
<stop offset="0.2" stop-color="#E0BE7B"/>
<stop offset="0.22" stop-color="#D1A468"/>
<stop offset="0.23" stop-color="#C59159"/>
<stop offset="0.25" stop-color="#BD834E"/>
<stop offset="0.27" stop-color="#B87B48"/>
<stop offset="0.31" stop-color="#B77946"/>
<stop offset="0.33" stop-color="#BF8148"/>
<stop offset="0.41" stop-color="#E0A24E"/>
<stop offset="0.46" stop-color="#EDAE50"/>
<stop offset="1" stop-color="#613F1B"/>
</linearGradient>
<linearGradient id="paint15_linear_3885_5811" x1="16.6638" y1="33.618" x2="44.3317" y2="33.618" gradientUnits="userSpaceOnUse">
<stop stop-color="#B77946"/>
<stop offset="0.24" stop-color="#FFE794"/>
<stop offset="0.27" stop-color="#FBDA85"/>
<stop offset="0.32" stop-color="#F5C76E"/>
<stop offset="0.39" stop-color="#F0B95D"/>
<stop offset="0.46" stop-color="#EEB153"/>
<stop offset="0.54" stop-color="#EDAE50"/>
<stop offset="0.64" stop-color="#EEB052"/>
<stop offset="0.7" stop-color="#EFB65A"/>
<stop offset="0.74" stop-color="#F2C168"/>
<stop offset="0.78" stop-color="#F6D17B"/>
<stop offset="0.81" stop-color="#FCE594"/>
<stop offset="0.83" stop-color="#FFF1A3"/>
<stop offset="0.86" stop-color="#F7E398"/>
<stop offset="0.91" stop-color="#E1BF7C"/>
<stop offset="0.98" stop-color="#BE844F"/>
<stop offset="1" stop-color="#B77946"/>
</linearGradient>
<linearGradient id="paint16_linear_3885_5811" x1="30.4927" y1="48.5244" x2="30.4927" y2="39.7963" gradientUnits="userSpaceOnUse">
<stop stop-color="#B77946" stop-opacity="0"/>
<stop offset="0.93" stop-color="#B77946"/>
</linearGradient>
<linearGradient id="paint17_linear_3885_5811" x1="16.5626" y1="33.5851" x2="44.433" y2="33.5851" gradientUnits="userSpaceOnUse">
<stop stop-color="#B77946"/>
<stop offset="0.24" stop-color="#FFE794"/>
<stop offset="0.27" stop-color="#FBDA85"/>
<stop offset="0.32" stop-color="#F5C76E"/>
<stop offset="0.39" stop-color="#F0B95D"/>
<stop offset="0.46" stop-color="#EEB153"/>
<stop offset="0.54" stop-color="#EDAE50"/>
<stop offset="0.64" stop-color="#EEB052"/>
<stop offset="0.7" stop-color="#EFB65A"/>
<stop offset="0.74" stop-color="#F2C168"/>
<stop offset="0.78" stop-color="#F6D17B"/>
<stop offset="0.81" stop-color="#FCE594"/>
<stop offset="0.83" stop-color="#FFF1A3"/>
<stop offset="0.86" stop-color="#F7E398"/>
<stop offset="0.91" stop-color="#E1BF7C"/>
<stop offset="0.98" stop-color="#BE844F"/>
<stop offset="1" stop-color="#B77946"/>
</linearGradient>
<linearGradient id="paint18_linear_3885_5811" x1="18.1824" y1="33.918" x2="42.8119" y2="33.918" gradientUnits="userSpaceOnUse">
<stop stop-color="#B77946"/>
<stop offset="0.45" stop-color="#EDAE50"/>
<stop offset="0.51" stop-color="#EBAC4F"/>
<stop offset="0.54" stop-color="#E3A54D"/>
<stop offset="0.57" stop-color="#D59A49"/>
<stop offset="0.59" stop-color="#C28A44"/>
<stop offset="0.61" stop-color="#A9753D"/>
<stop offset="0.63" stop-color="#875934"/>
<stop offset="1" stop-color="#FFF1A3"/>
</linearGradient>
<radialGradient id="paint19_radial_3885_5811" cx="0" cy="0" r="1" gradientUnits="userSpaceOnUse" gradientTransform="translate(30.4971 33.9735) scale(12.5945 12.5945)">
<stop stop-color="#312F69"/>
<stop offset="0.39" stop-color="#312F69"/>
<stop offset="0.79" stop-color="#312F69"/>
<stop offset="1" stop-color="#312F69"/>
</radialGradient>
<radialGradient id="paint20_radial_3885_5811" cx="0" cy="0" r="1" gradientUnits="userSpaceOnUse" gradientTransform="translate(23.8074 22.7225) scale(20.6212 20.6212)">
<stop stop-color="#FAF7F4"/>
<stop offset="0.09" stop-color="#FAF7F3" stop-opacity="0.94"/>
<stop offset="0.27" stop-color="#F9F6F2" stop-opacity="0.8"/>
<stop offset="0.51" stop-color="#F8F4EF" stop-opacity="0.56"/>
<stop offset="0.8" stop-color="#F6F2EB" stop-opacity="0.24"/>
<stop offset="1" stop-color="#F5F0E8" stop-opacity="0"/>
</radialGradient>
<radialGradient id="paint21_radial_3885_5811" cx="0" cy="0" r="1" gradientUnits="userSpaceOnUse" gradientTransform="translate(43.8358 31.9179) scale(12.8781 12.8781)">
<stop stop-color="#EDAE50"/>
<stop offset="0.1" stop-color="#E1A54C" stop-opacity="0.94"/>
<stop offset="0.28" stop-color="#C28E42" stop-opacity="0.79"/>
<stop offset="0.53" stop-color="#906931" stop-opacity="0.54"/>
<stop offset="0.83" stop-color="#4B361A" stop-opacity="0.2"/>
<stop offset="1" stop-color="#23180D" stop-opacity="0"/>
</radialGradient>
<linearGradient id="paint22_linear_3885_5811" x1="18.6242" y1="33.9659" x2="42.3674" y2="33.9659" gradientUnits="userSpaceOnUse">
<stop stop-color="#B77946"/>
<stop offset="0.1" stop-color="#EDAE50"/>
<stop offset="0.2" stop-color="#E2A54D"/>
<stop offset="0.35" stop-color="#C68E45"/>
<stop offset="0.56" stop-color="#996839"/>
<stop offset="0.63" stop-color="#875934"/>
<stop offset="0.64" stop-color="#8A5D37"/>
<stop offset="0.67" stop-color="#A98454"/>
<stop offset="0.71" stop-color="#C4A66C"/>
<stop offset="0.76" stop-color="#D9C180"/>
<stop offset="0.8" stop-color="#EAD790"/>
<stop offset="0.85" stop-color="#F6E69B"/>
<stop offset="0.91" stop-color="#FDEEA1"/>
<stop offset="1" stop-color="#FFF1A3"/>
</linearGradient>
<linearGradient id="paint23_linear_3885_5811" x1="30.6431" y1="35.4072" x2="42.9109" y2="35.4072" gradientUnits="userSpaceOnUse">
<stop stop-color="#B77946"/>
<stop offset="0.24" stop-color="#FFE794"/>
<stop offset="0.27" stop-color="#FBDA85"/>
<stop offset="0.32" stop-color="#F5C76E"/>
<stop offset="0.39" stop-color="#F0B95D"/>
<stop offset="0.46" stop-color="#EEB153"/>
<stop offset="0.54" stop-color="#EDAE50"/>
<stop offset="0.64" stop-color="#EEB052"/>
<stop offset="0.7" stop-color="#EFB65A"/>
<stop offset="0.74" stop-color="#F2C168"/>
<stop offset="0.78" stop-color="#F6D17B"/>
<stop offset="0.81" stop-color="#FCE594"/>
<stop offset="0.83" stop-color="#FFF1A3"/>
<stop offset="0.86" stop-color="#F7E398"/>
<stop offset="0.91" stop-color="#E1BF7C"/>
<stop offset="0.98" stop-color="#BE844F"/>
<stop offset="1" stop-color="#B77946"/>
</linearGradient>
<linearGradient id="paint24_linear_3885_5811" x1="31.7773" y1="19.039" x2="31.8179" y2="19.039" gradientUnits="userSpaceOnUse">
<stop stop-color="#B77946"/>
<stop offset="0.24" stop-color="#FFE794"/>
<stop offset="0.27" stop-color="#FBDA85"/>
<stop offset="0.32" stop-color="#F5C76E"/>
<stop offset="0.39" stop-color="#F0B95D"/>
<stop offset="0.46" stop-color="#EEB153"/>
<stop offset="0.54" stop-color="#EDAE50"/>
<stop offset="0.64" stop-color="#EEB052"/>
<stop offset="0.7" stop-color="#EFB65A"/>
<stop offset="0.74" stop-color="#F2C168"/>
<stop offset="0.78" stop-color="#F6D17B"/>
<stop offset="0.81" stop-color="#FCE594"/>
<stop offset="0.83" stop-color="#FFF1A3"/>
<stop offset="0.86" stop-color="#F7E398"/>
<stop offset="0.91" stop-color="#E1BF7C"/>
<stop offset="0.98" stop-color="#BE844F"/>
<stop offset="1" stop-color="#B77946"/>
</linearGradient>
<linearGradient id="paint25_linear_3885_5811" x1="16.2408" y1="31.5758" x2="20.1427" y2="31.5758" gradientUnits="userSpaceOnUse">
<stop stop-color="#B77946" stop-opacity="0"/>
<stop offset="0.13" stop-color="#B77946" stop-opacity="0.26"/>
<stop offset="0.25" stop-color="#B77946" stop-opacity="0.49"/>
<stop offset="0.38" stop-color="#B77946" stop-opacity="0.67"/>
<stop offset="0.51" stop-color="#B77946" stop-opacity="0.82"/>
<stop offset="0.64" stop-color="#B77946" stop-opacity="0.92"/>
<stop offset="0.78" stop-color="#B77946" stop-opacity="0.98"/>
<stop offset="0.93" stop-color="#B77946"/>
</linearGradient>
<linearGradient id="paint26_linear_3885_5811" x1="16.8019" y1="35.2063" x2="20.7697" y2="35.2063" gradientUnits="userSpaceOnUse">
<stop stop-color="#B77946" stop-opacity="0"/>
<stop offset="0.13" stop-color="#B77946" stop-opacity="0.26"/>
<stop offset="0.25" stop-color="#B77946" stop-opacity="0.49"/>
<stop offset="0.38" stop-color="#B77946" stop-opacity="0.67"/>
<stop offset="0.51" stop-color="#B77946" stop-opacity="0.82"/>
<stop offset="0.64" stop-color="#B77946" stop-opacity="0.92"/>
<stop offset="0.78" stop-color="#B77946" stop-opacity="0.98"/>
<stop offset="0.93" stop-color="#B77946"/>
</linearGradient>
<linearGradient id="paint27_linear_3885_5811" x1="17.9295" y1="38.1804" x2="21.1655" y2="38.1804" gradientUnits="userSpaceOnUse">
<stop stop-color="#B77946" stop-opacity="0"/>
<stop offset="0.13" stop-color="#B77946" stop-opacity="0.26"/>
<stop offset="0.25" stop-color="#B77946" stop-opacity="0.49"/>
<stop offset="0.38" stop-color="#B77946" stop-opacity="0.67"/>
<stop offset="0.51" stop-color="#B77946" stop-opacity="0.82"/>
<stop offset="0.64" stop-color="#B77946" stop-opacity="0.92"/>
<stop offset="0.78" stop-color="#B77946" stop-opacity="0.98"/>
<stop offset="0.93" stop-color="#B77946"/>
</linearGradient>
<linearGradient id="paint28_linear_3885_5811" x1="12.0132" y1="26.634" x2="22.4959" y2="39.3399" gradientUnits="userSpaceOnUse">
<stop offset="0.24" stop-color="#FFE794"/>
<stop offset="0.27" stop-color="#FBDA85"/>
<stop offset="0.32" stop-color="#F5C76E"/>
<stop offset="0.39" stop-color="#F0B95D"/>
<stop offset="0.46" stop-color="#EEB153"/>
<stop offset="0.54" stop-color="#EDAE50"/>
<stop offset="0.64" stop-color="#EEB052"/>
<stop offset="0.7" stop-color="#EFB65A"/>
<stop offset="0.74" stop-color="#F2C168"/>
<stop offset="0.78" stop-color="#F6D17B"/>
<stop offset="0.81" stop-color="#FCE594"/>
<stop offset="0.83" stop-color="#FFF1A3"/>
<stop offset="0.86" stop-color="#F7E398"/>
<stop offset="0.91" stop-color="#E1BF7C"/>
<stop offset="0.98" stop-color="#BE844F"/>
<stop offset="1" stop-color="#B77946"/>
</linearGradient>
<linearGradient id="paint29_linear_3885_5811" x1="11.5388" y1="28.9662" x2="21.8241" y2="40.3681" gradientUnits="userSpaceOnUse">
<stop offset="0.24" stop-color="#FFE794"/>
<stop offset="0.27" stop-color="#FBDA85"/>
<stop offset="0.32" stop-color="#F5C76E"/>
<stop offset="0.39" stop-color="#F0B95D"/>
<stop offset="0.46" stop-color="#EEB153"/>
<stop offset="0.54" stop-color="#EDAE50"/>
<stop offset="0.64" stop-color="#EEB052"/>
<stop offset="0.7" stop-color="#EFB65A"/>
<stop offset="0.74" stop-color="#F2C168"/>
<stop offset="0.78" stop-color="#F6D17B"/>
<stop offset="0.81" stop-color="#FCE594"/>
<stop offset="0.83" stop-color="#FFF1A3"/>
<stop offset="0.86" stop-color="#F7E398"/>
<stop offset="0.91" stop-color="#E1BF7C"/>
<stop offset="0.98" stop-color="#BE844F"/>
<stop offset="1" stop-color="#B77946"/>
</linearGradient>
<linearGradient id="paint30_linear_3885_5811" x1="15.3647" y1="34.1634" x2="21.7075" y2="42.58" gradientUnits="userSpaceOnUse">
<stop offset="0.24" stop-color="#FFE794"/>
<stop offset="0.27" stop-color="#FBDA85"/>
<stop offset="0.32" stop-color="#F5C76E"/>
<stop offset="0.39" stop-color="#F0B95D"/>
<stop offset="0.46" stop-color="#EEB153"/>
<stop offset="0.54" stop-color="#EDAE50"/>
<stop offset="0.64" stop-color="#EEB052"/>
<stop offset="0.7" stop-color="#EFB65A"/>
<stop offset="0.74" stop-color="#F2C168"/>
<stop offset="0.78" stop-color="#F6D17B"/>
<stop offset="0.81" stop-color="#FCE594"/>
<stop offset="0.83" stop-color="#FFF1A3"/>
<stop offset="0.86" stop-color="#F7E398"/>
<stop offset="0.91" stop-color="#E1BF7C"/>
<stop offset="0.98" stop-color="#BE844F"/>
<stop offset="1" stop-color="#B77946"/>
</linearGradient>
<linearGradient id="paint31_linear_3885_5811" x1="9.96094" y1="31.3657" x2="19.9196" y2="31.3657" gradientUnits="userSpaceOnUse">
<stop stop-color="#B77946"/>
<stop offset="0.18" stop-color="#FFF1A3"/>
<stop offset="0.19" stop-color="#F2DC93"/>
<stop offset="0.2" stop-color="#E0BE7B"/>
<stop offset="0.22" stop-color="#D1A468"/>
<stop offset="0.23" stop-color="#C59159"/>
<stop offset="0.25" stop-color="#BD834E"/>
<stop offset="0.27" stop-color="#B87B48"/>
<stop offset="0.31" stop-color="#B77946"/>
<stop offset="0.33" stop-color="#BF8148"/>
<stop offset="0.41" stop-color="#E0A24E"/>
<stop offset="0.46" stop-color="#EDAE50"/>
<stop offset="1" stop-color="#613F1B"/>
</linearGradient>
<linearGradient id="paint32_linear_3885_5811" x1="12.6406" y1="35.674" x2="20.5635" y2="35.674" gradientUnits="userSpaceOnUse">
<stop stop-color="#B77946"/>
<stop offset="0.18" stop-color="#FFF1A3"/>
<stop offset="0.19" stop-color="#F2DC93"/>
<stop offset="0.2" stop-color="#E0BE7B"/>
<stop offset="0.22" stop-color="#D1A468"/>
<stop offset="0.23" stop-color="#C59159"/>
<stop offset="0.25" stop-color="#BD834E"/>
<stop offset="0.27" stop-color="#B87B48"/>
<stop offset="0.31" stop-color="#B77946"/>
<stop offset="0.33" stop-color="#BF8148"/>
<stop offset="0.41" stop-color="#E0A24E"/>
<stop offset="0.46" stop-color="#EDAE50"/>
<stop offset="1" stop-color="#613F1B"/>
</linearGradient>
<linearGradient id="paint33_linear_3885_5811" x1="15.5469" y1="38.5762" x2="20.9934" y2="38.5762" gradientUnits="userSpaceOnUse">
<stop stop-color="#B77946"/>
<stop offset="0.18" stop-color="#FFF1A3"/>
<stop offset="0.19" stop-color="#F2DC93"/>
<stop offset="0.2" stop-color="#E0BE7B"/>
<stop offset="0.22" stop-color="#D1A468"/>
<stop offset="0.23" stop-color="#C59159"/>
<stop offset="0.25" stop-color="#BD834E"/>
<stop offset="0.27" stop-color="#B87B48"/>
<stop offset="0.31" stop-color="#B77946"/>
<stop offset="0.33" stop-color="#BF8148"/>
<stop offset="0.41" stop-color="#E0A24E"/>
<stop offset="0.46" stop-color="#EDAE50"/>
<stop offset="1" stop-color="#613F1B"/>
</linearGradient>
<radialGradient id="paint34_radial_3885_5811" cx="0" cy="0" r="1" gradientUnits="userSpaceOnUse" gradientTransform="translate(14.368 28.2839) scale(4.09942 5.45223)">
<stop stop-color="#F3E8DE"/>
<stop offset="0.54" stop-color="#F6EEE7" stop-opacity="0.36"/>
<stop offset="0.57" stop-color="#F6EEE7" stop-opacity="0.33"/>
<stop offset="0.75" stop-color="#F7F0E9" stop-opacity="0.15"/>
<stop offset="0.88" stop-color="#F8F1EB" stop-opacity="0.04"/>
<stop offset="0.96" stop-color="#F8F1EB" stop-opacity="0"/>
</radialGradient>
<radialGradient id="paint35_radial_3885_5811" cx="0" cy="0" r="1" gradientUnits="userSpaceOnUse" gradientTransform="translate(16.132 33.1469) scale(3.05874 4.06812)">
<stop stop-color="#F3E8DE"/>
<stop offset="0.54" stop-color="#F6EEE7" stop-opacity="0.36"/>
<stop offset="0.57" stop-color="#F6EEE7" stop-opacity="0.33"/>
<stop offset="0.75" stop-color="#F7F0E9" stop-opacity="0.15"/>
<stop offset="0.88" stop-color="#F8F1EB" stop-opacity="0.04"/>
<stop offset="0.96" stop-color="#F8F1EB" stop-opacity="0"/>
</radialGradient>
<radialGradient id="paint36_radial_3885_5811" cx="0" cy="0" r="1" gradientUnits="userSpaceOnUse" gradientTransform="translate(17.9601 37.0354) scale(2.04591 2.72106)">
<stop stop-color="#F3E8DE"/>
<stop offset="0.54" stop-color="#F6EEE7" stop-opacity="0.36"/>
<stop offset="0.57" stop-color="#F6EEE7" stop-opacity="0.33"/>
<stop offset="0.75" stop-color="#F7F0E9" stop-opacity="0.15"/>
<stop offset="0.88" stop-color="#F8F1EB" stop-opacity="0.04"/>
<stop offset="0.96" stop-color="#F8F1EB" stop-opacity="0"/>
</radialGradient>
<linearGradient id="paint37_linear_3885_5811" x1="44.7496" y1="31.5758" x2="40.8477" y2="31.5758" gradientUnits="userSpaceOnUse">
<stop stop-color="#B77946" stop-opacity="0"/>
<stop offset="0.13" stop-color="#B77946" stop-opacity="0.26"/>
<stop offset="0.25" stop-color="#B77946" stop-opacity="0.49"/>
<stop offset="0.38" stop-color="#B77946" stop-opacity="0.67"/>
<stop offset="0.51" stop-color="#B77946" stop-opacity="0.82"/>
<stop offset="0.64" stop-color="#B77946" stop-opacity="0.92"/>
<stop offset="0.78" stop-color="#B77946" stop-opacity="0.98"/>
<stop offset="0.93" stop-color="#B77946"/>
</linearGradient>
<linearGradient id="paint38_linear_3885_5811" x1="44.1904" y1="35.2063" x2="40.2227" y2="35.2063" gradientUnits="userSpaceOnUse">
<stop stop-color="#B77946" stop-opacity="0"/>
<stop offset="0.13" stop-color="#B77946" stop-opacity="0.26"/>
<stop offset="0.25" stop-color="#B77946" stop-opacity="0.49"/>
<stop offset="0.38" stop-color="#B77946" stop-opacity="0.67"/>
<stop offset="0.51" stop-color="#B77946" stop-opacity="0.82"/>
<stop offset="0.64" stop-color="#B77946" stop-opacity="0.92"/>
<stop offset="0.78" stop-color="#B77946" stop-opacity="0.98"/>
<stop offset="0.93" stop-color="#B77946"/>
</linearGradient>
<linearGradient id="paint39_linear_3885_5811" x1="43.0641" y1="38.1804" x2="39.8281" y2="38.1804" gradientUnits="userSpaceOnUse">
<stop stop-color="#B77946" stop-opacity="0"/>
<stop offset="0.13" stop-color="#B77946" stop-opacity="0.26"/>
<stop offset="0.25" stop-color="#B77946" stop-opacity="0.49"/>
<stop offset="0.38" stop-color="#B77946" stop-opacity="0.67"/>
<stop offset="0.51" stop-color="#B77946" stop-opacity="0.82"/>
<stop offset="0.64" stop-color="#B77946" stop-opacity="0.92"/>
<stop offset="0.78" stop-color="#B77946" stop-opacity="0.98"/>
<stop offset="0.93" stop-color="#B77946"/>
</linearGradient>
<linearGradient id="paint40_linear_3885_5811" x1="48.978" y1="26.634" x2="38.4952" y2="39.3399" gradientUnits="userSpaceOnUse">
<stop offset="0.24" stop-color="#FFE794"/>
<stop offset="0.27" stop-color="#FBDA85"/>
<stop offset="0.32" stop-color="#F5C76E"/>
<stop offset="0.39" stop-color="#F0B95D"/>
<stop offset="0.46" stop-color="#EEB153"/>
<stop offset="0.54" stop-color="#EDAE50"/>
<stop offset="0.64" stop-color="#EEB052"/>
<stop offset="0.7" stop-color="#EFB65A"/>
<stop offset="0.74" stop-color="#F2C168"/>
<stop offset="0.78" stop-color="#F6D17B"/>
<stop offset="0.81" stop-color="#FCE594"/>
<stop offset="0.83" stop-color="#FFF1A3"/>
<stop offset="0.86" stop-color="#F7E398"/>
<stop offset="0.91" stop-color="#E1BF7C"/>
<stop offset="0.98" stop-color="#BE844F"/>
<stop offset="1" stop-color="#B77946"/>
</linearGradient>
<linearGradient id="paint41_linear_3885_5811" x1="49.4514" y1="28.9662" x2="39.1662" y2="40.3681" gradientUnits="userSpaceOnUse">
<stop offset="0.24" stop-color="#FFE794"/>
<stop offset="0.27" stop-color="#FBDA85"/>
<stop offset="0.32" stop-color="#F5C76E"/>
<stop offset="0.39" stop-color="#F0B95D"/>
<stop offset="0.46" stop-color="#EEB153"/>
<stop offset="0.54" stop-color="#EDAE50"/>
<stop offset="0.64" stop-color="#EEB052"/>
<stop offset="0.7" stop-color="#EFB65A"/>
<stop offset="0.74" stop-color="#F2C168"/>
<stop offset="0.78" stop-color="#F6D17B"/>
<stop offset="0.81" stop-color="#FCE594"/>
<stop offset="0.83" stop-color="#FFF1A3"/>
<stop offset="0.86" stop-color="#F7E398"/>
<stop offset="0.91" stop-color="#E1BF7C"/>
<stop offset="0.98" stop-color="#BE844F"/>
<stop offset="1" stop-color="#B77946"/>
</linearGradient>
<linearGradient id="paint42_linear_3885_5811" x1="45.6299" y1="34.1634" x2="39.2871" y2="42.58" gradientUnits="userSpaceOnUse">
<stop offset="0.24" stop-color="#FFE794"/>
<stop offset="0.27" stop-color="#FBDA85"/>
<stop offset="0.32" stop-color="#F5C76E"/>
<stop offset="0.39" stop-color="#F0B95D"/>
<stop offset="0.46" stop-color="#EEB153"/>
<stop offset="0.54" stop-color="#EDAE50"/>
<stop offset="0.64" stop-color="#EEB052"/>
<stop offset="0.7" stop-color="#EFB65A"/>
<stop offset="0.74" stop-color="#F2C168"/>
<stop offset="0.78" stop-color="#F6D17B"/>
<stop offset="0.81" stop-color="#FCE594"/>
<stop offset="0.83" stop-color="#FFF1A3"/>
<stop offset="0.86" stop-color="#F7E398"/>
<stop offset="0.91" stop-color="#E1BF7C"/>
<stop offset="0.98" stop-color="#BE844F"/>
<stop offset="1" stop-color="#B77946"/>
</linearGradient>
<linearGradient id="paint43_linear_3885_5811" x1="51.0289" y1="31.3657" x2="41.0703" y2="31.3657" gradientUnits="userSpaceOnUse">
<stop stop-color="#B77946"/>
<stop offset="0.18" stop-color="#FFF1A3"/>
<stop offset="0.19" stop-color="#F2DC93"/>
<stop offset="0.2" stop-color="#E0BE7B"/>
<stop offset="0.22" stop-color="#D1A468"/>
<stop offset="0.23" stop-color="#C59159"/>
<stop offset="0.25" stop-color="#BD834E"/>
<stop offset="0.27" stop-color="#B87B48"/>
<stop offset="0.31" stop-color="#B77946"/>
<stop offset="0.33" stop-color="#BF8148"/>
<stop offset="0.41" stop-color="#E0A24E"/>
<stop offset="0.46" stop-color="#EDAE50"/>
<stop offset="1" stop-color="#613F1B"/>
</linearGradient>
<linearGradient id="paint44_linear_3885_5811" x1="48.3525" y1="35.674" x2="40.4297" y2="35.674" gradientUnits="userSpaceOnUse">
<stop stop-color="#B77946"/>
<stop offset="0.18" stop-color="#FFF1A3"/>
<stop offset="0.19" stop-color="#F2DC93"/>
<stop offset="0.2" stop-color="#E0BE7B"/>
<stop offset="0.22" stop-color="#D1A468"/>
<stop offset="0.23" stop-color="#C59159"/>
<stop offset="0.25" stop-color="#BD834E"/>
<stop offset="0.27" stop-color="#B87B48"/>
<stop offset="0.31" stop-color="#B77946"/>
<stop offset="0.33" stop-color="#BF8148"/>
<stop offset="0.41" stop-color="#E0A24E"/>
<stop offset="0.46" stop-color="#EDAE50"/>
<stop offset="1" stop-color="#613F1B"/>
</linearGradient>
<linearGradient id="paint45_linear_3885_5811" x1="45.4426" y1="38.5762" x2="39.9961" y2="38.5762" gradientUnits="userSpaceOnUse">
<stop stop-color="#B77946"/>
<stop offset="0.18" stop-color="#FFF1A3"/>
<stop offset="0.19" stop-color="#F2DC93"/>
<stop offset="0.2" stop-color="#E0BE7B"/>
<stop offset="0.22" stop-color="#D1A468"/>
<stop offset="0.23" stop-color="#C59159"/>
<stop offset="0.25" stop-color="#BD834E"/>
<stop offset="0.27" stop-color="#B87B48"/>
<stop offset="0.31" stop-color="#B77946"/>
<stop offset="0.33" stop-color="#BF8148"/>
<stop offset="0.41" stop-color="#E0A24E"/>
<stop offset="0.46" stop-color="#EDAE50"/>
<stop offset="1" stop-color="#613F1B"/>
</linearGradient>
<radialGradient id="paint46_radial_3885_5811" cx="0" cy="0" r="1" gradientUnits="userSpaceOnUse" gradientTransform="translate(46.6258 28.2839) rotate(180) scale(4.09942 5.45223)">
<stop stop-color="#F3E8DE"/>
<stop offset="0.54" stop-color="#F6EEE7" stop-opacity="0.36"/>
<stop offset="0.57" stop-color="#F6EEE7" stop-opacity="0.33"/>
<stop offset="0.75" stop-color="#F7F0E9" stop-opacity="0.15"/>
<stop offset="0.88" stop-color="#F8F1EB" stop-opacity="0.04"/>
<stop offset="0.96" stop-color="#F8F1EB" stop-opacity="0"/>
</radialGradient>
<radialGradient id="paint47_radial_3885_5811" cx="0" cy="0" r="1" gradientUnits="userSpaceOnUse" gradientTransform="translate(44.8546 33.1469) rotate(180) scale(3.05874 4.06812)">
<stop stop-color="#F3E8DE"/>
<stop offset="0.54" stop-color="#F6EEE7" stop-opacity="0.36"/>
<stop offset="0.57" stop-color="#F6EEE7" stop-opacity="0.33"/>
<stop offset="0.75" stop-color="#F7F0E9" stop-opacity="0.15"/>
<stop offset="0.88" stop-color="#F8F1EB" stop-opacity="0.04"/>
<stop offset="0.96" stop-color="#F8F1EB" stop-opacity="0"/>
</radialGradient>
<radialGradient id="paint48_radial_3885_5811" cx="0" cy="0" r="1" gradientUnits="userSpaceOnUse" gradientTransform="translate(43.0329 37.0354) rotate(180) scale(2.04591 2.72106)">
<stop stop-color="#F3E8DE"/>
<stop offset="0.54" stop-color="#F6EEE7" stop-opacity="0.36"/>
<stop offset="0.57" stop-color="#F6EEE7" stop-opacity="0.33"/>
<stop offset="0.75" stop-color="#F7F0E9" stop-opacity="0.15"/>
<stop offset="0.88" stop-color="#F8F1EB" stop-opacity="0.04"/>
<stop offset="0.96" stop-color="#F8F1EB" stop-opacity="0"/>
</radialGradient>
</defs>
</svg>
