<svg width="28" height="28" viewBox="0 0 28 28" fill="none" xmlns="http://www.w3.org/2000/svg">
<g id="db-copy-svgrepo-com 1">
<g id="64px-Line">
<path id="Shape" d="M8.75 25.525C9.06527 25.525 10.6059 25.5128 12.0705 25.2861C12.8014 25.173 13.5248 25.0048 14.0693 24.7521C14.6042 24.5038 15.025 24.1447 15.025 23.625V13.125C15.025 12.6053 14.6042 12.2462 14.0693 11.9979C13.5248 11.7452 12.8014 11.577 12.0705 11.4639C10.6059 11.2372 9.06527 11.225 8.75 11.225C8.43473 11.225 6.8941 11.2372 5.42945 11.4639C4.69864 11.577 3.97523 11.7452 3.43072 11.9979C2.89581 12.2462 2.475 12.6053 2.475 13.125V23.625C2.475 24.1447 2.89581 24.5038 3.43072 24.7521C3.97523 25.0048 4.69864 25.173 5.42945 25.2861C6.8941 25.5128 8.43473 25.525 8.75 25.525ZM8.75 24.35C7.19701 24.35 5.95114 24.2076 5.0686 24.0253C4.62697 23.934 4.2791 23.8334 4.03041 23.7369C3.90591 23.6886 3.80913 23.6424 3.73892 23.6006C3.69675 23.5755 3.66836 23.5544 3.65 23.5383V21.3455C4.45432 21.6622 5.55784 21.8296 6.52672 21.9195C7.5898 22.0181 8.513 22.025 8.75 22.025C8.987 22.025 9.9102 22.0181 10.9733 21.9195C11.9422 21.8296 13.0457 21.6622 13.85 21.3455V23.5383C13.8316 23.5544 13.8032 23.5755 13.7611 23.6006C13.6909 23.6424 13.5941 23.6886 13.4696 23.7369C13.2209 23.8334 12.873 23.934 12.4314 24.0253C11.5489 24.2076 10.303 24.35 8.75 24.35ZM3.65 16.5377V14.3455C4.45432 14.6622 5.55784 14.8296 6.52672 14.9195C7.5898 15.0181 8.513 15.025 8.75 15.025C8.987 15.025 9.9102 15.0181 10.9733 14.9195C11.9422 14.8296 13.0457 14.6622 13.85 14.3455V16.5377C13.8318 16.5537 13.8036 16.5747 13.7616 16.5999C13.6916 16.6416 13.595 16.6878 13.4707 16.7362C13.2222 16.8327 12.8745 16.9335 12.4328 17.0248C11.5503 17.2074 10.3039 17.35 8.75 17.35C7.19614 17.35 5.94974 17.2074 5.06715 17.0248C4.62551 16.9335 4.27775 16.8327 4.02932 16.7362C3.90495 16.6878 3.80837 16.6416 3.73839 16.5999C3.69636 16.5747 3.66817 16.5537 3.65 16.5377ZM8.75 18.525C8.987 18.525 9.9102 18.5181 10.9733 18.4195C11.9422 18.3296 13.0457 18.1622 13.85 17.8455V20.0377C13.8318 20.0537 13.8036 20.0747 13.7616 20.0999C13.6916 20.1416 13.595 20.1878 13.4707 20.2362C13.2222 20.3327 12.8745 20.4335 12.4328 20.5248C11.5503 20.7074 10.3039 20.85 8.75 20.85C7.19614 20.85 5.94974 20.7074 5.06715 20.5248C4.62551 20.4335 4.27775 20.3327 4.02932 20.2362C3.90495 20.1878 3.80837 20.1416 3.73839 20.0999C3.69636 20.0747 3.66817 20.0537 3.65 20.0377V17.8455C4.45432 18.1622 5.55784 18.3296 6.52672 18.4195C7.5898 18.5181 8.513 18.525 8.75 18.525ZM8.75 12.4C10.2573 12.4 11.4754 12.5341 12.3528 12.7088C12.7918 12.7961 13.1432 12.8932 13.4019 12.9876C13.5313 13.0349 13.6354 13.0807 13.7148 13.1232C13.7158 13.1238 13.7169 13.1244 13.718 13.125C13.7169 13.1256 13.7158 13.1262 13.7148 13.1268C13.6354 13.1693 13.5313 13.2151 13.4019 13.2624C13.1432 13.3568 12.7918 13.4539 12.3528 13.5412C11.4754 13.7159 10.2573 13.85 8.75 13.85C7.24274 13.85 6.0246 13.7159 5.14716 13.5412C4.70819 13.4539 4.35676 13.3568 4.09809 13.2624C3.96871 13.2151 3.86459 13.1693 3.78524 13.1268C3.78415 13.1262 3.78306 13.1256 3.78198 13.125C3.78306 13.1244 3.78415 13.1238 3.78524 13.1232C3.86459 13.0807 3.96871 13.0349 4.09809 12.9876C4.35676 12.8932 4.70819 12.7961 5.14716 12.7088C6.0246 12.5341 7.24274 12.4 8.75 12.4Z" fill="#8E97CD" stroke="#8E97CD" stroke-width="0.3"/>
<path id="Shape_2" d="M15.7518 13.2917C15.7876 13.0528 16.0094 12.8896 16.2487 12.9229C17.1417 13.055 18.1794 13.125 19.25 13.125C22.3751 13.125 24.2769 12.5514 24.5 12.2194M15.7518 13.2917L24.5 12.2194M15.7518 13.2917C15.7163 13.5306 15.8813 13.7533 16.1206 13.7887L15.7518 13.2917ZM24.5 12.2194L24.3755 12.1357C24.3715 12.1416 24.3636 12.1507 24.35 12.1627V12.2194H24.5ZM24.35 16.9705C23.5457 17.2872 22.4422 17.4546 21.4733 17.5445C20.4102 17.6431 19.487 17.65 19.25 17.65C18.1327 17.65 17.0447 17.5766 16.1023 17.4375L24.35 16.9705ZM24.35 16.9705V19.1633C24.3316 19.1794 24.3032 19.2005 24.2611 19.2256C24.1909 19.2674 24.0941 19.3136 23.9696 19.3619C23.7209 19.4584 23.373 19.559 22.9314 19.6503C22.0489 19.8326 20.803 19.975 19.25 19.975C18.1872 19.975 17.1578 19.9058 16.2737 19.7754L16.2735 19.7753C15.9565 19.729 15.654 19.9484 15.6068 20.2709L15.7553 20.2926M24.35 16.9705L24.5 19.2202C24.2747 19.5523 22.3733 20.125 19.25 20.125C18.1812 20.125 17.1443 20.0554 16.2518 19.9237C16.0156 19.8892 15.7903 20.0532 15.7553 20.2926M15.7553 20.2926C15.7198 20.5314 15.8852 20.7541 16.1241 20.7891M15.7553 20.2926L15.6069 20.2706C15.5593 20.5914 15.7812 20.8904 16.1022 20.9375L16.1241 20.7891M16.1241 20.7891L16.1023 20.9375M16.1241 20.7891C17.0581 20.9269 18.1388 21 19.25 21C19.8769 21 25.375 20.951 25.375 19.25V8.75C25.375 7.049 19.8769 7 19.25 7C18.6231 7 13.125 7.049 13.125 8.75V10.5731C13.125 10.8146 13.321 11.0106 13.5625 11.0106C13.804 11.0106 14 10.8146 14 10.5731L16.1023 20.9375M16.1023 20.9375C17.0447 21.0766 18.1327 21.15 19.25 21.15C19.5653 21.15 21.1059 21.1378 22.5705 20.9111C23.3014 20.798 24.0248 20.6298 24.5693 20.3771C25.1042 20.1288 25.525 19.7697 25.525 19.25V8.75C25.525 8.23031 25.1042 7.87118 24.5693 7.6229C24.0248 7.37015 23.3014 7.202 22.5705 7.08889C21.1059 6.86219 19.5653 6.85 19.25 6.85C18.9347 6.85 17.3941 6.86219 15.9295 7.08889C15.1986 7.202 14.4752 7.37015 13.9307 7.6229C13.3958 7.87118 12.975 8.23031 12.975 8.75V10.5731C12.975 10.8974 13.2382 11.1606 13.5625 11.1606C13.8868 11.1606 14.15 10.8974 14.15 10.5731V9.97046M16.1023 20.9375L14.15 9.97046M14.15 9.97046C14.9543 10.2872 16.0578 10.4546 17.0267 10.5445C18.0898 10.6431 19.013 10.65 19.25 10.65C19.487 10.65 20.4102 10.6431 21.4733 10.5445C22.4422 10.4546 23.5457 10.2872 24.35 9.97046L14.15 9.97046ZM24.5 9.74356V9.90808V9.74356ZM24.3755 15.6357C24.3715 15.6416 24.3636 15.6507 24.35 15.6627V15.7194H24.5L24.3755 15.6357ZM24.35 13.4705C24.4013 13.4503 24.4513 13.4295 24.5 13.4081V13.2436C24.4515 13.266 24.4015 13.2877 24.35 13.3088V13.4705ZM19.25 8.025C20.7573 8.025 21.9754 8.15914 22.8528 8.33378C23.2918 8.42114 23.6432 8.5182 23.9019 8.61262C24.0313 8.65985 24.1354 8.70568 24.2148 8.74824C24.2158 8.74883 24.2169 8.74942 24.218 8.75C24.2169 8.75058 24.2158 8.75117 24.2148 8.75176C24.1354 8.79432 24.0313 8.84015 23.9019 8.88738C23.6432 8.9818 23.2918 9.07886 22.8528 9.16622C21.9754 9.34086 20.7573 9.475 19.25 9.475C17.7427 9.475 16.5246 9.34086 15.6472 9.16622C15.2082 9.07886 14.8568 8.9818 14.5981 8.88738C14.4687 8.84015 14.3646 8.79432 14.2852 8.75176C14.2841 8.75117 14.2831 8.75058 14.282 8.75C14.2831 8.74942 14.2841 8.74883 14.2852 8.74824C14.3646 8.70568 14.4687 8.65985 14.5981 8.61262C14.8568 8.5182 15.2082 8.42114 15.6472 8.33378C16.5246 8.15914 17.7427 8.025 19.25 8.025Z" fill="#8E97CD" stroke="#8E97CD" stroke-width="0.3"/>
<path id="Shape_3" d="M8.77223 10.4779C8.82645 10.5321 8.89155 10.5755 8.96308 10.6049C9.03455 10.6347 9.11092 10.65 9.18761 10.65C9.26446 10.65 9.34099 10.6346 9.41259 10.6047C9.48297 10.5753 9.54817 10.5327 9.60299 10.4779L11.7905 8.29038C12.0201 8.06074 12.0201 7.68926 11.7905 7.45962C11.5608 7.22998 11.1894 7.22998 10.9597 7.45962L9.77511 8.64424V8.3125C9.77511 6.77483 10.2564 5.38576 11.0269 4.38421C11.7972 3.38276 12.8502 2.775 14.0001 2.775C15.5847 2.775 17.0861 3.98083 17.8001 5.89566C17.9135 6.19977 18.2526 6.35446 18.5557 6.24106C18.8599 6.12771 19.0145 5.78932 18.9011 5.48541C18.0275 3.14103 16.1117 1.6 14.0001 1.6C10.9928 1.6 8.60011 4.64406 8.60011 8.3125V8.64424L7.41549 7.45962C7.18585 7.22998 6.81437 7.22998 6.58473 7.45962C6.35509 7.68926 6.35509 8.06074 6.58473 8.29038L8.77223 10.4779Z" fill="#8E97CD" stroke="#8E97CD" stroke-width="0.3"/>
</g>
</g>
</svg>
