<svg width="1295" height="342" viewBox="0 0 1295 342" fill="none" xmlns="http://www.w3.org/2000/svg">
<path d="M1295 334C1295 338.418 1291.42 342 1287 342L8 342C3.58167 342 0 338.418 0 334V8C0 3.58173 3.58167 0 8 0L1287 0C1291.42 0 1295 3.58173 1295 8V334Z" fill="#201F45"/>
<mask id="mask0_1520_5359" style="mask-type:alpha" maskUnits="userSpaceOnUse" x="0" y="0" width="1295" height="343">
<path d="M-2.71982e-07 8.00001C-1.21771e-07 3.58173 3.58172 8.05176e-07 8 1.79841e-06L1287 0.000289319C1291.42 0.000290313 1295 3.58201 1295 8.00029L1295 334C1295 338.419 1291.42 342 1287 342L7.99999 342C3.58171 342 -1.15055e-05 338.418 -1.13552e-05 334L-2.71982e-07 8.00001Z" fill="#282A5C"/>
</mask>
<g mask="url(#mask0_1520_5359)">
<g opacity="0.7" filter="url(#filter0_f_1520_5359)">
<ellipse cx="1555.24" cy="171.053" rx="356.687" ry="102.6" transform="rotate(33.4114 1555.24 171.053)" fill="#F0603A"/>
</g>
<g opacity="0.7" filter="url(#filter1_f_1520_5359)">
<ellipse cx="-229.899" cy="356.913" rx="260.393" ry="74.9011" transform="rotate(-45.2223 -229.899 356.913)" fill="#4A3AFF"/>
<ellipse cx="-210.106" cy="494.406" rx="356.687" ry="102.6" transform="rotate(-45.2223 -210.106 494.406)" fill="#F0603A"/>
<ellipse cx="-196.927" cy="335.46" rx="356.687" ry="102.6" transform="rotate(-45.2223 -196.927 335.46)" fill="#554FD8"/>
</g>
<g opacity="0.7" filter="url(#filter2_f_1520_5359)">
<ellipse cx="174.665" cy="207.139" rx="174.665" ry="207.139" transform="matrix(0.943252 0.332079 -0.973476 0.228787 101.75 -175.977)" fill="#4A3AFF"/>
<ellipse cx="239.257" cy="283.74" rx="239.257" ry="283.74" transform="matrix(0.943252 0.332079 -0.973476 0.228787 -236.078 -163.424)" fill="#F0603A"/>
<ellipse cx="239.257" cy="283.74" rx="239.257" ry="283.74" transform="matrix(0.943252 0.332079 -0.973476 0.228787 117.422 -201.14)" fill="#554FD8"/>
</g>
<g opacity="0.7" filter="url(#filter3_f_1520_5359)">
<ellipse cx="174.665" cy="207.139" rx="174.665" ry="207.139" transform="matrix(0.990552 -0.137139 -0.760372 0.649488 991.008 360.17)" fill="#4A3AFF"/>
<ellipse cx="239.257" cy="283.74" rx="239.257" ry="283.74" transform="matrix(0.990552 -0.137139 -0.760372 0.649488 993.406 330.623)" fill="#554FD8"/>
</g>
</g>
<defs>
<filter id="filter0_f_1520_5359" x="1148.12" y="-147.271" width="952.648" height="676.886" filterUnits="userSpaceOnUse" color-interpolation-filters="sRGB">
<feFlood flood-opacity="0" result="BackgroundImageFix"/>
<feBlend mode="normal" in="SourceGraphic" in2="BackgroundImageFix" result="shape"/>
<feGaussianBlur stdDeviation="52" result="effect1_foregroundBlur_1520_5359"/>
</filter>
<filter id="filter1_f_1520_5359" x="-575.75" y="-31.912" width="744.469" height="893.69" filterUnits="userSpaceOnUse" color-interpolation-filters="sRGB">
<feFlood flood-opacity="0" result="BackgroundImageFix"/>
<feBlend mode="normal" in="SourceGraphic" in2="BackgroundImageFix" result="shape"/>
<feGaussianBlur stdDeviation="52" result="effect1_foregroundBlur_1520_5359"/>
</filter>
<filter id="filter2_f_1520_5359" x="-747.312" y="-263.374" width="1274.9" height="450.922" filterUnits="userSpaceOnUse" color-interpolation-filters="sRGB">
<feFlood flood-opacity="0" result="BackgroundImageFix"/>
<feBlend mode="normal" in="SourceGraphic" in2="BackgroundImageFix" result="shape"/>
<feGaussianBlur stdDeviation="52" result="effect1_foregroundBlur_1520_5359"/>
</filter>
<filter id="filter3_f_1520_5359" x="293.258" y="190.882" width="1145.89" height="777.961" filterUnits="userSpaceOnUse" color-interpolation-filters="sRGB">
<feFlood flood-opacity="0" result="BackgroundImageFix"/>
<feBlend mode="normal" in="SourceGraphic" in2="BackgroundImageFix" result="shape"/>
<feGaussianBlur stdDeviation="52" result="effect1_foregroundBlur_1520_5359"/>
</filter>
</defs>
</svg>
