<svg width="105" height="114" viewBox="0 0 105 114" fill="none" xmlns="http://www.w3.org/2000/svg">
<path d="M7.28409 9.60254C9.15236 9.60254 10.8339 11.0972 10.8339 13.1523C10.8339 15.2074 9.15236 16.702 7.28409 16.702C5.41581 16.702 3.73438 15.2074 3.73438 13.1523C3.73438 11.0972 5.22898 9.60254 7.28409 9.60254Z" fill="#8282A5"/>
<path d="M88.5535 2.68945C91.1691 2.68945 93.2242 4.74456 93.2242 7.36014C93.2242 9.97573 91.1691 12.0308 88.5535 12.0308C85.9379 12.0308 83.8828 9.97573 83.8828 7.36014C83.8828 4.74456 85.9379 2.68945 88.5535 2.68945Z" fill="#8282A5"/>
<path d="M62.5829 77.9811V78.7284L24.8438 74.6182L25.0305 73.3104C25.0305 70.6949 27.0856 68.4529 29.7012 68.2661L45.3948 66.7715L55.6703 69.3871C59.5937 70.1344 62.5829 73.6841 62.5829 77.9811Z" fill="#8282A5"/>
<path d="M95.8467 16.8867C99.3964 26.7886 98.4622 37.6246 92.4838 46.2186C86.5053 54.8127 76.6034 59.4834 66.1411 59.6702C62.7782 49.7684 63.5255 38.9324 69.504 30.3383C75.4825 21.5574 85.758 28.2832 95.8467 16.8867Z" fill="#4ED5D2"/>
<path d="M57.3597 2.68945C56.6124 13.7123 65.3933 15.7674 63.8987 23.2405C62.5909 30.7136 57.5466 36.8789 50.4471 40.2418C45.2159 34.637 42.4135 27.1639 43.9081 19.6908C45.4028 12.0308 50.634 5.86552 57.3597 2.68945Z" fill="#4ED5D2"/>
<path d="M42.4058 40.4277C47.637 48.0876 48.3843 57.8026 45.3951 66.5835C36.0537 66.3967 27.2728 62.2865 21.8548 54.6266C16.6236 46.9666 15.8763 37.2516 18.8656 28.4707C27.8333 38.7462 36.801 32.7677 42.4058 40.4277Z" fill="#4ED5D2"/>
<path d="M102.577 49.7705C103.885 49.7705 105.006 50.8915 105.006 52.1993C105.006 53.5071 103.885 54.628 102.577 54.628C101.269 54.628 100.148 53.5071 100.148 52.1993C100.148 50.7047 101.269 49.7705 102.577 49.7705Z" fill="#8282A5"/>
<path d="M95.4678 94.4209C96.7756 94.4209 97.8965 95.5418 97.8965 96.8496C97.8965 98.1574 96.7756 99.2784 95.4678 99.2784C94.16 99.2784 93.0391 98.1574 93.0391 96.8496C93.2259 95.5418 94.3468 94.4209 95.4678 94.4209Z" fill="#8282A5"/>
<path d="M74.3585 7.36035C75.6663 7.36035 76.7872 8.48132 76.7872 9.78912C76.7872 11.0969 75.6663 12.2179 74.3585 12.2179C73.0507 12.2179 71.9297 11.0969 71.9297 9.78912C71.9297 8.29449 73.0507 7.36035 74.3585 7.36035Z" fill="#8282A5"/>
<path d="M24.8507 9.60254C26.1585 9.60254 27.2794 10.7235 27.2794 12.0313C27.2794 13.3391 26.1585 14.4601 24.8507 14.4601C23.5429 14.4601 22.4219 13.3391 22.4219 12.0313C22.6087 10.7235 23.7297 9.60254 24.8507 9.60254Z" fill="#8282A5"/>
<path d="M15.5072 61.54C16.815 61.54 17.936 62.661 17.936 63.9688C17.936 65.2766 16.815 66.2107 15.5072 66.2107C14.1994 66.2107 13.0784 65.0898 13.0784 63.782C12.8916 62.4742 14.3863 61.54 15.5072 61.54Z" fill="#8282A5"/>
<path d="M3.74124 45.0996C5.04903 45.0996 6.17003 46.2206 6.17003 47.5284C6.17003 48.8362 5.04903 49.9571 3.74124 49.9571C2.43344 49.9571 1.3125 48.8362 1.3125 47.5284C1.3125 46.0338 2.43344 45.0996 3.74124 45.0996Z" fill="#8282A5"/>
<path d="M27.2819 107.499C26.7214 107.499 26.1609 107.312 25.6005 106.751L15.1381 96.2891C14.204 95.355 14.204 93.8603 15.1381 92.9262C16.0722 91.9921 17.5668 91.9921 18.501 92.9262L28.9633 103.389C29.8975 104.323 29.8975 105.817 28.9633 106.751C28.4028 107.125 27.8424 107.499 27.2819 107.499Z" fill="#8282A5"/>
<path d="M21.2983 113.291C20.7378 113.291 20.1774 113.104 19.6169 112.544L0.747299 93.6743C0.373644 93.3007 0 92.5534 0 91.9929C0 91.4324 0.186816 90.8719 0.747299 90.3114L18.8696 72.1891C19.4301 71.6287 19.9906 71.4418 20.7379 71.4418L64.4555 76.1125C66.3238 76.2994 68.1921 77.0467 69.6867 78.5413C70.6208 79.4754 71.1813 80.4096 71.7418 81.7174L89.4904 63.5951C91.1718 61.9136 93.4138 60.9795 95.8426 60.9795C98.2713 60.9795 100.513 61.9136 102.195 63.5951C103.876 65.2765 104.81 67.5185 104.81 69.9472C104.81 72.376 103.876 74.6179 102.195 76.2993L70.9945 108.247C70.6208 108.621 69.8735 108.994 69.313 108.994L28.211 107.5L22.9798 112.731C22.6062 113.104 21.8588 113.291 21.2983 113.291ZM5.79166 91.9929L21.2983 107.5L25.5954 103.203C25.969 102.829 26.7163 102.455 27.2768 102.455L68.3789 103.95L99.0186 73.3101C100.7 71.6287 100.7 68.8263 99.0186 67.1448C98.2713 66.3975 97.1504 65.837 95.8426 65.837C94.7216 65.837 93.6006 66.2107 92.6665 67.1448L71.3681 89.3773L71.1813 89.5641C69.6867 92.3665 66.6974 93.8611 63.5214 93.8611L39.2338 92.7402C37.926 92.7402 36.9919 91.6192 36.9919 90.3114C36.9919 89.0036 38.1128 88.0695 39.4206 88.0695L63.5214 89.1905C65.2028 89.1905 66.5106 88.2563 67.2579 86.7617C67.4447 86.2012 67.6316 85.4539 67.4447 84.8934C67.2579 83.9593 66.8843 83.212 66.3238 82.6515C65.7633 81.9042 65.016 81.5305 64.0819 81.5305L21.2983 76.8598L5.79166 91.9929Z" fill="#8282A5"/>
<path d="M45.4053 69.0137C45.2185 69.0137 45.2185 69.0137 45.4053 69.0137C34.943 68.8269 25.6016 64.1562 19.9967 55.9358C14.3919 47.9022 13.2709 37.6267 16.6338 27.7248C16.8206 26.9775 17.568 26.4171 18.3153 26.2302C19.0626 26.0434 19.9967 26.4171 20.5572 26.9775C24.6674 31.8351 28.9645 32.5824 33.2615 33.1429C37.1849 33.8902 41.2951 34.6375 44.2843 38.9345C49.8891 46.9681 51.0101 57.2436 47.6472 67.1455C47.2735 68.4533 46.3394 69.0137 45.4053 69.0137ZM19.9967 32.956C18.5021 40.2423 19.8099 47.7154 23.7333 53.3202C28.0303 59.6724 35.3166 63.4089 43.537 64.1562C45.7789 56.3095 44.658 48.089 40.3609 41.7369C38.4926 38.9345 35.8771 38.5609 32.3274 37.8135C28.5908 37.2531 24.2938 36.5057 19.9967 32.956Z" fill="#8282A5"/>
<path d="M36.066 60.045C35.6923 60.045 35.3186 59.8582 34.945 59.6714C31.5821 57.8031 28.7797 55.1875 26.5377 52.0114C24.6695 49.3958 23.3617 46.4066 22.6143 43.0437C22.4275 41.7359 23.1748 40.615 24.4826 40.2413C25.7904 40.0545 26.9114 40.8018 27.285 42.1096C27.8455 44.7252 28.9665 47.1539 30.4611 49.3958C32.1426 52.0114 34.5713 54.0665 37.3737 55.5612C38.4947 56.1216 38.8683 57.6163 38.3078 58.7372C37.9342 59.6714 36.8133 60.045 36.066 60.045Z" fill="#8282A5"/>
<path d="M50.8208 42.2966C50.2603 42.2966 49.513 42.1098 49.1393 41.5493C43.1609 35.1972 40.5452 26.9767 41.853 18.9432C43.3476 11.0964 48.5789 4.18379 56.6124 0.26041C57.3598 -0.113245 58.2939 -0.113234 58.8543 0.447249C59.6017 0.820904 59.9753 1.75502 59.7885 2.50233C59.4148 7.54668 61.2831 10.1623 63.3382 12.9647C65.2065 15.5803 67.2616 18.5695 66.5143 23.0534C65.0197 30.9001 59.7885 37.8127 51.7549 41.7361C51.3813 42.2966 51.1944 42.2966 50.8208 42.2966ZM55.3046 6.61256C50.6339 9.78863 47.4578 14.4593 46.5237 20.0641C45.4027 26.0426 47.271 32.2079 51.3812 37.2523C56.9861 34.0762 60.7226 28.845 61.8436 22.8666C62.2172 20.4378 61.2831 18.9432 59.4149 16.3276C57.7334 13.712 55.8651 10.7228 55.3046 6.61256Z" fill="#8282A5"/>
<path d="M66.1361 61.9123C65.202 61.9123 64.2679 61.3519 63.8942 60.4177C59.9709 49.3949 61.4655 37.8116 67.6308 29.0307C70.9937 24.1732 75.4775 23.4259 79.9614 22.6786C84.6321 21.9312 89.3028 20.9971 94.3471 15.5791C94.9076 15.0186 95.6549 14.645 96.5891 14.8318C97.3364 15.0186 98.0837 15.5791 98.2705 16.3264C102.194 27.3493 100.699 38.9326 94.5339 47.7135C88.3686 56.3075 77.9063 61.7255 66.1361 61.9123ZM94.7208 21.1839C89.8633 25.2941 84.8189 26.2283 80.7087 26.9756C76.5985 27.7229 73.7961 28.2834 71.5542 31.4594C66.5098 38.5589 65.202 48.0871 68.0044 57.0548C77.5326 56.3075 85.753 52.0105 90.7974 44.7242C95.2812 38.1852 96.5891 29.5912 94.7208 21.1839Z" fill="#8282A5"/>
<path d="M76.5953 52.0115C75.6612 52.0115 74.9138 51.4511 74.5402 50.7037C73.9797 49.5828 74.5402 48.0882 75.6612 47.5277C79.0241 45.8462 81.8265 43.6043 84.0684 40.4282C85.563 38.3731 86.4972 36.1312 87.2445 33.7025C87.6182 32.3947 88.9259 31.6473 90.0469 32.021C91.3547 32.3946 92.102 33.7024 91.7283 34.8234C90.981 37.8126 89.6732 40.6151 87.9918 43.0438C85.3762 46.7804 82.0133 49.5828 77.7163 51.6379C77.3426 52.0115 76.969 52.0115 76.5953 52.0115Z" fill="#8282A5"/>
<path d="M62.5905 80.2231C61.2827 80.2231 60.1617 79.1021 60.1617 77.7944C60.1617 74.8051 58.1066 72.1895 55.1174 71.4422L45.2155 69.0135L30.0825 70.5081C28.5879 70.6949 27.4669 71.8159 27.4669 73.3105C27.4669 74.6183 26.3459 75.7393 25.0381 75.7393C23.7303 75.7393 22.6094 74.6183 22.6094 73.3105C22.6094 69.3871 25.5986 66.2111 29.3352 65.8374L45.2155 64.3428C45.4023 64.3428 45.776 64.3428 45.9628 64.3428L56.2383 66.9583C61.2827 68.2661 64.8324 72.75 64.8324 77.9812C65.0192 79.1022 63.8982 80.2231 62.5905 80.2231Z" fill="#8282A5"/>
<path d="M53.0608 70.8808C52.5003 70.8808 52.1267 70.694 51.7531 70.5071C51.0057 69.9467 50.6321 68.8257 50.8189 67.8915L51.7531 64.5287C53.995 56.8687 52.874 48.4615 48.7638 41.5489V41.1752C48.0165 40.0543 48.3901 38.5596 49.5111 37.9991C50.6321 37.2518 52.1267 37.6255 52.6872 38.7465L52.874 39.1201C56.9842 46.2196 58.4788 54.8136 56.9842 62.8472L64.6441 57.616C65.7651 56.8687 67.0729 57.0556 67.8202 58.1765C68.5675 59.2975 68.3807 60.6053 67.2597 61.3526L54.1818 70.3203C53.995 70.694 53.6213 70.8808 53.0608 70.8808Z" fill="#8282A5"/>
<path d="M7.2838 19.1292C4.10773 19.1292 1.49219 16.5136 1.49219 13.3375C1.49219 10.1615 4.10773 7.5459 7.2838 7.5459C10.4599 7.5459 13.0755 10.1615 13.0755 13.3375C13.0755 16.5136 10.4599 19.1292 7.2838 19.1292ZM7.2838 12.2166C6.72331 12.2166 6.16288 12.7771 6.16288 13.3375C6.16288 13.898 6.72331 14.4585 7.2838 14.4585C7.84428 14.4585 8.40477 13.898 8.40477 13.3375C8.40477 12.7771 7.84428 12.2166 7.2838 12.2166Z" fill="#8282A5"/>
<path d="M88.5604 14.4593C84.637 14.4593 81.4609 11.2833 81.4609 7.35988C81.4609 3.4365 84.637 0.447266 88.5604 0.447266C92.4837 0.447266 95.6598 3.62334 95.6598 7.54672C95.6598 11.4701 92.4837 14.4593 88.5604 14.4593ZM88.5604 4.93111C87.2526 4.93111 86.1316 6.05209 86.1316 7.35988C86.1316 8.66767 87.2526 9.78864 88.5604 9.78864C89.8682 9.78864 90.9892 8.66767 90.9892 7.35988C90.8023 6.05209 89.8682 4.93111 88.5604 4.93111Z" fill="#8282A5"/>
</svg>
