<svg width="16" height="16" viewBox="0 0 16 16" fill="none" xmlns="http://www.w3.org/2000/svg">
<path d="M16 3.75293C16 7.43047 16 11.108 16 14.7814C15.9917 14.8022 15.9791 14.8189 15.975 14.8398C15.7955 15.5912 15.2779 16.0003 14.5098 16.0003C10.1644 16.0003 5.81477 16.0003 1.46935 16.0003C0.609444 16.0003 0.00417428 15.395 0 14.5393C0 11.0078 0 7.48056 0 3.94912C0 3.88651 0.00834855 3.82807 0.0125228 3.75293C5.35142 3.75293 10.6736 3.75293 16 3.75293ZM8.01044 5.62718C7.38429 5.62718 6.76233 5.62301 6.13619 5.62718C5.34307 5.63135 4.72111 6.25332 4.71693 7.02974C4.71693 7.80615 5.3389 8.43647 6.12784 8.43647C7.37595 8.44064 8.62823 8.44064 9.87634 8.43229C10.06 8.43229 10.252 8.39055 10.419 8.31959C11.0451 8.06078 11.3791 7.4096 11.2455 6.74171C11.1203 6.10722 10.5484 5.63553 9.88051 5.62718C9.25854 5.62301 8.63658 5.62718 8.01044 5.62718Z" fill="#303134"/>
<path d="M7.53055 0.00417428C7.53055 0.935038 7.53055 1.8659 7.53055 2.80511C5.10947 2.80511 2.70509 2.80511 0.271484 2.80511C0.321576 2.70076 0.363318 2.60057 0.421758 2.51291C0.830837 1.89095 1.24409 1.27315 1.65734 0.655361C1.87858 0.321419 2.17913 0.112705 2.57151 0.0292199C2.58821 0.0250457 2.6049 0.0125228 2.62578 0C4.26209 0.00417428 5.89423 0.00417428 7.53055 0.00417428Z" fill="#303134"/>
<path d="M13.3421 0.00488281C13.4005 0.0257542 13.459 0.0466256 13.5174 0.0633227C13.8555 0.159331 14.131 0.342999 14.3272 0.639373C14.7488 1.26551 15.1662 1.89166 15.5837 2.52197C15.6379 2.60546 15.6797 2.70147 15.7339 2.81C13.3045 2.81 10.9001 2.81 8.4707 2.81C8.4707 1.87496 8.4707 0.939921 8.4707 0.00905709C10.0945 0.00488281 11.7183 0.00488281 13.3421 0.00488281Z" fill="#303134"/>
</svg>
