<svg width="24" height="24" viewBox="0 0 24 24" fill="none" xmlns="http://www.w3.org/2000/svg">
<g clip-path="url(#clip0_464_3456)">
<path d="M20.0398 14.3488C19.6318 14.6047 19.1557 14.6512 18.793 14.4419C18.3396 14.1628 18.0676 13.5349 18.0676 12.6744V10.0465C18.0676 8.7907 17.5915 7.88372 16.7754 7.65116C15.3926 7.23256 14.3498 8.97674 13.9644 9.6279L11.5161 13.6512V8.69767C11.4934 7.55814 11.1307 6.88372 10.4506 6.67442C9.99724 6.53489 9.31716 6.60465 8.65974 7.62791L3.1964 16.6046C2.47097 15.186 2.08559 13.6047 2.08559 12C2.08559 6.5814 6.32479 2.18604 11.5161 2.18604C16.7074 2.18604 20.9466 6.5814 20.9466 12V12.0233V12.0465C20.9919 13.093 20.6746 13.9302 20.0398 14.3488ZM23.0322 12V11.9767V11.9535C23.0095 5.37209 17.8409 0 11.5161 0C5.16864 0 0 5.37209 0 12C0 18.6047 5.16864 24 11.5161 24C14.4405 24 17.2061 22.8605 19.3371 20.7907C19.7678 20.3721 19.7905 19.6977 19.3824 19.2558C18.997 18.814 18.3396 18.7907 17.9089 19.186C17.9089 19.186 17.9089 19.186 17.8862 19.2093C16.1633 20.8837 13.8511 21.8372 11.4708 21.8372C8.68241 21.8372 6.18877 20.5814 4.46589 18.5814L9.38516 10.4884V14.2326C9.38516 16.0233 10.0652 16.6047 10.632 16.7674C11.1987 16.9302 12.0602 16.814 12.9896 15.3023L15.6873 10.814C15.778 10.6744 15.846 10.5349 15.9366 10.4419V12.7209C15.9366 14.3954 16.5941 15.7442 17.7275 16.3953C18.7477 17 20.0398 16.9302 21.1053 16.2558C22.4201 15.3721 23.1229 13.8372 23.0322 12Z" fill="#8E97CD"/>
</g>
<defs>
<clipPath id="clip0_464_3456">
<rect width="24" height="24" fill="white"/>
</clipPath>
</defs>
</svg>
