<svg width="24" height="24" viewBox="0 0 24 24" fill="none" xmlns="http://www.w3.org/2000/svg">
<g clip-path="url(#clip0_464_3471)">
<path fill-rule="evenodd" clip-rule="evenodd" d="M11.9844 0C18.6354 0 24.0001 5.36471 24.0001 12.0471C24.0001 18.6353 18.5727 24.0627 11.8903 24.0314C5.42759 23.9686 -0.031238 18.6039 0.000134559 12.0157C0.0315071 5.36471 5.36484 0 11.9844 0ZM2.88641 18.2902C2.88641 18.4157 2.94915 18.4784 3.0119 18.5725C3.48249 19.2314 4.01582 19.8588 4.64327 20.3922C4.92562 20.6431 5.20798 20.8941 5.5217 21.1137C6.40013 21.6784 7.30994 22.2118 8.31386 22.5569C9.12955 22.8392 9.9766 23.0588 10.8237 23.1529C11.4825 23.2157 12.1727 23.2471 12.8315 23.1529C13.208 23.0902 13.6158 23.0902 13.9923 22.9333C14.055 22.9647 14.0864 22.902 14.1178 22.902C14.9021 22.7765 15.655 22.5255 16.408 22.2118C18.855 21.1451 20.706 19.4196 21.8982 17.0353C22.9648 14.9333 23.3099 12.7059 22.9648 10.3843C22.6511 8.15686 21.7099 6.21176 20.2041 4.58039C18.1648 2.35294 15.5923 1.12941 12.5805 0.941177C11.2315 0.847059 9.88249 1.03529 8.59621 1.47451C6.49425 2.16471 4.76876 3.35686 3.357 5.08235C1.757 7.05882 0.972683 9.31765 0.878566 11.8275C0.847193 12.4549 0.909938 13.051 1.00406 13.6784C1.19229 15.0902 1.66288 16.4392 2.38445 17.6627C2.57268 17.8196 2.6668 18.102 2.88641 18.2902Z" fill="#8E97CD"/>
<path fill-rule="evenodd" clip-rule="evenodd" d="M13.9926 22.934C13.6161 23.1222 13.2083 23.1222 12.8318 23.1536C12.173 23.2477 11.4828 23.2164 10.824 23.1536C9.97691 23.0595 9.12986 22.8399 8.31417 22.5575C7.31025 22.2124 6.40044 21.6791 5.52201 21.1144C5.20829 20.8948 4.92593 20.6438 4.64358 20.3928C4.01613 19.8595 3.4828 19.232 3.01221 18.5732C2.94946 18.4791 2.88672 18.385 2.88672 18.2909C3.63966 16.5968 3.92201 14.8085 4.07888 12.9889C4.14162 12.1418 4.17299 11.2948 4.32986 10.4477C4.48672 9.47518 4.86319 8.59675 5.55339 7.84381C6.18084 7.18499 6.96515 6.74577 7.81221 6.43204C8.50241 6.14969 9.22397 5.89871 10.0083 5.86734C10.7299 5.83597 11.4201 5.93008 12.1102 6.08695C13.1455 6.33793 14.1808 6.65165 15.1534 7.12224C15.9377 7.43597 16.7534 7.74969 17.5691 8.00067C18.4161 8.25165 19.2632 8.53401 19.9848 9.06734C20.8946 9.75753 21.1455 10.636 20.7377 11.7026C20.4867 12.3615 20.0161 12.8634 19.5455 13.3654C18.6985 14.2438 17.7887 15.0595 16.973 15.9693C16.0318 17.0673 15.1848 18.1968 14.5887 19.5144C14.0553 20.6124 13.8044 21.7105 13.9926 22.934ZM20.0475 12.5811C20.0161 12.5811 19.9848 12.5811 19.9534 12.6124C19.922 12.6124 19.8906 12.6438 19.8906 12.6752C19.8906 12.6752 19.8906 12.6752 19.8906 12.7066C19.922 12.7066 19.9534 12.6752 19.9534 12.6438L20.0475 12.5811C20.0475 12.5811 20.0789 12.5811 20.0475 12.5811C20.0475 12.5497 20.0475 12.5811 20.0475 12.5811ZM10.4161 7.12224C9.22397 7.12224 8.25142 8.09479 8.25142 9.25557C8.25142 10.4477 9.22397 11.3889 10.3848 11.4203C11.5769 11.4203 12.5181 10.4477 12.5495 9.25557C12.5808 8.09479 11.6083 7.12224 10.4161 7.12224C10.4475 7.12224 10.4161 7.12224 10.4161 7.12224ZM12.173 13.7418C12.3612 14.0242 12.7063 14.2752 13.1142 14.4007C13.9299 14.683 14.7455 14.683 15.5612 14.5262C17.0044 14.2438 18.3534 13.7418 19.5769 12.9262C19.6397 12.8634 19.7652 12.8634 19.7965 12.7379C19.7338 12.7066 19.7024 12.7379 19.671 12.7693C19.2632 13.0203 18.824 13.2085 18.3848 13.3967C17.2553 13.8673 16.0632 14.1811 14.8083 14.2438C13.8985 14.3066 13.0201 14.2124 12.173 13.7418ZM18.1338 11.8909C18.3848 11.8909 18.6044 11.6713 18.6044 11.3889C18.6044 11.1379 18.3848 10.9183 18.1024 10.9497C17.8514 10.9497 17.6632 11.1693 17.6632 11.4203C17.6318 11.6713 17.8514 11.8909 18.1338 11.8909Z" fill="#8E97CD"/>
<path fill-rule="evenodd" clip-rule="evenodd" d="M12.0793 6.08686C11.3891 5.96137 10.6989 5.83588 9.97729 5.86725C9.19298 5.89862 8.50278 6.1496 7.78122 6.43195C6.93416 6.74568 6.14984 7.1849 5.52239 7.84372C4.8322 8.56529 4.45573 9.44372 4.29886 10.4476C4.17337 11.2947 4.142 12.1418 4.04788 12.9888C3.89102 14.8084 3.60867 16.628 2.85573 18.2908C2.63612 18.1025 2.51063 17.8202 2.38514 17.6006C1.66357 16.3771 1.19298 15.028 1.00474 13.6163C0.910627 12.9888 0.847882 12.3927 0.879255 11.7653C0.973372 9.25548 1.75769 6.99666 3.35769 5.02019C4.73808 3.2947 6.49494 2.10254 8.5969 1.41235C9.88318 1.0045 11.2322 0.816269 12.5812 0.879014C15.593 1.06725 18.1655 2.29078 20.2047 4.51823C21.7106 6.18097 22.6204 8.12607 22.9655 10.3222C23.3106 12.6437 22.9655 14.8712 21.8989 16.9731C20.7067 19.3574 18.8557 21.0829 16.4087 22.1496C15.6871 22.4633 14.9342 22.7143 14.1185 22.8398C14.0557 22.8398 14.0244 22.9339 13.993 22.8712C13.8047 21.679 14.0871 20.5496 14.5577 19.4516C15.1538 18.1339 16.0008 17.0045 16.942 15.9065C17.7263 14.9967 18.6361 14.1496 19.5145 13.3025C20.0165 12.8006 20.4557 12.2986 20.7067 11.6398C21.1459 10.5731 20.8949 9.6947 19.9538 9.0045C19.2322 8.47117 18.3851 8.18882 17.5381 7.93784C16.7224 7.68686 15.9067 7.37313 15.1224 7.05941C14.9655 6.52607 14.5891 6.18097 14.0871 5.99274C13.4283 5.83588 12.7381 5.86725 12.0793 6.08686ZM22.3381 12.7378H22.4008C22.5263 12.2986 22.5263 11.828 22.5263 11.3574C22.5263 10.8241 22.4636 10.2908 22.3695 9.75745C22.0244 8.03196 21.24 6.52607 20.0165 5.2398C19.2636 4.45548 18.4165 3.79666 17.5695 3.10646C16.8165 2.47901 16.0008 2.00843 15.0596 1.75745C14.1498 1.53784 13.2714 1.41235 12.3302 1.56921C12.2675 1.56921 12.2047 1.56921 12.2047 1.63196C12.2047 1.6947 12.2675 1.6947 12.3302 1.6947C13.7106 1.94568 15.0283 2.3849 16.3145 2.88686C17.5695 3.38882 18.6361 4.11039 19.4204 5.2398C19.9538 6.02411 20.4557 6.8398 20.8636 7.71823C21.3969 8.91039 21.8047 10.1339 22.0557 11.3888C22.1812 11.8908 22.244 12.33 22.3381 12.7378Z" fill="#D0D6E8"/>
<path fill-rule="evenodd" clip-rule="evenodd" d="M10.4167 7.12109C11.6088 7.12109 12.55 8.09364 12.55 9.25443C12.55 10.4466 11.5774 11.3878 10.3853 11.4191C9.19313 11.4191 8.25195 10.4466 8.25195 9.25443C8.28333 8.09364 9.25588 7.12109 10.4167 7.12109ZM11.9225 9.2858C11.9225 8.43874 11.2637 7.77992 10.4167 7.77992C9.5696 7.77992 8.91078 8.43874 8.91078 9.2858C8.91078 10.1015 9.5696 10.7917 10.3853 10.7917H10.4167C11.2637 10.7917 11.9225 10.1329 11.9225 9.2858C11.9225 9.31717 11.9225 9.2858 11.9225 9.2858Z" fill="#F8FBF7"/>
<path fill-rule="evenodd" clip-rule="evenodd" d="M12.1722 13.7404C12.9879 14.2423 13.8977 14.3051 14.8075 14.2737C16.0624 14.211 17.2546 13.9286 18.384 13.4266C18.8232 13.2384 19.2624 13.0502 19.6703 12.7992C19.7017 12.7678 19.733 12.7364 19.7958 12.7678C19.7644 12.8619 19.6703 12.8933 19.5762 12.956C18.3526 13.7717 17.0036 14.2737 15.5605 14.556C14.7448 14.7129 13.8977 14.7129 13.1134 14.4306C12.7369 14.2423 12.3605 13.9913 12.1722 13.7404ZM12.0781 6.08546C12.7369 5.89722 13.4271 5.83448 14.086 6.08546C14.5879 6.2737 14.9644 6.61879 15.1213 7.15213C14.1487 6.65017 13.1448 6.33644 12.0781 6.08546Z" fill="#565891"/>
<path fill-rule="evenodd" clip-rule="evenodd" d="M18.1014 11.8904C17.8505 11.8904 17.6309 11.6708 17.6309 11.4198C17.6309 11.1688 17.8191 10.9492 18.0701 10.9492C18.3211 10.9492 18.5407 11.1375 18.572 11.3884C18.572 11.6708 18.3838 11.859 18.1014 11.8904Z" fill="#F8FBF7"/>
<path fill-rule="evenodd" clip-rule="evenodd" d="M19.954 12.6428C19.954 12.6742 19.9226 12.7056 19.8912 12.7056C19.8598 12.6428 19.8912 12.6428 19.954 12.6428ZM20.0481 12.5801L19.954 12.6428L19.9226 12.6115C19.954 12.6115 19.9853 12.5801 20.0481 12.5801Z" fill="#9DA3B6"/>
<path fill-rule="evenodd" clip-rule="evenodd" d="M22.3383 12.7373C22.2442 12.298 22.1501 11.8902 22.0873 11.451C21.8363 10.1647 21.3971 8.94118 20.8952 7.7804C20.5187 6.90196 20.0167 6.08628 19.452 5.30196C18.6677 4.17255 17.6324 3.45098 16.3461 2.94902C15.0599 2.44706 13.7422 1.97647 12.3618 1.75687C12.2991 1.75687 12.2363 1.75687 12.2363 1.69412C12.2363 1.63138 12.2991 1.63138 12.3618 1.63138C13.2716 1.47451 14.1814 1.56863 15.0912 1.81961C16.0324 2.07059 16.8481 2.57255 17.601 3.16863C18.4481 3.85883 19.2952 4.51765 20.0481 5.30196C21.2716 6.58824 22.0559 8.09412 22.401 9.81961C22.4952 10.3529 22.5579 10.8863 22.5579 11.4196C22.5579 11.8588 22.5579 12.3294 22.4324 12.8L22.3383 12.7373Z" fill="#FFFDF9"/>
<path fill-rule="evenodd" clip-rule="evenodd" d="M11.9219 9.2853C11.9219 10.101 11.2631 10.7912 10.4474 10.7912H10.416C9.60035 10.7912 8.91016 10.1324 8.91016 9.2853V9.25393C8.91016 8.40687 9.60035 7.74805 10.416 7.74805C11.2631 7.77942 11.9219 8.43824 11.9219 9.2853Z" fill="#565891"/>
</g>
<defs>
<clipPath id="clip0_464_3471">
<rect width="24" height="24" fill="white"/>
</clipPath>
</defs>
</svg>
