<svg width="24" height="24" viewBox="0 0 24 24" fill="none" xmlns="http://www.w3.org/2000/svg">
<rect width="24" height="24" rx="12" fill="url(#paint0_linear_3725_7110)"/>
<path d="M6.23133 12.1951L6.24075 15.6465L9.17335 17.3721V19.3927L4.52448 16.6662V11.1858L6.23133 12.1951ZM6.23133 8.74375V10.7549L4.52344 9.74464V7.73345L6.23133 6.72314L7.9476 7.73345L6.23133 8.74375ZM10.3981 7.73345L12.1059 6.72314L13.8222 7.73345L12.1059 8.74375L10.3981 7.73345Z" fill="white"/>
<path d="M7.46875 14.9311V12.9105L9.17665 13.9208V15.932L7.46875 14.9311ZM10.4014 18.0959L12.1092 19.1062L13.8255 18.0959V20.1071L12.1092 21.1174L10.4014 20.1071V18.0959ZM16.2749 7.73345L17.9828 6.72314L19.6991 7.73345V9.74464L17.9828 10.7549V8.74375L16.2749 7.73345ZM17.9828 15.6465L17.9922 12.1951L19.7001 11.1848V16.6651L15.0513 19.3917V17.3711L17.9828 15.6465Z" fill="white"/>
<path d="M16.7548 14.9303L15.0469 15.9312V13.92L16.7548 12.9097V14.9303Z" fill="white"/>
<path d="M16.7581 9.45874L16.7675 11.4794L13.8266 13.205V16.6647L12.1187 17.6656L10.4108 16.6647V13.205L7.4698 11.4794V9.45874L9.18501 8.44844L12.1082 10.1825L15.0492 8.44844L16.7654 9.45874H16.7581ZM7.46875 6.00844L12.1092 3.27246L16.7581 6.00844L15.0502 7.01874L12.1092 5.2847L9.17665 7.01874L7.46875 6.00844Z" fill="white"/>
<defs>
<linearGradient id="paint0_linear_3725_7110" x1="24" y1="24" x2="0" y2="0" gradientUnits="userSpaceOnUse">
<stop stop-color="#D1A000"/>
<stop offset="1" stop-color="#FFD632"/>
</linearGradient>
</defs>
</svg>
