<svg width="90" height="25" viewBox="0 0 90 25" fill="none" xmlns="http://www.w3.org/2000/svg">
<g filter="url(#filter0_b_209_1030)">
<path d="M90 2.82457V1.90652C89.9844 1.89652 89.9668 1.88676 89.9474 1.87729C89.4034 1.64306 88.8092 1.41812 88.168 1.2037C87.8618 1.08693 87.5989 0.961844 87.3835 0.830366C87.2252 0.699845 87.0317 0.572826 86.8047 0.45039C86.245 0.200616 85.0922 0.0956581 84.1308 0.0106287C83.9448 0.00525423 83.758 0.0025934 83.5711 0.00265717H82.9636C80.6389 0.0969867 78.3237 0.217888 75.9894 0.280331C74.9324 0.309316 73.8692 0.316422 72.8084 0.301589C71.7274 0.288303 70.6511 0.260403 69.5748 0.248445C69.0343 0.248445 68.4985 0.240474 67.958 0.248445C67.4175 0.256417 66.92 0.277674 66.3986 0.286974C65.4893 0.300962 64.5773 0.288941 63.6768 0.251103C62.7441 0.216559 61.8161 0.164745 60.8833 0.130201C59.8885 0.0914971 58.8823 0.0799275 57.8794 0.0956581C55.789 0.128873 53.7226 0.228517 51.6322 0.252431C50.7277 0.263758 49.8213 0.251749 48.9248 0.216559C48.4465 0.193973 47.9203 0.184673 47.418 0.175373C46.1456 0.152787 44.8685 0.142159 43.5913 0.119573C42.4189 0.104329 41.2519 0.0657004 40.0994 0.00398572H36.7797L35.2299 0.0744008C33.0118 0.175123 30.7766 0.2443 28.5331 0.28166C27.3988 0.300366 26.2608 0.291475 25.1321 0.255088C24.0284 0.19827 22.9025 0.182188 21.7837 0.207259C20.8557 0.245788 19.9899 0.358718 19.0571 0.393261C18.2309 0.411729 17.4025 0.365713 16.6654 0.260403C16.2427 0.206944 15.8021 0.165115 15.35 0.135516C14.8006 0.109597 14.2395 0.109597 13.6901 0.135516C12.6617 0.171387 11.6285 0.233831 10.6001 0.160759C10.1819 0.126373 9.77537 0.0819186 9.38506 0.0279003L9.16503 0H6.42891H6.09408L5.36222 0.0744008C4.98808 0.107678 4.60116 0.128636 4.20942 0.136844H4.02286C2.83624 0.270625 1.81994 0.499516 1.10348 0.79434C0.387023 1.08916 0.00287194 1.43657 0 1.79226V2.02476C0.175527 2.33222 0.225271 2.64421 0.148285 2.95477C0.115965 3.03655 0.0664532 3.11773 0 3.1979V4.29399C0.0813181 4.35776 0.172207 4.42685 0.258309 4.48397C0.444862 4.61683 0.507046 4.78556 0.870586 4.89716C1.01409 4.94367 1.24369 5.00345 1.22455 5.07121C1.22455 5.17218 0.746214 5.21603 0.569228 5.29175C0.369989 5.39957 0.209757 5.51261 0.0908861 5.62922C0.0609815 5.6532 0.035436 5.67759 0.0143497 5.70229V7.57028C0.0430502 7.73635 0.0813234 7.90242 0.110024 8.06983C0.14532 8.31903 0.113335 8.56861 0.0143497 8.81649V10.0122C0.0143497 10.0255 0.0143497 10.0401 0.0143497 10.0547C0.0733721 10.2105 0.103708 10.3671 0.105236 10.5237C0.0699935 10.6764 0.0972806 10.8298 0.18656 10.9808C0.289594 11.0715 0.434286 11.1581 0.617065 11.2385C0.689141 11.2852 0.794967 11.3272 0.927984 11.3621C1.01447 11.3779 1.09607 11.3956 1.17194 11.4152C1.6168 11.5613 1.23412 11.6809 0.865797 11.7912C0.570554 11.9003 0.384121 12.029 0.325283 12.1645C0.225866 12.2874 0.180873 12.4132 0.191334 12.5392C0.191334 12.7013 0.287002 12.8634 0.310919 13.0268C0.334836 13.1902 0.310919 13.3749 0.310919 13.5489C0.253518 13.885 0.0861009 14.2278 0.133935 14.5653C0.167419 14.8376 0.784488 15.0648 0.770138 15.3425C0.770138 15.6587 0.406593 15.9576 0.540529 16.2725C0.591587 16.4728 0.599583 16.6738 0.564454 16.8744C0.564454 17.0604 0.497474 17.3301 0.985383 17.4789C0.993159 17.4815 0.997411 17.4848 0.997411 17.4882C0.997411 17.4916 0.993159 17.4948 0.985383 17.4975C0.0286993 17.7021 0.468781 18.1538 0.679252 18.4275C0.889722 18.7012 1.19586 18.9589 1.0715 19.2339C0.960619 19.4249 0.885577 19.6174 0.846674 19.8105C0.848297 20.0113 0.893021 20.2118 0.980609 20.4111C1.17494 20.794 1.20704 21.1819 1.07627 21.5669C1.02642 21.6704 0.91147 21.7707 0.73665 21.8632C0.655332 21.9084 0.530959 22.0226 0.358756 22.0558C0.481136 22.2367 0.65713 22.4145 0.884935 22.5873C0.941736 22.6308 0.962217 22.6773 0.944816 22.7233C0.927414 22.7694 0.872589 22.8137 0.784487 22.853C0.607376 22.9183 0.447512 22.9872 0.306146 23.0589C0.210106 23.1784 0.255396 23.3032 0.435293 23.415C0.623535 23.5724 0.725135 23.7368 0.73665 23.9026C0.73665 23.9491 0.73665 23.9956 0.73665 24.0354C0.841444 24.0933 0.95968 24.1492 1.09062 24.2028C1.42656 24.2219 1.75868 24.2458 2.08558 24.2746C2.46208 24.3033 2.82496 24.3443 3.16662 24.3968C3.61938 24.4876 4.00849 24.6006 4.31465 24.7303C4.63047 24.8444 5.05451 24.9318 5.53921 24.9827C5.83705 24.9946 6.13761 25.0003 6.43849 25H6.95509C7.25878 24.9732 7.54954 24.9361 7.82089 24.8897C8.74428 24.7275 9.80114 24.6334 10.8919 24.616C12.294 24.62 13.6937 24.6493 15.0821 24.7037C15.8427 24.7309 16.6128 24.7309 17.3734 24.7037C17.8917 24.671 18.4284 24.6673 18.9519 24.6931C19.2381 24.7132 19.5168 24.7407 19.7842 24.7755C20.1127 24.8105 20.4546 24.835 20.8031 24.8485C21.5957 24.8796 22.3945 24.8969 23.1948 24.9003C24.7207 24.9096 26.2466 24.8817 27.7725 24.8857C29.4037 24.8857 31.0252 24.8778 32.6612 24.8565C34.2028 24.8297 35.7485 24.8262 37.2915 24.8459C37.5491 24.8269 37.8113 24.8131 38.076 24.8047C38.4963 24.7952 38.9192 24.801 39.334 24.822L39.688 24.8379H39.7933C40.6611 24.831 41.5297 24.8368 42.3954 24.8552C44.0648 24.8844 45.7438 24.8871 47.3989 24.8897C50.3277 24.9028 53.2565 24.8634 56.1669 24.7715C57.671 24.7321 59.1838 24.7245 60.692 24.7489C62.2398 24.76 63.7885 24.7484 65.3319 24.7143C66.8083 24.673 68.2919 24.6548 69.7757 24.6599C71.2873 24.6745 72.6936 24.7927 74.1717 24.8578C76.7404 24.9814 79.376 24.9668 81.983 24.9787C82.1217 24.9787 82.2556 24.9668 82.3944 24.9588L82.7436 24.9336C82.8823 24.9203 83.021 24.911 83.1597 24.899C83.8186 24.8444 84.4589 24.7737 85.0731 24.6878C85.3553 24.6492 85.6328 24.6054 85.915 24.5642C86.1972 24.523 86.3933 24.4885 86.6516 24.4473C87.1778 24.3569 87.6848 24.26 88.1871 24.1616L88.8807 24.0288C89.0994 23.9871 89.3001 23.9385 89.4786 23.884C89.5162 23.8731 89.5514 23.8615 89.5838 23.8494C89.8575 23.6487 89.9969 23.4357 89.9952 23.221V22.4345C89.678 22.3436 89.4234 22.2373 89.2442 22.1209C89.1992 22.0843 89.1687 22.0465 89.1533 22.008C89.1228 21.9699 89.1228 21.9305 89.1533 21.8924C89.2792 21.8174 89.44 21.7472 89.6317 21.6838C89.7327 21.6472 89.8089 21.6058 89.8565 21.5616C89.8652 21.5254 89.8522 21.489 89.8182 21.454C89.7561 21.3663 89.6652 21.2799 89.5934 21.1883C89.5322 21.1104 89.4922 21.0313 89.4738 20.9518C89.4404 20.8428 89.4164 20.7312 89.3973 20.621C89.359 20.3951 89.3495 20.1679 89.3686 19.9407C89.3686 19.8305 89.3686 19.7202 89.4069 19.6099C89.2626 18.9401 89.2546 18.2685 89.3829 17.5984C89.3542 17.5626 89.3255 17.528 89.3016 17.4922C89.1932 17.3132 89.1229 17.1327 89.0912 16.9514C89.0481 16.7734 88.9764 16.5954 88.9524 16.42C88.9314 16.3007 88.9733 16.1812 89.0768 16.0653C89.2251 15.9164 89.4308 15.773 89.5551 15.6228C89.5551 15.5471 89.5551 15.4727 89.5551 15.3983C89.5073 15.0117 89.3447 14.6304 89.2347 14.2451C89.1246 13.8598 89.072 13.4479 89.0768 13.0587C89.0768 12.5525 89.1581 12.0463 89.249 11.5401C88.895 11.5175 88.5267 11.5029 88.168 11.4803C88.1345 11.4803 88.1297 11.4683 88.1393 11.4617C88.1919 11.4311 88.2445 11.4006 88.3067 11.3714C88.547 11.2618 88.8275 11.1594 89.1438 11.0658C89.2155 11.0432 89.2873 11.0219 89.3542 10.9994C89.3782 10.8917 89.3973 10.7841 89.4212 10.6765C89.4977 10.2846 89.5647 9.89264 89.603 9.50071C89.6086 9.10883 89.5351 8.71717 89.3829 8.32757C89.3208 8.14166 89.2969 7.95491 89.3112 7.76824C89.3112 7.57028 89.4403 7.36966 89.493 7.17835C89.5934 6.78347 89.6078 6.38727 89.536 5.99192C89.4738 5.6053 89.3829 5.22001 89.3064 4.83339C89.2681 4.64208 89.2347 4.45076 89.1964 4.25812C89.1302 4.06694 89.1094 3.87477 89.1342 3.68284C89.2987 3.38819 89.5893 3.10006 90 2.82457Z" fill="#282135" fill-opacity="0.8"/>
</g>
<defs>
<filter id="filter0_b_209_1030" x="-36" y="-36" width="162" height="97" filterUnits="userSpaceOnUse" color-interpolation-filters="sRGB">
<feFlood flood-opacity="0" result="BackgroundImageFix"/>
<feGaussianBlur in="BackgroundImageFix" stdDeviation="18"/>
<feComposite in2="SourceAlpha" operator="in" result="effect1_backgroundBlur_209_1030"/>
<feBlend mode="normal" in="SourceGraphic" in2="effect1_backgroundBlur_209_1030" result="shape"/>
</filter>
</defs>
</svg>
