<svg width="129" height="25" viewBox="0 0 129 25" fill="none" xmlns="http://www.w3.org/2000/svg">
<g filter="url(#filter0_b_209_1030)">
<path d="M128.974 2.82457V1.90652C128.952 1.89652 128.927 1.88676 128.899 1.87729C128.119 1.64306 127.268 1.41812 126.349 1.2037C125.91 1.08693 125.534 0.961844 125.225 0.830366C124.998 0.699845 124.721 0.572826 124.395 0.45039C123.593 0.200616 121.941 0.0956581 120.563 0.0106287C120.297 0.00525423 120.029 0.0025934 119.761 0.00265717H118.891C115.559 0.0969867 112.242 0.217888 108.896 0.280331C107.382 0.309316 105.858 0.316422 104.338 0.301589C102.789 0.288303 101.246 0.260403 99.7041 0.248445C98.9295 0.248445 98.1617 0.240474 97.3871 0.248445C96.6125 0.256417 95.8996 0.277674 95.1524 0.286974C93.8494 0.300962 92.5424 0.288941 91.252 0.251103C89.9153 0.216559 88.5854 0.164745 87.2487 0.130201C85.8231 0.0914971 84.3812 0.0799275 82.9439 0.0956581C79.9483 0.128873 76.987 0.228517 73.9914 0.252431C72.6952 0.263758 71.3964 0.251749 70.1116 0.216559C69.4261 0.193973 68.6721 0.184673 67.9523 0.175373C66.1289 0.152787 64.2987 0.142159 62.4684 0.119573C60.7883 0.104329 59.1159 0.0657004 57.4644 0.00398572H52.7071L50.4861 0.0744008C47.3075 0.175123 44.1043 0.2443 40.8893 0.28166C39.2638 0.300366 37.633 0.291475 36.0155 0.255088C34.4338 0.19827 32.8204 0.182188 31.2171 0.207259C29.8872 0.245788 28.6465 0.358718 27.3098 0.393261C26.1258 0.411729 24.9387 0.365713 23.8824 0.260403C23.2765 0.206944 22.6452 0.165115 21.9973 0.135516C21.21 0.109597 20.4059 0.109597 19.6186 0.135516C18.1448 0.171387 16.6642 0.233831 15.1904 0.160759C14.5912 0.126373 14.0086 0.0819186 13.4492 0.0279003L13.1339 0H9.21294H8.73312L7.68432 0.0744008C7.14816 0.107678 6.59368 0.128636 6.0323 0.136844H5.76495C4.06447 0.270625 2.60805 0.499516 1.58134 0.79434C0.554623 1.08916 0.00411563 1.43657 0 1.79226V2.02476C0.251539 2.33222 0.322824 2.64421 0.212499 2.95477C0.166184 3.03655 0.0952307 3.11773 0 3.1979V4.29399C0.116533 4.35776 0.246781 4.42685 0.370169 4.48397C0.637509 4.61683 0.726621 4.78556 1.24759 4.89716C1.45324 4.94367 1.78226 5.00345 1.75484 5.07121C1.75484 5.17218 1.06936 5.21603 0.815731 5.29175C0.530213 5.39957 0.300592 5.51261 0.130244 5.62922C0.0873895 5.6532 0.0507815 5.67759 0.0205638 5.70229V7.57028C0.061693 7.73635 0.11654 7.90242 0.157669 8.06983C0.208251 8.31903 0.162415 8.56861 0.0205638 8.81649V10.0122C0.0205638 10.0255 0.0205638 10.0401 0.0205638 10.0547C0.105146 10.2105 0.148618 10.3671 0.150808 10.5237C0.100304 10.6764 0.139408 10.8298 0.26735 10.9808C0.415002 11.0715 0.622353 11.1581 0.884284 11.2385C0.987572 11.2852 1.13923 11.3272 1.32985 11.3621C1.45378 11.3779 1.57073 11.3956 1.67945 11.4152C2.31695 11.5613 1.76855 11.6809 1.24073 11.7912C0.817632 11.9003 0.550464 12.029 0.466147 12.1645C0.323677 12.2874 0.2592 12.4132 0.274191 12.5392C0.274191 12.7013 0.411288 12.8634 0.445562 13.0268C0.479837 13.1902 0.445562 13.3749 0.445562 13.5489C0.363304 13.885 0.123387 14.2278 0.191935 14.5653C0.23992 14.8376 1.12421 15.0648 1.10364 15.3425C1.10364 15.6587 0.582667 15.9576 0.774603 16.2725C0.847773 16.4728 0.859231 16.6738 0.80889 16.8744C0.80889 17.0604 0.712905 17.3301 1.4121 17.4789C1.42324 17.4815 1.42934 17.4848 1.42934 17.4882C1.42934 17.4916 1.42324 17.4948 1.4121 17.4975C0.0411275 17.7021 0.671786 18.1538 0.9734 18.4275C1.27501 18.7012 1.71373 18.9589 1.5355 19.2339C1.37661 19.4249 1.26907 19.6174 1.21332 19.8105C1.21565 20.0113 1.27974 20.2118 1.40526 20.4111C1.68374 20.794 1.72974 21.1819 1.54235 21.5669C1.47091 21.6704 1.30618 21.7707 1.05566 21.8632C0.939123 21.9084 0.76089 22.0226 0.514115 22.0558C0.689492 22.2367 0.941699 22.4145 1.26815 22.5873C1.34955 22.6308 1.3789 22.6773 1.35397 22.7233C1.32903 22.7694 1.25046 22.8137 1.12421 22.853C0.870399 22.9183 0.641306 22.9872 0.438722 23.0589C0.301092 23.1784 0.365994 23.3032 0.623795 23.415C0.893556 23.5724 1.03915 23.7368 1.05566 23.9026C1.05566 23.9491 1.05566 23.9956 1.05566 24.0354C1.20583 24.0933 1.37527 24.1492 1.56291 24.2028C2.04434 24.2219 2.52027 24.2458 2.98873 24.2746C3.52828 24.3033 4.0483 24.3443 4.53792 24.3968C5.18675 24.4876 5.74436 24.6006 6.1831 24.7303C6.63568 24.8444 7.24335 24.9318 7.93795 24.9827C8.36477 24.9946 8.7955 25.0003 9.22667 25H9.96698C10.4022 24.9732 10.8188 24.9361 11.2077 24.8897C12.531 24.7275 14.0455 24.6334 15.6085 24.616C17.6179 24.62 19.6237 24.6493 21.6134 24.7037C22.7034 24.7309 23.8069 24.7309 24.8969 24.7037C25.6397 24.671 26.4088 24.6673 27.159 24.6931C27.5691 24.7132 27.9685 24.7407 28.3517 24.7755C28.8225 24.8105 29.3124 24.835 29.8118 24.8485C30.9476 24.8796 32.0923 24.8969 33.2393 24.9003C35.426 24.9096 37.6127 24.8817 39.7994 24.8857C42.1369 24.8857 44.4607 24.8778 46.805 24.8565C49.0143 24.8297 51.2294 24.8262 53.4406 24.8459C53.8097 24.8269 54.1854 24.8131 54.5647 24.8047C55.167 24.7952 55.7731 24.801 56.3676 24.822L56.8748 24.8379H57.0256C58.2694 24.831 59.5141 24.8368 60.7547 24.8552C63.147 24.8844 65.5531 24.8871 67.9249 24.8897C72.122 24.9028 76.3191 24.8634 80.4899 24.7715C82.6453 24.7321 84.8132 24.7245 86.9746 24.7489C89.1926 24.76 91.412 24.7484 93.6238 24.7143C95.7395 24.673 97.8656 24.6548 99.992 24.6599C102.158 24.6745 104.173 24.7927 106.292 24.8578C109.973 24.9814 113.75 24.9668 117.486 24.9787C117.684 24.9787 117.876 24.9668 118.075 24.9588L118.576 24.9336C118.774 24.9203 118.973 24.911 119.172 24.899C120.116 24.8444 121.034 24.7737 121.914 24.6878C122.318 24.6492 122.716 24.6054 123.12 24.5642C123.525 24.523 123.806 24.4885 124.176 24.4473C124.93 24.3569 125.657 24.26 126.376 24.1616L127.37 24.0288C127.684 23.9871 127.971 23.9385 128.227 23.884C128.281 23.8731 128.331 23.8615 128.378 23.8494C128.77 23.6487 128.97 23.4357 128.967 23.221V22.4345C128.513 22.3436 128.148 22.2373 127.891 22.1209C127.827 22.0843 127.783 22.0465 127.761 22.008C127.717 21.9699 127.717 21.9305 127.761 21.8924C127.941 21.8174 128.172 21.7472 128.447 21.6838C128.591 21.6472 128.7 21.6058 128.769 21.5616C128.781 21.5254 128.763 21.489 128.714 21.454C128.625 21.3663 128.495 21.2799 128.392 21.1883C128.304 21.1104 128.247 21.0313 128.22 20.9518C128.172 20.8428 128.138 20.7312 128.111 20.621C128.056 20.3951 128.042 20.1679 128.07 19.9407C128.07 19.8305 128.069 19.7202 128.124 19.6099C127.918 18.9401 127.906 18.2685 128.09 17.5984C128.049 17.5626 128.008 17.528 127.974 17.4922C127.818 17.3132 127.717 17.1327 127.672 16.9514C127.61 16.7734 127.507 16.5954 127.473 16.42C127.443 16.3007 127.503 16.1812 127.651 16.0653C127.864 15.9164 128.159 15.773 128.337 15.6228C128.337 15.5471 128.337 15.4727 128.337 15.3983C128.268 15.0117 128.035 14.6304 127.878 14.2451C127.72 13.8598 127.644 13.4479 127.651 13.0587C127.651 12.5525 127.768 12.0463 127.898 11.5401C127.391 11.5175 126.863 11.5029 126.349 11.4803C126.301 11.4803 126.294 11.4683 126.308 11.4617C126.383 11.4311 126.459 11.4006 126.548 11.3714C126.892 11.2618 127.294 11.1594 127.747 11.0658C127.85 11.0432 127.953 11.0219 128.049 10.9994C128.083 10.8917 128.111 10.7841 128.145 10.6765C128.255 10.2846 128.351 9.89264 128.405 9.50071C128.413 9.10883 128.308 8.71717 128.09 8.32757C128.001 8.14166 127.967 7.95491 127.987 7.76824C127.987 7.57028 128.172 7.36966 128.248 7.17835C128.392 6.78347 128.412 6.38727 128.309 5.99192C128.22 5.6053 128.09 5.22001 127.98 4.83339C127.926 4.64208 127.878 4.45076 127.823 4.25812C127.728 4.06694 127.698 3.87477 127.734 3.68284C127.969 3.38819 128.386 3.10006 128.974 2.82457Z" fill="#282135" fill-opacity="0.8"/>
</g>
<defs>
<filter id="filter0_b_209_1030" x="-36" y="-36" width="200.975" height="97" filterUnits="userSpaceOnUse" color-interpolation-filters="sRGB">
<feFlood flood-opacity="0" result="BackgroundImageFix"/>
<feGaussianBlur in="BackgroundImageFix" stdDeviation="18"/>
<feComposite in2="SourceAlpha" operator="in" result="effect1_backgroundBlur_209_1030"/>
<feBlend mode="normal" in="SourceGraphic" in2="effect1_backgroundBlur_209_1030" result="shape"/>
</filter>
</defs>
</svg>
