<svg width="102" height="25" viewBox="0 0 102 25" fill="none" xmlns="http://www.w3.org/2000/svg">
<g filter="url(#filter0_b_251_4949)">
<path d="M101.974 2.82457V1.90652C101.957 1.89652 101.937 1.88676 101.915 1.87729C101.298 1.64306 100.625 1.41812 99.8985 1.2037C99.5516 1.08693 99.2538 0.961844 99.0097 0.830366C98.8304 0.699845 98.6111 0.572826 98.3539 0.45039C97.7197 0.200616 96.4136 0.0956581 95.3242 0.0106287C95.1135 0.00525423 94.9019 0.0025934 94.6901 0.00265717H94.0017C91.3677 0.0969867 88.7445 0.217888 86.0996 0.280331C84.902 0.309316 83.6973 0.316422 82.4954 0.301589C81.2705 0.288303 80.0511 0.260403 78.8316 0.248445C78.2192 0.248445 77.6121 0.240474 76.9997 0.248445C76.3873 0.256417 75.8236 0.277674 75.2328 0.286974C74.2026 0.300962 73.1692 0.288941 72.1489 0.251103C71.0921 0.216559 70.0406 0.164745 68.9837 0.130201C67.8565 0.0914971 66.7165 0.0799275 65.5801 0.0956581C63.2116 0.128873 60.8702 0.228517 58.5018 0.252431C57.4769 0.263758 56.45 0.251749 55.4341 0.216559C54.8922 0.193973 54.296 0.184673 53.7269 0.175373C52.2852 0.152787 50.8381 0.142159 49.391 0.119573C48.0626 0.104329 46.7404 0.0657004 45.4345 0.00398572H41.6732L39.9171 0.0744008C37.4039 0.175123 34.8714 0.2443 32.3294 0.28166C31.0441 0.300366 29.7547 0.291475 28.4759 0.255088C27.2253 0.19827 25.9497 0.182188 24.682 0.207259C23.6305 0.245788 22.6495 0.358718 21.5926 0.393261C20.6565 0.411729 19.7179 0.365713 18.8827 0.260403C18.4037 0.206944 17.9045 0.165115 17.3923 0.135516C16.7698 0.109597 16.134 0.109597 15.5116 0.135516C14.3463 0.171387 13.1756 0.233831 12.0104 0.160759C11.5366 0.126373 11.076 0.0819186 10.6337 0.0279003L10.3844 0H7.28427H6.90489L6.07565 0.0744008C5.65173 0.107678 5.21334 0.128636 4.76947 0.136844H4.55809C3.2136 0.270625 2.06207 0.499516 1.2503 0.79434C0.438516 1.08916 0.00325405 1.43657 0 1.79226V2.02476C0.198881 2.33222 0.255243 2.64421 0.168014 2.95477C0.131394 3.03655 0.0752947 3.11773 0 3.1979V4.29399C0.0921373 4.35776 0.195119 4.42685 0.292676 4.48397C0.50405 4.61683 0.574507 4.78556 0.986415 4.89716C1.14901 4.94367 1.40916 5.00345 1.38748 5.07121C1.38748 5.17218 0.845497 5.21603 0.644962 5.29175C0.419216 5.39957 0.237665 5.51261 0.102978 5.62922C0.069095 5.6532 0.0401507 5.67759 0.0162589 5.70229V7.57028C0.0487779 7.73635 0.0921433 7.90242 0.124662 8.06983C0.164655 8.31903 0.128414 8.56861 0.0162589 8.81649V10.0122C0.0162589 10.0255 0.0162589 10.0401 0.0162589 10.0547C0.0831341 10.2105 0.117506 10.3671 0.119237 10.5237C0.0793061 10.6764 0.110224 10.8298 0.211382 10.9808C0.328124 11.0715 0.492067 11.1581 0.699164 11.2385C0.78083 11.2852 0.900736 11.3272 1.05145 11.3621C1.14944 11.3779 1.24191 11.3956 1.32787 11.4152C1.83191 11.5613 1.39832 11.6809 0.98099 11.7912C0.646465 11.9003 0.435228 12.029 0.368562 12.1645C0.255917 12.2874 0.204938 12.4132 0.21679 12.5392C0.21679 12.7013 0.325187 12.8634 0.352286 13.0268C0.379386 13.1902 0.352286 13.3749 0.352286 13.5489C0.287248 13.885 0.0975565 14.2278 0.151755 14.5653C0.189694 14.8376 0.888863 15.0648 0.872603 15.3425C0.872603 15.6587 0.460689 15.9576 0.612445 16.2725C0.670297 16.4728 0.679356 16.6738 0.639554 16.8744C0.639554 17.0604 0.563662 17.3301 1.11649 17.4789C1.1253 17.4815 1.13012 17.4848 1.13012 17.4882C1.13012 17.4916 1.1253 17.4948 1.11649 17.4975C0.0325177 17.7021 0.531152 18.1538 0.769625 18.4275C1.0081 18.7012 1.35497 18.9589 1.21406 19.2339C1.08843 19.4249 1.0034 19.6174 0.959323 19.8105C0.961161 20.0113 1.01184 20.2118 1.11108 20.4111C1.33126 20.794 1.36763 21.1819 1.21946 21.5669C1.16298 21.6704 1.03274 21.7707 0.83466 21.8632C0.742523 21.9084 0.601602 22.0226 0.406488 22.0558C0.545151 22.2367 0.74456 22.4145 1.00267 22.5873C1.06703 22.6308 1.09024 22.6773 1.07052 22.7233C1.0508 22.7694 0.988686 22.8137 0.888862 22.853C0.688186 22.9183 0.507052 22.9872 0.346878 23.0589C0.238061 23.1784 0.289376 23.3032 0.493208 23.415C0.706495 23.5724 0.821612 23.7368 0.83466 23.9026C0.83466 23.9491 0.83466 23.9956 0.83466 24.0354C0.953396 24.0933 1.08736 24.1492 1.23572 24.2028C1.61637 24.2219 1.99267 24.2458 2.36306 24.2746C2.78965 24.3033 3.20081 24.3443 3.58793 24.3968C4.10094 24.4876 4.54181 24.6006 4.88871 24.7303C5.24654 24.8444 5.727 24.9318 6.27619 24.9827C6.61366 24.9946 6.95421 25.0003 7.29512 25H7.88045C8.22455 24.9732 8.55399 24.9361 8.86144 24.8897C9.90768 24.7275 11.1052 24.6334 12.341 24.616C13.9297 24.62 15.5156 24.6493 17.0888 24.7037C17.9506 24.7309 18.8231 24.7309 19.6849 24.7037C20.2722 24.671 20.8803 24.6673 21.4734 24.6931C21.7977 24.7132 22.1135 24.7407 22.4165 24.7755C22.7887 24.8105 23.176 24.835 23.5709 24.8485C24.4689 24.8796 25.374 24.8969 26.2808 24.9003C28.0098 24.9096 29.7387 24.8817 31.4676 24.8857C33.3158 24.8857 35.1531 24.8778 37.0067 24.8565C38.7534 24.8297 40.5048 24.8262 42.2531 24.8459C42.5449 24.8269 42.842 24.8131 43.1419 24.8047C43.6181 24.7952 44.0973 24.801 44.5674 24.822L44.9684 24.8379H45.0877C46.071 24.831 47.0552 24.8368 48.0361 24.8552C49.9276 24.8844 51.8299 24.8871 53.7052 24.8897C57.0237 24.9028 60.3421 24.8634 63.6398 24.7715C65.344 24.7321 67.058 24.7245 68.767 24.7489C70.5206 24.76 72.2755 24.7484 74.0242 24.7143C75.697 24.673 77.378 24.6548 79.0592 24.6599C80.7719 24.6745 82.3653 24.7927 84.0401 24.8578C86.9505 24.9814 89.9369 24.9668 92.8907 24.9787C93.0479 24.9787 93.1996 24.9668 93.3568 24.9588L93.7524 24.9336C93.9096 24.9203 94.0668 24.911 94.224 24.899C94.9705 24.8444 95.696 24.7737 96.3919 24.6878C96.7117 24.6492 97.026 24.6054 97.3458 24.5642C97.6656 24.523 97.8878 24.4885 98.1804 24.4473C98.7766 24.3569 99.3511 24.26 99.9202 24.1616L100.706 24.0288C100.954 23.9871 101.181 23.9385 101.384 23.884C101.426 23.8731 101.466 23.8615 101.503 23.8494C101.813 23.6487 101.971 23.4357 101.969 23.221V22.4345C101.609 22.3436 101.321 22.2373 101.118 22.1209C101.067 22.0843 101.032 22.0465 101.015 22.008C100.98 21.9699 100.98 21.9305 101.015 21.8924C101.158 21.8174 101.34 21.7472 101.557 21.6838C101.671 21.6472 101.758 21.6058 101.812 21.5616C101.822 21.5254 101.807 21.489 101.768 21.454C101.698 21.3663 101.595 21.2799 101.514 21.1883C101.444 21.1104 101.399 21.0313 101.378 20.9518C101.34 20.8428 101.313 20.7312 101.291 20.621C101.248 20.3951 101.237 20.1679 101.259 19.9407C101.259 19.8305 101.259 19.7202 101.302 19.6099C101.139 18.9401 101.13 18.2685 101.275 17.5984C101.243 17.5626 101.21 17.528 101.183 17.4922C101.06 17.3132 100.981 17.1327 100.945 16.9514C100.896 16.7734 100.814 16.5954 100.787 16.42C100.764 16.3007 100.811 16.1812 100.928 16.0653C101.096 15.9164 101.329 15.773 101.47 15.6228C101.47 15.5471 101.47 15.4727 101.47 15.3983C101.416 15.0117 101.232 14.6304 101.107 14.2451C100.983 13.8598 100.923 13.4479 100.928 13.0587C100.928 12.5525 101.02 12.0463 101.123 11.5401C100.722 11.5175 100.305 11.5029 99.8985 11.4803C99.8606 11.4803 99.8552 11.4683 99.866 11.4617C99.9256 11.4311 99.9852 11.4006 100.056 11.3714C100.328 11.2618 100.646 11.1594 101.004 11.0658C101.085 11.0432 101.167 11.0219 101.243 10.9994C101.27 10.8917 101.291 10.7841 101.319 10.6765C101.405 10.2846 101.481 9.89264 101.524 9.50071C101.531 9.10883 101.448 8.71717 101.275 8.32757C101.205 8.14166 101.178 7.95491 101.194 7.76824C101.194 7.57028 101.34 7.36966 101.4 7.17835C101.514 6.78347 101.53 6.38727 101.449 5.99192C101.378 5.6053 101.275 5.22001 101.188 4.83339C101.145 4.64208 101.107 4.45076 101.064 4.25812C100.989 4.06694 100.965 3.87477 100.993 3.68284C101.18 3.38819 101.509 3.10006 101.974 2.82457Z" fill="#001E1D" fill-opacity="0.8"/>
</g>
<defs>
<filter id="filter0_b_251_4949" x="-36" y="-36" width="173.975" height="97" filterUnits="userSpaceOnUse" color-interpolation-filters="sRGB">
<feFlood flood-opacity="0" result="BackgroundImageFix"/>
<feGaussianBlur in="BackgroundImageFix" stdDeviation="18"/>
<feComposite in2="SourceAlpha" operator="in" result="effect1_backgroundBlur_251_4949"/>
<feBlend mode="normal" in="SourceGraphic" in2="effect1_backgroundBlur_251_4949" result="shape"/>
</filter>
</defs>
</svg>
