<svg width="90" height="14" viewBox="0 0 90 14" fill="none" xmlns="http://www.w3.org/2000/svg">
<g filter="url(#filter0_b_269_274)">
<path d="M90 12.4182V12.9323C89.9844 12.9379 89.9668 12.9434 89.9474 12.9487C89.4034 13.0799 88.8092 13.2059 88.168 13.3259C87.8618 13.3913 87.5989 13.4614 87.3835 13.535C87.2252 13.6081 87.0317 13.6792 86.8047 13.7478C86.245 13.8877 85.0922 13.9464 84.1308 13.994C83.9448 13.9971 83.758 13.9985 83.5711 13.9985H82.9636C80.6389 13.9457 78.3237 13.878 75.9894 13.843C74.9324 13.8268 73.8692 13.8228 72.8084 13.8311C71.7274 13.8386 70.6511 13.8542 69.5748 13.8609C69.0343 13.8609 68.4985 13.8653 67.958 13.8609C67.4175 13.8564 66.92 13.8445 66.3986 13.8393C65.4893 13.8315 64.5773 13.8382 63.6768 13.8594C62.7441 13.8787 61.8161 13.9077 60.8833 13.9271C59.8885 13.9488 58.8823 13.9552 57.8794 13.9464C55.789 13.9278 53.7226 13.872 51.6322 13.8586C50.7277 13.8523 49.8213 13.859 48.9248 13.8787C48.4465 13.8914 47.9203 13.8966 47.418 13.9018C46.1456 13.9144 44.8685 13.9204 43.5913 13.933C42.4189 13.9416 41.2519 13.9632 40.0994 13.9978H36.7797L35.2299 13.9583C33.0118 13.9019 30.7766 13.8632 28.5331 13.8423C27.3988 13.8318 26.2608 13.8368 25.1321 13.8572C24.0284 13.889 22.9025 13.898 21.7837 13.8839C20.8557 13.8624 19.9899 13.7991 19.0571 13.7798C18.2309 13.7694 17.4025 13.7952 16.6654 13.8542C16.2427 13.8841 15.8021 13.9075 15.35 13.9241C14.8006 13.9386 14.2395 13.9386 13.6901 13.9241C12.6617 13.904 11.6285 13.8691 10.6001 13.91C10.1819 13.9292 9.77537 13.9541 9.38506 13.9844L9.16503 14H6.42891H6.09408L5.36222 13.9583C4.98808 13.9397 4.60116 13.928 4.20942 13.9234H4.02286C2.83624 13.8484 1.81994 13.7203 1.10348 13.5552C0.387023 13.3901 0.00287194 13.1955 0 12.9963V12.8661C0.175527 12.694 0.225271 12.5192 0.148285 12.3453C0.115965 12.2995 0.0664532 12.2541 0 12.2092V11.5954C0.0813181 11.5597 0.172207 11.521 0.258309 11.489C0.444862 11.4146 0.507046 11.3201 0.870586 11.2576C1.01409 11.2315 1.24369 11.1981 1.22455 11.1601C1.22455 11.1036 0.746214 11.079 0.569228 11.0366C0.369989 10.9762 0.209757 10.9129 0.0908861 10.8476C0.0609815 10.8342 0.035436 10.8205 0.0143497 10.8067V9.76064C0.0430502 9.66764 0.0813234 9.57464 0.110024 9.4809C0.14532 9.34134 0.113335 9.20158 0.0143497 9.06277V8.39316C0.0143497 8.38572 0.0143497 8.37753 0.0143497 8.36935C0.0733721 8.2821 0.103708 8.19444 0.105236 8.10672C0.0699935 8.0212 0.0972806 7.93534 0.18656 7.85078C0.289594 7.79999 0.434286 7.75148 0.617065 7.70644C0.689141 7.68031 0.794967 7.65675 0.927984 7.63725C1.01447 7.6284 1.09607 7.61844 1.17194 7.60749C1.6168 7.52565 1.23412 7.45868 0.865797 7.39693C0.570554 7.33585 0.384121 7.26374 0.325283 7.18787C0.225866 7.11904 0.180873 7.04858 0.191334 6.97806C0.191334 6.88729 0.287002 6.79652 0.310919 6.70501C0.334836 6.61349 0.310919 6.51008 0.310919 6.41261C0.253518 6.22438 0.0861009 6.03242 0.133935 5.84344C0.167419 5.69092 0.784488 5.5637 0.770138 5.4082C0.770138 5.23113 0.406593 5.06372 0.540529 4.88739C0.591587 4.77522 0.599583 4.66268 0.564454 4.55036C0.564454 4.4462 0.497474 4.29516 0.985383 4.21184C0.993159 4.21037 0.997411 4.20853 0.997411 4.20663C0.997411 4.20473 0.993159 4.20289 0.985383 4.20142C0.0286993 4.08684 0.468781 3.83388 0.679252 3.68061C0.889722 3.52735 1.19586 3.38301 1.0715 3.229C0.960619 3.12205 0.885577 3.01427 0.846674 2.9061C0.848297 2.79369 0.893021 2.68139 0.980609 2.56981C1.17494 2.35537 1.20704 2.13813 1.07627 1.92252C1.02642 1.86455 0.91147 1.80839 0.73665 1.75661C0.655332 1.73131 0.530959 1.66733 0.358756 1.64873C0.481136 1.54744 0.65713 1.4479 0.884935 1.35113C0.941736 1.32676 0.962217 1.3007 0.944816 1.27493C0.927414 1.24915 0.872589 1.22433 0.784487 1.20232C0.607376 1.16573 0.447512 1.12719 0.306146 1.087C0.210106 1.02011 0.255396 0.950181 0.435293 0.88761C0.623535 0.799472 0.725135 0.707417 0.73665 0.614559C0.73665 0.588518 0.73665 0.562477 0.73665 0.540157C0.841444 0.507748 0.95968 0.476434 1.09062 0.446413C1.42656 0.43574 1.75868 0.422331 2.08558 0.406237C2.46208 0.390157 2.82496 0.367179 3.16662 0.337787C3.61938 0.286962 4.00849 0.22367 4.31465 0.151042C4.63047 0.087141 5.05451 0.0381899 5.53921 0.00968075C5.83705 0.0030508 6.13761 -0.000182152 6.43849 8.58307e-06H6.95509C7.25878 0.0150318 7.54954 0.0357704 7.82089 0.0617609C8.74428 0.152575 9.80114 0.205321 10.8919 0.215027C12.294 0.212815 13.6937 0.196412 15.0821 0.165922C15.8427 0.150669 16.6128 0.150669 17.3734 0.165922C17.8917 0.184264 18.4284 0.186288 18.9519 0.171874C19.2381 0.160633 19.5168 0.145188 19.7842 0.125746C20.1127 0.106122 20.4546 0.0923929 20.8031 0.0848255C21.5957 0.0674028 22.3945 0.0577116 23.1948 0.055809C24.7207 0.050601 26.2466 0.0662251 27.7725 0.0639935C29.4037 0.0639935 31.0252 0.0684566 32.6612 0.0803614C34.2028 0.0953665 35.7485 0.0973539 37.2915 0.0863132C37.5491 0.0969334 37.8113 0.104643 38.076 0.109378C38.4963 0.114707 38.9192 0.111454 39.334 0.0997047L39.688 0.0907774H39.7933C40.6611 0.0946188 41.5297 0.0913906 42.3954 0.0811052C44.0648 0.0647373 45.7438 0.0632496 47.3989 0.0617609C50.3277 0.0544052 53.2565 0.0765238 56.1669 0.127978C57.671 0.150046 59.1838 0.154274 60.692 0.140626C62.2398 0.134421 63.7885 0.140878 65.3319 0.15997C66.8083 0.183141 68.2919 0.193324 69.7757 0.190474C71.2873 0.18229 72.6936 0.116075 74.1717 0.0796185C76.7404 0.0104256 79.376 0.018609 81.983 0.0119123C82.1217 0.0119123 82.2556 0.0186081 82.3944 0.0230722L82.7436 0.0372086C82.8823 0.0446482 83.021 0.0498562 83.1597 0.0565519C83.8186 0.087163 84.4589 0.126749 85.0731 0.17485C85.3553 0.196427 85.6328 0.220978 85.915 0.244042C86.1972 0.267107 86.3933 0.286452 86.6516 0.309516C87.1778 0.360108 87.6848 0.414421 88.1871 0.469478L88.8807 0.543879C89.0994 0.567232 89.3001 0.594445 89.4786 0.624975C89.5162 0.631079 89.5514 0.63754 89.5838 0.64432C89.8575 0.756755 89.9969 0.876014 89.9952 0.996235V1.43669C89.678 1.48758 89.4234 1.54709 89.2442 1.61227C89.1992 1.63278 89.1687 1.65398 89.1533 1.67551C89.1228 1.69683 89.1228 1.71893 89.1533 1.74024C89.2792 1.78227 89.44 1.82154 89.6317 1.85705C89.7327 1.87756 89.8089 1.90075 89.8565 1.9255C89.8652 1.94578 89.8522 1.96614 89.8182 1.98576C89.7561 2.03487 89.6652 2.08323 89.5934 2.13457C89.5322 2.17818 89.4922 2.22245 89.4738 2.267C89.4404 2.32801 89.4164 2.39051 89.3973 2.45226C89.359 2.57874 89.3495 2.70596 89.3686 2.83319C89.3686 2.89494 89.3686 2.9567 89.4069 3.01845C89.2626 3.39355 89.2546 3.76963 89.3829 4.14488C89.3542 4.16496 89.3255 4.18431 89.3016 4.2044C89.1932 4.3046 89.1229 4.40571 89.0912 4.50721C89.0481 4.6069 88.9764 4.7066 88.9524 4.80481C88.9314 4.87162 88.9733 4.93854 89.0768 5.00346C89.2251 5.08679 89.4308 5.16714 89.5551 5.25121C89.5551 5.29362 89.5551 5.33529 89.5551 5.37695C89.5073 5.59346 89.3447 5.80699 89.2347 6.02275C89.1246 6.23851 89.072 6.46915 89.0768 6.68715C89.0768 6.97062 89.1581 7.25408 89.249 7.53755C88.895 7.5502 88.5267 7.55838 88.168 7.57103C88.1345 7.57103 88.1297 7.57773 88.1393 7.58145C88.1919 7.59856 88.2445 7.61567 88.3067 7.63204C88.547 7.69342 88.8275 7.75076 89.1438 7.80316C89.2155 7.81581 89.2873 7.82771 89.3542 7.84036C89.3782 7.90063 89.3973 7.96089 89.4212 8.02115C89.4977 8.24064 89.5647 8.46012 89.603 8.6796C89.6086 8.89906 89.5351 9.11838 89.3829 9.33656C89.3208 9.44067 89.2969 9.54525 89.3112 9.64979C89.3112 9.76064 89.4403 9.87299 89.493 9.98013C89.5934 10.2013 89.6078 10.4231 89.536 10.6445C89.4738 10.861 89.3829 11.0768 89.3064 11.2933C89.2681 11.4004 89.2347 11.5076 89.1964 11.6155C89.1302 11.7225 89.1094 11.8301 89.1342 11.9376C89.2987 12.1026 89.5893 12.264 90 12.4182Z" fill="#3A3028"/>
</g>
<defs>
<filter id="filter0_b_269_274" x="-36" y="-36" width="162" height="86" filterUnits="userSpaceOnUse" color-interpolation-filters="sRGB">
<feFlood flood-opacity="0" result="BackgroundImageFix"/>
<feGaussianBlur in="BackgroundImageFix" stdDeviation="18"/>
<feComposite in2="SourceAlpha" operator="in" result="effect1_backgroundBlur_269_274"/>
<feBlend mode="normal" in="SourceGraphic" in2="effect1_backgroundBlur_269_274" result="shape"/>
</filter>
</defs>
</svg>
