<svg width="24" height="24" viewBox="0 0 24 24" fill="none" xmlns="http://www.w3.org/2000/svg">
<path d="M10.8945 23.9992L10.7383 23.9368C7.20896 22.7185 2.55522 19.2513 1.14972 13.5038C-0.474404 6.81928 0.0877938 3.19588 0.119027 3.0397L0.15026 2.75857L0.400126 2.6961C0.400126 2.6961 1.71192 2.32126 5.24127 1.41541C8.98925 0.447087 10.7695 0.0722519 10.8008 0.0722519L10.8945 0.0410156L10.9882 0.0722519C11.0194 0.0722519 12.7997 0.447087 16.5477 1.41541C20.1083 2.32126 21.3888 2.6961 21.3888 2.6961L21.6387 2.75857L21.6699 3.0397C21.7012 3.19588 22.2634 6.81928 20.6392 13.5038C19.2337 19.2513 14.58 22.7185 11.0194 23.968L10.8945 23.9992Z" fill="url(#paint0_linear_488_12556)"/>
<path opacity="0.6" d="M10.8942 22.3605L10.7595 22.3067C7.71426 21.2577 3.69886 18.2718 2.48616 13.3223C1.08481 7.56574 1.56989 4.44538 1.59684 4.31088L1.62379 4.06878L1.83938 4.01498C1.83938 4.01498 2.97124 3.69219 6.01648 2.9121C9.25035 2.07821 10.7864 1.75542 10.8134 1.75542L10.8942 1.72852L10.9751 1.75542C11.002 1.75542 12.5381 2.07821 15.772 2.9121C18.8442 3.69219 19.9491 4.01498 19.9491 4.01498L20.1647 4.06878L20.1916 4.31088C20.2186 4.44538 20.7037 7.56574 19.3023 13.3223C18.0896 18.2718 14.0742 21.2577 11.002 22.3336L10.8942 22.3605ZM2.29751 4.66058C2.21667 5.46757 2.05497 8.42653 3.21378 13.134C4.31869 17.7338 8.0107 20.5314 10.8942 21.5535C13.7778 20.5314 17.4698 17.7338 18.5747 13.134C19.7335 8.39963 19.5718 5.46757 19.491 4.66058C19.0328 4.52608 17.8201 4.20328 15.5834 3.61149C12.7537 2.8852 11.2446 2.5624 10.8942 2.50861C10.5709 2.5624 9.03476 2.8852 6.23207 3.61149C3.96835 4.20328 2.7826 4.52608 2.29751 4.66058Z" fill="url(#paint1_linear_488_12556)"/>
<circle cx="19.9107" cy="3.13337" r="3.13337" fill="#4ED5D2"/>
<g clip-path="url(#clip0_488_12556)">
<path d="M20.7403 2.62601H20.6065V2.35842C20.6065 1.98915 20.3068 1.68945 19.9375 1.68945C19.5683 1.68945 19.2686 1.98915 19.2686 2.35842V2.62601H19.1348C18.9869 2.62601 18.8672 2.74576 18.8672 2.8936V4.23154C18.8672 4.37938 18.9869 4.49913 19.1348 4.49913H20.7403C20.8881 4.49913 21.0079 4.37938 21.0079 4.23154V2.8936C21.0079 2.74576 20.8881 2.62601 20.7403 2.62601ZM19.9375 3.83016C19.7897 3.83016 19.67 3.71041 19.67 3.56257C19.67 3.41473 19.7897 3.29498 19.9375 3.29498C20.0854 3.29498 20.2051 3.41473 20.2051 3.56257C20.2051 3.71041 20.0854 3.83016 19.9375 3.83016ZM20.3523 2.62601H19.5228V2.35842C19.5228 2.12964 19.7088 1.94366 19.9375 1.94366C20.1663 1.94366 20.3523 2.12964 20.3523 2.35842V2.62601Z" fill="white"/>
</g>
<path d="M14.6126 9.07782L15.3867 9.01977L15.2676 7.56849L14.5134 7.62654C14.3943 7.22019 14.2157 6.83318 13.9775 6.50422L14.4936 5.96241L13.402 4.9562L12.8859 5.47866C12.489 5.24645 12.0722 5.05295 11.5958 4.97555V4.24023H10.1073V4.97555C9.51185 5.09165 8.97597 5.3432 8.51948 5.69151L7.9439 5.20775L6.97137 6.31072L7.54695 6.79448C7.30878 7.20084 7.15 7.6846 7.09046 8.16835L6.31641 8.2264L6.43549 9.67768L7.20954 9.61963C7.32863 10.026 7.50725 10.3936 7.74542 10.7226L7.20954 11.2838L8.30115 12.29L8.85688 11.7288C9.23398 11.961 9.67063 12.1352 10.1271 12.2126V12.9866H11.6157V12.2126C12.1913 12.0965 12.7271 11.8643 13.1638 11.516L13.7592 12.0191L14.7317 10.9161L14.1363 10.413C14.3745 10.026 14.5531 9.56158 14.6126 9.07782ZM10.8416 10.9355C9.5317 10.9355 8.45993 9.89053 8.45993 8.61341C8.45993 7.33629 9.5317 6.29137 10.8416 6.29137C12.1516 6.29137 13.2233 7.33629 13.2233 8.61341C13.2233 9.90988 12.1714 10.9355 10.8416 10.9355Z" fill="white"/>
<circle cx="10.8514" cy="8.61704" r="2.42954" fill="url(#paint2_linear_488_12556)"/>
<path d="M9.35288 8.67103L10.34 9.40784C10.3416 9.40784 10.3416 9.40941 10.3431 9.40941L10.7092 9.68161C10.7405 9.70507 10.7843 9.68317 10.7843 9.64406L10.7858 7.61509C10.7827 7.57911 10.778 7.54156 10.7702 7.50558C10.7624 7.47117 10.7514 7.43831 10.7358 7.41016C10.7624 7.60883 10.6497 7.84036 10.4589 7.9921C10.4166 8.02651 10.3588 8.06406 10.2946 8.09065C10.2258 8.12038 10.0177 8.19234 10.0177 8.19234L9.39043 8.41917C9.28249 8.45828 9.26058 8.6022 9.35288 8.67103Z" fill="#F2EEFF"/>
<path d="M10.334 8.07603C10.3355 8.07446 10.3387 8.07446 10.3402 8.0729C10.3434 8.07133 10.3465 8.06977 10.3512 8.06664C10.3559 8.06508 10.359 8.06195 10.3637 8.06038C10.3653 8.05882 10.3684 8.05725 10.3699 8.05725C10.3746 8.05412 10.3809 8.051 10.3856 8.04787C10.3872 8.0463 10.3887 8.0463 10.3903 8.04474C10.395 8.04161 10.3997 8.03848 10.4059 8.03535C10.4091 8.03379 10.4106 8.03222 10.4138 8.03066C10.4169 8.02753 10.4216 8.02597 10.4247 8.02284C10.4294 8.01971 10.4341 8.01502 10.4403 8.01189C10.4419 8.01189 10.4419 8.01032 10.4435 8.01032C10.4497 8.00563 10.456 8.00094 10.4622 7.99624C10.6531 7.8445 10.7657 7.61298 10.7391 7.4143C10.7282 7.39553 10.7141 7.37832 10.6985 7.36581L10.3731 7.12489C10.3418 7.10143 10.2964 7.12333 10.2964 7.16244V7.7303C10.2964 8.08698 10.0195 8.19492 10.0195 8.19492C10.0195 8.19492 10.2292 8.12452 10.2964 8.0948C10.3089 8.08854 10.3215 8.08228 10.334 8.07603Z" fill="#DBD9FF"/>
<path d="M12.3689 8.59641L11.3818 7.8596C11.3802 7.8596 11.3802 7.85803 11.3786 7.85803L11.0126 7.58583C10.9813 7.56237 10.9375 7.58427 10.9375 7.62338V9.65235C10.9406 9.68833 10.9453 9.72588 10.9531 9.76186C10.961 9.79627 10.9719 9.82913 10.9876 9.85728C10.961 9.65861 11.0736 9.42708 11.2645 9.27534C11.3067 9.24093 11.3646 9.20338 11.4287 9.17679C11.496 9.14706 11.7056 9.07667 11.7056 9.07667L12.3329 8.84984C12.4409 8.80916 12.4612 8.66524 12.3689 8.59641Z" fill="#F2EEFF"/>
<path d="M11.3915 9.19702C11.3899 9.19858 11.3868 9.19858 11.3852 9.20015C11.3821 9.20171 11.3789 9.20327 11.3742 9.2064C11.3696 9.20797 11.3664 9.2111 11.3617 9.21266C11.3602 9.21422 11.357 9.21579 11.3555 9.21579C11.3508 9.21892 11.3445 9.22205 11.3398 9.22517C11.3383 9.22674 11.3367 9.22674 11.3351 9.2283C11.3304 9.23143 11.3258 9.23456 11.3195 9.23769C11.3164 9.23925 11.3148 9.24082 11.3117 9.24238C11.3085 9.24551 11.3039 9.24708 11.3007 9.2502C11.296 9.25333 11.2913 9.25803 11.2851 9.26116C11.2835 9.26116 11.2835 9.26272 11.282 9.26272C11.2757 9.26741 11.2694 9.27211 11.2632 9.2768C11.0723 9.42854 10.9597 9.66007 10.9863 9.85874C10.9972 9.87751 11.0113 9.89472 11.027 9.90724L11.3508 10.1481C11.3821 10.1716 11.4274 10.1497 11.4274 10.1106V9.54274C11.4274 9.18763 11.7043 9.07812 11.7043 9.07812C11.7043 9.07812 11.4947 9.14852 11.4274 9.17824C11.4165 9.1845 11.404 9.19076 11.3915 9.19702Z" fill="#DBD9FF"/>
<path d="M7.00163 15.9649H7.53495V16.1114H6.80273V14.7321H7.00163V15.9649Z" fill="#F7F7FF"/>
<path d="M7.80956 14.8508C7.77168 14.8508 7.73962 14.839 7.71339 14.8152C7.68716 14.7915 7.67405 14.7625 7.67405 14.7282C7.67405 14.6939 7.68716 14.6648 7.71339 14.6411C7.73962 14.6173 7.77168 14.6055 7.80956 14.6055C7.84599 14.6055 7.87659 14.6173 7.90136 14.6411C7.92759 14.6648 7.94071 14.6939 7.94071 14.7282C7.94071 14.7625 7.92759 14.7915 7.90136 14.8152C7.87659 14.839 7.84599 14.8508 7.80956 14.8508ZM7.90574 15.027V16.1114H7.70684V15.027H7.90574Z" fill="#F7F7FF"/>
<path d="M8.13107 15.5652C8.13107 15.4544 8.15584 15.3574 8.20538 15.2743C8.25493 15.1899 8.32268 15.1246 8.40865 15.0784C8.49608 15.0322 8.59371 15.0092 8.70154 15.0092C8.805 15.0092 8.89534 15.0303 8.97257 15.0725C9.05125 15.1134 9.10881 15.1642 9.14524 15.2248V15.027H9.34633V16.6259H9.14524V15.9115C9.10736 15.9722 9.04907 16.0236 8.97038 16.0658C8.8917 16.1081 8.7999 16.1292 8.69498 16.1292C8.59007 16.1292 8.49463 16.1054 8.40865 16.0579C8.32268 16.0104 8.25493 15.9438 8.20538 15.8581C8.15584 15.7723 8.13107 15.6747 8.13107 15.5652ZM9.14524 15.5672C9.14524 15.4854 9.12703 15.4142 9.0906 15.3535C9.05417 15.2928 9.00463 15.2466 8.94197 15.215C8.88077 15.182 8.81301 15.1655 8.7387 15.1655C8.66438 15.1655 8.59663 15.1813 8.53543 15.213C8.47423 15.2446 8.42541 15.2908 8.38898 15.3515C8.35255 15.4122 8.33434 15.4834 8.33434 15.5652C8.33434 15.6483 8.35255 15.7209 8.38898 15.7829C8.42541 15.8436 8.47423 15.8904 8.53543 15.9234C8.59663 15.955 8.66438 15.9709 8.7387 15.9709C8.81301 15.9709 8.88077 15.955 8.94197 15.9234C9.00463 15.8904 9.05417 15.8436 9.0906 15.7829C9.12703 15.7209 9.14524 15.649 9.14524 15.5672Z" fill="#F7F7FF"/>
<path d="M10.7054 15.027V16.1114H10.5065V15.9511C10.4686 16.0065 10.4154 16.05 10.3469 16.0817C10.2799 16.112 10.2056 16.1272 10.124 16.1272C10.0307 16.1272 9.94692 16.11 9.87261 16.0757C9.79829 16.0401 9.73928 15.9874 9.69556 15.9174C9.65331 15.8475 9.63218 15.7624 9.63218 15.6622V15.027H9.82889V15.6384C9.82889 15.7453 9.85876 15.8277 9.91851 15.8858C9.97825 15.9425 10.0598 15.9709 10.1633 15.9709C10.2697 15.9709 10.3535 15.9412 10.4147 15.8818C10.4759 15.8225 10.5065 15.736 10.5065 15.6226V15.027H10.7054Z" fill="#F7F7FF"/>
<path d="M11.1046 14.8508C11.0667 14.8508 11.0346 14.839 11.0084 14.8152C10.9822 14.7915 10.9691 14.7625 10.9691 14.7282C10.9691 14.6939 10.9822 14.6648 11.0084 14.6411C11.0346 14.6173 11.0667 14.6055 11.1046 14.6055C11.141 14.6055 11.1716 14.6173 11.1964 14.6411C11.2226 14.6648 11.2357 14.6939 11.2357 14.7282C11.2357 14.7625 11.2226 14.7915 11.1964 14.8152C11.1716 14.839 11.141 14.8508 11.1046 14.8508ZM11.2008 15.027V16.1114H11.0019V15.027H11.2008Z" fill="#F7F7FF"/>
<path d="M11.4261 15.5652C11.4261 15.4544 11.4509 15.3574 11.5004 15.2743C11.5499 15.1899 11.6177 15.1246 11.7037 15.0784C11.7911 15.0322 11.8887 15.0092 11.9966 15.0092C12.0898 15.0092 12.1765 15.0289 12.2567 15.0685C12.3368 15.1068 12.398 15.1576 12.4403 15.2209V14.647H12.6413V16.1114H12.4403V15.9075C12.4009 15.9722 12.3426 16.0256 12.2654 16.0678C12.1882 16.1087 12.0978 16.1292 11.9944 16.1292C11.888 16.1292 11.7911 16.1054 11.7037 16.0579C11.6177 16.0104 11.5499 15.9438 11.5004 15.8581C11.4509 15.7723 11.4261 15.6747 11.4261 15.5652ZM12.4403 15.5672C12.4403 15.4854 12.422 15.4142 12.3856 15.3535C12.3492 15.2928 12.2996 15.2466 12.237 15.215C12.1758 15.182 12.108 15.1655 12.0337 15.1655C11.9594 15.1655 11.8916 15.1813 11.8304 15.213C11.7692 15.2446 11.7204 15.2908 11.684 15.3515C11.6476 15.4122 11.6294 15.4834 11.6294 15.5652C11.6294 15.6483 11.6476 15.7209 11.684 15.7829C11.7204 15.8436 11.7692 15.8904 11.8304 15.9234C11.8916 15.955 11.9594 15.9709 12.0337 15.9709C12.108 15.9709 12.1758 15.955 12.237 15.9234C12.2996 15.8904 12.3492 15.8436 12.3856 15.7829C12.422 15.7209 12.4403 15.649 12.4403 15.5672Z" fill="#F7F7FF"/>
<path d="M13.0409 14.8508C13.003 14.8508 12.9709 14.839 12.9447 14.8152C12.9185 14.7915 12.9053 14.7625 12.9053 14.7282C12.9053 14.6939 12.9185 14.6648 12.9447 14.6411C12.9709 14.6173 13.003 14.6055 13.0409 14.6055C13.0773 14.6055 13.1079 14.6173 13.1327 14.6411C13.1589 14.6648 13.172 14.6939 13.172 14.7282C13.172 14.7625 13.1589 14.7915 13.1327 14.8152C13.1079 14.839 13.0773 14.8508 13.0409 14.8508ZM13.137 15.027V16.1114H12.9381V15.027H13.137Z" fill="#F7F7FF"/>
<path d="M13.6793 15.1754V15.8145C13.6793 15.8673 13.6917 15.9049 13.7164 15.9273C13.7412 15.9484 13.7842 15.959 13.8454 15.959H13.9918V16.1114H13.8126C13.7019 16.1114 13.6188 16.0883 13.5634 16.0421C13.5081 15.9959 13.4804 15.9201 13.4804 15.8145V15.1754H13.3252V15.027H13.4804V14.7539H13.6793V15.027H13.9918V15.1754H13.6793Z" fill="#F7F7FF"/>
<path d="M15.2252 15.027L14.5039 16.6219H14.2984L14.5345 16.0995L14.0514 15.027H14.2722L14.6481 15.9056L15.0197 15.027H15.2252Z" fill="#F7F7FF"/>
<path d="M7.80068 17.3345V18.7989H7.60178V17.3345H7.80068Z" fill="#F7F7FF"/>
<path d="M8.62272 18.8167C8.51052 18.8167 8.40852 18.7936 8.31672 18.7474C8.22638 18.7012 8.15498 18.6359 8.10252 18.5515C8.05152 18.4658 8.02602 18.3668 8.02602 18.2547C8.02602 18.1439 8.05225 18.0463 8.1047 17.9618C8.15862 17.8761 8.23148 17.8108 8.32328 17.7659C8.41508 17.7197 8.5178 17.6967 8.63146 17.6967C8.74512 17.6967 8.84785 17.7197 8.93965 17.7659C9.03145 17.8108 9.10358 17.8754 9.15603 17.9598C9.20995 18.0443 9.2369 18.1426 9.2369 18.2547C9.2369 18.3668 9.20922 18.4658 9.15385 18.5515C9.09993 18.6359 9.02635 18.7012 8.93309 18.7474C8.83983 18.7936 8.73638 18.8167 8.62272 18.8167ZM8.62272 18.6584C8.69412 18.6584 8.76115 18.6432 8.8238 18.6129C8.88646 18.5825 8.93673 18.537 8.97462 18.4763C9.01396 18.4156 9.03363 18.3418 9.03363 18.2547C9.03363 18.1676 9.01469 18.0937 8.9768 18.0331C8.93892 17.9724 8.88938 17.9275 8.82818 17.8985C8.76698 17.8682 8.70068 17.853 8.62928 17.853C8.55642 17.853 8.48939 17.8682 8.42819 17.8985C8.36845 17.9275 8.32036 17.9724 8.28393 18.0331C8.2475 18.0937 8.22929 18.1676 8.22929 18.2547C8.22929 18.3431 8.24678 18.4176 8.28175 18.4783C8.31818 18.539 8.36626 18.5845 8.426 18.6148C8.48575 18.6439 8.55132 18.6584 8.62272 18.6584Z" fill="#F7F7FF"/>
<path d="M9.38476 18.2547C9.38476 18.1426 9.40954 18.0449 9.45908 17.9618C9.50862 17.8774 9.57711 17.8121 9.66454 17.7659C9.75342 17.7197 9.85469 17.6967 9.96835 17.6967C10.1155 17.6967 10.2365 17.729 10.3312 17.7936C10.4274 17.8583 10.4907 17.948 10.5213 18.0627H10.3071C10.2867 17.9968 10.2467 17.9447 10.1869 17.9064C10.1286 17.8682 10.0558 17.849 9.96835 17.849C9.85469 17.849 9.76289 17.8846 9.69295 17.9559C9.62301 18.0258 9.58804 18.1254 9.58804 18.2547C9.58804 18.3853 9.62301 18.4862 9.69295 18.5574C9.76289 18.6287 9.85469 18.6643 9.96835 18.6643C10.0558 18.6643 10.1286 18.6458 10.1869 18.6089C10.2452 18.572 10.2853 18.5192 10.3071 18.4506H10.5213C10.4893 18.5614 10.4252 18.6505 10.329 18.7177C10.2328 18.7837 10.1126 18.8167 9.96835 18.8167C9.85469 18.8167 9.75342 18.7936 9.66454 18.7474C9.57711 18.7012 9.50862 18.6359 9.45908 18.5515C9.40954 18.4671 9.38476 18.3681 9.38476 18.2547Z" fill="#F7F7FF"/>
<path d="M11.4162 18.7989L10.9463 18.32V18.7989H10.7474V17.3345H10.9463V18.1953L11.4075 17.7145H11.6851L11.1211 18.2547L11.6872 18.7989H11.4162Z" fill="#F7F7FF"/>
<path d="M12.9258 18.2151C12.9258 18.2494 12.9236 18.2857 12.9192 18.3239H11.9619C11.9692 18.4308 12.0092 18.5146 12.0821 18.5753C12.1564 18.6346 12.246 18.6643 12.3509 18.6643C12.4369 18.6643 12.5083 18.6465 12.5651 18.6109C12.6234 18.5739 12.6642 18.5251 12.6875 18.4644H12.9017C12.8697 18.5687 12.8056 18.6538 12.7094 18.7197C12.6132 18.7844 12.4937 18.8167 12.3509 18.8167C12.2373 18.8167 12.1353 18.7936 12.0449 18.7474C11.956 18.7012 11.8861 18.6359 11.8351 18.5515C11.7841 18.4658 11.7586 18.3668 11.7586 18.2547C11.7586 18.1426 11.7834 18.0443 11.8329 17.9598C11.8825 17.8754 11.9517 17.8108 12.0406 17.7659C12.1309 17.7197 12.2344 17.6967 12.3509 17.6967C12.4646 17.6967 12.5651 17.7191 12.6526 17.7639C12.74 17.8088 12.807 17.8708 12.8536 17.9499C12.9017 18.0278 12.9258 18.1162 12.9258 18.2151ZM12.7203 18.1775C12.7203 18.1089 12.7036 18.0502 12.67 18.0014C12.6365 17.9513 12.5906 17.9137 12.5323 17.8886C12.4755 17.8622 12.4121 17.849 12.3422 17.849C12.2416 17.849 12.1557 17.878 12.0843 17.9361C12.0143 17.9941 11.9743 18.0746 11.9641 18.1775H12.7203Z" fill="#F7F7FF"/>
<path d="M13.0747 18.2527C13.0747 18.1419 13.0994 18.0449 13.149 17.9618C13.1985 17.8774 13.2663 17.8121 13.3522 17.7659C13.4397 17.7197 13.5373 17.6967 13.6451 17.6967C13.7384 17.6967 13.8251 17.7164 13.9052 17.756C13.9854 17.7943 14.0466 17.8451 14.0888 17.9084V17.3345H14.2899V18.7989H14.0888V18.595C14.0495 18.6597 13.9912 18.7131 13.914 18.7553C13.8367 18.7962 13.7464 18.8167 13.6429 18.8167C13.5366 18.8167 13.4397 18.7929 13.3522 18.7454C13.2663 18.6979 13.1985 18.6313 13.149 18.5456C13.0994 18.4598 13.0747 18.3622 13.0747 18.2527ZM14.0888 18.2547C14.0888 18.1729 14.0706 18.1017 14.0342 18.041C13.9978 17.9803 13.9482 17.9341 13.8856 17.9025C13.8244 17.8695 13.7566 17.853 13.6823 17.853C13.608 17.853 13.5402 17.8688 13.479 17.9005C13.4178 17.9321 13.369 17.9783 13.3326 18.039C13.2961 18.0997 13.2779 18.1709 13.2779 18.2527C13.2779 18.3358 13.2961 18.4084 13.3326 18.4704C13.369 18.5311 13.4178 18.5779 13.479 18.6109C13.5402 18.6425 13.608 18.6584 13.6823 18.6584C13.7566 18.6584 13.8244 18.6425 13.8856 18.6109C13.9482 18.5779 13.9978 18.5311 14.0342 18.4704C14.0706 18.4084 14.0888 18.3365 14.0888 18.2547Z" fill="#F7F7FF"/>
<defs>
<linearGradient id="paint0_linear_488_12556" x1="7.47504" y1="21.3726" x2="23.1608" y2="-1.97523" gradientUnits="userSpaceOnUse">
<stop stop-color="#554FD8"/>
<stop offset="1" stop-color="#7770E0"/>
</linearGradient>
<linearGradient id="paint1_linear_488_12556" x1="10.8942" y1="-4.02109" x2="10.8942" y2="26.1052" gradientUnits="userSpaceOnUse">
<stop stop-color="white" stop-opacity="0"/>
<stop offset="0.633743" stop-color="white"/>
<stop offset="1" stop-color="white" stop-opacity="0"/>
</linearGradient>
<linearGradient id="paint2_linear_488_12556" x1="10.8514" y1="6.1875" x2="10.8514" y2="11.0466" gradientUnits="userSpaceOnUse">
<stop stop-color="#7770E0"/>
<stop offset="1" stop-color="#554FD8"/>
</linearGradient>
<clipPath id="clip0_488_12556">
<rect width="3.21105" height="3.21105" fill="white" transform="translate(18.332 1.55469)"/>
</clipPath>
</defs>
</svg>
