<svg width="28" height="28" viewBox="0 0 28 28" fill="none" xmlns="http://www.w3.org/2000/svg">
<path d="M3.5 24.5H3C3 24.7761 3.22386 25 3.5 25V24.5ZM24.5 24.5V25C24.7761 25 25 24.7761 25 24.5H24.5ZM7 7.66667C6.72386 7.66667 6.5 7.89052 6.5 8.16667C6.5 8.44281 6.72386 8.66667 7 8.66667V7.66667ZM8.16667 8.66667C8.44281 8.66667 8.66667 8.44281 8.66667 8.16667C8.66667 7.89052 8.44281 7.66667 8.16667 7.66667V8.66667ZM12.8333 7.66667C12.5572 7.66667 12.3333 7.89052 12.3333 8.16667C12.3333 8.44281 12.5572 8.66667 12.8333 8.66667V7.66667ZM14 8.66667C14.2761 8.66667 14.5 8.44281 14.5 8.16667C14.5 7.89052 14.2761 7.66667 14 7.66667V8.66667ZM7 11.1667C6.72386 11.1667 6.5 11.3905 6.5 11.6667C6.5 11.9428 6.72386 12.1667 7 12.1667V11.1667ZM8.16667 12.1667C8.44281 12.1667 8.66667 11.9428 8.66667 11.6667C8.66667 11.3905 8.44281 11.1667 8.16667 11.1667V12.1667ZM12.8333 11.1667C12.5572 11.1667 12.3333 11.3905 12.3333 11.6667C12.3333 11.9428 12.5572 12.1667 12.8333 12.1667V11.1667ZM14 12.1667C14.2761 12.1667 14.5 11.9428 14.5 11.6667C14.5 11.3905 14.2761 11.1667 14 11.1667V12.1667ZM7 14.6667C6.72386 14.6667 6.5 14.8905 6.5 15.1667C6.5 15.4428 6.72386 15.6667 7 15.6667V14.6667ZM8.16667 15.6667C8.44281 15.6667 8.66667 15.4428 8.66667 15.1667C8.66667 14.8905 8.44281 14.6667 8.16667 14.6667V15.6667ZM12.8333 14.6667C12.5572 14.6667 12.3333 14.8905 12.3333 15.1667C12.3333 15.4428 12.5572 15.6667 12.8333 15.6667V14.6667ZM14 15.6667C14.2761 15.6667 14.5 15.4428 14.5 15.1667C14.5 14.8905 14.2761 14.6667 14 14.6667V15.6667ZM12.8333 24.5V25H13.3333V24.5H12.8333ZM8.16667 24.5H7.66667V25H8.16667V24.5ZM21 12.3333C20.7239 12.3333 20.5 12.5572 20.5 12.8333C20.5 13.1095 20.7239 13.3333 21 13.3333V12.3333ZM21.0117 13.3333C21.2878 13.3333 21.5117 13.1095 21.5117 12.8333C21.5117 12.5572 21.2878 12.3333 21.0117 12.3333V13.3333ZM21 15.8333C20.7239 15.8333 20.5 16.0572 20.5 16.3333C20.5 16.6095 20.7239 16.8333 21 16.8333V15.8333ZM21.0117 16.8333C21.2878 16.8333 21.5117 16.6095 21.5117 16.3333C21.5117 16.0572 21.2878 15.8333 21.0117 15.8333V16.8333ZM21 19.3333C20.7239 19.3333 20.5 19.5572 20.5 19.8333C20.5 20.1095 20.7239 20.3333 21 20.3333V19.3333ZM21.0117 20.3333C21.2878 20.3333 21.5117 20.1095 21.5117 19.8333C21.5117 19.5572 21.2878 19.3333 21.0117 19.3333V20.3333ZM24.3728 8.80368L23.9273 9.03067L24.3728 8.80368ZM23.863 8.29383L23.636 8.73933L23.863 8.29383ZM16.863 3.62716L16.636 4.07266L16.863 3.62716ZM17.3728 4.13701L16.9273 4.36401L17.3728 4.13701ZM3.62716 4.13701L4.07266 4.36401L3.62716 4.13701ZM4.13701 3.62716L4.36401 4.07266L4.13701 3.62716ZM3 5.36667V24.5H4V5.36667H3ZM5.36667 4H15.6333V3H5.36667V4ZM17 5.36667V8.16667H18V5.36667H17ZM17 8.16667V24.5H18V8.16667H17ZM3.5 25H17.5V24H3.5V25ZM17.5 25H24.5V24H17.5V25ZM24 10.0333V24.5H25V10.0333H24ZM17.5 8.66667H22.6333V7.66667H17.5V8.66667ZM7 8.66667H8.16667V7.66667H7V8.66667ZM12.8333 8.66667H14V7.66667H12.8333V8.66667ZM7 12.1667H8.16667V11.1667H7V12.1667ZM12.8333 12.1667H14V11.1667H12.8333V12.1667ZM7 15.6667H8.16667V14.6667H7V15.6667ZM12.8333 15.6667H14V14.6667H12.8333V15.6667ZM12.3333 21V24.5H13.3333V21H12.3333ZM12.8333 24H8.16667V25H12.8333V24ZM8.66667 24.5V21H7.66667V24.5H8.66667ZM10.5 19.1667C11.5125 19.1667 12.3333 19.9875 12.3333 21H13.3333C13.3333 19.4352 12.0648 18.1667 10.5 18.1667V19.1667ZM10.5 18.1667C8.93519 18.1667 7.66667 19.4352 7.66667 21H8.66667C8.66667 19.9875 9.48748 19.1667 10.5 19.1667V18.1667ZM21 13.3333H21.0117V12.3333H21V13.3333ZM21 16.8333H21.0117V15.8333H21V16.8333ZM21 20.3333H21.0117V19.3333H21V20.3333ZM25 10.0333C25 9.71489 25.0004 9.44598 24.9824 9.22635C24.964 9.00089 24.9238 8.7837 24.8183 8.57668L23.9273 9.03067C23.949 9.07322 23.9724 9.14416 23.9858 9.30778C23.9996 9.47725 24 9.69839 24 10.0333H25ZM22.6333 8.66667C22.9683 8.66667 23.1894 8.66706 23.3589 8.6809C23.5225 8.69427 23.5934 8.71765 23.636 8.73933L24.09 7.84832C23.883 7.74284 23.6658 7.70264 23.4403 7.68422C23.2207 7.66628 22.9518 7.66667 22.6333 7.66667V8.66667ZM24.8183 8.57668C24.6586 8.26308 24.4036 8.00811 24.09 7.84832L23.636 8.73933C23.7614 8.80324 23.8634 8.90523 23.9273 9.03067L24.8183 8.57668ZM15.6333 4C15.9683 4 16.1894 4.00039 16.3589 4.01423C16.5225 4.0276 16.5934 4.05098 16.636 4.07266L17.09 3.18166C16.883 3.07618 16.6658 3.03598 16.4403 3.01756C16.2207 2.99961 15.9518 3 15.6333 3V4ZM18 5.36667C18 5.04822 18.0004 4.77931 17.9824 4.55969C17.964 4.33422 17.9238 4.11703 17.8183 3.91002L16.9273 4.36401C16.949 4.40655 16.9724 4.47749 16.9858 4.64112C16.9996 4.81058 17 5.03172 17 5.36667H18ZM16.636 4.07266C16.7614 4.13658 16.8634 4.23856 16.9273 4.36401L17.8183 3.91002C17.6586 3.59641 17.4036 3.34144 17.09 3.18166L16.636 4.07266ZM4 5.36667C4 5.03172 4.00039 4.81058 4.01423 4.64112C4.0276 4.47749 4.05098 4.40655 4.07266 4.36401L3.18166 3.91002C3.07618 4.11703 3.03598 4.33422 3.01756 4.55969C2.99961 4.77931 3 5.04822 3 5.36667H4ZM5.36667 3C5.04822 3 4.77931 2.99961 4.55969 3.01756C4.33422 3.03598 4.11703 3.07618 3.91002 3.18166L4.36401 4.07266C4.40655 4.05098 4.47749 4.0276 4.64112 4.01423C4.81058 4.00039 5.03172 4 5.36667 4V3ZM4.07266 4.36401C4.13658 4.23856 4.23856 4.13658 4.36401 4.07266L3.91002 3.18166C3.59641 3.34144 3.34144 3.59641 3.18166 3.91002L4.07266 4.36401Z" fill="#09FBD3"/>
</svg>
