<svg width="146" height="64" viewBox="0 0 146 64" fill="none" xmlns="http://www.w3.org/2000/svg">
<rect width="146" height="64" rx="8" fill="url(#paint0_radial_413_7057)"/>
<mask id="mask0_413_7057" style="mask-type:alpha" maskUnits="userSpaceOnUse" x="0" y="0" width="146" height="64">
<rect width="146" height="64" rx="8" fill="#207FDF"/>
</mask>
<g mask="url(#mask0_413_7057)">
<g style="mix-blend-mode:soft-light">
<path d="M165.886 185.312L206.759 138.955L119.314 49L-1 185.312H165.886Z" fill="url(#paint1_radial_413_7057)"/>
<path d="M53.9998 -76L-14 -3.72564L31.0367 40.7343L135.705 -76H53.9998Z" fill="url(#paint2_radial_413_7057)"/>
<path d="M108.582 -81.0667L71.0649 -39.4528L168.456 61.1534L296.572 -81.0667H108.582Z" fill="url(#paint3_linear_413_7057)"/>
<path opacity="0.7" d="M57.3599 -80.204L-4.49487 -12.2419V73.6162L120.751 -64.6365L105.793 -80.204H57.3599Z" fill="url(#paint4_linear_413_7057)"/>
<path opacity="0.7" d="M62.171 -8.74927L-22 86.0354V180.863H80.7678L157.985 93.8838L62.171 -8.74927Z" fill="url(#paint5_linear_413_7057)"/>
<path opacity="0.64" d="M218.344 -80.204L132.394 17.1249L134.901 19.971L223.357 -80.204H218.344Z" fill="url(#paint6_linear_413_7057)"/>
<path opacity="0.46" d="M-22 119.197L76.9271 7.20663L74.461 4.31738L-22 113.548V119.197Z" fill="url(#paint7_linear_413_7057)"/>
</g>
<g style="mix-blend-mode:soft-light">
<path d="M-34 85H77C76.7854 73.8485 76.8467 62.8922 69.8249 53.1712C61.1166 41.142 46.5823 34.8998 32.2934 34.2495C22.2359 33.7944 10.8906 35.4199 3.28619 28.43C-6.31133 19.6193 -3.58232 3.46112 -6.86326 -9.51097C-9.16298 -18.5167 -17.4727 -33.3094 -34 -35V85Z" fill="url(#paint8_linear_413_7057)"/>
</g>
<g style="mix-blend-mode:soft-light">
<path d="M236 -6.81898e-06L236 155C221.503 154.7 207.26 154.786 194.623 144.981C178.985 132.82 170.87 112.525 170.024 92.5718C169.433 78.5276 171.546 62.6851 162.459 52.0663C151.005 38.6644 129.999 42.4751 113.136 37.8936C101.428 34.6823 82.1978 23.0787 80 0L236 -6.81898e-06Z" fill="url(#paint9_linear_413_7057)"/>
</g>
</g>
<path d="M14.594 12.242V13.278H10.352V16.568H13.796V17.604H10.352V22H9.078V12.242H14.594ZM16.7907 13.082C16.548 13.082 16.3427 12.998 16.1747 12.83C16.0067 12.662 15.9227 12.4567 15.9227 12.214C15.9227 11.9713 16.0067 11.766 16.1747 11.598C16.3427 11.43 16.548 11.346 16.7907 11.346C17.024 11.346 17.22 11.43 17.3787 11.598C17.5467 11.766 17.6307 11.9713 17.6307 12.214C17.6307 12.4567 17.5467 12.662 17.3787 12.83C17.22 12.998 17.024 13.082 16.7907 13.082ZM17.4067 14.328V22H16.1327V14.328H17.4067ZM23.582 22L21.762 19.144L20.012 22H18.682L21.16 18.192L18.682 14.328H20.124L21.944 17.17L23.68 14.328H25.01L22.546 18.122L25.024 22H23.582ZM33.2772 17.87C33.2772 18.1127 33.2632 18.3693 33.2352 18.64H27.1032C27.1499 19.396 27.4066 19.9887 27.8732 20.418C28.3492 20.838 28.9232 21.048 29.5952 21.048C30.1459 21.048 30.6032 20.922 30.9672 20.67C31.3406 20.4087 31.6019 20.0633 31.7512 19.634H33.1232C32.9179 20.3713 32.5072 20.9733 31.8912 21.44C31.2752 21.8973 30.5099 22.126 29.5952 22.126C28.8672 22.126 28.2139 21.9627 27.6352 21.636C27.0659 21.3093 26.6179 20.8473 26.2912 20.25C25.9646 19.6433 25.8012 18.9433 25.8012 18.15C25.8012 17.3567 25.9599 16.6613 26.2772 16.064C26.5946 15.4667 27.0379 15.0093 27.6072 14.692C28.1859 14.3653 28.8486 14.202 29.5952 14.202C30.3232 14.202 30.9672 14.3607 31.5272 14.678C32.0872 14.9953 32.5166 15.434 32.8152 15.994C33.1232 16.5447 33.2772 17.17 33.2772 17.87ZM31.9612 17.604C31.9612 17.1187 31.8539 16.7033 31.6392 16.358C31.4246 16.0033 31.1306 15.7373 30.7572 15.56C30.3932 15.3733 29.9872 15.28 29.5392 15.28C28.8952 15.28 28.3446 15.4853 27.8872 15.896C27.4392 16.3067 27.1826 16.876 27.1172 17.604H31.9612ZM34.4829 18.136C34.4829 17.352 34.6415 16.666 34.9589 16.078C35.2762 15.4807 35.7102 15.0187 36.2609 14.692C36.8209 14.3653 37.4462 14.202 38.1369 14.202C38.7342 14.202 39.2895 14.342 39.8029 14.622C40.3162 14.8927 40.7082 15.252 40.9789 15.7V11.64H42.2669V22H40.9789V20.558C40.7269 21.0153 40.3535 21.3933 39.8589 21.692C39.3642 21.9813 38.7855 22.126 38.1229 22.126C37.4415 22.126 36.8209 21.958 36.2609 21.622C35.7102 21.286 35.2762 20.8147 34.9589 20.208C34.6415 19.6013 34.4829 18.9107 34.4829 18.136ZM40.9789 18.15C40.9789 17.5713 40.8622 17.0673 40.6289 16.638C40.3955 16.2087 40.0782 15.882 39.6769 15.658C39.2849 15.4247 38.8509 15.308 38.3749 15.308C37.8989 15.308 37.4649 15.42 37.0729 15.644C36.6809 15.868 36.3682 16.1947 36.1349 16.624C35.9015 17.0533 35.7849 17.5573 35.7849 18.136C35.7849 18.724 35.9015 19.2373 36.1349 19.676C36.3682 20.1053 36.6809 20.4367 37.0729 20.67C37.4649 20.894 37.8989 21.006 38.3749 21.006C38.8509 21.006 39.2849 20.894 39.6769 20.67C40.0782 20.4367 40.3955 20.1053 40.6289 19.676C40.8622 19.2373 40.9789 18.7287 40.9789 18.15Z" fill="white"/>
<path d="M93.9801 33.8301V36.409H96.7157V37.2391H93.9801V39.8954H97.0388V40.7255H93V33H97.0388V33.8301H93.9801Z" fill="white"/>
<path d="M98.1556 37.6707C98.1556 37.0509 98.2776 36.5086 98.5218 36.0437C98.7659 35.5715 99.0997 35.2062 99.5234 34.948C99.9542 34.6897 100.432 34.5606 100.956 34.5606C101.473 34.5606 101.921 34.675 102.302 34.9037C102.683 35.1324 102.966 35.4202 103.153 35.767V34.6602H104.144V40.7255H103.153V39.5966C102.959 39.9507 102.668 40.2459 102.28 40.482C101.9 40.7108 101.455 40.8251 100.945 40.8251C100.421 40.8251 99.947 40.6923 99.5234 40.4267C99.0997 40.161 98.7659 39.7884 98.5218 39.3088C98.2776 38.8292 98.1556 38.2832 98.1556 37.6707ZM103.153 37.6818C103.153 37.2243 103.063 36.8259 102.884 36.4864C102.704 36.147 102.46 35.8888 102.151 35.7117C101.85 35.5272 101.516 35.435 101.15 35.435C100.783 35.435 100.45 35.5235 100.148 35.7006C99.8465 35.8777 99.6059 36.136 99.4264 36.4754C99.2469 36.8148 99.1572 37.2132 99.1572 37.6707C99.1572 38.1356 99.2469 38.5414 99.4264 38.8882C99.6059 39.2276 99.8465 39.4896 100.148 39.674C100.45 39.8511 100.783 39.9397 101.15 39.9397C101.516 39.9397 101.85 39.8511 102.151 39.674C102.46 39.4896 102.704 39.2276 102.884 38.8882C103.063 38.5414 103.153 38.1393 103.153 37.6818Z" fill="white"/>
<path d="M106.78 35.6453C106.952 35.2985 107.196 35.0291 107.512 34.8373C107.835 34.6455 108.227 34.5495 108.686 34.5495V35.5899H108.428C107.329 35.5899 106.78 36.2024 106.78 37.4272V40.7255H105.8V34.6602H106.78V35.6453Z" fill="white"/>
<path d="M112.693 34.5495C113.411 34.5495 113.993 34.7746 114.438 35.2247C114.883 35.6674 115.106 36.3094 115.106 37.1505V40.7255H114.136V37.2944C114.136 36.6894 113.989 36.2282 113.695 35.9109C113.401 35.5862 112.998 35.4239 112.489 35.4239C111.972 35.4239 111.559 35.5899 111.25 35.922C110.949 36.254 110.798 36.7373 110.798 37.3719V40.7255H109.818V34.6602H110.798V35.5235C110.992 35.2136 111.254 34.9738 111.584 34.8041C111.921 34.6344 112.291 34.5495 112.693 34.5495Z" fill="white"/>
<path d="M120.558 33.8301V36.409H123.294V37.2391H120.558V39.8954H123.617V40.7255H119.578V33H123.617V33.8301H120.558Z" fill="white"/>
<path d="M129.72 33.0111V33.8301H127.674V40.7255H126.694V33.8301H124.637V33.0111H129.72Z" fill="white"/>
<path d="M136.71 33.0111V40.7255H135.73V37.228H131.907V40.7255H130.927V33.0111H131.907V36.3979H135.73V33.0111H136.71Z" fill="white"/>
<path d="M95.6313 47.8201C95.8037 47.4733 96.0478 47.204 96.3637 47.0122C96.6868 46.8203 97.0781 46.7244 97.5376 46.7244V47.7648H97.2792C96.1806 47.7648 95.6313 48.3772 95.6313 49.6021V52.9004H94.6513V46.8351H95.6313V47.8201Z" fill="white"/>
<path d="M104.054 49.6353C104.054 49.8272 104.043 50.0301 104.022 50.2441H99.3044C99.3403 50.8417 99.5378 51.3103 99.8968 51.6497C100.263 51.9817 100.705 52.1478 101.221 52.1478C101.645 52.1478 101.997 52.0481 102.277 51.8489C102.564 51.6423 102.765 51.3693 102.88 51.0299H103.936C103.778 51.6128 103.462 52.0887 102.988 52.4577C102.514 52.8192 101.925 53 101.221 53C100.661 53 100.159 52.8709 99.7137 52.6126C99.2757 52.3544 98.9311 51.9891 98.6798 51.5169C98.4285 51.0373 98.3028 50.4839 98.3028 49.8567C98.3028 49.2295 98.4249 48.6798 98.669 48.2075C98.9131 47.7353 99.2542 47.3737 99.6922 47.1229C100.137 46.8646 100.647 46.7355 101.221 46.7355C101.782 46.7355 102.277 46.8609 102.708 47.1118C103.139 47.3627 103.469 47.7095 103.699 48.1522C103.936 48.5875 104.054 49.0819 104.054 49.6353ZM103.042 49.425C103.042 49.0413 102.959 48.713 102.794 48.44C102.629 48.1596 102.403 47.9493 102.115 47.8091C101.835 47.6615 101.523 47.5877 101.178 47.5877C100.683 47.5877 100.259 47.75 99.9076 48.0747C99.5629 48.3994 99.3655 48.8495 99.3152 49.425H103.042Z" fill="white"/>
<path d="M113.21 46.8351L111.368 52.9004H110.356L108.934 48.0858L107.512 52.9004H106.5L104.648 46.8351H105.649L107.006 51.9264L108.471 46.8351H109.473L110.905 51.9375L112.241 46.8351H113.21Z" fill="white"/>
<path d="M113.816 49.8456C113.816 49.2258 113.938 48.6835 114.182 48.2186C114.427 47.7464 114.76 47.3811 115.184 47.1229C115.615 46.8646 116.092 46.7355 116.617 46.7355C117.133 46.7355 117.582 46.8498 117.963 47.0786C118.343 47.3073 118.627 47.5951 118.814 47.9419V46.8351H119.804V52.9004H118.814V51.7714C118.62 52.1256 118.329 52.4208 117.941 52.6569C117.561 52.8856 117.116 53 116.606 53C116.082 53 115.608 52.8672 115.184 52.6016C114.76 52.3359 114.427 51.9633 114.182 51.4837C113.938 51.0041 113.816 50.458 113.816 49.8456ZM118.814 49.8567C118.814 49.3992 118.724 49.0007 118.544 48.6613C118.365 48.3219 118.121 48.0636 117.812 47.8866C117.51 47.7021 117.177 47.6099 116.81 47.6099C116.444 47.6099 116.11 47.6984 115.809 47.8755C115.507 48.0526 115.267 48.3108 115.087 48.6502C114.908 48.9897 114.818 49.3881 114.818 49.8456C114.818 50.3105 114.908 50.7163 115.087 51.0631C115.267 51.4025 115.507 51.6645 115.809 51.8489C116.11 52.026 116.444 52.1146 116.81 52.1146C117.177 52.1146 117.51 52.026 117.812 51.8489C118.121 51.6645 118.365 51.4025 118.544 51.0631C118.724 50.7163 118.814 50.3141 118.814 49.8567Z" fill="white"/>
<path d="M122.441 47.8201C122.613 47.4733 122.857 47.204 123.173 47.0122C123.496 46.8203 123.888 46.7244 124.347 46.7244V47.7648H124.089C122.99 47.7648 122.441 48.3772 122.441 49.6021V52.9004H121.461V46.8351H122.441V47.8201Z" fill="white"/>
<path d="M125.112 49.8456C125.112 49.2258 125.234 48.6835 125.478 48.2186C125.723 47.7464 126.056 47.3811 126.48 47.1229C126.911 46.8646 127.392 46.7355 127.923 46.7355C128.383 46.7355 128.81 46.8462 129.205 47.0675C129.6 47.2815 129.901 47.5656 130.11 47.9198V44.71H131.1V52.9004H130.11V51.7604C129.916 52.1219 129.628 52.4208 129.248 52.6569C128.867 52.8856 128.422 53 127.912 53C127.388 53 126.911 52.8672 126.48 52.6016C126.056 52.3359 125.723 51.9633 125.478 51.4837C125.234 51.0041 125.112 50.458 125.112 49.8456ZM130.11 49.8567C130.11 49.3992 130.02 49.0007 129.84 48.6613C129.661 48.3219 129.417 48.0636 129.108 47.8866C128.806 47.7021 128.472 47.6099 128.106 47.6099C127.74 47.6099 127.406 47.6984 127.105 47.8755C126.803 48.0526 126.563 48.3108 126.383 48.6502C126.204 48.9897 126.114 49.3881 126.114 49.8456C126.114 50.3105 126.204 50.7163 126.383 51.0631C126.563 51.4025 126.803 51.6645 127.105 51.8489C127.406 52.026 127.74 52.1146 128.106 52.1146C128.472 52.1146 128.806 52.026 129.108 51.8489C129.417 51.6645 129.661 51.4025 129.84 51.0631C130.02 50.7163 130.11 50.3141 130.11 49.8567Z" fill="white"/>
<path d="M134.846 53C134.394 53 133.988 52.9225 133.629 52.7676C133.27 52.6052 132.986 52.3839 132.778 52.1035C132.57 51.8157 132.455 51.4874 132.434 51.1184H133.446C133.475 51.421 133.611 51.6681 133.855 51.86C134.106 52.0518 134.433 52.1478 134.835 52.1478C135.209 52.1478 135.503 52.0629 135.718 51.8932C135.934 51.7235 136.041 51.5095 136.041 51.2512C136.041 50.9856 135.927 50.7901 135.697 50.6646C135.467 50.5318 135.112 50.4027 134.631 50.2773C134.193 50.1592 133.834 50.0411 133.554 49.9231C133.281 49.7976 133.044 49.6169 132.843 49.3807C132.649 49.1372 132.552 48.82 132.552 48.4289C132.552 48.119 132.642 47.8349 132.821 47.5766C133.001 47.3184 133.256 47.1155 133.586 46.9679C133.916 46.813 134.293 46.7355 134.717 46.7355C135.37 46.7355 135.898 46.9052 136.3 47.2446C136.702 47.584 136.917 48.0489 136.946 48.6392H135.966C135.945 48.3219 135.819 48.0673 135.589 47.8755C135.367 47.6836 135.065 47.5877 134.684 47.5877C134.333 47.5877 134.053 47.6652 133.844 47.8201C133.636 47.9751 133.532 48.178 133.532 48.4289C133.532 48.6281 133.593 48.7941 133.715 48.927C133.844 49.0524 134.002 49.1557 134.189 49.2369C134.383 49.3106 134.649 49.3955 134.986 49.4914C135.41 49.6095 135.754 49.7275 136.02 49.8456C136.286 49.9563 136.512 50.126 136.698 50.3547C136.892 50.5835 136.993 50.8823 137 51.2512C137 51.5833 136.91 51.8821 136.731 52.1478C136.551 52.4134 136.296 52.6237 135.966 52.7786C135.643 52.9262 135.27 53 134.846 53Z" fill="white"/>
<path d="M47.6865 32.617C47.6865 31.7985 47.9137 31.1577 48.3681 30.6946C48.8329 30.2315 49.4267 30 50.1496 30C50.8725 30 51.4612 30.2315 51.9156 30.6946C52.3803 31.1577 52.6127 31.7985 52.6127 32.617C52.6127 33.4463 52.3803 34.0925 51.9156 34.5555C51.4612 35.0186 50.8725 35.2502 50.1496 35.2502C49.4267 35.2502 48.8329 35.0186 48.3681 34.5555C47.9137 34.0925 47.6865 33.4463 47.6865 32.617ZM57.6318 30.1939L51.5438 41.5019H49.437L55.5095 30.1939H57.6318ZM50.1341 31.357C49.5661 31.357 49.2821 31.777 49.2821 32.617C49.2821 33.4678 49.5661 33.8932 50.1341 33.8932C50.413 33.8932 50.6298 33.7909 50.7847 33.5863C50.9397 33.3709 51.0171 33.0478 51.0171 32.617C51.0171 31.777 50.7228 31.357 50.1341 31.357ZM54.4871 39.0626C54.4871 38.2334 54.7143 37.5926 55.1687 37.1403C55.6335 36.6772 56.2273 36.4456 56.9502 36.4456C57.6731 36.4456 58.2566 36.6772 58.7007 37.1403C59.1551 37.5926 59.3823 38.2334 59.3823 39.0626C59.3823 39.8919 59.1551 40.5381 58.7007 41.0012C58.2566 41.4643 57.6731 41.6958 56.9502 41.6958C56.217 41.6958 55.6231 41.4643 55.1687 41.0012C54.7143 40.5381 54.4871 39.8919 54.4871 39.0626ZM56.9347 37.8026C56.3461 37.8026 56.0517 38.2226 56.0517 39.0626C56.0517 39.9134 56.3461 40.3388 56.9347 40.3388C57.5131 40.3388 57.8022 39.9134 57.8022 39.0626C57.8022 38.2226 57.5131 37.8026 56.9347 37.8026Z" fill="white"/>
<path d="M23.6287 34.9973H14.1121V40.0606C14.5233 39.5473 15.1108 39.1328 15.8745 38.817C16.6381 38.4814 17.4508 38.3136 18.3124 38.3136C19.8789 38.3136 21.1615 38.659 22.1601 39.3499C23.1588 40.0408 23.8833 40.9291 24.3337 42.0148C24.784 43.0808 25.0092 44.2257 25.0092 45.4495C25.0092 47.7196 24.363 49.5455 23.0707 50.9273C21.7979 52.3091 19.9768 53 17.6074 53C15.3751 53 13.5932 52.4374 12.2617 51.3122C10.9301 50.1871 10.1762 48.7165 10 46.9004H13.9946C14.1709 47.69 14.5625 48.3217 15.1695 48.7954C15.7961 49.2692 16.5892 49.5061 17.5487 49.5061C18.704 49.5061 19.5754 49.1409 20.1628 48.4105C20.7502 47.6801 21.044 46.7129 21.044 45.5087C21.044 44.2849 20.7405 43.3571 20.1334 42.7254C19.546 42.074 18.6746 41.7483 17.5193 41.7483C16.6969 41.7483 16.0115 41.9556 15.4632 42.3701C14.915 42.7847 14.5233 43.3374 14.2884 44.0283H10.3525V31.3553H23.6287V34.9973Z" fill="white"/>
<path d="M28.139 41.926C28.139 38.511 28.746 35.8362 29.9601 33.9017C31.1937 31.9672 33.2302 31 36.0695 31C38.9088 31 40.9355 31.9672 42.1495 33.9017C43.3832 35.8362 44 38.511 44 41.926C44 45.3607 43.3832 48.0552 42.1495 50.0094C40.9355 51.9637 38.9088 52.9408 36.0695 52.9408C33.2302 52.9408 31.1937 51.9637 29.9601 50.0094C28.746 48.0552 28.139 45.3607 28.139 41.926ZM39.9466 41.926C39.9466 40.4652 39.8487 39.2414 39.6529 38.2544C39.4767 37.2476 39.1046 36.4284 38.5368 35.7968C37.9885 35.1651 37.1661 34.8493 36.0695 34.8493C34.9729 34.8493 34.1407 35.1651 33.5728 35.7968C33.0246 36.4284 32.6525 37.2476 32.4567 38.2544C32.2805 39.2414 32.1924 40.4652 32.1924 41.926C32.1924 43.4262 32.2805 44.6895 32.4567 45.716C32.6329 46.7227 33.005 47.5419 33.5728 48.1736C34.1407 48.7856 34.9729 49.0915 36.0695 49.0915C37.1661 49.0915 37.9983 48.7856 38.5661 48.1736C39.134 47.5419 39.506 46.7227 39.6823 45.716C39.8585 44.6895 39.9466 43.4262 39.9466 41.926Z" fill="white"/>
<path d="M53.6644 51.4942H49.8827L49.233 53.3396H47.6865L50.9224 44.2948H52.6377L55.8736 53.3396H54.3141L53.6644 51.4942ZM53.2485 50.2856L51.7801 46.0882L50.2986 50.2856H53.2485Z" fill="white"/>
<path d="M63.3624 46.9978C63.3624 47.457 63.2541 47.8902 63.0375 48.2974C62.8209 48.7046 62.4743 49.0381 61.9978 49.298C61.5213 49.5492 60.9106 49.6749 60.1655 49.6749H58.5281V53.3396H57.0466V44.3078H60.1655C60.8586 44.3078 61.4434 44.4291 61.9199 44.6717C62.405 44.9056 62.7646 45.2261 62.9985 45.6333C63.2411 46.0405 63.3624 46.4953 63.3624 46.9978ZM60.1655 48.4663C60.7286 48.4663 61.1488 48.3407 61.426 48.0894C61.7033 47.8295 61.8419 47.4657 61.8419 46.9978C61.8419 46.0102 61.2831 45.5164 60.1655 45.5164H58.5281V48.4663H60.1655Z" fill="white"/>
<path d="M69.2327 53.3396L67.1534 49.7269H66.0228V53.3396H64.5414V44.3078H67.6603C68.3533 44.3078 68.9381 44.4291 69.4146 44.6717C69.8998 44.9142 70.2593 45.2391 70.4932 45.6463C70.7358 46.0535 70.8571 46.5083 70.8571 47.0108C70.8571 47.5999 70.6838 48.1371 70.3373 48.6222C69.9994 49.0987 69.4753 49.4236 68.7649 49.5969L71.0001 53.3396H69.2327ZM66.0228 48.5443H67.6603C68.2147 48.5443 68.6306 48.4057 68.9078 48.1284C69.1937 47.8512 69.3366 47.4787 69.3366 47.0108C69.3366 46.543 69.198 46.1791 68.9208 45.9192C68.6436 45.6506 68.2234 45.5164 67.6603 45.5164H66.0228V48.5443Z" fill="white"/>
<path d="M96.5 19.25H99V24.25H96.5" stroke="white" stroke-linecap="round" stroke-linejoin="round"/>
<path d="M99 19.875H101.5C101.832 19.875 102.149 20.0067 102.384 20.2411C102.618 20.4755 102.75 20.7935 102.75 21.125H105.562C105.811 21.125 106.05 21.2238 106.225 21.3996C106.401 21.5754 106.5 21.8139 106.5 22.0625C106.5 22.3111 106.401 22.5496 106.225 22.7254C106.05 22.9012 105.811 23 105.562 23H102.125" stroke="white" stroke-linecap="round" stroke-linejoin="round"/>
<path d="M106.5 21.9999L108.572 20.7499C108.855 20.581 109.179 20.4925 109.509 20.4937C109.747 20.4934 109.982 20.5399 110.201 20.6306C110.42 20.7212 110.62 20.8541 110.788 21.0218L111.5 21.7499L105.897 25.1124C105.473 25.366 104.988 25.4999 104.494 25.4999C104.167 25.4996 103.843 25.4404 103.538 25.3249L99 23.6249" stroke="white" stroke-linecap="round" stroke-linejoin="round"/>
<path d="M105.875 19.25C108.291 19.25 110.25 17.2912 110.25 14.875C110.25 12.4588 108.291 10.5 105.875 10.5C103.459 10.5 101.5 12.4588 101.5 14.875C101.5 17.2912 103.459 19.25 105.875 19.25Z" stroke="white"/>
<path d="M105.353 14.875C105.087 14.8604 104.836 14.7443 104.652 14.5504C104.469 14.3566 104.366 14.0998 104.366 13.8328C104.366 13.5659 104.469 13.3091 104.652 13.1153C104.836 12.9214 105.087 12.8053 105.353 12.7906" stroke="white"/>
<path d="M106.397 14.875C106.664 14.8896 106.914 15.0058 107.098 15.1996C107.281 15.3935 107.384 15.6503 107.384 15.9172C107.384 16.1841 107.281 16.4409 107.098 16.6348C106.914 16.8286 106.664 16.9448 106.397 16.9594" stroke="white"/>
<path d="M105.875 11.75V12.7906" stroke="white"/>
<path d="M105.875 16.9594V18" stroke="white"/>
<path d="M105.353 14.875H106.397" stroke="white"/>
<path d="M107.437 13.3125C107.437 13.3125 106.916 12.7906 106.397 12.7906H105.353" stroke="white"/>
<path d="M104.312 16.4375C104.312 16.4375 104.834 16.9594 105.353 16.9594H106.397" stroke="white"/>
<g filter="url(#filter0_d_413_7057)">
<rect x="118.25" y="8.25" width="19.5" height="19.5" rx="9.75" fill="url(#paint10_linear_413_7057)" stroke="url(#paint11_linear_413_7057)" stroke-width="0.5"/>
<path d="M128.143 12.0001L128.063 12.2638V19.9151L128.143 19.9926L131.784 17.8932L128.143 12.0001Z" fill="#C1CCF8"/>
<path d="M128.141 12.0001L124.5 17.8932L128.141 19.9926V16.2788V12.0001Z" fill="white"/>
<path d="M128.142 20.6648L128.097 20.7182V23.4437L128.142 23.5714L131.786 18.5665L128.142 20.6648Z" fill="#C1CCF8"/>
<path d="M128.141 23.5714V20.6648L124.5 18.5665L128.141 23.5714Z" fill="white"/>
<path d="M128.141 19.9922L131.782 17.8928L128.141 16.2784V19.9922Z" fill="#8197EE"/>
<path d="M124.5 17.8928L128.141 19.9922V16.2784L124.5 17.8928Z" fill="#C1CCF8"/>
</g>
<defs>
<filter id="filter0_d_413_7057" x="114" y="8" width="28" height="28" filterUnits="userSpaceOnUse" color-interpolation-filters="sRGB">
<feFlood flood-opacity="0" result="BackgroundImageFix"/>
<feColorMatrix in="SourceAlpha" type="matrix" values="0 0 0 0 0 0 0 0 0 0 0 0 0 0 0 0 0 0 127 0" result="hardAlpha"/>
<feOffset dy="4"/>
<feGaussianBlur stdDeviation="2"/>
<feComposite in2="hardAlpha" operator="out"/>
<feColorMatrix type="matrix" values="0 0 0 0 0 0 0 0 0 0 0 0 0 0 0 0 0 0 0.25 0"/>
<feBlend mode="normal" in2="BackgroundImageFix" result="effect1_dropShadow_413_7057"/>
<feBlend mode="normal" in="SourceGraphic" in2="effect1_dropShadow_413_7057" result="shape"/>
</filter>
<radialGradient id="paint0_radial_413_7057" cx="0" cy="0" r="1" gradientUnits="userSpaceOnUse" gradientTransform="translate(73 32) rotate(90) scale(32 73)">
<stop stop-color="#5973D6"/>
<stop offset="1" stop-color="#4A62BD"/>
</radialGradient>
<radialGradient id="paint1_radial_413_7057" cx="0" cy="0" r="1" gradientUnits="userSpaceOnUse" gradientTransform="translate(-7.59222 103.027) scale(137.158 146.302)">
<stop stop-color="white"/>
<stop offset="1" stop-color="white" stop-opacity="0"/>
</radialGradient>
<radialGradient id="paint2_radial_413_7057" cx="0" cy="0" r="1" gradientUnits="userSpaceOnUse" gradientTransform="translate(176.166 -53.8339) rotate(180) scale(146.836 156.625)">
<stop stop-color="white"/>
<stop offset="1" stop-color="white" stop-opacity="0"/>
</radialGradient>
<linearGradient id="paint3_linear_413_7057" x1="145.223" y1="-15.2147" x2="340.92" y2="-215.881" gradientUnits="userSpaceOnUse">
<stop stop-color="white" stop-opacity="0"/>
<stop offset="1" stop-color="#2081E2"/>
</linearGradient>
<linearGradient id="paint4_linear_413_7057" x1="52.1798" y1="-14.5122" x2="34.2235" y2="-65.0145" gradientUnits="userSpaceOnUse">
<stop stop-color="white" stop-opacity="0"/>
<stop offset="1" stop-color="#2081E2"/>
</linearGradient>
<linearGradient id="paint5_linear_413_7057" x1="91.8812" y1="62.0781" x2="-60.6694" y2="218.502" gradientUnits="userSpaceOnUse">
<stop stop-color="white" stop-opacity="0"/>
<stop offset="1" stop-color="#2081E2"/>
</linearGradient>
<linearGradient id="paint6_linear_413_7057" x1="149.988" y1="1.00293" x2="272.825" y2="-124.953" gradientUnits="userSpaceOnUse">
<stop stop-color="white" stop-opacity="0"/>
<stop offset="1" stop-color="#2081E2"/>
</linearGradient>
<linearGradient id="paint7_linear_413_7057" x1="59.2837" y1="23.245" x2="-63.5548" y2="149.202" gradientUnits="userSpaceOnUse">
<stop stop-color="white" stop-opacity="0"/>
<stop offset="1" stop-color="#2081E2"/>
</linearGradient>
<linearGradient id="paint8_linear_413_7057" x1="44.9572" y1="-26.0665" x2="-10.8256" y2="81.9458" gradientUnits="userSpaceOnUse">
<stop stop-color="white" stop-opacity="0"/>
<stop offset="1" stop-color="#5972D4"/>
</linearGradient>
<linearGradient id="paint9_linear_413_7057" x1="91.6135" y1="110.256" x2="236.084" y2="40.7943" gradientUnits="userSpaceOnUse">
<stop stop-color="white" stop-opacity="0"/>
<stop offset="1" stop-color="#5871D3"/>
</linearGradient>
<linearGradient id="paint10_linear_413_7057" x1="138" y1="28" x2="118" y2="8" gradientUnits="userSpaceOnUse">
<stop stop-color="#556ECC"/>
<stop offset="1" stop-color="#627EEA"/>
</linearGradient>
<linearGradient id="paint11_linear_413_7057" x1="128" y1="8" x2="128" y2="28" gradientUnits="userSpaceOnUse">
<stop stop-color="white"/>
<stop offset="1" stop-color="white" stop-opacity="0"/>
</linearGradient>
</defs>
</svg>
