<svg width="28" height="28" viewBox="0 0 28 28" fill="none" xmlns="http://www.w3.org/2000/svg">
<path d="M16.3334 12.25C16.3334 13.8608 13.7217 15.1667 10.5001 15.1667C7.27842 15.1667 4.66675 13.8608 4.66675 12.25M16.3334 12.25C16.3334 10.6392 13.7217 9.33333 10.5001 9.33333C7.27842 9.33333 4.66675 10.6392 4.66675 12.25M16.3334 12.25V16.9167M4.66675 12.25V16.9167M23.3334 6.41667C23.3334 4.80584 20.7217 3.5 17.5001 3.5C15.1911 3.5 13.1955 4.17075 12.2501 5.1438M23.3334 6.41667C23.3334 7.49625 22.1603 8.43883 20.4167 8.94314M23.3334 6.41667V16.3333C23.3334 17.197 22.1603 17.9511 20.4167 18.3545M23.3334 11.6667C23.3334 12.5495 22.1078 13.3178 20.3 13.7141M16.3334 16.9167C16.3334 18.5275 13.7217 19.8333 10.5001 19.8333C7.27842 19.8333 4.66675 18.5275 4.66675 16.9167M16.3334 16.9167V21.5833C16.3334 23.1942 13.7217 24.5 10.5001 24.5C7.27842 24.5 4.66675 23.1942 4.66675 21.5833V16.9167" stroke="#09FBD3" stroke-linecap="round" stroke-linejoin="round"/>
</svg>
