<svg width="28" height="28" viewBox="0 0 28 28" fill="none" xmlns="http://www.w3.org/2000/svg">
<path d="M11.0833 3.5C13.9827 3.5 16.3333 8.20101 16.3333 14M11.0833 3.5C8.18376 3.5 5.83325 8.20101 5.83325 14C5.83325 19.799 8.18376 24.5 11.0833 24.5M11.0833 3.5L17.4999 3.5C20.0772 3.5 22.1666 8.20101 22.1666 14M16.3333 14C16.3333 19.799 13.9827 24.5 11.0833 24.5M16.3333 14L22.1666 14M11.0833 24.5L17.4999 24.5C20.0772 24.5 22.1666 19.799 22.1666 14M21.3807 19.8333L15.4492 19.8333M21.3807 8.16667L15.4492 8.16667" stroke="#09FBD3" stroke-linecap="round" stroke-linejoin="round"/>
</svg>
