<svg width="28" height="28" viewBox="0 0 28 28" fill="none" xmlns="http://www.w3.org/2000/svg">
<path d="M16.9165 9.91666H16.9282M18.9232 23.2866L12.3096 16.6488C11.3845 15.7204 10.922 15.2561 10.3882 15.0822C9.91871 14.9292 9.41278 14.9291 8.94322 15.0819C8.40938 15.2557 7.94666 15.7198 7.02123 16.6479L5.02048 18.6545M14.2786 18.625L14.7083 18.1942C15.6431 17.2661 16.1105 16.802 16.6474 16.6312C17.1197 16.481 17.6275 16.4851 18.0973 16.6428C18.6315 16.8222 19.0914 17.2936 20.0112 18.2366L22.0373 20.286M22.0373 20.286L25.1277 14.9333C25.324 14.5933 25.4221 14.4233 25.4605 14.2426C25.4945 14.0826 25.4945 13.9174 25.4605 13.7574C25.4221 13.5767 25.324 13.4067 25.1277 13.0667L20.372 4.8297C20.1757 4.48968 20.0776 4.31967 19.9403 4.19603C19.8188 4.08663 19.6756 4.00399 19.5201 3.95346C19.3444 3.89636 19.1481 3.89636 18.7555 3.89636H9.24424C8.85162 3.89636 8.65531 3.89636 8.47958 3.95346C8.32408 4.00399 8.18094 4.08663 8.05944 4.19603C7.92212 4.31967 7.82397 4.48968 7.62766 4.8297L2.87205 13.0667C2.67574 13.4067 2.57758 13.5767 2.53917 13.7574C2.50517 13.9174 2.50517 14.0826 2.53917 14.2426C2.57758 14.4233 2.67574 14.5933 2.87205 14.9333L5.02048 18.6545M22.0373 20.286L20.372 23.1703C20.1757 23.5103 20.0776 23.6803 19.9403 23.804C19.8188 23.9134 19.6756 23.996 19.5201 24.0465C19.3444 24.1036 19.1481 24.1036 18.7555 24.1036H9.24424C8.85162 24.1036 8.65531 24.1036 8.47958 24.0465C8.32408 23.996 8.18094 23.9134 8.05944 23.804C7.92212 23.6803 7.82397 23.5103 7.62766 23.1703L5.02048 18.6545M17.4999 9.91666C17.4999 10.2388 17.2387 10.5 16.9165 10.5C16.5944 10.5 16.3332 10.2388 16.3332 9.91666C16.3332 9.59449 16.5944 9.33333 16.9165 9.33333C17.2387 9.33333 17.4999 9.59449 17.4999 9.91666Z" stroke="#09FBD3" stroke-linecap="round" stroke-linejoin="round"/>
</svg>
