<svg width="28" height="28" viewBox="0 0 28 28" fill="none" xmlns="http://www.w3.org/2000/svg">
<path d="M14 8.16667V23.3333M14 8.16667H9.875C9.26721 8.16667 8.68432 7.92083 8.25455 7.48325C7.82478 7.04566 7.58333 6.45217 7.58333 5.83333C7.58333 5.21449 7.82478 4.621 8.25455 4.18342C8.68432 3.74583 9.26721 3.5 9.875 3.5C13.0833 3.5 14 8.16667 14 8.16667ZM14 8.16667H18.125C18.7328 8.16667 19.3157 7.92083 19.7455 7.48325C20.1752 7.04566 20.4167 6.45217 20.4167 5.83333C20.4167 5.21449 20.1752 4.621 19.7455 4.18342C19.3157 3.74583 18.7328 3.5 18.125 3.5C14.9167 3.5 14 8.16667 14 8.16667ZM5.83333 14H22.1667V20.7667C22.1667 22.0735 22.1667 22.7269 21.9123 23.226C21.6886 23.665 21.3317 24.022 20.8926 24.2457C20.3935 24.5 19.7401 24.5 18.4333 24.5H9.56667C8.25988 24.5 7.60648 24.5 7.10736 24.2457C6.66831 24.022 6.31136 23.665 6.08765 23.226C5.83333 22.7269 5.83333 22.0735 5.83333 20.7667V14ZM5.36667 14H22.6333C23.2867 14 23.6134 14 23.863 13.8728C24.0825 13.761 24.261 13.5825 24.3728 13.363C24.5 13.1134 24.5 12.7867 24.5 12.1333V10.0333C24.5 9.37994 24.5 9.05324 24.3728 8.80368C24.261 8.58416 24.0825 8.40568 23.863 8.29383C23.6134 8.16667 23.2867 8.16667 22.6333 8.16667H5.36667C4.71327 8.16667 4.38657 8.16667 4.13701 8.29383C3.91749 8.40568 3.73901 8.58416 3.62716 8.80368C3.5 9.05324 3.5 9.37994 3.5 10.0333V12.1333C3.5 12.7867 3.5 13.1134 3.62716 13.363C3.73901 13.5825 3.91749 13.761 4.13701 13.8728C4.38657 14 4.71327 14 5.36667 14Z" stroke="#09FBD3" stroke-linecap="round" stroke-linejoin="round"/>
</svg>
