<svg width="28" height="28" viewBox="0 0 28 28" fill="none" xmlns="http://www.w3.org/2000/svg">
<path d="M7.10727 24.2457L7.33427 23.8002L7.10727 24.2457ZM6.08757 23.226L6.53307 22.999L6.08757 23.226ZM21.9123 23.226L21.4668 22.999L21.9123 23.226ZM20.8926 24.2457L20.6656 23.8002L20.8926 24.2457ZM20.8926 3.75432L20.6656 4.19982L20.8926 3.75432ZM21.9123 4.77402L21.4668 5.00102L21.9123 4.77402ZM7.10727 3.75432L7.33427 4.19982L7.10727 3.75432ZM6.08757 4.77402L6.53307 5.00102L6.08757 4.77402ZM15.8333 12.8333C15.8333 13.8459 15.0124 14.6667 13.9999 14.6667V15.6667C15.5647 15.6667 16.8333 14.3981 16.8333 12.8333H15.8333ZM13.9999 14.6667C12.9874 14.6667 12.1666 13.8459 12.1666 12.8333H11.1666C11.1666 14.3981 12.4351 15.6667 13.9999 15.6667V14.6667ZM12.1666 12.8333C12.1666 11.8208 12.9874 11 13.9999 11V10C12.4351 10 11.1666 11.2685 11.1666 12.8333H12.1666ZM13.9999 11C15.0124 11 15.8333 11.8208 15.8333 12.8333H16.8333C16.8333 11.2685 15.5647 10 13.9999 10V11ZM9.56659 4H18.4333V3H9.56659V4ZM21.6666 7.23333V20.7667H22.6666V7.23333H21.6666ZM18.4333 24H9.56658V25H18.4333V24ZM6.33325 20.7667V7.23333H5.33325V20.7667H6.33325ZM9.56658 24C8.90494 24 8.43878 23.9996 8.07477 23.9699C7.7166 23.9406 7.5016 23.8854 7.33427 23.8002L6.88028 24.6912C7.21208 24.8602 7.57333 24.9322 7.99334 24.9665C8.40751 25.0004 8.92144 25 9.56658 25V24ZM5.33325 20.7667C5.33325 21.4118 5.33286 21.9257 5.3667 22.3399C5.40102 22.7599 5.47301 23.1212 5.64207 23.453L6.53307 22.999C6.44781 22.8317 6.39264 22.6166 6.36338 22.2585C6.33364 21.8945 6.33325 21.4283 6.33325 20.7667H5.33325ZM7.33427 23.8002C6.98931 23.6244 6.70884 23.3439 6.53307 22.999L5.64207 23.453C5.91371 23.9861 6.34715 24.4195 6.88028 24.6912L7.33427 23.8002ZM21.6666 20.7667C21.6666 21.4283 21.6662 21.8945 21.6365 22.2585C21.6072 22.6166 21.552 22.8317 21.4668 22.999L22.3578 23.453C22.5268 23.1212 22.5988 22.7599 22.6331 22.3399C22.667 21.9257 22.6666 21.4118 22.6666 20.7667H21.6666ZM18.4333 25C19.0784 25 19.5923 25.0004 20.0065 24.9665C20.4265 24.9322 20.7878 24.8602 21.1196 24.6912L20.6656 23.8002C20.4982 23.8854 20.2832 23.9406 19.9251 23.9699C19.5611 23.9996 19.0949 24 18.4333 24V25ZM21.4668 22.999C21.291 23.3439 21.0105 23.6244 20.6656 23.8002L21.1196 24.6912C21.6527 24.4195 22.0861 23.9861 22.3578 23.453L21.4668 22.999ZM18.4333 4C19.0949 4 19.5611 4.00039 19.9251 4.03013C20.2832 4.05939 20.4982 4.11456 20.6656 4.19982L21.1196 3.30881C20.7878 3.13976 20.4265 3.06777 20.0065 3.03345C19.5923 2.99961 19.0784 3 18.4333 3V4ZM22.6666 7.23333C22.6666 6.58819 22.667 6.07426 22.6331 5.66009C22.5988 5.24008 22.5268 4.87882 22.3578 4.54703L21.4668 5.00102C21.552 5.16835 21.6072 5.38335 21.6365 5.74152C21.6662 6.10553 21.6666 6.57169 21.6666 7.23333H22.6666ZM20.6656 4.19982C21.0105 4.37559 21.291 4.65605 21.4668 5.00102L22.3578 4.54703C22.0861 4.0139 21.6527 3.58046 21.1196 3.30881L20.6656 4.19982ZM9.56659 3C8.92144 3 8.40751 2.99961 7.99334 3.03345C7.57333 3.06777 7.21208 3.13976 6.88028 3.30881L7.33427 4.19982C7.5016 4.11456 7.7166 4.05939 8.07477 4.03013C8.43878 4.00039 8.90494 4 9.56659 4V3ZM6.33325 7.23333C6.33325 6.57169 6.33364 6.10553 6.36338 5.74152C6.39264 5.38335 6.44781 5.16835 6.53307 5.00102L5.64207 4.54703C5.47301 4.87882 5.40102 5.24008 5.3667 5.66009C5.33286 6.07426 5.33325 6.58819 5.33325 7.23333H6.33325ZM6.88028 3.30881C6.34715 3.58046 5.91371 4.0139 5.64207 4.54703L6.53307 5.00102C6.70884 4.65605 6.98931 4.37559 7.33427 4.19982L6.88028 3.30881ZM8.66659 24.5C8.66659 21.5545 11.0544 19.1667 13.9999 19.1667V18.1667C10.5021 18.1667 7.66659 21.0022 7.66659 24.5H8.66659ZM13.9999 19.1667C16.9454 19.1667 19.3333 21.5545 19.3333 24.5H20.3333C20.3333 21.0022 17.4977 18.1667 13.9999 18.1667V19.1667Z" fill="#09FBD3"/>
</svg>
