<svg width="28" height="28" viewBox="0 0 28 28" fill="none" xmlns="http://www.w3.org/2000/svg">
<path d="M7.20609 2.53906C9.01965 2.5709 10.2947 3.21408 11.2925 4.2712C12.1954 5.23915 12.7339 6.34721 13.1536 7.49347C13.7238 9.04093 14.0248 10.633 14.3495 12.225C14.888 14.8296 15.5849 17.4023 16.8995 19.8413C17.343 20.6691 17.8815 21.4524 18.6656 22.1147C18.9744 22.3758 19.3229 22.5987 19.7347 22.7452C20.4791 23.0062 21.1444 22.9107 21.7225 22.4522C22.4352 21.8918 22.8787 21.185 23.251 20.459C24.0825 18.8542 24.5498 17.1603 24.922 15.4536C25.0645 14.7786 25.1833 14.1036 25.2863 13.4286C25.3575 12.9637 25.8485 12.6708 26.4267 12.7344C26.9414 12.7918 27.2899 13.1993 27.2265 13.6451C26.9256 15.7147 26.4583 17.7589 25.6664 19.7458C25.1912 20.9366 24.6131 22.0956 23.639 23.089C23.0371 23.7004 22.3244 24.2035 21.3582 24.3818C19.9485 24.6429 18.7527 24.2671 17.6915 23.5412C16.6619 22.8407 15.965 21.93 15.3869 20.9684C14.1594 18.937 13.4783 16.7718 12.8844 14.5812C12.4725 13.0592 12.2587 11.5118 11.8786 9.98978C11.5697 8.73526 11.1896 7.49347 10.5164 6.3281C10.1284 5.65945 9.66905 5.03537 8.9167 4.57687C7.85549 3.92732 6.62005 3.98463 5.66179 4.7297C4.84609 5.36651 4.33924 6.1689 3.90367 6.99676C3.08796 8.56332 2.62071 10.2063 2.25642 11.8747C2.13762 12.4288 2.05051 12.9892 1.95548 13.5496C1.87628 14.0335 1.40903 14.3392 0.822992 14.2819C0.300306 14.231 -0.0560706 13.8234 0.0072852 13.3585C0.284467 11.4672 0.735877 9.60769 1.45655 7.79914C1.97924 6.47457 2.62863 5.19457 3.72152 4.09926C4.47387 3.35418 5.37669 2.77468 6.58837 2.60274C6.83388 2.56454 7.07938 2.5518 7.20609 2.53906Z" fill="url(#paint0_linear_413_7025)"/>
<path d="M7.20609 0C9.01965 0.0392143 10.2947 0.831343 11.2925 2.13326C12.1954 3.32537 12.7339 4.69003 13.1536 6.10175C13.7238 8.00756 14.0248 9.96828 14.3495 11.929C14.888 15.1367 15.5849 18.3052 16.8995 21.3091C17.343 22.3286 17.8815 23.2933 18.6656 24.109C18.9744 24.4305 19.3229 24.705 19.7347 24.8854C20.4791 25.207 21.1444 25.0893 21.7225 24.5246C22.4352 23.8345 22.8787 22.9639 23.251 22.0698C24.0825 20.0934 24.5498 18.0072 24.922 15.9053C25.0645 15.074 25.1833 14.2426 25.2863 13.4113C25.3575 12.8388 25.8485 12.478 26.4267 12.5564C26.9414 12.627 27.2899 13.1289 27.2265 13.6779C26.9256 16.2269 26.4583 18.7444 25.6664 21.1914C25.1912 22.658 24.6131 24.0854 23.639 25.3089C23.0371 26.0618 22.3244 26.6814 21.3582 26.901C19.9485 27.2226 18.7527 26.7598 17.6915 25.8658C16.6619 25.003 15.965 23.8815 15.3869 22.6972C14.1594 20.1954 13.4783 17.5288 12.8844 14.8308C12.4725 12.9564 12.2587 11.0506 11.8786 9.17615C11.5697 7.6311 11.1896 6.10175 10.5164 4.6665C10.1284 3.843 9.66905 3.0744 8.9167 2.50972C7.85549 1.70974 6.62005 1.78033 5.66179 2.69794C4.84609 3.48223 4.33924 4.47043 3.90367 5.49C3.08796 7.41935 2.62071 9.4428 2.25642 11.4976C2.13762 12.18 2.05051 12.8701 1.95548 13.5603C1.87628 14.1564 1.40903 14.5328 0.822992 14.4622C0.300306 14.3995 -0.0560706 13.8975 0.0072852 13.325C0.284467 10.9957 0.735877 8.70557 1.45655 6.4782C1.97924 4.84689 2.62863 3.27047 3.72152 1.9215C4.47387 1.00389 5.37669 0.290186 6.58837 0.0784286C6.83388 0.0313714 7.07938 0.0156857 7.20609 0Z" fill="url(#paint1_linear_413_7025)"/>
<path d="M7.20609 4.96204C9.01965 4.98684 10.2947 5.48784 11.2925 6.31128C12.1954 7.06526 12.7339 7.92838 13.1536 8.82126C13.7238 10.0266 14.0248 11.2668 14.3495 12.5069C14.888 14.5357 15.5849 16.5397 16.8995 18.4396C17.343 19.0844 17.8815 19.6945 18.6656 20.2104C18.9744 20.4138 19.3229 20.5874 19.7347 20.7015C20.4791 20.9049 21.1444 20.8305 21.7225 20.4733C22.4352 20.0368 22.8787 19.4862 23.251 18.9207C24.0825 17.6707 24.5498 16.3512 24.922 15.0218C25.0645 14.496 25.1833 13.9702 25.2863 13.4444C25.3575 13.0823 25.8485 12.8541 26.4267 12.9037C26.9414 12.9483 27.2899 13.2658 27.2265 13.613C26.9256 15.2252 26.4583 16.8175 25.6664 18.3651C25.1912 19.2928 24.6131 20.1956 23.639 20.9694C23.0371 21.4456 22.3244 21.8375 21.3582 21.9763C19.9485 22.1797 18.7527 21.8871 17.6915 21.3216C16.6619 20.7759 15.965 20.0666 15.3869 19.3176C14.1594 17.7352 13.4783 16.0486 12.8844 14.3422C12.4725 13.1567 12.2587 11.9513 11.8786 10.7658C11.5697 9.78855 11.1896 8.82126 10.5164 7.9135C10.1284 7.39265 9.66905 6.90653 8.9167 6.54938C7.85549 6.04341 6.62005 6.08806 5.66179 6.66843C4.84609 7.16447 4.33924 7.78949 3.90367 8.43435C3.08796 9.65461 2.62071 10.9344 2.25642 12.234C2.13763 12.6656 2.05051 13.1021 1.95548 13.5386C1.87628 13.9156 1.40903 14.1537 0.822992 14.1091C0.300307 14.0694 -0.0560706 13.7519 0.00728519 13.3898C0.284467 11.9166 0.735878 10.4681 1.45655 9.05936C1.97924 8.02759 2.62863 7.03054 3.72152 6.17734C4.47387 5.59697 5.37669 5.14557 6.58837 5.01164C6.83388 4.98188 7.07938 4.97196 7.20609 4.96204Z" fill="url(#paint2_linear_413_7025)"/>
<defs>
<linearGradient id="paint0_linear_413_7025" x1="13.6183" y1="-0.140229" x2="13.6183" y2="25.3091" gradientUnits="userSpaceOnUse">
<stop offset="0.0874372" stop-color="#58F0EC" stop-opacity="0"/>
<stop offset="0.536458" stop-color="#50D9D6"/>
<stop offset="1" stop-color="#58F0EC" stop-opacity="0"/>
</linearGradient>
<linearGradient id="paint1_linear_413_7025" x1="13.6183" y1="-3.29976" x2="13.6183" y2="28.0431" gradientUnits="userSpaceOnUse">
<stop offset="0.0874372" stop-color="#58F0EC" stop-opacity="0"/>
<stop offset="0.536458" stop-color="#50D9D6"/>
<stop offset="1" stop-color="#58F0EC" stop-opacity="0"/>
</linearGradient>
<linearGradient id="paint2_linear_413_7025" x1="13.617" y1="4.96204" x2="13.617" y2="22.041" gradientUnits="userSpaceOnUse">
<stop stop-color="#58F0EC"/>
<stop offset="0.479167" stop-color="#4ED5D2"/>
<stop offset="1" stop-color="#58F0EC"/>
</linearGradient>
</defs>
</svg>
