<svg width="16" height="16" viewBox="0 0 16 16" fill="none" xmlns="http://www.w3.org/2000/svg">
<path d="M8 10.6667L8.35355 11.0203C8.15829 11.2156 7.84171 11.2156 7.64645 11.0203L8 10.6667ZM11.6464 6.31319C11.8417 6.11793 12.1583 6.11793 12.3536 6.31319C12.5488 6.50846 12.5488 6.82504 12.3536 7.0203L11.6464 6.31319ZM3.64645 7.0203C3.45118 6.82504 3.45118 6.50846 3.64645 6.31319C3.84171 6.11793 4.15829 6.11793 4.35355 6.31319L3.64645 7.0203ZM7.64645 10.3132L11.6464 6.31319L12.3536 7.0203L8.35355 11.0203L7.64645 10.3132ZM7.64645 11.0203L3.64645 7.0203L4.35355 6.31319L8.35355 10.3132L7.64645 11.0203Z" fill="#6962DC"/>
</svg>
