<svg width="102" height="109" viewBox="0 0 102 109" fill="none" xmlns="http://www.w3.org/2000/svg">
<g filter="url(#filter0_d_231_1971)">
<mask id="mask0_231_1971" style="mask-type:alpha" maskUnits="userSpaceOnUse" x="8" y="3" width="86" height="86">
<rect x="8" y="3" width="86" height="86" fill="#D9D9D9"/>
</mask>
<g mask="url(#mask0_231_1971)">
<mask id="mask1_231_1971" style="mask-type:alpha" maskUnits="userSpaceOnUse" x="8" y="3" width="86" height="86">
<rect x="8" y="3" width="85.1145" height="85.1145" rx="42.5573" fill="#191744"/>
</mask>
<g mask="url(#mask1_231_1971)">
<path d="M23.6736 28.082C20.6512 37.9858 17.6365 47.9181 14.6141 57.8219C13.9635 59.9493 14.3628 62.009 15.1114 64.0056C17.4315 70.1587 19.8009 76.268 22.064 82.4363C22.1459 82.628 22.2201 82.7912 22.2867 82.9259C21.945 83.0174 21.5749 83.1166 21.2332 83.2082C20.3221 83.4523 20.0435 83.8932 20.3161 84.7966C20.9397 87.0099 21.5709 89.2516 22.109 91.4877C22.3628 92.5488 22.8606 92.8121 23.878 92.509C26.653 91.7044 29.4794 90.9776 32.2697 90.2299C35.06 89.4823 37.8427 88.7061 40.6767 88.0078C41.7378 87.754 42.0088 87.2847 41.698 86.2388C41.046 84.0332 40.4718 81.7763 39.9052 79.5478C39.661 78.6367 39.2278 78.3865 38.3167 78.6307C37.6049 78.8214 36.8931 79.0121 36.2097 79.1952C36.2021 79.1668 36.2021 79.1668 36.223 79.1307C36.0661 76.6093 36.5322 74.1346 36.9052 71.6544C37.457 67.9055 36.87 64.4619 35.0052 61.1469C32.6172 56.9042 30.4493 52.5718 28.1467 48.3062C27.4159 46.9456 26.2058 46.4154 24.9835 46.865C23.7612 47.3146 23.2478 48.2456 23.3119 49.5101C23.3333 49.9316 23.5408 50.3643 23.733 50.74C25.2292 53.818 26.7329 56.9245 28.229 60.0025C28.3109 60.1942 28.4136 60.3498 28.4955 60.5414C28.7488 61.1449 28.9888 61.813 28.2165 62.2336C27.465 62.618 27.0486 62.0888 26.7307 61.472C26.1617 60.3733 25.6288 59.2955 25.0882 58.1891C23.9994 55.948 22.8745 53.686 21.8142 51.4372C20.6512 49.0329 21.313 46.7194 23.5917 45.3154C24.2501 44.9253 24.578 44.4407 24.7595 43.7513C26.0241 39.018 27.3172 34.2771 28.5742 29.5154C29.0448 27.7414 28.3863 26.4225 26.899 25.9971C25.391 25.6078 24.2012 26.2927 23.6736 28.082Z" fill="url(#paint0_linear_231_1971)"/>
<path d="M77.6438 28.082C80.6661 37.9858 83.6809 47.9181 86.7033 57.8219C87.3539 59.9493 86.9546 62.009 86.206 64.0056C83.8859 70.1587 81.5165 76.268 79.2534 82.4363C79.1715 82.628 79.0973 82.7912 79.0307 82.9259C79.3723 83.0174 79.7425 83.1166 80.0841 83.2082C80.9953 83.4523 81.2739 83.8932 81.0012 84.7966C80.3777 87.0099 79.7465 89.2516 79.2084 91.4877C78.9546 92.5488 78.4568 92.8121 77.4394 92.509C74.6644 91.7044 71.838 90.9776 69.0477 90.2299C66.2574 89.4823 63.4747 88.7061 60.6407 88.0078C59.5796 87.754 59.3086 87.2847 59.6193 86.2388C60.2714 84.0332 60.8456 81.7763 61.4122 79.5478C61.6563 78.6367 62.0896 78.3865 63.0007 78.6307C63.7125 78.8214 64.4243 79.0121 65.1076 79.1952C65.1153 79.1668 65.1153 79.1668 65.0944 79.1307C65.2512 76.6093 64.7852 74.1346 64.4122 71.6544C63.8604 67.9055 64.4474 64.4619 66.3122 61.147C68.7002 56.9042 70.8681 52.5718 73.1707 48.3062C73.9015 46.9456 75.1116 46.4154 76.3339 46.865C77.5562 47.3146 78.0696 48.2456 78.0054 49.5101C77.9841 49.9316 77.7766 50.3643 77.5844 50.74C76.0882 53.818 74.5845 56.9245 73.0884 60.0025C73.0065 60.1942 72.9038 60.3498 72.8219 60.5414C72.5686 61.1449 72.3286 61.813 73.1009 62.2336C73.8523 62.618 74.2688 62.0888 74.5866 61.4721C75.1557 60.3733 75.6886 59.2955 76.2292 58.1891C77.318 55.948 78.4429 53.686 79.5032 51.4372C80.6662 49.0329 80.0044 46.7194 77.7257 45.3154C77.0672 44.9253 76.7393 44.4407 76.5579 43.7513C75.2933 39.018 74.0002 34.2771 72.7432 29.5154C72.2725 27.7414 72.9311 26.4225 74.4183 25.9971C75.9264 25.6078 77.1161 26.2927 77.6438 28.082Z" fill="url(#paint1_linear_231_1971)"/>
</g>
<rect x="40.9824" y="8.07153" width="19.1508" height="19.1508" rx="9.57538" fill="url(#paint2_linear_231_1971)"/>
<path d="M50.6944 11.9014L50.6182 12.1539V19.4803L50.6944 19.5544L54.181 17.5442L50.6944 11.9014Z" fill="#C1CCF8"/>
<path d="M50.6928 11.9014L47.2061 17.5442L50.6928 19.5544V15.9984V11.9014Z" fill="white"/>
<path d="M50.6933 20.1986L50.6504 20.2497V22.8595L50.6933 22.9818L54.1821 18.1895L50.6933 20.1986Z" fill="#C1CCF8"/>
<path d="M50.6928 22.9818V20.1986L47.2061 18.1895L50.6928 22.9818Z" fill="white"/>
<path d="M50.6934 19.5548L54.18 17.5446L50.6934 15.9988V19.5548Z" fill="#8197EE"/>
<path d="M47.2061 17.5446L50.6928 19.5548V15.9988L47.2061 17.5446Z" fill="#C1CCF8"/>
<rect x="51.835" y="27.8611" width="19.1508" height="19.1508" rx="9.57538" fill="url(#paint3_linear_231_1971)"/>
<path d="M56.8111 37.5924L56.8186 40.3464L59.1586 41.7234V43.3358L55.4491 41.1601V36.7871L56.8111 37.5924ZM56.8111 34.8384V36.4432L55.4482 35.6371V34.0322L56.8111 33.2261L58.1805 34.0322L56.8111 34.8384ZM60.1359 34.0322L61.4987 33.2261L62.8682 34.0322L61.4987 34.8384L60.1359 34.0322Z" fill="white"/>
<path d="M57.7959 39.7756V38.1632L59.1587 38.9694V40.5742L57.7959 39.7756ZM60.136 42.3009L61.4988 43.1071L62.8683 42.3009V43.9058L61.4988 44.7119L60.136 43.9058V42.3009ZM64.8228 34.0322L66.1856 33.2261L67.5551 34.0322V35.6371L66.1856 36.4432V34.8384L64.8228 34.0322ZM66.1856 40.3464L66.1931 37.5924L67.5559 36.7862V41.1593L63.8464 43.3349V41.7226L66.1856 40.3464Z" fill="white"/>
<path d="M65.2085 39.7754L63.8457 40.5741V38.9693L65.2085 38.1631V39.7754Z" fill="white"/>
<path d="M65.2083 35.4087L65.2158 37.0211L62.8691 38.3981V41.1588L61.5063 41.9574L60.1435 41.1588V38.3981L57.7967 37.0211V35.4087L59.1654 34.6026L61.4979 35.9863L63.8447 34.6026L65.2142 35.4087H65.2083ZM57.7959 32.6556L61.4988 30.4724L65.2083 32.6556L63.8455 33.4618L61.4988 32.0781L59.1587 33.4618L57.7959 32.6556Z" fill="white"/>
<rect x="30.1299" y="27.8606" width="19.1508" height="19.1508" rx="9.57538" fill="url(#paint4_linear_231_1971)"/>
<path fill-rule="evenodd" clip-rule="evenodd" d="M37.1031 41.2228H35.3467C34.9776 41.2228 34.7953 41.2228 34.6841 41.1494C34.564 41.069 34.4907 40.9358 34.4818 40.7888C34.4751 40.6534 34.5663 40.488 34.7486 40.1574L39.0854 32.2623C39.2699 31.927 39.3633 31.7594 39.4811 31.6974C39.6079 31.6308 39.7591 31.6308 39.8858 31.6974C40.0036 31.7594 40.097 31.927 40.2815 32.2623L41.1731 33.8697L41.1776 33.8779C41.377 34.2375 41.478 34.4199 41.5222 34.6114C41.5711 34.8203 41.5711 35.0408 41.5222 35.2497C41.4777 35.4426 41.3776 35.6263 41.1753 35.9914L38.8973 40.1505L38.8914 40.1611C38.6908 40.5238 38.5891 40.7076 38.4482 40.8462C38.2948 40.9978 38.1102 41.108 37.9079 41.1701C37.7234 41.2228 37.5166 41.2228 37.1031 41.2228ZM41.5386 41.2228H44.0553C44.4266 41.2228 44.6134 41.2228 44.7247 41.1472C44.8447 41.0668 44.9202 40.9312 44.927 40.7844C44.9334 40.6533 44.8442 40.4943 44.6695 40.1829C44.6634 40.1723 44.6574 40.1615 44.6513 40.1505L43.3906 37.9231L43.3763 37.8981C43.1991 37.5887 43.1097 37.4324 42.9949 37.372C42.8682 37.3054 42.7191 37.3054 42.5925 37.372C42.4768 37.434 42.3835 37.5971 42.1989 37.9254L40.9428 40.1528L40.9384 40.1605C40.7546 40.4883 40.6627 40.6522 40.6693 40.7866C40.6782 40.9336 40.7515 41.069 40.8716 41.1494C40.9806 41.2228 41.1673 41.2228 41.5386 41.2228Z" fill="white"/>
</g>
</g>
<defs>
<filter id="filter0_d_231_1971" x="0.287109" y="0.0715332" width="100.743" height="108.043" filterUnits="userSpaceOnUse" color-interpolation-filters="sRGB">
<feFlood flood-opacity="0" result="BackgroundImageFix"/>
<feColorMatrix in="SourceAlpha" type="matrix" values="0 0 0 0 0 0 0 0 0 0 0 0 0 0 0 0 0 0 127 0" result="hardAlpha"/>
<feOffset dy="6"/>
<feGaussianBlur stdDeviation="7"/>
<feComposite in2="hardAlpha" operator="out"/>
<feColorMatrix type="matrix" values="0 0 0 0 0.0745098 0 0 0 0 0.0745098 0 0 0 0 0.192157 0 0 0 0.4 0"/>
<feBlend mode="normal" in2="BackgroundImageFix" result="effect1_dropShadow_231_1971"/>
<feBlend mode="normal" in="SourceGraphic" in2="effect1_dropShadow_231_1971" result="shape"/>
</filter>
<linearGradient id="paint0_linear_231_1971" x1="36.2553" y1="82.0676" x2="36.2553" y2="27.6457" gradientUnits="userSpaceOnUse">
<stop stop-color="#A3ABF8"/>
<stop offset="1" stop-color="#7770E0"/>
</linearGradient>
<linearGradient id="paint1_linear_231_1971" x1="75.6448" y1="80.0519" x2="75.6448" y2="24.9582" gradientUnits="userSpaceOnUse">
<stop stop-color="#A3ABF8"/>
<stop offset="1" stop-color="#7770E0"/>
</linearGradient>
<linearGradient id="paint2_linear_231_1971" x1="60.1332" y1="27.2223" x2="40.9824" y2="8.07153" gradientUnits="userSpaceOnUse">
<stop stop-color="#556ECC"/>
<stop offset="1" stop-color="#627EEA"/>
</linearGradient>
<linearGradient id="paint3_linear_231_1971" x1="70.9857" y1="47.0119" x2="51.835" y2="27.8611" gradientUnits="userSpaceOnUse">
<stop stop-color="#D1A000"/>
<stop offset="1" stop-color="#FFD632"/>
</linearGradient>
<linearGradient id="paint4_linear_231_1971" x1="49.2806" y1="47.0114" x2="30.1299" y2="27.8606" gradientUnits="userSpaceOnUse">
<stop stop-color="#D91D1E"/>
<stop offset="1" stop-color="#FF7576"/>
</linearGradient>
</defs>
</svg>
