<svg width="16" height="16" viewBox="0 0 16 16" fill="none" xmlns="http://www.w3.org/2000/svg">
<path d="M12 5.33341V4.80008C12 4.05334 12 3.67998 11.8547 3.39476C11.7268 3.14388 11.5229 2.9399 11.272 2.81207C10.9868 2.66675 10.6134 2.66675 9.86667 2.66675H4.13333C3.3866 2.66675 3.01323 2.66675 2.72801 2.81207C2.47713 2.9399 2.27316 3.14388 2.14532 3.39476C2 3.67998 2 4.05334 2 4.80008V5.33341M14 8.00008H12.6667C11.9303 8.00008 11.3333 8.59704 11.3333 9.33341C11.3333 10.0698 11.9303 10.6667 12.6667 10.6667H14M2 5.33341V11.2001C2 11.9468 2 12.3202 2.14532 12.6054C2.27316 12.8563 2.47713 13.0603 2.72801 13.1881C3.01323 13.3334 3.3866 13.3334 4.13333 13.3334H11.8667C12.6134 13.3334 12.9868 13.3334 13.272 13.1881C13.5229 13.0603 13.7268 12.8563 13.8547 12.6054C14 12.3202 14 11.9468 14 11.2001V7.46675C14 6.72001 14 6.34664 13.8547 6.06143C13.7268 5.81054 13.5229 5.60657 13.272 5.47874C12.9868 5.33341 12.6134 5.33341 11.8667 5.33341H2Z" stroke="#7770E0" stroke-linecap="round" stroke-linejoin="round"/>
</svg>
