<svg width="24" height="24" viewBox="0 0 24 24" fill="none" xmlns="http://www.w3.org/2000/svg">
<circle cx="12" cy="12" r="12" fill="white"/>
<path fill-rule="evenodd" clip-rule="evenodd" d="M8.50682 16.7757H6.17796C5.68859 16.7757 5.44687 16.7757 5.29948 16.6814C5.14029 16.5782 5.04301 16.4072 5.03122 16.2185C5.02236 16.0447 5.14324 15.8323 5.38497 15.4078L11.1352 5.27222C11.3799 4.84182 11.5037 4.62661 11.6599 4.54702C11.828 4.46154 12.0284 4.46154 12.1965 4.54702C12.3527 4.62661 12.4765 4.84182 12.7212 5.27222L13.9033 7.33577L13.9094 7.3463C14.1736 7.80804 14.3076 8.04219 14.3662 8.28794C14.431 8.55621 14.431 8.8392 14.3662 9.10747C14.3072 9.35509 14.1745 9.59094 13.9063 10.0597L10.8858 15.399L10.878 15.4127C10.612 15.8782 10.4772 16.1142 10.2903 16.2922C10.0869 16.4868 9.84224 16.6282 9.57397 16.7079C9.32929 16.7757 9.05514 16.7757 8.50682 16.7757ZM14.388 16.7757H17.725C18.2173 16.7757 18.4649 16.7757 18.6124 16.6785C18.7716 16.5753 18.8718 16.4013 18.8807 16.2127C18.8892 16.0445 18.7709 15.8404 18.5392 15.4406C18.5312 15.427 18.5233 15.4131 18.5151 15.399L16.8436 12.5396L16.8246 12.5074C16.5897 12.1102 16.4711 11.9096 16.3188 11.8321C16.1509 11.7466 15.9532 11.7466 15.7853 11.8321C15.632 11.9117 15.5082 12.121 15.2635 12.5425L13.5979 15.402L13.5922 15.4118C13.3484 15.8327 13.2265 16.0431 13.2353 16.2156C13.2471 16.4043 13.3444 16.5782 13.5036 16.6814C13.648 16.7757 13.8957 16.7757 14.388 16.7757Z" fill="#E84142"/>
</svg>
