<svg width="24" height="24" viewBox="0 0 24 24" fill="none" xmlns="http://www.w3.org/2000/svg">
<circle cx="12" cy="12" r="12" fill="white"/>
<path d="M11.9992 4.28564L11.8931 4.63724V14.839L11.9992 14.9422L16.8542 12.1431L11.9992 4.28564Z" fill="#219EE1"/>
<path d="M11.9982 4.28564L7.14307 12.1431L11.9982 14.9422V9.9906V4.28564Z" fill="#32B1F7"/>
<path d="M11.9993 15.8387L11.9395 15.9099V19.5439L11.9993 19.7142L16.8573 13.041L11.9993 15.8387Z" fill="#1D91D0"/>
<path d="M11.9982 19.7142V15.8387L7.14307 13.041L11.9982 19.7142Z" fill="#21A1E7"/>
<path d="M11.9976 14.9419L16.8526 12.1427L11.9976 9.99023V14.9419Z" fill="#1D91D0"/>
<path d="M7.14307 12.1427L11.9982 14.9419V9.99023L7.14307 12.1427Z" fill="#21A1E7"/>
<rect x="10.5718" y="7.42773" width="0.857143" height="0.857143" fill="white"/>
<rect x="10.5718" y="8.85645" width="0.857143" height="0.857143" fill="white"/>
</svg>
