<svg width="145" height="47" viewBox="0 0 145 47" fill="none" xmlns="http://www.w3.org/2000/svg">
<path d="M46.8342 3.99545C46.799 3.78377 46.746 3.59855 46.5079 3.51917C46.2698 3.44861 46.1286 3.58091 45.9787 3.73085C45.2025 4.507 44.4264 5.27434 43.659 6.0505C43.5444 6.16516 43.4474 6.20044 43.2798 6.14752C42.7241 5.95348 42.1685 5.77708 41.6128 5.58304C41.5158 5.54776 41.41 5.45074 41.3747 5.35372C41.1718 4.78924 40.9866 4.20713 40.7926 3.64265C40.7396 3.50153 40.7749 3.42215 40.8719 3.32513C41.6569 2.54015 42.4419 1.75517 43.2269 0.970197C43.3768 0.820257 43.5003 0.661498 43.4297 0.432179C43.3592 0.211679 43.1739 0.158759 42.9711 0.12348C42.7682 0.0881997 42.5566 0.0440998 42.3537 0C42.0626 0 41.7628 0 41.4717 0C41.357 0.0176399 41.2336 0.0440999 41.1189 0.0617398C38.3494 0.564478 36.5854 2.99879 36.9735 5.76826C37 5.94466 36.9559 6.0505 36.8324 6.17398C35.8181 7.18828 34.8038 8.20257 33.7807 9.21687C33.4632 9.53439 33.1456 9.85191 32.8281 10.1694C33.0222 10.3635 33.225 10.5663 33.4191 10.7604C34.3363 11.6776 35.2536 12.5949 36.1709 13.5122C36.3649 13.7062 36.5678 13.9091 36.7618 14.1031L37.7497 13.1506L38.9051 11.9952C39.5401 11.3601 40.1752 10.7251 40.8102 10.09C40.916 9.97539 41.0219 9.94893 41.1718 9.97539C43.8266 10.434 46.4462 8.56419 46.8783 5.90056C46.8872 5.84764 46.9136 5.79472 46.9224 5.7418C46.9224 5.26552 46.9224 4.79806 46.9224 4.32179C46.896 4.21595 46.8519 4.11011 46.8342 3.99545Z" fill="#A4AAB6"/>
<path d="M44.4521 41.551C44.311 41.11 44.1699 40.6602 43.8612 40.2986C43.7377 40.1486 43.6054 39.9987 43.4731 39.8576C42.009 38.3934 40.5537 36.9293 39.0896 35.474C38.7632 35.1477 38.6221 35.1477 38.2781 35.4652C38.04 35.6945 37.7842 35.7122 37.599 35.5181C37.4138 35.3241 37.4403 35.0948 37.6608 34.8566C37.9871 34.5127 37.9871 34.3715 37.6431 34.0276C37.4138 33.7982 37.1845 33.5689 36.9552 33.3396C36.9463 33.3308 36.9375 33.3131 36.9199 33.2867C36.9287 33.2779 36.9287 33.269 36.9375 33.269C35.4469 34.7596 33.9652 36.2414 32.4746 37.7408C32.4834 37.7319 32.5011 37.7231 32.5187 37.7143C32.7745 37.9701 33.0126 38.2347 33.2684 38.4816C33.5683 38.7815 33.727 38.7815 34.0357 38.4905C34.0887 38.4464 34.1328 38.3934 34.1857 38.3582C34.3621 38.2435 34.5826 38.2611 34.7237 38.4023C34.8648 38.5434 34.8913 38.7639 34.7766 38.9403C34.7237 39.0197 34.6531 39.0902 34.5826 39.1608C34.3797 39.3813 34.3621 39.5841 34.5826 39.7958C36.1437 41.357 37.696 42.9446 39.2836 44.4792C40.5978 45.7405 42.7763 45.5023 43.8612 44.047C44.1434 43.6678 44.3022 43.2356 44.4433 42.7858C44.5315 42.5388 44.5315 42.3801 44.5315 42.186C44.5403 41.9567 44.5403 41.9038 44.4521 41.551Z" fill="#A4AAB6"/>
<path d="M12.7976 37.2467C11.8716 36.3206 10.9455 35.3945 10.0194 34.4684C9.8165 34.2656 9.62246 34.0715 9.4196 33.8687C8.7581 34.5302 8.0966 35.1916 7.43511 35.862C7.31163 35.9854 7.19697 36.0295 7.02057 36.0031C6.23559 35.862 5.45943 35.9325 4.70974 36.1795C1.55219 37.2467 0.246832 40.8452 1.99319 43.6853C3.69544 46.4636 7.73498 46.8605 9.93998 44.4703C11.0425 43.2796 11.4835 41.8772 11.2806 40.2631C11.263 40.1397 11.2806 39.9721 11.36 39.8927C12.0215 39.2136 12.6918 38.5432 13.3621 37.8817C13.3709 37.8729 13.3886 37.8641 13.4062 37.8465C13.2034 37.6524 13.0005 37.4496 12.7976 37.2467ZM7.39101 42.5299C7.33809 42.6092 7.21461 42.6798 7.12641 42.6798C6.56193 42.6974 5.98863 42.6974 5.42415 42.6798C5.33595 42.6798 5.21247 42.6004 5.15955 42.521C4.8685 42.0712 4.59508 41.6126 4.33048 41.1451C4.28638 41.0657 4.28638 40.9246 4.33048 40.8452C4.59508 40.3778 4.8685 39.9192 5.15955 39.4693C5.21247 39.39 5.33595 39.3194 5.42415 39.3194C5.71521 39.3018 5.99745 39.3106 6.28851 39.3106C6.56193 39.3106 6.83535 39.3194 7.09995 39.3106C7.24107 39.3106 7.32927 39.3459 7.39983 39.4693C7.66443 39.9368 7.93784 40.3954 8.2289 40.8452C8.29946 40.9599 8.29064 41.0393 8.22008 41.1539C7.94666 41.6126 7.68207 42.0712 7.39101 42.5299Z" fill="#A4AAB6"/>
<path d="M16.8546 14.3852C16.5988 14.1294 16.3431 13.8736 16.0873 13.6179C14.1557 11.6775 12.2418 9.71062 10.2573 7.83197C9.2959 6.91469 8.6344 5.92685 8.48446 4.61268C8.42272 4.03938 8.1052 3.68658 7.59364 3.41316C6.19127 2.64582 4.81535 1.82557 3.43062 1.02295C3.30714 1.02295 3.18366 1.02295 3.05136 1.02295C2.92788 1.11115 2.79558 1.19053 2.69856 1.28755C1.8783 2.09017 1.06687 2.89278 0.26425 3.70422C-0.0532686 4.03056 -0.0797285 4.2687 0.158411 4.68324C0.961028 6.09443 1.75483 7.50563 2.57508 8.89918C2.70738 9.11968 2.9808 9.3049 3.22776 9.3931C3.83634 9.59596 4.47138 9.7018 5.07995 9.88702C5.30927 9.95758 5.54741 10.0811 5.71499 10.2398C8.017 12.5242 10.3014 14.8174 12.5946 17.1106C12.8503 17.3664 13.1061 17.6221 13.3707 17.8867C13.3795 17.8955 13.3884 17.9044 13.3972 17.922C13.7059 17.6133 14.0058 17.3134 14.3145 17.0047C14.8701 16.4491 15.4258 15.8934 15.9814 15.3466C16.2813 15.0467 16.59 14.738 16.8899 14.4381C16.8811 14.4117 16.8634 14.4028 16.8546 14.3852Z" fill="#A4AAB6"/>
<path d="M20.8402 5.91797C22.3925 5.91797 23.936 5.91797 25.4884 5.91797C26.0176 6.10319 26.2645 6.50009 26.388 7.02928C26.6614 8.20234 26.9613 9.3754 27.2435 10.5485C27.2964 10.7601 27.3846 10.8836 27.5963 10.963C28.1784 11.1835 28.7429 11.4305 29.3162 11.6774C29.5103 11.7656 29.6514 11.7656 29.8366 11.6509C30.7539 11.0865 31.68 10.5396 32.6061 9.98397C33.2764 9.58708 33.6909 9.63118 34.2378 10.178C35.1286 11.06 36.0106 11.9508 36.9014 12.8416C37.4659 13.4061 37.5188 13.8207 37.1131 14.4998C36.5574 15.4259 35.9929 16.3432 35.4549 17.2781C35.3844 17.4016 35.3755 17.6132 35.4285 17.7544C35.649 18.3453 35.9224 18.9186 36.1517 19.5095C36.2311 19.7212 36.3546 19.8094 36.5662 19.8623C37.7481 20.1446 38.93 20.4533 40.1207 20.7267C40.6411 20.8502 41.0203 21.106 41.1967 21.6087C41.1967 23.161 41.1967 24.7045 41.1967 26.2568C41.0115 26.7684 40.6411 27.0242 40.1207 27.1388C38.93 27.4122 37.7569 27.7209 36.5662 28.0032C36.3457 28.0561 36.2311 28.1443 36.1517 28.356C35.9312 28.9204 35.7019 29.4849 35.4461 30.0406C35.3579 30.2346 35.3755 30.3757 35.4814 30.5521C36.0282 31.443 36.5574 32.3426 37.0954 33.2334C37.5188 33.9478 37.4747 34.3447 36.9014 34.9268C36.0194 35.8088 35.1462 36.6908 34.2642 37.564C33.6909 38.1285 33.2676 38.1814 32.5708 37.7581C31.6712 37.22 30.7803 36.682 29.8807 36.1528C29.766 36.0823 29.572 36.0823 29.4397 36.1264C28.8223 36.3733 28.2137 36.6467 27.5963 36.8937C27.4023 36.9731 27.2965 37.0701 27.2524 37.2818C26.9613 38.4989 26.6614 39.7161 26.3527 40.9332C26.1675 41.6653 25.8323 41.9387 25.0826 41.9387C23.8037 41.9387 22.5248 41.9387 21.246 41.9387C20.5227 41.9387 20.1699 41.6653 19.9935 40.9597C19.6936 39.7426 19.3849 38.5254 19.0939 37.3082C19.041 37.0701 18.9175 36.9643 18.7058 36.8761C18.1413 36.6556 17.5768 36.4174 17.0212 36.1705C16.8095 36.0734 16.6507 36.0646 16.4479 36.1969C15.5924 36.7261 14.7192 37.2377 13.8548 37.7581C13.1669 38.1638 12.7435 38.1197 12.1878 37.564C11.2882 36.7085 10.4062 35.8177 9.51539 34.9357C8.96855 34.3888 8.91563 33.9567 9.30371 33.304C9.83291 32.422 10.3621 31.5312 10.9001 30.6492C11.006 30.4816 11.006 30.3493 10.9266 30.1729C10.662 29.5908 10.415 28.991 10.1769 28.3913C10.0975 28.1796 9.98285 28.0826 9.76235 28.0296C8.54519 27.7386 7.32804 27.4387 6.11088 27.13C5.40529 26.9536 5.12305 26.6008 5.12305 25.8864C5.12305 24.6075 5.12305 23.3286 5.12305 22.0497C5.12305 21.3 5.39647 20.956 6.1197 20.7708C7.33686 20.4709 8.55402 20.1622 9.77117 19.8712C9.97403 19.8182 10.0887 19.7389 10.1592 19.536C10.3445 19.0156 10.5561 18.5129 10.7855 18.0101C10.8648 17.8249 10.856 17.6926 10.759 17.525C10.1504 16.5196 9.55067 15.5141 8.95091 14.5086C8.56284 13.8559 8.61576 13.4061 9.15377 12.8681C10.0358 11.9773 10.9266 11.0953 11.8174 10.2045C12.3819 9.64 12.7964 9.58708 13.4756 10.0016C14.4369 10.5837 15.3983 11.1659 16.3773 11.7303C16.5008 11.8009 16.7125 11.8097 16.8536 11.7568C17.4886 11.5098 18.0972 11.2276 18.7323 10.9718C18.9439 10.8924 19.041 10.769 19.0851 10.5573C19.3673 9.3754 19.676 8.19352 19.9494 7.00283C20.0729 6.47363 20.3287 6.10319 20.8402 5.91797ZM30.551 23.946C30.551 19.88 27.2259 16.5549 23.1599 16.5549C19.0939 16.5549 15.7688 19.88 15.7688 23.946C15.7688 28.012 19.0939 31.3371 23.1599 31.3371C27.2259 31.3371 30.551 28.012 30.551 23.946Z" fill="url(#paint0_linear_285_1188)"/>
<path d="M23.1959 34.7595C29.1387 34.7595 33.9563 29.9419 33.9563 23.9991C33.9563 18.0563 29.1387 13.2388 23.1959 13.2388C17.2531 13.2388 12.4355 18.0563 12.4355 23.9991C12.4355 29.9419 17.2531 34.7595 23.1959 34.7595Z" stroke="white" stroke-width="4" stroke-miterlimit="10"/>
<path d="M23.1517 15.2676C27.9762 15.2676 31.8835 19.1748 31.8835 23.9993C31.8835 28.8239 27.9762 32.7311 23.1517 32.7311C18.3272 32.7311 14.4199 28.8239 14.4199 23.9993C14.4199 19.1748 18.3272 15.2676 23.1517 15.2676Z" fill="#DB2728"/>
<path d="M20.5055 25.9486C20.285 26.028 20.0557 26.0721 19.8087 26.0721C18.6974 26.0721 17.8066 25.1724 17.8066 24.0699C17.8066 22.9586 18.7062 22.0678 19.8087 22.0678C19.8705 22.0678 19.9234 22.0678 19.9851 22.0766V21.2564C19.9322 21.2564 19.8705 21.2476 19.8087 21.2476C18.2476 21.2476 16.9863 22.5088 16.9863 24.0699C16.9863 25.6223 18.2476 26.8923 19.8087 26.8923C20.2674 26.8923 20.6995 26.7865 21.0876 26.5836C20.8671 26.3984 20.6731 26.1867 20.5055 25.9486Z" fill="white"/>
<path d="M21.8116 24.0697C21.8116 24.4754 21.6882 24.8635 21.4765 25.1722C21.6176 25.4103 21.8205 25.6132 22.0586 25.7631C22.4202 25.2957 22.6319 24.7047 22.6319 24.0697V19.7832H21.8205V22.0852C21.6441 21.9088 21.4412 21.7501 21.2207 21.6266V22.6409C21.5911 23.0025 21.8116 23.5052 21.8116 24.0697Z" fill="white"/>
<path d="M25.9747 18.1514C24.4136 18.1514 23.1523 19.4126 23.1523 20.9738C23.1523 20.9826 23.1523 20.9914 23.1523 20.9914V25.2603H23.9638V22.9494C24.2019 23.1964 24.493 23.3904 24.8017 23.5315V22.5966C24.2901 22.235 23.9638 21.6353 23.9638 20.9649C23.9638 19.8624 24.8634 18.9628 25.9659 18.9628C27.0684 18.9628 27.968 19.8624 27.968 20.9649C27.968 22.0498 27.1125 22.9318 26.0365 22.9671V23.7873C27.5623 23.752 28.7883 22.4996 28.7883 20.9649C28.7883 19.4126 27.527 18.1514 25.9747 18.1514Z" fill="white"/>
<path d="M25.0218 24.2551C25.0218 25.3664 24.1222 26.2572 23.0197 26.2572C21.9083 26.2572 21.0175 25.3576 21.0175 24.2551V21.1769V20.4272H20.1973V21.1769C20.1973 21.2122 20.1973 21.2387 20.1973 21.274V24.4756H20.2061C20.3207 25.9309 21.5291 27.0687 23.0108 27.0687C23.7958 27.0687 24.5014 26.7512 25.013 26.2308V27.4568C25.013 28.5681 24.1133 29.4589 23.0108 29.4589C22.4111 29.4589 21.8819 29.1943 21.5114 28.7886C21.3262 28.5769 21.1851 28.3299 21.0969 28.0477L20.4707 28.6739C20.5942 28.9297 20.7529 29.159 20.9381 29.3619C21.4497 29.9264 22.1906 30.2703 23.0108 30.2703C24.1839 30.2703 25.1894 29.5559 25.6127 28.5328C25.7538 28.1976 25.8244 27.836 25.8244 27.4479V24.7049V24.2375V21.4945H25.013V24.2551H25.0218Z" fill="white"/>
<path d="M52.6543 30.1021V18.9547H57.5109C58.7171 18.9547 59.7752 19.1882 60.6852 19.6554C61.5951 20.1225 62.3041 20.7701 62.8119 21.5982C63.3198 22.4263 63.5738 23.403 63.5738 24.5284C63.5738 25.6431 63.3198 26.6199 62.8119 27.4586C62.3041 28.2867 61.5951 28.9343 60.6852 29.4014C59.7752 29.8686 58.7171 30.1021 57.5109 30.1021H52.6543ZM54.7176 28.3504H57.4157C58.2516 28.3504 58.9711 28.1911 59.5742 27.8726C60.1879 27.5541 60.6587 27.1082 60.9867 26.5349C61.3253 25.9616 61.4946 25.2928 61.4946 24.5284C61.4946 23.7534 61.3253 23.0845 60.9867 22.5218C60.6587 21.9485 60.1879 21.5027 59.5742 21.1842C58.9711 20.8657 58.2516 20.7064 57.4157 20.7064H54.7176V28.3504Z" fill="white"/>
<path d="M68.0161 30.1021V25.6909L68.4764 26.9649L63.6515 18.9547H65.8576L69.7302 25.4043H68.4923L72.3966 18.9547H74.4281L69.6033 26.9649L70.0794 25.6909V30.1021H68.0161Z" fill="white"/>
<path d="M75.6243 30.1021V18.9547H80.1953C81.1793 18.9547 82.0205 19.1139 82.7188 19.4324C83.4277 19.7509 83.9726 20.2074 84.3536 20.802C84.7345 21.3965 84.9249 22.1025 84.9249 22.92C84.9249 23.7375 84.7345 24.4435 84.3536 25.038C83.9726 25.6325 83.4277 26.089 82.7188 26.4075C82.0205 26.726 81.1793 26.8853 80.1953 26.8853H76.7671L77.6876 25.9139V30.1021H75.6243ZM77.6876 26.1368L76.7671 25.1335H80.1C81.01 25.1335 81.6925 24.9424 82.1474 24.5602C82.613 24.1674 82.8458 23.6207 82.8458 22.92C82.8458 22.2087 82.613 21.6619 82.1474 21.2797C81.6925 20.8975 81.01 20.7064 80.1 20.7064H76.7671L77.6876 19.6872V26.1368Z" fill="white"/>
<path d="M93.7804 30.1021V20.7064H90.0982V18.9547H99.5258V20.7064H95.8437V30.1021H93.7804Z" fill="white"/>
<path d="M106.125 30.2614C105.257 30.2614 104.459 30.118 103.728 29.8314C102.998 29.5447 102.364 29.1466 101.824 28.637C101.284 28.1168 100.866 27.5117 100.57 26.8216C100.274 26.1209 100.126 25.3565 100.126 24.5284C100.126 23.7003 100.274 22.9412 100.57 22.2511C100.866 21.5504 101.284 20.9453 101.824 20.4357C102.364 19.9155 102.998 19.512 103.728 19.2254C104.459 18.9387 105.252 18.7954 106.109 18.7954C106.977 18.7954 107.77 18.9387 108.49 19.2254C109.22 19.512 109.855 19.9155 110.394 20.4357C110.934 20.9453 111.352 21.5504 111.648 22.2511C111.945 22.9412 112.093 23.7003 112.093 24.5284C112.093 25.3565 111.945 26.1209 111.648 26.8216C111.352 27.5223 110.934 28.1274 110.394 28.637C109.855 29.1466 109.22 29.5447 108.49 29.8314C107.77 30.118 106.982 30.2614 106.125 30.2614ZM106.109 28.4459C106.67 28.4459 107.188 28.3504 107.665 28.1593C108.141 27.9682 108.553 27.6975 108.903 27.3471C109.252 26.9861 109.522 26.5721 109.712 26.105C109.913 25.6272 110.014 25.1017 110.014 24.5284C110.014 23.9551 109.913 23.4349 109.712 22.9677C109.522 22.49 109.252 22.0759 108.903 21.7256C108.553 21.3646 108.141 21.0886 107.665 20.8975C107.188 20.7064 106.67 20.6109 106.109 20.6109C105.548 20.6109 105.03 20.7064 104.554 20.8975C104.088 21.0886 103.676 21.3646 103.316 21.7256C102.967 22.0759 102.692 22.49 102.491 22.9677C102.3 23.4349 102.205 23.9551 102.205 24.5284C102.205 25.0911 102.3 25.6113 102.491 26.089C102.692 26.5668 102.967 26.9861 103.316 27.3471C103.665 27.6975 104.078 27.9682 104.554 28.1593C105.03 28.3504 105.548 28.4459 106.109 28.4459Z" fill="white"/>
<path d="M119.485 30.2614C118.618 30.2614 117.819 30.118 117.089 29.8314C116.359 29.5447 115.724 29.1466 115.184 28.637C114.645 28.1168 114.227 27.5117 113.931 26.8216C113.634 26.1209 113.486 25.3565 113.486 24.5284C113.486 23.7003 113.634 22.9412 113.931 22.2511C114.227 21.5504 114.645 20.9453 115.184 20.4357C115.724 19.9155 116.359 19.512 117.089 19.2254C117.819 18.9387 118.613 18.7954 119.47 18.7954C120.337 18.7954 121.131 18.9387 121.85 19.2254C122.58 19.512 123.215 19.9155 123.755 20.4357C124.294 20.9453 124.712 21.5504 125.009 22.2511C125.305 22.9412 125.453 23.7003 125.453 24.5284C125.453 25.3565 125.305 26.1209 125.009 26.8216C124.712 27.5223 124.294 28.1274 123.755 28.637C123.215 29.1466 122.58 29.5447 121.85 29.8314C121.131 30.118 120.343 30.2614 119.485 30.2614ZM119.47 28.4459C120.03 28.4459 120.549 28.3504 121.025 28.1593C121.501 27.9682 121.914 27.6975 122.263 27.3471C122.612 26.9861 122.882 26.5721 123.072 26.105C123.273 25.6272 123.374 25.1017 123.374 24.5284C123.374 23.9551 123.273 23.4349 123.072 22.9677C122.882 22.49 122.612 22.0759 122.263 21.7256C121.914 21.3646 121.501 21.0886 121.025 20.8975C120.549 20.7064 120.03 20.6109 119.47 20.6109C118.909 20.6109 118.39 20.7064 117.914 20.8975C117.449 21.0886 117.036 21.3646 116.676 21.7256C116.327 22.0759 116.052 22.49 115.851 22.9677C115.66 23.4349 115.565 23.9551 115.565 24.5284C115.565 25.0911 115.66 25.6113 115.851 26.089C116.052 26.5668 116.327 26.9861 116.676 27.3471C117.025 27.6975 117.438 27.9682 117.914 28.1593C118.39 28.3504 118.909 28.4459 119.47 28.4459Z" fill="white"/>
<path d="M127.64 30.1021V18.9547H129.703V28.3504H135.512V30.1021H127.64Z" fill="white"/>
<path d="M140.508 30.2614C139.64 30.2614 138.81 30.1393 138.016 29.8951C137.222 29.6403 136.593 29.3165 136.127 28.9237L136.842 27.3153C137.286 27.6656 137.836 27.9576 138.492 28.1911C139.148 28.4247 139.82 28.5415 140.508 28.5415C141.09 28.5415 141.561 28.4778 141.92 28.3504C142.28 28.223 142.545 28.0531 142.714 27.8408C142.883 27.6178 142.968 27.3683 142.968 27.0923C142.968 26.7526 142.846 26.4819 142.603 26.2801C142.359 26.0678 142.042 25.9032 141.651 25.7865C141.27 25.6591 140.841 25.5423 140.365 25.4361C139.899 25.3299 139.429 25.2079 138.952 25.0698C138.487 24.9212 138.058 24.7354 137.667 24.5125C137.286 24.2789 136.974 23.971 136.73 23.5888C136.487 23.2066 136.365 22.7183 136.365 22.1237C136.365 21.5186 136.524 20.9665 136.842 20.4675C137.17 19.9579 137.662 19.5545 138.318 19.2572C138.984 18.9494 139.825 18.7954 140.841 18.7954C141.508 18.7954 142.169 18.8803 142.825 19.0502C143.481 19.2201 144.052 19.4643 144.539 19.7828L143.888 21.3912C143.391 21.0939 142.878 20.8763 142.349 20.7383C141.82 20.5896 141.312 20.5153 140.825 20.5153C140.254 20.5153 139.788 20.5843 139.429 20.7223C139.079 20.8603 138.82 21.0408 138.651 21.2638C138.492 21.4867 138.413 21.7415 138.413 22.0282C138.413 22.3679 138.529 22.6439 138.762 22.8563C139.005 23.058 139.317 23.2172 139.698 23.334C140.09 23.4508 140.524 23.5676 141 23.6844C141.476 23.7905 141.947 23.9126 142.412 24.0506C142.888 24.1887 143.317 24.3691 143.698 24.5921C144.089 24.815 144.402 25.1176 144.634 25.4998C144.878 25.882 144.999 26.3651 144.999 26.949C144.999 27.5435 144.835 28.0956 144.507 28.6052C144.19 29.1042 143.698 29.5076 143.031 29.8155C142.365 30.1127 141.524 30.2614 140.508 30.2614Z" fill="white"/>
<defs>
<linearGradient id="paint0_linear_285_1188" x1="22.7101" y1="5.91797" x2="23.1952" y2="41.9034" gradientUnits="userSpaceOnUse">
<stop stop-color="#D3DBEB"/>
<stop offset="1" stop-color="#93979F"/>
</linearGradient>
</defs>
</svg>
