<svg width="24" height="24" viewBox="0 0 24 24" fill="none" xmlns="http://www.w3.org/2000/svg">
<circle opacity="0.2" cx="12" cy="12" r="12" fill="#ED636C"/>
<g clip-path="url(#clip0_149_1010)">
<path d="M16.9095 15.2731V15.8186C16.9095 16.4213 16.4213 16.9095 15.8186 16.9095H8.18222C7.57949 16.9095 7.09131 16.4213 7.09131 15.8186V8.18222C7.09131 7.57949 7.57949 7.09131 8.18222 7.09131H15.8186C16.4213 7.09131 16.9095 7.57949 16.9095 8.18222V8.72767H12.0004C11.3977 8.72767 10.9095 9.21585 10.9095 9.81858V14.1822C10.9095 14.7849 11.3977 15.2731 12.0004 15.2731H16.9095ZM12.0004 14.1822H17.4549V9.81858H12.0004V14.1822ZM14.1822 12.8186C13.7295 12.8186 13.364 12.4531 13.364 12.0004C13.364 11.5477 13.7295 11.1822 14.1822 11.1822C14.6349 11.1822 15.0004 11.5477 15.0004 12.0004C15.0004 12.4531 14.6349 12.8186 14.1822 12.8186Z" fill="#ED636C"/>
</g>
<defs>
<clipPath id="clip0_149_1010">
<rect width="13.0909" height="13.0909" fill="white" transform="translate(5.45508 5.45508)"/>
</clipPath>
</defs>
</svg>
