<svg width="16" height="10" viewBox="0 0 16 10" fill="none" xmlns="http://www.w3.org/2000/svg">
<path d="M0.667315 5.5C0.391172 5.5 0.167315 5.27614 0.167315 5C0.167315 4.72386 0.391172 4.5 0.667315 4.5V5.5ZM15.334 5L15.6875 4.64645C15.7813 4.74021 15.834 4.86739 15.834 5C15.834 5.13261 15.7813 5.25979 15.6875 5.35355L15.334 5ZM10.9804 1.35355C10.7852 1.15829 10.7852 0.841709 10.9804 0.646447C11.1757 0.451184 11.4923 0.451184 11.6875 0.646447L10.9804 1.35355ZM11.6875 9.35355C11.4923 9.54882 11.1757 9.54882 10.9804 9.35355C10.7852 9.15829 10.7852 8.84171 10.9804 8.64645L11.6875 9.35355ZM0.667315 4.5H15.334V5.5H0.667315V4.5ZM14.9804 5.35355L10.9804 1.35355L11.6875 0.646447L15.6875 4.64645L14.9804 5.35355ZM15.6875 5.35355L11.6875 9.35355L10.9804 8.64645L14.9804 4.64645L15.6875 5.35355Z" fill="#E30613"/>
</svg>
