<svg width="25" height="25" viewBox="0 0 25 25" fill="none" xmlns="http://www.w3.org/2000/svg">
<path d="M0.459762 12.3617L8.2899 18.2063C8.30231 18.2063 8.30231 18.2188 8.31472 18.2188L11.2184 20.3779C11.4666 20.5641 11.8141 20.3903 11.8141 20.0801L11.8265 3.98552C11.8017 3.70011 11.7644 3.40229 11.7024 3.11688C11.6404 2.84388 11.5535 2.58329 11.4294 2.35992C11.6404 3.93588 10.7469 5.77243 9.23299 6.97611C8.89795 7.24911 8.43881 7.54693 7.93004 7.75788C7.38404 7.99365 5.73363 8.56447 5.73363 8.56447L0.75758 10.3638C-0.0986477 10.674 -0.272375 11.8157 0.459762 12.3617Z" fill="#8E97CD"/>
<path d="M8.22812 7.62136C8.24052 7.60895 8.26534 7.60895 8.27775 7.59654C8.30257 7.58413 8.32739 7.57172 8.36462 7.54691C8.40184 7.5345 8.42666 7.50968 8.46389 7.49727C8.4763 7.48486 8.50111 7.47245 8.51352 7.47245C8.55075 7.44763 8.60039 7.42281 8.63761 7.398C8.65002 7.38559 8.66243 7.38559 8.67484 7.37318C8.71207 7.34836 8.7493 7.32354 8.79893 7.29872C8.82375 7.28631 8.83616 7.27391 8.86098 7.2615C8.8858 7.23668 8.92302 7.22427 8.94784 7.19945C8.98507 7.17463 9.0223 7.1374 9.07193 7.11259C9.08434 7.11259 9.08434 7.10018 9.09675 7.10018C9.14639 7.06295 9.19602 7.02572 9.24566 6.9885C10.7596 5.78481 11.653 3.94827 11.4421 2.37231C11.3552 2.2234 11.2435 2.0869 11.1194 1.98763L8.53834 0.0766293C8.29016 -0.109507 7.9303 0.0642202 7.9303 0.374448V4.87895C7.9303 7.70822 5.73389 8.56445 5.73389 8.56445C5.73389 8.56445 7.39671 8.00604 7.9303 7.77027C8.02957 7.72063 8.12884 7.671 8.22812 7.62136Z" fill="#6A7199"/>
<path d="M24.3841 11.7784L16.554 5.93371C16.5416 5.93371 16.5416 5.9213 16.5292 5.9213L13.6254 3.76212C13.3772 3.57598 13.0298 3.74971 13.0298 4.05993V20.1545C13.0546 20.4399 13.0918 20.7378 13.1539 21.0232C13.2159 21.2962 13.3028 21.5568 13.4269 21.7801C13.2159 20.2042 14.1094 18.3676 15.6233 17.1639C15.9583 16.8909 16.4175 16.5931 16.9262 16.3822C17.4598 16.1464 19.1227 15.588 19.1227 15.588L24.0987 13.7887C24.9549 13.466 25.1162 12.3244 24.3841 11.7784Z" fill="#8E97CD"/>
<path d="M16.6284 16.5186C16.616 16.531 16.5912 16.531 16.5788 16.5434C16.5539 16.5559 16.5291 16.5683 16.4919 16.5931C16.4547 16.6055 16.4299 16.6303 16.3926 16.6427C16.3802 16.6551 16.3554 16.6675 16.343 16.6675C16.3058 16.6924 16.2561 16.7172 16.2189 16.742C16.2065 16.7544 16.1941 16.7544 16.1817 16.7668C16.1444 16.7916 16.1072 16.8164 16.0576 16.8413C16.0328 16.8537 16.0204 16.8661 15.9955 16.8785C15.9707 16.9033 15.9335 16.9157 15.9087 16.9405C15.8714 16.9653 15.8342 17.0026 15.7846 17.0274C15.7722 17.0274 15.7722 17.0398 15.7598 17.0398C15.7101 17.077 15.6605 17.1143 15.6109 17.1515C14.0969 18.3552 13.2035 20.1917 13.4144 21.7677C13.5013 21.9166 13.613 22.0531 13.7371 22.1524L16.3058 24.0634C16.5539 24.2495 16.9138 24.0758 16.9138 23.7655V19.261C16.9138 16.4442 19.1102 15.5755 19.1102 15.5755C19.1102 15.5755 17.4474 16.1339 16.9138 16.3697C16.8269 16.4193 16.7277 16.469 16.6284 16.5186Z" fill="#6A7199"/>
</svg>
