<svg width="24" height="24" viewBox="0 0 24 24" fill="none" xmlns="http://www.w3.org/2000/svg">
<rect width="24" height="24" rx="12" fill="#272848"/>
<path fill-rule="evenodd" clip-rule="evenodd" d="M8.62139 17.3335H6.42023C5.9577 17.3335 5.72923 17.3335 5.58992 17.2415C5.43946 17.1407 5.34751 16.9738 5.33637 16.7896C5.328 16.6199 5.44225 16.4126 5.67072 15.9982L11.1057 6.10401C11.3369 5.68385 11.4539 5.47378 11.6016 5.39608C11.7604 5.31263 11.9499 5.31263 12.1087 5.39608C12.2564 5.47378 12.3734 5.68385 12.6047 6.10401L13.722 8.11841L13.7277 8.12869C13.9775 8.57943 14.1041 8.808 14.1594 9.0479C14.2207 9.30978 14.2207 9.58604 14.1594 9.84792C14.1037 10.0896 13.9783 10.3199 13.7248 10.7774L10.8699 15.9896L10.8625 16.0029C10.6111 16.4574 10.4837 16.6877 10.3071 16.8615C10.1149 17.0515 9.88359 17.1895 9.63003 17.2674C9.39877 17.3335 9.13965 17.3335 8.62139 17.3335ZM14.1801 17.3335H17.3341C17.7994 17.3335 18.0335 17.3335 18.1729 17.2387C18.3233 17.1379 18.418 16.968 18.4264 16.784C18.4344 16.6197 18.3227 16.4205 18.1037 16.0302C18.0962 16.0169 18.0886 16.0034 18.0809 15.9897L16.501 13.1983L16.483 13.1668C16.261 12.7791 16.149 12.5833 16.0051 12.5076C15.8463 12.4242 15.6595 12.4242 15.5008 12.5076C15.3559 12.5853 15.2389 12.7896 15.0076 13.2011L13.4333 15.9925L13.4279 16.0021C13.1975 16.413 13.0823 16.6183 13.0906 16.7868C13.1018 16.971 13.1937 17.1407 13.3442 17.2415C13.4807 17.3335 13.7148 17.3335 14.1801 17.3335Z" fill="#C0C9FF"/>
</svg>
