<svg width="24" height="24" viewBox="0 0 24 24" fill="none" xmlns="http://www.w3.org/2000/svg">
<rect width="24" height="24" rx="12" fill="#272848"/>
<path d="M6.23915 12.1951L6.24856 15.6465L9.18116 17.3721V19.3927L4.5323 16.6662V11.1858L6.23915 12.1951ZM6.23915 8.74375V10.7549L4.53125 9.74464V7.73345L6.23915 6.72314L7.95541 7.73345L6.23915 8.74375ZM10.4059 7.73345L12.1138 6.72314L13.83 7.73345L12.1138 8.74375L10.4059 7.73345Z" fill="#C0C9FF"/>
<path d="M7.47656 14.9311V12.9105L9.18446 13.9208V15.932L7.47656 14.9311ZM10.4092 18.0959L12.1171 19.1062L13.8333 18.0959V20.1071L12.1171 21.1174L10.4092 20.1071V18.0959ZM16.2827 7.73345L17.9906 6.72314L19.7069 7.73345V9.74465L17.9906 10.7549V8.74375L16.2827 7.73345ZM17.9906 15.6465L18 12.1951L19.7079 11.1848V16.6651L15.0591 19.3917V17.3711L17.9906 15.6465Z" fill="#C0C9FF"/>
<path d="M16.7626 14.9303L15.0547 15.9312V13.92L16.7626 12.9097V14.9303Z" fill="#C0C9FF"/>
<path d="M16.7659 9.45874L16.7753 11.4794L13.8344 13.205V16.6647L12.1265 17.6656L10.4186 16.6647V13.205L7.47761 11.4794V9.45874L9.19282 8.44844L12.116 10.1825L15.057 8.44844L16.7732 9.45874H16.7659ZM7.47656 6.00844L12.1171 3.27246L16.7659 6.00844L15.058 7.01874L12.1171 5.2847L9.18446 7.01874L7.47656 6.00844Z" fill="#C0C9FF"/>
</svg>
