<svg width="24" height="24" viewBox="0 0 24 24" fill="none" xmlns="http://www.w3.org/2000/svg">
<rect width="24" height="24" rx="12" fill="url(#paint0_linear_3725_7019)"/>
<path d="M12.1736 4.79932L12.0781 5.11576V14.2973L12.1736 14.3902L16.5432 11.871L12.1736 4.79932Z" fill="#C1CCF8"/>
<path d="M12.1665 4.79932L7.79688 11.871L12.1665 14.3902V9.93378V4.79932Z" fill="white"/>
<path d="M12.171 15.1966L12.1172 15.2607V18.5313L12.171 18.6845L16.5432 12.6787L12.171 15.1966Z" fill="#C1CCF8"/>
<path d="M12.1665 18.6845V15.1966L7.79688 12.6787L12.1665 18.6845Z" fill="white"/>
<path d="M12.1719 14.3901L16.5414 11.8708L12.1719 9.93359V14.3901Z" fill="#8197EE"/>
<path d="M7.79688 11.8708L12.1665 14.3901V9.93359L7.79688 11.8708Z" fill="#C1CCF8"/>
<defs>
<linearGradient id="paint0_linear_3725_7019" x1="24" y1="24" x2="0" y2="0" gradientUnits="userSpaceOnUse">
<stop stop-color="#556ECC"/>
<stop offset="1" stop-color="#627EEA"/>
</linearGradient>
</defs>
</svg>
