<svg width="21" height="20" viewBox="0 0 21 20" fill="none" xmlns="http://www.w3.org/2000/svg">
<g id="Group 1000009070">
<ellipse id="Ellipse 260" cx="10.4775" cy="10" rx="10.1845" ry="10" fill="url(#paint0_linear_2705_8228)"/>
<g id="Group">
<g id="Group_2">
<g id="Group_3">
<g id="Group_4">
<path id="Vector" d="M4.19218 10.2347L8.3301 13.2674C8.33665 13.2674 8.33665 13.2738 8.34321 13.2738L9.87772 14.3942C10.0089 14.4908 10.1925 14.4007 10.1925 14.2397L10.199 5.88842C10.1859 5.74032 10.1663 5.58579 10.1335 5.4377C10.1007 5.29604 10.0548 5.16082 9.9892 5.04492C10.1007 5.86266 9.62852 6.81562 8.82848 7.4402C8.65142 7.58185 8.40879 7.73639 8.13992 7.84585C7.85138 7.96819 6.97921 8.26438 6.97921 8.26438L4.34957 9.19802C3.89709 9.35899 3.80528 9.95137 4.19218 10.2347Z" fill="#F2EEFF"/>
</g>
</g>
<path id="Vector_2" d="M8.30247 7.77542C8.30903 7.76898 8.32215 7.76898 8.3287 7.76254C8.34182 7.7561 8.35494 7.74966 8.37461 7.73678C8.39428 7.73035 8.4074 7.71747 8.42707 7.71103C8.43363 7.70459 8.44674 7.69815 8.4533 7.69815C8.47297 7.68527 8.49921 7.6724 8.51888 7.65952C8.52544 7.65308 8.53199 7.65308 8.53855 7.64664C8.55822 7.63376 8.5779 7.62088 8.60413 7.60801C8.61724 7.60157 8.6238 7.59513 8.63692 7.58869C8.65003 7.57581 8.66971 7.56937 8.68282 7.5565C8.70249 7.54362 8.72217 7.5243 8.7484 7.51142C8.75496 7.51142 8.75496 7.50498 8.76151 7.50498C8.78774 7.48567 8.81398 7.46635 8.84021 7.44703C9.64025 6.82246 10.1124 5.8695 10.0009 5.05176C9.95502 4.97449 9.896 4.90367 9.83042 4.85215L8.46642 3.86056C8.33526 3.76398 8.14509 3.85412 8.14509 4.0151V6.35242C8.14509 7.82049 6.98438 8.26478 6.98438 8.26478C6.98438 8.26478 7.86311 7.97502 8.14509 7.85268C8.19755 7.82693 8.25001 7.80117 8.30247 7.77542Z" fill="#DBD9FF"/>
</g>
<g id="Group_5">
<g id="Group_6">
<g id="Group_7">
<path id="Vector_3" d="M16.8362 9.93367L12.6983 6.90095C12.6918 6.90095 12.6918 6.89451 12.6852 6.89451L11.1507 5.77414C11.0196 5.67755 10.8359 5.7677 10.8359 5.92867V14.2799C10.8491 14.428 10.8687 14.5826 10.9015 14.7307C10.9343 14.8723 10.9802 15.0075 11.0458 15.1234C10.9343 14.3057 11.4065 13.3527 12.2065 12.7282C12.3836 12.5865 12.6262 12.432 12.8951 12.3225C13.177 12.2002 14.0558 11.9104 14.0558 11.9104L16.6854 10.9768C17.1379 10.8094 17.2231 10.217 16.8362 9.93367Z" fill="#F2EEFF"/>
</g>
</g>
<path id="Vector_4" d="M12.742 12.3927C12.7354 12.3991 12.7223 12.3991 12.7158 12.4056C12.7026 12.412 12.6895 12.4184 12.6699 12.4313C12.6502 12.4377 12.6371 12.4506 12.6174 12.4571C12.6108 12.4635 12.5977 12.4699 12.5912 12.4699C12.5715 12.4828 12.5453 12.4957 12.5256 12.5086C12.519 12.515 12.5125 12.515 12.5059 12.5215C12.4862 12.5343 12.4666 12.5472 12.4403 12.5601C12.4272 12.5665 12.4207 12.573 12.4075 12.5794C12.3944 12.5923 12.3748 12.5987 12.3616 12.6116C12.342 12.6245 12.3223 12.6438 12.2961 12.6567C12.2895 12.6567 12.2895 12.6631 12.283 12.6631C12.2567 12.6824 12.2305 12.7017 12.2043 12.7211C11.4042 13.3456 10.9321 14.2986 11.0435 15.1163C11.0894 15.1936 11.1485 15.2644 11.214 15.3159L12.5715 16.3075C12.7026 16.4041 12.8928 16.314 12.8928 16.153V13.8157C12.8928 12.354 14.0535 11.9033 14.0535 11.9033C14.0535 11.9033 13.1748 12.1931 12.8928 12.3154C12.8469 12.3412 12.7945 12.3669 12.742 12.3927Z" fill="#DBD9FF"/>
</g>
</g>
</g>
<defs>
<linearGradient id="paint0_linear_2705_8228" x1="10.4775" y1="0" x2="10.4775" y2="20" gradientUnits="userSpaceOnUse">
<stop stop-color="#7770E0"/>
<stop offset="1" stop-color="#554FD8"/>
</linearGradient>
</defs>
</svg>
