<svg width="175" height="40" viewBox="0 0 175 40" fill="none" xmlns="http://www.w3.org/2000/svg">
<path d="M53.9905 24.97C53.4105 24.78 52.8705 24.51 52.3805 24.17C51.8405 23.78 51.5605 23.33 51.5605 22.82C51.5605 22.58 51.6205 22.36 51.7305 22.16C51.8405 21.96 52.0005 21.8 52.2005 21.68C52.4005 21.56 52.6105 21.5 52.8505 21.5C53.1405 21.5 53.4405 21.6 53.7505 21.8C54.1905 22.08 54.6205 22.29 55.0505 22.45C55.4705 22.6 55.8705 22.68 56.2305 22.68C56.5905 22.68 56.8805 22.63 57.0605 22.52C57.2405 22.41 57.3305 22.27 57.3305 22.08C57.3305 21.93 57.2805 21.81 57.1705 21.72C57.0605 21.64 56.9005 21.57 56.6705 21.53L54.6105 21.12C53.7005 20.94 53.0205 20.6 52.5705 20.1C52.1205 19.6 51.9005 18.95 51.9005 18.14C51.9005 17.46 52.0705 16.86 52.4105 16.34C52.7505 15.82 53.2305 15.42 53.8405 15.14C54.4505 14.86 55.1805 14.71 56.0005 14.71C56.6805 14.71 57.3005 14.81 57.8505 15C58.4005 15.19 58.9005 15.44 59.3205 15.73C59.8405 16.09 60.1105 16.55 60.1105 17.11C60.1105 17.35 60.0605 17.57 59.9705 17.77C59.8805 17.97 59.7405 18.12 59.5605 18.24C59.3805 18.35 59.1705 18.41 58.9205 18.41C58.7205 18.41 58.5205 18.37 58.3105 18.3C58.1005 18.23 57.8805 18.12 57.6405 17.97C57.3105 17.78 56.9805 17.62 56.6505 17.48C56.3205 17.35 56.0005 17.28 55.6805 17.28C55.4305 17.28 55.2205 17.33 55.0705 17.42C54.9105 17.51 54.8305 17.65 54.8305 17.84C54.8305 18.01 54.8905 18.14 55.0105 18.22C55.1305 18.3 55.3305 18.38 55.6105 18.44L57.5605 18.89C58.1105 19.02 58.5805 19.19 58.9705 19.41C59.3605 19.63 59.6705 19.93 59.9005 20.32C60.1305 20.71 60.2405 21.2 60.2405 21.8C60.2405 22.5 60.0605 23.11 59.7105 23.63C59.3605 24.15 58.8605 24.55 58.2205 24.83C57.5805 25.11 56.8305 25.25 55.9805 25.25C55.2305 25.25 54.5605 25.16 53.9705 24.97H53.9905Z" fill="white"/>
<path d="M63.8307 24.73C63.1607 24.38 62.6307 23.89 62.2707 23.25C61.9007 22.61 61.7207 21.86 61.7207 21.01V16.17C61.7207 15.89 61.7807 15.64 61.9007 15.43C62.0207 15.21 62.1807 15.05 62.4007 14.93C62.6107 14.81 62.8607 14.75 63.1307 14.75C63.5407 14.75 63.8707 14.88 64.1207 15.14C64.3707 15.4 64.4907 15.75 64.4907 16.17V20.75C64.4907 21.08 64.5607 21.37 64.7107 21.63C64.8607 21.89 65.0607 22.09 65.3107 22.23C65.5707 22.38 65.8607 22.45 66.1807 22.45C66.5007 22.45 66.8007 22.38 67.0607 22.23C67.3207 22.08 67.5207 21.88 67.6607 21.63C67.8007 21.37 67.8707 21.08 67.8707 20.75V16.17C67.8707 15.74 68.0007 15.4 68.2507 15.14C68.5007 14.88 68.8307 14.75 69.2407 14.75C69.5107 14.75 69.7507 14.81 69.9707 14.93C70.1807 15.05 70.3507 15.22 70.4707 15.43C70.5907 15.65 70.6507 15.89 70.6507 16.17V21.01C70.6507 21.86 70.4707 22.61 70.1007 23.25C69.7307 23.89 69.2107 24.39 68.5407 24.73C67.8707 25.07 67.0807 25.25 66.1907 25.25C65.3007 25.25 64.5207 25.08 63.8407 24.73H63.8307Z" fill="white"/>
<path d="M72.9406 24.8199C72.6906 24.5599 72.5605 24.2099 72.5605 23.7899V16.3499C72.5605 15.9199 72.6906 15.5799 72.9406 15.3199C73.1906 15.0599 73.5306 14.9299 73.9406 14.9299H76.8605C77.6806 14.9299 78.4006 15.0699 79.0206 15.3599C79.6406 15.6499 80.1306 16.0599 80.4706 16.5999C80.8106 17.1399 80.9905 17.7599 80.9905 18.4699C80.9905 19.1799 80.8206 19.8099 80.4706 20.3399C80.1206 20.8699 79.6406 21.2899 79.0206 21.5799C78.4006 21.8699 77.6806 22.0099 76.8605 22.0099H75.3205V23.7999C75.3205 24.2299 75.1906 24.5699 74.9406 24.8299C74.6906 25.0899 74.3506 25.2199 73.9406 25.2199C73.5306 25.2199 73.1906 25.0899 72.9406 24.8299V24.8199ZM77.1105 19.3799C77.4106 19.3799 77.6406 19.2899 77.8306 19.1199C78.0206 18.9499 78.1005 18.7299 78.1005 18.4599C78.1005 18.1899 78.0106 17.9699 77.8306 17.7999C77.6506 17.6299 77.4106 17.5399 77.1105 17.5399H75.3205V19.3799H77.1105Z" fill="white"/>
<path d="M82.7003 24.6499C82.4503 24.3899 82.3203 24.0399 82.3203 23.6199V16.3499C82.3203 15.9199 82.4503 15.5799 82.7003 15.3199C82.9503 15.0599 83.2903 14.9299 83.7103 14.9299H88.6903C88.9603 14.9299 89.2003 14.9899 89.4103 15.0999C89.6203 15.2099 89.7803 15.3799 89.9003 15.5799C90.0203 15.7899 90.0803 16.0299 90.0803 16.2899C90.0803 16.5499 90.0203 16.7899 89.9003 16.9999C89.7803 17.2099 89.6203 17.3699 89.4103 17.4799C89.2003 17.5899 88.9603 17.6499 88.6903 17.6499H85.0903V18.6699H88.4003C88.6503 18.6699 88.8703 18.7199 89.0703 18.8399C89.2703 18.9499 89.4203 19.0999 89.5403 19.2999C89.6603 19.4999 89.7103 19.7099 89.7103 19.9599C89.7103 20.2099 89.6503 20.4299 89.5403 20.6199C89.4303 20.8099 89.2703 20.9599 89.0703 21.0699C88.8703 21.1799 88.6503 21.2299 88.4003 21.2299H85.0903V22.3099H88.7003C88.9703 22.3099 89.2103 22.3699 89.4203 22.4799C89.6303 22.5899 89.8003 22.7599 89.9203 22.9599C90.0403 23.1599 90.1003 23.4099 90.1003 23.6699C90.1003 23.9299 90.0403 24.1699 89.9203 24.3799C89.8003 24.5899 89.6403 24.7499 89.4203 24.8599C89.2003 24.9699 88.9703 25.0299 88.7003 25.0299H83.7003C83.2803 25.0299 82.9403 24.8999 82.6903 24.6399L82.7003 24.6499Z" fill="white"/>
<path d="M92.2609 24.8199C92.0109 24.5599 91.8809 24.2099 91.8809 23.7899V16.3499C91.8809 15.9199 92.0109 15.5799 92.2609 15.3199C92.5109 15.0599 92.8509 14.9299 93.2609 14.9299H96.2409C97.0309 14.9299 97.7309 15.0799 98.3509 15.3799C98.9709 15.6799 99.4409 16.0899 99.7809 16.6199C100.121 17.1499 100.291 17.7599 100.291 18.4399C100.291 19.0399 100.161 19.5699 99.9109 20.0499C99.6609 20.5299 99.2909 20.9299 98.8209 21.2399L100.011 22.9799C100.261 23.3399 100.381 23.6999 100.381 24.0599C100.381 24.2599 100.321 24.4499 100.191 24.6299C100.061 24.8099 99.9009 24.9499 99.6909 25.0599C99.4809 25.1699 99.2709 25.2199 99.0409 25.2199C98.8109 25.2199 98.5909 25.1699 98.4009 25.0699C98.2109 24.9699 98.0509 24.8199 97.9209 24.6299L96.1309 21.9499H94.6409V23.7899C94.6409 24.2199 94.5109 24.5599 94.2609 24.8199C94.0109 25.0799 93.6709 25.2099 93.2609 25.2099C92.8509 25.2099 92.5109 25.0799 92.2609 24.8199ZM96.4209 19.3199C96.7109 19.3199 96.9409 19.2399 97.1309 19.0699C97.3209 18.8999 97.4109 18.6899 97.4109 18.4299C97.4109 18.1699 97.3209 17.9499 97.1309 17.7899C96.9409 17.6299 96.7109 17.5399 96.4209 17.5399H94.6509V19.3299H96.4209V19.3199Z" fill="white"/>
<path d="M102.489 24.6399C102.239 24.3799 102.119 24.0399 102.119 23.6099V16.3399C102.119 15.9199 102.239 15.5799 102.489 15.3099C102.739 15.0399 103.059 14.9099 103.479 14.9099H107.019C107.759 14.9099 108.399 15.0399 108.939 15.2999C109.479 15.5599 109.899 15.9199 110.179 16.3899C110.459 16.8599 110.609 17.3999 110.609 18.0099C110.609 18.4599 110.499 18.8599 110.279 19.1999C110.059 19.5399 109.749 19.7999 109.329 19.9599C109.749 20.1099 110.069 20.3599 110.289 20.6999C110.509 21.0399 110.629 21.4299 110.629 21.8599C110.629 22.4799 110.489 23.0299 110.199 23.5099C109.909 23.9899 109.489 24.3599 108.949 24.6199C108.399 24.8799 107.759 25.0199 107.009 25.0199H103.469C103.059 25.0199 102.729 24.8799 102.479 24.6199L102.489 24.6399ZM107.019 18.9599C107.219 18.9599 107.389 18.8999 107.519 18.7699C107.649 18.6399 107.719 18.4799 107.719 18.2899C107.719 18.0999 107.649 17.9199 107.519 17.7799C107.389 17.6399 107.219 17.5799 107.019 17.5799H104.889V18.9599H107.019ZM107.049 22.3799C107.259 22.3799 107.419 22.3199 107.559 22.1899C107.689 22.0599 107.759 21.8899 107.759 21.6599C107.759 21.4299 107.689 21.2699 107.559 21.1399C107.429 21.0099 107.259 20.9499 107.049 20.9499H104.889V22.3799H107.049Z" fill="white"/>
<path d="M112.88 24.8199C112.63 24.5599 112.5 24.2099 112.5 23.7899V16.3499C112.5 15.9199 112.63 15.5799 112.88 15.3199C113.13 15.0599 113.47 14.9299 113.88 14.9299H116.86C117.65 14.9299 118.35 15.0799 118.97 15.3799C119.58 15.6799 120.06 16.0899 120.4 16.6199C120.74 17.1499 120.91 17.7599 120.91 18.4399C120.91 19.0399 120.78 19.5699 120.53 20.0499C120.27 20.5299 119.91 20.9299 119.44 21.2399L120.63 22.9799C120.88 23.3399 121 23.6999 121 24.0599C121 24.2599 120.94 24.4499 120.81 24.6299C120.69 24.8099 120.52 24.9499 120.31 25.0599C120.1 25.1699 119.89 25.2199 119.66 25.2199C119.43 25.2199 119.21 25.1699 119.02 25.0699C118.83 24.9699 118.67 24.8199 118.54 24.6299L116.75 21.9499H115.26V23.7899C115.26 24.2199 115.13 24.5599 114.88 24.8199C114.63 25.0799 114.29 25.2099 113.88 25.2099C113.47 25.2099 113.13 25.0799 112.88 24.8199ZM117.04 19.3199C117.33 19.3199 117.56 19.2399 117.75 19.0699C117.93 18.8999 118.03 18.6899 118.03 18.4299C118.03 18.1699 117.94 17.9499 117.75 17.7899C117.56 17.6199 117.33 17.5399 117.04 17.5399H115.27V19.3299H117.04V19.3199Z" fill="white"/>
<path d="M123.13 24.82C122.88 24.56 122.75 24.21 122.75 23.79V16.17C122.75 15.74 122.88 15.4 123.13 15.14C123.38 14.88 123.72 14.75 124.13 14.75C124.54 14.75 124.88 14.88 125.13 15.14C125.38 15.4 125.51 15.75 125.51 16.17V23.79C125.51 24.22 125.38 24.56 125.13 24.82C124.88 25.08 124.54 25.21 124.13 25.21C123.72 25.21 123.38 25.08 123.13 24.82Z" fill="white"/>
<path d="M127.989 24.6499C127.739 24.3899 127.609 24.0399 127.609 23.6199V16.3499C127.609 15.9199 127.739 15.5799 127.989 15.3199C128.239 15.0599 128.579 14.9299 128.999 14.9299H132.239C133.199 14.9299 134.049 15.1399 134.789 15.5699C135.529 15.9999 136.109 16.5899 136.519 17.3599C136.929 18.1299 137.139 18.9999 137.139 19.9899C137.139 20.9799 136.929 21.8599 136.519 22.6199C136.109 23.3799 135.529 23.9799 134.789 24.4099C134.049 24.8399 133.199 25.0499 132.239 25.0499H128.999C128.579 25.0499 128.239 24.9199 127.989 24.6599V24.6499ZM132.239 22.3399C132.609 22.3399 132.949 22.2399 133.249 22.0299C133.549 21.8199 133.779 21.5499 133.949 21.1899C134.119 20.8299 134.199 20.4299 134.199 19.9799C134.199 19.5299 134.119 19.1299 133.949 18.7699C133.779 18.4099 133.549 18.1299 133.249 17.9299C132.949 17.7299 132.619 17.6199 132.239 17.6199H130.379V22.3299H132.239V22.3399Z" fill="white"/>
<path d="M140.77 24.59C139.97 24.15 139.35 23.54 138.91 22.75C138.47 21.96 138.25 21.05 138.25 20.03C138.25 19.01 138.49 18.09 138.96 17.28C139.43 16.47 140.08 15.84 140.9 15.39C141.72 14.94 142.65 14.71 143.68 14.71C144.39 14.71 145.04 14.8 145.62 14.99C146.2 15.18 146.71 15.42 147.14 15.72C147.44 15.93 147.64 16.14 147.76 16.36C147.88 16.58 147.94 16.83 147.94 17.1C147.94 17.35 147.88 17.57 147.76 17.75C147.64 17.93 147.49 18.07 147.31 18.16C147.12 18.25 146.93 18.3 146.72 18.3C146.49 18.3 146.28 18.27 146.08 18.21C145.89 18.15 145.68 18.06 145.45 17.93C145.15 17.77 144.87 17.64 144.6 17.55C144.33 17.46 143.99 17.42 143.56 17.42C143.09 17.42 142.66 17.53 142.29 17.75C141.91 17.97 141.62 18.28 141.42 18.67C141.21 19.06 141.11 19.5 141.11 19.99C141.11 20.48 141.21 20.91 141.42 21.29C141.63 21.67 141.93 21.98 142.31 22.19C142.69 22.4 143.15 22.52 143.66 22.52C144.73 22.52 145.33 22.18 145.44 21.5H143.82C143.58 21.5 143.35 21.44 143.15 21.33C142.94 21.22 142.78 21.06 142.66 20.87C142.54 20.68 142.48 20.46 142.48 20.22C142.48 19.8 142.61 19.48 142.86 19.25C143.12 19.02 143.44 18.91 143.83 18.91H146.96C147.2 18.91 147.43 18.96 147.63 19.07C147.84 19.18 148 19.34 148.13 19.55C148.25 19.77 148.32 20.04 148.32 20.35C148.32 21.43 148.12 22.33 147.71 23.06C147.3 23.79 146.74 24.33 146.03 24.69C145.32 25.05 144.49 25.23 143.57 25.23C142.51 25.23 141.58 25.01 140.78 24.57L140.77 24.59Z" fill="white"/>
<path d="M150.29 24.6499C150.04 24.3899 149.91 24.0399 149.91 23.6199V16.3499C149.91 15.9199 150.04 15.5799 150.29 15.3199C150.54 15.0599 150.88 14.9299 151.3 14.9299H156.28C156.55 14.9299 156.79 14.9899 157 15.0999C157.21 15.2099 157.37 15.3799 157.49 15.5799C157.61 15.7799 157.67 16.0299 157.67 16.2899C157.67 16.5499 157.61 16.7899 157.49 16.9999C157.37 17.2099 157.21 17.3699 157 17.4799C156.79 17.5899 156.55 17.6499 156.28 17.6499H152.68V18.6699H155.99C156.24 18.6699 156.46 18.7199 156.66 18.8399C156.86 18.9599 157.01 19.0999 157.13 19.2999C157.25 19.4999 157.3 19.7099 157.3 19.9599C157.3 20.2099 157.24 20.4299 157.13 20.6199C157.02 20.8099 156.86 20.9599 156.66 21.0699C156.46 21.1799 156.24 21.2299 155.99 21.2299H152.68V22.3099H156.29C156.56 22.3099 156.8 22.3699 157.01 22.4799C157.22 22.5899 157.39 22.7599 157.51 22.9599C157.63 23.1599 157.69 23.4099 157.69 23.6699C157.69 23.9299 157.63 24.1699 157.51 24.3799C157.39 24.5899 157.23 24.7499 157.01 24.8599C156.79 24.9699 156.56 25.0299 156.29 25.0299H151.29C150.87 25.0299 150.53 24.8999 150.28 24.6399L150.29 24.6499Z" fill="white"/>
<path d="M19.06 29.97L12.66 22.73C11.92 21.89 11 20.41 11 18.79C11 17.17 11.93 15.69 12.66 14.85L16.27 10.77C17.65 9.22005 19.23 8.30005 20.97 8.30005C22.35 8.30005 23.53 8.79005 24.42 9.60005C25.43 10.53 26.06 11.85 26.14 13.28H28.27C28.35 10.66 30.39 8.30005 33.46 8.30005C35.2 8.30005 36.78 9.22005 38.16 10.77L44.83 18.33C45.68 19.29 46.62 20.64 46.62 22.25C46.62 23.74 45.66 25.1 44.96 25.89L41.35 29.97C39.97 31.52 38.39 32.44 36.65 32.44C35.02 32.44 32.82 31.51 31.91 29.06C30.88 28.76 30.14 28.29 29.35 27.37C29.27 30.14 27.23 32.4501 24.16 32.4501C22.26 32.4501 20.49 31.6 19.07 29.98L19.06 29.97ZM13.84 21.68L17.45 25.76C18.57 27.02 19.74 27.69 20.96 27.69C23.17 27.69 24.57 26.01 24.57 24.18C24.57 23.03 23.86 22.49 22.97 21.87C22.76 21.73 22.61 21.47 22.61 21.21C22.61 20.78 22.96 20.42 23.38 20.42C23.55 20.42 23.74 20.48 23.97 20.63C24.65 21.04 25.54 21.94 25.88 22.72H28.54C28.89 21.95 29.77 21.04 30.45 20.63C30.67 20.49 30.86 20.42 31.04 20.42C31.47 20.42 31.81 20.78 31.81 21.21C31.81 21.48 31.65 21.73 31.45 21.87C30.56 22.49 29.85 23.02 29.85 24.18C29.85 26.01 31.24 27.69 33.46 27.69C34.68 27.69 35.85 27.03 36.97 25.76L40.58 21.68C41.17 21.02 41.84 19.88 41.84 18.79C41.84 17.7 41.16 16.56 40.58 15.9L36.97 11.82C35.85 10.56 34.68 9.89005 33.46 9.89005C31.25 9.89005 29.85 11.57 29.85 13.4C29.85 14.55 30.56 15.09 31.45 15.71C31.66 15.85 31.81 16.11 31.81 16.37C31.81 16.8 31.46 17.16 31.04 17.16C30.87 17.16 30.68 17.1 30.45 16.95C29.77 16.54 28.88 15.64 28.54 14.86H25.88C25.53 15.63 24.65 16.54 23.97 16.95C23.75 17.09 23.56 17.16 23.38 17.16C22.95 17.16 22.61 16.8 22.61 16.37C22.61 16.1 22.77 15.85 22.97 15.71C23.86 15.09 24.57 14.56 24.57 13.4C24.57 11.57 23.18 9.89005 20.96 9.89005C19.74 9.89005 18.57 10.55 17.45 11.82L13.84 15.9C13.25 16.56 12.58 17.7 12.58 18.79C12.58 19.88 13.26 21.02 13.84 21.68ZM16.86 14.3L18.52 12.45C18.87 12.07 19.39 12.01 19.72 12.32C20.07 12.6 20 13.13 19.72 13.46L18.06 15.34C17.73 15.7 17.19 15.74 16.86 15.45C16.51 15.15 16.58 14.61 16.86 14.3ZM32.58 11.26C32.69 11.21 32.82 11.2 32.93 11.18C33.45 11.15 33.83 11.48 33.85 11.97C33.87 12.33 33.61 12.67 33.25 12.74C33.04 12.77 32.98 12.88 32.95 13.07C32.92 13.42 32.6 13.69 32.22 13.7C31.75 13.72 31.4 13.37 31.38 12.89C31.38 12.12 31.9 11.48 32.58 11.25V11.26Z" fill="white"/>
</svg>
