<svg width="155" height="155" viewBox="0 0 172 150" fill="none" xmlns="http://www.w3.org/2000/svg">
<rect x="1" y="1" width="170" height="138" rx="7" fill="#26264F" stroke="#8E97CD" stroke-width="2" stroke-dasharray="8 8"/>
<path d="M127.67 115.148C127.467 110.543 127.075 105.978 126.037 101.458C126.051 99.7859 124.997 98.1576 125.541 96.5452C126.811 94.6183 126.492 91.8149 126.074 89.6861C126.106 89.3629 125.753 89.4208 125.682 89.2101C125.637 88.6041 124.672 89.0818 124.321 88.9308C124.293 88.5163 124.413 88.0596 123.979 87.761C123.923 87.4588 123.685 87.2762 123.431 87.2762C122.071 87.4483 122.108 84.4939 121.313 83.5489C120.927 82.7567 120.814 81.7907 120.079 81.2093C119.567 79.8427 118.665 78.6096 117.626 77.5698C117.446 77.1957 117.492 76.486 117.1 76.3192C117.026 75.9503 116.794 75.6429 116.534 75.3074C116.411 75.0932 116.437 74.7454 116.048 74.7717C116.847 73.4526 118.079 72.4496 118.836 71.0936C120.437 68.8365 121.764 66.4618 122.501 63.9078C123.15 63.0629 121.99 62.3358 121.874 61.4558C122.38 60.6899 121.234 60.7374 121.295 60.2051C121.708 60.2807 122.72 60.4387 121.881 59.6975C122.029 59.1776 121.562 58.7016 121.343 58.2326C121.08 57.6775 121.352 57.0083 120.932 56.5446C120.482 53.8273 119.627 51.5931 118.472 49.1322C117.927 48.1749 117.032 47.193 117.298 46.018C117.256 45.758 117.665 45.484 117.273 45.2363C119.29 39.4083 118.943 31.5304 115.512 25.9606C111.077 17.3432 110.262 29.9847 108.109 32.9567C107.298 33.9825 106.21 36.8789 104.741 35.5703C104.246 35.5493 103.038 34.6851 102.767 35.2454C101.945 35.1347 101.171 34.8045 100.368 34.7272C98.6616 34.26 96.8383 34.5165 95.0732 34.3742C95.1843 34.2793 95.2972 34.1845 95.4083 34.0914C93.8936 33.9438 92.3824 34.4181 90.8343 34.6131C90.4569 34.7097 90.0408 34.6763 89.7181 34.9503C89.6828 34.9327 89.6493 34.9363 89.6193 34.9608C87.059 35.4702 88.0094 36.0832 85.3627 33.38C85.1529 32.8056 84.5922 32.4719 84.273 31.9572C84.3083 31.9608 84.3418 31.9555 84.377 31.9449C83.0105 30.4642 82.0865 28.1562 81.1237 26.3523C80.7623 25.7235 79.5244 21.622 78.6921 23.5191C78.6146 23.5928 78.537 23.6684 78.4611 23.7421C77.7611 23.8932 77.3767 24.6906 76.8953 25.2527C76.0384 26.1169 75.4053 27.3623 75.1585 28.4899C74.7758 28.7973 74.4725 29.1908 74.2927 29.6808C73.143 31.4145 72.5664 33.3835 72.0092 35.0083C71.3956 36.3397 71.6248 35.6248 71.6372 37.1161C71.3497 39.0377 70.7467 41.1507 71.2422 43.0618C71.0165 43.2708 71.1011 43.7363 71.4344 43.7398C71.2369 43.9506 71.2351 44.2738 71.4749 44.4424C73.0355 48.7897 74.0017 50.4162 72.152 55.1201C70.9301 57.2894 70.9794 59.8609 69.858 62.1215C69.4595 62.3639 69.7663 62.7011 69.5371 63.0261C69.4683 63.142 69.3995 63.2597 69.3307 63.3756C69.4771 63.5021 69.7381 63.495 69.7804 63.2667C69.8386 63.3018 69.9056 63.3264 69.9744 63.3071C69.9514 63.3651 69.9356 63.4248 69.9267 63.488C69.7698 63.4933 69.7769 63.7111 69.6393 63.7515C69.6605 63.9184 69.9179 63.8938 70.0131 63.7901C70.4099 63.9008 69.5847 66.1105 69.359 66.3634C68.9128 67.7089 68.2322 67.1275 69.3184 68.4782C71.1469 70.2575 72.6317 72.6991 74.9522 74.0094V74.0076C74.4743 75.6763 74.7159 77.2607 73.8131 78.6606C72.9614 79.8005 72.9632 81.3621 72.1273 82.6724C70.0643 86.5139 69.2144 91.1141 68.2992 95.291C68.3521 95.7144 68.1969 95.948 67.8549 96.171C67.8355 95.8233 67.9236 95.4737 67.9025 95.1224C67.9166 94.9046 67.9324 94.6886 67.9466 94.4708C68.5179 91.0105 68.033 87.2621 67.7244 83.7298C67.8161 83.0869 67.6609 82.098 67.1266 81.6045C67.3135 81.1074 67.5181 80.4083 67.0208 80.0061C66.9785 78.2759 67.5516 75.7149 66.587 74.2219C65.9664 69.8553 65.9381 65.3376 64.7232 61.4856C64.293 60.5108 63.9791 54.2664 62.6231 55.2993C61.8561 53.8273 60.3943 48.9952 59.1212 48.6246C58.9255 48.2434 58.735 47.8605 58.4229 47.5566C57.9945 46.9823 57.7159 46.155 57.1657 45.7843C54.9228 43.457 55.2349 40.283 53.5016 37.5657C52.2849 39.3503 45.8876 28.165 46.5947 32.9163C46.3073 32.6546 46.0216 32.3911 45.7342 32.1294C42.8212 28.0649 44.7785 33.7664 45.2228 35.284C45.3022 36.5909 47.4675 41.0348 46.637 41.5951C44.8261 39.9229 44.7256 41.9569 45.2264 43.3569C45.244 43.3165 45.2616 43.2778 45.2793 43.2374C45.3057 44.3827 45.7518 45.5648 45.9564 46.8681C43.65 43.5255 45.0941 49.3219 45.184 50.4742C45.0924 51.6018 45.4944 52.6645 45.3181 53.7887C43.5636 52.2553 45.5861 56.8555 45.2493 57.6881C42.6784 53.0703 44.2019 59.0265 44.3412 60.7022C44.1737 60.2701 43.8016 59.9645 43.7593 59.5148C43.3026 59.0863 43.4049 60.2666 43.5988 60.4739C43.3855 61.8914 44.5105 63.5214 43.9727 64.7685C43.1174 64.0431 44.0203 68.0619 44.4699 67.8511C44.3712 68.4185 44.3042 68.8664 44.7185 69.3231C44.6568 69.6217 44.7573 70.6633 45.1717 70.3664C45.1646 70.9742 45.3092 71.545 45.5473 72.0913C44.9795 71.4765 44.8508 71.3922 44.4964 71.9666C44.5369 72.404 44.6621 72.815 44.8684 73.1874C44.9918 73.4631 44.9548 73.8337 45.3674 73.8987C45.2017 74.3308 45.2422 74.6048 45.7254 74.784C45.5596 75.3478 45.6883 75.7466 46.2491 76.0048C46.034 76.2595 46.1697 76.7671 46.6017 76.7144C46.4342 77.7876 44.5969 74.7717 44.6938 76.126C44.7944 76.9673 45.14 77.6875 45.3992 78.4428C45.4697 78.701 45.4944 78.9785 45.7095 79.1752C45.9511 80.0956 46.3478 80.8878 46.7798 81.7731C47.069 82.0155 46.9332 83.0026 47.5134 83.368C47.3705 83.8176 47.6774 84.2374 48.0829 84.4219C48.2205 84.8188 48.1411 85.3194 48.596 85.6479C48.596 85.6479 48.6119 85.6497 48.6278 85.6514L48.596 85.6479C48.596 86.1573 47.9824 85.5794 48.0371 85.9149C47.926 86.6263 48.619 86.7229 48.9311 87.2533C48.6824 87.6626 49.4389 88.1035 49.6963 88.4601C49.5994 88.5303 49.5535 88.6287 49.5218 88.7305C49.0915 88.0262 46.2279 86.6667 47.7144 88.4583C48.1517 88.9097 48.2645 89.8916 49.0704 90.2692C49.58 91.3056 50.3523 92.4385 51.2128 93.3642C51.7823 94.2319 52.5018 94.8168 52.9567 95.8022C48.9117 94.6429 54.1328 98.0189 54.2827 99.2186C54.3056 99.1957 54.3285 99.1711 54.3515 99.1483C49.6276 97.6254 53.357 100.411 54.7147 101.957C55.0303 102.463 56.5468 104.019 55.048 103.12C52.9073 102.862 57.3297 105.498 57.7123 105.853C57.6383 106.322 58.4547 106.341 58.2343 106.882C55.8238 105.43 55.0374 106.793 57.3491 107.592C57.8693 108.066 58.5763 108.344 59.1053 108.853C54.7253 109.508 60.7928 111.337 62.0994 112.508C81.3724 119.51 106.953 113.534 127.67 115.148ZM121.51 65.6292C121.493 65.6309 121.472 65.6362 121.452 65.6415C121.459 65.6222 121.468 65.6028 121.475 65.5853C121.489 65.5993 121.5 65.6151 121.51 65.6292ZM125.55 100.75C125.547 100.752 125.545 100.754 125.541 100.755C125.541 100.75 125.543 100.745 125.543 100.741C125.547 100.745 125.548 100.748 125.55 100.75ZM94.1193 34.4444C94.1369 34.4479 94.1528 34.4532 94.1704 34.455C94.144 34.4954 94.1193 34.534 94.0928 34.5744C94.0876 34.5586 94.0735 34.462 94.1193 34.4444ZM87.3076 112.331C87.3147 112.329 87.3218 112.331 87.327 112.329C87.3235 112.334 87.3218 112.34 87.3182 112.345C87.3165 112.34 87.3112 112.336 87.3076 112.331ZM86.5177 111.784C86.4789 111.742 86.4472 111.693 86.4278 111.628C86.5494 111.612 86.5195 111.702 86.5177 111.784ZM53.126 51.9672L53.1242 51.9654C53.126 51.9654 53.1277 51.9654 53.1295 51.9654C53.1277 51.9654 53.1277 51.9654 53.126 51.9672ZM49.7845 76.551C49.7827 76.544 49.7827 76.5387 49.781 76.5317C49.7863 76.537 49.7898 76.5423 49.7951 76.5475C49.7916 76.5475 49.788 76.551 49.7845 76.551ZM54.5366 61.0658C54.5366 61.0728 54.5366 61.0816 54.5366 61.0886C54.5366 61.0816 54.5243 61.0676 54.5366 61.0658ZM58.7668 80.742V80.7438C58.765 80.742 58.765 80.742 58.7668 80.742ZM59.9835 89.5385C59.9799 89.5245 59.9817 89.5157 59.9993 89.5157C59.994 89.5245 59.9888 89.5297 59.9835 89.5385ZM53.1295 74.0744C53.1348 74.0779 53.1365 74.0832 53.1418 74.0884C53.1365 74.0884 53.1313 74.0849 53.1277 74.0884C53.1295 74.0832 53.1295 74.0797 53.1295 74.0744ZM51.7189 69.6884C51.7171 69.7025 51.7171 69.7165 51.6995 69.7077C51.7065 69.7007 51.7118 69.6937 51.7189 69.6884ZM52.1755 75.3847C52.1755 75.3882 52.1755 75.3935 52.1755 75.397C52.1738 75.3935 52.1703 75.39 52.1685 75.3882C52.1703 75.3865 52.172 75.3847 52.1755 75.3847ZM53.6567 76.3561C53.662 76.3596 53.6638 76.3631 53.6691 76.3666C53.662 76.3649 53.6585 76.3666 53.6567 76.3719C53.6567 76.3666 53.6567 76.3613 53.6567 76.3561ZM52.2408 74.048C52.2426 74.0586 52.2443 74.0674 52.2443 74.0761C52.2284 74.0656 52.2143 74.0586 52.1985 74.0498C52.2126 74.048 52.2267 74.048 52.2408 74.048ZM55.4412 74.9807C55.4341 74.9702 55.4253 74.9632 55.42 74.9526C55.45 74.9526 55.4817 74.9526 55.5117 74.9526C55.4853 74.9561 55.4623 74.9667 55.4412 74.9807ZM54.9069 70.045C54.9016 70.0485 54.8981 70.0538 54.8928 70.0573C54.8893 70.0467 54.8981 70.0397 54.9069 70.045ZM58.8338 79.6776C58.832 79.6741 58.832 79.6706 58.8303 79.667C58.8338 79.6723 58.8373 79.6776 58.8391 79.6829C58.8391 79.6811 58.8373 79.6794 58.8338 79.6776ZM57.5325 74.6013C57.5254 74.5925 57.5201 74.5855 57.5131 74.5767C57.5184 74.575 57.5219 74.5715 57.5272 74.5697C57.5289 74.5803 57.5307 74.5908 57.5325 74.6013ZM55.7198 74.9878C55.6792 74.9772 55.6387 74.9667 55.5946 74.9526C55.6457 74.9544 55.6951 74.9526 55.7445 74.9474C55.7374 74.9614 55.7286 74.9737 55.7198 74.9878ZM57.1816 89.1662C57.1833 89.1679 57.1851 89.1714 57.1869 89.1732C57.1851 89.1732 57.1833 89.1732 57.1816 89.1749C57.1816 89.1732 57.1816 89.1697 57.1816 89.1662ZM56.1236 87.9384C56.1306 87.9436 56.1359 87.9489 56.1412 87.9542C56.1342 87.9559 56.1289 87.9577 56.1218 87.9594C56.1236 87.9524 56.1236 87.9454 56.1236 87.9384ZM57.1728 93.3448C57.1745 93.3554 57.178 93.3677 57.1798 93.3782C57.1745 93.3677 57.1675 93.3571 57.1622 93.3466C57.1657 93.3466 57.1692 93.3466 57.1728 93.3448ZM58.4141 63.5056C58.4141 63.4599 58.4141 63.4142 58.4141 63.3703C58.4547 63.4265 58.4988 63.4705 58.4141 63.5056ZM57.707 65.6485C57.7053 65.6485 57.7053 65.6485 57.707 65.6485C57.7053 65.6503 57.707 65.6485 57.707 65.6485C57.707 65.6538 57.7053 65.6573 57.7035 65.6626C57.7017 65.659 57.7 65.6555 57.6965 65.652C57.7 65.6503 57.7035 65.6503 57.707 65.6485C57.7053 65.6485 57.7053 65.6485 57.707 65.6485ZM53.1277 60.9148C53.1207 60.9042 53.1154 60.8919 53.1101 60.8796C53.1172 60.8779 53.126 60.8761 53.133 60.8726C53.1295 60.8884 53.1295 60.9025 53.1277 60.9148ZM51.539 60.3825C51.5337 60.379 51.5302 60.3755 51.5249 60.372C51.5302 60.3702 51.5337 60.3702 51.539 60.3685C51.539 60.3738 51.539 60.3773 51.539 60.3825ZM51.8864 62.6396C51.8864 62.6502 51.8864 62.659 51.8846 62.6695C51.8776 62.6607 51.8723 62.6502 51.8652 62.6414C51.874 62.6414 51.8811 62.6396 51.8864 62.6396ZM49.252 66.8798C49.2538 66.8816 49.2538 66.8816 49.252 66.8798C49.252 66.8816 49.252 66.8816 49.252 66.8798C49.252 66.8816 49.252 66.8798 49.252 66.8798ZM51.5478 58.4574C51.5478 58.4504 51.5478 58.4434 51.5478 58.4363C51.5513 58.4363 51.5549 58.4381 51.5602 58.4381C51.5566 58.4451 51.5513 58.4504 51.5478 58.4574ZM49.0774 60.5635C49.0757 60.5599 49.0757 60.5582 49.0757 60.5547C49.0774 60.5547 49.0809 60.5547 49.0845 60.5547C49.0809 60.5582 49.0792 60.5599 49.0774 60.5635ZM62.6425 94.4321L62.6408 94.4304H62.6425C62.6425 94.4304 62.6425 94.4304 62.6425 94.4321ZM60.5283 71.4414C60.5442 71.4432 60.5583 71.4432 60.5742 71.4432C60.5583 71.4625 60.546 71.4572 60.5283 71.4414ZM50.8372 54.0697C50.8301 54.0662 50.8249 54.0627 50.8178 54.0592C50.8231 54.0557 50.8284 54.0504 50.8337 54.0451C50.8354 54.0539 50.8372 54.0627 50.8372 54.0697ZM51.0135 57.0522C51.0118 57.0505 51.01 57.0505 51.0082 57.0487C51.01 57.0487 51.0118 57.047 51.0118 57.047C51.0135 57.0505 51.0135 57.0522 51.0135 57.0522ZM62.2846 76.9217C62.2863 76.9076 62.2881 76.8953 62.2899 76.8813C62.2934 76.8971 62.2969 76.9111 62.2846 76.9217ZM48.5484 54.7723C48.5484 54.7705 48.5484 54.7688 48.5484 54.767C48.5502 54.7688 48.552 54.7688 48.5537 54.7705C48.552 54.7705 48.5502 54.7705 48.5484 54.7723ZM63.1715 106.306C63.1715 106.325 63.1715 106.345 63.1715 106.364C63.1539 106.346 63.138 106.327 63.1222 106.308C63.1363 106.308 63.1539 106.308 63.1715 106.306ZM53.1295 51.9637C53.1295 51.9549 53.1295 51.9444 53.1295 51.9356C53.1365 51.9373 53.1418 51.9408 53.1489 51.9426C53.1418 51.9496 53.1365 51.9566 53.1295 51.9637ZM63.473 106.84C63.4889 106.856 63.5065 106.873 63.5224 106.889C63.5295 106.896 63.5365 106.905 63.5436 106.912C63.5171 106.914 63.4995 106.866 63.473 106.84ZM48.917 49.1024C48.9117 49.1199 48.9081 49.1375 48.9011 49.1568C48.8993 49.1375 48.894 49.1182 48.8923 49.0988C48.8993 49.1006 48.9081 49.1006 48.917 49.1024ZM50.8372 43.19C50.8319 43.1865 50.8266 43.183 50.8213 43.1795C50.8266 43.1777 50.8319 43.176 50.8372 43.1742C50.8372 43.1795 50.8372 43.1847 50.8372 43.19ZM63.8751 111.445C63.8751 111.449 63.8751 111.451 63.8751 111.454C63.8733 111.453 63.8716 111.449 63.8698 111.447C63.8733 111.447 63.8733 111.445 63.8751 111.445ZM65.2857 110.4C65.2963 110.409 65.3034 110.418 65.3139 110.427C65.3034 110.434 65.2928 110.439 65.2822 110.446C65.2822 110.432 65.2822 110.416 65.2857 110.4ZM62.2881 62.4938C62.2863 62.4921 62.2863 62.4903 62.2846 62.4886C62.2863 62.4886 62.2863 62.4886 62.2881 62.4868C62.2881 62.4886 62.2881 62.4921 62.2881 62.4938ZM56.2999 53.8941C56.2982 53.8923 56.2964 53.8905 56.2964 53.8905C56.2982 53.8888 56.2999 53.8888 56.2999 53.887C56.2999 53.8905 56.2999 53.8923 56.2999 53.8941ZM50.3082 84.5817C50.3082 84.5887 50.31 84.5975 50.31 84.6045C50.3047 84.5993 50.3012 84.5923 50.2959 84.587C50.2994 84.5852 50.3029 84.5835 50.3082 84.5817ZM64.7567 80.9247C64.755 80.9247 64.7532 80.9247 64.7514 80.9247C64.7532 80.9229 64.755 80.9212 64.7567 80.9194C64.7567 80.9212 64.7567 80.9229 64.7567 80.9247ZM113.618 106.42C113.669 106.403 113.724 106.385 113.784 106.371C113.745 106.417 113.711 106.461 113.678 106.506C113.662 106.475 113.643 106.447 113.618 106.42ZM96.7995 40.1161C96.8842 40.081 96.8718 40.1372 96.796 40.1249C96.7978 40.1232 96.7978 40.1197 96.7995 40.1161ZM73.7461 53.8695C73.7496 53.8695 73.7531 53.8677 73.7549 53.8677C73.7496 53.8747 73.7443 53.8835 73.739 53.8905C73.7408 53.8835 73.7425 53.8765 73.7461 53.8695ZM112.149 78.2952C112.156 78.2987 112.163 78.304 112.17 78.3075C112.161 78.3075 112.154 78.311 112.146 78.3128C112.147 78.3075 112.147 78.3005 112.149 78.2952ZM71.6266 87.9384C71.6266 87.9436 71.6266 87.9489 71.6266 87.9542C71.6195 87.9507 71.6248 87.9436 71.6266 87.9384ZM117.614 85.481C117.615 85.481 117.615 85.4828 117.615 85.4828C117.614 85.4828 117.614 85.4846 117.612 85.4846C117.614 85.4846 117.614 85.4828 117.614 85.481ZM119.368 96.7191C119.368 96.7173 119.366 96.7156 119.366 96.7138C119.37 96.7138 119.372 96.712 119.375 96.712C119.372 96.7156 119.37 96.7173 119.368 96.7191ZM111.447 78.9908C111.456 79.0013 111.467 79.0119 111.476 79.0207C111.47 79.0242 111.465 79.0312 111.458 79.0312C111.46 79.033 111.446 78.9978 111.447 78.9908ZM111.978 47.5654C111.92 47.5742 111.879 47.5531 111.881 47.4934C111.913 47.518 111.946 47.5426 111.978 47.5654ZM78.7644 45.9828C78.7591 46.0021 78.7574 46.0197 78.7521 46.0373C78.7433 46.025 78.7345 46.0127 78.7256 46.0021C78.7397 45.9951 78.7521 45.9898 78.7644 45.9828ZM99.6314 104.096C99.6314 104.13 99.6243 104.146 99.5891 104.149C99.5115 104.051 99.6367 104.017 99.6314 104.096ZM109.474 81.4411C109.504 81.4991 109.455 81.4956 109.409 81.5131C109.43 81.4868 109.451 81.4639 109.474 81.4411ZM103.867 83.3838C103.865 83.382 103.863 83.3803 103.862 83.3768C103.865 83.3768 103.87 83.3768 103.874 83.3768C103.876 83.382 103.87 83.3908 103.87 83.3961C103.867 83.3926 103.867 83.3873 103.867 83.3838ZM105.182 85.3862C105.182 85.3774 105.182 85.3686 105.182 85.3598C105.188 85.3704 105.193 85.3809 105.198 85.3932C105.198 85.3932 105.189 85.3897 105.182 85.3862ZM102.107 88.2897C102.105 88.2985 102.1 88.3055 102.098 88.3143C102.093 88.3072 102.086 88.302 102.081 88.2949C102.089 88.2932 102.098 88.2897 102.107 88.2897ZM98.2578 86.0414C98.2595 86.0378 98.2613 86.0361 98.2631 86.0326C98.2648 86.0343 98.2666 86.0361 98.2666 86.0378C98.2631 86.0378 98.2595 86.0396 98.2578 86.0414ZM93.28 85.7024C93.28 85.7041 93.28 85.7041 93.2817 85.7059C93.28 85.7059 93.2782 85.7059 93.2764 85.7059C93.2764 85.7059 93.2782 85.7041 93.28 85.7024ZM96.0942 83.9195C96.0924 83.9265 96.0924 83.9336 96.0907 83.9388C96.0871 83.9353 96.0854 83.9318 96.0819 83.9283C96.0872 83.9265 96.0907 83.923 96.0942 83.9195ZM107.03 93.5521C107.028 93.5574 107.025 93.5609 107.021 93.5662C107.02 93.5609 107.018 93.5556 107.016 93.5504C107.021 93.5504 107.027 93.5504 107.03 93.5521ZM107.952 95.6581C107.952 95.6564 107.952 95.6564 107.952 95.6581C107.952 95.6564 107.952 95.6581 107.952 95.6581ZM102.772 84.4535C102.772 84.4465 102.77 84.4377 102.768 84.4307C102.782 84.4324 102.797 84.4359 102.812 84.4342C102.8 84.4412 102.786 84.4465 102.772 84.4535ZM102.012 84.0407C102.044 84.0214 102.075 84.0073 102.104 83.9968C102.075 84.0091 102.045 84.0232 102.012 84.0407ZM94.3062 82.8885C94.3027 82.8849 94.3027 82.8797 94.2992 82.8762C94.3027 82.8762 94.3044 82.8762 94.308 82.8744C94.308 82.8797 94.308 82.8832 94.3062 82.8885ZM103.363 86.7036C103.363 86.7036 103.363 86.7053 103.363 86.7036C103.361 86.7053 103.361 86.7036 103.361 86.7036H103.363ZM103.745 86.1994C103.745 86.1871 103.747 86.1766 103.747 86.1643C103.752 86.1749 103.758 86.1836 103.763 86.1942C103.758 86.1959 103.752 86.1977 103.745 86.1994ZM101.587 83.8879C101.573 83.8967 101.555 83.8932 101.538 83.8932C101.555 83.8844 101.571 83.8633 101.587 83.8879ZM105.635 98.6301C105.632 98.6407 105.628 98.6512 105.625 98.6618C105.6 98.6424 105.574 98.6301 105.544 98.6231C105.575 98.6249 105.605 98.6284 105.635 98.6301ZM103.888 83.5665C103.888 83.5735 103.886 83.5805 103.886 83.5858C103.856 83.5682 103.835 83.5366 103.888 83.5665ZM87.8402 96.366C87.8384 96.3643 87.8384 96.3643 87.8366 96.3625C87.8384 96.3625 87.8402 96.3625 87.8419 96.3625C87.8402 96.3625 87.8402 96.3643 87.8402 96.366ZM110.643 99.2027C110.64 99.2027 110.636 99.1992 110.634 99.201C110.638 99.1957 110.641 99.1905 110.645 99.1869C110.645 99.1922 110.643 99.1975 110.643 99.2027ZM95.9355 73.0995C95.932 73.1013 95.9302 73.103 95.9267 73.1066C95.9232 73.0872 95.9196 73.0697 95.9126 73.0539C95.9355 73.0679 95.962 73.0644 95.9355 73.0995ZM97.3479 73.3788C97.3479 73.3771 97.3479 73.3771 97.3479 73.3753C97.3532 73.3753 97.3532 73.3753 97.3479 73.3788ZM96.9988 105.487C96.9935 105.491 96.9882 105.494 96.9829 105.498C96.9811 105.494 96.9811 105.491 96.9794 105.487C96.9847 105.487 96.9917 105.487 96.9988 105.487ZM109.435 82.416C109.427 82.423 109.414 82.4195 109.405 82.4212C109.412 82.4107 109.425 82.4142 109.435 82.416ZM103.849 74.5486C103.847 74.5486 103.847 74.5469 103.846 74.5469L103.847 74.5451C103.849 74.5469 103.849 74.5486 103.849 74.5486ZM89.2438 62.9997C89.2297 62.9962 89.2155 62.9909 89.2014 62.9857C89.2208 62.9698 89.2314 62.9821 89.2438 62.9997ZM92.0668 100.748C92.0562 100.747 92.0315 100.748 92.0333 100.738C92.0439 100.741 92.0545 100.745 92.0668 100.748ZM80.0481 46.3938C80.0605 46.3798 80.071 46.3657 80.0851 46.3499C80.0781 46.3798 80.0869 46.4114 80.0481 46.3938ZM75.1144 61.2942C75.1056 61.2783 75.0985 61.2643 75.0897 61.2485C75.1003 61.245 75.1073 61.2397 75.1179 61.2362C75.1162 61.2555 75.1144 61.2731 75.1144 61.2942ZM100.16 64.7667C100.16 64.7773 100.167 64.7931 100.16 64.8001C100.159 64.7878 100.157 64.7773 100.157 64.765C100.155 64.765 100.159 64.7667 100.16 64.7667ZM99.9682 102.681C99.9699 102.688 99.9699 102.695 99.9717 102.702C99.9647 102.7 99.9576 102.698 99.9506 102.696C99.9558 102.691 99.9611 102.686 99.9682 102.681ZM100.682 97.9152C100.684 97.9346 100.684 97.9521 100.686 97.9715C100.679 97.9697 100.67 97.9679 100.663 97.9679C100.668 97.9504 100.675 97.9328 100.682 97.9152ZM111.28 101.973C111.278 101.971 111.276 101.969 111.274 101.967C111.276 101.966 111.278 101.966 111.282 101.966C111.282 101.967 111.28 101.971 111.28 101.973ZM111.77 48.2996C111.774 48.2996 111.775 48.2996 111.779 48.2996C111.779 48.3014 111.779 48.3014 111.779 48.3032C111.777 48.3014 111.774 48.2996 111.77 48.2996ZM75.3277 91.2722C75.3242 91.2704 75.3225 91.2669 75.3189 91.2652C75.3225 91.2617 75.3277 91.2581 75.3313 91.2529C75.3313 91.2599 75.3295 91.2652 75.3277 91.2722ZM72.6846 94.606C72.6881 94.6078 72.6916 94.6113 72.6969 94.613C72.6934 94.613 72.6881 94.6148 72.6846 94.6165C72.6846 94.613 72.6846 94.6095 72.6846 94.606ZM114.803 85.2878C114.803 85.2878 114.803 85.2861 114.803 85.2878C114.803 85.2861 114.803 85.2861 114.803 85.2878ZM81.3177 38.0997C81.3142 38.0962 81.3124 38.0927 81.3089 38.0892C81.3124 38.0874 81.3159 38.0856 81.3195 38.0839C81.3177 38.0892 81.3177 38.0944 81.3177 38.0997ZM74.4479 89.3418C74.439 89.3383 74.4443 89.3348 74.4479 89.3295C74.4479 89.3348 74.4479 89.3383 74.4479 89.3418ZM114.433 79.3333C114.433 79.3122 114.433 79.2912 114.433 79.2683C114.445 79.2771 114.455 79.2859 114.468 79.2947C114.457 79.307 114.447 79.321 114.433 79.3333ZM109.86 78.6377C109.864 78.6307 109.869 78.6255 109.873 78.6202C109.873 78.629 109.871 78.6377 109.86 78.6377ZM71.2827 91.1106C71.2774 91.1071 71.2739 91.1036 71.2757 91.0983C71.2774 91.1018 71.2792 91.1053 71.2827 91.1106ZM111.431 102.63C111.431 102.63 111.433 102.635 111.435 102.64C111.431 102.638 111.428 102.638 111.424 102.637C111.428 102.635 111.43 102.631 111.431 102.63ZM118.769 56.2741C118.746 56.2794 118.724 56.2864 118.705 56.2952C118.724 56.246 118.749 56.1968 118.779 56.1494C118.776 56.1898 118.774 56.2319 118.769 56.2741ZM112.853 45.3593C112.837 45.3558 112.821 45.3505 112.803 45.347C112.819 45.3154 112.835 45.2837 112.853 45.2504C112.851 45.289 112.853 45.3241 112.853 45.3593ZM77.2674 43.3727C77.2674 43.3674 77.2674 43.3604 77.2674 43.3551C77.2727 43.3569 77.2762 43.3586 77.2815 43.3604C77.2762 43.3639 77.2727 43.3692 77.2674 43.3727ZM73.2171 89.0362C73.1906 89.0256 73.1994 89.0116 73.2118 88.9923C73.2153 89.0063 73.2153 89.0204 73.2171 89.0362ZM108.968 106.208C108.956 106.199 108.942 106.19 108.929 106.183C108.94 106.178 108.952 106.171 108.965 106.167C108.963 106.167 108.968 106.208 108.968 106.208ZM112.869 36.1834C112.854 36.1886 112.854 36.1798 112.856 36.1693C112.86 36.1746 112.863 36.1798 112.869 36.1834ZM112.854 36.8719C112.858 36.8737 112.861 36.8772 112.865 36.8789C112.861 36.8824 112.858 36.886 112.853 36.8895C112.854 36.8842 112.854 36.8772 112.854 36.8719C112.856 36.8719 112.854 36.8719 112.854 36.8719ZM111.826 29.9004C111.821 29.8793 111.818 29.8565 111.814 29.8336C111.856 29.8424 111.837 29.8688 111.826 29.9004ZM111.587 30.6768C111.59 30.6873 111.592 30.6978 111.594 30.7066C111.585 30.7066 111.576 30.7066 111.569 30.7049C111.574 30.6961 111.581 30.6855 111.587 30.6768ZM100.434 109.599C100.416 109.664 100.427 109.721 100.346 109.698C100.377 109.663 100.404 109.633 100.434 109.599ZM116.356 77.3959C116.37 77.3959 116.381 77.3977 116.376 77.4152C116.369 77.41 116.363 77.4012 116.356 77.3959ZM111.428 31.0808C111.43 31.1071 111.43 31.1352 111.431 31.1616C111.419 31.158 111.405 31.1563 111.394 31.151C111.407 31.1282 111.417 31.1036 111.428 31.0808ZM99.2417 44.4248C99.2505 44.4125 99.2558 44.402 99.2646 44.3897C99.2682 44.3967 99.2734 44.402 99.2787 44.409C99.2664 44.4143 99.254 44.4178 99.2417 44.4248ZM95.2319 36.3309C95.2284 36.3274 95.2231 36.3239 95.2196 36.3204C95.2267 36.3186 95.2337 36.3169 95.2408 36.3151C95.2372 36.3204 95.2337 36.3256 95.2319 36.3309ZM71.0993 63.8973C71.0993 63.8903 71.1011 63.8832 71.1011 63.8762C71.1117 63.8832 71.1046 63.8903 71.0993 63.8973ZM71.0993 63.8973L71.1029 63.899C71.1011 63.9008 71.1011 63.9008 71.0993 63.9025C71.0993 63.9008 71.0993 63.899 71.0993 63.8973ZM115.674 105.663C115.674 105.667 115.674 105.668 115.674 105.672C115.667 105.67 115.672 105.667 115.674 105.663ZM119.717 101.256C119.719 101.268 119.721 101.282 119.721 101.296C119.712 101.291 119.703 101.286 119.694 101.281C119.701 101.274 119.708 101.265 119.717 101.256ZM120.079 101.627C120.079 101.63 120.077 101.632 120.077 101.635C120.075 101.634 120.073 101.632 120.072 101.63C120.073 101.628 120.075 101.627 120.079 101.627ZM81.8432 31.5708C81.8449 31.5831 81.8467 31.5954 81.8467 31.6077C81.8361 31.5936 81.8255 31.5814 81.8432 31.5708ZM72.1591 43.1549C72.1591 43.1672 72.1591 43.1777 72.1573 43.19C72.1415 43.1707 72.1291 43.1478 72.115 43.1268C72.1291 43.1356 72.1432 43.1461 72.1591 43.1549ZM75.594 74.589C75.5905 74.5908 75.587 74.5926 75.5834 74.5943C75.5852 74.5838 75.5887 74.5715 75.5905 74.5609C75.5922 74.5715 75.594 74.5785 75.594 74.589ZM64.5804 75.3039C64.5804 75.2987 64.5804 75.2951 64.5804 75.2899C64.5857 75.2916 64.5892 75.2934 64.5945 75.2951C64.5892 75.2969 64.5857 75.3004 64.5804 75.3039ZM45.7254 66.1438C45.7271 66.1561 45.7271 66.1667 45.7289 66.179C45.7219 66.1702 45.7183 66.1596 45.7113 66.1509C45.7166 66.1473 45.7201 66.1473 45.7254 66.1438ZM81.0479 109.157C81.0497 109.157 81.0497 109.157 81.0514 109.157L81.0497 109.159C81.0497 109.159 81.0479 109.159 81.0479 109.157ZM119.375 106.54C119.38 106.522 119.368 106.487 119.395 106.492C119.387 106.508 119.38 106.524 119.375 106.54ZM112.525 23.9617C112.525 23.9494 112.523 23.9371 112.521 23.9266C112.53 23.9318 112.541 23.9336 112.551 23.9371C112.542 23.9459 112.535 23.9529 112.525 23.9617ZM71.7923 42.0852C71.7447 41.9868 71.7623 41.9113 71.8505 41.834C71.8276 41.9236 71.8082 42.0061 71.7923 42.0852ZM71.6001 42.8738C71.6001 42.8791 71.6001 42.8844 71.6001 42.8896C71.5948 42.8861 71.5895 42.8809 71.5843 42.8756C71.5895 42.8756 71.5948 42.8756 71.6001 42.8738ZM59.689 109.355C59.6643 109.352 59.6396 109.352 59.6537 109.32C59.6643 109.331 59.6767 109.343 59.689 109.355ZM118.8 102.257C118.816 102.224 118.832 102.191 118.848 102.159C118.878 102.18 118.897 102.205 118.913 102.231C118.873 102.238 118.836 102.247 118.8 102.257ZM91.8147 34.4901C91.7829 34.4831 91.7512 34.4725 91.7247 34.4515C91.7547 34.4638 91.7847 34.4778 91.8147 34.4901ZM76.2623 26.5121C76.2517 26.5244 76.2429 26.535 76.2323 26.5473C76.2253 26.5191 76.2323 26.5069 76.2623 26.5121ZM45.4097 42.9459C45.415 42.9581 45.4203 42.9704 45.4256 42.9827C45.4115 42.9845 45.3992 42.988 45.3886 42.9933C45.3956 42.9775 45.4027 42.9617 45.4097 42.9459ZM45.3357 58.0798C45.2369 58.0201 45.2352 57.9849 45.2704 57.8866C45.2828 57.9516 45.3039 58.0165 45.3357 58.0798ZM45.0359 72.9924C45.0395 72.9889 45.0412 72.9854 45.0447 72.9818C45.0465 72.9836 45.0465 72.9854 45.0483 72.9871C45.0447 72.9889 45.0412 72.9906 45.0359 72.9924ZM45.2775 77.7665C45.2775 77.77 45.2793 77.7718 45.2793 77.7753C45.2616 77.7718 45.2458 77.7683 45.2281 77.7595C45.2458 77.763 45.2616 77.7648 45.2775 77.7665Z" fill="#8E97CD"/>
</svg>
