<svg width="80" height="80" viewBox="0 0 80 80" fill="none" xmlns="http://www.w3.org/2000/svg">
<rect width="80" height="80" rx="6" fill="#F5F5F5"/>
<path d="M38.259 68.8302L37.8895 68.6824C29.539 65.8001 18.5281 57.5966 15.2027 43.9979C11.36 28.1821 12.6901 19.609 12.764 19.2395L12.8379 18.5743L13.4291 18.4265C13.4291 18.4265 16.5329 17.5397 24.8834 15.3964C33.7512 13.1053 37.9634 12.2184 38.0373 12.2184L38.259 12.1445L38.4807 12.2184C38.5546 12.2184 42.7668 13.1053 51.6346 15.3964C60.0591 17.5397 63.0889 18.4265 63.0889 18.4265L63.6801 18.5743L63.754 19.2395C63.8279 19.609 65.1581 28.1821 61.3153 43.9979C57.9899 57.5966 46.979 65.8001 38.5546 68.7563L38.259 68.8302Z" fill="url(#paint0_linear_391_5434)"/>
<path opacity="0.6" d="M38.2584 64.9516L37.9396 64.8243C30.7345 62.3422 21.234 55.2775 18.3647 43.5668C15.0491 29.9467 16.1968 22.5639 16.2606 22.2457L16.3243 21.6729L16.8344 21.5456C16.8344 21.5456 19.5124 20.7818 26.7175 18.9361C34.369 16.9631 38.0034 16.1994 38.0672 16.1994L38.2584 16.1357L38.4497 16.1994C38.5135 16.1994 42.1479 16.9631 49.7994 18.9361C57.0682 20.7818 59.6825 21.5456 59.6825 21.5456L60.1926 21.6729L60.2563 22.2457C60.3201 22.5639 61.4678 29.9467 58.1522 43.5668C55.2829 55.2775 45.7824 62.3422 38.5135 64.888L38.2584 64.9516ZM17.9184 23.0731C17.7271 24.9824 17.3445 31.9834 20.0863 43.1213C22.7005 54.0046 31.4359 60.6237 38.2584 63.0422C45.081 60.6237 53.8164 54.0046 56.4306 43.1213C59.1724 31.9198 58.7898 24.9824 58.5985 23.0731C57.5146 22.7548 54.6453 21.9911 49.353 20.5909C42.658 18.8725 39.0874 18.1087 38.2584 17.9815C37.4933 18.1087 33.8589 18.8725 27.2276 20.5909C21.8716 21.9911 19.0661 22.7548 17.9184 23.0731Z" fill="white"/>
<circle cx="59.5875" cy="18.7603" r="7.41362" fill="#13D38E"/>
<g clip-path="url(#clip0_391_5434)">
<path d="M61.549 17.5558H61.2325V16.9226C61.2325 16.0489 60.5234 15.3398 59.6497 15.3398C58.776 15.3398 58.0669 16.0489 58.0669 16.9226V17.5558H57.7503C57.4005 17.5558 57.1172 17.8391 57.1172 18.1889V21.3545C57.1172 21.7043 57.4005 21.9876 57.7503 21.9876H61.549C61.8988 21.9876 62.1821 21.7043 62.1821 21.3545V18.1889C62.1821 17.8391 61.8988 17.5558 61.549 17.5558ZM59.6497 20.4048C59.2999 20.4048 59.0165 20.1215 59.0165 19.7717C59.0165 19.4219 59.2999 19.1386 59.6497 19.1386C59.9995 19.1386 60.2828 19.4219 60.2828 19.7717C60.2828 20.1215 59.9995 20.4048 59.6497 20.4048ZM60.631 17.5558H58.6683V16.9226C58.6683 16.3813 59.1083 15.9413 59.6497 15.9413C60.191 15.9413 60.631 16.3813 60.631 16.9226V17.5558Z" fill="white"/>
</g>
<g opacity="0.8">
<path d="M28.7637 50.3535V46.7038H29.3143V49.8795H30.9682V50.3535H28.7637Z" fill="white"/>
<path d="M31.4633 50.3535V47.6162H31.9961V50.3535H31.4633ZM31.7324 47.1938C31.6397 47.1938 31.5601 47.1629 31.4935 47.1012C31.4282 47.0382 31.3955 46.9633 31.3955 46.8766C31.3955 46.7887 31.4282 46.7138 31.4935 46.6521C31.5601 46.5891 31.6397 46.5576 31.7324 46.5576C31.825 46.5576 31.904 46.5891 31.9694 46.6521C32.0359 46.7138 32.0692 46.7887 32.0692 46.8766C32.0692 46.9633 32.0359 47.0382 31.9694 47.1012C31.904 47.1629 31.825 47.1938 31.7324 47.1938Z" fill="white"/>
<path d="M34.4707 51.38V49.9276H34.4386C34.4065 49.9858 34.3602 50.0524 34.2996 50.1272C34.2402 50.2021 34.1582 50.2674 34.0537 50.3232C33.9491 50.3791 33.8137 50.407 33.6474 50.407C33.4264 50.407 33.2291 50.3506 33.0557 50.2377C32.8834 50.1236 32.748 49.9615 32.6494 49.7512C32.5519 49.5397 32.5032 49.286 32.5032 48.9902C32.5032 48.6944 32.5525 48.4413 32.6511 48.231C32.7509 48.0207 32.8876 47.8598 33.061 47.7481C33.2345 47.6364 33.4311 47.5806 33.6509 47.5806C33.8208 47.5806 33.9574 47.6091 34.0608 47.6661C34.1654 47.7219 34.2461 47.7873 34.3032 47.8621C34.3614 47.937 34.4065 48.0029 34.4386 48.0599H34.4832V47.6162H35.0035V51.38H34.4707ZM33.765 49.9526C33.9182 49.9526 34.0477 49.9122 34.1535 49.8314C34.2604 49.7494 34.3412 49.6359 34.3958 49.491C34.4517 49.346 34.4796 49.1773 34.4796 48.9849C34.4796 48.7948 34.4523 48.6284 34.3976 48.4859C34.343 48.3433 34.2628 48.2322 34.157 48.1526C34.0513 48.073 33.9206 48.0332 33.765 48.0332C33.6046 48.0332 33.4709 48.0748 33.364 48.158C33.2571 48.2411 33.1763 48.3546 33.1216 48.4983C33.0682 48.6421 33.0414 48.8043 33.0414 48.9849C33.0414 49.1678 33.0688 49.3324 33.1234 49.4785C33.1781 49.6246 33.2588 49.7405 33.3658 49.826C33.4739 49.9104 33.607 49.9526 33.765 49.9526Z" fill="white"/>
<path d="M37.3636 49.2183V47.6162H37.8983V50.3535H37.3743V49.8795H37.3458C37.2828 50.0256 37.1819 50.1474 37.0428 50.2448C36.905 50.3411 36.7334 50.3892 36.5278 50.3892C36.352 50.3892 36.1963 50.3506 36.0609 50.2733C35.9266 50.1949 35.8209 50.0791 35.7437 49.9258C35.6676 49.7726 35.6296 49.5831 35.6296 49.3573V47.6162H36.1625V49.2932C36.1625 49.4797 36.2142 49.6282 36.3175 49.7387C36.4209 49.8492 36.5551 49.9044 36.7203 49.9044C36.8201 49.9044 36.9193 49.8795 37.0179 49.8296C37.1177 49.7797 37.2003 49.7042 37.2656 49.6033C37.3321 49.5023 37.3648 49.374 37.3636 49.2183Z" fill="white"/>
<path d="M38.5239 50.3535V47.6162H39.0568V50.3535H38.5239ZM38.793 47.1938C38.7003 47.1938 38.6207 47.1629 38.5542 47.1012C38.4889 47.0382 38.4562 46.9633 38.4562 46.8766C38.4562 46.7887 38.4889 46.7138 38.5542 46.6521C38.6207 46.5891 38.7003 46.5576 38.793 46.5576C38.8857 46.5576 38.9647 46.5891 39.03 46.6521C39.0966 46.7138 39.1298 46.7887 39.1298 46.8766C39.1298 46.9633 39.0966 47.0382 39.03 47.1012C38.9647 47.1629 38.8857 47.1938 38.793 47.1938Z" fill="white"/>
<path d="M40.708 50.407C40.487 50.407 40.2898 50.3506 40.1163 50.2377C39.9441 50.1236 39.8086 49.9615 39.71 49.7512C39.6126 49.5397 39.5639 49.286 39.5639 48.9902C39.5639 48.6944 39.6132 48.4413 39.7118 48.231C39.8116 48.0207 39.9482 47.8598 40.1217 47.7481C40.2951 47.6364 40.4918 47.5806 40.7116 47.5806C40.8815 47.5806 41.0181 47.6091 41.1215 47.6661C41.226 47.7219 41.3068 47.7873 41.3638 47.8621C41.422 47.937 41.4672 48.0029 41.4993 48.0599H41.5313V46.7038H42.0642V50.3535H41.5438V49.9276H41.4993C41.4672 49.9858 41.4209 50.0524 41.3603 50.1272C41.3009 50.2021 41.2189 50.2674 41.1143 50.3232C41.0098 50.3791 40.8743 50.407 40.708 50.407ZM40.8256 49.9526C40.9789 49.9526 41.1084 49.9122 41.2141 49.8314C41.3211 49.7494 41.4018 49.6359 41.4565 49.491C41.5123 49.346 41.5403 49.1773 41.5403 48.9849C41.5403 48.7948 41.5129 48.6284 41.4583 48.4859C41.4036 48.3433 41.3234 48.2322 41.2177 48.1526C41.1119 48.073 40.9813 48.0332 40.8256 48.0332C40.6652 48.0332 40.5316 48.0748 40.4246 48.158C40.3177 48.2411 40.2369 48.3546 40.1823 48.4983C40.1288 48.6421 40.1021 48.8043 40.1021 48.9849C40.1021 49.1678 40.1294 49.3324 40.1841 49.4785C40.2387 49.6246 40.3195 49.7405 40.4264 49.826C40.5345 49.9104 40.6676 49.9526 40.8256 49.9526Z" fill="white"/>
<path d="M42.7344 50.3535V47.6162H43.2672V50.3535H42.7344ZM43.0035 47.1938C42.9108 47.1938 42.8312 47.1629 42.7647 47.1012C42.6993 47.0382 42.6667 46.9633 42.6667 46.8766C42.6667 46.7887 42.6993 46.7138 42.7647 46.6521C42.8312 46.5891 42.9108 46.5576 43.0035 46.5576C43.0962 46.5576 43.1752 46.5891 43.2405 46.6521C43.307 46.7138 43.3403 46.7887 43.3403 46.8766C43.3403 46.9633 43.307 47.0382 43.2405 47.1012C43.1752 47.1629 43.0962 47.1938 43.0035 47.1938Z" fill="white"/>
<path d="M45.1715 47.6162V48.0439H43.6763V47.6162H45.1715ZM44.0773 46.9604H44.6102V49.5498C44.6102 49.6532 44.6256 49.731 44.6565 49.7833C44.6874 49.8343 44.7272 49.8694 44.7759 49.8884C44.8258 49.9062 44.8799 49.9151 44.9381 49.9151C44.9809 49.9151 45.0183 49.9122 45.0504 49.9062C45.0824 49.9003 45.1074 49.8955 45.1252 49.892L45.2214 50.3321C45.1906 50.344 45.1466 50.3559 45.0896 50.3678C45.0325 50.3809 44.9613 50.388 44.8757 50.3892C44.7355 50.3916 44.6048 50.3666 44.4836 50.3143C44.3625 50.2621 44.2644 50.1813 44.1896 50.072C44.1147 49.9627 44.0773 49.8254 44.0773 49.6603V46.9604Z" fill="white"/>
<path d="M46.0075 51.38C45.9279 51.38 45.8554 51.3735 45.7901 51.3604C45.7247 51.3486 45.676 51.3355 45.6439 51.3212L45.7722 50.8846C45.8697 50.9107 45.9564 50.922 46.0324 50.9185C46.1085 50.9149 46.1756 50.8864 46.2338 50.8329C46.2932 50.7795 46.3455 50.6921 46.3906 50.571L46.4566 50.3892L45.455 47.6162H46.0253L46.7185 49.7405H46.7471L47.4403 47.6162H48.0124L46.8843 50.7189C46.832 50.8614 46.7655 50.982 46.6847 51.0806C46.6039 51.1804 46.5077 51.2553 46.396 51.3052C46.2843 51.3551 46.1548 51.38 46.0075 51.38Z" fill="white"/>
<path d="M31.6596 53.0909V56.7407H31.1267V53.0909H31.6596Z" fill="white"/>
<path d="M33.4391 56.7959C33.1825 56.7959 32.9585 56.7371 32.7673 56.6195C32.576 56.5019 32.4275 56.3373 32.3217 56.1258C32.216 55.9143 32.1631 55.6672 32.1631 55.3845C32.1631 55.1005 32.216 54.8522 32.3217 54.6395C32.4275 54.4269 32.576 54.2617 32.7673 54.1441C32.9585 54.0265 33.1825 53.9677 33.4391 53.9677C33.6957 53.9677 33.9197 54.0265 34.111 54.1441C34.3023 54.2617 34.4508 54.4269 34.5565 54.6395C34.6623 54.8522 34.7151 55.1005 34.7151 55.3845C34.7151 55.6672 34.6623 55.9143 34.5565 56.1258C34.4508 56.3373 34.3023 56.5019 34.111 56.6195C33.9197 56.7371 33.6957 56.7959 33.4391 56.7959ZM33.4409 56.3486C33.6072 56.3486 33.7451 56.3046 33.8544 56.2167C33.9637 56.1288 34.0444 56.0118 34.0967 55.8656C34.1502 55.7195 34.1769 55.5585 34.1769 55.3827C34.1769 55.208 34.1502 55.0476 34.0967 54.9015C34.0444 54.7542 33.9637 54.636 33.8544 54.5469C33.7451 54.4578 33.6072 54.4132 33.4409 54.4132C33.2734 54.4132 33.1344 54.4578 33.0239 54.5469C32.9146 54.636 32.8332 54.7542 32.7797 54.9015C32.7275 55.0476 32.7013 55.208 32.7013 55.3827C32.7013 55.5585 32.7275 55.7195 32.7797 55.8656C32.8332 56.0118 32.9146 56.1288 33.0239 56.2167C33.1344 56.3046 33.2734 56.3486 33.4409 56.3486Z" fill="white"/>
<path d="M36.3726 56.7959C36.1077 56.7959 35.8795 56.7359 35.6883 56.6159C35.4982 56.4947 35.352 56.3278 35.2499 56.1151C35.1477 55.9025 35.0966 55.6589 35.0966 55.3845C35.0966 55.1065 35.1489 54.8611 35.2534 54.6484C35.358 54.4346 35.5053 54.2677 35.6954 54.1477C35.8855 54.0277 36.1094 53.9677 36.3673 53.9677C36.5752 53.9677 36.7605 54.0063 36.9233 54.0835C37.086 54.1596 37.2173 54.2665 37.3171 54.4043C37.4181 54.5421 37.4781 54.7031 37.4971 54.8873H36.9785C36.95 54.7589 36.8847 54.6484 36.7825 54.5558C36.6815 54.4631 36.5461 54.4168 36.3762 54.4168C36.2277 54.4168 36.0976 54.456 35.9859 54.5344C35.8754 54.6116 35.7893 54.7221 35.7275 54.8659C35.6657 55.0084 35.6348 55.1771 35.6348 55.372C35.6348 55.5716 35.6651 55.7439 35.7257 55.8888C35.7863 56.0337 35.8718 56.146 35.9823 56.2256C36.094 56.3052 36.2253 56.345 36.3762 56.345C36.4772 56.345 36.5686 56.3266 36.6506 56.2898C36.7338 56.2518 36.8033 56.1977 36.8591 56.1276C36.9162 56.0575 36.956 55.9732 36.9785 55.8745H37.4971C37.4781 56.0516 37.4205 56.2096 37.3243 56.3486C37.228 56.4876 37.0991 56.5969 36.9375 56.6765C36.7771 56.7561 36.5888 56.7959 36.3726 56.7959Z" fill="white"/>
<path d="M38.4667 55.8122L38.4631 55.1617H38.5558L39.6465 54.0033H40.2845L39.0405 55.3221H38.9568L38.4667 55.8122ZM37.9766 56.7407V53.0909H38.5095V56.7407H37.9766ZM39.7053 56.7407L38.7251 55.4397L39.0922 55.0672L40.3593 56.7407H39.7053Z" fill="white"/>
<path d="M41.7468 56.7959C41.4771 56.7959 41.2448 56.7383 41.05 56.623C40.8563 56.5066 40.7066 56.3432 40.6009 56.133C40.4964 55.9215 40.4441 55.6738 40.4441 55.3898C40.4441 55.1094 40.4964 54.8623 40.6009 54.6484C40.7066 54.4346 40.854 54.2677 41.0429 54.1477C41.233 54.0277 41.4551 53.9677 41.7094 53.9677C41.8638 53.9677 42.0135 53.9932 42.1585 54.0443C42.3034 54.0954 42.4335 54.1756 42.5488 54.2849C42.664 54.3942 42.7549 54.5362 42.8214 54.7108C42.888 54.8843 42.9212 55.0952 42.9212 55.3435V55.5324H40.7453V55.1332H42.3991C42.3991 54.993 42.3706 54.8688 42.3135 54.7607C42.2565 54.6514 42.1763 54.5653 42.0729 54.5023C41.9708 54.4393 41.8508 54.4079 41.713 54.4079C41.5633 54.4079 41.4326 54.4447 41.3209 54.5184C41.2104 54.5908 41.1249 54.6859 41.0643 54.8035C41.0049 54.9199 40.9752 55.0465 40.9752 55.1831V55.495C40.9752 55.6779 41.0072 55.8336 41.0714 55.9619C41.1367 56.0902 41.2276 56.1882 41.3441 56.2559C41.4605 56.3225 41.5965 56.3557 41.7522 56.3557C41.8531 56.3557 41.9452 56.3415 42.0284 56.3129C42.1116 56.2832 42.1834 56.2393 42.244 56.1811C42.3046 56.1229 42.351 56.051 42.383 55.9654L42.8874 56.0563C42.847 56.2048 42.7745 56.3349 42.67 56.4466C42.5666 56.5571 42.4365 56.6432 42.2797 56.705C42.124 56.7656 41.9464 56.7959 41.7468 56.7959Z" fill="white"/>
<path d="M44.4468 56.7941C44.2259 56.7941 44.0286 56.7377 43.8552 56.6248C43.6829 56.5108 43.5475 56.3486 43.4488 56.1383C43.3514 55.9268 43.3027 55.6732 43.3027 55.3773C43.3027 55.0815 43.352 54.8284 43.4506 54.6182C43.5504 54.4079 43.6871 54.2469 43.8605 54.1352C44.034 54.0235 44.2306 53.9677 44.4504 53.9677C44.6203 53.9677 44.7569 53.9962 44.8603 54.0532C44.9648 54.1091 45.0456 54.1744 45.1027 54.2493C45.1609 54.3241 45.206 54.39 45.2381 54.4471H45.2702V53.0909H45.803V56.7407H45.2826V56.3147H45.2381C45.206 56.3729 45.1597 56.4395 45.0991 56.5143C45.0397 56.5892 44.9577 56.6545 44.8532 56.7104C44.7486 56.7662 44.6132 56.7941 44.4468 56.7941ZM44.5645 56.3397C44.7177 56.3397 44.8472 56.2993 44.953 56.2185C45.0599 56.1365 45.1407 56.0231 45.1953 55.8781C45.2512 55.7332 45.2791 55.5645 45.2791 55.372C45.2791 55.1819 45.2518 55.0156 45.1971 54.873C45.1425 54.7304 45.0623 54.6193 44.9565 54.5397C44.8508 54.4601 44.7201 54.4203 44.5645 54.4203C44.4041 54.4203 44.2704 54.4619 44.1635 54.5451C44.0566 54.6283 43.9758 54.7417 43.9211 54.8855C43.8676 55.0292 43.8409 55.1914 43.8409 55.372C43.8409 55.555 43.8682 55.7195 43.9229 55.8656C43.9775 56.0118 44.0583 56.1276 44.1653 56.2131C44.2734 56.2975 44.4064 56.3397 44.5645 56.3397Z" fill="white"/>
</g>
<path d="M38.8896 28.3291C41.8163 28.3291 44.2265 30.6963 44.2265 33.666C44.2265 36.5926 41.8593 39.0028 38.8896 39.0028C35.9629 39.0028 33.5527 36.6357 33.5527 33.666C33.5527 30.7393 35.9629 28.3291 38.8896 28.3291Z" fill="#DB2728"/>
<path d="M37.2965 34.8699C37.1674 34.9129 37.0383 34.956 36.8661 34.956C36.1775 34.956 35.661 34.3965 35.661 33.7509C35.661 33.0622 36.2205 32.5458 36.8661 32.5458C36.9091 32.5458 36.9522 32.5458 36.9522 32.5458V32.0293C36.9091 32.0293 36.8661 32.0293 36.8661 32.0293C35.9192 32.0293 35.1445 32.804 35.1445 33.7509C35.1445 34.6977 35.9192 35.4724 36.8661 35.4724C37.1674 35.4724 37.4256 35.3864 37.6408 35.3003C37.5117 35.1281 37.3826 34.999 37.2965 34.8699Z" fill="white"/>
<path d="M38.0709 33.7064C38.0709 33.9647 37.9849 34.1799 37.8558 34.3951C37.9418 34.5242 38.0709 34.6533 38.2001 34.7394C38.4153 34.4381 38.5444 34.0938 38.5444 33.7064V31.0811H38.0279V32.5013C37.8988 32.3722 37.8127 32.2862 37.6836 32.2001V32.8026C37.9418 33.0609 38.0709 33.3621 38.0709 33.7064Z" fill="white"/>
<path d="M40.6102 30.0928C39.6634 30.0928 38.8887 30.8675 38.8887 31.8143V34.4397H39.4051V33.0194C39.5343 33.1486 39.7064 33.2777 39.9216 33.3638V32.8042C39.6203 32.589 39.4051 32.2017 39.4051 31.8143C39.4051 31.1257 39.9647 30.6092 40.6102 30.6092C41.2989 30.6092 41.8153 31.1688 41.8153 31.8143C41.8153 32.4599 41.2989 33.0194 40.6533 33.0194V33.5359C41.6001 33.4929 42.3318 32.7612 42.3318 31.8143C42.3318 30.8675 41.6001 30.0928 40.6102 30.0928Z" fill="white"/>
<path d="M40.0497 33.8369C40.0497 34.5255 39.4902 35.042 38.8446 35.042C38.156 35.042 37.6395 34.4825 37.6395 33.8369V31.9432V31.4697H37.123V31.9432V31.9862V33.923C37.2091 34.8268 37.9408 35.5154 38.8446 35.5154C39.318 35.5154 39.7484 35.3002 40.0497 34.9989V35.7306C40.0497 36.4192 39.4902 36.9357 38.8446 36.9357C38.5003 36.9357 38.156 36.7635 37.9408 36.5053C37.8117 36.3762 37.7256 36.204 37.6826 36.0749L37.2522 36.5484C37.3382 36.7205 37.4243 36.8496 37.5534 36.9787C37.8547 37.3231 38.3281 37.5383 38.8016 37.5383C39.5332 37.5383 40.1358 37.1079 40.394 36.4623C40.4801 36.2471 40.5231 36.0319 40.5231 35.8167V34.1382V33.8369V32.1584H40.0067V33.8369H40.0497Z" fill="white"/>
<path d="M47.0666 34.6973L48.7451 34.5682L48.4869 31.3402L46.8514 31.4694C46.5931 30.5655 46.2058 29.7048 45.6893 28.9731L46.8083 27.768L44.4412 25.53L43.3221 26.692C42.4614 26.1755 41.5575 25.7451 40.5246 25.573V23.9375H37.2967V25.573C36.0055 25.8312 34.8434 26.3907 33.8535 27.1654L32.6054 26.0895L30.4965 28.5427L31.7446 29.6187C31.2281 30.5225 30.8838 31.5985 30.7547 32.6745L29.0762 32.8036L29.3344 36.0315L31.0129 35.9024C31.2712 36.8062 31.6585 37.624 32.175 38.3556L31.0129 39.6038L33.3801 41.8418L34.5852 40.5937C35.4029 41.1101 36.3498 41.4975 37.3397 41.6697V43.3912H40.5676V41.6697C41.8158 41.4114 42.9778 40.8949 43.9247 40.1202L45.2159 41.2393L47.3248 38.786L46.0336 37.667C46.5501 36.8062 46.9374 35.7733 47.0666 34.6973ZM38.8891 38.8291C36.0485 38.8291 33.7244 36.5049 33.7244 33.6644C33.7244 30.8238 36.0485 28.4997 38.8891 28.4997C41.7297 28.4997 44.0538 30.8238 44.0538 33.6644C44.0538 36.548 41.7727 38.8291 38.8891 38.8291Z" fill="white"/>
<defs>
<linearGradient id="paint0_linear_391_5434" x1="30.1686" y1="62.6155" x2="67.2815" y2="7.37405" gradientUnits="userSpaceOnUse">
<stop stop-color="#E30613"/>
<stop offset="1" stop-color="#FC4F36"/>
</linearGradient>
<clipPath id="clip0_391_5434">
<rect width="7.59743" height="7.59743" fill="white" transform="translate(55.8516 15.0234)"/>
</clipPath>
</defs>
</svg>
