<svg width="63" height="66" viewBox="0 0 63 66" fill="none" xmlns="http://www.w3.org/2000/svg">
<path d="M29.3386 65.4282L28.9181 65.26C19.4136 61.9793 6.88115 52.6422 3.09618 37.1643C-1.27756 19.1629 0.236427 9.40517 0.320538 8.98457L0.404648 8.2275L1.07753 8.05927C1.07753 8.05927 4.61017 7.04984 14.1146 4.6104C24.2079 2.00272 29.0022 0.993298 29.0863 0.993298L29.3386 0.90918L29.591 0.993298C29.6751 0.993298 34.4694 2.00272 44.5626 4.6104C54.1512 7.04984 57.5997 8.05927 57.5997 8.05927L58.2726 8.2275L58.3567 8.98457C58.4408 9.40517 59.9548 19.1629 55.5811 37.1643C51.7961 52.6422 39.2637 61.9793 29.6751 65.3441L29.3386 65.4282Z" fill="url(#paint0_linear_434_4203)"/>
<path opacity="0.6" d="M29.3397 61.0138L28.9768 60.8689C20.7761 58.0438 9.96267 50.0029 6.69687 36.6739C2.92307 21.1717 4.22939 12.7686 4.30196 12.4064L4.37453 11.7544L4.95512 11.6096C4.95512 11.6096 8.00319 10.7403 16.204 8.63952C24.9127 6.39387 29.0494 5.52459 29.122 5.52459L29.3397 5.45215L29.5574 5.52459C29.63 5.52459 33.7667 6.39387 42.4754 8.63952C50.7488 10.7403 53.7243 11.6096 53.7243 11.6096L54.3049 11.7544L54.3774 12.4064C54.45 12.7686 55.7563 21.1717 51.9825 36.6739C48.7167 50.0029 37.9033 58.0438 29.63 60.9414L29.3397 61.0138ZM6.18886 13.3481C5.97114 15.5213 5.5357 23.4898 8.65635 36.1668C11.6318 48.5541 21.5744 56.0879 29.3397 58.8406C37.105 56.0879 47.0475 48.5541 50.023 36.1668C53.1437 23.4173 52.7083 15.5213 52.4905 13.3481C51.2568 12.9859 47.991 12.1166 41.9674 10.523C34.3472 8.56708 30.2831 7.6978 29.3397 7.55292C28.4688 7.6978 24.3321 8.56708 16.7845 10.523C10.6884 12.1166 7.49518 12.9859 6.18886 13.3481Z" fill="url(#paint1_linear_434_4203)"/>
<circle cx="53.6158" cy="8.4381" r="8.4381" fill="#4ED5D2"/>
<g clip-path="url(#clip0_434_4203)">
<path d="M55.847 7.06803H55.4867V6.34742C55.4867 5.35298 54.6796 4.5459 53.6852 4.5459C52.6907 4.5459 51.8836 5.35298 51.8836 6.34742V7.06803H51.5233C51.1252 7.06803 50.8027 7.3905 50.8027 7.78864V11.3917C50.8027 11.7898 51.1252 12.1123 51.5233 12.1123H55.847C56.2451 12.1123 56.5676 11.7898 56.5676 11.3917V7.78864C56.5676 7.3905 56.2451 7.06803 55.847 7.06803ZM53.6852 10.3108C53.287 10.3108 52.9646 9.9883 52.9646 9.59016C52.9646 9.19203 53.287 8.86955 53.6852 8.86955C54.0833 8.86955 54.4058 9.19203 54.4058 9.59016C54.4058 9.9883 54.0833 10.3108 53.6852 10.3108ZM54.8021 7.06803H52.5682V6.34742C52.5682 5.7313 53.0691 5.23048 53.6852 5.23048C54.3013 5.23048 54.8021 5.7313 54.8021 6.34742V7.06803Z" fill="white"/>
</g>
<path d="M39.3533 25.2414L41.4379 25.0851L41.1172 21.1768L39.0861 21.3331C38.7654 20.2388 38.2844 19.1966 37.643 18.3108L39.0327 16.8517L36.093 14.1419L34.7033 15.5489C33.6343 14.9236 32.5119 14.4025 31.2291 14.1941V12.2139H27.2205V14.1941C25.617 14.5067 24.1739 15.1841 22.9445 16.1221L21.3945 14.8194L18.7755 17.7896L20.3255 19.0924C19.6842 20.1867 19.2566 21.4895 19.0962 22.7922L17.0117 22.9486L17.3324 26.8568L19.4169 26.7005C19.7376 27.7948 20.2187 28.7849 20.86 29.6708L19.4169 31.182L22.3566 33.8917L23.8532 32.3805C24.8687 33.0058 26.0446 33.4748 27.2739 33.6832V35.7676H31.2826V33.6832C32.8326 33.3706 34.2757 32.7453 35.4516 31.8073L37.055 33.1621L39.674 30.1919L38.0706 28.837C38.712 27.7948 39.193 26.5442 39.3533 25.2414ZM29.1981 30.244C25.6704 30.244 22.7842 27.43 22.7842 23.9908C22.7842 20.5515 25.6704 17.7375 29.1981 17.7375C32.7257 17.7375 35.6119 20.5515 35.6119 23.9908C35.6119 27.4821 32.7791 30.244 29.1981 30.244Z" fill="white"/>
<circle cx="29.2244" cy="23.99" r="6.54272" fill="url(#paint2_linear_434_4203)"/>
<path d="M25.1873 24.1436L27.8456 26.1278C27.8498 26.1278 27.8498 26.132 27.854 26.132L28.8398 26.865C28.9241 26.9282 29.042 26.8692 29.042 26.7639L29.0463 21.2999C29.0378 21.203 29.0252 21.1019 29.0041 21.005C28.9831 20.9123 28.9536 20.8239 28.9114 20.748C28.9831 21.2831 28.6797 21.9066 28.1658 22.3152C28.052 22.4079 27.8962 22.509 27.7234 22.5806C27.5381 22.6607 26.9778 22.8544 26.9778 22.8544L25.2884 23.4653C24.9978 23.5706 24.9388 23.9582 25.1873 24.1436Z" fill="#F2EEFF"/>
<path d="M27.8272 22.5347C27.8315 22.5304 27.8399 22.5304 27.8441 22.5262C27.8525 22.522 27.8609 22.5178 27.8736 22.5094C27.8862 22.5052 27.8946 22.4967 27.9073 22.4925C27.9115 22.4883 27.9199 22.4841 27.9241 22.4841C27.9368 22.4757 27.9536 22.4673 27.9663 22.4588C27.9705 22.4546 27.9747 22.4546 27.9789 22.4504C27.9915 22.442 28.0042 22.4336 28.021 22.4251C28.0295 22.4209 28.0337 22.4167 28.0421 22.4125C28.0505 22.4041 28.0632 22.3998 28.0716 22.3914C28.0842 22.383 28.0969 22.3704 28.1137 22.3619C28.1179 22.3619 28.1179 22.3577 28.1221 22.3577C28.139 22.3451 28.1558 22.3324 28.1727 22.3198C28.6867 21.9112 28.99 21.2877 28.9184 20.7526C28.8889 20.7021 28.8509 20.6558 28.8088 20.6221L27.9326 19.9733C27.8483 19.9101 27.7261 19.9691 27.7261 20.0744V21.6036C27.7261 22.5641 26.9805 22.8548 26.9805 22.8548C26.9805 22.8548 27.545 22.6653 27.7261 22.5852C27.7598 22.5684 27.7935 22.5515 27.8272 22.5347Z" fill="#DBD9FF"/>
<path d="M33.3098 23.9467L30.6515 21.9625C30.6473 21.9625 30.6473 21.9583 30.6431 21.9583L29.6573 21.2252C29.573 21.162 29.4551 21.221 29.4551 21.3263V26.7903C29.4635 26.8872 29.4761 26.9883 29.4972 27.0852C29.5183 27.1779 29.5478 27.2664 29.5899 27.3422C29.5183 26.8072 29.8216 26.1837 30.3356 25.7751C30.4493 25.6824 30.6052 25.5813 30.7779 25.5096C30.959 25.4296 31.5236 25.24 31.5236 25.24L33.2129 24.6292C33.5036 24.5196 33.5583 24.1321 33.3098 23.9467Z" fill="#F2EEFF"/>
<path d="M30.6816 25.5545C30.6774 25.5588 30.669 25.5588 30.6647 25.563C30.6563 25.5672 30.6479 25.5714 30.6353 25.5798C30.6226 25.584 30.6142 25.5925 30.6016 25.5967C30.5973 25.6009 30.5889 25.6051 30.5847 25.6051C30.5721 25.6135 30.5552 25.622 30.5426 25.6304C30.5384 25.6346 30.5342 25.6346 30.5299 25.6388C30.5173 25.6472 30.5047 25.6557 30.4878 25.6641C30.4794 25.6683 30.4752 25.6725 30.4667 25.6767C30.4583 25.6851 30.4457 25.6894 30.4373 25.6978C30.4246 25.7062 30.412 25.7188 30.3951 25.7273C30.3909 25.7273 30.3909 25.7315 30.3867 25.7315C30.3699 25.7441 30.353 25.7568 30.3362 25.7694C29.8222 26.178 29.5189 26.8015 29.5905 27.3366C29.62 27.3871 29.6579 27.4335 29.7 27.4672L30.5721 28.1159C30.6563 28.1791 30.7785 28.1201 30.7785 28.0148V26.4856C30.7785 25.5293 31.5242 25.2344 31.5242 25.2344C31.5242 25.2344 30.9596 25.424 30.7785 25.504C30.749 25.5208 30.7153 25.5377 30.6816 25.5545Z" fill="#DBD9FF"/>
<path d="M18.8559 43.7899H20.2922V44.1842H18.3203V40.47H18.8559V43.7899Z" fill="#F7F7FF"/>
<path d="M21.0317 40.7897C20.9297 40.7897 20.8433 40.7577 20.7727 40.6938C20.7021 40.6298 20.6667 40.5517 20.6667 40.4593C20.6667 40.3669 20.7021 40.2888 20.7727 40.2248C20.8433 40.1609 20.9297 40.1289 21.0317 40.1289C21.1298 40.1289 21.2122 40.1609 21.2789 40.2248C21.3495 40.2888 21.3849 40.3669 21.3849 40.4593C21.3849 40.5517 21.3495 40.6298 21.2789 40.6938C21.2122 40.7577 21.1298 40.7897 21.0317 40.7897ZM21.2907 41.264V44.1842H20.755V41.264H21.2907Z" fill="#F7F7FF"/>
<path d="M21.8975 42.7135C21.8975 42.415 21.9642 42.1539 22.0976 41.9301C22.231 41.7027 22.4135 41.5269 22.645 41.4025C22.8805 41.2782 23.1434 41.216 23.4338 41.216C23.7124 41.216 23.9557 41.2729 24.1636 41.3865C24.3755 41.4967 24.5305 41.6335 24.6286 41.7969V41.264H25.1702V45.5698H24.6286V43.646C24.5266 43.8094 24.3697 43.948 24.1578 44.0617C23.9459 44.1754 23.6986 44.2322 23.4161 44.2322C23.1336 44.2322 22.8765 44.1683 22.645 44.0404C22.4135 43.9125 22.231 43.7331 22.0976 43.5021C21.9642 43.2712 21.8975 43.0083 21.8975 42.7135ZM24.6286 42.7188C24.6286 42.4985 24.5796 42.3067 24.4815 42.1433C24.3834 41.9798 24.25 41.8555 24.0812 41.7702C23.9164 41.6814 23.734 41.637 23.5338 41.637C23.3337 41.637 23.1512 41.6796 22.9864 41.7649C22.8216 41.8502 22.6902 41.9745 22.5921 42.1379C22.494 42.3013 22.4449 42.4932 22.4449 42.7135C22.4449 42.9373 22.494 43.1327 22.5921 43.2996C22.6902 43.4631 22.8216 43.5892 22.9864 43.678C23.1512 43.7633 23.3337 43.8059 23.5338 43.8059C23.734 43.8059 23.9164 43.7633 24.0812 43.678C24.25 43.5892 24.3834 43.4631 24.4815 43.2996C24.5796 43.1327 24.6286 42.939 24.6286 42.7188Z" fill="#F7F7FF"/>
<path d="M28.83 41.264V44.1842H28.2944V43.7526C28.1924 43.9018 28.0491 44.0191 27.8647 44.1043C27.6842 44.186 27.4841 44.2269 27.2643 44.2269C27.0132 44.2269 26.7875 44.1807 26.5874 44.0883C26.3873 43.9924 26.2284 43.8503 26.1106 43.662C25.9969 43.4737 25.94 43.2446 25.94 42.9746V41.264H26.4697V42.9106C26.4697 43.1984 26.5501 43.4204 26.711 43.5767C26.8719 43.7295 27.0917 43.8059 27.3703 43.8059C27.6567 43.8059 27.8824 43.726 28.0472 43.5661C28.212 43.4062 28.2944 43.1735 28.2944 42.868V41.264H28.83Z" fill="#F7F7FF"/>
<path d="M29.9051 40.7897C29.8031 40.7897 29.7168 40.7577 29.6461 40.6938C29.5755 40.6298 29.5402 40.5517 29.5402 40.4593C29.5402 40.3669 29.5755 40.2888 29.6461 40.2248C29.7168 40.1609 29.8031 40.1289 29.9051 40.1289C30.0032 40.1289 30.0856 40.1609 30.1523 40.2248C30.223 40.2888 30.2583 40.3669 30.2583 40.4593C30.2583 40.5517 30.223 40.6298 30.1523 40.6938C30.0856 40.7577 30.0032 40.7897 29.9051 40.7897ZM30.1641 41.264V44.1842H29.6285V41.264H30.1641Z" fill="#F7F7FF"/>
<path d="M30.7709 42.7135C30.7709 42.415 30.8376 42.1539 30.971 41.9301C31.1045 41.7027 31.2869 41.5269 31.5184 41.4025C31.7539 41.2782 32.0168 41.216 32.3072 41.216C32.5583 41.216 32.7918 41.2693 33.0076 41.3759C33.2235 41.4789 33.3883 41.6157 33.5021 41.7862V40.2408H34.0436V44.1842H33.5021V43.6354C33.3961 43.8094 33.2391 43.9533 33.0312 44.067C32.8232 44.1771 32.5799 44.2322 32.3013 44.2322C32.0148 44.2322 31.7539 44.1683 31.5184 44.0404C31.2869 43.9125 31.1045 43.7331 30.971 43.5021C30.8376 43.2712 30.7709 43.0083 30.7709 42.7135ZM33.5021 42.7188C33.5021 42.4985 33.453 42.3067 33.3549 42.1433C33.2568 41.9798 33.1234 41.8555 32.9547 41.7702C32.7898 41.6814 32.6074 41.637 32.4072 41.637C32.2071 41.637 32.0247 41.6796 31.8598 41.7649C31.695 41.8502 31.5636 41.9745 31.4655 42.1379C31.3674 42.3013 31.3183 42.4932 31.3183 42.7135C31.3183 42.9373 31.3674 43.1327 31.4655 43.2996C31.5636 43.4631 31.695 43.5892 31.8598 43.678C32.0247 43.7633 32.2071 43.8059 32.4072 43.8059C32.6074 43.8059 32.7898 43.7633 32.9547 43.678C33.1234 43.5892 33.2568 43.4631 33.3549 43.2996C33.453 43.1327 33.5021 42.939 33.5021 42.7188Z" fill="#F7F7FF"/>
<path d="M35.1194 40.7897C35.0174 40.7897 34.9311 40.7577 34.8605 40.6938C34.7898 40.6298 34.7545 40.5517 34.7545 40.4593C34.7545 40.3669 34.7898 40.2888 34.8605 40.2248C34.9311 40.1609 35.0174 40.1289 35.1194 40.1289C35.2176 40.1289 35.3 40.1609 35.3667 40.2248C35.4373 40.2888 35.4726 40.3669 35.4726 40.4593C35.4726 40.5517 35.4373 40.6298 35.3667 40.6938C35.3 40.7577 35.2176 40.7897 35.1194 40.7897ZM35.3784 41.264V44.1842H34.8428V41.264H35.3784Z" fill="#F7F7FF"/>
<path d="M36.8387 41.6636V43.3849C36.8387 43.527 36.8721 43.6283 36.9388 43.6887C37.0055 43.7455 37.1213 43.7739 37.2861 43.7739H37.6804V44.1842H37.1978C36.8996 44.1842 36.6759 44.1221 36.5268 43.9977C36.3777 43.8734 36.3031 43.6691 36.3031 43.3849V41.6636H35.8852V41.264H36.3031V40.5286H36.8387V41.264H37.6804V41.6636H36.8387Z" fill="#F7F7FF"/>
<path d="M41.0017 41.264L39.0593 45.5591H38.506L39.1417 44.1523L37.8409 41.264H38.4354L39.4478 43.63L40.4484 41.264H41.0017Z" fill="#F7F7FF"/>
<path d="M21.0078 47.4782V51.4217H20.4721V47.4782H21.0078Z" fill="#F7F7FF"/>
<path d="M23.2215 51.4696C22.9193 51.4696 22.6447 51.4074 22.3974 51.2831C22.1542 51.1588 21.9619 50.9829 21.8206 50.7555C21.6833 50.5246 21.6146 50.2582 21.6146 49.9562C21.6146 49.6578 21.6852 49.3949 21.8265 49.1675C21.9717 48.9366 22.1679 48.7607 22.4151 48.6399C22.6623 48.5156 22.939 48.4534 23.245 48.4534C23.5511 48.4534 23.8278 48.5156 24.075 48.6399C24.3222 48.7607 24.5164 48.9348 24.6577 49.1622C24.8029 49.3895 24.8755 49.6542 24.8755 49.9562C24.8755 50.2582 24.8009 50.5246 24.6518 50.7555C24.5066 50.9829 24.3085 51.1588 24.0573 51.2831C23.8062 51.4074 23.5276 51.4696 23.2215 51.4696ZM23.2215 51.0433C23.4138 51.0433 23.5943 51.0024 23.763 50.9207C23.9318 50.839 24.0671 50.7165 24.1692 50.553C24.2751 50.3896 24.3281 50.1907 24.3281 49.9562C24.3281 49.7217 24.2771 49.5228 24.175 49.3593C24.073 49.1959 23.9396 49.0751 23.7748 48.997C23.61 48.9153 23.4314 48.8744 23.2392 48.8744C23.043 48.8744 22.8624 48.9153 22.6976 48.997C22.5367 49.0751 22.4073 49.1959 22.3092 49.3593C22.2111 49.5228 22.162 49.7217 22.162 49.9562C22.162 50.1942 22.2091 50.3949 22.3033 50.5584C22.4014 50.7218 22.5309 50.8443 22.6917 50.9261C22.8526 51.0042 23.0292 51.0433 23.2215 51.0433Z" fill="#F7F7FF"/>
<path d="M25.2737 49.9562C25.2737 49.6542 25.3404 49.3913 25.4738 49.1675C25.6072 48.9401 25.7916 48.7643 26.0271 48.6399C26.2665 48.5156 26.5392 48.4534 26.8453 48.4534C27.2416 48.4534 27.5673 48.5405 27.8224 48.7145C28.0813 48.8886 28.252 49.1302 28.3344 49.4393H27.7576C27.7027 49.2616 27.5948 49.1213 27.4339 49.0183C27.2769 48.9153 27.0807 48.8637 26.8453 48.8637C26.5392 48.8637 26.292 48.9597 26.1036 49.1515C25.9153 49.3398 25.8211 49.608 25.8211 49.9562C25.8211 50.3079 25.9153 50.5797 26.1036 50.7715C26.292 50.9634 26.5392 51.0593 26.8453 51.0593C27.0807 51.0593 27.2769 51.0095 27.4339 50.9101C27.5908 50.8106 27.6987 50.6685 27.7576 50.4838H28.3344C28.2481 50.7822 28.0755 51.022 27.8165 51.2032C27.5575 51.3808 27.2337 51.4696 26.8453 51.4696C26.5392 51.4696 26.2665 51.4074 26.0271 51.2831C25.7916 51.1588 25.6072 50.9829 25.4738 50.7555C25.3404 50.5282 25.2737 50.2617 25.2737 49.9562Z" fill="#F7F7FF"/>
<path d="M30.7443 51.4217L29.4788 50.132V51.4217H28.9432V47.4782H29.4788V49.7963L30.7208 48.5014H31.4683L29.9497 49.9562L31.4742 51.4217H30.7443Z" fill="#F7F7FF"/>
<path d="M34.8096 49.8496C34.8096 49.942 34.8037 50.0397 34.7919 50.1427H32.2138C32.2334 50.4305 32.3413 50.6561 32.5375 50.8195C32.7377 50.9793 32.979 51.0593 33.2615 51.0593C33.493 51.0593 33.6853 51.0113 33.8384 50.9154C33.9953 50.8159 34.1052 50.6845 34.168 50.5211H34.7448C34.6585 50.8017 34.4858 51.0309 34.2268 51.2085C33.9678 51.3826 33.6461 51.4696 33.2615 51.4696C32.9554 51.4696 32.6808 51.4074 32.4375 51.2831C32.1981 51.1588 32.0097 50.9829 31.8724 50.7555C31.7351 50.5246 31.6664 50.2582 31.6664 49.9562C31.6664 49.6542 31.7331 49.3895 31.8665 49.1622C31.9999 48.9348 32.1863 48.7607 32.4257 48.6399C32.669 48.5156 32.9476 48.4534 33.2615 48.4534C33.5676 48.4534 33.8384 48.5138 34.0738 48.6346C34.3092 48.7554 34.4897 48.9224 34.6153 49.1355C34.7448 49.3451 34.8096 49.5832 34.8096 49.8496ZM34.2563 49.7484C34.2563 49.5636 34.2111 49.4055 34.1209 49.2741C34.0306 49.1391 33.907 49.0378 33.7501 48.9703C33.597 48.8993 33.4263 48.8637 33.238 48.8637C32.9672 48.8637 32.7357 48.9419 32.5434 49.0982C32.3551 49.2545 32.2471 49.4713 32.2197 49.7484H34.2563Z" fill="#F7F7FF"/>
<path d="M35.2105 49.9509C35.2105 49.6524 35.2772 49.3913 35.4106 49.1675C35.544 48.9401 35.7265 48.7643 35.958 48.6399C36.1935 48.5156 36.4564 48.4534 36.7468 48.4534C36.9979 48.4534 37.2314 48.5067 37.4472 48.6133C37.663 48.7163 37.8278 48.8531 37.9416 49.0236V47.4782H38.4832V51.4217H37.9416V50.8728C37.8357 51.0468 37.6787 51.1907 37.4708 51.3044C37.2628 51.4145 37.0195 51.4696 36.7409 51.4696C36.4544 51.4696 36.1935 51.4057 35.958 51.2778C35.7265 51.1499 35.544 50.9705 35.4106 50.7395C35.2772 50.5086 35.2105 50.2457 35.2105 49.9509ZM37.9416 49.9562C37.9416 49.7359 37.8926 49.5441 37.7945 49.3807C37.6964 49.2172 37.563 49.0929 37.3942 49.0076C37.2294 48.9188 37.047 48.8744 36.8468 48.8744C36.6467 48.8744 36.4642 48.917 36.2994 49.0023C36.1346 49.0876 36.0032 49.2119 35.9051 49.3753C35.807 49.5388 35.7579 49.7306 35.7579 49.9509C35.7579 50.1747 35.807 50.3701 35.9051 50.537C36.0032 50.7005 36.1346 50.8266 36.2994 50.9154C36.4642 51.0007 36.6467 51.0433 36.8468 51.0433C37.047 51.0433 37.2294 51.0007 37.3942 50.9154C37.563 50.8266 37.6964 50.7005 37.7945 50.537C37.8926 50.3701 37.9416 50.1765 37.9416 49.9562Z" fill="#F7F7FF"/>
<defs>
<linearGradient id="paint0_linear_434_4203" x1="20.1302" y1="58.3547" x2="62.3717" y2="-4.52053" gradientUnits="userSpaceOnUse">
<stop stop-color="#554FD8"/>
<stop offset="1" stop-color="#7770E0"/>
</linearGradient>
<linearGradient id="paint1_linear_434_4203" x1="29.3397" y1="-10.0314" x2="29.3397" y2="71.0982" gradientUnits="userSpaceOnUse">
<stop stop-color="white" stop-opacity="0"/>
<stop offset="0.633743" stop-color="white"/>
<stop offset="1" stop-color="white" stop-opacity="0"/>
</linearGradient>
<linearGradient id="paint2_linear_434_4203" x1="29.2244" y1="17.4473" x2="29.2244" y2="30.5327" gradientUnits="userSpaceOnUse">
<stop stop-color="#7770E0"/>
<stop offset="1" stop-color="#554FD8"/>
</linearGradient>
<clipPath id="clip0_434_4203">
<rect width="8.64731" height="8.64731" fill="white" transform="translate(49.3613 4.18555)"/>
</clipPath>
</defs>
</svg>
