<svg width="78" height="82" viewBox="0 0 78 82" fill="none" xmlns="http://www.w3.org/2000/svg">
<path d="M36.8792 81.2442L36.3505 81.0327C24.4032 76.9089 8.64973 65.1719 3.89196 45.716C-1.60592 23.0879 0.297193 10.8222 0.402922 10.2935L0.50865 9.34185L1.35448 9.13037C1.35448 9.13037 5.79506 7.8615 17.7424 4.79508C30.4298 1.51718 36.4563 0.248317 36.562 0.248317L36.8792 0.142578L37.1964 0.248317C37.3021 0.248317 43.3286 1.51718 56.016 4.79508C68.069 7.8615 72.4039 9.13037 72.4039 9.13037L73.2497 9.34185L73.3555 10.2935C73.4612 10.8222 75.3643 23.0879 69.8664 45.716C65.1087 65.1719 49.3551 76.9089 37.3021 81.1384L36.8792 81.2442Z" fill="url(#paint0_linear_434_4056)"/>
<path opacity="0.6" d="M36.8791 75.6946L36.423 75.5124C26.1145 71.9612 12.5219 61.8536 8.4167 45.0988C3.67296 25.6123 5.31502 15.0495 5.40625 14.5942L5.49747 13.7746L6.22728 13.5925C6.22728 13.5925 10.0588 12.4998 20.3673 9.85912C31.3144 7.0363 36.5142 5.9436 36.6055 5.9436L36.8791 5.85254L37.1528 5.9436C37.244 5.9436 42.4439 7.0363 53.391 9.85912C63.7907 12.4998 67.531 13.5925 67.531 13.5925L68.2608 13.7746L68.352 14.5942C68.4433 15.0495 70.0853 25.6123 65.3416 45.0988C61.2364 61.8536 47.6438 71.9612 37.244 75.6035L36.8791 75.6946ZM7.77812 15.7779C7.50444 18.5097 6.95709 28.5262 10.8798 44.4614C14.62 60.0325 27.118 69.5026 36.8791 72.9628C46.6403 69.5026 59.1382 60.0325 62.8785 44.4614C66.8012 28.4351 66.2538 18.5097 65.9802 15.7779C64.4293 15.3226 60.3242 14.2299 52.7524 12.2266C43.1737 9.76806 38.0651 8.67536 36.8791 8.49324C35.7844 8.67536 30.5846 9.76806 21.0971 12.2266C13.4341 14.2299 9.42018 15.3226 7.77812 15.7779Z" fill="url(#paint1_linear_434_4056)"/>
<circle cx="67.392" cy="10.6068" r="10.6068" fill="#4ED5D2"/>
<g clip-path="url(#clip0_434_4056)">
<path d="M70.1982 8.88326H69.7452V7.97744C69.7452 6.72741 68.7307 5.71289 67.4807 5.71289C66.2307 5.71289 65.2162 6.72741 65.2162 7.97744V8.88326H64.7632C64.2628 8.88326 63.8574 9.28861 63.8574 9.78908V14.3182C63.8574 14.8186 64.2628 15.224 64.7632 15.224H70.1982C70.6986 15.224 71.104 14.8186 71.104 14.3182V9.78908C71.104 9.28861 70.6986 8.88326 70.1982 8.88326ZM67.4807 12.9594C66.9802 12.9594 66.5749 12.5541 66.5749 12.0536C66.5749 11.5532 66.9802 11.1478 67.4807 11.1478C67.9812 11.1478 68.3865 11.5532 68.3865 12.0536C68.3865 12.5541 67.9812 12.9594 67.4807 12.9594ZM68.8847 8.88326H66.0767V7.97744C66.0767 7.20296 66.7062 6.57342 67.4807 6.57342C68.2552 6.57342 68.8847 7.20296 68.8847 7.97744V8.88326Z" fill="white"/>
</g>
<path d="M49.4666 30.7284L52.0869 30.5319L51.6838 25.6191L49.1307 25.8156C48.7276 24.4401 48.1229 23.13 47.3167 22.0164L49.0635 20.1823L45.3683 16.7762L43.6214 18.5448C42.2777 17.7587 40.8668 17.1037 39.2543 16.8417V14.3525H34.2154V16.8417C32.1998 17.2347 30.3858 18.0862 28.8405 19.2653L26.8921 17.6277L23.6 21.3614L25.5484 22.999C24.7421 24.3746 24.2046 26.0121 24.0031 27.6497L21.3828 27.8462L21.7859 32.759L24.4062 32.5625C24.8093 33.938 25.414 35.1826 26.2202 36.2962L24.4062 38.1958L28.1014 41.6019L29.9826 39.7023C31.2592 40.4884 32.7373 41.0779 34.2826 41.3399V43.9601H39.3215V41.3399C41.2699 40.9469 43.084 40.1609 44.5621 38.9818L46.5776 40.6849L49.8698 36.9512L47.8542 35.2481C48.6604 33.938 49.2651 32.366 49.4666 30.7284ZM36.7013 37.0167C32.267 37.0167 28.6389 33.4795 28.6389 29.1563C28.6389 24.8331 32.267 21.2959 36.7013 21.2959C41.1356 21.2959 44.7636 24.8331 44.7636 29.1563C44.7636 33.545 41.2027 37.0167 36.7013 37.0167Z" fill="white"/>
<circle cx="36.7341" cy="29.156" r="8.22431" fill="url(#paint2_linear_434_4056)"/>
<path d="M31.661 29.3503L35.0025 31.8445C35.0078 31.8445 35.0078 31.8498 35.0131 31.8498L36.2523 32.7712C36.3582 32.8506 36.5065 32.7765 36.5065 32.6441L36.5118 25.7757C36.5012 25.654 36.4853 25.5269 36.4588 25.4051C36.4323 25.2886 36.3953 25.1774 36.3423 25.082C36.4323 25.7546 36.0511 26.5383 35.405 27.052C35.262 27.1685 35.0661 27.2956 34.849 27.3856C34.616 27.4862 33.9117 27.7298 33.9117 27.7298L31.7881 28.4977C31.4227 28.6301 31.3486 29.1172 31.661 29.3503Z" fill="#F2EEFF"/>
<path d="M34.9785 27.3266C34.9838 27.3213 34.9944 27.3213 34.9997 27.316C35.0102 27.3107 35.0208 27.3054 35.0367 27.2948C35.0526 27.2896 35.0632 27.279 35.0791 27.2737C35.0844 27.2684 35.095 27.2631 35.1003 27.2631C35.1162 27.2525 35.1373 27.2419 35.1532 27.2313C35.1585 27.226 35.1638 27.226 35.1691 27.2207C35.185 27.2101 35.2009 27.1995 35.2221 27.1889C35.2327 27.1836 35.238 27.1783 35.2485 27.173C35.2591 27.1625 35.275 27.1572 35.2856 27.1466C35.3015 27.136 35.3174 27.1201 35.3386 27.1095C35.3439 27.1095 35.3439 27.1042 35.3492 27.1042C35.3703 27.0883 35.3915 27.0724 35.4127 27.0565C36.0588 26.5429 36.44 25.7591 36.35 25.0866C36.313 25.0231 36.2653 24.9648 36.2123 24.9224L35.1109 24.1069C35.0049 24.0275 34.8514 24.1016 34.8514 24.234V26.1563C34.8514 27.3637 33.9141 27.7291 33.9141 27.7291C33.9141 27.7291 34.6237 27.4908 34.8514 27.3902C34.8937 27.369 34.9361 27.3478 34.9785 27.3266Z" fill="#DBD9FF"/>
<path d="M41.8708 29.103L38.5293 26.6088C38.524 26.6088 38.524 26.6035 38.5187 26.6035L37.2796 25.6821C37.1737 25.6027 37.0254 25.6768 37.0254 25.8092V32.6775C37.036 32.7993 37.0519 32.9264 37.0783 33.0482C37.1048 33.1647 37.1419 33.2759 37.1948 33.3713C37.1048 32.6987 37.4861 31.915 38.1322 31.4013C38.2751 31.2848 38.4711 31.1577 38.6882 31.0677C38.9159 30.9671 39.6255 30.7288 39.6255 30.7288L41.749 29.9609C42.1144 29.8232 42.1833 29.3361 41.8708 29.103Z" fill="#F2EEFF"/>
<path d="M38.5643 31.1232C38.559 31.1285 38.5484 31.1285 38.5431 31.1338C38.5325 31.1391 38.522 31.1443 38.5061 31.1549C38.4902 31.1602 38.4796 31.1708 38.4637 31.1761C38.4584 31.1814 38.4478 31.1867 38.4425 31.1867C38.4266 31.1973 38.4055 31.2079 38.3896 31.2185C38.3843 31.2238 38.379 31.2238 38.3737 31.2291C38.3578 31.2397 38.3419 31.2503 38.3207 31.2609C38.3101 31.2661 38.3048 31.2714 38.2942 31.2767C38.2837 31.2873 38.2678 31.2926 38.2572 31.3032C38.2413 31.3138 38.2254 31.3297 38.2042 31.3403C38.1989 31.3403 38.1989 31.3456 38.1936 31.3456C38.1724 31.3615 38.1513 31.3774 38.1301 31.3932C37.484 31.9069 37.1027 32.6907 37.1928 33.3632C37.2298 33.4267 37.2775 33.485 37.3305 33.5273L38.4266 34.3429C38.5325 34.4223 38.6861 34.3482 38.6861 34.2158V32.2935C38.6861 31.0914 39.6234 30.7207 39.6234 30.7207C39.6234 30.7207 38.9138 30.959 38.6861 31.0596C38.649 31.0808 38.6067 31.102 38.5643 31.1232Z" fill="#DBD9FF"/>
<path d="M23.7006 54.0443H25.506V54.54H23.0273V49.8711H23.7006V54.0443Z" fill="#F7F7FF"/>
<path d="M26.4356 50.273C26.3073 50.273 26.1988 50.2328 26.11 50.1524C26.0212 50.0721 25.9769 49.9738 25.9769 49.8577C25.9769 49.7416 26.0212 49.6433 26.11 49.563C26.1988 49.4826 26.3073 49.4424 26.4356 49.4424C26.5589 49.4424 26.6625 49.4826 26.7463 49.563C26.8351 49.6433 26.8795 49.7416 26.8795 49.8577C26.8795 49.9738 26.8351 50.0721 26.7463 50.1524C26.6625 50.2328 26.5589 50.273 26.4356 50.273ZM26.7611 50.8692V54.54H26.0878V50.8692H26.7611Z" fill="#F7F7FF"/>
<path d="M27.5239 52.6912C27.5239 52.3161 27.6078 51.9879 27.7755 51.7065C27.9432 51.4207 28.1726 51.1997 28.4636 51.0434C28.7595 50.887 29.09 50.8089 29.455 50.8089C29.8053 50.8089 30.1111 50.8804 30.3725 51.0233C30.6389 51.1617 30.8337 51.3336 30.957 51.539V50.8692H31.6377V56.2817H30.957V53.8635C30.8288 54.0689 30.6315 54.2431 30.3651 54.386C30.0988 54.5289 29.788 54.6003 29.4328 54.6003C29.0777 54.6003 28.7546 54.5199 28.4636 54.3592C28.1726 54.1984 27.9432 53.9729 27.7755 53.6826C27.6078 53.3923 27.5239 53.0619 27.5239 52.6912ZM30.957 52.6979C30.957 52.421 30.8954 52.1799 30.7721 51.9745C30.6487 51.769 30.481 51.6127 30.2689 51.5056C30.0618 51.3939 29.8324 51.3381 29.5808 51.3381C29.3293 51.3381 29.0999 51.3917 28.8927 51.4989C28.6856 51.606 28.5203 51.7623 28.397 51.9678C28.2737 52.1732 28.212 52.4143 28.212 52.6912C28.212 52.9725 28.2737 53.2182 28.397 53.4281C28.5203 53.6335 28.6856 53.792 28.8927 53.9037C29.0999 54.0108 29.3293 54.0644 29.5808 54.0644C29.8324 54.0644 30.0618 54.0108 30.2689 53.9037C30.481 53.792 30.6487 53.6335 30.7721 53.4281C30.8954 53.2182 30.957 52.9748 30.957 52.6979Z" fill="#F7F7FF"/>
<path d="M36.2382 50.8692V54.54H35.5649V53.9974C35.4367 54.185 35.2566 54.3324 35.0248 54.4395C34.7979 54.5423 34.5464 54.5936 34.2701 54.5936C33.9544 54.5936 33.6708 54.5356 33.4192 54.4194C33.1677 54.2989 32.9679 54.1202 32.8199 53.8836C32.6769 53.6469 32.6054 53.3588 32.6054 53.0194V50.8692H33.2713V52.9391C33.2713 53.3008 33.3724 53.5799 33.5746 53.7764C33.7769 53.9684 34.0531 54.0644 34.4033 54.0644C34.7634 54.0644 35.047 53.9639 35.2542 53.763C35.4614 53.562 35.5649 53.2695 35.5649 52.8855V50.8692H36.2382Z" fill="#F7F7FF"/>
<path d="M37.5896 50.273C37.4614 50.273 37.3529 50.2328 37.2641 50.1524C37.1753 50.0721 37.1309 49.9738 37.1309 49.8577C37.1309 49.7416 37.1753 49.6433 37.2641 49.563C37.3529 49.4826 37.4614 49.4424 37.5896 49.4424C37.713 49.4424 37.8165 49.4826 37.9004 49.563C37.9892 49.6433 38.0336 49.7416 38.0336 49.8577C38.0336 49.9738 37.9892 50.0721 37.9004 50.1524C37.8165 50.2328 37.713 50.273 37.5896 50.273ZM37.9152 50.8692V54.54H37.2419V50.8692H37.9152Z" fill="#F7F7FF"/>
<path d="M38.678 52.6912C38.678 52.3161 38.7618 51.9879 38.9295 51.7065C39.0972 51.4207 39.3266 51.1997 39.6176 51.0434C39.9136 50.887 40.2441 50.8089 40.6091 50.8089C40.9248 50.8089 41.2183 50.8759 41.4896 51.0099C41.7609 51.1394 41.968 51.3113 42.1111 51.5257V49.5831H42.7918V54.54H42.1111V53.8501C41.9779 54.0689 41.7806 54.2498 41.5192 54.3927C41.2577 54.5311 40.9519 54.6003 40.6017 54.6003C40.2416 54.6003 39.9136 54.5199 39.6176 54.3592C39.3266 54.1984 39.0972 53.9729 38.9295 53.6826C38.7618 53.3923 38.678 53.0619 38.678 52.6912ZM42.1111 52.6979C42.1111 52.421 42.0494 52.1799 41.9261 51.9745C41.8028 51.769 41.6351 51.6127 41.423 51.5056C41.2158 51.3939 40.9864 51.3381 40.7349 51.3381C40.4833 51.3381 40.2539 51.3917 40.0468 51.4989C39.8396 51.606 39.6744 51.7623 39.551 51.9678C39.4277 52.1732 39.3661 52.4143 39.3661 52.6912C39.3661 52.9725 39.4277 53.2182 39.551 53.4281C39.6744 53.6335 39.8396 53.792 40.0468 53.9037C40.2539 54.0108 40.4833 54.0644 40.7349 54.0644C40.9864 54.0644 41.2158 54.0108 41.423 53.9037C41.6351 53.792 41.8028 53.6335 41.9261 53.4281C42.0494 53.2182 42.1111 52.9748 42.1111 52.6979Z" fill="#F7F7FF"/>
<path d="M44.1442 50.273C44.0159 50.273 43.9074 50.2328 43.8186 50.1524C43.7298 50.0721 43.6854 49.9738 43.6854 49.8577C43.6854 49.7416 43.7298 49.6433 43.8186 49.563C43.9074 49.4826 44.0159 49.4424 44.1442 49.4424C44.2675 49.4424 44.3711 49.4826 44.4549 49.563C44.5437 49.6433 44.5881 49.7416 44.5881 49.8577C44.5881 49.9738 44.5437 50.0721 44.4549 50.1524C44.3711 50.2328 44.2675 50.273 44.1442 50.273ZM44.4697 50.8692V54.54H43.7964V50.8692H44.4697Z" fill="#F7F7FF"/>
<path d="M46.3053 51.3716V53.5352C46.3053 53.7139 46.3473 53.8411 46.4311 53.9171C46.515 53.9885 46.6605 54.0242 46.8677 54.0242H47.3634V54.54H46.7567C46.3818 54.54 46.1006 54.4619 45.9132 54.3056C45.7258 54.1493 45.632 53.8925 45.632 53.5352V51.3716H45.1067V50.8692H45.632V49.9448H46.3053V50.8692H47.3634V51.3716H46.3053Z" fill="#F7F7FF"/>
<path d="M51.5383 50.8692L49.0966 56.2683H48.4011L49.2002 54.4998L47.5651 50.8692H48.3124L49.585 53.8434L50.8428 50.8692H51.5383Z" fill="#F7F7FF"/>
<path d="M26.4055 58.6806V63.6376H25.7322V58.6806H26.4055Z" fill="#F7F7FF"/>
<path d="M29.1882 63.6979C28.8084 63.6979 28.4631 63.6197 28.1524 63.4634C27.8465 63.3071 27.6049 63.0861 27.4273 62.8002C27.2546 62.51 27.1683 62.175 27.1683 61.7955C27.1683 61.4203 27.2571 61.0899 27.4347 60.8041C27.6172 60.5138 27.8638 60.2927 28.1746 60.1409C28.4853 59.9846 28.8331 59.9064 29.2178 59.9064C29.6026 59.9064 29.9503 59.9846 30.2611 60.1409C30.5718 60.2927 30.816 60.5116 30.9936 60.7974C31.1761 61.0832 31.2673 61.4159 31.2673 61.7955C31.2673 62.175 31.1736 62.51 30.9862 62.8002C30.8037 63.0861 30.5546 63.3071 30.2389 63.4634C29.9232 63.6197 29.573 63.6979 29.1882 63.6979ZM29.1882 63.162C29.4299 63.162 29.6568 63.1106 29.8689 63.0079C30.081 62.9052 30.2512 62.7511 30.3794 62.5457C30.5126 62.3403 30.5792 62.0902 30.5792 61.7955C30.5792 61.5007 30.5151 61.2506 30.3868 61.0452C30.2586 60.8398 30.0909 60.6879 29.8837 60.5897C29.6766 60.487 29.4521 60.4356 29.2104 60.4356C28.9638 60.4356 28.7369 60.487 28.5297 60.5897C28.3275 60.6879 28.1647 60.8398 28.0414 61.0452C27.9181 61.2506 27.8564 61.5007 27.8564 61.7955C27.8564 62.0947 27.9156 62.347 28.034 62.5524C28.1573 62.7578 28.3201 62.9119 28.5223 63.0146C28.7246 63.1128 28.9465 63.162 29.1882 63.162Z" fill="#F7F7FF"/>
<path d="M31.7678 61.7955C31.7678 61.4159 31.8517 61.0854 32.0194 60.8041C32.1871 60.5183 32.4189 60.2972 32.7149 60.1409C33.0158 59.9846 33.3586 59.9064 33.7434 59.9064C34.2416 59.9064 34.651 60.0159 34.9716 60.2347C35.2971 60.4535 35.5117 60.7572 35.6153 61.1457H34.8902C34.8211 60.9224 34.6855 60.746 34.4833 60.6165C34.2859 60.487 34.0393 60.4222 33.7434 60.4222C33.3586 60.4222 33.0479 60.5428 32.8111 60.784C32.5743 61.0206 32.4559 61.3578 32.4559 61.7955C32.4559 62.2376 32.5743 62.5792 32.8111 62.8203C33.0479 63.0615 33.3586 63.1821 33.7434 63.1821C34.0393 63.1821 34.2859 63.1195 34.4833 62.9945C34.6806 62.8695 34.8162 62.6908 34.8902 62.4586H35.6153C35.5068 62.8337 35.2897 63.1352 34.9642 63.3629C34.6386 63.5862 34.2317 63.6979 33.7434 63.6979C33.3586 63.6979 33.0158 63.6197 32.7149 63.4634C32.4189 63.3071 32.1871 63.0861 32.0194 62.8002C31.8517 62.5144 31.7678 62.1795 31.7678 61.7955Z" fill="#F7F7FF"/>
<path d="M38.6446 63.6376L37.0538 62.0165V63.6376H36.3805V58.6806H37.0538V61.5945L38.615 59.9667H39.5546L37.6457 61.7955L39.562 63.6376H38.6446Z" fill="#F7F7FF"/>
<path d="M43.7546 61.6615C43.7546 61.7776 43.7472 61.9004 43.7324 62.0299H40.4917C40.5164 62.3916 40.652 62.6752 40.8986 62.8806C41.1502 63.0816 41.4536 63.1821 41.8087 63.1821C42.0997 63.1821 42.3414 63.1218 42.5338 63.0012C42.7311 62.8762 42.8692 62.7109 42.9481 62.5055H43.6732C43.5647 62.8583 43.3477 63.1463 43.0221 63.3696C42.6966 63.5884 42.2921 63.6979 41.8087 63.6979C41.424 63.6979 41.0787 63.6197 40.7729 63.4634C40.472 63.3071 40.2352 63.0861 40.0626 62.8002C39.8899 62.51 39.8036 62.175 39.8036 61.7955C39.8036 61.4159 39.8875 61.0832 40.0552 60.7974C40.2229 60.5116 40.4572 60.2927 40.7581 60.1409C41.0639 59.9846 41.4141 59.9064 41.8087 59.9064C42.1934 59.9064 42.5338 59.9824 42.8298 60.1342C43.1257 60.286 43.3526 60.4959 43.5105 60.7639C43.6732 61.0273 43.7546 61.3265 43.7546 61.6615ZM43.0591 61.5342C43.0591 61.302 43.0024 61.1033 42.8889 60.938C42.7755 60.7683 42.6201 60.6411 42.4228 60.5562C42.2304 60.4669 42.0159 60.4222 41.7791 60.4222C41.4388 60.4222 41.1477 60.5205 40.906 60.717C40.6693 60.9135 40.5336 61.1859 40.4991 61.5342H43.0591Z" fill="#F7F7FF"/>
<path d="M44.2586 61.7888C44.2586 61.4136 44.3425 61.0854 44.5102 60.8041C44.6779 60.5183 44.9073 60.2972 45.1983 60.1409C45.4942 59.9846 45.8247 59.9064 46.1897 59.9064C46.5054 59.9064 46.7989 59.9734 47.0702 60.1074C47.3415 60.2369 47.5487 60.4088 47.6917 60.6232V58.6806H48.3724V63.6376H47.6917V62.9476C47.5585 63.1664 47.3612 63.3473 47.0998 63.4902C46.8384 63.6286 46.5326 63.6979 46.1823 63.6979C45.8223 63.6979 45.4942 63.6175 45.1983 63.4567C44.9073 63.2959 44.6779 63.0704 44.5102 62.7801C44.3425 62.4899 44.2586 62.1594 44.2586 61.7888ZM47.6917 61.7955C47.6917 61.5186 47.6301 61.2774 47.5067 61.072C47.3834 60.8666 47.2157 60.7103 47.0036 60.6031C46.7964 60.4915 46.5671 60.4356 46.3155 60.4356C46.064 60.4356 45.8346 60.4892 45.6274 60.5964C45.4202 60.7036 45.255 60.8599 45.1317 61.0653C45.0084 61.2707 44.9467 61.5119 44.9467 61.7888C44.9467 62.0701 45.0084 62.3157 45.1317 62.5256C45.255 62.731 45.4202 62.8896 45.6274 63.0012C45.8346 63.1084 46.064 63.162 46.3155 63.162C46.5671 63.162 46.7964 63.1084 47.0036 63.0012C47.2157 62.8896 47.3834 62.731 47.5067 62.5256C47.6301 62.3157 47.6917 62.0723 47.6917 61.7955Z" fill="#F7F7FF"/>
<defs>
<linearGradient id="paint0_linear_434_4056" x1="25.304" y1="72.3526" x2="78.4023" y2="-6.68266" gradientUnits="userSpaceOnUse">
<stop stop-color="#554FD8"/>
<stop offset="1" stop-color="#7770E0"/>
</linearGradient>
<linearGradient id="paint1_linear_434_4056" x1="36.8791" y1="-13.6106" x2="36.8791" y2="88.3709" gradientUnits="userSpaceOnUse">
<stop stop-color="white" stop-opacity="0"/>
<stop offset="0.633743" stop-color="white"/>
<stop offset="1" stop-color="white" stop-opacity="0"/>
</linearGradient>
<linearGradient id="paint2_linear_434_4056" x1="36.7341" y1="20.9316" x2="36.7341" y2="37.3803" gradientUnits="userSpaceOnUse">
<stop stop-color="#7770E0"/>
<stop offset="1" stop-color="#554FD8"/>
</linearGradient>
<clipPath id="clip0_434_4056">
<rect width="10.8698" height="10.8698" fill="white" transform="translate(62.0449 5.25977)"/>
</clipPath>
</defs>
</svg>
