<svg width="27" height="28" viewBox="0 0 27 28" fill="none" xmlns="http://www.w3.org/2000/svg">
<path d="M12.7931 27.9147L12.6168 27.8442C8.63442 26.4696 3.38324 22.5573 1.79732 16.072C-0.0353054 8.52929 0.599064 4.44073 0.634307 4.2645L0.66955 3.94728L0.951492 3.87679C0.951492 3.87679 2.43169 3.45383 6.41412 2.43169C10.6433 1.33906 12.6521 0.916106 12.6873 0.916106L12.7931 0.880859L12.8988 0.916106C12.934 0.916106 14.9429 1.33906 19.172 2.43169C23.1897 3.45383 24.6346 3.87679 24.6346 3.87679L24.9166 3.94728L24.9518 4.2645C24.9871 4.44073 25.6214 8.52929 23.7888 16.072C22.2029 22.5573 16.9517 26.4696 12.934 27.8795L12.7931 27.9147Z" fill="url(#paint0_linear_434_2816)"/>
<path opacity="0.6" d="M12.7924 26.0649L12.6404 26.0041C9.20418 24.8204 4.6733 21.4512 3.30491 15.8663C1.72367 9.37076 2.27102 5.84982 2.30143 5.69806L2.33184 5.42488L2.57511 5.36418C2.57511 5.36418 3.85227 4.99994 7.28844 4.11971C10.9375 3.17877 12.6708 2.81453 12.7012 2.81453L12.7924 2.78418L12.8836 2.81453C12.914 2.81453 14.6473 3.17877 18.2963 4.11971C21.7629 4.99994 23.0097 5.36418 23.0097 5.36418L23.253 5.42488L23.2834 5.69806C23.3138 5.84982 23.8611 9.37076 22.2799 15.8663C20.9115 21.4512 16.3806 24.8204 12.914 26.0345L12.7924 26.0649ZM3.09205 6.09265C3.00083 7.00323 2.81838 10.3421 4.12595 15.6538C5.3727 20.8442 9.53868 24.0009 12.7924 25.1543C16.0461 24.0009 20.2121 20.8442 21.4588 15.6538C22.7664 10.3117 22.584 7.00323 22.4927 6.09265C21.9758 5.94088 20.6074 5.57665 18.0835 4.90888C14.8906 4.08935 13.1877 3.72512 12.7924 3.66441C12.4275 3.72512 10.6942 4.08935 7.53171 4.90888C4.97739 5.57665 3.63941 5.94088 3.09205 6.09265Z" fill="url(#paint1_linear_434_2816)"/>
<circle cx="22.9634" cy="4.03562" r="3.53562" fill="#4ED5D2"/>
<g clip-path="url(#clip0_434_2816)">
<path d="M23.8987 3.46109H23.7478V3.15915C23.7478 2.74247 23.4096 2.4043 22.9929 2.4043C22.5762 2.4043 22.2381 2.74247 22.2381 3.15915V3.46109H22.0871C21.9203 3.46109 21.7852 3.5962 21.7852 3.76303V5.27272C21.7852 5.43955 21.9203 5.57466 22.0871 5.57466H23.8987C24.0656 5.57466 24.2007 5.43955 24.2007 5.27272V3.76303C24.2007 3.5962 24.0656 3.46109 23.8987 3.46109ZM22.9929 4.81981C22.8261 4.81981 22.691 4.6847 22.691 4.51787C22.691 4.35105 22.8261 4.21593 22.9929 4.21593C23.1597 4.21593 23.2949 4.35105 23.2949 4.51787C23.2949 4.6847 23.1597 4.81981 22.9929 4.81981ZM23.4609 3.46109H22.5249V3.15915C22.5249 2.90099 22.7348 2.69114 22.9929 2.69114C23.2511 2.69114 23.4609 2.90099 23.4609 3.15915V3.46109Z" fill="white"/>
</g>
<path d="M16.9902 11.0758L17.8636 11.0103L17.7292 9.37271L16.8782 9.43822C16.7438 8.97969 16.5423 8.543 16.2735 8.17182L16.8558 7.56045L15.6241 6.42506L15.0418 7.01459C14.5939 6.75258 14.1236 6.53423 13.5861 6.4469V5.61719H11.9064V6.4469C11.2346 6.5779 10.6299 6.86175 10.1148 7.25477L9.46533 6.70891L8.36795 7.95347L9.01742 8.49934C8.74868 8.95786 8.56951 9.50372 8.50233 10.0496L7.62891 10.1151L7.76328 11.7527L8.6367 11.6872C8.77107 12.1457 8.97263 12.5605 9.24138 12.9317L8.6367 13.5649L9.86845 14.7003L10.4955 14.0671C10.921 14.3291 11.4137 14.5256 11.9288 14.613V15.4864H13.6085V14.613C14.2579 14.482 14.8626 14.22 15.3553 13.8269L16.0272 14.3946L17.1246 13.1501L16.4527 12.5824C16.7214 12.1457 16.923 11.6217 16.9902 11.0758ZM12.7351 13.1719C11.257 13.1719 10.0476 11.9928 10.0476 10.5518C10.0476 9.1107 11.257 7.93164 12.7351 7.93164C14.2132 7.93164 15.4225 9.1107 15.4225 10.5518C15.4225 12.0147 14.2355 13.1719 12.7351 13.1719Z" fill="white"/>
<circle cx="12.7453" cy="10.552" r="2.74144" fill="url(#paint2_linear_434_2816)"/>
<path d="M11.0576 10.6171L12.1714 11.4485C12.1732 11.4485 12.1732 11.4502 12.175 11.4502L12.588 11.7574C12.6233 11.7839 12.6727 11.7592 12.6727 11.715L12.6745 9.42558C12.671 9.38498 12.6657 9.34261 12.6568 9.30201C12.648 9.26318 12.6357 9.22611 12.618 9.19434C12.648 9.41851 12.5209 9.67976 12.3056 9.85099C12.2579 9.88982 12.1926 9.93218 12.1202 9.96219C12.0426 9.99573 11.8078 10.0769 11.8078 10.0769L11.1 10.3329C10.9782 10.377 10.9534 10.5394 11.0576 10.6171Z" fill="#F2EEFF"/>
<path d="M12.1614 9.94156C12.1632 9.93979 12.1667 9.93979 12.1685 9.93803C12.172 9.93626 12.1756 9.93449 12.1809 9.93096C12.1862 9.9292 12.1897 9.92567 12.195 9.9239C12.1967 9.92214 12.2003 9.92037 12.202 9.92037C12.2073 9.91684 12.2144 9.91331 12.2197 9.90978C12.2215 9.90802 12.2232 9.90802 12.225 9.90625C12.2303 9.90272 12.2356 9.89919 12.2426 9.89566C12.2462 9.8939 12.2479 9.89213 12.2515 9.89037C12.255 9.88683 12.2603 9.88507 12.2638 9.88154C12.2691 9.87801 12.2744 9.87271 12.2815 9.86918C12.2832 9.86918 12.2832 9.86742 12.285 9.86742C12.2921 9.86212 12.2991 9.85683 12.3062 9.85153C12.5215 9.68031 12.6486 9.41906 12.6186 9.19488C12.6063 9.1737 12.5904 9.15428 12.5727 9.14016L12.2056 8.86832C12.1703 8.84184 12.1191 8.86656 12.1191 8.91069V9.55145C12.1191 9.95391 11.8066 10.0757 11.8066 10.0757C11.8066 10.0757 12.0432 9.99628 12.1191 9.96274C12.1332 9.95568 12.1473 9.94862 12.1614 9.94156Z" fill="#DBD9FF"/>
<path d="M14.4608 10.535L13.347 9.7036C13.3453 9.7036 13.3453 9.70183 13.3435 9.70183L12.9304 9.39469C12.8951 9.36821 12.8457 9.39292 12.8457 9.43705V11.7265C12.8492 11.7671 12.8545 11.8095 12.8634 11.8501C12.8722 11.8889 12.8845 11.926 12.9022 11.9577C12.8722 11.7336 12.9993 11.4723 13.2146 11.3011C13.2623 11.2623 13.3276 11.2199 13.4 11.1899C13.4759 11.1563 13.7124 11.0769 13.7124 11.0769L14.4202 10.821C14.542 10.7751 14.565 10.6127 14.4608 10.535Z" fill="#F2EEFF"/>
<path d="M13.358 11.2074C13.3563 11.2092 13.3527 11.2092 13.351 11.2109C13.3474 11.2127 13.3439 11.2145 13.3386 11.218C13.3333 11.2198 13.3298 11.2233 13.3245 11.225C13.3227 11.2268 13.3192 11.2286 13.3174 11.2286C13.3121 11.2321 13.3051 11.2356 13.2998 11.2392C13.298 11.2409 13.2962 11.2409 13.2945 11.2427C13.2892 11.2462 13.2839 11.2498 13.2768 11.2533C13.2733 11.2551 13.2715 11.2568 13.268 11.2586C13.2645 11.2621 13.2592 11.2639 13.2556 11.2674C13.2504 11.2709 13.2451 11.2762 13.238 11.2798C13.2362 11.2798 13.2362 11.2815 13.2345 11.2815C13.2274 11.2868 13.2203 11.2921 13.2133 11.2974C12.9979 11.4686 12.8708 11.7299 12.9008 11.9541C12.9132 11.9753 12.9291 11.9947 12.9467 12.0088L13.3121 12.2806C13.3474 12.3071 13.3986 12.2824 13.3986 12.2383V11.5975C13.3986 11.1968 13.7111 11.0732 13.7111 11.0732C13.7111 11.0732 13.4745 11.1527 13.3986 11.1862C13.3863 11.1933 13.3721 11.2003 13.358 11.2074Z" fill="#DBD9FF"/>
<path d="M8.40022 18.8475H9.00199V19.0127H8.17578V17.4564H8.40022V18.8475Z" fill="#F7F7FF"/>
<path d="M9.31186 17.5904C9.26911 17.5904 9.23294 17.577 9.20335 17.5502C9.17375 17.5234 9.15895 17.4906 9.15895 17.4519C9.15895 17.4132 9.17375 17.3805 9.20335 17.3537C9.23294 17.3269 9.26911 17.3135 9.31186 17.3135C9.35297 17.3135 9.3875 17.3269 9.41545 17.3537C9.44504 17.3805 9.45984 17.4132 9.45984 17.4519C9.45984 17.4906 9.44504 17.5234 9.41545 17.5502C9.3875 17.577 9.35297 17.5904 9.31186 17.5904ZM9.42038 17.7891V19.0127H9.19595V17.7891H9.42038Z" fill="#F7F7FF"/>
<path d="M9.67464 18.3964C9.67464 18.2714 9.70259 18.162 9.7585 18.0682C9.8144 17.9729 9.89085 17.8992 9.98786 17.8471C10.0865 17.795 10.1967 17.769 10.3183 17.769C10.4351 17.769 10.537 17.7928 10.6242 17.8404C10.713 17.8866 10.7779 17.9439 10.819 18.0124V17.7891H11.0459V19.5932H10.819V18.7872C10.7763 18.8556 10.7105 18.9137 10.6217 18.9613C10.5329 19.009 10.4293 19.0328 10.3109 19.0328C10.1926 19.0328 10.0849 19.006 9.98786 18.9524C9.89085 18.8988 9.8144 18.8236 9.7585 18.7269C9.70259 18.6301 9.67464 18.52 9.67464 18.3964ZM10.819 18.3987C10.819 18.3064 10.7985 18.226 10.7574 18.1575C10.7162 18.089 10.6603 18.0369 10.5896 18.0012C10.5206 17.964 10.4441 17.9454 10.3603 17.9454C10.2764 17.9454 10.2 17.9632 10.1309 17.999C10.0619 18.0347 10.0068 18.0868 9.96567 18.1553C9.92456 18.2237 9.90401 18.3041 9.90401 18.3964C9.90401 18.4902 9.92456 18.5721 9.96567 18.642C10.0068 18.7105 10.0619 18.7634 10.1309 18.8006C10.2 18.8363 10.2764 18.8542 10.3603 18.8542C10.4441 18.8542 10.5206 18.8363 10.5896 18.8006C10.6603 18.7634 10.7162 18.7105 10.7574 18.642C10.7985 18.5721 10.819 18.4909 10.819 18.3987Z" fill="#F7F7FF"/>
<path d="M12.5794 17.7891V19.0127H12.355V18.8318C12.3122 18.8943 12.2522 18.9435 12.1749 18.9792C12.0993 19.0134 12.0155 19.0306 11.9234 19.0306C11.8181 19.0306 11.7236 19.0112 11.6398 18.9725C11.5559 18.9323 11.4893 18.8728 11.44 18.7939C11.3923 18.715 11.3685 18.619 11.3685 18.5058V17.7891H11.5904V18.479C11.5904 18.5996 11.6241 18.6926 11.6915 18.7581C11.759 18.8222 11.851 18.8542 11.9678 18.8542C12.0878 18.8542 12.1823 18.8207 12.2514 18.7537C12.3205 18.6867 12.355 18.5892 12.355 18.4612V17.7891H12.5794Z" fill="#F7F7FF"/>
<path d="M13.0299 17.5904C12.9871 17.5904 12.951 17.577 12.9214 17.5502C12.8918 17.5234 12.877 17.4906 12.877 17.4519C12.877 17.4132 12.8918 17.3805 12.9214 17.3537C12.951 17.3269 12.9871 17.3135 13.0299 17.3135C13.071 17.3135 13.1055 17.3269 13.1335 17.3537C13.1631 17.3805 13.1779 17.4132 13.1779 17.4519C13.1779 17.4906 13.1631 17.5234 13.1335 17.5502C13.1055 17.577 13.071 17.5904 13.0299 17.5904ZM13.1384 17.7891V19.0127H12.914V17.7891H13.1384Z" fill="#F7F7FF"/>
<path d="M13.3927 18.3964C13.3927 18.2714 13.4206 18.162 13.4765 18.0682C13.5324 17.9729 13.6089 17.8992 13.7059 17.8471C13.8045 17.795 13.9147 17.769 14.0364 17.769C14.1416 17.769 14.2394 17.7913 14.3299 17.836C14.4203 17.8791 14.4893 17.9364 14.537 18.0079V17.3604H14.7639V19.0127H14.537V18.7827C14.4926 18.8556 14.4269 18.9159 14.3397 18.9636C14.2526 19.0097 14.1506 19.0328 14.0339 19.0328C13.9139 19.0328 13.8045 19.006 13.7059 18.9524C13.6089 18.8988 13.5324 18.8236 13.4765 18.7269C13.4206 18.6301 13.3927 18.52 13.3927 18.3964ZM14.537 18.3987C14.537 18.3064 14.5165 18.226 14.4754 18.1575C14.4343 18.089 14.3784 18.0369 14.3077 18.0012C14.2386 17.964 14.1621 17.9454 14.0783 17.9454C13.9944 17.9454 13.918 17.9632 13.8489 17.999C13.7799 18.0347 13.7248 18.0868 13.6837 18.1553C13.6426 18.2237 13.622 18.3041 13.622 18.3964C13.622 18.4902 13.6426 18.5721 13.6837 18.642C13.7248 18.7105 13.7799 18.7634 13.8489 18.8006C13.918 18.8363 13.9944 18.8542 14.0783 18.8542C14.1621 18.8542 14.2386 18.8363 14.3077 18.8006C14.3784 18.7634 14.4343 18.7105 14.4754 18.642C14.5165 18.5721 14.537 18.4909 14.537 18.3987Z" fill="#F7F7FF"/>
<path d="M15.2147 17.5904C15.172 17.5904 15.1358 17.577 15.1062 17.5502C15.0766 17.5234 15.0618 17.4906 15.0618 17.4519C15.0618 17.4132 15.0766 17.3805 15.1062 17.3537C15.1358 17.3269 15.172 17.3135 15.2147 17.3135C15.2558 17.3135 15.2904 17.3269 15.3183 17.3537C15.3479 17.3805 15.3627 17.4132 15.3627 17.4519C15.3627 17.4906 15.3479 17.5234 15.3183 17.5502C15.2904 17.577 15.2558 17.5904 15.2147 17.5904ZM15.3232 17.7891V19.0127H15.0988V17.7891H15.3232Z" fill="#F7F7FF"/>
<path d="M15.9351 17.9565V18.6778C15.9351 18.7373 15.9491 18.7797 15.977 18.805C16.005 18.8289 16.0535 18.8408 16.1226 18.8408H16.2878V19.0127H16.0856C15.9606 19.0127 15.8669 18.9866 15.8044 18.9345C15.7419 18.8824 15.7107 18.7968 15.7107 18.6778V17.9565H15.5356V17.7891H15.7107V17.4809H15.9351V17.7891H16.2878V17.9565H15.9351Z" fill="#F7F7FF"/>
<path d="M17.6794 17.7891L16.8655 19.5888H16.6337L16.9001 18.9993L16.355 17.7891H16.6041L17.0283 18.7805L17.4476 17.7891H17.6794Z" fill="#F7F7FF"/>
<path d="M9.30184 20.3929V22.0452H9.07741V20.3929H9.30184Z" fill="#F7F7FF"/>
<path d="M10.2294 22.0653C10.1028 22.0653 9.98771 22.0393 9.88412 21.9872C9.78218 21.9351 9.70162 21.8614 9.64243 21.7661C9.58488 21.6693 9.5561 21.5577 9.5561 21.4312C9.5561 21.3061 9.5857 21.196 9.64489 21.1007C9.70573 21.0039 9.78794 20.9303 9.89152 20.8796C9.99511 20.8275 10.111 20.8015 10.2393 20.8015C10.3675 20.8015 10.4834 20.8275 10.587 20.8796C10.6906 20.9303 10.772 21.0032 10.8312 21.0985C10.892 21.1937 10.9224 21.3046 10.9224 21.4312C10.9224 21.5577 10.8912 21.6693 10.8287 21.7661C10.7679 21.8614 10.6849 21.9351 10.5796 21.9872C10.4744 22.0393 10.3577 22.0653 10.2294 22.0653ZM10.2294 21.8867C10.31 21.8867 10.3856 21.8696 10.4563 21.8353C10.527 21.8011 10.5837 21.7497 10.6265 21.6812C10.6709 21.6128 10.6931 21.5294 10.6931 21.4312C10.6931 21.3329 10.6717 21.2496 10.6289 21.1811C10.5862 21.1126 10.5303 21.062 10.4612 21.0292C10.3922 20.995 10.3174 20.9779 10.2368 20.9779C10.1546 20.9779 10.079 20.995 10.0099 21.0292C9.94249 21.062 9.88823 21.1126 9.84713 21.1811C9.80602 21.2496 9.78547 21.3329 9.78547 21.4312C9.78547 21.5309 9.8052 21.615 9.84466 21.6835C9.88577 21.752 9.94003 21.8033 10.0074 21.8375C10.0749 21.8703 10.1488 21.8867 10.2294 21.8867Z" fill="#F7F7FF"/>
<path d="M11.0893 21.4312C11.0893 21.3046 11.1172 21.1945 11.1731 21.1007C11.229 21.0054 11.3063 20.9317 11.405 20.8796C11.5053 20.8275 11.6195 20.8015 11.7478 20.8015C11.9139 20.8015 12.0503 20.838 12.1572 20.9109C12.2657 20.9838 12.3372 21.0851 12.3718 21.2146H12.1301C12.107 21.1401 12.0618 21.0814 11.9944 21.0382C11.9286 20.995 11.8464 20.9734 11.7478 20.9734C11.6195 20.9734 11.516 21.0136 11.437 21.094C11.3581 21.1729 11.3186 21.2853 11.3186 21.4312C11.3186 21.5785 11.3581 21.6924 11.437 21.7728C11.516 21.8532 11.6195 21.8934 11.7478 21.8934C11.8464 21.8934 11.9286 21.8725 11.9944 21.8309C12.0602 21.7892 12.1054 21.7296 12.1301 21.6522H12.3718C12.3356 21.7773 12.2632 21.8777 12.1547 21.9537C12.0462 22.0281 11.9106 22.0653 11.7478 22.0653C11.6195 22.0653 11.5053 22.0393 11.405 21.9872C11.3063 21.9351 11.229 21.8614 11.1731 21.7661C11.1172 21.6708 11.0893 21.5592 11.0893 21.4312Z" fill="#F7F7FF"/>
<path d="M13.3815 22.0452L12.8513 21.5049V22.0452H12.6268V20.3929H12.8513V21.3642L13.3717 20.8216H13.6849L13.0486 21.4312L13.6873 22.0452H13.3815Z" fill="#F7F7FF"/>
<path d="M15.0849 21.3865C15.0849 21.4252 15.0824 21.4661 15.0775 21.5093H13.9972C14.0055 21.6299 14.0507 21.7244 14.1329 21.7929C14.2167 21.8599 14.3179 21.8934 14.4362 21.8934C14.5332 21.8934 14.6138 21.8733 14.6779 21.8331C14.7437 21.7914 14.7897 21.7363 14.816 21.6679H15.0577C15.0216 21.7854 14.9492 21.8815 14.8407 21.9559C14.7322 22.0288 14.5974 22.0653 14.4362 22.0653C14.308 22.0653 14.1929 22.0393 14.091 21.9872C13.9907 21.9351 13.9117 21.8614 13.8542 21.7661C13.7966 21.6693 13.7679 21.5577 13.7679 21.4312C13.7679 21.3046 13.7958 21.1937 13.8517 21.0985C13.9076 21.0032 13.9857 20.9303 14.086 20.8796C14.188 20.8275 14.3047 20.8015 14.4362 20.8015C14.5645 20.8015 14.6779 20.8268 14.7766 20.8774C14.8752 20.928 14.9509 20.998 15.0035 21.0873C15.0577 21.1751 15.0849 21.2749 15.0849 21.3865ZM14.853 21.3441C14.853 21.2667 14.8341 21.2004 14.7963 21.1454C14.7585 21.0888 14.7067 21.0464 14.6409 21.0181C14.5768 20.9883 14.5053 20.9734 14.4264 20.9734C14.3129 20.9734 14.2159 21.0062 14.1353 21.0717C14.0564 21.1372 14.0112 21.228 13.9997 21.3441H14.853Z" fill="#F7F7FF"/>
<path d="M15.2529 21.4289C15.2529 21.3039 15.2808 21.1945 15.3367 21.1007C15.3926 21.0054 15.4691 20.9317 15.5661 20.8796C15.6647 20.8275 15.7749 20.8015 15.8966 20.8015C16.0018 20.8015 16.0996 20.8238 16.1901 20.8685C16.2805 20.9117 16.3496 20.969 16.3972 21.0404V20.3929H16.6241V22.0452H16.3972V21.8152C16.3528 21.8882 16.2871 21.9484 16.1999 21.9961C16.1128 22.0422 16.0109 22.0653 15.8941 22.0653C15.7741 22.0653 15.6647 22.0385 15.5661 21.9849C15.4691 21.9313 15.3926 21.8562 15.3367 21.7594C15.2808 21.6626 15.2529 21.5525 15.2529 21.4289ZM16.3972 21.4312C16.3972 21.3389 16.3767 21.2585 16.3356 21.19C16.2945 21.1215 16.2386 21.0694 16.1679 21.0337C16.0988 20.9965 16.0224 20.9779 15.9385 20.9779C15.8547 20.9779 15.7782 20.9958 15.7091 21.0315C15.6401 21.0672 15.585 21.1193 15.5439 21.1878C15.5028 21.2563 15.4822 21.3366 15.4822 21.4289C15.4822 21.5227 15.5028 21.6046 15.5439 21.6745C15.585 21.743 15.6401 21.7959 15.7091 21.8331C15.7782 21.8688 15.8547 21.8867 15.9385 21.8867C16.0224 21.8867 16.0988 21.8688 16.1679 21.8331C16.2386 21.7959 16.2945 21.743 16.3356 21.6745C16.3767 21.6046 16.3972 21.5235 16.3972 21.4312Z" fill="#F7F7FF"/>
<defs>
<linearGradient id="paint0_linear_434_2816" x1="8.93466" y1="24.9509" x2="26.6341" y2="-1.39422" gradientUnits="userSpaceOnUse">
<stop stop-color="#554FD8"/>
<stop offset="1" stop-color="#7770E0"/>
</linearGradient>
<linearGradient id="paint1_linear_434_2816" x1="12.7924" y1="-3.70353" x2="12.7924" y2="30.2903" gradientUnits="userSpaceOnUse">
<stop stop-color="white" stop-opacity="0"/>
<stop offset="0.633743" stop-color="white"/>
<stop offset="1" stop-color="white" stop-opacity="0"/>
</linearGradient>
<linearGradient id="paint2_linear_434_2816" x1="12.7453" y1="7.81055" x2="12.7453" y2="13.2934" gradientUnits="userSpaceOnUse">
<stop stop-color="#7770E0"/>
<stop offset="1" stop-color="#554FD8"/>
</linearGradient>
<clipPath id="clip0_434_2816">
<rect width="3.62328" height="3.62328" fill="white" transform="translate(21.1816 2.25293)"/>
</clipPath>
</defs>
</svg>
