<svg width="86" height="24" viewBox="0 0 86 24" fill="none" xmlns="http://www.w3.org/2000/svg">
<rect width="86" height="24" rx="6" fill="url(#paint0_linear_434_4387)"/>
<path d="M36.8326 9.44V10.184H35.3526V15H34.4406V10.184H32.9526V9.44H36.8326ZM39.6683 15.072C39.2523 15.072 38.8763 14.9787 38.5403 14.792C38.2043 14.6 37.9403 14.3333 37.7483 13.992C37.5563 13.6453 37.4603 13.2453 37.4603 12.792C37.4603 12.344 37.5589 11.9467 37.7563 11.6C37.9536 11.2533 38.2229 10.9867 38.5643 10.8C38.9056 10.6133 39.2869 10.52 39.7083 10.52C40.1296 10.52 40.5109 10.6133 40.8523 10.8C41.1936 10.9867 41.4629 11.2533 41.6603 11.6C41.8576 11.9467 41.9563 12.344 41.9563 12.792C41.9563 13.24 41.8549 13.6373 41.6523 13.984C41.4496 14.3307 41.1723 14.6 40.8203 14.792C40.4736 14.9787 40.0896 15.072 39.6683 15.072ZM39.6683 14.28C39.9029 14.28 40.1216 14.224 40.3243 14.112C40.5323 14 40.7003 13.832 40.8283 13.608C40.9563 13.384 41.0203 13.112 41.0203 12.792C41.0203 12.472 40.9589 12.2027 40.8363 11.984C40.7136 11.76 40.5509 11.592 40.3483 11.48C40.1456 11.368 39.9269 11.312 39.6923 11.312C39.4576 11.312 39.2389 11.368 39.0363 11.48C38.8389 11.592 38.6816 11.76 38.5643 11.984C38.4469 12.2027 38.3883 12.472 38.3883 12.792C38.3883 13.2667 38.5083 13.6347 38.7483 13.896C38.9936 14.152 39.3003 14.28 39.6683 14.28ZM43.7698 11.24C43.9245 11.0373 44.1351 10.8667 44.4018 10.728C44.6685 10.5893 44.9698 10.52 45.3058 10.52C45.6898 10.52 46.0391 10.616 46.3538 10.808C46.6738 10.9947 46.9245 11.2587 47.1058 11.6C47.2871 11.9413 47.3778 12.3333 47.3778 12.776C47.3778 13.2187 47.2871 13.616 47.1058 13.968C46.9245 14.3147 46.6738 14.5867 46.3538 14.784C46.0391 14.976 45.6898 15.072 45.3058 15.072C44.9698 15.072 44.6711 15.0053 44.4098 14.872C44.1485 14.7333 43.9351 14.5627 43.7698 14.36V17.096H42.8578V10.592H43.7698V11.24ZM46.4498 12.776C46.4498 12.472 46.3858 12.2107 46.2578 11.992C46.1351 11.768 45.9698 11.6 45.7618 11.488C45.5591 11.3707 45.3405 11.312 45.1058 11.312C44.8765 11.312 44.6578 11.3707 44.4498 11.488C44.2471 11.6053 44.0818 11.776 43.9538 12C43.8311 12.224 43.7698 12.488 43.7698 12.792C43.7698 13.096 43.8311 13.3627 43.9538 13.592C44.0818 13.816 44.2471 13.9867 44.4498 14.104C44.6578 14.2213 44.8765 14.28 45.1058 14.28C45.3405 14.28 45.5591 14.2213 45.7618 14.104C45.9698 13.9813 46.1351 13.8053 46.2578 13.576C46.3858 13.3467 46.4498 13.08 46.4498 12.776ZM51.2698 14.264H53.1498V15H50.3578V9.44H51.2698V14.264ZM55.8245 15.072C55.4085 15.072 55.0325 14.9787 54.6965 14.792C54.3605 14.6 54.0965 14.3333 53.9045 13.992C53.7125 13.6453 53.6165 13.2453 53.6165 12.792C53.6165 12.344 53.7152 11.9467 53.9125 11.6C54.1098 11.2533 54.3792 10.9867 54.7205 10.8C55.0618 10.6133 55.4432 10.52 55.8645 10.52C56.2858 10.52 56.6672 10.6133 57.0085 10.8C57.3498 10.9867 57.6192 11.2533 57.8165 11.6C58.0138 11.9467 58.1125 12.344 58.1125 12.792C58.1125 13.24 58.0112 13.6373 57.8085 13.984C57.6058 14.3307 57.3285 14.6 56.9765 14.792C56.6298 14.9787 56.2458 15.072 55.8245 15.072ZM55.8245 14.28C56.0592 14.28 56.2778 14.224 56.4805 14.112C56.6885 14 56.8565 13.832 56.9845 13.608C57.1125 13.384 57.1765 13.112 57.1765 12.792C57.1765 12.472 57.1152 12.2027 56.9925 11.984C56.8698 11.76 56.7072 11.592 56.5045 11.48C56.3018 11.368 56.0832 11.312 55.8485 11.312C55.6138 11.312 55.3952 11.368 55.1925 11.48C54.9952 11.592 54.8378 11.76 54.7205 11.984C54.6032 12.2027 54.5445 12.472 54.5445 12.792C54.5445 13.2667 54.6645 13.6347 54.9045 13.896C55.1498 14.152 55.4565 14.28 55.8245 14.28ZM58.7101 12.792C58.7101 12.3387 58.8007 11.9413 58.9821 11.6C59.1687 11.2533 59.4247 10.9867 59.7501 10.8C60.0754 10.6133 60.4487 10.52 60.8701 10.52C61.4034 10.52 61.8434 10.648 62.1901 10.904C62.5421 11.1547 62.7794 11.5147 62.9021 11.984H61.9181C61.8381 11.7653 61.7101 11.5947 61.5341 11.472C61.3581 11.3493 61.1367 11.288 60.8701 11.288C60.4967 11.288 60.1981 11.4213 59.9741 11.688C59.7554 11.9493 59.6461 12.3173 59.6461 12.792C59.6461 13.2667 59.7554 13.6373 59.9741 13.904C60.1981 14.1707 60.4967 14.304 60.8701 14.304C61.3981 14.304 61.7474 14.072 61.9181 13.608H62.9021C62.7741 14.056 62.5341 14.4133 62.1821 14.68C61.8301 14.9413 61.3927 15.072 60.8701 15.072C60.4487 15.072 60.0754 14.9787 59.7501 14.792C59.4247 14.6 59.1687 14.3333 58.9821 13.992C58.8007 13.6453 58.7101 13.2453 58.7101 12.792ZM65.5549 12.8L67.5869 15H66.3549L64.7229 13.104V15H63.8109V9.08H64.7229V12.52L66.3229 10.592H67.5869L65.5549 12.8ZM72.2806 12.688C72.2806 12.8533 72.27 13.0027 72.2486 13.136H68.8806C68.9073 13.488 69.038 13.7707 69.2726 13.984C69.5073 14.1973 69.7953 14.304 70.1366 14.304C70.6273 14.304 70.974 14.0987 71.1766 13.688H72.1606C72.0273 14.0933 71.7846 14.4267 71.4326 14.688C71.086 14.944 70.654 15.072 70.1366 15.072C69.7153 15.072 69.3366 14.9787 69.0006 14.792C68.67 14.6 68.4086 14.3333 68.2166 13.992C68.03 13.6453 67.9366 13.2453 67.9366 12.792C67.9366 12.3387 68.0273 11.9413 68.2086 11.6C68.3953 11.2533 68.654 10.9867 68.9846 10.8C69.3206 10.6133 69.7046 10.52 70.1366 10.52C70.5526 10.52 70.9233 10.6107 71.2486 10.792C71.574 10.9733 71.8273 11.2293 72.0086 11.56C72.19 11.8853 72.2806 12.2613 72.2806 12.688ZM71.3286 12.4C71.3233 12.064 71.2033 11.7947 70.9686 11.592C70.734 11.3893 70.4433 11.288 70.0966 11.288C69.782 11.288 69.5126 11.3893 69.2886 11.592C69.0646 11.7893 68.9313 12.0587 68.8886 12.4H71.3286ZM72.8741 12.776C72.8741 12.3333 72.9648 11.9413 73.1461 11.6C73.3328 11.2587 73.5835 10.9947 73.8981 10.808C74.2181 10.616 74.5728 10.52 74.9621 10.52C75.2501 10.52 75.5328 10.584 75.8101 10.712C76.0928 10.8347 76.3168 11 76.4821 11.208V9.08H77.4021V15H76.4821V14.336C76.3328 14.5493 76.1248 14.7253 75.8581 14.864C75.5968 15.0027 75.2955 15.072 74.9541 15.072C74.5701 15.072 74.2181 14.976 73.8981 14.784C73.5835 14.5867 73.3328 14.3147 73.1461 13.968C72.9648 13.616 72.8741 13.2187 72.8741 12.776ZM76.4821 12.792C76.4821 12.488 76.4181 12.224 76.2901 12C76.1675 11.776 76.0048 11.6053 75.8021 11.488C75.5995 11.3707 75.3808 11.312 75.1461 11.312C74.9115 11.312 74.6928 11.3707 74.4901 11.488C74.2875 11.6 74.1221 11.768 73.9941 11.992C73.8715 12.2107 73.8101 12.472 73.8101 12.776C73.8101 13.08 73.8715 13.3467 73.9941 13.576C74.1221 13.8053 74.2875 13.9813 74.4901 14.104C74.6981 14.2213 74.9168 14.28 75.1461 14.28C75.3808 14.28 75.5995 14.2213 75.8021 14.104C76.0048 13.9867 76.1675 13.816 76.2901 13.592C76.4181 13.3627 76.4821 13.096 76.4821 12.792Z" fill="white"/>
<mask id="mask0_434_4387" style="mask-type:alpha" maskUnits="userSpaceOnUse" x="8" y="4" width="16" height="16">
<rect x="8" y="4" width="16" height="16" fill="#D9D9D9"/>
</mask>
<g mask="url(#mask0_434_4387)">
<path d="M21.6004 12.4649L19.8592 9.75293H17.2827M21.6004 12.4649H18.4945M21.6004 12.4649L15.9769 18.1529M10.4004 12.4649L12.0239 9.75293H14.6122M10.4004 12.4649H13.4827M10.4004 12.4649L15.9769 18.1529M14.6122 9.75293L13.4827 12.4649M14.6122 9.75293H17.2827M13.4827 12.4649H18.4945M13.4827 12.4649L15.9769 18.1529M17.2827 9.75293L18.4945 12.4649M18.4945 12.4649L15.9769 18.1529" stroke="white" stroke-linejoin="round"/>
<path d="M16 7.23294V5.59961" stroke="white" stroke-linecap="round" stroke-linejoin="round"/>
<path d="M17.8669 7.80806L18.6836 6.39355" stroke="white" stroke-linecap="round" stroke-linejoin="round"/>
<path d="M20.2005 8.57486L21.3555 7.41992" stroke="white" stroke-linecap="round" stroke-linejoin="round"/>
<path d="M11.5553 8.57486L10.4004 7.41992" stroke="white" stroke-linecap="round" stroke-linejoin="round"/>
<path d="M14.0159 7.80806L13.1992 6.39355" stroke="white" stroke-linecap="round" stroke-linejoin="round"/>
</g>
<defs>
<linearGradient id="paint0_linear_434_4387" x1="0" y1="0" x2="86.9262" y2="4.03192" gradientUnits="userSpaceOnUse">
<stop stop-color="#A05BF8"/>
<stop offset="1" stop-color="#F03B3B"/>
</linearGradient>
</defs>
</svg>
