<svg width="16" height="16" viewBox="0 0 16 16" fill="none" xmlns="http://www.w3.org/2000/svg">
<path d="M8 0C12.4263 0 16 3.5737 16 8C16 12.4263 12.4263 16 8 16C3.5737 16 0 12.4263 0 8C0 3.5737 3.5737 0 8 0Z" fill="#DB2728"/>
<path d="M5.58686 9.77857C5.38732 9.85113 5.16963 9.88741 4.95194 9.88741C3.93607 9.88741 3.11974 9.07109 3.11974 8.05521C3.11974 7.03934 3.93607 6.22301 4.95194 6.22301C5.00636 6.22301 5.06078 6.22301 5.11521 6.22301V5.47925C5.06078 5.47925 5.00636 5.47925 4.95194 5.47925C3.51883 5.47925 2.37598 6.64025 2.37598 8.05521C2.37598 9.48832 3.53697 10.6312 4.95194 10.6312C5.36917 10.6312 5.76827 10.5223 6.11294 10.3591C5.91339 10.1958 5.73199 9.99626 5.58686 9.77857Z" fill="white"/>
<path d="M6.78641 8.07298C6.78641 8.45394 6.67756 8.79861 6.47802 9.08886C6.605 9.30654 6.7864 9.48795 7.00409 9.63308C7.33062 9.1977 7.53017 8.65348 7.53017 8.07298V4.13647H6.78641V6.24078C6.62314 6.07752 6.44173 5.93239 6.24219 5.82355V6.74872C6.56872 7.09339 6.78641 7.54691 6.78641 8.07298Z" fill="white"/>
<path d="M10.576 2.64941C9.14286 2.64941 8 3.81041 8 5.22538V5.24352V9.14375H8.74376V7.03944C8.96145 7.25712 9.23356 7.43853 9.52381 7.58365V6.71291C9.05215 6.38638 8.74376 5.84216 8.74376 5.22538C8.74376 4.2095 9.56009 3.39318 10.576 3.39318C11.5918 3.39318 12.4082 4.2095 12.4082 5.22538C12.4082 6.22311 11.6281 7.0213 10.6304 7.05758V7.80134C12.0272 7.76506 13.1519 6.6222 13.1519 5.22538C13.1701 3.79227 12.0091 2.64941 10.576 2.64941Z" fill="white"/>
<path d="M9.70504 8.23595C9.70504 9.25182 8.88871 10.0681 7.87284 10.0681C6.85697 10.0681 6.04064 9.25182 6.04064 8.23595V5.40602V4.71667H5.29688V5.40602C5.29688 5.4423 5.29688 5.46044 5.29688 5.49672V8.4355C5.40572 9.75976 6.51229 10.8119 7.87284 10.8119C8.59846 10.8119 9.23338 10.5217 9.70504 10.05V11.1747C9.70504 12.1906 8.88871 13.0069 7.87284 13.0069C7.32862 13.0069 6.83883 12.7711 6.49415 12.3901C6.33089 12.1906 6.18576 11.9729 6.1132 11.7189L5.5327 12.2994C5.64155 12.5353 5.78667 12.7348 5.96808 12.9344C6.43973 13.4423 7.11093 13.7688 7.87284 13.7688C8.94313 13.7688 9.8683 13.1158 10.2493 12.1725C10.3762 11.8641 10.4488 11.5375 10.4488 11.1747V8.65318V8.23595V5.71441H9.70504V8.23595V8.23595Z" fill="white"/>
</svg>
